<svg xmlns="http://www.w3.org/2000/svg" width="180.28" height="260.853" viewBox="0 0 180.28 260.853"><path d="M9.996 65.418c0-30.23 24.711-54.941 54.942-54.941H1287.24c30.15 0 54.86 24.71 54.86 54.941V1891.94c0 30.22-24.71 54.94-54.86 54.94H64.938c-30.231 0-54.942-24.72-54.942-54.94z" style="fill:#fff;fill-opacity:1;fill-rule:nonzero;stroke:none" transform="matrix(.13333 0 0 -.13333 0 260.917)"/><path d="M9.996 65.418c0-30.23 24.711-54.941 54.942-54.941H1287.24c30.15 0 54.86 24.71 54.86 54.941V1891.94c0 30.22-24.71 54.94-54.86 54.94H64.938c-30.231 0-54.942-24.72-54.942-54.94z" style="fill:none;stroke:#000;stroke-width:19.9926;stroke-linecap:butt;stroke-linejoin:miter;stroke-miterlimit:10;stroke-dasharray:none;stroke-opacity:1" transform="matrix(.13333 0 0 -.13333 0 260.917)"/><path d="M40.469 1657.77v21.48H52.03l53.274 243.59h22.652l53.367-243.59h13.457v-21.48h-66.254v21.48h13.836l-11.656 54.15H77.531l-11.851-54.15h16.875v-21.48zm41.707 97.12h43.887l-21.801 101.38zM1319.63 307.566v-21.484h-11.57l-53.27-243.59h-22.65l-53.37 243.59h-13.46v21.484h66.26v-21.484h-13.84l11.66-54.148h53.17l11.85 54.148h-16.87v21.484zm-41.71-97.117h-43.89l21.81-101.379zM180.492 1577.24c-.078-37.67-47.262-65.1-61.097-94.93-13.993 29.75-61.258 56.94-61.575 94.61-.082 17.75 13.672 32.22 30.547 32.22 16.953 0 30.789-14.31 30.789-32.06 0 17.83 13.676 32.22 30.547 32.22 16.953.09 30.711-14.31 30.789-32.06M1179.6 388.098c.08 37.664 47.26 65.093 61.1 94.922 14-29.747 61.26-56.938 61.58-94.602.08-17.754-13.68-32.23-30.55-32.23-16.96 0-30.79 14.316-30.79 32.07 0-17.836-13.68-32.231-30.55-32.231-16.95-.078-30.71 14.317-30.79 32.071M827.258 1113.03c-.192-90.4-113.43-156.229-146.633-227.819-33.59 71.398-147.02 136.659-147.785 227.059-.192 42.6 32.82 77.34 73.316 77.34 40.688 0 73.891-34.35 73.891-76.96 0 42.8 32.82 77.35 73.316 77.35 40.692.19 73.703-34.36 73.895-76.97" style="fill:#e6180a;fill-opacity:1;fill-rule:nonzero;stroke:none" transform="matrix(.13333 0 0 -.13333 0 260.917)"/></svg>