<svg xmlns="http://www.w3.org/2000/svg" width="180.28" height="260.853" viewBox="0 0 180.28 260.853"><path d="M9.996 65.418c0-30.23 24.711-54.941 54.942-54.941H1287.24c30.15 0 54.86 24.71 54.86 54.941V1891.94c0 30.22-24.71 54.94-54.86 54.94H64.938c-30.231 0-54.942-24.72-54.942-54.94z" style="fill:#fff;fill-opacity:1;fill-rule:nonzero;stroke:none" transform="matrix(.13333 0 0 -.13333 0 260.917)"/><path d="M9.996 65.418c0-30.23 24.711-54.941 54.942-54.941H1287.24c30.15 0 54.86 24.71 54.86 54.941V1891.94c0 30.22-24.71 54.94-54.86 54.94H64.938c-30.231 0-54.942-24.72-54.942-54.94z" style="fill:none;stroke:#000;stroke-width:19.9926;stroke-linecap:butt;stroke-linejoin:miter;stroke-miterlimit:10;stroke-dasharray:none;stroke-opacity:1" transform="matrix(.13333 0 0 -.13333 0 260.917)"/><path d="M40.469 1657.76v21.48H52.03l53.274 243.6h22.652l53.367-243.6h13.457v-21.48h-66.254v21.48h13.836l-11.656 54.15H77.531l-11.851-54.15h16.875v-21.48zm41.707 97.12h43.887l-21.801 101.38zM1319.63 307.566v-21.484h-11.57l-53.27-243.59h-22.65l-53.37 243.59h-13.46v21.484h66.26v-21.484h-13.84l11.66-54.148h53.17l11.85 54.148h-16.87v21.484zm-41.71-97.117h-43.89l21.81-101.379zM87.809 1482.39c13.355 0 20.39 14.23 24.07 28.47 3.68 14.23 3.996 28.46 3.996 28.46l6.801.09s1.277-57.02 27.988-57.02z" style="fill:#000;fill-opacity:1;fill-rule:nonzero;stroke:none" transform="matrix(.13333 0 0 -.13333 0 260.917)"/><path d="M65.176 1539.41c.078 27.74 41.746 47.89 53.98 69.81 12.235-21.99 53.899-42.15 53.981-69.81 0-13.12-12.078-23.76-27.032-23.76-14.875 0-26.949 10.64-26.949 23.76 0-13.12-12.074-23.76-27.031-23.76-14.953 0-26.95 10.64-26.95 23.76M1272.29 482.941c-13.36 0-20.4-14.234-24.08-28.468-3.67-14.235-3.99-28.469-3.99-28.469l-6.8-.082s-1.28 57.019-27.99 57.019z" style="fill:#000;fill-opacity:1;fill-rule:nonzero;stroke:none" transform="matrix(.13333 0 0 -.13333 0 260.917)"/><path d="M1294.92 425.922c-.08-27.75-41.74-47.902-53.98-69.813-12.24 21.993-53.9 42.145-53.98 69.813 0 13.117 12.08 23.75 27.03 23.75 14.87 0 26.95-10.633 26.95-23.75 0 13.117 12.08 23.75 27.03 23.75s26.95-10.633 26.95-23.75M604.813 885.41c32.05 0 48.941 34.164 57.769 68.324 8.828 34.164 9.598 68.326 9.598 68.326l16.312.19s3.071-136.84 67.176-136.84z" style="fill:#000;fill-opacity:1;fill-rule:nonzero;stroke:none" transform="matrix(.13333 0 0 -.13333 0 260.917)"/><path d="M550.496 1022.25c.192 66.6 100.188 114.97 129.551 167.56 29.367-52.78 129.359-101.15 129.555-167.56 0-31.473-28.985-57-64.875-57-35.7 0-64.68 25.527-64.68 57 0-31.473-28.981-57-64.871-57-35.891 0-64.68 25.527-64.68 57" style="fill:#000;fill-opacity:1;fill-rule:nonzero;stroke:none" transform="matrix(.13333 0 0 -.13333 0 260.917)"/></svg>