<svg xmlns="http://www.w3.org/2000/svg" width="180.28" height="260.853" viewBox="0 0 180.28 260.853"><path d="M9.996 65.418c0-30.23 24.711-54.941 54.942-54.941H1287.24c30.15 0 54.86 24.71 54.86 54.941V1891.94c0 30.22-24.71 54.94-54.86 54.94H64.938c-30.231 0-54.942-24.72-54.942-54.94z" style="fill:#fff;fill-opacity:1;fill-rule:nonzero;stroke:none" transform="matrix(.13333 0 0 -.13333 0 260.917)"/><path d="M9.996 65.418c0-30.23 24.711-54.941 54.942-54.941H1287.24c30.15 0 54.86 24.71 54.86 54.941V1891.94c0 30.22-24.71 54.94-54.86 54.94H64.938c-30.231 0-54.942-24.72-54.942-54.94z" style="fill:none;stroke:#000;stroke-width:19.9926;stroke-linecap:butt;stroke-linejoin:miter;stroke-miterlimit:10;stroke-dasharray:none;stroke-opacity:1" transform="matrix(.13333 0 0 -.13333 0 260.917)"/><path d="M67.578 1857.33H56.203v57.17c7.707 4.38 15.324 7.63 22.844 9.77 7.582 2.24 15.23 3.37 22.937 3.37 18.012 0 32.039-6.93 42.086-20.78 10.114-13.73 15.168-32.9 15.168-57.52 0-17.52-2.781-33.26-8.343-47.23-5.559-13.84-16.176-30.3-31.848-49.36l-39.43-48.46h67.012v31.24h12.988v-77.76H54.969v43.32l20.949 27.16c17.883 23.09 29.797 42.73 35.734 58.95 5.942 16.21 8.911 35.15 8.911 56.81 0 20.48-2.274 36.04-6.825 46.7-4.484 10.77-11.058 16.15-19.715 16.15q-11.187 0-17.914-12.78-6.732-12.6-8.53-36.75M1292.52 108.004h11.37V50.836c-7.71-4.379-15.32-7.637-22.84-9.766-7.59-2.25-15.23-3.375-22.94-3.375q-27.015.001-42.09 20.774c-10.11 13.73-15.16 32.906-15.16 57.527q0 26.274 8.34 47.227c5.56 13.847 16.18 30.3 31.85 49.355l39.43 48.473h-67.02v-31.25h-12.98v77.765h104.65v-43.32l-20.95-27.164c-17.89-23.082-29.8-42.73-35.74-58.945q-8.91-24.328-8.91-56.817c0-20.476 2.27-36.043 6.83-46.695q6.72-16.155 19.71-16.156 11.19 0 17.91 12.785c4.49 8.402 7.34 20.652 8.54 36.75M180.492 1577.24c-.078-37.67-47.262-65.1-61.097-94.93-13.993 29.75-61.258 56.94-61.575 94.61-.082 17.75 13.672 32.22 30.547 32.22 16.953 0 30.789-14.31 30.789-32.06 0 17.83 13.676 32.22 30.547 32.22 16.953.09 30.711-14.31 30.789-32.06M1179.6 388.098c.08 37.664 47.26 65.093 61.1 94.922 14-29.747 61.26-56.938 61.58-94.602.08-17.754-13.68-32.23-30.55-32.23-16.96 0-30.79 14.316-30.79 32.07 0-17.836-13.68-32.231-30.55-32.231-16.95-.078-30.71 14.317-30.79 32.071M532.832 270.176c.191 90.398 113.43 156.23 146.633 227.82 33.586-71.398 147.015-136.652 147.785-227.051.191-42.609-32.82-77.347-73.316-77.347-40.692 0-73.895 34.355-73.895 76.961 0-42.797-32.82-77.344-73.316-77.344-40.688-.195-73.7 34.351-73.891 76.961M827.25 1728.34c-.191-90.4-113.43-156.23-146.633-227.82-33.59 71.39-147.019 136.65-147.785 227.05-.191 42.61 32.82 77.34 73.316 77.34 40.688 0 73.891-34.35 73.891-76.96 0 42.8 32.82 77.35 73.316 77.35 40.692.19 73.704-34.35 73.895-76.96" style="fill:#e6180a;fill-opacity:1;fill-rule:nonzero;stroke:none" transform="matrix(.13333 0 0 -.13333 0 260.917)"/></svg>