<svg xmlns="http://www.w3.org/2000/svg" width="180.28" height="260.853" viewBox="0 0 180.28 260.853"><path d="M9.996 65.418c0-30.23 24.711-54.941 54.942-54.941H1287.24c30.15 0 54.86 24.71 54.86 54.941V1891.94c0 30.22-24.71 54.94-54.86 54.94H64.938c-30.231 0-54.942-24.72-54.942-54.94z" style="fill:#fff;fill-opacity:1;fill-rule:nonzero;stroke:none" transform="matrix(.13333 0 0 -.13333 0 260.917)"/><path d="M9.996 65.418c0-30.23 24.711-54.941 54.942-54.941H1287.24c30.15 0 54.86 24.71 54.86 54.941V1891.94c0 30.22-24.71 54.94-54.86 54.94H64.938c-30.231 0-54.942-24.72-54.942-54.94z" style="fill:none;stroke:#000;stroke-width:19.9926;stroke-linecap:butt;stroke-linejoin:miter;stroke-miterlimit:10;stroke-dasharray:none;stroke-opacity:1" transform="matrix(.13333 0 0 -.13333 0 260.917)"/><path d="M67.578 1857.32H56.203v57.17c7.707 4.38 15.324 7.64 22.844 9.77 7.582 2.24 15.23 3.37 22.937 3.37 18.012 0 32.039-6.92 42.086-20.77 10.114-13.73 15.168-32.91 15.168-57.53q0-26.28-8.343-47.22c-5.559-13.85-16.176-30.31-31.848-49.36l-39.43-48.47h67.012v31.24h12.988v-77.76H54.969v43.32l20.949 27.17c17.883 23.08 29.797 42.73 35.734 58.94 5.942 16.22 8.911 35.15 8.911 56.82 0 20.47-2.274 36.04-6.825 46.69-4.484 10.77-11.058 16.16-19.715 16.16-7.457 0-13.43-4.26-17.914-12.79q-6.732-12.6-8.53-36.75M1292.52 108.004h11.37V50.836c-7.71-4.379-15.32-7.637-22.84-9.766-7.59-2.25-15.23-3.375-22.94-3.375q-27.015.001-42.09 20.774c-10.11 13.73-15.16 32.906-15.16 57.527q0 26.274 8.34 47.227c5.56 13.847 16.18 30.3 31.85 49.355l39.43 48.473h-67.02v-31.25h-12.98v77.765h104.65v-43.32l-20.95-27.164c-17.89-23.082-29.8-42.73-35.74-58.945q-8.91-24.328-8.91-56.817c0-20.476 2.27-36.043 6.83-46.695q6.72-16.155 19.71-16.156 11.19 0 17.91 12.785c4.49 8.402 7.34 20.652 8.54 36.75M87.809 1482.39c13.355 0 20.39 14.23 24.07 28.47 3.68 14.23 4 28.46 4 28.46l6.797.09s1.277-57.02 27.988-57.02z" style="fill:#000;fill-opacity:1;fill-rule:nonzero;stroke:none" transform="matrix(.13333 0 0 -.13333 0 260.917)"/><path d="M65.176 1539.41c.078 27.74 41.746 47.89 53.98 69.81 12.235-21.99 53.899-42.15 53.981-69.81 0-13.12-12.078-23.76-27.032-23.76-14.875 0-26.949 10.64-26.949 23.76 0-13.12-12.074-23.76-27.031-23.76-14.953 0-26.95 10.64-26.95 23.76M1272.29 482.941c-13.36 0-20.4-14.234-24.08-28.468-3.67-14.235-3.99-28.469-3.99-28.469l-6.8-.082s-1.28 57.019-27.99 57.019z" style="fill:#000;fill-opacity:1;fill-rule:nonzero;stroke:none" transform="matrix(.13333 0 0 -.13333 0 260.917)"/><path d="M1294.92 425.922c-.08-27.75-41.74-47.902-53.98-69.813-12.24 21.993-53.9 42.145-53.98 69.813 0 13.117 12.08 23.75 27.03 23.75 14.87 0 26.95-10.633 26.95-23.75 0 13.117 12.08 23.75 27.03 23.75s26.95-10.633 26.95-23.75M755.277 497.805c-32.054 0-48.941-34.164-57.773-68.325-8.828-34.164-9.594-68.328-9.594-68.328l-16.316-.191s-3.071 136.844-67.172 136.844z" style="fill:#000;fill-opacity:1;fill-rule:nonzero;stroke:none" transform="matrix(.13333 0 0 -.13333 0 260.917)"/><path d="M809.594 360.961c-.196-66.602-100.188-114.965-129.555-167.555-29.363 52.782-129.359 101.149-129.551 167.555 0 31.477 28.981 57.004 64.871 57.004 35.7 0 64.68-25.527 64.68-57.004 0 31.477 28.981 57.004 64.871 57.004 35.891 0 64.684-25.527 64.684-57.004M604.805 1500.71c32.05 0 48.941 34.17 57.769 68.33s9.598 68.32 9.598 68.32l16.312.2s3.071-136.85 67.176-136.85z" style="fill:#000;fill-opacity:1;fill-rule:nonzero;stroke:none" transform="matrix(.13333 0 0 -.13333 0 260.917)"/><path d="M550.488 1637.56c.192 66.6 100.188 114.96 129.551 167.55 29.367-52.78 129.359-101.15 129.551-167.55 0-31.48-28.981-57.01-64.871-57.01-35.699 0-64.68 25.53-64.68 57.01 0-31.48-28.98-57.01-64.871-57.01s-64.68 25.53-64.68 57.01" style="fill:#000;fill-opacity:1;fill-rule:nonzero;stroke:none" transform="matrix(.13333 0 0 -.13333 0 260.917)"/></svg>