<svg xmlns="http://www.w3.org/2000/svg" width="180.28" height="260.853" viewBox="0 0 180.28 260.853"><path d="M9.996 65.418c0-30.23 24.711-54.941 54.942-54.941H1287.24c30.15 0 54.86 24.71 54.86 54.941V1891.94c0 30.22-24.71 54.94-54.86 54.94H64.938c-30.231 0-54.942-24.72-54.942-54.94z" style="fill:#fff;fill-opacity:1;fill-rule:nonzero;stroke:none" transform="matrix(.13333 0 0 -.13333 0 260.917)"/><path d="M9.996 65.418c0-30.23 24.711-54.941 54.942-54.941H1287.24c30.15 0 54.86 24.71 54.86 54.941V1891.94c0 30.22-24.71 54.94-54.86 54.94H64.938c-30.231 0-54.942-24.72-54.942-54.94z" style="fill:none;stroke:#000;stroke-width:19.9926;stroke-linecap:butt;stroke-linejoin:miter;stroke-miterlimit:10;stroke-dasharray:none;stroke-opacity:1" transform="matrix(.13333 0 0 -.13333 0 260.917)"/><path d="M67.578 1857.32H56.203v57.17c7.707 4.38 15.324 7.64 22.844 9.77 7.582 2.24 15.23 3.37 22.937 3.37 18.012 0 32.039-6.93 42.086-20.77 10.114-13.73 15.168-32.91 15.168-57.53q0-26.28-8.343-47.22c-5.559-13.85-16.176-30.31-31.848-49.36l-39.43-48.47h67.012v31.24h12.988v-77.76H54.969v43.32l20.949 27.17c17.883 23.08 29.797 42.73 35.734 58.94 5.942 16.22 8.911 35.15 8.911 56.81 0 20.48-2.274 36.05-6.825 46.7-4.484 10.77-11.058 16.16-19.715 16.16-7.457 0-13.43-4.27-17.914-12.79q-6.732-12.6-8.53-36.75M1292.52 108.004h11.37V50.836c-7.71-4.379-15.32-7.637-22.84-9.766-7.59-2.25-15.23-3.375-22.94-3.375q-27.015.001-42.09 20.774c-10.11 13.73-15.16 32.906-15.16 57.523q0 26.279 8.34 47.231c5.56 13.847 16.18 30.3 31.85 49.355l39.43 48.473h-67.02v-31.25h-12.98v77.765h104.65v-43.32l-20.95-27.164c-17.89-23.082-29.8-42.73-35.74-58.945q-8.91-24.328-8.91-56.817c0-20.476 2.27-36.043 6.83-46.695q6.72-16.155 19.71-16.156 11.19 0 17.91 12.785c4.49 8.402 7.34 20.652 8.54 36.75M92.367 1583.07c0-14.48 12.074-26.23 27.028-26.23 14.957 0 27.031 11.75 27.031 26.23 0 14.47-12.074 26.23-27.031 26.23-14.954 0-27.028-11.76-27.028-26.23M57.5 1533.41c0-14.48 12.074-26.23 27.027-26.23 14.957 0 27.032 11.75 27.032 26.23 0 14.47-12.075 26.23-27.032 26.23-14.953 0-27.027-11.76-27.027-26.23M126.754 1533.25c0-5.28 1.598-10.24 4.398-14.4 4.797-7.12 13.196-11.83 22.629-11.83 14.957 0 27.032 11.75 27.032 26.23 0 14.47-12.075 26.23-27.032 26.23-14.953 0-27.027-11.76-27.027-26.23M87.648 1482.3c13.356 0 20.391 10.88 24.071 21.76 3.679 10.87 4 21.75 4 21.75h6.875s1.281-43.42 27.992-43.51z" style="fill:#000;fill-opacity:1;fill-rule:nonzero;stroke:none" transform="matrix(.13333 0 0 -.13333 0 260.917)"/><path d="M137.707 1563.79c-15.191-15.19-15.191-37.98-15.191-37.98l-6.797-.08s0 23.27-14.797 38.06" style="fill:#000;fill-opacity:1;fill-rule:nonzero;stroke:none" transform="matrix(.13333 0 0 -.13333 0 260.917)"/><path d="M134.672 1515.01c-15.195 15.2-37.988 15.2-37.988 15.2v6.79s23.273 0 38.066 14.8" style="fill:#000;fill-opacity:1;fill-rule:nonzero;stroke:none" transform="matrix(.13333 0 0 -.13333 0 260.917)"/><path d="M104.203 1514.93c15.192 15.2 37.985 15.2 37.985 15.2v6.8s-23.274 0-38.067 14.79M1267.73 382.258c0 14.476-12.08 26.23-27.03 26.23s-27.03-11.754-27.03-26.23c0-14.473 12.08-26.231 27.03-26.231s27.03 11.758 27.03 26.231M1302.59 431.918c0 14.477-12.07 26.23-27.02 26.23-14.96 0-27.03-11.753-27.03-26.23 0-14.473 12.07-26.227 27.03-26.227 14.95 0 27.02 11.754 27.02 26.227M1233.34 432.078c0 5.281-1.6 10.238-4.4 14.395-4.8 7.117-13.19 11.836-22.63 11.836-14.95 0-27.03-11.754-27.03-26.231 0-14.473 12.08-26.23 27.03-26.23 14.96 0 27.03 11.757 27.03 26.23M1272.45 483.02c-13.36 0-20.4-10.875-24.07-21.75-3.68-10.875-4-21.754-4-21.754h-6.88s-1.28 43.425-27.99 43.504z" style="fill:#000;fill-opacity:1;fill-rule:nonzero;stroke:none" transform="matrix(.13333 0 0 -.13333 0 260.917)"/><path d="M1222.39 401.531c15.19 15.196 15.19 37.985 15.19 37.985l6.8.082s0-23.274 14.79-38.067" style="fill:#000;fill-opacity:1;fill-rule:nonzero;stroke:none" transform="matrix(.13333 0 0 -.13333 0 260.917)"/><path d="M1225.43 450.313c15.19-15.196 37.98-15.196 37.98-15.196v-6.797s-23.27 0-38.07-14.793" style="fill:#000;fill-opacity:1;fill-rule:nonzero;stroke:none" transform="matrix(.13333 0 0 -.13333 0 260.917)"/><path d="M1255.89 450.395c-15.19-15.196-37.98-15.196-37.98-15.196v-6.797s23.27 0 38.06-14.797M744.336 256.176c0 34.738-28.981 62.949-64.871 62.949-35.891 0-64.871-28.211-64.871-62.949 0-34.742 28.98-62.953 64.871-62.953s64.871 28.211 64.871 62.953M828.016 375.363c0 34.739-28.981 62.95-64.871 62.95-35.891 0-64.872-28.211-64.872-62.95 0-34.742 28.981-62.953 64.872-62.953s64.871 28.211 64.871 62.953M661.809 375.746c0 12.668-3.84 24.567-10.559 34.547-11.516 17.082-31.668 28.406-54.316 28.406-35.891 0-64.871-28.215-64.871-62.953s28.98-62.953 64.871-62.953 64.875 28.215 64.875 62.953M755.66 498.004c-32.051 0-48.941-26.102-57.769-52.203-8.828-26.106-9.598-52.207-9.598-52.207h-16.504s-3.074 104.219-67.176 104.41z" style="fill:#000;fill-opacity:1;fill-rule:nonzero;stroke:none" transform="matrix(.13333 0 0 -.13333 0 260.917)"/><path d="M635.512 302.43c36.468 36.465 36.468 91.164 36.468 91.164l16.313.191s0-55.851 35.508-91.355" style="fill:#000;fill-opacity:1;fill-rule:nonzero;stroke:none" transform="matrix(.13333 0 0 -.13333 0 260.917)"/><path d="M642.805 419.504c36.468-36.465 91.168-36.465 91.168-36.465v-16.312s-55.852 0-91.36-35.508" style="fill:#000;fill-opacity:1;fill-rule:nonzero;stroke:none" transform="matrix(.13333 0 0 -.13333 0 260.917)"/><path d="M715.93 419.695c-36.465-36.465-91.164-36.465-91.164-36.465v-16.312s55.851 0 91.355-35.508M615.742 1742.34c0-34.73 28.985-62.95 64.875-62.95s64.871 28.22 64.871 62.95c0 34.74-28.98 62.96-64.871 62.96s-64.875-28.22-64.875-62.96M532.063 1623.16c0-34.74 28.98-62.96 64.871-62.96s64.875 28.22 64.875 62.96c0 34.73-28.985 62.95-64.875 62.95s-64.871-28.22-64.871-62.95M698.273 1622.77c0-12.66 3.84-24.56 10.555-34.54 11.516-17.09 31.668-28.41 54.317-28.41 35.89 0 64.871 28.22 64.871 62.95 0 34.74-28.981 62.96-64.871 62.96-35.891 0-64.872-28.22-64.872-62.96M604.422 1500.52c32.051 0 48.941 26.1 57.769 52.2 8.829 26.1 9.594 52.2 9.594 52.2h16.508s3.07-104.21 67.176-104.4z" style="fill:#000;fill-opacity:1;fill-rule:nonzero;stroke:none" transform="matrix(.13333 0 0 -.13333 0 260.917)"/><path d="M724.566 1696.09c-36.464-36.46-36.464-91.17-36.464-91.17l-16.317-.19s0 55.85-35.504 91.36" style="fill:#000;fill-opacity:1;fill-rule:nonzero;stroke:none" transform="matrix(.13333 0 0 -.13333 0 260.917)"/><path d="M717.273 1579.01c-36.464 36.47-91.164 36.47-91.164 36.47v16.31s55.852 0 91.356 35.51" style="fill:#000;fill-opacity:1;fill-rule:nonzero;stroke:none" transform="matrix(.13333 0 0 -.13333 0 260.917)"/><path d="M644.148 1578.82c36.469 36.47 91.168 36.47 91.168 36.47v16.31s-55.851 0-91.359 35.51" style="fill:#000;fill-opacity:1;fill-rule:nonzero;stroke:none" transform="matrix(.13333 0 0 -.13333 0 260.917)"/></svg>