<svg xmlns="http://www.w3.org/2000/svg" width="180.28" height="260.853" viewBox="0 0 180.28 260.853"><path d="M9.996 65.418c0-30.23 24.711-54.941 54.942-54.941H1287.24c30.15 0 54.86 24.71 54.86 54.941V1891.94c0 30.22-24.71 54.94-54.86 54.94H64.938c-30.231 0-54.942-24.72-54.942-54.94z" style="fill:#fff;fill-opacity:1;fill-rule:nonzero;stroke:none" transform="matrix(.13333 0 0 -.13333 0 260.917)"/><path d="M9.996 65.418c0-30.23 24.711-54.941 54.942-54.941H1287.24c30.15 0 54.86 24.71 54.86 54.941V1891.94c0 30.22-24.71 54.94-54.86 54.94H64.938c-30.231 0-54.942-24.72-54.942-54.94z" style="fill:none;stroke:#000;stroke-width:19.9926;stroke-linecap:butt;stroke-linejoin:miter;stroke-miterlimit:10;stroke-dasharray:none;stroke-opacity:1" transform="matrix(.13333 0 0 -.13333 0 260.917)"/><path d="M58.668 1915.2c8.34 4.14 16.43 7.22 24.266 9.23 7.836 2.13 15.48 3.2 22.937 3.2q25.596 0 39.242-17.22c9.164-11.37 13.746-27.7 13.746-49 0-15.98-2.625-28.95-7.867-38.89-5.246-9.94-12.926-16.63-23.035-20.06q18.484-5.505 27.582-23.61c6.066-12.08 9.102-28.59 9.102-49.54 0-24.74-5.246-43.74-15.735-56.99q-15.64-19.71-45.406-19.71c-7.453 0-15.164 1.19-23.125 3.55-7.902 2.37-16.18 5.92-24.836 10.66v58.23h11.469c.695-16.81 3.508-29.65 8.437-38.53 4.93-8.75 11.754-13.14 20.473-13.14 9.605 0 17.031 4.98 22.277 14.92 5.243 10.06 7.868 24.26 7.868 42.61 0 19.18-2.75 33.97-8.247 44.39-5.437 10.41-13.175 15.62-23.226 15.62h-6.254v21.31h4.93c9.289 0 16.269 4.02 20.945 12.07 4.68 8.05 7.016 20.06 7.016 36.04 0 15.03-2.211 26.51-6.633 34.45-4.364 8.04-10.649 12.07-18.863 12.07-7.458 0-13.368-3.85-17.727-11.54-4.36-7.58-6.985-18.64-7.867-33.2H58.668zM1301.43 50.125c-8.34-4.144-16.43-7.219-24.27-9.234-7.84-2.13-15.48-3.196-22.94-3.196q-25.59 0-39.24 17.223c-9.16 11.363-13.74 27.7-13.75 49.004.01 15.98 2.63 28.941 7.88 38.883 5.24 9.941 12.92 16.629 23.03 20.062-12.32 3.668-21.52 11.539-27.59 23.613-6.06 12.075-9.1 28.586-9.1 49.536 0 24.738 5.25 43.734 15.74 56.992 10.43 13.137 25.56 19.707 45.4 19.707q11.19 0 23.13-3.551c7.9-2.367 16.18-5.918 24.83-10.652v-58.235h-11.46c-.7 16.809-3.51 29.649-8.44 38.528-4.93 8.758-11.76 13.136-20.47 13.136-9.61 0-17.04-4.968-22.28-14.914-5.24-10.058-7.87-24.261-7.87-42.609q0-28.765 8.25-44.387c5.43-10.418 13.18-15.625 23.22-15.625h6.26v-21.304h-4.93c-9.29 0-16.27-4.024-20.95-12.075-4.67-8.047-7.01-20.062-7.01-36.039q0-22.551 6.63-34.445c4.36-8.05 10.65-12.074 18.86-12.074q11.19 0 17.73 11.543c4.36 7.574 6.98 18.64 7.87 33.199h11.47zM87.809 1482.39c13.355 0 20.39 14.23 24.07 28.47 3.68 14.23 3.996 28.46 3.996 28.46l6.801.09s1.277-57.02 27.988-57.02z" style="fill:#000;fill-opacity:1;fill-rule:nonzero;stroke:none" transform="matrix(.13333 0 0 -.13333 0 260.917)"/><path d="M65.176 1539.41c.078 27.74 41.746 47.89 53.98 69.81 12.235-21.99 53.899-42.15 53.981-69.81 0-13.12-12.078-23.76-27.032-23.76-14.875 0-26.949 10.64-26.949 23.76 0-13.12-12.078-23.76-27.031-23.76s-26.95 10.64-26.95 23.76M1272.29 482.941c-13.36 0-20.4-14.234-24.08-28.468-3.67-14.235-3.99-28.469-3.99-28.469l-6.8-.082s-1.28 57.019-27.99 57.019z" style="fill:#000;fill-opacity:1;fill-rule:nonzero;stroke:none" transform="matrix(.13333 0 0 -.13333 0 260.917)"/><path d="M1294.92 425.922c-.08-27.75-41.74-47.902-53.98-69.813-12.24 21.993-53.9 42.145-53.98 69.813 0 13.117 12.08 23.75 27.03 23.75 14.87 0 26.95-10.633 26.95-23.75 0 13.117 12.08 23.75 27.03 23.75s26.95-10.633 26.95-23.75M755.277 497.805c-32.05 0-48.941-34.164-57.769-68.325-8.828-34.164-9.598-68.328-9.598-68.328l-16.312-.191s-3.071 136.844-67.176 136.844z" style="fill:#000;fill-opacity:1;fill-rule:nonzero;stroke:none" transform="matrix(.13333 0 0 -.13333 0 260.917)"/><path d="M809.594 360.961c-.192-66.602-100.188-114.965-129.551-167.555-29.367 52.782-129.359 101.149-129.555 167.555 0 31.477 28.985 57.004 64.875 57.004 35.7 0 64.68-25.527 64.68-57.004 0 31.477 28.98 57.004 64.871 57.004s64.68-25.527 64.68-57.004M604.805 885.41c32.05 0 48.941 34.164 57.769 68.324 8.828 34.164 9.598 68.326 9.598 68.326l16.312.19s3.075-136.84 67.176-136.84z" style="fill:#000;fill-opacity:1;fill-rule:nonzero;stroke:none" transform="matrix(.13333 0 0 -.13333 0 260.917)"/><path d="M550.488 1022.25c.192 66.6 100.188 114.97 129.555 167.56 29.363-52.78 129.359-101.15 129.551-167.56 0-31.473-28.981-57-64.871-57-35.7 0-64.68 25.527-64.68 57 0-31.473-28.984-57-64.875-57s-64.68 25.527-64.68 57M604.805 1500.71c32.05 0 48.941 34.17 57.769 68.33s9.598 68.32 9.598 68.32l16.312.2s3.075-136.85 67.176-136.85z" style="fill:#000;fill-opacity:1;fill-rule:nonzero;stroke:none" transform="matrix(.13333 0 0 -.13333 0 260.917)"/><path d="M550.488 1637.56c.192 66.6 100.188 114.96 129.555 167.55 29.363-52.78 129.359-101.15 129.551-167.55 0-31.48-28.981-57.01-64.871-57.01-35.7 0-64.68 25.53-64.68 57.01 0-31.48-28.984-57.01-64.875-57.01s-64.68 25.53-64.68 57.01" style="fill:#000;fill-opacity:1;fill-rule:nonzero;stroke:none" transform="matrix(.13333 0 0 -.13333 0 260.917)"/></svg>