<svg xmlns="http://www.w3.org/2000/svg" width="180.28" height="260.853" viewBox="0 0 180.28 260.853"><path d="M9.996 65.418c0-30.23 24.711-54.941 54.942-54.941H1287.24c30.15 0 54.86 24.71 54.86 54.941V1891.94c0 30.22-24.71 54.94-54.86 54.94H64.938c-30.231 0-54.942-24.72-54.942-54.94z" style="fill:#fff;fill-opacity:1;fill-rule:nonzero;stroke:none" transform="matrix(.13333 0 0 -.13333 0 260.917)"/><path d="M9.996 65.418c0-30.23 24.711-54.941 54.942-54.941H1287.24c30.15 0 54.86 24.71 54.86 54.941V1891.94c0 30.22-24.71 54.94-54.86 54.94H64.938c-30.231 0-54.942-24.72-54.942-54.94z" style="fill:none;stroke:#000;stroke-width:19.9926;stroke-linecap:butt;stroke-linejoin:miter;stroke-miterlimit:10;stroke-dasharray:none;stroke-opacity:1" transform="matrix(.13333 0 0 -.13333 0 260.917)"/><path d="M58.668 1915.2c8.34 4.14 16.43 7.22 24.266 9.23 7.836 2.13 15.48 3.2 22.937 3.2q25.596 0 39.242-17.22c9.164-11.37 13.746-27.7 13.746-49 0-15.98-2.625-28.95-7.867-38.89-5.246-9.94-12.926-16.63-23.035-20.06q18.484-5.505 27.582-23.61c6.066-12.08 9.102-28.59 9.102-49.54 0-24.74-5.246-43.74-15.735-56.99q-15.64-19.71-45.406-19.71c-7.453 0-15.164 1.18-23.125 3.55-7.902 2.37-16.18 5.92-24.836 10.66v58.23h11.469c.695-16.81 3.508-29.65 8.437-38.53q7.395-13.14 20.473-13.14c9.605 0 17.031 4.98 22.277 14.92 5.243 10.06 7.868 24.26 7.868 42.61 0 19.17-2.75 33.97-8.247 44.39-5.437 10.41-13.175 15.62-23.226 15.62h-6.254v21.31h4.93c9.289 0 16.269 4.02 20.945 12.07 4.68 8.05 7.016 20.06 7.016 36.04 0 15.03-2.211 26.51-6.633 34.45-4.364 8.04-10.649 12.07-18.863 12.07-7.458 0-13.368-3.85-17.727-11.54q-6.542-11.37-7.867-33.21H58.668zM1301.43 50.125c-8.34-4.144-16.43-7.219-24.27-9.234-7.84-2.13-15.48-3.196-22.94-3.196q-25.59 0-39.24 17.223c-9.16 11.363-13.74 27.7-13.75 49.004.01 15.976 2.63 28.937 7.88 38.883 5.24 9.941 12.92 16.629 23.03 20.062-12.32 3.668-21.52 11.539-27.59 23.613-6.06 12.075-9.1 28.586-9.1 49.536 0 24.738 5.25 43.734 15.74 56.992 10.43 13.137 25.56 19.707 45.4 19.707q11.19 0 23.13-3.551c7.9-2.367 16.18-5.918 24.83-10.652v-58.235h-11.46c-.7 16.805-3.51 29.649-8.44 38.528-4.93 8.758-11.76 13.136-20.47 13.136-9.61 0-17.04-4.972-22.28-14.914-5.24-10.058-7.87-24.265-7.87-42.609q0-28.765 8.25-44.387c5.43-10.418 13.18-15.625 23.22-15.625h6.26v-21.304h-4.93c-9.29 0-16.27-4.024-20.95-12.075-4.67-8.047-7.01-20.062-7.01-36.043q0-22.545 6.63-34.441c4.36-8.05 10.65-12.074 18.86-12.074q11.19 0 17.73 11.539c4.36 7.578 6.98 18.644 7.87 33.203h11.47zM92.367 1583.07c0-14.48 12.074-26.23 27.028-26.23 14.957 0 27.031 11.75 27.031 26.23 0 14.47-12.074 26.23-27.031 26.23-14.954 0-27.028-11.76-27.028-26.23M57.5 1533.41c0-14.48 12.074-26.23 27.027-26.23 14.957 0 27.032 11.75 27.032 26.23 0 14.47-12.075 26.23-27.032 26.23-14.953 0-27.027-11.76-27.027-26.23M126.754 1533.25c0-5.28 1.598-10.24 4.398-14.4 4.797-7.12 13.196-11.83 22.629-11.83 14.957 0 27.032 11.75 27.032 26.23 0 14.47-12.075 26.23-27.032 26.23-14.953 0-27.027-11.76-27.027-26.23M87.648 1482.3c13.356 0 20.391 10.88 24.071 21.76 3.679 10.87 3.996 21.75 3.996 21.75h6.879s1.281-43.42 27.988-43.51z" style="fill:#000;fill-opacity:1;fill-rule:nonzero;stroke:none" transform="matrix(.13333 0 0 -.13333 0 260.917)"/><path d="M137.707 1563.79c-15.191-15.19-15.191-37.98-15.191-37.98l-6.801-.08s0 23.27-14.793 38.06" style="fill:#000;fill-opacity:1;fill-rule:nonzero;stroke:none" transform="matrix(.13333 0 0 -.13333 0 260.917)"/><path d="M134.668 1515.01c-15.191 15.2-37.984 15.2-37.984 15.2v6.79s23.273 0 38.066 14.8" style="fill:#000;fill-opacity:1;fill-rule:nonzero;stroke:none" transform="matrix(.13333 0 0 -.13333 0 260.917)"/><path d="M104.199 1514.93c15.196 15.2 37.989 15.2 37.989 15.2v6.8s-23.274 0-38.067 14.79M1267.73 382.258c0 14.476-12.08 26.23-27.03 26.23s-27.03-11.754-27.03-26.23c0-14.473 12.08-26.231 27.03-26.231s27.03 11.758 27.03 26.231M1302.6 431.918c0 14.477-12.08 26.23-27.03 26.23-14.96 0-27.03-11.753-27.03-26.23 0-14.473 12.07-26.227 27.03-26.227 14.95 0 27.03 11.754 27.03 26.227M1233.34 432.078c0 5.281-1.6 10.238-4.4 14.395-4.8 7.117-13.19 11.836-22.63 11.836-14.95 0-27.03-11.754-27.03-26.231 0-14.473 12.08-26.23 27.03-26.23 14.96 0 27.03 11.757 27.03 26.23M1272.45 483.02c-13.36 0-20.4-10.875-24.07-21.75-3.68-10.875-4-21.754-4-21.754h-6.88s-1.28 43.425-27.99 43.504z" style="fill:#000;fill-opacity:1;fill-rule:nonzero;stroke:none" transform="matrix(.13333 0 0 -.13333 0 260.917)"/><path d="M1222.39 401.531c15.19 15.196 15.19 37.985 15.19 37.985l6.8.082s0-23.274 14.79-38.067" style="fill:#000;fill-opacity:1;fill-rule:nonzero;stroke:none" transform="matrix(.13333 0 0 -.13333 0 260.917)"/><path d="M1225.43 450.313c15.19-15.196 37.98-15.196 37.98-15.196v-6.797s-23.27 0-38.07-14.793" style="fill:#000;fill-opacity:1;fill-rule:nonzero;stroke:none" transform="matrix(.13333 0 0 -.13333 0 260.917)"/><path d="M1255.89 450.395c-15.19-15.196-37.98-15.196-37.98-15.196v-6.797s23.27 0 38.06-14.797M744.336 256.176c0 34.738-28.981 62.949-64.871 62.949-35.891 0-64.871-28.211-64.871-62.949 0-34.742 28.98-62.953 64.871-62.953s64.871 28.211 64.871 62.953M828.02 375.363c0 34.739-28.981 62.95-64.872 62.95s-64.875-28.211-64.875-62.95c0-34.742 28.985-62.953 64.875-62.953s64.872 28.211 64.872 62.953M661.809 375.746c0 12.668-3.84 24.567-10.555 34.547-11.516 17.082-31.668 28.406-54.316 28.406-35.891 0-64.872-28.215-64.872-62.953s28.981-62.953 64.872-62.953 64.871 28.215 64.871 62.953M755.66 498.004c-32.051 0-48.941-26.102-57.769-52.203-8.828-26.106-9.598-52.207-9.598-52.207h-16.504s-3.07 104.219-67.176 104.41z" style="fill:#000;fill-opacity:1;fill-rule:nonzero;stroke:none" transform="matrix(.13333 0 0 -.13333 0 260.917)"/><path d="M635.516 302.43c36.464 36.465 36.464 91.164 36.464 91.164l16.313.191s0-55.851 35.508-91.355" style="fill:#000;fill-opacity:1;fill-rule:nonzero;stroke:none" transform="matrix(.13333 0 0 -.13333 0 260.917)"/><path d="M642.809 419.504c36.464-36.465 91.164-36.465 91.164-36.465v-16.312s-55.852 0-91.356-35.508" style="fill:#000;fill-opacity:1;fill-rule:nonzero;stroke:none" transform="matrix(.13333 0 0 -.13333 0 260.917)"/><path d="M715.934 419.695c-36.469-36.465-91.168-36.465-91.168-36.465v-16.312s55.851 0 91.359-35.508M615.746 1127.04c0-34.74 28.981-62.95 64.871-62.95 35.891 0 64.871 28.21 64.871 62.95s-28.98 62.96-64.871 62.96-64.871-28.22-64.871-62.96M532.063 1007.86c0-34.743 28.984-62.958 64.875-62.958s64.871 28.215 64.871 62.958c0 34.73-28.981 62.95-64.871 62.95-35.891 0-64.875-28.22-64.875-62.95M698.273 1007.47c0-12.665 3.84-24.568 10.559-34.548 11.516-17.078 31.668-28.402 54.313-28.402 35.89 0 64.875 28.21 64.875 62.95s-28.985 62.95-64.875 62.95-64.872-28.21-64.872-62.95M604.422 885.211c32.051 0 48.941 26.105 57.769 52.207 8.829 26.102 9.598 52.203 9.598 52.203h16.504s3.07-104.219 67.176-104.41z" style="fill:#000;fill-opacity:1;fill-rule:nonzero;stroke:none" transform="matrix(.13333 0 0 -.13333 0 260.917)"/><path d="M724.57 1080.79c-36.468-36.47-36.468-91.169-36.468-91.169l-16.313-.191s0 55.85-35.508 91.36" style="fill:#000;fill-opacity:1;fill-rule:nonzero;stroke:none" transform="matrix(.13333 0 0 -.13333 0 260.917)"/><path d="M717.273 963.711c-36.464 36.469-91.164 36.469-91.164 36.469v16.31s55.852 0 91.36 35.51" style="fill:#000;fill-opacity:1;fill-rule:nonzero;stroke:none" transform="matrix(.13333 0 0 -.13333 0 260.917)"/><path d="M644.152 963.52c36.465 36.464 91.164 36.464 91.164 36.464v16.316s-55.851 0-91.359 35.5M615.746 1742.34c0-34.73 28.981-62.95 64.871-62.95 35.891 0 64.871 28.22 64.871 62.95 0 34.74-28.98 62.96-64.871 62.96s-64.871-28.22-64.871-62.96M532.063 1623.16c0-34.74 28.984-62.96 64.875-62.96s64.871 28.22 64.871 62.96c0 34.73-28.981 62.95-64.871 62.95-35.891 0-64.875-28.22-64.875-62.95M698.273 1622.77c0-12.66 3.84-24.56 10.559-34.54 11.516-17.09 31.668-28.41 54.313-28.41 35.89 0 64.875 28.22 64.875 62.95 0 34.74-28.985 62.96-64.875 62.96s-64.872-28.22-64.872-62.96M604.422 1500.52c32.051 0 48.941 26.1 57.769 52.2 8.829 26.1 9.598 52.2 9.598 52.2h16.504s3.07-104.21 67.176-104.4z" style="fill:#000;fill-opacity:1;fill-rule:nonzero;stroke:none" transform="matrix(.13333 0 0 -.13333 0 260.917)"/><path d="M724.57 1696.09c-36.468-36.46-36.468-91.17-36.468-91.17l-16.313-.19s0 55.85-35.508 91.36" style="fill:#000;fill-opacity:1;fill-rule:nonzero;stroke:none" transform="matrix(.13333 0 0 -.13333 0 260.917)"/><path d="M717.273 1579.01c-36.464 36.47-91.164 36.47-91.164 36.47v16.31s55.852 0 91.36 35.51" style="fill:#000;fill-opacity:1;fill-rule:nonzero;stroke:none" transform="matrix(.13333 0 0 -.13333 0 260.917)"/><path d="M644.152 1578.82c36.465 36.47 91.164 36.47 91.164 36.47v16.31s-55.851 0-91.359 35.51" style="fill:#000;fill-opacity:1;fill-rule:nonzero;stroke:none" transform="matrix(.13333 0 0 -.13333 0 260.917)"/></svg>