<svg xmlns="http://www.w3.org/2000/svg" width="180.28" height="260.853" viewBox="0 0 180.28 260.853"><path d="M9.996 65.418c0-30.23 24.711-54.941 54.942-54.941H1287.24c30.15 0 54.86 24.71 54.86 54.941V1891.94c0 30.22-24.71 54.94-54.86 54.94H64.938c-30.231 0-54.942-24.72-54.942-54.94z" style="fill:#fff;fill-opacity:1;fill-rule:nonzero;stroke:none" transform="matrix(.13333 0 0 -.13333 0 260.917)"/><path d="M9.996 65.418c0-30.23 24.711-54.941 54.942-54.941H1287.24c30.15 0 54.86 24.71 54.86 54.941V1891.94c0 30.22-24.71 54.94-54.86 54.94H64.938c-30.231 0-54.942-24.72-54.942-54.94z" style="fill:none;stroke:#000;stroke-width:19.9926;stroke-linecap:butt;stroke-linejoin:miter;stroke-miterlimit:10;stroke-dasharray:none;stroke-opacity:1" transform="matrix(.13333 0 0 -.13333 0 260.917)"/><path d="M165.871 1657.76H87.957v21.48H109v48.3H49.945v20.41l59.243 179.68h35.64v-177.19h24.266v-22.9h-24.266v-48.3h21.043zM109 1750.44v128.72l-42.18-128.72zM1194.22 307.566h77.92v-21.484h-21.05v-48.293h59.06v-20.418l-59.24-179.676h-35.64v177.192H1191v22.902h24.27v48.293h-21.05zm56.87-92.679V86.168l42.18 128.719zM87.809 1482.39c13.355 0 20.39 14.23 24.07 28.47 3.68 14.23 4 28.46 4 28.46l6.797.09s1.277-57.02 27.988-57.02z" style="fill:#000;fill-opacity:1;fill-rule:nonzero;stroke:none" transform="matrix(.13333 0 0 -.13333 0 260.917)"/><path d="M65.176 1539.41c.082 27.74 41.746 47.89 53.98 69.81 12.235-21.99 53.899-42.15 53.981-69.81 0-13.12-12.078-23.76-27.032-23.76-14.875 0-26.949 10.64-26.949 23.76 0-13.12-12.074-23.76-27.031-23.76-14.953 0-26.95 10.64-26.95 23.76M1272.29 482.941c-13.36 0-20.4-14.234-24.08-28.468-3.67-14.235-3.99-28.469-3.99-28.469l-6.8-.082s-1.28 57.019-27.99 57.019z" style="fill:#000;fill-opacity:1;fill-rule:nonzero;stroke:none" transform="matrix(.13333 0 0 -.13333 0 260.917)"/><path d="M1294.92 425.922c-.08-27.75-41.74-47.902-53.98-69.813-12.24 21.993-53.9 42.145-53.98 69.813 0 13.117 12.08 23.75 27.03 23.75 14.87 0 26.95-10.633 26.95-23.75 0 13.117 12.08 23.75 27.03 23.75s26.95-10.633 26.95-23.75M285.492 1500.71c32.051 0 48.942 34.17 57.77 68.33s9.597 68.32 9.597 68.32l16.313.2s3.07-136.85 67.176-136.85z" style="fill:#000;fill-opacity:1;fill-rule:nonzero;stroke:none" transform="matrix(.13333 0 0 -.13333 0 260.917)"/><path d="M231.176 1637.56c.191 66.6 100.187 114.96 129.551 167.55 29.367-52.78 129.363-101.15 129.554-167.55 0-31.48-28.98-57.01-64.871-57.01-35.699 0-64.683 25.53-64.683 57.01 0-31.48-28.981-57.01-64.872-57.01s-64.679 25.53-64.679 57.01M435.969 497.805c-32.055 0-48.942-34.164-57.774-68.325-8.828-34.164-9.593-68.328-9.593-68.328l-16.317-.191s-3.07 136.844-67.172 136.844z" style="fill:#000;fill-opacity:1;fill-rule:nonzero;stroke:none" transform="matrix(.13333 0 0 -.13333 0 260.917)"/><path d="M490.285 360.961c-.195-66.602-100.187-114.965-129.555-167.555-29.363 52.782-129.359 101.149-129.55 167.555 0 31.477 28.98 57.004 64.871 57.004 35.699 0 64.679-25.527 64.679-57.004 0 31.477 28.981 57.004 64.875 57.004 35.891 0 64.68-25.527 64.68-57.004M924.121 1500.71c32.051 0 48.942 34.17 57.77 68.33s9.597 68.32 9.597 68.32l16.312.2s3.08-136.85 67.18-136.85z" style="fill:#000;fill-opacity:1;fill-rule:nonzero;stroke:none" transform="matrix(.13333 0 0 -.13333 0 260.917)"/><path d="M869.805 1637.56c.191 66.6 100.187 114.96 129.55 167.55 29.365-52.78 129.365-101.15 129.555-167.55 0-31.48-28.98-57.01-64.87-57.01-35.7 0-64.685 25.53-64.685 57.01 0-31.48-28.98-57.01-64.871-57.01s-64.679 25.53-64.679 57.01M1074.59 497.805c-32.05 0-48.94-34.164-57.77-68.325-8.83-34.164-9.6-68.328-9.6-68.328l-16.31-.191s-3.07 136.844-67.176 136.844z" style="fill:#000;fill-opacity:1;fill-rule:nonzero;stroke:none" transform="matrix(.13333 0 0 -.13333 0 260.917)"/><path d="M1128.91 360.961c-.2-66.602-100.19-114.965-129.555-167.555-29.367 52.782-129.359 101.149-129.55 167.555 0 31.477 28.98 57.004 64.871 57.004 35.699 0 64.679-25.527 64.679-57.004 0 31.477 28.985 57.004 64.875 57.004s64.68-25.527 64.68-57.004" style="fill:#000;fill-opacity:1;fill-rule:nonzero;stroke:none" transform="matrix(.13333 0 0 -.13333 0 260.917)"/></svg>