<svg xmlns="http://www.w3.org/2000/svg" width="180.28" height="260.853" viewBox="0 0 180.28 260.853"><path d="M9.996 65.418c0-30.23 24.711-54.941 54.942-54.941H1287.24c30.15 0 54.86 24.71 54.86 54.941V1891.94c0 30.22-24.71 54.94-54.86 54.94H64.938c-30.231 0-54.942-24.72-54.942-54.94z" style="fill:#fff;fill-opacity:1;fill-rule:nonzero;stroke:none" transform="matrix(.13333 0 0 -.13333 0 260.917)"/><path d="M9.996 65.418c0-30.23 24.711-54.941 54.942-54.941H1287.24c30.15 0 54.86 24.71 54.86 54.941V1891.94c0 30.22-24.71 54.94-54.86 54.94H64.938c-30.231 0-54.942-24.72-54.942-54.94z" style="fill:none;stroke:#000;stroke-width:19.9926;stroke-linecap:butt;stroke-linejoin:miter;stroke-miterlimit:10;stroke-dasharray:none;stroke-opacity:1" transform="matrix(.13333 0 0 -.13333 0 260.917)"/><path d="M165.871 1657.76H87.957v21.48H109v48.3H49.945v20.41l59.243 179.68h35.64v-177.19h24.266v-22.9h-24.266v-48.3h21.043zM109 1750.44v128.72l-42.18-128.72zM1194.22 307.566h77.92v-21.484h-21.05v-48.293h59.06v-20.418l-59.24-179.676h-35.64v177.192H1191v22.902h24.27v48.293h-21.05zm56.87-92.679V86.168l42.18 128.719zM92.367 1583.07c0-14.48 12.074-26.23 27.028-26.23 14.957 0 27.031 11.75 27.031 26.23 0 14.47-12.074 26.23-27.031 26.23-14.954 0-27.028-11.76-27.028-26.23M57.5 1533.41c0-14.48 12.074-26.23 27.027-26.23 14.957 0 27.032 11.75 27.032 26.23 0 14.47-12.075 26.23-27.032 26.23-14.953 0-27.027-11.76-27.027-26.23M126.754 1533.25c0-5.28 1.598-10.24 4.398-14.4 4.797-7.12 13.196-11.83 22.629-11.83 14.957 0 27.032 11.75 27.032 26.23 0 14.47-12.075 26.23-27.032 26.23-14.953 0-27.027-11.76-27.027-26.23M87.648 1482.3c13.356 0 20.391 10.88 24.071 21.76 3.679 10.87 4 21.75 4 21.75h6.875s1.281-43.42 27.992-43.51z" style="fill:#000;fill-opacity:1;fill-rule:nonzero;stroke:none" transform="matrix(.13333 0 0 -.13333 0 260.917)"/><path d="M137.707 1563.79c-15.191-15.19-15.191-37.98-15.191-37.98l-6.797-.08s0 23.27-14.797 38.06" style="fill:#000;fill-opacity:1;fill-rule:nonzero;stroke:none" transform="matrix(.13333 0 0 -.13333 0 260.917)"/><path d="M134.672 1515.01c-15.195 15.2-37.988 15.2-37.988 15.2v6.79s23.273 0 38.066 14.8" style="fill:#000;fill-opacity:1;fill-rule:nonzero;stroke:none" transform="matrix(.13333 0 0 -.13333 0 260.917)"/><path d="M104.203 1514.93c15.192 15.2 37.985 15.2 37.985 15.2v6.8s-23.274 0-38.067 14.79M1267.73 382.258c0 14.476-12.08 26.23-27.03 26.23s-27.03-11.754-27.03-26.23c0-14.473 12.08-26.231 27.03-26.231s27.03 11.758 27.03 26.231M1302.6 431.918c0 14.477-12.08 26.23-27.03 26.23-14.96 0-27.03-11.753-27.03-26.23 0-14.473 12.07-26.227 27.03-26.227 14.95 0 27.03 11.754 27.03 26.227M1233.34 432.078c0 5.281-1.6 10.238-4.4 14.395-4.8 7.117-13.19 11.836-22.63 11.836-14.95 0-27.03-11.754-27.03-26.231 0-14.473 12.08-26.23 27.03-26.23 14.96 0 27.03 11.757 27.03 26.23M1272.45 483.02c-13.36 0-20.4-10.875-24.07-21.75-3.68-10.875-4-21.754-4-21.754h-6.88s-1.28 43.425-27.99 43.504z" style="fill:#000;fill-opacity:1;fill-rule:nonzero;stroke:none" transform="matrix(.13333 0 0 -.13333 0 260.917)"/><path d="M1222.39 401.531c15.19 15.196 15.19 37.985 15.19 37.985l6.8.082s0-23.274 14.79-38.067" style="fill:#000;fill-opacity:1;fill-rule:nonzero;stroke:none" transform="matrix(.13333 0 0 -.13333 0 260.917)"/><path d="M1225.43 450.313c15.19-15.196 37.98-15.196 37.98-15.196v-6.797s-23.27 0-38.07-14.793" style="fill:#000;fill-opacity:1;fill-rule:nonzero;stroke:none" transform="matrix(.13333 0 0 -.13333 0 260.917)"/><path d="M1255.89 450.395c-15.19-15.196-37.98-15.196-37.98-15.196v-6.797s23.27 0 38.06-14.797M296.434 1742.34c0-34.73 28.98-62.95 64.871-62.95s64.871 28.22 64.871 62.95c0 34.74-28.981 62.96-64.871 62.96-35.891 0-64.871-28.22-64.871-62.96M212.75 1623.16c0-34.74 28.984-62.96 64.875-62.96s64.871 28.22 64.871 62.96c0 34.73-28.98 62.95-64.871 62.95s-64.875-28.22-64.875-62.95M378.961 1622.77c0-12.66 3.84-24.56 10.559-34.54 11.515-17.09 31.668-28.41 54.312-28.41 35.891 0 64.875 28.22 64.875 62.95 0 34.74-28.984 62.96-64.875 62.96s-64.871-28.22-64.871-62.96M285.109 1500.52c32.051 0 48.942 26.1 57.77 52.2s9.598 52.2 9.598 52.2h16.503s3.071-104.21 67.176-104.4z" style="fill:#000;fill-opacity:1;fill-rule:nonzero;stroke:none" transform="matrix(.13333 0 0 -.13333 0 260.917)"/><path d="M405.254 1696.09c-36.465-36.46-36.465-91.17-36.465-91.17l-16.312-.19s0 55.85-35.508 91.36" style="fill:#000;fill-opacity:1;fill-rule:nonzero;stroke:none" transform="matrix(.13333 0 0 -.13333 0 260.917)"/><path d="M397.961 1579.01c-36.465 36.47-91.164 36.47-91.164 36.47v16.31s55.851 0 91.359 35.51" style="fill:#000;fill-opacity:1;fill-rule:nonzero;stroke:none" transform="matrix(.13333 0 0 -.13333 0 260.917)"/><path d="M324.836 1578.82c36.469 36.47 91.168 36.47 91.168 36.47v16.31s-55.852 0-91.359 35.51M425.027 256.176c0 34.738-28.98 62.949-64.871 62.949s-64.871-28.211-64.871-62.949c0-34.742 28.981-62.953 64.871-62.953 35.891 0 64.871 28.211 64.871 62.953M508.707 375.363c0 34.739-28.98 62.95-64.871 62.95s-64.871-28.211-64.871-62.95c0-34.742 28.98-62.953 64.871-62.953s64.871 28.211 64.871 62.953M342.5 375.746c0 12.668-3.84 24.567-10.559 34.547-11.515 17.082-31.668 28.406-54.316 28.406-35.891 0-64.871-28.215-64.871-62.953s28.98-62.953 64.871-62.953 64.875 28.215 64.875 62.953M436.352 498.004c-32.051 0-48.942-26.102-57.77-52.203-8.828-26.106-9.598-52.207-9.598-52.207H352.48s-3.074 104.219-67.175 104.41z" style="fill:#000;fill-opacity:1;fill-rule:nonzero;stroke:none" transform="matrix(.13333 0 0 -.13333 0 260.917)"/><path d="M316.203 302.43c36.469 36.465 36.469 91.164 36.469 91.164l16.312.191s0-55.851 35.508-91.355" style="fill:#000;fill-opacity:1;fill-rule:nonzero;stroke:none" transform="matrix(.13333 0 0 -.13333 0 260.917)"/><path d="M323.496 419.504c36.469-36.465 91.168-36.465 91.168-36.465v-16.312s-55.851 0-91.359-35.508" style="fill:#000;fill-opacity:1;fill-rule:nonzero;stroke:none" transform="matrix(.13333 0 0 -.13333 0 260.917)"/><path d="M396.621 419.695c-36.465-36.465-91.164-36.465-91.164-36.465v-16.312s55.852 0 91.356-35.508M935.063 1742.34c0-34.73 28.98-62.95 64.871-62.95 35.886 0 64.866 28.22 64.866 62.95 0 34.74-28.98 62.96-64.866 62.96-35.891 0-64.871-28.22-64.871-62.96M851.379 1623.16c0-34.74 28.984-62.96 64.875-62.96s64.871 28.22 64.871 62.96c0 34.73-28.98 62.95-64.871 62.95s-64.875-28.22-64.875-62.95M1017.59 1622.77c0-12.66 3.84-24.56 10.56-34.54 11.51-17.09 31.67-28.41 54.31-28.41 35.89 0 64.88 28.22 64.88 62.95 0 34.74-28.99 62.96-64.88 62.96s-64.87-28.22-64.87-62.96M923.738 1500.52c32.051 0 48.942 26.1 57.77 52.2s9.597 52.2 9.597 52.2h16.505s3.07-104.21 67.18-104.4z" style="fill:#000;fill-opacity:1;fill-rule:nonzero;stroke:none" transform="matrix(.13333 0 0 -.13333 0 260.917)"/><path d="M1043.89 1696.09c-36.47-36.46-36.47-91.17-36.47-91.17l-16.315-.19s0 55.85-35.507 91.36" style="fill:#000;fill-opacity:1;fill-rule:nonzero;stroke:none" transform="matrix(.13333 0 0 -.13333 0 260.917)"/><path d="M1036.59 1579.01c-36.46 36.47-91.164 36.47-91.164 36.47v16.31s55.854 0 91.364 35.51" style="fill:#000;fill-opacity:1;fill-rule:nonzero;stroke:none" transform="matrix(.13333 0 0 -.13333 0 260.917)"/><path d="M963.465 1578.82c36.469 36.47 91.165 36.47 91.165 36.47v16.31s-55.849 0-91.357 35.51M1063.65 256.176c0 34.738-28.98 62.949-64.873 62.949-35.89 0-64.871-28.211-64.871-62.949 0-34.742 28.981-62.953 64.871-62.953 35.893 0 64.873 28.211 64.873 62.953M1147.33 375.363c0 34.739-28.98 62.95-64.87 62.95s-64.87-28.211-64.87-62.95c0-34.742 28.98-62.953 64.87-62.953s64.87 28.211 64.87 62.953M981.121 375.746c0 12.668-3.836 24.567-10.555 34.547-11.515 17.082-31.668 28.406-54.316 28.406-35.891 0-64.871-28.215-64.871-62.953s28.98-62.953 64.871-62.953 64.871 28.215 64.871 62.953M1074.98 498.004c-32.06 0-48.95-26.102-57.78-52.203-8.82-26.106-9.59-52.207-9.59-52.207h-16.508s-3.071 104.219-67.176 104.41z" style="fill:#000;fill-opacity:1;fill-rule:nonzero;stroke:none" transform="matrix(.13333 0 0 -.13333 0 260.917)"/><path d="M954.828 302.43c36.465 36.465 36.465 91.164 36.465 91.164l16.317.191s0-55.851 35.5-91.355" style="fill:#000;fill-opacity:1;fill-rule:nonzero;stroke:none" transform="matrix(.13333 0 0 -.13333 0 260.917)"/><path d="M962.121 419.504c36.465-36.465 91.169-36.465 91.169-36.465v-16.312s-55.852 0-91.36-35.508" style="fill:#000;fill-opacity:1;fill-rule:nonzero;stroke:none" transform="matrix(.13333 0 0 -.13333 0 260.917)"/><path d="M1035.25 419.695c-36.473-36.465-91.172-36.465-91.172-36.465v-16.312s55.852 0 91.362-35.508" style="fill:#000;fill-opacity:1;fill-rule:nonzero;stroke:none" transform="matrix(.13333 0 0 -.13333 0 260.917)"/></svg>