<svg xmlns="http://www.w3.org/2000/svg" width="180.28" height="260.853" viewBox="0 0 180.28 260.853"><path d="M9.996 65.418c0-30.23 24.711-54.941 54.942-54.941H1287.24c30.15 0 54.86 24.71 54.86 54.941V1891.94c0 30.23-24.71 54.94-54.86 54.94H64.938c-30.231 0-54.942-24.71-54.942-54.94z" style="fill:#fff;fill-opacity:1;fill-rule:nonzero;stroke:none" transform="matrix(.13333 0 0 -.13333 0 260.917)"/><path d="M9.996 65.418c0-30.23 24.711-54.941 54.942-54.941H1287.24c30.15 0 54.86 24.71 54.86 54.941V1891.94c0 30.23-24.71 54.94-54.86 54.94H64.938c-30.231 0-54.942-24.71-54.942-54.94z" style="fill:none;stroke:#000;stroke-width:19.9926;stroke-linecap:butt;stroke-linejoin:miter;stroke-miterlimit:10;stroke-dasharray:none;stroke-opacity:1" transform="matrix(.13333 0 0 -.13333 0 260.917)"/><path d="M151.465 1922.84v-46.52H75.731v-58.23c4.167 6.03 8.812 10.59 13.933 13.66q7.676 4.62 16.207 4.62c17.442 0 31.219-8.28 41.328-24.85q15.167-24.69 15.168-67.29c0-28.89-5.058-51.37-15.168-67.47q-15.164-24.15-42.465-24.15c-7.71 0-15.386 1.19-23.035 3.55q-11.372 3.555-23.789 11.01v57.88h11.375c.38-17.4 2.778-30.36 7.203-38.88 4.485-8.53 11.09-12.79 19.809-12.79 9.289 0 16.18 5.8 20.664 17.41 4.488 11.71 6.73 29.53 6.73 53.44 0 23.55-2.211 41.13-6.632 52.73-4.364 11.72-10.996 17.58-19.907 17.58-4.804 0-9.101-1.9-12.89-5.69q-5.595-5.505-10.43-17.22h-9.476v131.21zM1208.63 42.492v46.516h75.74v58.234c-4.17-6.035-8.82-10.594-13.94-13.672-5.12-3.074-10.52-4.613-16.21-4.613-17.44 0-31.21 8.285-41.33 24.856-10.1 16.453-15.16 38.882-15.16 67.289 0 28.882 5.06 51.371 15.16 67.468 10.12 16.098 24.27 24.145 42.47 24.145 7.71 0 15.39-1.184 23.03-3.551 7.59-2.367 15.52-6.035 23.8-11.008v-57.879h-11.38q-.57 26.098-7.2 38.883c-4.49 8.52-11.09 12.781-19.81 12.781-9.29 0-16.18-5.796-20.67-17.398-4.49-11.719-6.73-29.531-6.73-53.441 0-23.555 2.21-41.133 6.64-52.731 4.36-11.719 11-17.578 19.91-17.578 4.8 0 9.09 1.895 12.89 5.684 3.72 3.668 7.2 9.41 10.42 17.218h9.48V42.492zM119.156 1545.8h61.418c-6.996.31-12.949 4.84-18.57 8.58-12.629 9.53-24.453 20.45-33.797 33.23-4.355 6.43-8.937 13.66-9.051 21.69m61.418-63.5c-8.879-.28-16.457-5.92-23.222-11.14-11.957-10.03-22.305-21.97-31.039-34.9-3.208-5.35-6.981-11.02-7.157-17.46v63.5m0-63.5c-.304 9.46-6.062 17.65-11.5 24.96-9.691 12.07-21.175 22.76-33.812 31.69-4.91 3.06-10.121 6.7-16.106 6.85h61.418m-61.418 0c8.88.28 16.457 5.93 23.223 11.13 11.957 10.05 22.305 21.99 31.039 34.91 3.207 5.35 6.977 11.02 7.156 17.46v-63.5M1240.94 419.523h-61.42c7-.308 12.95-4.835 18.57-8.578 12.63-9.527 24.46-20.449 33.8-33.23 4.36-6.43 8.93-13.656 9.05-21.688m-61.42 63.496c8.88.282 16.46 5.93 23.23 11.141 11.95 10.035 22.3 21.977 31.03 34.899 3.21 5.351 6.98 11.019 7.16 17.457v-63.497m0 63.497c.3-9.45 6.06-17.641 11.5-24.95 9.69-12.074 21.17-22.757 33.81-31.691 4.91-3.063 10.13-6.707 16.11-6.856h-61.42m61.42 0c-8.88-.277-16.46-5.925-23.23-11.128-11.95-10.047-22.3-21.985-31.03-34.911-3.21-5.347-6.98-11.019-7.16-17.457v63.496M360.734 1652.9h147.403c-16.789.75-31.074 11.62-44.567 20.59-30.304 22.87-58.691 49.08-81.109 79.75-10.461 15.43-21.449 32.78-21.727 52.05m147.403-152.39c-21.305-.67-39.5-14.22-55.739-26.73-28.691-24.09-53.527-52.74-74.484-83.76-7.699-12.84-16.758-26.45-17.18-41.9v152.39m0-152.39c-.73 22.69-14.546 42.34-27.597 59.88-23.262 28.99-50.824 54.63-81.149 76.06-11.785 7.35-24.297 16.1-38.656 16.45h147.402m-147.402 0c21.305.67 39.5 14.23 55.738 26.72 28.692 24.11 53.528 52.76 74.489 83.77 7.695 12.84 16.746 26.45 17.175 41.9V1652.9M360.734 345.609H213.332c16.789-.75 31.074-11.613 44.566-20.589 30.305-22.864 58.692-49.082 81.11-79.75 10.461-15.434 21.449-32.782 21.726-52.051m-147.402 152.39c21.305.672 39.5 14.227 55.738 26.735 28.692 24.09 53.528 52.742 74.485 83.758 7.699 12.839 16.758 26.449 17.179 41.898V345.609m0 152.391c.731-22.687 14.547-42.34 27.598-59.883 23.262-28.98 50.824-54.621 81.148-76.058 11.786-7.352 24.297-16.094 38.657-16.45H360.734m147.403 0c-21.305-.671-39.5-14.222-55.739-26.714-28.691-24.11-53.527-52.762-74.488-83.778-7.695-12.84-16.746-26.449-17.176-41.898v152.39M999.355 1652.9h147.405c-16.79.75-31.08 11.62-44.57 20.59-30.3 22.87-58.69 49.08-81.11 79.75-10.46 15.43-21.447 32.78-21.725 52.05m147.405-152.39c-21.31-.67-39.5-14.22-55.74-26.73-28.69-24.09-53.53-52.74-74.48-83.76-7.7-12.84-16.763-26.45-17.185-41.9v152.39m0-152.39c-.726 22.69-14.546 42.34-27.597 59.88-23.262 28.99-50.824 54.63-81.149 76.06-11.785 7.35-24.296 16.1-38.652 16.45h147.398m-147.398 0c21.301.67 39.496 14.23 55.734 26.72 28.696 24.11 53.528 52.76 74.489 83.77 7.695 12.84 16.746 26.45 17.175 41.9V1652.9M999.355 345.609H851.957c16.785-.75 31.074-11.613 44.566-20.589 30.305-22.864 58.692-49.082 81.11-79.75 10.457-15.434 21.449-32.782 21.722-52.051m-147.398 152.39c21.305.672 39.496 14.227 55.734 26.735 28.696 24.09 53.532 52.742 74.489 83.758 7.695 12.839 16.754 26.449 17.175 41.898V345.609m0 152.391c.735-22.687 14.555-42.34 27.605-59.883 23.26-28.98 50.82-54.621 81.15-76.058 11.78-7.352 24.29-16.094 38.65-16.45H999.355m147.405 0c-21.31-.671-39.5-14.222-55.74-26.714-28.69-24.11-53.53-52.762-74.48-83.778-7.7-12.84-16.751-26.449-17.185-41.898v152.39M680.043 1037.6h147.398c-16.785.75-31.07 11.61-44.566 20.59-30.305 22.86-58.691 49.08-81.105 79.75-10.461 15.44-21.454 32.78-21.727 52.05m147.398-152.39c-21.304-.67-39.496-14.22-55.734-26.73-28.695-24.093-53.531-52.745-74.488-83.761-7.696-12.839-16.754-26.449-17.176-41.898V1037.6m0-152.389c-.73 22.684-14.551 42.34-27.602 59.883-23.261 28.98-50.82 54.621-81.148 76.056-11.781 7.35-24.297 16.1-38.652 16.45h147.402m-147.402 0c21.304.67 39.5 14.22 55.734 26.72 28.695 24.11 53.531 52.76 74.488 83.77 7.696 12.84 16.746 26.45 17.18 41.9V1037.6" style="fill:#e6180a;fill-opacity:1;fill-rule:nonzero;stroke:none" transform="matrix(.13333 0 0 -.13333 0 260.917)"/></svg>