<svg xmlns="http://www.w3.org/2000/svg" width="180.28" height="260.853" viewBox="0 0 180.28 260.853"><path d="M9.996 65.418c0-30.23 24.711-54.941 54.942-54.941H1287.24c30.15 0 54.86 24.71 54.86 54.941V1891.94c0 30.22-24.71 54.94-54.86 54.94H64.938c-30.231 0-54.942-24.72-54.942-54.94z" style="fill:#fff;fill-opacity:1;fill-rule:nonzero;stroke:none" transform="matrix(.13333 0 0 -.13333 0 260.917)"/><path d="M9.996 65.418c0-30.23 24.711-54.941 54.942-54.941H1287.24c30.15 0 54.86 24.71 54.86 54.941V1891.94c0 30.22-24.71 54.94-54.86 54.94H64.938c-30.231 0-54.942-24.72-54.942-54.94z" style="fill:none;stroke:#000;stroke-width:19.9926;stroke-linecap:butt;stroke-linejoin:miter;stroke-miterlimit:10;stroke-dasharray:none;stroke-opacity:1" transform="matrix(.13333 0 0 -.13333 0 260.917)"/><path d="M151.465 1922.84v-46.51H75.731v-58.24c4.167 6.04 8.812 10.59 13.933 13.67q7.676 4.62 16.207 4.62c17.442 0 31.219-8.29 41.328-24.86q15.167-24.675 15.168-67.29c0-28.88-5.058-51.37-15.168-67.46q-15.164-24.15-42.465-24.15c-7.71 0-15.386 1.18-23.035 3.55q-11.372 3.555-23.789 11.01v57.88h11.375c.38-17.4 2.778-30.36 7.203-38.88 4.485-8.53 11.09-12.79 19.809-12.79 9.289 0 16.18 5.8 20.664 17.4 4.488 11.72 6.73 29.53 6.73 53.44 0 23.56-2.211 41.13-6.632 52.73-4.364 11.72-10.996 17.58-19.907 17.58-4.804 0-9.101-1.89-12.89-5.68q-5.595-5.505-10.43-17.22h-9.476v131.2zM1208.63 42.492v46.516h75.74v58.234c-4.17-6.035-8.82-10.594-13.94-13.672s-10.52-4.613-16.21-4.613c-17.44 0-31.21 8.285-41.33 24.856-10.1 16.453-15.16 38.882-15.16 67.289 0 28.878 5.06 51.371 15.16 67.468 10.12 16.098 24.27 24.145 42.47 24.145 7.71 0 15.39-1.184 23.03-3.551 7.59-2.367 15.52-6.035 23.8-11.008v-57.879h-11.38q-.57 26.098-7.2 38.883c-4.49 8.52-11.09 12.781-19.81 12.781q-13.935 0-20.67-17.398c-4.49-11.719-6.73-29.531-6.73-53.441 0-23.555 2.21-41.133 6.64-52.731 4.36-11.719 11-17.578 19.91-17.578 4.8 0 9.09 1.895 12.89 5.684 3.72 3.668 7.2 9.41 10.42 17.218h9.48V42.492zM180.492 1577.24c-.078-37.67-47.262-65.1-61.097-94.93-13.993 29.75-61.254 56.94-61.575 94.61-.082 17.75 13.672 32.22 30.547 32.22 16.953 0 30.789-14.31 30.789-32.06 0 17.83 13.676 32.22 30.547 32.22 16.957.09 30.711-14.31 30.789-32.06M1179.6 388.098c.08 37.664 47.26 65.093 61.1 94.922 14-29.747 61.26-56.938 61.58-94.602.08-17.754-13.68-32.23-30.55-32.23-16.96 0-30.79 14.316-30.79 32.07 0-17.836-13.67-32.231-30.55-32.231-16.95-.078-30.71 14.317-30.79 32.071M507.945 1728.34c-.191-90.4-113.429-156.23-146.636-227.82-33.586 71.39-147.016 136.65-147.786 227.05-.191 42.61 32.821 77.34 73.321 77.34 40.687 0 73.89-34.35 73.89-76.96 0 42.8 32.821 77.35 73.317 77.35 40.691.19 73.703-34.35 73.894-76.96M213.523 270.176c.196 90.398 113.43 156.23 146.637 227.82 33.586-71.398 147.016-136.652 147.785-227.051.192-42.609-32.82-77.347-73.32-77.347-40.687 0-73.891 34.355-73.891 76.961 0-42.797-32.82-77.344-73.316-77.344-40.688-.195-73.699 34.351-73.895 76.961M1146.57 1728.34c-.19-90.4-113.43-156.23-146.636-227.82-33.59 71.39-147.02 136.65-147.786 227.05-.191 42.61 32.821 77.34 73.317 77.34 40.687 0 73.89-34.35 73.89-76.96 0 42.8 32.825 77.35 73.315 77.35 40.69.19 73.71-34.35 73.9-76.96M852.148 270.176c.192 90.398 113.43 156.23 146.633 227.82 33.589-71.398 147.019-136.652 147.789-227.051.19-42.609-32.82-77.347-73.32-77.347-40.69 0-73.895 34.355-73.895 76.961 0-42.797-32.816-77.344-73.316-77.344-40.687-.195-73.699 34.351-73.891 76.961M827.25 1113.03c-.191-90.4-113.43-156.229-146.633-227.819-33.586 71.398-147.015 136.659-147.785 227.059-.191 42.6 32.82 77.34 73.316 77.34 40.688 0 73.895-34.35 73.895-76.96 0 42.8 32.816 77.35 73.316 77.35 40.688.19 73.7-34.36 73.891-76.97" style="fill:#e6180a;fill-opacity:1;fill-rule:nonzero;stroke:none" transform="matrix(.13333 0 0 -.13333 0 260.917)"/></svg>