<svg xmlns="http://www.w3.org/2000/svg" width="180.28" height="260.853" viewBox="0 0 180.28 260.853"><path d="M9.996 65.418c0-30.23 24.711-54.941 54.942-54.941H1287.24c30.15 0 54.86 24.71 54.86 54.941V1891.94c0 30.23-24.71 54.94-54.86 54.94H64.938c-30.231 0-54.942-24.71-54.942-54.94z" style="fill:#fff;fill-opacity:1;fill-rule:nonzero;stroke:none" transform="matrix(.13333 0 0 -.13333 0 260.917)"/><path d="M9.996 65.418c0-30.23 24.711-54.941 54.942-54.941H1287.24c30.15 0 54.86 24.71 54.86 54.941V1891.94c0 30.23-24.71 54.94-54.86 54.94H64.938c-30.231 0-54.942-24.71-54.942-54.94z" style="fill:none;stroke:#000;stroke-width:19.9926;stroke-linecap:butt;stroke-linejoin:miter;stroke-miterlimit:10;stroke-dasharray:none;stroke-opacity:1" transform="matrix(.13333 0 0 -.13333 0 260.917)"/><path d="M89.758 1814.89c4.105 6.15 8.687 10.77 13.746 13.85 5.117 3.08 10.676 4.61 16.68 4.61q21.708 0 34.031-23.79c8.277-15.86 12.414-37.64 12.418-65.33q-.005-43.86-13.938-67.83-13.934-23.79-39.621-23.79-29.004 0-43.98 32.67c-9.922 21.9-14.883 54.03-14.883 96.41 0 48.17 5.531 84.51 16.59 109.01q16.588 36.93 49.195 36.93c5.688 0 11.785-.89 18.293-2.66 6.508-1.78 13.492-4.44 20.949-7.99v-46.87H147.77c-1.582 12.07-4.582 21.18-9.008 27.34-4.36 6.27-10.016 9.41-16.965 9.41q-16.875 0-24.457-21.66c-4.992-14.44-7.52-37.88-7.582-70.31m21.137-141.51c6.507 0 11.156 5.16 13.933 15.45Q129 1704.46 129 1742.8c0 25.57-1.391 43.5-4.172 53.8-2.777 10.42-7.426 15.63-13.933 15.63q-9.762 0-13.934-15.63c-2.715-10.3-4.074-28.23-4.074-53.8q.001-38.34 4.074-53.97c2.781-10.29 7.426-15.45 13.934-15.45M1270.34 150.438c-4.11-6.153-8.69-10.77-13.75-13.848q-7.68-4.617-16.68-4.617c-14.47 0-25.81 7.933-34.03 23.793q-12.42 23.79-12.42 65.336c0 29.234 4.65 51.843 13.94 67.824 9.29 15.859 22.49 23.789 39.62 23.789q29.01-.001 43.98-32.668c9.92-21.899 14.88-54.031 14.88-96.406q0-72.262-16.59-109.016c-11.06-24.617-27.45-36.926-49.19-36.93q-8.535.004-18.3 2.664c-6.5 1.778-13.49 4.442-20.94 7.993v46.87h11.47q2.37-18.11 9-27.343c4.36-6.274 10.02-9.41 16.97-9.41q16.875.001 24.45 21.66c5 14.441 7.52 37.879 7.59 70.309m-21.14 141.503c-6.51 0-11.15-5.148-13.93-15.445-2.79-10.414-4.18-28.406-4.18-53.973 0-25.566 1.39-43.5 4.18-53.796 2.78-10.418 7.42-15.625 13.93-15.625s11.15 5.207 13.93 15.625q4.08 15.445 4.08 53.796t-4.08 53.973c-2.78 10.297-7.42 15.445-13.93 15.445M119.156 1545.8h61.418c-6.996.31-12.949 4.84-18.57 8.58-12.629 9.53-24.453 20.45-33.797 33.23-4.355 6.43-8.937 13.66-9.051 21.69m61.418-63.5c-8.879-.28-16.457-5.92-23.222-11.14-11.957-10.03-22.305-21.97-31.039-34.9-3.208-5.35-6.981-11.02-7.157-17.46v63.5m0-63.5c-.304 9.46-6.062 17.65-11.5 24.96-9.691 12.07-21.175 22.76-33.812 31.69-4.91 3.06-10.125 6.7-16.106 6.85h61.418m-61.418 0c8.88.28 16.457 5.93 23.223 11.13 11.957 10.05 22.305 21.99 31.039 34.91 3.207 5.35 6.977 11.02 7.156 17.46v-63.5M1240.94 419.523h-61.42c7-.308 12.95-4.835 18.57-8.578 12.63-9.527 24.46-20.449 33.8-33.23 4.36-6.43 8.93-13.656 9.05-21.688m-61.42 63.496c8.88.282 16.46 5.93 23.23 11.141 11.95 10.035 22.3 21.977 31.03 34.899 3.21 5.351 6.98 11.019 7.16 17.457v-63.497m0 63.497c.3-9.45 6.06-17.641 11.5-24.95 9.69-12.074 21.17-22.757 33.81-31.691 4.91-3.063 10.13-6.707 16.11-6.856h-61.42m61.42 0c-8.88-.277-16.46-5.925-23.23-11.128-11.95-10.047-22.3-21.985-31.03-34.911-3.21-5.347-6.98-11.019-7.16-17.457v63.496M360.734 1652.9h147.399c-16.785.75-31.07 11.62-44.567 20.59-30.304 22.87-58.691 49.08-81.105 79.75-10.461 15.43-21.453 32.78-21.727 52.05m147.399-152.39c-21.305-.67-39.496-14.22-55.735-26.73-28.695-24.09-53.527-52.74-74.488-83.76-7.695-12.84-16.754-26.45-17.176-41.9v152.39m0-152.39c-.73 22.69-14.55 42.34-27.601 59.88-23.262 28.99-50.82 54.63-81.149 76.06-11.781 7.35-24.296 16.1-38.652 16.45h147.402m-147.402 0c21.305.67 39.5 14.23 55.734 26.72 28.696 24.11 53.532 52.76 74.489 83.77 7.695 12.84 16.746 26.45 17.179 41.9V1652.9M360.734 1037.6h147.399c-16.785.75-31.07 11.61-44.567 20.59-30.304 22.86-58.691 49.08-81.105 79.75-10.461 15.44-21.453 32.78-21.727 52.05m147.399-152.39c-21.305-.67-39.496-14.22-55.735-26.73-28.695-24.093-53.527-52.745-74.488-83.761-7.695-12.839-16.754-26.449-17.176-41.898V1037.6m0-152.389c-.73 22.684-14.55 42.34-27.601 59.883-23.262 28.98-50.82 54.621-81.149 76.056-11.781 7.35-24.296 16.1-38.652 16.45h147.402m-147.402 0c21.305.67 39.5 14.22 55.734 26.72 28.696 24.11 53.532 52.76 74.489 83.77 7.695 12.84 16.746 26.45 17.179 41.9V1037.6M360.734 345.609H213.336c16.785-.75 31.07-11.613 44.562-20.589 30.309-22.864 58.692-49.082 81.11-79.75 10.461-15.434 21.453-32.782 21.726-52.051m-147.398 152.39c21.301.672 39.496 14.227 55.734 26.735 28.692 24.09 53.528 52.742 74.489 83.758 7.695 12.839 16.754 26.449 17.175 41.898V345.609m0 152.391c.731-22.687 14.551-42.34 27.602-59.883 23.262-28.98 50.82-54.621 81.144-76.058 11.786-7.352 24.301-16.094 38.657-16.45H360.734m147.403 0c-21.305-.671-39.5-14.222-55.735-26.714-28.695-24.11-53.531-52.762-74.488-83.778-7.699-12.84-16.746-26.449-17.18-41.898v152.39M999.355 1652.9h147.395c-16.78.75-31.07 11.62-44.56 20.59-30.31 22.87-58.69 49.08-81.11 79.75-10.46 15.43-21.447 32.78-21.725 52.05m147.395-152.39c-21.3-.67-39.49-14.22-55.73-26.73-28.69-24.09-53.53-52.74-74.49-83.76-7.69-12.84-16.753-26.45-17.175-41.9v152.39m0-152.39c-.73 22.69-14.55 42.34-27.601 59.88-23.262 28.99-50.82 54.63-81.145 76.06-11.785 7.35-24.3 16.1-38.656 16.45h147.402m-147.402 0c21.305.67 39.5 14.23 55.735 26.72 28.695 24.11 53.531 52.76 74.488 83.77 7.699 12.84 16.746 26.45 17.179 41.9V1652.9M999.355 1037.6h147.395c-16.78.75-31.07 11.61-44.56 20.59-30.31 22.86-58.69 49.08-81.11 79.75-10.46 15.44-21.447 32.78-21.725 52.05m147.395-152.39c-21.3-.67-39.49-14.22-55.73-26.73-28.69-24.093-53.53-52.745-74.49-83.761-7.69-12.839-16.753-26.449-17.175-41.898V1037.6m0-152.389c-.73 22.684-14.55 42.34-27.601 59.883-23.262 28.98-50.82 54.621-81.145 76.056-11.785 7.35-24.3 16.1-38.656 16.45h147.402m-147.402 0c21.305.67 39.5 14.22 55.735 26.72 28.695 24.11 53.531 52.76 74.488 83.77 7.699 12.84 16.746 26.45 17.179 41.9V1037.6M999.359 345.609H851.957c16.789-.75 31.074-11.613 44.566-20.589 30.305-22.864 58.692-49.082 81.11-79.75 10.461-15.434 21.449-32.782 21.726-52.051m-147.402 152.39c21.305.672 39.5 14.227 55.734 26.735 28.696 24.09 53.532 52.742 74.489 83.758 7.699 12.839 16.758 26.449 17.179 41.898V345.609m0 152.391c.731-22.687 14.551-42.34 27.601-59.883 23.26-28.98 50.82-54.621 81.15-76.058 11.78-7.352 24.29-16.094 38.65-16.45H999.359m147.401 0c-21.3-.671-39.5-14.222-55.74-26.714-28.69-24.11-53.52-52.762-74.48-83.778-7.7-12.84-16.751-26.449-17.181-41.898v152.39" style="fill:#e6180a;fill-opacity:1;fill-rule:nonzero;stroke:none" transform="matrix(.13333 0 0 -.13333 0 260.917)"/></svg>