<svg xmlns="http://www.w3.org/2000/svg" width="180.28" height="260.853" viewBox="0 0 180.28 260.853"><path d="M9.996 65.418c0-30.23 24.711-54.941 54.942-54.941H1287.24c30.15 0 54.86 24.71 54.86 54.941V1891.94c0 30.22-24.71 54.94-54.86 54.94H64.938c-30.231 0-54.942-24.72-54.942-54.94z" style="fill:#fff;fill-opacity:1;fill-rule:nonzero;stroke:none" transform="matrix(.13333 0 0 -.13333 0 260.917)"/><path d="M9.996 65.418c0-30.23 24.711-54.941 54.942-54.941H1287.24c30.15 0 54.86 24.71 54.86 54.941V1891.94c0 30.22-24.71 54.94-54.86 54.94H64.938c-30.231 0-54.942-24.72-54.942-54.94z" style="fill:none;stroke:#000;stroke-width:19.9926;stroke-linecap:butt;stroke-linejoin:miter;stroke-miterlimit:10;stroke-dasharray:none;stroke-opacity:1" transform="matrix(.13333 0 0 -.13333 0 260.917)"/><path d="M89.758 1814.89c4.105 6.15 8.687 10.77 13.746 13.85 5.117 3.07 10.676 4.61 16.68 4.61q21.708 0 34.031-23.79c8.277-15.86 12.414-37.64 12.418-65.33q-.005-43.86-13.938-67.83-13.934-23.79-39.621-23.79-29.004 0-43.98 32.67c-9.922 21.9-14.883 54.03-14.883 96.41 0 48.17 5.531 84.51 16.59 109.01q16.588 36.93 49.195 36.93 8.531 0 18.293-2.67 9.763-2.655 20.949-7.98v-46.87H147.77c-1.582 12.07-4.582 21.18-9.008 27.34-4.36 6.27-10.016 9.41-16.965 9.41q-16.875 0-24.457-21.66c-4.992-14.44-7.52-37.88-7.582-70.31m21.137-141.51c6.507 0 11.156 5.15 13.933 15.45Q129 1704.46 129 1742.8c0 25.57-1.391 43.5-4.172 53.8-2.777 10.42-7.426 15.63-13.933 15.63q-9.762 0-13.934-15.63c-2.715-10.3-4.074-28.23-4.074-53.8q.001-38.34 4.074-53.97 4.172-15.45 13.934-15.45M1270.34 150.438c-4.11-6.153-8.69-10.77-13.75-13.848q-7.68-4.617-16.68-4.617c-14.47 0-25.81 7.929-34.03 23.793q-12.42 23.79-12.42 65.336c0 29.234 4.65 51.843 13.94 67.824 9.29 15.859 22.49 23.789 39.62 23.789q29.01-.001 43.98-32.668 14.88-32.849 14.88-96.406 0-72.262-16.59-109.016c-11.06-24.617-27.45-36.93-49.19-36.93q-8.535.002-18.3 2.664c-6.5 1.778-13.49 4.438-20.94 7.989v46.875h11.47q2.37-18.111 9-27.344c4.36-6.274 10.02-9.41 16.97-9.41q16.875.001 24.45 21.66c5 14.441 7.52 37.879 7.59 70.309m-21.14 141.503c-6.51 0-11.15-5.148-13.93-15.445-2.79-10.418-4.18-28.406-4.18-53.973 0-25.566 1.39-43.5 4.18-53.796 2.78-10.418 7.42-15.625 13.93-15.625s11.15 5.207 13.93 15.625q4.08 15.445 4.08 53.796c0 25.567-1.36 43.555-4.08 53.973-2.78 10.297-7.42 15.445-13.93 15.445M87.809 1482.39c13.355 0 20.39 14.23 24.07 28.47 3.68 14.23 4 28.46 4 28.46l6.797.09s1.277-57.02 27.988-57.02z" style="fill:#000;fill-opacity:1;fill-rule:nonzero;stroke:none" transform="matrix(.13333 0 0 -.13333 0 260.917)"/><path d="M65.176 1539.41c.082 27.74 41.746 47.89 53.98 69.81 12.235-21.99 53.899-42.15 53.981-69.81 0-13.12-12.078-23.76-27.032-23.76-14.875 0-26.949 10.64-26.949 23.76 0-13.12-12.074-23.76-27.031-23.76-14.953 0-26.95 10.64-26.95 23.76M1272.29 482.941c-13.36 0-20.4-14.234-24.08-28.468-3.67-14.235-3.99-28.469-3.99-28.469l-6.8-.082s-1.28 57.019-27.99 57.019z" style="fill:#000;fill-opacity:1;fill-rule:nonzero;stroke:none" transform="matrix(.13333 0 0 -.13333 0 260.917)"/><path d="M1294.92 425.922c-.08-27.75-41.74-47.902-53.98-69.813-12.24 21.993-53.9 42.145-53.98 69.813 0 13.117 12.08 23.75 27.03 23.75 14.87 0 26.95-10.633 26.95-23.75 0 13.117 12.08 23.75 27.03 23.75s26.95-10.633 26.95-23.75M285.496 1500.71c32.055 0 48.942 34.17 57.77 68.33 8.832 34.16 9.597 68.32 9.597 68.32l16.317.2s3.07-136.85 67.172-136.85z" style="fill:#000;fill-opacity:1;fill-rule:nonzero;stroke:none" transform="matrix(.13333 0 0 -.13333 0 260.917)"/><path d="M231.18 1637.56c.191 66.6 100.187 114.96 129.554 167.55 29.364-52.78 129.36-101.15 129.551-167.55 0-31.48-28.98-57.01-64.871-57.01-35.699 0-64.68 25.53-64.68 57.01 0-31.48-28.984-57.01-64.875-57.01s-64.679 25.53-64.679 57.01M285.496 885.41c32.055 0 48.942 34.164 57.77 68.324 8.832 34.164 9.597 68.326 9.597 68.326l16.317.19s3.07-136.84 67.172-136.84z" style="fill:#000;fill-opacity:1;fill-rule:nonzero;stroke:none" transform="matrix(.13333 0 0 -.13333 0 260.917)"/><path d="M231.18 1022.25c.191 66.6 100.187 114.97 129.554 167.56 29.364-52.78 129.36-101.15 129.551-167.56 0-31.473-28.98-57-64.871-57-35.699 0-64.68 25.527-64.68 57 0-31.473-28.984-57-64.875-57s-64.679 25.527-64.679 57M435.973 497.805c-32.055 0-48.942-34.164-57.774-68.325-8.828-34.164-9.594-68.328-9.594-68.328l-16.316-.191s-3.07 136.844-67.172 136.844z" style="fill:#000;fill-opacity:1;fill-rule:nonzero;stroke:none" transform="matrix(.13333 0 0 -.13333 0 260.917)"/><path d="M490.289 360.961c-.195-66.602-100.187-114.965-129.555-167.555-29.363 52.782-129.359 101.149-129.55 167.555 0 31.477 28.98 57.004 64.871 57.004 35.699 0 64.679-25.527 64.679-57.004 0 31.477 28.981 57.004 64.871 57.004 35.891 0 64.684-25.527 64.684-57.004M924.117 1500.71c32.055 0 48.942 34.17 57.774 68.33 8.828 34.16 9.593 68.32 9.593 68.32l16.316.2s3.07-136.85 67.17-136.85z" style="fill:#000;fill-opacity:1;fill-rule:nonzero;stroke:none" transform="matrix(.13333 0 0 -.13333 0 260.917)"/><path d="M869.801 1637.56c.195 66.6 100.187 114.96 129.554 167.55 29.365-52.78 129.355-101.15 129.555-167.55 0-31.48-28.98-57.01-64.87-57.01-35.7 0-64.685 25.53-64.685 57.01 0-31.48-28.98-57.01-64.871-57.01s-64.683 25.53-64.683 57.01M924.117 885.41c32.055 0 48.942 34.164 57.774 68.324 8.828 34.164 9.593 68.326 9.593 68.326l16.316.19s3.07-136.84 67.17-136.84z" style="fill:#000;fill-opacity:1;fill-rule:nonzero;stroke:none" transform="matrix(.13333 0 0 -.13333 0 260.917)"/><path d="M869.801 1022.25c.195 66.6 100.187 114.97 129.554 167.56 29.365-52.78 129.355-101.15 129.555-167.56 0-31.473-28.98-57-64.87-57-35.7 0-64.685 25.527-64.685 57 0-31.473-28.98-57-64.871-57s-64.683 25.527-64.683 57M1074.59 497.805c-32.05 0-48.94-34.164-57.77-68.325-8.82-34.164-9.59-68.328-9.59-68.328l-16.316-.191s-3.07 136.844-67.176 136.844z" style="fill:#000;fill-opacity:1;fill-rule:nonzero;stroke:none" transform="matrix(.13333 0 0 -.13333 0 260.917)"/><path d="M1128.91 360.961c-.19-66.602-100.19-114.965-129.551-167.555C969.992 246.188 870 294.555 869.805 360.961c0 31.477 28.984 57.004 64.875 57.004 35.699 0 64.679-25.527 64.679-57.004 0 31.477 28.981 57.004 64.871 57.004s64.68-25.527 64.68-57.004" style="fill:#000;fill-opacity:1;fill-rule:nonzero;stroke:none" transform="matrix(.13333 0 0 -.13333 0 260.917)"/></svg>