<svg xmlns="http://www.w3.org/2000/svg" width="180.28" height="260.853" viewBox="0 0 180.28 260.853"><path d="M9.996 65.418c0-30.23 24.711-54.941 54.942-54.941H1287.24c30.15 0 54.86 24.71 54.86 54.941V1891.94c0 30.22-24.71 54.94-54.86 54.94H64.938c-30.231 0-54.942-24.72-54.942-54.94z" style="fill:#fff;fill-opacity:1;fill-rule:nonzero;stroke:none" transform="matrix(.13333 0 0 -.13333 0 260.917)"/><path d="M9.996 65.418c0-30.23 24.711-54.941 54.942-54.941H1287.24c30.15 0 54.86 24.71 54.86 54.941V1891.94c0 30.22-24.71 54.94-54.86 54.94H64.938c-30.231 0-54.942-24.72-54.942-54.94z" style="fill:none;stroke:#000;stroke-width:19.9926;stroke-linecap:butt;stroke-linejoin:miter;stroke-miterlimit:10;stroke-dasharray:none;stroke-opacity:1" transform="matrix(.13333 0 0 -.13333 0 260.917)"/><path d="M89.758 1814.89c4.105 6.15 8.687 10.77 13.746 13.85 5.117 3.07 10.676 4.61 16.68 4.61q21.708 0 34.031-23.79c8.277-15.86 12.414-37.64 12.418-65.33q-.005-43.86-13.938-67.83-13.934-23.79-39.621-23.79-29.004 0-43.98 32.67c-9.922 21.9-14.883 54.03-14.883 96.41 0 48.17 5.531 84.51 16.59 109.01q16.588 36.93 49.195 36.93 8.531 0 18.293-2.67 9.763-2.655 20.949-7.98v-46.87H147.77c-1.582 12.07-4.582 21.18-9.008 27.34-4.36 6.27-10.016 9.41-16.965 9.41q-16.875 0-24.457-21.66c-4.992-14.45-7.52-37.88-7.582-70.31m21.137-141.51c6.507 0 11.156 5.15 13.933 15.45Q129 1704.46 129 1742.8c0 25.57-1.391 43.5-4.172 53.8-2.777 10.42-7.426 15.63-13.933 15.63q-9.762 0-13.934-15.63c-2.715-10.3-4.074-28.23-4.074-53.8q.001-38.34 4.074-53.97 4.172-15.45 13.934-15.45M1270.34 150.438c-4.11-6.153-8.69-10.77-13.75-13.848q-7.68-4.617-16.68-4.617c-14.47 0-25.81 7.929-34.03 23.793q-12.42 23.787-12.42 65.336c0 29.234 4.65 51.843 13.94 67.82 9.29 15.863 22.49 23.793 39.62 23.793q29.01-.001 43.98-32.668 14.88-32.849 14.88-96.406 0-72.262-16.59-109.016c-11.06-24.617-27.45-36.93-49.19-36.93q-8.535.002-18.3 2.664c-6.5 1.778-13.49 4.438-20.94 7.989v46.875h11.47q2.37-18.111 9-27.344c4.36-6.274 10.02-9.41 16.97-9.41q16.875.001 24.45 21.66c5 14.441 7.52 37.879 7.59 70.309m-21.14 141.503c-6.51 0-11.15-5.148-13.93-15.445-2.79-10.418-4.18-28.406-4.18-53.973 0-25.57 1.39-43.5 4.18-53.796 2.78-10.418 7.42-15.625 13.93-15.625s11.15 5.207 13.93 15.625q4.08 15.442 4.08 53.796c0 25.567-1.36 43.555-4.08 53.973-2.78 10.297-7.42 15.445-13.93 15.445M92.367 1583.07c0-14.48 12.074-26.23 27.028-26.23 14.957 0 27.031 11.75 27.031 26.23 0 14.47-12.074 26.23-27.031 26.23-14.954 0-27.028-11.76-27.028-26.23M57.5 1533.41c0-14.48 12.074-26.23 27.027-26.23 14.957 0 27.032 11.75 27.032 26.23 0 14.47-12.075 26.23-27.032 26.23-14.953 0-27.027-11.76-27.027-26.23M126.754 1533.25c0-5.28 1.598-10.24 4.398-14.4 4.797-7.12 13.196-11.83 22.629-11.83 14.957 0 27.032 11.75 27.032 26.23 0 14.47-12.075 26.23-27.032 26.23-14.953 0-27.027-11.76-27.027-26.23M87.648 1482.3c13.356 0 20.391 10.88 24.071 21.76 3.679 10.87 4 21.75 4 21.75h6.875s1.281-43.42 27.992-43.51z" style="fill:#000;fill-opacity:1;fill-rule:nonzero;stroke:none" transform="matrix(.13333 0 0 -.13333 0 260.917)"/><path d="M137.711 1563.79c-15.195-15.19-15.195-37.98-15.195-37.98l-6.797-.08s0 23.27-14.797 38.06" style="fill:#000;fill-opacity:1;fill-rule:nonzero;stroke:none" transform="matrix(.13333 0 0 -.13333 0 260.917)"/><path d="M134.672 1515.01c-15.195 15.2-37.988 15.2-37.988 15.2v6.79s23.273 0 38.066 14.8" style="fill:#000;fill-opacity:1;fill-rule:nonzero;stroke:none" transform="matrix(.13333 0 0 -.13333 0 260.917)"/><path d="M104.203 1514.93c15.192 15.2 37.985 15.2 37.985 15.2v6.8s-23.27 0-38.067 14.79M1267.73 382.258c0 14.476-12.08 26.23-27.03 26.23s-27.03-11.754-27.03-26.23c0-14.473 12.08-26.231 27.03-26.231s27.03 11.758 27.03 26.231M1302.59 431.918c0 14.477-12.07 26.23-27.02 26.23-14.96 0-27.03-11.753-27.03-26.23 0-14.473 12.07-26.227 27.03-26.227 14.95 0 27.02 11.754 27.02 26.227M1233.34 432.078c0 5.281-1.6 10.238-4.4 14.395-4.8 7.117-13.19 11.836-22.63 11.836-14.95 0-27.03-11.754-27.03-26.231 0-14.473 12.08-26.23 27.03-26.23 14.96 0 27.03 11.757 27.03 26.23M1272.45 483.02c-13.36 0-20.4-10.875-24.07-21.75-3.68-10.875-4-21.754-4-21.754h-6.88s-1.28 43.425-27.99 43.504z" style="fill:#000;fill-opacity:1;fill-rule:nonzero;stroke:none" transform="matrix(.13333 0 0 -.13333 0 260.917)"/><path d="M1222.39 401.531c15.19 15.196 15.19 37.985 15.19 37.985l6.8.082s0-23.274 14.79-38.067" style="fill:#000;fill-opacity:1;fill-rule:nonzero;stroke:none" transform="matrix(.13333 0 0 -.13333 0 260.917)"/><path d="M1225.43 450.313c15.19-15.196 37.98-15.196 37.98-15.196v-6.797s-23.27 0-38.07-14.793" style="fill:#000;fill-opacity:1;fill-rule:nonzero;stroke:none" transform="matrix(.13333 0 0 -.13333 0 260.917)"/><path d="M1255.89 450.395c-15.19-15.196-37.98-15.196-37.98-15.196v-6.797s23.27 0 38.06-14.797M296.438 1742.34c0-34.73 28.98-62.95 64.871-62.95s64.871 28.22 64.871 62.95c0 34.74-28.981 62.96-64.871 62.96-35.891 0-64.871-28.22-64.871-62.96M212.758 1623.16c0-34.74 28.98-62.96 64.871-62.96s64.871 28.22 64.871 62.96c0 34.73-28.98 62.95-64.871 62.95s-64.871-28.22-64.871-62.95M378.965 1622.77c0-12.66 3.84-24.56 10.558-34.54 11.516-17.09 31.668-28.41 54.317-28.41 35.89 0 64.871 28.22 64.871 62.95 0 34.74-28.981 62.96-64.871 62.96-35.891 0-64.875-28.22-64.875-62.96M285.113 1500.52c32.051 0 48.942 26.1 57.77 52.2s9.597 52.2 9.597 52.2h16.504s3.075-104.21 67.176-104.4z" style="fill:#000;fill-opacity:1;fill-rule:nonzero;stroke:none" transform="matrix(.13333 0 0 -.13333 0 260.917)"/><path d="M405.262 1696.09c-36.469-36.46-36.469-91.17-36.469-91.17l-16.313-.19s0 55.85-35.507 91.36" style="fill:#000;fill-opacity:1;fill-rule:nonzero;stroke:none" transform="matrix(.13333 0 0 -.13333 0 260.917)"/><path d="M397.969 1579.01c-36.469 36.47-91.168 36.47-91.168 36.47v16.31s55.851 0 91.359 35.51" style="fill:#000;fill-opacity:1;fill-rule:nonzero;stroke:none" transform="matrix(.13333 0 0 -.13333 0 260.917)"/><path d="M324.844 1578.82c36.465 36.47 91.164 36.47 91.164 36.47v16.31s-55.852 0-91.36 35.51M296.438 1127.04c0-34.74 28.98-62.95 64.871-62.95s64.871 28.21 64.871 62.95-28.981 62.96-64.871 62.96c-35.891 0-64.871-28.22-64.871-62.96M212.758 1007.86c0-34.743 28.98-62.958 64.871-62.958s64.871 28.215 64.871 62.958c0 34.73-28.98 62.95-64.871 62.95s-64.871-28.22-64.871-62.95M378.965 1007.47c0-12.665 3.84-24.568 10.558-34.548 11.516-17.078 31.668-28.402 54.317-28.402 35.89 0 64.871 28.21 64.871 62.95s-28.981 62.95-64.871 62.95c-35.891 0-64.875-28.21-64.875-62.95M285.113 885.211c32.051 0 48.942 26.105 57.77 52.207s9.597 52.203 9.597 52.203h16.504s3.075-104.219 67.176-104.41z" style="fill:#000;fill-opacity:1;fill-rule:nonzero;stroke:none" transform="matrix(.13333 0 0 -.13333 0 260.917)"/><path d="M405.262 1080.79c-36.469-36.47-36.469-91.169-36.469-91.169l-16.313-.191s0 55.85-35.507 91.36" style="fill:#000;fill-opacity:1;fill-rule:nonzero;stroke:none" transform="matrix(.13333 0 0 -.13333 0 260.917)"/><path d="M397.969 963.711c-36.469 36.469-91.168 36.469-91.168 36.469v16.31s55.851 0 91.359 35.51" style="fill:#000;fill-opacity:1;fill-rule:nonzero;stroke:none" transform="matrix(.13333 0 0 -.13333 0 260.917)"/><path d="M324.844 963.52c36.465 36.464 91.164 36.464 91.164 36.464v16.316s-55.852 0-91.36 35.5M425.031 256.176c0 34.738-28.98 62.949-64.871 62.949s-64.871-28.211-64.871-62.949c0-34.742 28.981-62.953 64.871-62.953 35.891 0 64.871 28.211 64.871 62.953M508.711 375.363c0 34.739-28.981 62.95-64.871 62.95-35.891 0-64.871-28.211-64.871-62.95 0-34.742 28.98-62.953 64.871-62.953s64.871 28.211 64.871 62.953M342.504 375.746c0 12.668-3.84 24.567-10.559 34.547-11.515 17.082-31.668 28.406-54.316 28.406-35.891 0-64.871-28.215-64.871-62.953s28.98-62.953 64.871-62.953 64.875 28.215 64.875 62.953M436.355 498.004c-32.05 0-48.941-26.102-57.769-52.203-8.828-26.106-9.598-52.207-9.598-52.207h-16.504s-3.074 104.219-67.175 104.41z" style="fill:#000;fill-opacity:1;fill-rule:nonzero;stroke:none" transform="matrix(.13333 0 0 -.13333 0 260.917)"/><path d="M316.207 302.43c36.469 36.465 36.469 91.164 36.469 91.164l16.312.191s0-55.851 35.508-91.355" style="fill:#000;fill-opacity:1;fill-rule:nonzero;stroke:none" transform="matrix(.13333 0 0 -.13333 0 260.917)"/><path d="M323.5 419.504c36.469-36.465 91.168-36.465 91.168-36.465v-16.312s-55.852 0-91.359-35.508" style="fill:#000;fill-opacity:1;fill-rule:nonzero;stroke:none" transform="matrix(.13333 0 0 -.13333 0 260.917)"/><path d="M396.625 419.695c-36.465-36.465-91.164-36.465-91.164-36.465v-16.312s55.852 0 91.355-35.508M935.059 1742.34c0-34.73 28.98-62.95 64.871-62.95s64.87 28.22 64.87 62.95c0 34.74-28.98 62.96-64.87 62.96s-64.871-28.22-64.871-62.96M851.379 1623.16c0-34.74 28.98-62.96 64.871-62.96s64.871 28.22 64.871 62.96c0 34.73-28.98 62.95-64.871 62.95s-64.871-28.22-64.871-62.95M1017.59 1622.77c0-12.66 3.84-24.56 10.55-34.54 11.52-17.09 31.67-28.41 54.32-28.41 35.89 0 64.87 28.22 64.87 62.95 0 34.74-28.98 62.96-64.87 62.96s-64.87-28.22-64.87-62.96M923.734 1500.52c32.051 0 48.942 26.1 57.77 52.2s9.598 52.2 9.598 52.2h16.508s3.07-104.21 67.17-104.4z" style="fill:#000;fill-opacity:1;fill-rule:nonzero;stroke:none" transform="matrix(.13333 0 0 -.13333 0 260.917)"/><path d="M1043.88 1696.09c-36.47-36.46-36.47-91.17-36.47-91.17l-16.308-.19s0 55.85-35.508 91.36" style="fill:#000;fill-opacity:1;fill-rule:nonzero;stroke:none" transform="matrix(.13333 0 0 -.13333 0 260.917)"/><path d="M1036.59 1579.01c-36.47 36.47-91.168 36.47-91.168 36.47v16.31s55.848 0 91.358 35.51" style="fill:#000;fill-opacity:1;fill-rule:nonzero;stroke:none" transform="matrix(.13333 0 0 -.13333 0 260.917)"/><path d="M963.465 1578.82c36.465 36.47 91.165 36.47 91.165 36.47v16.31s-55.853 0-91.357 35.51M935.059 1127.04c0-34.74 28.98-62.95 64.871-62.95s64.87 28.21 64.87 62.95-28.98 62.96-64.87 62.96-64.871-28.22-64.871-62.96M851.379 1007.86c0-34.743 28.98-62.958 64.871-62.958s64.871 28.215 64.871 62.958c0 34.73-28.98 62.95-64.871 62.95s-64.871-28.22-64.871-62.95M1017.59 1007.47c0-12.665 3.84-24.568 10.55-34.548 11.52-17.078 31.67-28.402 54.32-28.402 35.89 0 64.87 28.21 64.87 62.95s-28.98 62.95-64.87 62.95-64.87-28.21-64.87-62.95M923.734 885.211c32.051 0 48.942 26.105 57.77 52.207s9.598 52.203 9.598 52.203h16.508s3.07-104.219 67.17-104.41z" style="fill:#000;fill-opacity:1;fill-rule:nonzero;stroke:none" transform="matrix(.13333 0 0 -.13333 0 260.917)"/><path d="M1043.88 1080.79c-36.47-36.47-36.47-91.169-36.47-91.169l-16.308-.191s0 55.85-35.508 91.36" style="fill:#000;fill-opacity:1;fill-rule:nonzero;stroke:none" transform="matrix(.13333 0 0 -.13333 0 260.917)"/><path d="M1036.59 963.711c-36.47 36.469-91.168 36.469-91.168 36.469v16.31s55.848 0 91.358 35.51" style="fill:#000;fill-opacity:1;fill-rule:nonzero;stroke:none" transform="matrix(.13333 0 0 -.13333 0 260.917)"/><path d="M963.465 963.52c36.465 36.464 91.165 36.464 91.165 36.464v16.316s-55.853 0-91.357 35.5M1063.66 256.176c0 34.738-28.99 62.949-64.879 62.949s-64.871-28.211-64.871-62.949c0-34.742 28.981-62.953 64.871-62.953s64.879 28.211 64.879 62.953M1147.34 375.363c0 34.739-28.98 62.95-64.88 62.95-35.89 0-64.87-28.211-64.87-62.95 0-34.742 28.98-62.953 64.87-62.953 35.9 0 64.88 28.211 64.88 62.953M981.125 375.746c0 12.668-3.84 24.567-10.555 34.547-11.515 17.082-31.668 28.406-54.316 28.406-35.891 0-64.871-28.215-64.871-62.953s28.98-62.953 64.871-62.953 64.871 28.215 64.871 62.953M1074.98 498.004c-32.05 0-48.94-26.102-57.77-52.203-8.83-26.106-9.6-52.207-9.6-52.207h-16.505s-3.07 104.219-67.175 104.41z" style="fill:#000;fill-opacity:1;fill-rule:nonzero;stroke:none" transform="matrix(.13333 0 0 -.13333 0 260.917)"/><path d="M954.832 302.43c36.465 36.465 36.465 91.164 36.465 91.164l16.313.191s0-55.851 35.51-91.355" style="fill:#000;fill-opacity:1;fill-rule:nonzero;stroke:none" transform="matrix(.13333 0 0 -.13333 0 260.917)"/><path d="M962.125 419.504c36.465-36.465 91.165-36.465 91.165-36.465v-16.312s-55.852 0-91.356-35.508" style="fill:#000;fill-opacity:1;fill-rule:nonzero;stroke:none" transform="matrix(.13333 0 0 -.13333 0 260.917)"/><path d="M1035.25 419.695c-36.469-36.465-91.168-36.465-91.168-36.465v-16.312s55.852 0 91.358-35.508" style="fill:#000;fill-opacity:1;fill-rule:nonzero;stroke:none" transform="matrix(.13333 0 0 -.13333 0 260.917)"/></svg>