<svg xmlns="http://www.w3.org/2000/svg" width="180.28" height="260.853" viewBox="0 0 180.28 260.853"><path d="M9.996 65.418c0-30.23 24.711-54.941 54.942-54.941H1287.24c30.15 0 54.86 24.71 54.86 54.941V1891.94c0 30.23-24.71 54.94-54.86 54.94H64.938c-30.231 0-54.942-24.71-54.942-54.94z" style="fill:#fff;fill-opacity:1;fill-rule:nonzero;stroke:none" transform="matrix(.13333 0 0 -.13333 0 260.917)"/><path d="M9.996 65.418c0-30.23 24.711-54.941 54.942-54.941H1287.24c30.15 0 54.86 24.71 54.86 54.941V1891.94c0 30.23-24.71 54.94-54.86 54.94H64.938c-30.231 0-54.942-24.71-54.942-54.94z" style="fill:none;stroke:#000;stroke-width:19.9926;stroke-linecap:butt;stroke-linejoin:miter;stroke-miterlimit:10;stroke-dasharray:none;stroke-opacity:1" transform="matrix(.13333 0 0 -.13333 0 260.917)"/><path d="m160.945 1877.74-58.39-219.98H83.312l56.872 214.83H70.328v-35.86H57.34v86.11h103.605zM1199.11 87.586l58.39 219.98h19.24l-56.87-214.832h69.86v35.868h12.98v-86.11h-103.6zM119.156 1545.8h61.418c-6.996.31-12.949 4.84-18.57 8.58-12.629 9.53-24.453 20.45-33.797 33.23-4.355 6.43-8.937 13.66-9.051 21.69m61.418-63.5c-8.879-.28-16.461-5.92-23.222-11.14-11.957-10.03-22.305-21.97-31.039-34.9-3.208-5.35-6.981-11.02-7.157-17.46v63.5m0-63.5c-.304 9.46-6.062 17.65-11.5 24.96-9.691 12.07-21.175 22.76-33.812 31.69-4.91 3.06-10.125 6.7-16.106 6.85h61.418m-61.418 0c8.88.28 16.457 5.93 23.223 11.13 11.957 10.05 22.305 21.99 31.039 34.91 3.207 5.35 6.977 11.02 7.156 17.46v-63.5M1240.9 419.523h-61.42c7-.308 12.95-4.835 18.57-8.578 12.63-9.527 24.45-20.449 33.8-33.23 4.35-6.43 8.94-13.656 9.05-21.688m-61.42 63.496c8.88.282 16.46 5.93 23.22 11.141 11.96 10.035 22.31 21.977 31.04 34.899 3.21 5.351 6.98 11.019 7.16 17.457v-63.497m0 63.497c.3-9.45 6.06-17.641 11.5-24.95 9.69-12.074 21.17-22.757 33.81-31.691 4.91-3.063 10.13-6.707 16.11-6.856h-61.42m61.42 0c-8.88-.277-16.46-5.925-23.23-11.128-11.95-10.047-22.3-21.985-31.04-34.911-3.2-5.347-6.97-11.019-7.15-17.457v63.496M360.738 1652.9h147.403c-16.789.75-31.075 11.62-44.567 20.59-30.304 22.87-58.691 49.08-81.109 79.75-10.461 15.43-21.449 32.78-21.727 52.05m147.403-152.39c-21.305-.67-39.5-14.22-55.739-26.73-28.691-24.09-53.527-52.74-74.484-83.76-7.699-12.84-16.758-26.45-17.18-41.9v152.39m0-152.39c-.73 22.69-14.547 42.34-27.597 59.88-23.262 28.99-50.825 54.63-81.149 76.06-11.785 7.35-24.297 16.1-38.656 16.45h147.402m-147.402 0c21.305.67 39.5 14.23 55.738 26.72 28.692 24.11 53.528 52.76 74.489 83.77 7.695 12.84 16.746 26.45 17.175 41.9V1652.9M360.738 1037.6h147.403c-16.789.75-31.075 11.61-44.567 20.59-30.304 22.86-58.691 49.08-81.109 79.75-10.461 15.44-21.449 32.78-21.727 52.05m147.403-152.39c-21.305-.67-39.5-14.22-55.739-26.73-28.691-24.093-53.527-52.745-74.484-83.761-7.699-12.839-16.758-26.449-17.18-41.898V1037.6m0-152.389c-.73 22.684-14.547 42.34-27.597 59.883-23.262 28.98-50.825 54.621-81.149 76.056-11.785 7.35-24.297 16.1-38.656 16.45h147.402m-147.402 0c21.305.67 39.5 14.22 55.738 26.72 28.692 24.11 53.528 52.76 74.489 83.77 7.695 12.84 16.746 26.45 17.175 41.9V1037.6M360.738 345.609H213.336c16.789-.75 31.074-11.613 44.566-20.589 30.305-22.864 58.692-49.082 81.11-79.75 10.461-15.434 21.449-32.782 21.726-52.051m-147.402 152.39c21.305.672 39.5 14.227 55.734 26.735 28.696 24.09 53.532 52.742 74.489 83.758 7.695 12.839 16.757 26.449 17.179 41.898V345.609m0 152.391c.727-22.687 14.547-42.34 27.598-59.883 23.262-28.98 50.824-54.621 81.148-76.058 11.786-7.352 24.297-16.094 38.653-16.45H360.738m147.399 0c-21.301-.671-39.496-14.222-55.735-26.714-28.695-24.11-53.527-52.762-74.488-83.778-7.695-12.84-16.746-26.449-17.176-41.898v152.39M999.359 1652.9h147.401c-16.79.75-31.07 11.62-44.56 20.59-30.31 22.87-58.7 49.08-81.11 79.75-10.46 15.43-21.453 32.78-21.731 52.05m147.401-152.39c-21.3-.67-39.5-14.22-55.73-26.73-28.7-24.09-53.53-52.74-74.49-83.76-7.7-12.84-16.759-26.45-17.181-41.9v152.39m0-152.39c-.726 22.69-14.546 42.34-27.597 59.88-23.262 28.99-50.824 54.63-81.149 76.06-11.785 7.35-24.297 16.1-38.652 16.45h147.398m-147.398 0c21.301.67 39.496 14.23 55.734 26.72 28.696 24.11 53.528 52.76 74.489 83.77 7.695 12.84 16.746 26.45 17.175 41.9V1652.9M999.359 1037.6h147.401c-16.79.75-31.07 11.61-44.56 20.59-30.31 22.86-58.7 49.08-81.11 79.75-10.46 15.44-21.453 32.78-21.731 52.05m147.401-152.39c-21.3-.67-39.5-14.22-55.73-26.73-28.7-24.093-53.53-52.745-74.49-83.761-7.7-12.839-16.759-26.449-17.181-41.898V1037.6m0-152.389c-.726 22.684-14.546 42.34-27.597 59.883-23.262 28.98-50.824 54.621-81.149 76.056-11.785 7.35-24.297 16.1-38.652 16.45h147.398m-147.398 0c21.301.67 39.496 14.22 55.734 26.72 28.696 24.11 53.528 52.76 74.489 83.77 7.695 12.84 16.746 26.45 17.175 41.9V1037.6M999.359 345.609H851.957c16.789-.75 31.074-11.613 44.566-20.589 30.309-22.864 58.692-49.082 81.11-79.75 10.461-15.434 21.449-32.782 21.726-52.051m-147.402 152.39c21.305.672 39.5 14.227 55.738 26.735 28.692 24.09 53.528 52.742 74.489 83.758 7.695 12.839 16.754 26.449 17.175 41.898V345.609m0 152.391c.731-22.687 14.551-42.34 27.601-59.883 23.26-28.98 50.82-54.621 81.15-76.058 11.78-7.352 24.3-16.094 38.65-16.45H999.359m147.401 0c-21.3-.671-39.5-14.222-55.74-26.714-28.69-24.11-53.52-52.762-74.48-83.778-7.7-12.84-16.747-26.449-17.181-41.898v152.39M680.047 1219.81h147.402c-16.789.75-31.074 11.62-44.566 20.59-30.305 22.87-58.692 49.08-81.11 79.75-10.46 15.44-21.449 32.78-21.726 52.05m147.402-152.39c-21.304-.67-39.5-14.22-55.738-26.73-28.691-24.09-53.527-52.74-74.484-83.76-7.7-12.84-16.758-26.45-17.18-41.9v152.39m0-152.39c-.731 22.69-14.547 42.34-27.598 59.88-23.261 28.99-50.824 54.63-81.148 76.07-11.785 7.34-24.297 16.09-38.656 16.44h147.402m-147.402 0c21.304.67 39.5 14.23 55.738 26.72 28.691 24.11 53.527 52.76 74.488 83.78 7.695 12.84 16.746 26.44 17.176 41.89v-152.39" style="fill:#e6180a;fill-opacity:1;fill-rule:nonzero;stroke:none" transform="matrix(.13333 0 0 -.13333 0 260.917)"/></svg>