<svg xmlns="http://www.w3.org/2000/svg" width="180.28" height="260.853" viewBox="0 0 180.28 260.853"><path d="M9.996 65.418c0-30.23 24.711-54.941 54.942-54.941H1287.24c30.15 0 54.86 24.71 54.86 54.941V1891.94c0 30.22-24.71 54.94-54.86 54.94H64.938c-30.231 0-54.942-24.72-54.942-54.94z" style="fill:#fff;fill-opacity:1;fill-rule:nonzero;stroke:none" transform="matrix(.13333 0 0 -.13333 0 260.917)"/><path d="M9.996 65.418c0-30.23 24.711-54.941 54.942-54.941H1287.24c30.15 0 54.86 24.71 54.86 54.941V1891.94c0 30.22-24.71 54.94-54.86 54.94H64.938c-30.231 0-54.942-24.72-54.942-54.94z" style="fill:none;stroke:#000;stroke-width:19.9926;stroke-linecap:butt;stroke-linejoin:miter;stroke-miterlimit:10;stroke-dasharray:none;stroke-opacity:1" transform="matrix(.13333 0 0 -.13333 0 260.917)"/><path d="m160.945 1877.74-58.39-219.98H83.312l56.872 214.83H70.328v-35.86H57.34v86.11h103.605zM1199.11 87.586l58.39 219.98h19.24l-56.87-214.832h69.86v35.868h12.98v-86.11h-103.6zM87.809 1482.39c13.355 0 20.39 14.23 24.07 28.47 3.68 14.23 4 28.46 4 28.46l6.797.09s1.277-57.02 27.988-57.02z" style="fill:#000;fill-opacity:1;fill-rule:nonzero;stroke:none" transform="matrix(.13333 0 0 -.13333 0 260.917)"/><path d="M65.176 1539.41c.082 27.74 41.746 47.89 53.98 69.81 12.235-21.99 53.899-42.15 53.981-69.81 0-13.12-12.078-23.76-27.032-23.76-14.875 0-26.949 10.64-26.949 23.76 0-13.12-12.074-23.76-27.031-23.76-14.953 0-26.95 10.64-26.95 23.76M1272.25 482.941c-13.36 0-20.39-14.234-24.07-28.468s-4-28.469-4-28.469l-6.8-.082s-1.28 57.019-27.99 57.019z" style="fill:#000;fill-opacity:1;fill-rule:nonzero;stroke:none" transform="matrix(.13333 0 0 -.13333 0 260.917)"/><path d="M1294.88 425.922c-.08-27.75-41.75-47.902-53.98-69.813-12.24 21.993-53.9 42.145-53.98 69.813 0 13.117 12.08 23.75 27.03 23.75 14.87 0 26.95-10.633 26.95-23.75 0 13.117 12.07 23.75 27.03 23.75 14.95 0 26.95-10.633 26.95-23.75M285.504 1500.71c32.051 0 48.941 34.17 57.769 68.33 8.829 34.16 9.598 68.32 9.598 68.32l16.313.2s3.07-136.85 67.175-136.85z" style="fill:#000;fill-opacity:1;fill-rule:nonzero;stroke:none" transform="matrix(.13333 0 0 -.13333 0 260.917)"/><path d="M231.188 1637.56c.191 66.6 100.187 114.96 129.55 167.55 29.367-52.78 129.36-101.15 129.551-167.55 0-31.48-28.98-57.01-64.871-57.01-35.699 0-64.68 25.53-64.68 57.01 0-31.48-28.98-57.01-64.871-57.01s-64.679 25.53-64.679 57.01M285.504 885.41c32.051 0 48.941 34.164 57.769 68.324 8.829 34.164 9.598 68.326 9.598 68.326l16.313.19s3.07-136.84 67.175-136.84z" style="fill:#000;fill-opacity:1;fill-rule:nonzero;stroke:none" transform="matrix(.13333 0 0 -.13333 0 260.917)"/><path d="M231.188 1022.25c.191 66.6 100.187 114.97 129.55 167.56 29.367-52.78 129.36-101.15 129.551-167.56 0-31.473-28.98-57-64.871-57-35.699 0-64.68 25.527-64.68 57 0-31.473-28.98-57-64.871-57s-64.679 25.527-64.679 57M435.973 497.805c-32.051 0-48.942-34.164-57.77-68.325-8.828-34.164-9.598-68.328-9.598-68.328l-16.312-.191s-3.07 136.844-67.176 136.844z" style="fill:#000;fill-opacity:1;fill-rule:nonzero;stroke:none" transform="matrix(.13333 0 0 -.13333 0 260.917)"/><path d="M490.289 360.961c-.191-66.602-100.187-114.965-129.551-167.555-29.367 52.782-129.359 101.149-129.554 167.555 0 31.477 28.984 57.004 64.875 57.004 35.695 0 64.679-25.527 64.679-57.004 0 31.477 28.981 57.004 64.871 57.004 35.891 0 64.68-25.527 64.68-57.004M924.125 1500.71c32.051 0 48.941 34.17 57.77 68.33 8.828 34.16 9.597 68.32 9.597 68.32l16.308.2s3.08-136.85 67.18-136.85z" style="fill:#000;fill-opacity:1;fill-rule:nonzero;stroke:none" transform="matrix(.13333 0 0 -.13333 0 260.917)"/><path d="M869.809 1637.56c.191 66.6 100.187 114.96 129.55 167.55 29.371-52.78 129.361-101.15 129.551-167.55 0-31.48-28.98-57.01-64.87-57.01-35.7 0-64.681 25.53-64.681 57.01 0-31.48-28.98-57.01-64.871-57.01s-64.679 25.53-64.679 57.01M924.125 885.41c32.051 0 48.941 34.164 57.77 68.324 8.828 34.164 9.597 68.326 9.597 68.326l16.308.19s3.08-136.84 67.18-136.84z" style="fill:#000;fill-opacity:1;fill-rule:nonzero;stroke:none" transform="matrix(.13333 0 0 -.13333 0 260.917)"/><path d="M869.809 1022.25c.191 66.6 100.187 114.97 129.55 167.56 29.371-52.78 129.361-101.15 129.551-167.56 0-31.473-28.98-57-64.87-57-35.7 0-64.681 25.527-64.681 57 0-31.473-28.98-57-64.871-57s-64.679 25.527-64.679 57M1074.6 497.805c-32.06 0-48.94-34.164-57.78-68.325-8.82-34.164-9.59-68.328-9.59-68.328l-16.316-.191s-3.07 136.844-67.172 136.844z" style="fill:#000;fill-opacity:1;fill-rule:nonzero;stroke:none" transform="matrix(.13333 0 0 -.13333 0 260.917)"/><path d="M1128.91 360.961c-.19-66.602-100.18-114.965-129.551-167.555C969.996 246.188 870 294.555 869.809 360.961c0 31.477 28.98 57.004 64.871 57.004 35.699 0 64.679-25.527 64.679-57.004 0 31.477 28.981 57.004 64.871 57.004s64.68-25.527 64.68-57.004M604.813 1067.63c32.05 0 48.941 34.16 57.769 68.32s9.598 68.33 9.598 68.33l16.312.19s3.071-136.84 67.176-136.84z" style="fill:#000;fill-opacity:1;fill-rule:nonzero;stroke:none" transform="matrix(.13333 0 0 -.13333 0 260.917)"/><path d="M550.496 1204.47c.192 66.6 100.188 114.96 129.551 167.55 29.367-52.78 129.359-101.14 129.551-167.55 0-31.48-28.981-57-64.871-57-35.7 0-64.68 25.52-64.68 57 0-31.48-28.981-57-64.871-57-35.891 0-64.68 25.52-64.68 57" style="fill:#000;fill-opacity:1;fill-rule:nonzero;stroke:none" transform="matrix(.13333 0 0 -.13333 0 260.917)"/></svg>