<svg xmlns="http://www.w3.org/2000/svg" width="180.28" height="260.853" viewBox="0 0 180.28 260.853"><path d="M9.996 65.418c0-30.23 24.711-54.941 54.942-54.941H1287.24c30.15 0 54.86 24.71 54.86 54.941V1891.94c0 30.22-24.71 54.94-54.86 54.94H64.938c-30.231 0-54.942-24.72-54.942-54.94z" style="fill:#fff;fill-opacity:1;fill-rule:nonzero;stroke:none" transform="matrix(.13333 0 0 -.13333 0 260.917)"/><path d="M9.996 65.418c0-30.23 24.711-54.941 54.942-54.941H1287.24c30.15 0 54.86 24.71 54.86 54.941V1891.94c0 30.22-24.71 54.94-54.86 54.94H64.938c-30.231 0-54.942-24.72-54.942-54.94z" style="fill:none;stroke:#000;stroke-width:19.9926;stroke-linecap:butt;stroke-linejoin:miter;stroke-miterlimit:10;stroke-dasharray:none;stroke-opacity:1" transform="matrix(.13333 0 0 -.13333 0 260.917)"/><path d="m160.945 1877.74-58.39-219.98H83.312l56.872 214.83H70.328v-35.86H57.34v86.11h103.605zM1199.11 87.586l58.39 219.98h19.24l-56.87-214.832h69.86v35.868h12.98V42.488h-103.6zM92.367 1583.07c0-14.48 12.074-26.23 27.028-26.23 14.957 0 27.031 11.75 27.031 26.23 0 14.47-12.074 26.23-27.031 26.23-14.954 0-27.028-11.76-27.028-26.23M57.5 1533.41c0-14.48 12.074-26.23 27.027-26.23 14.957 0 27.032 11.75 27.032 26.23 0 14.47-12.075 26.23-27.032 26.23-14.953 0-27.027-11.76-27.027-26.23M126.754 1533.25c0-5.28 1.598-10.24 4.398-14.4 4.797-7.12 13.196-11.83 22.629-11.83 14.957 0 27.032 11.75 27.032 26.23 0 14.47-12.075 26.23-27.032 26.23-14.953 0-27.027-11.76-27.027-26.23M87.648 1482.3c13.356 0 20.391 10.88 24.071 21.76 3.679 10.87 4 21.75 4 21.75h6.875s1.281-43.42 27.992-43.51z" style="fill:#000;fill-opacity:1;fill-rule:nonzero;stroke:none" transform="matrix(.13333 0 0 -.13333 0 260.917)"/><path d="M137.707 1563.79c-15.191-15.19-15.191-37.98-15.191-37.98l-6.797-.08s0 23.27-14.797 38.06" style="fill:#000;fill-opacity:1;fill-rule:nonzero;stroke:none" transform="matrix(.13333 0 0 -.13333 0 260.917)"/><path d="M134.672 1515.01c-15.195 15.2-37.988 15.2-37.988 15.2v6.79s23.273 0 38.066 14.8" style="fill:#000;fill-opacity:1;fill-rule:nonzero;stroke:none" transform="matrix(.13333 0 0 -.13333 0 260.917)"/><path d="M104.203 1514.93c15.192 15.2 37.985 15.2 37.985 15.2v6.8s-23.274 0-38.067 14.79M1267.69 382.258c0 14.476-12.08 26.23-27.03 26.23-14.96 0-27.03-11.754-27.03-26.23 0-14.473 12.07-26.231 27.03-26.231 14.95 0 27.03 11.758 27.03 26.231M1302.55 431.918c0 14.477-12.07 26.23-27.02 26.23-14.96 0-27.03-11.753-27.03-26.23 0-14.473 12.07-26.227 27.03-26.227 14.95 0 27.02 11.754 27.02 26.227M1233.3 432.078c0 5.281-1.6 10.238-4.4 14.395-4.79 7.117-13.19 11.836-22.63 11.836-14.95 0-27.03-11.754-27.03-26.231 0-14.473 12.08-26.23 27.03-26.23 14.96 0 27.03 11.757 27.03 26.23M1272.41 483.02c-13.36 0-20.39-10.875-24.07-21.75s-4-21.754-4-21.754h-6.88s-1.28 43.425-27.99 43.504z" style="fill:#000;fill-opacity:1;fill-rule:nonzero;stroke:none" transform="matrix(.13333 0 0 -.13333 0 260.917)"/><path d="M1222.34 401.531c15.2 15.196 15.2 37.985 15.2 37.985l6.8.082s0-23.274 14.79-38.067" style="fill:#000;fill-opacity:1;fill-rule:nonzero;stroke:none" transform="matrix(.13333 0 0 -.13333 0 260.917)"/><path d="M1225.38 450.313c15.2-15.196 37.99-15.196 37.99-15.196v-6.797s-23.27 0-38.07-14.793" style="fill:#000;fill-opacity:1;fill-rule:nonzero;stroke:none" transform="matrix(.13333 0 0 -.13333 0 260.917)"/><path d="M1255.85 450.395c-15.19-15.196-37.98-15.196-37.98-15.196v-6.797s23.27 0 38.06-14.797M296.441 1742.34c0-34.73 28.981-62.95 64.872-62.95s64.875 28.22 64.875 62.95c0 34.74-28.985 62.96-64.875 62.96s-64.872-28.22-64.872-62.96M212.762 1623.16c0-34.74 28.98-62.96 64.871-62.96s64.871 28.22 64.871 62.96c0 34.73-28.981 62.95-64.871 62.95-35.891 0-64.871-28.22-64.871-62.95M378.973 1622.77c0-12.66 3.836-24.56 10.554-34.54 11.516-17.09 31.668-28.41 54.317-28.41 35.89 0 64.871 28.22 64.871 62.95 0 34.74-28.981 62.96-64.871 62.96-35.891 0-64.871-28.22-64.871-62.96M285.117 1500.52c32.055 0 48.942 26.1 57.774 52.2 8.828 26.1 9.593 52.2 9.593 52.2h16.508s3.071-104.21 67.176-104.4z" style="fill:#000;fill-opacity:1;fill-rule:nonzero;stroke:none" transform="matrix(.13333 0 0 -.13333 0 260.917)"/><path d="M405.266 1696.09c-36.465-36.46-36.465-91.17-36.465-91.17l-16.317-.19s0 55.85-35.504 91.36" style="fill:#000;fill-opacity:1;fill-rule:nonzero;stroke:none" transform="matrix(.13333 0 0 -.13333 0 260.917)"/><path d="M397.973 1579.01c-36.465 36.47-91.168 36.47-91.168 36.47v16.31s55.851 0 91.359 35.51" style="fill:#000;fill-opacity:1;fill-rule:nonzero;stroke:none" transform="matrix(.13333 0 0 -.13333 0 260.917)"/><path d="M324.848 1578.82c36.465 36.47 91.168 36.47 91.168 36.47v16.31s-55.852 0-91.36 35.51M296.441 1127.04c0-34.74 28.981-62.95 64.872-62.95s64.875 28.21 64.875 62.95-28.985 62.96-64.875 62.96-64.872-28.22-64.872-62.96M212.762 1007.86c0-34.743 28.98-62.958 64.871-62.958s64.871 28.215 64.871 62.958c0 34.73-28.981 62.95-64.871 62.95-35.891 0-64.871-28.22-64.871-62.95M378.973 1007.47c0-12.665 3.836-24.568 10.554-34.548 11.516-17.078 31.668-28.402 54.317-28.402 35.89 0 64.871 28.21 64.871 62.95s-28.981 62.95-64.871 62.95c-35.891 0-64.871-28.21-64.871-62.95M285.117 885.211c32.055 0 48.942 26.105 57.774 52.207 8.828 26.102 9.593 52.203 9.593 52.203h16.508s3.071-104.219 67.176-104.41z" style="fill:#000;fill-opacity:1;fill-rule:nonzero;stroke:none" transform="matrix(.13333 0 0 -.13333 0 260.917)"/><path d="M405.266 1080.79c-36.465-36.47-36.465-91.169-36.465-91.169l-16.317-.191s0 55.85-35.504 91.36" style="fill:#000;fill-opacity:1;fill-rule:nonzero;stroke:none" transform="matrix(.13333 0 0 -.13333 0 260.917)"/><path d="M397.973 963.711c-36.465 36.469-91.168 36.469-91.168 36.469v16.31s55.851 0 91.359 35.51" style="fill:#000;fill-opacity:1;fill-rule:nonzero;stroke:none" transform="matrix(.13333 0 0 -.13333 0 260.917)"/><path d="M324.848 963.52c36.465 36.464 91.168 36.464 91.168 36.464v16.316s-55.852 0-91.36 35.5M425.031 256.176c0 34.738-28.98 62.949-64.871 62.949s-64.871-28.211-64.871-62.949c0-34.742 28.981-62.953 64.871-62.953 35.891 0 64.871 28.211 64.871 62.953M508.715 375.363c0 34.739-28.981 62.95-64.871 62.95-35.891 0-64.875-28.211-64.875-62.95 0-34.742 28.984-62.953 64.875-62.953s64.871 28.211 64.871 62.953M342.504 375.746c0 12.668-3.84 24.567-10.555 34.547-11.515 17.082-31.668 28.406-54.316 28.406-35.891 0-64.871-28.215-64.871-62.953s28.98-62.953 64.871-62.953 64.871 28.215 64.871 62.953M436.355 498.004c-32.05 0-48.941-26.102-57.769-52.203-8.828-26.106-9.598-52.207-9.598-52.207h-16.504s-3.07 104.219-67.175 104.41z" style="fill:#000;fill-opacity:1;fill-rule:nonzero;stroke:none" transform="matrix(.13333 0 0 -.13333 0 260.917)"/><path d="M316.211 302.43c36.465 36.465 36.465 91.164 36.465 91.164l16.312.191s0-55.851 35.508-91.355" style="fill:#000;fill-opacity:1;fill-rule:nonzero;stroke:none" transform="matrix(.13333 0 0 -.13333 0 260.917)"/><path d="M323.504 419.504c36.465-36.465 91.164-36.465 91.164-36.465v-16.312s-55.852 0-91.355-35.508" style="fill:#000;fill-opacity:1;fill-rule:nonzero;stroke:none" transform="matrix(.13333 0 0 -.13333 0 260.917)"/><path d="M396.629 419.695c-36.469-36.465-91.168-36.465-91.168-36.465v-16.312s55.852 0 91.359-35.508M935.066 1742.34c0-34.73 28.981-62.95 64.872-62.95 35.892 0 64.872 28.22 64.872 62.95 0 34.74-28.98 62.96-64.872 62.96s-64.872-28.22-64.872-62.96M851.383 1623.16c0-34.74 28.98-62.96 64.871-62.96s64.875 28.22 64.875 62.96c0 34.73-28.984 62.95-64.875 62.95s-64.871-28.22-64.871-62.95M1017.59 1622.77c0-12.66 3.84-24.56 10.56-34.54 11.51-17.09 31.67-28.41 54.31-28.41 35.9 0 64.88 28.22 64.88 62.95 0 34.74-28.98 62.96-64.88 62.96-35.89 0-64.87-28.22-64.87-62.96M923.742 1500.52c32.051 0 48.942 26.1 57.77 52.2s9.597 52.2 9.597 52.2h16.501s3.07-104.21 67.18-104.4z" style="fill:#000;fill-opacity:1;fill-rule:nonzero;stroke:none" transform="matrix(.13333 0 0 -.13333 0 260.917)"/><path d="M1043.89 1696.09c-36.47-36.46-36.47-91.17-36.47-91.17l-16.311-.19s0 55.85-35.507 91.36" style="fill:#000;fill-opacity:1;fill-rule:nonzero;stroke:none" transform="matrix(.13333 0 0 -.13333 0 260.917)"/><path d="M1036.59 1579.01c-36.46 36.47-91.16 36.47-91.16 36.47v16.31s55.85 0 91.36 35.51" style="fill:#000;fill-opacity:1;fill-rule:nonzero;stroke:none" transform="matrix(.13333 0 0 -.13333 0 260.917)"/><path d="M963.469 1578.82c36.469 36.47 91.171 36.47 91.171 36.47v16.31s-55.855 0-91.363 35.51M935.066 1127.04c0-34.74 28.981-62.95 64.872-62.95 35.892 0 64.872 28.21 64.872 62.95s-28.98 62.96-64.872 62.96-64.872-28.22-64.872-62.96M851.383 1007.86c0-34.743 28.98-62.958 64.871-62.958s64.875 28.215 64.875 62.958c0 34.73-28.984 62.95-64.875 62.95s-64.871-28.22-64.871-62.95M1017.59 1007.47c0-12.665 3.84-24.568 10.56-34.548 11.51-17.078 31.67-28.402 54.31-28.402 35.9 0 64.88 28.21 64.88 62.95s-28.98 62.95-64.88 62.95c-35.89 0-64.87-28.21-64.87-62.95M923.742 885.211c32.051 0 48.942 26.105 57.77 52.207s9.597 52.203 9.597 52.203h16.501s3.07-104.219 67.18-104.41z" style="fill:#000;fill-opacity:1;fill-rule:nonzero;stroke:none" transform="matrix(.13333 0 0 -.13333 0 260.917)"/><path d="M1043.89 1080.79c-36.47-36.47-36.47-91.169-36.47-91.169l-16.311-.191s0 55.85-35.507 91.36" style="fill:#000;fill-opacity:1;fill-rule:nonzero;stroke:none" transform="matrix(.13333 0 0 -.13333 0 260.917)"/><path d="M1036.59 963.711c-36.46 36.469-91.16 36.469-91.16 36.469v16.31s55.85 0 91.36 35.51" style="fill:#000;fill-opacity:1;fill-rule:nonzero;stroke:none" transform="matrix(.13333 0 0 -.13333 0 260.917)"/><path d="M963.469 963.52c36.469 36.464 91.171 36.464 91.171 36.464v16.316s-55.855 0-91.363 35.5M1063.66 256.176c0 34.738-28.98 62.949-64.875 62.949-35.89 0-64.871-28.211-64.871-62.949 0-34.742 28.981-62.953 64.871-62.953 35.895 0 64.875 28.211 64.875 62.953M1147.34 375.363c0 34.739-28.98 62.95-64.88 62.95-35.89 0-64.87-28.211-64.87-62.95 0-34.742 28.98-62.953 64.87-62.953 35.9 0 64.88 28.211 64.88 62.953M981.125 375.746c0 12.668-3.836 24.567-10.555 34.547-11.515 17.082-31.668 28.406-54.316 28.406-35.891 0-64.871-28.215-64.871-62.953s28.98-62.953 64.871-62.953 64.871 28.215 64.871 62.953M1074.98 498.004c-32.05 0-48.94-26.102-57.77-52.203-8.83-26.106-9.6-52.207-9.6-52.207h-16.505s-3.07 104.219-67.171 104.41z" style="fill:#000;fill-opacity:1;fill-rule:nonzero;stroke:none" transform="matrix(.13333 0 0 -.13333 0 260.917)"/><path d="M954.832 302.43c36.469 36.465 36.469 91.164 36.469 91.164l16.309.191s0-55.851 35.51-91.355" style="fill:#000;fill-opacity:1;fill-rule:nonzero;stroke:none" transform="matrix(.13333 0 0 -.13333 0 260.917)"/><path d="M962.125 419.504c36.469-36.465 91.165-36.465 91.165-36.465v-16.312s-55.849 0-91.356-35.508" style="fill:#000;fill-opacity:1;fill-rule:nonzero;stroke:none" transform="matrix(.13333 0 0 -.13333 0 260.917)"/><path d="M1035.25 419.695c-36.465-36.465-91.164-36.465-91.164-36.465v-16.312s55.852 0 91.354-35.508M615.75 1309.25c0-34.73 28.98-62.95 64.871-62.95s64.875 28.22 64.875 62.95c0 34.75-28.984 62.96-64.875 62.96s-64.871-28.21-64.871-62.96M532.07 1190.07c0-34.74 28.981-62.96 64.871-62.96 35.891 0 64.872 28.22 64.872 62.96 0 34.73-28.981 62.95-64.872 62.95s-64.871-28.22-64.871-62.95M698.281 1189.68c0-12.66 3.836-24.56 10.555-34.54 11.516-17.09 31.668-28.41 54.316-28.41 35.891 0 64.871 28.22 64.871 62.95 0 34.74-28.98 62.96-64.871 62.96s-64.871-28.22-64.871-62.96M604.426 1067.43c32.054 0 48.941 26.1 57.773 52.2 8.828 26.1 9.594 52.21 9.594 52.21h16.508s3.07-104.22 67.176-104.41z" style="fill:#000;fill-opacity:1;fill-rule:nonzero;stroke:none" transform="matrix(.13333 0 0 -.13333 0 260.917)"/><path d="M724.574 1263c-36.465-36.46-36.465-91.16-36.465-91.16l-16.316-.2s0 55.85-35.504 91.36" style="fill:#000;fill-opacity:1;fill-rule:nonzero;stroke:none" transform="matrix(.13333 0 0 -.13333 0 260.917)"/><path d="M717.281 1145.93c-36.465 36.46-91.168 36.46-91.168 36.46v16.31s55.852 0 91.36 35.51" style="fill:#000;fill-opacity:1;fill-rule:nonzero;stroke:none" transform="matrix(.13333 0 0 -.13333 0 260.917)"/><path d="M644.156 1145.73c36.465 36.47 91.168 36.47 91.168 36.47v16.31s-55.851 0-91.359 35.51" style="fill:#000;fill-opacity:1;fill-rule:nonzero;stroke:none" transform="matrix(.13333 0 0 -.13333 0 260.917)"/></svg>