<svg xmlns="http://www.w3.org/2000/svg" width="180.28" height="260.853" viewBox="0 0 180.28 260.853"><path d="M9.996 65.418c0-30.23 24.711-54.941 54.942-54.941H1287.24c30.15 0 54.86 24.71 54.86 54.941V1891.94c0 30.23-24.71 54.94-54.86 54.94H64.938c-30.231 0-54.942-24.71-54.942-54.94z" style="fill:#fff;fill-opacity:1;fill-rule:nonzero;stroke:none" transform="matrix(.13333 0 0 -.13333 0 260.917)"/><path d="M9.996 65.418c0-30.23 24.711-54.941 54.942-54.941H1287.24c30.15 0 54.86 24.71 54.86 54.941V1891.94c0 30.23-24.71 54.94-54.86 54.94H64.938c-30.231 0-54.942-24.71-54.942-54.94z" style="fill:none;stroke:#000;stroke-width:19.9926;stroke-linecap:butt;stroke-linejoin:miter;stroke-miterlimit:10;stroke-dasharray:none;stroke-opacity:1" transform="matrix(.13333 0 0 -.13333 0 260.917)"/><path d="M132.223 1798.91c11.25-3.43 19.781-11.19 25.593-23.26 5.875-12.07 8.817-27.87 8.817-47.4 0-24.39-4.93-43.09-14.789-56.11q-14.69-19.53-42.465-19.53t-42.559 19.53c-9.86 13.02-14.789 31.72-14.789 56.11 0 19.53 2.942 35.33 8.817 47.4s14.406 19.83 25.593 23.26q-14.882 6.39-22.277 21.3c-4.93 10.07-7.39 22.79-7.39 38.18 0 22.49 4.484 39.65 13.457 51.49 8.972 11.83 22.023 17.75 39.148 17.75 17.062 0 30.078-5.92 39.055-17.75 9.035-11.84 13.554-29 13.554-51.49 0-15.39-2.496-28.11-7.488-38.18q-7.394-14.91-22.277-21.3m-6.918 58.77q-.002 28.05-3.602 38.52c-2.402 7.1-6.512 10.66-12.324 10.66-5.875 0-10.016-3.56-12.418-10.66q-3.506-10.47-3.508-38.52c0-18.59 1.172-31.37 3.508-38.35 2.402-6.87 6.543-10.3 12.418-10.3 5.879 0 9.984 3.43 12.324 10.3 2.399 6.98 3.602 19.76 3.602 38.35M129 1731.27c0 21.66-1.484 36.57-4.453 44.74-2.91 8.16-7.965 12.25-15.168 12.25-7.266 0-12.356-4.09-15.262-12.25-2.906-8.17-4.36-23.08-4.36-44.74 0-21.9 1.454-37.06 4.36-45.46 2.973-8.28 8.059-12.43 15.262-12.43 7.141 0 12.195 4.15 15.168 12.43 2.969 8.4 4.453 23.56 4.453 45.46M1227.91 166.418c-11.25 3.434-19.78 11.184-25.59 23.258q-8.82 18.11-8.82 47.406 0 36.573 14.79 56.102c9.8 13.023 23.95 19.531 42.46 19.531q27.78.002 42.57-19.531c9.85-13.02 14.78-31.719 14.78-56.102 0-19.531-2.94-35.332-8.81-47.406-5.88-12.074-14.41-19.824-25.59-23.258 9.92-4.262 17.34-11.363 22.27-21.305 4.93-10.062 7.39-22.785 7.39-38.172 0-22.492-4.48-39.652-13.46-51.488q-13.455-17.753-39.15-17.758c-17.05.004-30.07 5.922-39.05 17.758-9.03 11.836-13.55 28.996-13.55 51.488 0 15.387 2.49 28.11 7.49 38.172 4.93 9.942 12.35 17.043 22.27 21.305m6.92-58.77q0-28.049 3.6-38.527c2.41-7.101 6.51-10.652 12.32-10.652q8.82 0 12.42 10.652 3.51 10.478 3.51 38.527 0 27.877-3.51 38.352-3.6 10.299-12.42 10.297c-5.87 0-9.98-3.43-12.32-10.297q-3.6-10.475-3.6-38.352m-3.7 126.415c0-21.661 1.49-36.575 4.46-44.743 2.91-8.168 7.96-12.25 15.16-12.25q10.905-.001 15.27 12.25c2.9 8.168 4.36 23.082 4.36 44.743 0 21.898-1.46 37.046-4.36 45.453q-4.455 12.426-15.27 12.425c-7.14 0-12.19-4.14-15.16-12.425-2.97-8.407-4.46-23.555-4.46-45.453M119.156 1545.8h61.418c-6.996.31-12.949 4.84-18.57 8.58-12.629 9.53-24.453 20.45-33.797 33.23-4.355 6.43-8.937 13.66-9.051 21.69m61.418-63.5c-8.879-.28-16.457-5.92-23.222-11.14-11.957-10.03-22.305-21.97-31.039-34.9-3.208-5.35-6.981-11.02-7.157-17.46v63.5m0-63.5c-.304 9.46-6.062 17.65-11.5 24.96-9.691 12.07-21.175 22.76-33.812 31.69-4.91 3.06-10.121 6.7-16.106 6.85h61.418m-61.418 0c8.88.28 16.457 5.93 23.223 11.13 11.957 10.05 22.305 21.99 31.039 34.91 3.207 5.35 6.977 11.02 7.156 17.46v-63.5M1240.98 419.523h-61.42c6.99-.308 12.95-4.835 18.57-8.578 12.63-9.527 24.46-20.449 33.8-33.23 4.36-6.43 8.93-13.656 9.05-21.688m-61.42 63.496c8.88.282 16.46 5.93 23.23 11.141 11.95 10.035 22.3 21.977 31.03 34.899 3.21 5.351 6.98 11.019 7.16 17.457v-63.497m0 63.497c.3-9.45 6.06-17.641 11.5-24.95 9.69-12.074 21.18-22.757 33.81-31.691 4.91-3.063 10.12-6.707 16.1-6.856h-61.41m61.41 0c-8.87-.277-16.45-5.925-23.22-11.128-11.96-10.047-22.3-21.985-31.03-34.911-3.21-5.347-6.98-11.019-7.16-17.457v63.496M360.777 1652.9H508.18c-16.789.75-31.075 11.62-44.567 20.59-30.304 22.87-58.691 49.08-81.109 79.75-10.461 15.43-21.449 32.78-21.727 52.05M508.18 1652.9c-21.305-.67-39.5-14.22-55.739-26.73-28.691-24.09-53.527-52.74-74.484-83.76-7.699-12.84-16.758-26.45-17.18-41.9v152.39m0-152.39c-.73 22.69-14.547 42.34-27.597 59.88-23.262 28.99-50.825 54.63-81.149 76.06-11.785 7.35-24.297 16.1-38.656 16.45h147.402m-147.402 0c21.305.67 39.5 14.23 55.738 26.72 28.692 24.11 53.528 52.76 74.489 83.77 7.695 12.84 16.746 26.45 17.175 41.9V1652.9M360.777 1219.81H508.18c-16.789.75-31.075 11.62-44.567 20.59-30.304 22.87-58.691 49.08-81.109 79.75-10.461 15.44-21.449 32.78-21.727 52.05m147.403-152.39c-21.305-.67-39.5-14.22-55.739-26.73-28.691-24.09-53.527-52.74-74.484-83.76-7.699-12.84-16.758-26.45-17.18-41.9v152.39m0-152.39c-.73 22.69-14.547 42.34-27.597 59.88-23.262 28.99-50.825 54.63-81.149 76.07-11.785 7.34-24.297 16.09-38.656 16.44h147.402m-147.402 0c21.305.67 39.5 14.23 55.738 26.72 28.692 24.11 53.528 52.76 74.489 83.78 7.695 12.84 16.746 26.44 17.175 41.89v-152.39M360.777 778.699H213.379c16.785-.75 31.07-11.613 44.566-20.59 30.305-22.863 58.692-49.082 81.106-79.75 10.461-15.433 21.453-32.785 21.726-52.054M213.379 778.699c21.305.672 39.496 14.227 55.734 26.735 28.696 24.086 53.528 52.742 74.489 83.757 7.695 12.84 16.753 26.45 17.175 41.899V778.699m0 152.391c.731-22.688 14.551-42.34 27.602-59.883 23.262-28.98 50.82-54.621 81.148-76.062 11.782-7.348 24.297-16.09 38.653-16.446H360.777m147.403 0c-21.305-.672-39.5-14.222-55.735-26.719-28.695-24.105-53.531-52.761-74.488-83.777-7.695-12.84-16.746-26.445-17.18-41.898v152.394M360.777 345.609H213.379c16.785-.75 31.07-11.613 44.566-20.589 30.305-22.864 58.692-49.082 81.106-79.75 10.461-15.434 21.453-32.782 21.726-52.051m-147.398 152.39c21.305.672 39.496 14.227 55.734 26.735 28.696 24.09 53.528 52.742 74.489 83.758 7.695 12.839 16.753 26.449 17.175 41.898V345.609m0 152.391c.731-22.687 14.551-42.34 27.602-59.883 23.262-28.98 50.82-54.621 81.148-76.058 11.782-7.352 24.297-16.094 38.653-16.45H360.777m147.403 0c-21.305-.671-39.5-14.222-55.735-26.714-28.695-24.11-53.531-52.762-74.488-83.778-7.695-12.84-16.746-26.449-17.18-41.898v152.39M999.398 1652.9H1146.8c-16.79.75-31.07 11.62-44.57 20.59-30.3 22.87-58.69 49.08-81.1 79.75-10.47 15.43-21.454 32.78-21.732 52.05M1146.8 1652.9c-21.3-.67-39.5-14.22-55.74-26.73-28.69-24.09-53.52-52.74-74.49-83.76-7.69-12.84-16.75-26.45-17.172-41.9v152.39m0-152.39c-.73 22.69-14.546 42.34-27.597 59.88-23.262 28.99-50.824 54.63-81.149 76.06-11.785 7.35-24.3 16.1-38.656 16.45h147.402m-147.402 0c21.305.67 39.5 14.23 55.738 26.72 28.692 24.11 53.528 52.76 74.489 83.77 7.695 12.84 16.742 26.45 17.175 41.9V1652.9M999.398 1219.81H1146.8c-16.79.75-31.07 11.62-44.57 20.59-30.3 22.87-58.69 49.08-81.1 79.75-10.47 15.44-21.454 32.78-21.732 52.05m147.402-152.39c-21.3-.67-39.5-14.22-55.74-26.73-28.69-24.09-53.52-52.74-74.49-83.76-7.69-12.84-16.75-26.45-17.172-41.9v152.39m0-152.39c-.73 22.69-14.546 42.34-27.597 59.88-23.262 28.99-50.824 54.63-81.149 76.07-11.785 7.34-24.3 16.09-38.656 16.44h147.402m-147.402 0c21.305.67 39.5 14.23 55.738 26.72 28.692 24.11 53.528 52.76 74.489 83.78 7.695 12.84 16.742 26.44 17.175 41.89v-152.39M999.402 778.699H852c16.789-.75 31.074-11.613 44.566-20.59 30.305-22.863 58.692-49.082 81.11-79.75 10.461-15.433 21.449-32.785 21.726-52.054M852 778.699c21.305.672 39.5 14.227 55.738 26.735 28.692 24.086 53.528 52.742 74.489 83.757 7.695 12.84 16.753 26.45 17.175 41.899V778.699m0 152.391c.728-22.688 14.548-42.34 27.598-59.883 23.26-28.98 50.82-54.621 81.15-76.062 11.78-7.348 24.3-16.09 38.65-16.446H999.402m147.398 0c-21.3-.672-39.5-14.222-55.73-26.719-28.69-24.105-53.53-52.761-74.49-83.777-7.7-12.84-16.744-26.445-17.178-41.898v152.394M999.402 345.609H852c16.789-.75 31.074-11.613 44.566-20.589 30.305-22.864 58.692-49.082 81.11-79.75 10.461-15.434 21.449-32.782 21.726-52.051M852 345.609c21.305.672 39.5 14.227 55.738 26.735 28.692 24.09 53.528 52.742 74.489 83.758 7.695 12.839 16.753 26.449 17.175 41.898V345.609m0 152.391c.728-22.687 14.548-42.34 27.598-59.883 23.26-28.98 50.82-54.621 81.15-76.058 11.78-7.352 24.3-16.094 38.65-16.45H999.402m147.398 0c-21.3-.671-39.5-14.222-55.73-26.714-28.69-24.11-53.53-52.762-74.49-83.778-7.7-12.84-16.744-26.449-17.178-41.898v152.39" style="fill:#e6180a;fill-opacity:1;fill-rule:nonzero;stroke:none" transform="matrix(.13333 0 0 -.13333 0 260.917)"/></svg>