<svg xmlns="http://www.w3.org/2000/svg" width="180.28" height="260.853" viewBox="0 0 180.28 260.853"><path d="M9.996 65.418c0-30.23 24.711-54.941 54.942-54.941H1287.24c30.15 0 54.86 24.71 54.86 54.941V1891.94c0 30.22-24.71 54.94-54.86 54.94H64.938c-30.231 0-54.942-24.72-54.942-54.94z" style="fill:#fff;fill-opacity:1;fill-rule:nonzero;stroke:none" transform="matrix(.13333 0 0 -.13333 0 260.917)"/><path d="M9.996 65.418c0-30.23 24.711-54.941 54.942-54.941H1287.24c30.15 0 54.86 24.71 54.86 54.941V1891.94c0 30.22-24.71 54.94-54.86 54.94H64.938c-30.231 0-54.942-24.72-54.942-54.94z" style="fill:none;stroke:#000;stroke-width:19.9926;stroke-linecap:butt;stroke-linejoin:miter;stroke-miterlimit:10;stroke-dasharray:none;stroke-opacity:1" transform="matrix(.13333 0 0 -.13333 0 260.917)"/><path d="M132.223 1798.91c11.25-3.43 19.781-11.19 25.593-23.26 5.875-12.07 8.817-27.87 8.817-47.4 0-24.39-4.93-43.09-14.789-56.11q-14.69-19.53-42.465-19.53t-42.559 19.53c-9.86 13.02-14.789 31.72-14.789 56.11 0 19.53 2.942 35.33 8.817 47.4s14.406 19.83 25.593 23.26q-14.882 6.39-22.277 21.3c-4.93 10.07-7.39 22.79-7.39 38.18 0 22.49 4.484 39.65 13.457 51.49 8.972 11.83 22.023 17.75 39.148 17.75 17.062 0 30.078-5.92 39.055-17.75 9.035-11.84 13.554-29 13.554-51.49 0-15.39-2.496-28.11-7.488-38.18q-7.394-14.91-22.277-21.3m-6.918 58.77q-.002 28.05-3.602 38.52c-2.402 7.1-6.512 10.66-12.324 10.66-5.875 0-10.016-3.56-12.418-10.66q-3.506-10.47-3.508-38.52c0-18.59 1.172-31.37 3.508-38.35 2.402-6.87 6.543-10.3 12.418-10.3 5.879 0 9.984 3.43 12.324 10.3 2.399 6.98 3.602 19.76 3.602 38.35M129 1731.27q0 32.49-4.453 44.73c-2.91 8.17-7.965 12.26-15.168 12.26-7.266 0-12.356-4.09-15.262-12.26q-4.36-12.24-4.36-44.73c0-21.9 1.454-37.06 4.36-45.46 2.973-8.28 8.059-12.43 15.262-12.43 7.141 0 12.195 4.15 15.168 12.43 2.969 8.4 4.453 23.56 4.453 45.46M1227.91 166.418c-11.25 3.434-19.78 11.184-25.59 23.258q-8.82 18.11-8.82 47.406 0 36.573 14.79 56.102c9.8 13.023 23.95 19.531 42.46 19.531q27.78.002 42.57-19.531c9.85-13.02 14.78-31.719 14.78-56.102 0-19.531-2.94-35.332-8.81-47.406-5.88-12.074-14.41-19.824-25.59-23.258 9.92-4.262 17.34-11.363 22.27-21.305 4.93-10.062 7.39-22.785 7.39-38.172 0-22.492-4.48-39.652-13.46-51.488q-13.455-17.759-39.15-17.758c-17.05 0-30.07 5.918-39.05 17.758-9.03 11.836-13.55 28.996-13.55 51.488 0 15.387 2.49 28.11 7.49 38.172 4.93 9.942 12.35 17.043 22.27 21.305m6.92-58.77q0-28.049 3.6-38.527c2.41-7.101 6.51-10.652 12.32-10.652q8.82 0 12.42 10.652 3.51 10.478 3.51 38.527 0 27.877-3.51 38.352-3.6 10.296-12.42 10.297c-5.87 0-9.98-3.434-12.32-10.297q-3.6-10.475-3.6-38.352m-3.7 126.415c0-21.661 1.49-36.575 4.46-44.743 2.91-8.168 7.96-12.25 15.16-12.25q10.905-.001 15.27 12.25c2.9 8.168 4.36 23.082 4.36 44.743 0 21.898-1.46 37.046-4.36 45.453q-4.455 12.426-15.27 12.425c-7.14 0-12.19-4.14-15.16-12.425-2.97-8.407-4.46-23.555-4.46-45.453M87.809 1482.39c13.355 0 20.39 14.23 24.07 28.47 3.68 14.23 4 28.46 4 28.46l6.797.09s1.277-57.02 27.988-57.02z" style="fill:#000;fill-opacity:1;fill-rule:nonzero;stroke:none" transform="matrix(.13333 0 0 -.13333 0 260.917)"/><path d="M65.176 1539.41c.082 27.74 41.746 47.89 53.98 69.81 12.235-21.99 53.899-42.15 53.981-69.81 0-13.12-12.074-23.76-27.032-23.76-14.875 0-26.949 10.64-26.949 23.76 0-13.12-12.074-23.76-27.031-23.76-14.953 0-26.95 10.64-26.95 23.76M1272.33 482.941c-13.36 0-20.4-14.234-24.08-28.468-3.67-14.235-3.99-28.469-3.99-28.469l-6.8-.082s-1.28 57.019-27.99 57.019z" style="fill:#000;fill-opacity:1;fill-rule:nonzero;stroke:none" transform="matrix(.13333 0 0 -.13333 0 260.917)"/><path d="M1294.96 425.922c-.08-27.75-41.75-47.902-53.98-69.813-12.24 21.993-53.9 42.145-53.98 69.813 0 13.117 12.07 23.75 27.03 23.75 14.87 0 26.95-10.633 26.95-23.75 0 13.117 12.07 23.75 27.03 23.75 14.95 0 26.95-10.633 26.95-23.75M285.543 1500.71c32.051 0 48.941 34.17 57.77 68.33 8.828 34.16 9.597 68.32 9.597 68.32l16.313.2s3.07-136.85 67.175-136.85z" style="fill:#000;fill-opacity:1;fill-rule:nonzero;stroke:none" transform="matrix(.13333 0 0 -.13333 0 260.917)"/><path d="M231.227 1637.56c.191 66.6 100.187 114.96 129.55 167.55 29.368-52.78 129.36-101.15 129.551-167.55 0-31.48-28.98-57.01-64.871-57.01-35.699 0-64.68 25.53-64.68 57.01 0-31.48-28.98-57.01-64.871-57.01s-64.679 25.53-64.679 57.01M285.543 1067.63c32.051 0 48.941 34.16 57.77 68.32 8.828 34.16 9.597 68.33 9.597 68.33l16.313.19s3.07-136.84 67.175-136.84z" style="fill:#000;fill-opacity:1;fill-rule:nonzero;stroke:none" transform="matrix(.13333 0 0 -.13333 0 260.917)"/><path d="M231.227 1204.47c.191 66.6 100.187 114.96 129.55 167.55 29.368-52.78 129.36-101.14 129.551-167.55 0-31.48-28.98-57-64.871-57-35.699 0-64.68 25.52-64.68 57 0-31.48-28.98-57-64.871-57s-64.679 25.52-64.679 57M436.016 930.895c-32.055 0-48.942-34.165-57.77-68.329-8.832-34.164-9.598-68.328-9.598-68.328l-16.316-.191s-3.07 136.848-67.172 136.848z" style="fill:#000;fill-opacity:1;fill-rule:nonzero;stroke:none" transform="matrix(.13333 0 0 -.13333 0 260.917)"/><path d="M490.332 794.047c-.191-66.598-100.187-114.965-129.555-167.555-29.363 52.781-129.359 101.149-129.55 167.555 0 31.476 28.98 57.004 64.871 57.004 35.699 0 64.679-25.528 64.679-57.004 0 31.476 28.985 57.004 64.875 57.004s64.68-25.528 64.68-57.004M436.016 497.805c-32.055 0-48.942-34.164-57.77-68.325-8.832-34.164-9.598-68.328-9.598-68.328l-16.316-.191s-3.07 136.844-67.172 136.844z" style="fill:#000;fill-opacity:1;fill-rule:nonzero;stroke:none" transform="matrix(.13333 0 0 -.13333 0 260.917)"/><path d="M490.332 360.961c-.191-66.602-100.187-114.965-129.555-167.555-29.363 52.782-129.359 101.149-129.55 167.555 0 31.477 28.98 57.004 64.871 57.004 35.699 0 64.679-25.527 64.679-57.004 0 31.477 28.985 57.004 64.875 57.004s64.68-25.527 64.68-57.004M924.164 1500.71c32.051 0 48.941 34.17 57.77 68.33 8.828 34.16 9.593 68.32 9.593 68.32l16.313.2s3.07-136.85 67.18-136.85z" style="fill:#000;fill-opacity:1;fill-rule:nonzero;stroke:none" transform="matrix(.13333 0 0 -.13333 0 260.917)"/><path d="M869.848 1637.56c.191 66.6 100.187 114.96 129.55 167.55 29.362-52.78 129.362-101.15 129.552-167.55 0-31.48-28.98-57.01-64.87-57.01-35.7 0-64.682 25.53-64.682 57.01 0-31.48-28.98-57.01-64.871-57.01s-64.679 25.53-64.679 57.01M924.164 1067.63c32.051 0 48.941 34.16 57.77 68.32 8.828 34.16 9.593 68.33 9.593 68.33l16.313.19s3.07-136.84 67.18-136.84z" style="fill:#000;fill-opacity:1;fill-rule:nonzero;stroke:none" transform="matrix(.13333 0 0 -.13333 0 260.917)"/><path d="M869.848 1204.47c.191 66.6 100.187 114.96 129.55 167.55 29.362-52.78 129.362-101.14 129.552-167.55 0-31.48-28.98-57-64.87-57-35.7 0-64.682 25.52-64.682 57 0-31.48-28.98-57-64.871-57s-64.679 25.52-64.679 57M1074.64 930.895c-32.05 0-48.94-34.165-57.77-68.329s-9.6-68.328-9.6-68.328l-16.313-.191s-3.07 136.848-67.176 136.848z" style="fill:#000;fill-opacity:1;fill-rule:nonzero;stroke:none" transform="matrix(.13333 0 0 -.13333 0 260.917)"/><path d="M1128.95 794.047c-.19-66.598-100.18-114.965-129.548-167.555-29.363 52.781-129.359 101.149-129.55 167.555 0 31.476 28.98 57.004 64.871 57.004 35.699 0 64.679-25.528 64.679-57.004 0 31.476 28.978 57.004 64.868 57.004s64.68-25.528 64.68-57.004M1074.64 497.805c-32.05 0-48.94-34.164-57.77-68.325-8.83-34.164-9.6-68.328-9.6-68.328l-16.313-.191s-3.07 136.844-67.176 136.844z" style="fill:#000;fill-opacity:1;fill-rule:nonzero;stroke:none" transform="matrix(.13333 0 0 -.13333 0 260.917)"/><path d="M1128.95 360.961c-.19-66.602-100.18-114.965-129.548-167.555-29.363 52.782-129.359 101.149-129.55 167.555 0 31.477 28.98 57.004 64.871 57.004 35.699 0 64.679-25.527 64.679-57.004 0 31.477 28.978 57.004 64.868 57.004s64.68-25.527 64.68-57.004" style="fill:#000;fill-opacity:1;fill-rule:nonzero;stroke:none" transform="matrix(.13333 0 0 -.13333 0 260.917)"/></svg>