<svg xmlns="http://www.w3.org/2000/svg" width="180.28" height="260.853" viewBox="0 0 180.28 260.853"><path d="M9.996 65.418c0-30.23 24.711-54.941 54.942-54.941H1287.24c30.15 0 54.86 24.71 54.86 54.941V1891.94c0 30.22-24.71 54.94-54.86 54.94H64.938c-30.231 0-54.942-24.72-54.942-54.94z" style="fill:#fff;fill-opacity:1;fill-rule:nonzero;stroke:none" transform="matrix(.13333 0 0 -.13333 0 260.917)"/><path d="M9.996 65.418c0-30.23 24.711-54.941 54.942-54.941H1287.24c30.15 0 54.86 24.71 54.86 54.941V1891.94c0 30.22-24.71 54.94-54.86 54.94H64.938c-30.231 0-54.942-24.72-54.942-54.94z" style="fill:none;stroke:#000;stroke-width:19.9926;stroke-linecap:butt;stroke-linejoin:miter;stroke-miterlimit:10;stroke-dasharray:none;stroke-opacity:1" transform="matrix(.13333 0 0 -.13333 0 260.917)"/><path d="M132.223 1798.91c11.25-3.43 19.781-11.19 25.593-23.26 5.875-12.07 8.817-27.87 8.817-47.4 0-24.39-4.93-43.09-14.789-56.11q-14.69-19.53-42.465-19.53t-42.559 19.53c-9.86 13.02-14.789 31.72-14.789 56.11 0 19.53 2.942 35.33 8.817 47.4s14.406 19.83 25.593 23.26q-14.882 6.39-22.277 21.3c-4.93 10.06-7.39 22.79-7.39 38.18 0 22.49 4.484 39.65 13.457 51.49 8.972 11.83 22.023 17.75 39.148 17.75 17.062 0 30.078-5.92 39.055-17.75 9.035-11.84 13.554-29 13.554-51.49 0-15.39-2.496-28.12-7.488-38.18q-7.394-14.91-22.277-21.3m-6.918 58.77q-.002 28.05-3.602 38.52c-2.402 7.1-6.512 10.66-12.324 10.66-5.875 0-10.016-3.56-12.418-10.66q-3.506-10.47-3.508-38.52c0-18.59 1.172-31.37 3.508-38.35 2.402-6.87 6.543-10.3 12.418-10.3 5.879 0 9.984 3.43 12.324 10.3 2.399 6.98 3.602 19.76 3.602 38.35M129 1731.27q0 32.49-4.453 44.73c-2.91 8.17-7.965 12.26-15.168 12.26-7.266 0-12.356-4.09-15.262-12.26q-4.36-12.24-4.36-44.73c0-21.9 1.454-37.06 4.36-45.46 2.973-8.28 8.059-12.43 15.262-12.43 7.141 0 12.195 4.15 15.168 12.43 2.969 8.4 4.453 23.56 4.453 45.46M1227.91 166.418c-11.25 3.434-19.78 11.184-25.59 23.258q-8.82 18.11-8.82 47.406 0 36.573 14.79 56.102c9.8 13.019 23.95 19.531 42.46 19.531q27.78-.001 42.57-19.531c9.85-13.02 14.78-31.719 14.78-56.102 0-19.531-2.94-35.332-8.81-47.406-5.88-12.074-14.41-19.824-25.59-23.258 9.92-4.262 17.34-11.363 22.27-21.305 4.93-10.062 7.39-22.785 7.39-38.175 0-22.489-4.48-39.649-13.46-51.489q-13.455-17.754-39.15-17.754c-17.05 0-30.07 5.918-39.05 17.754-9.03 11.84-13.55 29-13.55 51.489 0 15.39 2.49 28.113 7.49 38.175 4.93 9.942 12.35 17.043 22.27 21.305m6.92-58.77q0-28.049 3.6-38.527c2.41-7.101 6.51-10.652 12.32-10.652q8.82 0 12.42 10.652 3.51 10.478 3.51 38.527 0 27.877-3.51 38.352-3.6 10.296-12.42 10.297c-5.87 0-9.98-3.434-12.32-10.297q-3.6-10.475-3.6-38.352m-3.7 126.415c0-21.661 1.49-36.575 4.46-44.743 2.91-8.168 7.96-12.25 15.16-12.25q10.905-.001 15.27 12.25c2.9 8.168 4.36 23.082 4.36 44.743 0 21.898-1.46 37.046-4.36 45.453q-4.455 12.426-15.27 12.425c-7.14 0-12.19-4.14-15.16-12.425-2.97-8.407-4.46-23.555-4.46-45.453M92.367 1583.07c0-14.48 12.074-26.23 27.028-26.23 14.957 0 27.031 11.75 27.031 26.23 0 14.47-12.074 26.23-27.031 26.23-14.954 0-27.028-11.76-27.028-26.23M57.5 1533.41c0-14.48 12.074-26.23 27.027-26.23 14.957 0 27.032 11.75 27.032 26.23 0 14.47-12.075 26.23-27.032 26.23-14.953 0-27.027-11.76-27.027-26.23M126.754 1533.25c0-5.28 1.598-10.24 4.398-14.4 4.797-7.12 13.196-11.83 22.633-11.83 14.953 0 27.028 11.75 27.028 26.23 0 14.47-12.075 26.23-27.028 26.23-14.957 0-27.031-11.76-27.031-26.23M87.648 1482.3c13.356 0 20.391 10.88 24.071 21.76 3.679 10.87 4 21.75 4 21.75h6.875s1.281-43.42 27.992-43.51z" style="fill:#000;fill-opacity:1;fill-rule:nonzero;stroke:none" transform="matrix(.13333 0 0 -.13333 0 260.917)"/><path d="M137.711 1563.79c-15.195-15.19-15.195-37.98-15.195-37.98l-6.797-.08s0 23.27-14.797 38.06" style="fill:#000;fill-opacity:1;fill-rule:nonzero;stroke:none" transform="matrix(.13333 0 0 -.13333 0 260.917)"/><path d="M134.672 1515.01c-15.195 15.2-37.988 15.2-37.988 15.2v6.79s23.273 0 38.066 14.8" style="fill:#000;fill-opacity:1;fill-rule:nonzero;stroke:none" transform="matrix(.13333 0 0 -.13333 0 260.917)"/><path d="M104.203 1514.93c15.192 15.2 37.985 15.2 37.985 15.2v6.8s-23.27 0-38.067 14.79M1267.77 382.258c0 14.476-12.08 26.23-27.03 26.23s-27.03-11.754-27.03-26.23c0-14.473 12.08-26.231 27.03-26.231s27.03 11.758 27.03 26.231M1302.64 431.918c0 14.477-12.08 26.23-27.03 26.23-14.96 0-27.04-11.753-27.04-26.23 0-14.473 12.08-26.227 27.04-26.227 14.95 0 27.03 11.754 27.03 26.227M1233.38 432.078c0 5.281-1.6 10.238-4.4 14.395-4.8 7.117-13.19 11.836-22.63 11.836-14.95 0-27.03-11.754-27.03-26.231 0-14.473 12.08-26.23 27.03-26.23s27.03 11.757 27.03 26.23M1272.49 483.02c-13.36 0-20.4-10.875-24.08-21.75-3.67-10.875-3.99-21.754-3.99-21.754h-6.88s-1.28 43.425-27.99 43.504z" style="fill:#000;fill-opacity:1;fill-rule:nonzero;stroke:none" transform="matrix(.13333 0 0 -.13333 0 260.917)"/><path d="M1222.43 401.531c15.19 15.196 15.19 37.985 15.19 37.985l6.8.082s0-23.274 14.79-38.067" style="fill:#000;fill-opacity:1;fill-rule:nonzero;stroke:none" transform="matrix(.13333 0 0 -.13333 0 260.917)"/><path d="M1225.46 450.313c15.2-15.196 37.99-15.196 37.99-15.196v-6.797s-23.27 0-38.07-14.793" style="fill:#000;fill-opacity:1;fill-rule:nonzero;stroke:none" transform="matrix(.13333 0 0 -.13333 0 260.917)"/><path d="M1255.93 450.395c-15.19-15.196-37.98-15.196-37.98-15.196v-6.797s23.27 0 38.06-14.797M296.48 1742.34c0-34.73 28.985-62.95 64.875-62.95s64.872 28.22 64.872 62.95c0 34.74-28.981 62.96-64.872 62.96s-64.875-28.22-64.875-62.96M212.801 1623.16c0-34.74 28.98-62.96 64.871-62.96s64.871 28.22 64.871 62.96c0 34.73-28.98 62.95-64.871 62.95s-64.871-28.22-64.871-62.95M379.012 1622.77c0-12.66 3.84-24.56 10.554-34.54 11.516-17.09 31.668-28.41 54.317-28.41 35.89 0 64.871 28.22 64.871 62.95 0 34.74-28.981 62.96-64.871 62.96-35.891 0-64.871-28.22-64.871-62.96M285.156 1500.52c32.055 0 48.946 26.1 57.774 52.2s9.593 52.2 9.593 52.2h16.508s3.071-104.21 67.176-104.4z" style="fill:#000;fill-opacity:1;fill-rule:nonzero;stroke:none" transform="matrix(.13333 0 0 -.13333 0 260.917)"/><path d="M405.305 1696.09c-36.465-36.46-36.465-91.17-36.465-91.17l-16.317-.19s0 55.85-35.503 91.36" style="fill:#000;fill-opacity:1;fill-rule:nonzero;stroke:none" transform="matrix(.13333 0 0 -.13333 0 260.917)"/><path d="M398.012 1579.01c-36.465 36.47-91.164 36.47-91.164 36.47v16.31s55.847 0 91.355 35.51" style="fill:#000;fill-opacity:1;fill-rule:nonzero;stroke:none" transform="matrix(.13333 0 0 -.13333 0 260.917)"/><path d="M324.887 1578.82c36.468 36.47 91.168 36.47 91.168 36.47v16.31s-55.852 0-91.36 35.51M296.48 1309.25c0-34.73 28.985-62.95 64.875-62.95s64.872 28.22 64.872 62.95c0 34.75-28.981 62.96-64.872 62.96s-64.875-28.21-64.875-62.96M212.801 1190.07c0-34.74 28.98-62.96 64.871-62.96s64.871 28.22 64.871 62.96c0 34.73-28.98 62.95-64.871 62.95s-64.871-28.22-64.871-62.95M379.012 1189.68c0-12.66 3.84-24.56 10.554-34.54 11.516-17.09 31.668-28.41 54.317-28.41 35.89 0 64.871 28.22 64.871 62.95 0 34.74-28.981 62.96-64.871 62.96-35.891 0-64.871-28.22-64.871-62.96M285.156 1067.43c32.055 0 48.946 26.1 57.774 52.2s9.593 52.21 9.593 52.21h16.508s3.071-104.22 67.176-104.41z" style="fill:#000;fill-opacity:1;fill-rule:nonzero;stroke:none" transform="matrix(.13333 0 0 -.13333 0 260.917)"/><path d="M405.305 1263c-36.465-36.46-36.465-91.16-36.465-91.16l-16.317-.2s0 55.85-35.503 91.36" style="fill:#000;fill-opacity:1;fill-rule:nonzero;stroke:none" transform="matrix(.13333 0 0 -.13333 0 260.917)"/><path d="M398.012 1145.93c-36.465 36.46-91.164 36.46-91.164 36.46v16.31s55.847 0 91.355 35.51" style="fill:#000;fill-opacity:1;fill-rule:nonzero;stroke:none" transform="matrix(.13333 0 0 -.13333 0 260.917)"/><path d="M324.887 1145.73c36.468 36.47 91.168 36.47 91.168 36.47v16.31s-55.852 0-91.36 35.51M425.074 689.262c0 34.738-28.98 62.953-64.871 62.953S295.332 724 295.332 689.262s28.981-62.953 64.871-62.953c35.891 0 64.871 28.214 64.871 62.953M508.754 808.449c0 34.742-28.981 62.953-64.871 62.953-35.891 0-64.871-28.211-64.871-62.953 0-34.738 28.98-62.953 64.871-62.953s64.871 28.215 64.871 62.953M342.547 808.836c0 12.664-3.84 24.566-10.559 34.547-11.515 17.082-31.668 28.402-54.316 28.402-35.891 0-64.871-28.211-64.871-62.949 0-34.742 28.98-62.953 64.871-62.953s64.875 28.211 64.875 62.953M436.398 931.094c-32.05 0-48.941-26.102-57.769-52.207-8.828-26.102-9.598-52.203-9.598-52.203h-16.504s-3.074 104.218-67.175 104.41z" style="fill:#000;fill-opacity:1;fill-rule:nonzero;stroke:none" transform="matrix(.13333 0 0 -.13333 0 260.917)"/><path d="M316.25 735.52c36.469 36.464 36.469 91.164 36.469 91.164l16.312.191s0-55.852 35.508-91.355" style="fill:#000;fill-opacity:1;fill-rule:nonzero;stroke:none" transform="matrix(.13333 0 0 -.13333 0 260.917)"/><path d="M323.543 852.594c36.469-36.465 91.168-36.465 91.168-36.465v-16.316s-55.852 0-91.359-35.504" style="fill:#000;fill-opacity:1;fill-rule:nonzero;stroke:none" transform="matrix(.13333 0 0 -.13333 0 260.917)"/><path d="M396.668 852.785c-36.465-36.465-91.164-36.465-91.164-36.465v-16.316s55.851 0 91.359-35.504M425.074 256.176c0 34.738-28.98 62.949-64.871 62.949s-64.871-28.211-64.871-62.949c0-34.742 28.981-62.953 64.871-62.953 35.891 0 64.871 28.211 64.871 62.953M508.754 375.363c0 34.739-28.981 62.95-64.871 62.95-35.891 0-64.871-28.211-64.871-62.95 0-34.742 28.98-62.953 64.871-62.953s64.871 28.211 64.871 62.953M342.547 375.746c0 12.668-3.84 24.567-10.559 34.547-11.515 17.082-31.668 28.406-54.316 28.406-35.891 0-64.871-28.215-64.871-62.953s28.98-62.953 64.871-62.953 64.875 28.215 64.875 62.953M436.398 498.004c-32.05 0-48.941-26.102-57.769-52.203-8.828-26.106-9.598-52.207-9.598-52.207h-16.504s-3.074 104.219-67.175 104.41z" style="fill:#000;fill-opacity:1;fill-rule:nonzero;stroke:none" transform="matrix(.13333 0 0 -.13333 0 260.917)"/><path d="M316.25 302.43c36.469 36.465 36.469 91.164 36.469 91.164l16.312.191s0-55.851 35.508-91.355" style="fill:#000;fill-opacity:1;fill-rule:nonzero;stroke:none" transform="matrix(.13333 0 0 -.13333 0 260.917)"/><path d="M323.543 419.504c36.469-36.465 91.168-36.465 91.168-36.465v-16.312s-55.852 0-91.359-35.508" style="fill:#000;fill-opacity:1;fill-rule:nonzero;stroke:none" transform="matrix(.13333 0 0 -.13333 0 260.917)"/><path d="M396.668 419.695c-36.465-36.465-91.164-36.465-91.164-36.465v-16.312s55.851 0 91.359-35.508M935.102 1742.34c0-34.73 28.98-62.95 64.871-62.95 35.887 0 64.877 28.22 64.877 62.95 0 34.74-28.99 62.96-64.877 62.96-35.891 0-64.871-28.22-64.871-62.96M851.422 1623.16c0-34.74 28.98-62.96 64.871-62.96s64.871 28.22 64.871 62.96c0 34.73-28.98 62.95-64.871 62.95s-64.871-28.22-64.871-62.95M1017.63 1622.77c0-12.66 3.84-24.56 10.56-34.54 11.51-17.09 31.67-28.41 54.31-28.41 35.89 0 64.88 28.22 64.88 62.95 0 34.74-28.99 62.96-64.88 62.96s-64.87-28.22-64.87-62.96M923.777 1500.52c32.055 0 48.942 26.1 57.774 52.2 8.828 26.1 9.594 52.2 9.594 52.2h16.505s3.07-104.21 67.18-104.4z" style="fill:#000;fill-opacity:1;fill-rule:nonzero;stroke:none" transform="matrix(.13333 0 0 -.13333 0 260.917)"/><path d="M1043.93 1696.09c-36.47-36.46-36.47-91.17-36.47-91.17l-16.315-.19s0 55.85-35.508 91.36" style="fill:#000;fill-opacity:1;fill-rule:nonzero;stroke:none" transform="matrix(.13333 0 0 -.13333 0 260.917)"/><path d="M1036.63 1579.01c-36.46 36.47-91.165 36.47-91.165 36.47v16.31s55.855 0 91.355 35.51" style="fill:#000;fill-opacity:1;fill-rule:nonzero;stroke:none" transform="matrix(.13333 0 0 -.13333 0 260.917)"/><path d="M963.508 1578.82c36.465 36.47 91.162 36.47 91.162 36.47v16.31s-55.846 0-91.354 35.51M935.102 1309.25c0-34.73 28.98-62.95 64.871-62.95 35.887 0 64.877 28.22 64.877 62.95 0 34.75-28.99 62.96-64.877 62.96-35.891 0-64.871-28.21-64.871-62.96M851.422 1190.07c0-34.74 28.98-62.96 64.871-62.96s64.871 28.22 64.871 62.96c0 34.73-28.98 62.95-64.871 62.95s-64.871-28.22-64.871-62.95M1017.63 1189.68c0-12.66 3.84-24.56 10.56-34.54 11.51-17.09 31.67-28.41 54.31-28.41 35.89 0 64.88 28.22 64.88 62.95 0 34.74-28.99 62.96-64.88 62.96s-64.87-28.22-64.87-62.96M923.777 1067.43c32.055 0 48.942 26.1 57.774 52.2 8.828 26.1 9.594 52.21 9.594 52.21h16.505s3.07-104.22 67.18-104.41z" style="fill:#000;fill-opacity:1;fill-rule:nonzero;stroke:none" transform="matrix(.13333 0 0 -.13333 0 260.917)"/><path d="M1043.93 1263c-36.47-36.46-36.47-91.16-36.47-91.16l-16.315-.2s0 55.85-35.508 91.36" style="fill:#000;fill-opacity:1;fill-rule:nonzero;stroke:none" transform="matrix(.13333 0 0 -.13333 0 260.917)"/><path d="M1036.63 1145.93c-36.46 36.46-91.165 36.46-91.165 36.46v16.31s55.855 0 91.355 35.51" style="fill:#000;fill-opacity:1;fill-rule:nonzero;stroke:none" transform="matrix(.13333 0 0 -.13333 0 260.917)"/><path d="M963.508 1145.73c36.465 36.47 91.162 36.47 91.162 36.47v16.31s-55.846 0-91.354 35.51M1063.7 689.262c0 34.738-28.98 62.953-64.872 62.953-35.89 0-64.875-28.215-64.875-62.953s28.985-62.953 64.875-62.953c35.892 0 64.872 28.214 64.872 62.953M1147.38 808.449c0 34.742-28.98 62.953-64.87 62.953s-64.87-28.211-64.87-62.953c0-34.738 28.98-62.953 64.87-62.953s64.87 28.215 64.87 62.953M981.168 808.836c0 12.664-3.836 24.566-10.555 34.547-11.515 17.082-31.668 28.402-54.316 28.402-35.891 0-64.871-28.211-64.871-62.949 0-34.742 28.98-62.953 64.871-62.953s64.871 28.211 64.871 62.953M1075.02 931.094c-32.05 0-48.94-26.102-57.77-52.207-8.83-26.102-9.59-52.203-9.59-52.203h-16.512s-3.07 104.218-67.175 104.41z" style="fill:#000;fill-opacity:1;fill-rule:nonzero;stroke:none" transform="matrix(.13333 0 0 -.13333 0 260.917)"/><path d="M954.875 735.52c36.465 36.464 36.465 91.164 36.465 91.164l16.32.191s0-55.852 35.5-91.355" style="fill:#000;fill-opacity:1;fill-rule:nonzero;stroke:none" transform="matrix(.13333 0 0 -.13333 0 260.917)"/><path d="M962.168 852.594c36.469-36.465 91.172-36.465 91.172-36.465v-16.316s-55.856 0-91.363-35.504" style="fill:#000;fill-opacity:1;fill-rule:nonzero;stroke:none" transform="matrix(.13333 0 0 -.13333 0 260.917)"/><path d="M1035.29 852.785c-36.462-36.465-91.161-36.465-91.161-36.465v-16.316s55.848 0 91.351-35.504M1063.7 256.176c0 34.738-28.98 62.949-64.872 62.949-35.89 0-64.875-28.211-64.875-62.949 0-34.742 28.985-62.953 64.875-62.953 35.892 0 64.872 28.211 64.872 62.953M1147.38 375.363c0 34.739-28.98 62.95-64.87 62.95s-64.87-28.211-64.87-62.95c0-34.742 28.98-62.953 64.87-62.953s64.87 28.211 64.87 62.953M981.168 375.746c0 12.668-3.836 24.567-10.555 34.547-11.515 17.082-31.668 28.406-54.316 28.406-35.891 0-64.871-28.215-64.871-62.953s28.98-62.953 64.871-62.953 64.871 28.215 64.871 62.953M1075.02 498.004c-32.05 0-48.94-26.102-57.77-52.203-8.83-26.106-9.59-52.207-9.59-52.207h-16.512s-3.07 104.219-67.175 104.41z" style="fill:#000;fill-opacity:1;fill-rule:nonzero;stroke:none" transform="matrix(.13333 0 0 -.13333 0 260.917)"/><path d="M954.875 302.43c36.465 36.465 36.465 91.164 36.465 91.164l16.32.191s0-55.851 35.5-91.355" style="fill:#000;fill-opacity:1;fill-rule:nonzero;stroke:none" transform="matrix(.13333 0 0 -.13333 0 260.917)"/><path d="M962.168 419.504c36.469-36.465 91.172-36.465 91.172-36.465v-16.312s-55.856 0-91.363-35.508" style="fill:#000;fill-opacity:1;fill-rule:nonzero;stroke:none" transform="matrix(.13333 0 0 -.13333 0 260.917)"/><path d="M1035.29 419.695c-36.462-36.465-91.161-36.465-91.161-36.465v-16.312s55.848 0 91.351-35.508" style="fill:#000;fill-opacity:1;fill-rule:nonzero;stroke:none" transform="matrix(.13333 0 0 -.13333 0 260.917)"/></svg>