<svg xmlns="http://www.w3.org/2000/svg" width="180.28" height="260.853" viewBox="0 0 180.28 260.853"><path d="M9.996 65.418c0-30.23 24.711-54.941 54.942-54.941H1287.24c30.15 0 54.86 24.71 54.86 54.941V1891.94c0 30.22-24.71 54.94-54.86 54.94H64.938c-30.231 0-54.942-24.72-54.942-54.94z" style="fill:#fff;fill-opacity:1;fill-rule:nonzero;stroke:none" transform="matrix(.13333 0 0 -.13333 0 260.917)"/><path d="M9.996 65.418c0-30.23 24.711-54.941 54.942-54.941H1287.24c30.15 0 54.86 24.71 54.86 54.941V1891.94c0 30.22-24.71 54.94-54.86 54.94H64.938c-30.231 0-54.942-24.72-54.942-54.94z" style="fill:none;stroke:#000;stroke-width:19.9926;stroke-linecap:butt;stroke-linejoin:miter;stroke-miterlimit:10;stroke-dasharray:none;stroke-opacity:1" transform="matrix(.13333 0 0 -.13333 0 260.917)"/><path d="M108.148 1906.86c-6.511 0-11.156-5.2-13.937-15.62q-4.073-15.45-4.074-53.79c0-25.57 1.36-43.56 4.074-53.98q4.171-15.45 13.937-15.45 9.762 0 13.934 15.45c2.777 10.42 4.168 28.41 4.168 53.98q-.001 38.34-4.168 53.79c-2.781 10.42-7.426 15.62-13.934 15.62m21.137-141.15c-4.172-6.27-8.816-11-13.933-14.2q-7.584-4.62-16.496-4.62c-14.407 0-25.75 7.88-34.028 23.62-8.215 15.86-12.32 37.7-12.32 65.51 0 29.36 4.61 51.96 13.836 67.83q13.84 23.79 39.527 23.79 29.004 0 43.981-32.85c9.984-21.9 14.976-53.97 14.976-96.23 0-48.17-5.527-84.57-16.586-109.19q-16.587-36.75-49.195-36.75c-5.688 0-11.785.89-18.293 2.66-6.512 1.78-13.492 4.44-20.95 7.99v46.87h11.47q2.371-18.105 8.91-27.51 6.638-9.24 17.156-9.24 16.683 0 24.265 21.66c5.055 14.56 7.618 38.11 7.68 70.66M1251.91 58.469c6.51 0 11.15 5.21 13.93 15.625q4.08 15.446 4.08 53.797t-4.08 53.972c-2.78 10.297-7.42 15.446-13.93 15.446s-11.16-5.149-13.94-15.446c-2.77-10.414-4.17-28.406-4.17-53.972s1.4-43.5 4.17-53.797c2.78-10.414 7.43-15.625 13.94-15.625m-21.14 141.148c4.17 6.274 8.82 11.008 13.93 14.203q7.59 4.618 16.5 4.618c14.41 0 25.75-7.872 34.03-23.614 8.21-15.859 12.32-37.699 12.32-65.515 0-29.352-4.61-51.961-13.84-67.82-9.23-15.86-22.4-23.794-39.53-23.794q-28.995 0-43.98 32.848-14.97 32.846-14.97 96.23c0 48.172 5.52 84.571 16.58 109.192q16.59 36.75 49.2 36.75c5.69 0 11.78-.887 18.29-2.664 6.51-1.774 13.49-4.438 20.95-7.988v-46.872h-11.47c-1.58 12.071-4.55 21.247-8.91 27.52q-6.63 9.229-17.16 9.23c-11.12 0-19.21-7.218-24.26-21.66q-7.59-21.837-7.68-70.664M180.492 1577.24c-.078-37.67-47.262-65.1-61.097-94.93-13.993 29.75-61.254 56.94-61.575 94.61-.082 17.75 13.676 32.22 30.547 32.22 16.953 0 30.789-14.31 30.789-32.06 0 17.83 13.676 32.22 30.551 32.22 16.953.09 30.707-14.31 30.785-32.06M1179.56 388.098c.08 37.664 47.26 65.093 61.1 94.922 13.99-29.747 61.26-56.938 61.57-94.602.09-17.754-13.67-32.23-30.54-32.23-16.96 0-30.79 14.316-30.79 32.07 0-17.836-13.68-32.231-30.55-32.231-16.95-.078-30.71 14.317-30.79 32.071M507.945 1728.34c-.191-90.4-113.429-156.23-146.632-227.82-33.586 71.39-147.016 136.65-147.786 227.05-.191 42.61 32.821 77.34 73.317 77.34 40.687 0 73.894-34.35 73.894-76.96 0 42.8 32.817 77.35 73.317 77.35 40.687.19 73.699-34.35 73.89-76.96M507.945 1295.25c-.191-90.4-113.429-156.23-146.632-227.82-33.586 71.4-147.016 136.65-147.786 227.05-.191 42.61 32.821 77.35 73.317 77.35 40.687 0 73.894-34.36 73.894-76.97 0 42.8 32.817 77.35 73.317 77.35 40.687.19 73.699-34.35 73.89-76.96M213.531 703.262c.192 90.398 113.43 156.23 146.633 227.82C393.75 859.684 507.18 794.43 507.949 704.031c.192-42.609-32.82-77.347-73.316-77.347-40.688 0-73.895 34.355-73.895 76.964 0-42.8-32.816-77.347-73.316-77.347-40.688-.192-73.699 34.355-73.891 76.961M213.531 270.176c.192 90.398 113.43 156.23 146.633 227.82 33.586-71.398 147.016-136.652 147.785-227.051.192-42.609-32.82-77.347-73.316-77.347-40.688 0-73.895 34.355-73.895 76.961 0-42.797-32.816-77.344-73.316-77.344-40.688-.195-73.699 34.351-73.891 76.961M1146.57 1728.34c-.19-90.4-113.43-156.23-146.629-227.82-33.586 71.39-147.015 136.65-147.785 227.05-.191 42.61 32.821 77.34 73.317 77.34 40.687 0 73.894-34.35 73.894-76.96 0 42.8 32.813 77.35 73.313 77.35 40.69.19 73.7-34.35 73.89-76.96M1146.57 1295.25c-.19-90.4-113.43-156.23-146.629-227.82-33.586 71.4-147.015 136.65-147.785 227.05-.191 42.61 32.821 77.35 73.317 77.35 40.687 0 73.894-34.36 73.894-76.97 0 42.8 32.813 77.35 73.313 77.35 40.69.19 73.7-34.35 73.89-76.96M852.156 703.262c.192 90.398 113.43 156.23 146.633 227.82 33.591-71.398 147.011-136.652 147.781-227.051.2-42.609-32.82-77.347-73.31-77.347-40.69 0-73.897 34.355-73.897 76.964 0-42.8-32.82-77.347-73.316-77.347-40.688-.192-73.699 34.355-73.891 76.961M852.156 270.176c.192 90.398 113.43 156.23 146.633 227.82 33.591-71.398 147.011-136.652 147.781-227.051.2-42.609-32.82-77.347-73.31-77.347-40.69 0-73.897 34.355-73.897 76.961 0-42.797-32.82-77.344-73.316-77.344-40.688-.195-73.699 34.351-73.891 76.961M827.258 1511.78c-.192-90.4-113.43-156.23-146.633-227.82-33.586 71.4-147.016 136.66-147.785 227.06-.192 42.6 32.82 77.34 73.316 77.34 40.692 0 73.895-34.35 73.895-76.96 0 42.8 32.82 77.35 73.316 77.35 40.688.19 73.699-34.36 73.891-76.97" style="fill:#e6180a;fill-opacity:1;fill-rule:nonzero;stroke:none" transform="matrix(.13333 0 0 -.13333 0 260.917)"/></svg>