<svg xmlns="http://www.w3.org/2000/svg" width="180.28" height="260.853" viewBox="0 0 180.28 260.853"><path d="M9.996 65.418c0-30.23 24.711-54.941 54.942-54.941H1287.24c30.15 0 54.86 24.71 54.86 54.941V1891.94c0 30.22-24.71 54.94-54.86 54.94H64.938c-30.231 0-54.942-24.72-54.942-54.94z" style="fill:#fff;fill-opacity:1;fill-rule:nonzero;stroke:none" transform="matrix(.13333 0 0 -.13333 0 260.917)"/><path d="M9.996 65.418c0-30.23 24.711-54.941 54.942-54.941H1287.24c30.15 0 54.86 24.71 54.86 54.941V1891.94c0 30.22-24.71 54.94-54.86 54.94H64.938c-30.231 0-54.942-24.72-54.942-54.94z" style="fill:none;stroke:#000;stroke-width:19.9926;stroke-linecap:butt;stroke-linejoin:miter;stroke-miterlimit:10;stroke-dasharray:none;stroke-opacity:1" transform="matrix(.13333 0 0 -.13333 0 260.917)"/><path d="M57.203 1657.77v21.48h15.168v214.48l-16.848-32.67v26.45l20.313 40.13h17.062v-248.39h15.219v-21.48zM157.73 1673.39c4.333 0 7.293 6.45 8.883 19.36 1.625 12.89 2.438 45.33 2.438 97.29 0 51.6-.813 83.98-2.438 97.12-1.59 13.14-4.55 19.7-8.883 19.7q-6.499 0-8.937-19.35-2.381-19.35-2.383-97.47c0-51.96.797-84.4 2.383-97.29 1.625-12.91 4.605-19.36 8.937-19.36m0-20.77c-10.796 0-19.066 11.77-24.804 35.33-5.742 23.68-8.613 57.7-8.613 102.09q0 66.585 8.613 102.09c5.738 23.67 14.008 35.51 24.804 35.51 10.762 0 19.012-11.84 24.754-35.51s8.61-57.7 8.61-102.09-2.867-78.41-8.61-102.09c-5.742-23.56-13.992-35.33-24.754-35.33M1302.93 307.566v-21.484h-15.16V71.609l16.84 32.668V77.82l-20.31-40.125h-17.07v248.387h-15.21v21.484zM1202.4 291.941q-6.495.001-8.88-19.351c-1.63-12.902-2.44-45.332-2.44-97.297 0-51.605.81-83.977 2.44-97.117q2.385-19.706 8.88-19.707c4.33 0 7.31 6.453 8.94 19.351 1.59 12.903 2.38 45.395 2.38 97.473 0 51.965-.79 84.395-2.38 97.297q-2.445 19.352-8.94 19.351m0 20.774q16.2 0 24.81-35.332 8.61-35.509 8.61-102.09 0-66.576-8.61-102.086c-5.74-23.672-14.01-35.512-24.81-35.512q-16.14.002-24.75 35.512t-8.61 102.086q0 66.581 8.61 102.09 8.61 35.332 24.75 35.332M180.57 1577.24c-.078-37.67-47.261-65.1-61.093-94.93-13.997 29.75-61.258 56.94-61.579 94.61-.082 17.75 13.676 32.22 30.547 32.22 16.953 0 30.789-14.31 30.789-32.06 0 17.83 13.676 32.22 30.551 32.22 16.953.09 30.707-14.31 30.785-32.06M1179.64 388.098c.08 37.664 47.26 65.093 61.1 94.922 13.99-29.747 61.26-56.938 61.58-94.602.07-17.754-13.68-32.23-30.55-32.23-16.96 0-30.79 14.316-30.79 32.07 0-17.836-13.68-32.231-30.55-32.231-16.95-.078-30.71 14.317-30.79 32.071M507.992 1728.34c-.191-90.4-113.429-156.23-146.633-227.82-33.589 71.39-147.019 136.65-147.785 227.05-.195 42.61 32.817 77.34 73.317 77.34 40.687 0 73.89-34.35 73.89-76.96 0 42.8 32.821 77.35 73.317 77.35 40.691.19 73.703-34.35 73.894-76.96M507.992 1295.25c-.191-90.4-113.429-156.23-146.633-227.82-33.589 71.4-147.019 136.65-147.785 227.05-.195 42.61 32.817 77.35 73.317 77.35 40.687 0 73.89-34.36 73.89-76.97 0 42.8 32.821 77.35 73.317 77.35 40.691.19 73.703-34.35 73.894-76.96M213.574 703.262c.192 90.398 113.43 156.23 146.633 227.82 33.586-71.398 147.016-136.652 147.785-227.051.192-42.609-32.82-77.347-73.316-77.347-40.692 0-73.895 34.355-73.895 76.964 0-42.8-32.82-77.347-73.316-77.347-40.688-.192-73.699 34.355-73.891 76.961M213.574 270.176c.192 90.398 113.43 156.23 146.633 227.82 33.586-71.398 147.016-136.652 147.785-227.051.192-42.609-32.82-77.347-73.316-77.347-40.692 0-73.895 34.355-73.895 76.961 0-42.797-32.82-77.344-73.316-77.344-40.688-.195-73.699 34.351-73.891 76.961M1146.61 1728.34c-.19-90.4-113.43-156.23-146.633-227.82-33.586 71.39-147.016 136.65-147.786 227.05-.191 42.61 32.821 77.34 73.317 77.34 40.691 0 73.894-34.35 73.894-76.96 0 42.8 32.818 77.35 73.318 77.35 40.69.19 73.7-34.35 73.89-76.96M1146.61 1295.25c-.19-90.4-113.43-156.23-146.633-227.82-33.586 71.4-147.016 136.65-147.786 227.05-.191 42.61 32.821 77.35 73.317 77.35 40.691 0 73.894-34.36 73.894-76.97 0 42.8 32.818 77.35 73.318 77.35 40.69.19 73.7-34.35 73.89-76.96M852.195 703.262c.192 90.398 113.43 156.23 146.633 227.82 33.592-71.398 147.022-136.652 147.782-227.051.19-42.609-32.82-77.347-73.31-77.347-40.69 0-73.894 34.355-73.894 76.964 0-42.8-32.82-77.347-73.316-77.347-40.692-.192-73.703 34.355-73.895 76.961M852.195 270.176c.192 90.398 113.43 156.23 146.633 227.82 33.592-71.398 147.022-136.652 147.782-227.051.19-42.609-32.82-77.347-73.31-77.347-40.69 0-73.894 34.355-73.894 76.961 0-42.797-32.82-77.344-73.316-77.344-40.692-.195-73.703 34.351-73.895 76.961M827.297 1511.78c-.192-90.4-113.43-156.23-146.633-227.82-33.586 71.4-147.016 136.66-147.785 227.06-.191 42.6 32.82 77.34 73.316 77.34 40.692 0 73.895-34.35 73.895-76.96 0 42.8 32.82 77.35 73.316 77.35 40.688.19 73.699-34.36 73.891-76.97M532.883 486.73c.191 90.399 113.43 156.231 146.633 227.821 33.589-71.399 147.019-136.656 147.785-227.055.191-42.605-32.821-77.348-73.317-77.348-40.687 0-73.89 34.356-73.89 76.965 0-42.8-32.821-77.347-73.317-77.347-40.691-.192-73.703 34.355-73.894 76.964" style="fill:#e6180a;fill-opacity:1;fill-rule:nonzero;stroke:none" transform="matrix(.13333 0 0 -.13333 0 260.917)"/></svg>