<svg xmlns="http://www.w3.org/2000/svg" width="180.28" height="260.853" viewBox="0 0 180.28 260.853"><path d="M9.996 65.418c0-30.23 24.711-54.941 54.942-54.941H1287.24c30.15 0 54.86 24.71 54.86 54.941V1891.94c0 30.23-24.71 54.94-54.86 54.94H64.938c-30.231 0-54.942-24.71-54.942-54.94z" style="fill:#fff;fill-opacity:1;fill-rule:nonzero;stroke:none" transform="matrix(.13333 0 0 -.13333 0 260.917)"/><path d="M9.996 65.418c0-30.23 24.711-54.941 54.942-54.941H1287.24c30.15 0 54.86 24.71 54.86 54.941V1891.94c0 30.23-24.71 54.94-54.86 54.94H64.938c-30.231 0-54.942-24.71-54.942-54.94z" style="fill:none;stroke:#000;stroke-width:19.9926;stroke-linecap:butt;stroke-linejoin:miter;stroke-miterlimit:10;stroke-dasharray:none;stroke-opacity:1" transform="matrix(.13333 0 0 -.13333 0 260.917)"/><path d="M57.203 1657.76v21.48h15.168v214.48l-16.848-32.67v26.45l20.313 40.13h17.062v-248.39h15.219v-21.48zM157.73 1673.38c4.333 0 7.293 6.46 8.883 19.36q2.438 19.35 2.438 97.29c0 51.61-.813 83.98-2.438 97.12q-2.384 19.71-8.883 19.71c-4.332 0-7.312-6.45-8.937-19.36q-2.381-19.35-2.383-97.47.002-77.94 2.383-97.29c1.625-12.9 4.605-19.36 8.937-19.36m0-20.77c-10.796 0-19.066 11.78-24.804 35.33-5.742 23.68-8.613 57.7-8.613 102.09q0 66.585 8.613 102.09c5.738 23.67 14.008 35.51 24.804 35.51 10.762 0 19.012-11.84 24.754-35.51s8.61-57.7 8.61-102.09-2.867-78.41-8.61-102.09c-5.742-23.55-13.992-35.33-24.754-35.33M1302.93 307.566v-21.484h-15.16V71.609l16.84 32.668V77.824l-20.31-40.129h-17.07v248.387h-15.21v21.484zM1202.4 291.941q-6.495.001-8.88-19.351c-1.63-12.902-2.44-45.332-2.44-97.293 0-51.609.81-83.98 2.44-97.121q2.385-19.706 8.88-19.707 6.495.001 8.94 19.355c1.59 12.899 2.38 45.391 2.38 97.473 0 51.961-.79 84.391-2.38 97.293q-2.445 19.352-8.94 19.351m0 20.774q16.2 0 24.81-35.332 8.61-35.51 8.61-102.086 0-66.581-8.61-102.09-8.61-35.507-24.81-35.512-16.14.005-24.75 35.512-8.61 35.509-8.61 102.09 0 66.576 8.61 102.086 8.61 35.332 24.75 35.332M119.234 1545.8h61.418c-6.996.31-12.949 4.84-18.57 8.58-12.625 9.53-24.453 20.45-33.793 33.23-4.359 6.43-8.937 13.66-9.055 21.69m61.418-63.5c-8.875-.28-16.457-5.92-23.222-11.14-11.957-10.03-22.305-21.97-31.039-34.9-3.207-5.35-6.981-11.02-7.157-17.46v63.5m0-63.5c-.304 9.46-6.062 17.65-11.5 24.96-9.691 12.07-21.175 22.76-33.812 31.69-4.91 3.06-10.121 6.7-16.106 6.85h61.418m-61.418 0c8.88.28 16.461 5.93 23.227 11.13 11.953 10.05 22.301 21.99 31.035 34.91 3.207 5.35 6.977 11.02 7.156 17.46v-63.5M1240.98 419.523h-61.42c6.99-.308 12.95-4.835 18.57-8.578 12.63-9.527 24.46-20.449 33.8-33.23 4.36-6.43 8.93-13.656 9.05-21.688m-61.42 63.496c8.88.282 16.46 5.93 23.23 11.141 11.95 10.035 22.3 21.977 31.03 34.899 3.21 5.351 6.98 11.019 7.16 17.457v-63.497m0 63.497c.3-9.45 6.06-17.641 11.5-24.95 9.69-12.074 21.17-22.757 33.81-31.691 4.91-3.063 10.12-6.707 16.1-6.856h-61.41m61.41 0c-8.87-.277-16.45-5.925-23.22-11.128-11.96-10.047-22.3-21.985-31.03-34.911-3.21-5.347-6.98-11.019-7.16-17.457v63.496M360.781 1652.9h147.403c-16.789.75-31.075 11.62-44.567 20.59-30.304 22.87-58.691 49.08-81.109 79.75-10.461 15.43-21.449 32.78-21.727 52.05m147.403-152.39c-21.305-.67-39.5-14.22-55.739-26.73-28.691-24.09-53.527-52.74-74.484-83.76-7.699-12.84-16.758-26.45-17.18-41.9v152.39m0-152.39c-.73 22.69-14.547 42.34-27.597 59.88-23.262 28.99-50.825 54.63-81.149 76.06-11.785 7.35-24.297 16.1-38.656 16.45h147.402m-147.402 0c21.305.67 39.5 14.23 55.738 26.72 28.692 24.11 53.528 52.76 74.488 83.77 7.696 12.84 16.747 26.45 17.176 41.9V1652.9M360.781 1219.81h147.403c-16.789.75-31.075 11.62-44.567 20.59-30.304 22.87-58.691 49.08-81.109 79.75-10.461 15.44-21.449 32.78-21.727 52.05m147.403-152.39c-21.305-.67-39.5-14.22-55.739-26.73-28.691-24.09-53.527-52.74-74.484-83.76-7.699-12.84-16.758-26.45-17.18-41.9v152.39m0-152.39c-.73 22.69-14.547 42.34-27.597 59.88-23.262 28.99-50.825 54.63-81.149 76.07-11.785 7.34-24.297 16.09-38.656 16.44h147.402m-147.402 0c21.305.67 39.5 14.23 55.738 26.72 28.692 24.11 53.528 52.76 74.488 83.78 7.696 12.84 16.747 26.44 17.176 41.89v-152.39M360.781 778.699H213.379c16.789-.75 31.074-11.613 44.566-20.59 30.309-22.863 58.692-49.082 81.11-79.75 10.461-15.433 21.449-32.785 21.726-52.054M213.379 778.699c21.305.672 39.5 14.227 55.738 26.735 28.692 24.086 53.528 52.742 74.488 83.757 7.696 12.84 16.754 26.45 17.176 41.899V778.699m0 152.391c.731-22.688 14.547-42.34 27.602-59.883 23.262-28.98 50.82-54.621 81.144-76.062 11.786-7.348 24.301-16.09 38.657-16.446H360.781m147.403 0c-21.305-.672-39.5-14.222-55.739-26.719-28.691-24.105-53.527-52.761-74.484-83.777-7.699-12.84-16.746-26.445-17.18-41.898v152.394M360.781 345.609H213.379c16.789-.75 31.074-11.613 44.566-20.589 30.309-22.864 58.692-49.082 81.11-79.75 10.461-15.434 21.449-32.782 21.726-52.051m-147.402 152.39c21.305.672 39.5 14.227 55.738 26.735 28.692 24.09 53.528 52.742 74.488 83.758 7.696 12.839 16.754 26.449 17.176 41.898V345.609m0 152.391c.731-22.687 14.547-42.34 27.602-59.883 23.262-28.98 50.82-54.621 81.144-76.058 11.786-7.352 24.301-16.094 38.657-16.45H360.781m147.403 0c-21.305-.671-39.5-14.222-55.739-26.714-28.691-24.11-53.527-52.762-74.484-83.778-7.699-12.84-16.746-26.449-17.18-41.898v152.39M999.402 1652.9H1146.8c-16.78.75-31.07 11.62-44.56 20.59-30.31 22.87-58.69 49.08-81.11 79.75-10.46 15.43-21.45 32.78-21.728 52.05M1146.8 1652.9c-21.3-.67-39.5-14.22-55.73-26.73-28.69-24.09-53.53-52.74-74.49-83.76-7.7-12.84-16.756-26.45-17.178-41.9v152.39m0-152.39c-.73 22.69-14.547 42.34-27.601 59.88-23.262 28.99-50.821 54.63-81.145 76.06-11.785 7.35-24.301 16.1-38.656 16.45h147.402m-147.402 0c21.305.67 39.5 14.23 55.738 26.72 28.692 24.11 53.528 52.76 74.485 83.77 7.699 12.84 16.746 26.45 17.179 41.9V1652.9M999.402 1219.81H1146.8c-16.78.75-31.07 11.62-44.56 20.59-30.31 22.87-58.69 49.08-81.11 79.75-10.46 15.44-21.45 32.78-21.728 52.05m147.398-152.39c-21.3-.67-39.5-14.22-55.73-26.73-28.69-24.09-53.53-52.74-74.49-83.76-7.7-12.84-16.756-26.45-17.178-41.9v152.39m0-152.39c-.73 22.69-14.547 42.34-27.601 59.88-23.262 28.99-50.821 54.63-81.145 76.07-11.785 7.34-24.301 16.09-38.656 16.44h147.402m-147.402 0c21.305.67 39.5 14.23 55.738 26.72 28.692 24.11 53.528 52.76 74.485 83.78 7.699 12.84 16.746 26.44 17.179 41.89v-152.39M999.406 778.699H852.004c16.789-.75 31.074-11.613 44.566-20.59 30.305-22.863 58.692-49.082 81.11-79.75 10.461-15.433 21.449-32.785 21.726-52.054M852.004 778.699c21.305.672 39.5 14.227 55.734 26.735 28.696 24.086 53.532 52.742 74.489 83.757 7.695 12.84 16.757 26.45 17.179 41.899V778.699m0 152.391c.724-22.688 14.544-42.34 27.594-59.883 23.27-28.98 50.83-54.621 81.15-76.062 11.79-7.348 24.3-16.09 38.65-16.446H999.406m147.394 0c-21.3-.672-39.49-14.222-55.73-26.719-28.69-24.105-53.53-52.761-74.49-83.777-7.69-12.84-16.744-26.445-17.174-41.898v152.394M999.406 345.609H852.004c16.789-.75 31.074-11.613 44.566-20.589 30.305-22.864 58.692-49.082 81.11-79.75 10.461-15.434 21.449-32.782 21.726-52.051m-147.402 152.39c21.305.672 39.5 14.227 55.734 26.735 28.696 24.09 53.532 52.742 74.489 83.758 7.695 12.839 16.757 26.449 17.179 41.898V345.609m0 152.391c.724-22.687 14.544-42.34 27.594-59.883 23.27-28.98 50.83-54.621 81.15-76.058 11.79-7.352 24.3-16.094 38.65-16.45H999.406m147.394 0c-21.3-.671-39.49-14.222-55.73-26.714-28.69-24.11-53.53-52.762-74.49-83.778-7.69-12.84-16.744-26.449-17.174-41.898v152.39M680.09 1436.36h147.398c-16.785.75-31.07 11.61-44.562 20.59-30.309 22.86-58.692 49.08-81.11 79.75-10.461 15.43-21.449 32.78-21.726 52.05m147.398-152.39c-21.3-.67-39.496-14.23-55.734-26.73-28.691-24.09-53.527-52.75-74.488-83.76-7.696-12.84-16.754-26.45-17.176-41.9v152.39m0-152.39c-.731 22.68-14.551 42.34-27.602 59.88-23.261 28.98-50.82 54.62-81.144 76.06-11.785 7.35-24.301 16.09-38.656 16.45H680.09m-147.402 0c21.304.67 39.5 14.22 55.734 26.71 28.695 24.11 53.531 52.77 74.488 83.78 7.699 12.84 16.746 26.45 17.18 41.9v-152.39M680.094 562.152H532.691c16.789-.75 31.075-11.613 44.567-20.589 30.305-22.864 58.691-49.079 81.109-79.75 10.461-15.43 21.449-32.782 21.727-52.051m-147.403 152.39c21.305.672 39.5 14.227 55.735 26.735 28.695 24.09 53.531 52.742 74.488 83.758 7.699 12.839 16.758 26.449 17.18 41.898V562.152m0 152.391c.726-22.684 14.547-42.34 27.597-59.879 23.262-28.984 50.825-54.625 81.149-76.062 11.785-7.352 24.297-16.094 38.652-16.45H680.094m147.398 0c-21.301-.672-39.496-14.222-55.734-26.714-28.692-24.11-53.528-52.762-74.488-83.778-7.696-12.84-16.747-26.449-17.176-41.898v152.39" style="fill:#e6180a;fill-opacity:1;fill-rule:nonzero;stroke:none" transform="matrix(.13333 0 0 -.13333 0 260.917)"/></svg>