<svg xmlns="http://www.w3.org/2000/svg" width="180.28" height="260.853" viewBox="0 0 180.28 260.853"><path d="M9.996 65.418c0-30.23 24.711-54.941 54.942-54.941H1287.24c30.15 0 54.86 24.71 54.86 54.941V1891.94c0 30.22-24.71 54.94-54.86 54.94H64.938c-30.231 0-54.942-24.72-54.942-54.94z" style="fill:#fff;fill-opacity:1;fill-rule:nonzero;stroke:none" transform="matrix(.13333 0 0 -.13333 0 260.917)"/><path d="M9.996 65.418c0-30.23 24.711-54.941 54.942-54.941H1287.24c30.15 0 54.86 24.71 54.86 54.941V1891.94c0 30.22-24.71 54.94-54.86 54.94H64.938c-30.231 0-54.942-24.72-54.942-54.94z" style="fill:none;stroke:#000;stroke-width:19.9926;stroke-linecap:butt;stroke-linejoin:miter;stroke-miterlimit:10;stroke-dasharray:none;stroke-opacity:1" transform="matrix(.13333 0 0 -.13333 0 260.917)"/><path d="M57.203 1657.76v21.48h15.168v214.48l-16.848-32.67v26.45l20.313 40.13h17.062v-248.39h15.219v-21.48zM157.73 1673.38c4.333 0 7.293 6.46 8.883 19.36q2.438 19.35 2.438 97.29c0 51.61-.813 83.98-2.438 97.12q-2.384 19.71-8.883 19.71c-4.332 0-7.312-6.45-8.937-19.36q-2.381-19.35-2.383-97.47.002-77.94 2.383-97.29c1.625-12.9 4.605-19.36 8.937-19.36m0-20.77c-10.796 0-19.066 11.78-24.804 35.33-5.742 23.68-8.613 57.7-8.613 102.09q0 66.585 8.613 102.09c5.738 23.67 14.008 35.51 24.804 35.51 10.762 0 19.012-11.84 24.754-35.51s8.61-57.7 8.61-102.09-2.867-78.41-8.61-102.09c-5.742-23.55-13.992-35.33-24.754-35.33M1302.93 307.566v-21.484h-15.16V71.609l16.84 32.668V77.82l-20.31-40.125h-17.07v248.387h-15.21v21.484zM1202.4 291.941q-6.495.001-8.88-19.351c-1.63-12.902-2.44-45.332-2.44-97.297 0-51.605.81-83.977 2.44-97.117q2.385-19.706 8.88-19.707c4.33 0 7.31 6.453 8.94 19.351 1.59 12.903 2.38 45.395 2.38 97.473 0 51.965-.79 84.395-2.38 97.297q-2.445 19.352-8.94 19.351m0 20.774q16.2 0 24.81-35.332 8.61-35.509 8.61-102.09 0-66.576-8.61-102.086c-5.74-23.672-14.01-35.512-24.81-35.512q-16.14.002-24.75 35.512t-8.61 102.086q0 66.581 8.61 102.09 8.61 35.332 24.75 35.332M87.887 1482.39c13.355 0 20.39 14.23 24.07 28.47 3.68 14.23 4 28.46 4 28.46l6.797.09s1.277-57.02 27.988-57.02z" style="fill:#000;fill-opacity:1;fill-rule:nonzero;stroke:none" transform="matrix(.13333 0 0 -.13333 0 260.917)"/><path d="M65.254 1539.41c.082 27.74 41.746 47.89 53.98 69.81 12.235-21.99 53.903-42.15 53.981-69.81 0-13.12-12.074-23.76-27.031-23.76-14.875 0-26.95 10.64-26.95 23.76 0-13.12-12.074-23.76-27.03-23.76-14.954 0-26.95 10.64-26.95 23.76M1272.33 482.941c-13.36 0-20.4-14.234-24.08-28.468-3.67-14.235-3.99-28.469-3.99-28.469l-6.8-.082s-1.28 57.019-27.99 57.019z" style="fill:#000;fill-opacity:1;fill-rule:nonzero;stroke:none" transform="matrix(.13333 0 0 -.13333 0 260.917)"/><path d="M1294.96 425.922c-.08-27.75-41.75-47.902-53.98-69.813-12.24 21.993-53.9 42.145-53.98 69.813 0 13.117 12.07 23.75 27.03 23.75 14.87 0 26.95-10.633 26.95-23.75 0 13.117 12.07 23.75 27.03 23.75 14.95 0 26.95-10.633 26.95-23.75M285.547 1500.71c32.051 0 48.941 34.17 57.769 68.33 8.829 34.16 9.598 68.32 9.598 68.32l16.313.2s3.07-136.85 67.175-136.85z" style="fill:#000;fill-opacity:1;fill-rule:nonzero;stroke:none" transform="matrix(.13333 0 0 -.13333 0 260.917)"/><path d="M231.23 1637.56c.192 66.6 100.188 114.96 129.551 167.55 29.367-52.78 129.36-101.15 129.551-167.55 0-31.48-28.98-57.01-64.871-57.01-35.699 0-64.68 25.53-64.68 57.01 0-31.48-28.98-57.01-64.871-57.01s-64.68 25.53-64.68 57.01M285.547 1067.63c32.051 0 48.941 34.16 57.769 68.32 8.829 34.16 9.598 68.33 9.598 68.33l16.313.19s3.07-136.84 67.175-136.84z" style="fill:#000;fill-opacity:1;fill-rule:nonzero;stroke:none" transform="matrix(.13333 0 0 -.13333 0 260.917)"/><path d="M231.23 1204.47c.192 66.6 100.188 114.96 129.551 167.55 29.367-52.78 129.36-101.14 129.551-167.55 0-31.48-28.98-57-64.871-57-35.699 0-64.68 25.52-64.68 57 0-31.48-28.98-57-64.871-57s-64.68 25.52-64.68 57M436.02 930.895c-32.055 0-48.946-34.165-57.774-68.329s-9.594-68.328-9.594-68.328l-16.316-.191s-3.07 136.848-67.176 136.848z" style="fill:#000;fill-opacity:1;fill-rule:nonzero;stroke:none" transform="matrix(.13333 0 0 -.13333 0 260.917)"/><path d="M490.332 794.047c-.191-66.598-100.184-114.965-129.551-167.555-29.363 52.781-129.359 101.149-129.551 167.555 0 31.476 28.981 57.004 64.872 57.004 35.699 0 64.679-25.528 64.679-57.004 0 31.476 28.981 57.004 64.871 57.004 35.891 0 64.68-25.528 64.68-57.004M436.02 497.805c-32.055 0-48.946-34.164-57.774-68.325-8.828-34.164-9.594-68.328-9.594-68.328l-16.316-.191s-3.07 136.844-67.176 136.844z" style="fill:#000;fill-opacity:1;fill-rule:nonzero;stroke:none" transform="matrix(.13333 0 0 -.13333 0 260.917)"/><path d="M490.332 360.961c-.191-66.602-100.184-114.965-129.551-167.555-29.363 52.782-129.359 101.149-129.551 167.555 0 31.477 28.981 57.004 64.872 57.004 35.699 0 64.679-25.527 64.679-57.004 0 31.477 28.981 57.004 64.871 57.004 35.891 0 64.68-25.527 64.68-57.004M924.164 1500.71c32.055 0 48.945 34.17 57.774 68.33 8.828 34.16 9.593 68.32 9.593 68.32l16.319.2s3.07-136.85 67.17-136.85z" style="fill:#000;fill-opacity:1;fill-rule:nonzero;stroke:none" transform="matrix(.13333 0 0 -.13333 0 260.917)"/><path d="M869.852 1637.56c.191 66.6 100.183 114.96 129.55 167.55 29.368-52.78 129.358-101.15 129.548-167.55 0-31.48-28.98-57.01-64.87-57.01-35.7 0-64.678 25.53-64.678 57.01 0-31.48-28.98-57.01-64.871-57.01s-64.679 25.53-64.679 57.01M924.164 1067.63c32.055 0 48.945 34.16 57.774 68.32 8.828 34.16 9.593 68.33 9.593 68.33l16.319.19s3.07-136.84 67.17-136.84z" style="fill:#000;fill-opacity:1;fill-rule:nonzero;stroke:none" transform="matrix(.13333 0 0 -.13333 0 260.917)"/><path d="M869.852 1204.47c.191 66.6 100.183 114.96 129.55 167.55 29.368-52.78 129.358-101.14 129.548-167.55 0-31.48-28.98-57-64.87-57-35.7 0-64.678 25.52-64.678 57 0-31.48-28.98-57-64.871-57s-64.679 25.52-64.679 57M1074.64 930.895c-32.05 0-48.94-34.165-57.77-68.329s-9.6-68.328-9.6-68.328l-16.309-.191s-3.07 136.848-67.176 136.848z" style="fill:#000;fill-opacity:1;fill-rule:nonzero;stroke:none" transform="matrix(.13333 0 0 -.13333 0 260.917)"/><path d="M1128.96 794.047c-.19-66.598-100.19-114.965-129.554-167.555-29.367 52.781-129.359 101.149-129.554 167.555 0 31.476 28.984 57.004 64.875 57.004 35.695 0 64.679-25.528 64.679-57.004 0 31.476 28.984 57.004 64.874 57.004s64.68-25.528 64.68-57.004M1074.64 497.805c-32.05 0-48.94-34.164-57.77-68.325-8.83-34.164-9.6-68.328-9.6-68.328l-16.309-.191s-3.07 136.844-67.176 136.844z" style="fill:#000;fill-opacity:1;fill-rule:nonzero;stroke:none" transform="matrix(.13333 0 0 -.13333 0 260.917)"/><path d="M1128.96 360.961c-.19-66.602-100.19-114.965-129.554-167.555-29.367 52.782-129.359 101.149-129.554 167.555 0 31.477 28.984 57.004 64.875 57.004 35.695 0 64.679-25.527 64.679-57.004 0 31.477 28.984 57.004 64.874 57.004s64.68-25.527 64.68-57.004M604.852 1284.15c32.054 0 48.941 34.17 57.773 68.33 8.828 34.16 9.594 68.32 9.594 68.32l16.316.2s3.07-136.85 67.172-136.85z" style="fill:#000;fill-opacity:1;fill-rule:nonzero;stroke:none" transform="matrix(.13333 0 0 -.13333 0 260.917)"/><path d="M550.535 1421c.195 66.6 100.188 114.96 129.555 167.55 29.363-52.78 129.359-101.14 129.551-167.55 0-31.48-28.981-57-64.871-57-35.7 0-64.68 25.52-64.68 57 0-31.48-28.981-57-64.871-57-35.891 0-64.684 25.52-64.684 57M755.328 714.359c-32.051 0-48.941-34.164-57.769-68.328-8.829-34.164-9.598-68.324-9.598-68.324l-16.313-.195s-3.07 136.847-67.175 136.847z" style="fill:#000;fill-opacity:1;fill-rule:nonzero;stroke:none" transform="matrix(.13333 0 0 -.13333 0 260.917)"/><path d="M809.645 577.512c-.192-66.598-100.188-114.965-129.551-167.551-29.367 52.777-129.36 101.144-129.555 167.551 0 31.476 28.984 57.004 64.875 57.004 35.699 0 64.68-25.528 64.68-57.004 0 31.476 28.98 57.004 64.871 57.004s64.68-25.528 64.68-57.004" style="fill:#000;fill-opacity:1;fill-rule:nonzero;stroke:none" transform="matrix(.13333 0 0 -.13333 0 260.917)"/></svg>