<svg xmlns="http://www.w3.org/2000/svg" width="180.28" height="260.853" viewBox="0 0 180.28 260.853"><path d="M9.996 65.418c0-30.23 24.711-54.941 54.942-54.941H1287.24c30.15 0 54.86 24.71 54.86 54.941V1891.94c0 30.22-24.71 54.94-54.86 54.94H64.938c-30.231 0-54.942-24.72-54.942-54.94z" style="fill:#fff;fill-opacity:1;fill-rule:nonzero;stroke:none" transform="matrix(.13333 0 0 -.13333 0 260.917)"/><path d="M9.996 65.418c0-30.23 24.711-54.941 54.942-54.941H1287.24c30.15 0 54.86 24.71 54.86 54.941V1891.94c0 30.22-24.71 54.94-54.86 54.94H64.938c-30.231 0-54.942-24.72-54.942-54.94z" style="fill:none;stroke:#000;stroke-width:19.9926;stroke-linecap:butt;stroke-linejoin:miter;stroke-miterlimit:10;stroke-dasharray:none;stroke-opacity:1" transform="matrix(.13333 0 0 -.13333 0 260.917)"/><path d="M57.203 1657.76v21.48h15.168v214.48l-16.848-32.67v26.45l20.313 40.13h17.062v-248.39h15.219v-21.48zM157.73 1673.38c4.333 0 7.293 6.46 8.883 19.36q2.438 19.35 2.438 97.29c0 51.61-.813 83.98-2.438 97.12q-2.384 19.71-8.883 19.71c-4.332 0-7.312-6.45-8.937-19.36q-2.381-19.35-2.383-97.47.002-77.94 2.383-97.29c1.625-12.9 4.605-19.36 8.937-19.36m0-20.77c-10.796 0-19.066 11.78-24.804 35.33-5.742 23.68-8.613 57.7-8.613 102.09q0 66.585 8.613 102.09c5.738 23.67 14.008 35.51 24.804 35.51 10.762 0 19.012-11.84 24.754-35.51s8.61-57.7 8.61-102.09-2.867-78.41-8.61-102.09c-5.742-23.55-13.992-35.33-24.754-35.33M1302.93 307.566v-21.484h-15.16V71.609l16.84 32.668V77.82l-20.31-40.125h-17.07v248.387h-15.21v21.484zM1202.4 291.941q-6.495.001-8.88-19.351c-1.63-12.902-2.44-45.332-2.44-97.297 0-51.605.81-83.977 2.44-97.117q2.385-19.706 8.88-19.707c4.33 0 7.31 6.453 8.94 19.351 1.59 12.903 2.38 45.395 2.38 97.473 0 51.965-.79 84.395-2.38 97.297q-2.445 19.352-8.94 19.351m0 20.774q16.2 0 24.81-35.332 8.61-35.509 8.61-102.09 0-66.58-8.61-102.086-8.61-35.513-24.81-35.512-16.14-.001-24.75 35.512-8.61 35.507-8.61 102.086 0 66.581 8.61 102.09 8.61 35.332 24.75 35.332M92.445 1583.07c0-14.48 12.075-26.23 27.032-26.23 14.953 0 27.027 11.75 27.027 26.23 0 14.47-12.074 26.23-27.027 26.23-14.957 0-27.032-11.76-27.032-26.23M57.578 1533.41c0-14.48 12.074-26.23 27.031-26.23 14.953 0 27.028 11.75 27.028 26.23 0 14.47-12.074 26.23-27.028 26.23-14.957 0-27.03-11.76-27.03-26.23M126.832 1533.25c0-5.28 1.598-10.24 4.398-14.4 4.797-7.12 13.196-11.83 22.633-11.83 14.953 0 27.028 11.75 27.028 26.23 0 14.47-12.075 26.23-27.028 26.23-14.957 0-27.031-11.76-27.031-26.23M87.727 1482.3c13.355 0 20.39 10.88 24.07 21.76 3.68 10.87 4 21.75 4 21.75h6.875s1.281-43.42 27.992-43.51z" style="fill:#000;fill-opacity:1;fill-rule:nonzero;stroke:none" transform="matrix(.13333 0 0 -.13333 0 260.917)"/><path d="M137.789 1563.79c-15.195-15.19-15.195-37.98-15.195-37.98l-6.797-.08s0 23.27-14.797 38.06" style="fill:#000;fill-opacity:1;fill-rule:nonzero;stroke:none" transform="matrix(.13333 0 0 -.13333 0 260.917)"/><path d="M134.75 1515.01c-15.195 15.2-37.988 15.2-37.988 15.2v6.79s23.273 0 38.066 14.8" style="fill:#000;fill-opacity:1;fill-rule:nonzero;stroke:none" transform="matrix(.13333 0 0 -.13333 0 260.917)"/><path d="M104.281 1514.93c15.196 15.2 37.985 15.2 37.985 15.2v6.8s-23.27 0-38.067 14.79M1267.77 382.258c0 14.476-12.08 26.23-27.03 26.23s-27.03-11.754-27.03-26.23c0-14.473 12.08-26.231 27.03-26.231s27.03 11.758 27.03 26.231M1302.64 431.918c0 14.477-12.08 26.23-27.03 26.23-14.96 0-27.04-11.753-27.04-26.23 0-14.473 12.08-26.227 27.04-26.227 14.95 0 27.03 11.754 27.03 26.227M1233.38 432.078c0 5.281-1.6 10.238-4.4 14.395-4.8 7.117-13.19 11.836-22.63 11.836-14.96 0-27.03-11.754-27.03-26.231 0-14.473 12.07-26.23 27.03-26.23 14.95 0 27.03 11.757 27.03 26.23M1272.48 483.02c-13.35 0-20.39-10.875-24.07-21.75-3.67-10.875-3.99-21.754-3.99-21.754h-6.88s-1.28 43.425-27.99 43.504z" style="fill:#000;fill-opacity:1;fill-rule:nonzero;stroke:none" transform="matrix(.13333 0 0 -.13333 0 260.917)"/><path d="M1222.43 401.531c15.19 15.196 15.19 37.985 15.19 37.985l6.8.082s0-23.274 14.79-38.067" style="fill:#000;fill-opacity:1;fill-rule:nonzero;stroke:none" transform="matrix(.13333 0 0 -.13333 0 260.917)"/><path d="M1225.46 450.313c15.2-15.196 37.99-15.196 37.99-15.196v-6.797s-23.27 0-38.07-14.793" style="fill:#000;fill-opacity:1;fill-rule:nonzero;stroke:none" transform="matrix(.13333 0 0 -.13333 0 260.917)"/><path d="M1255.93 450.395c-15.19-15.196-37.98-15.196-37.98-15.196v-6.797s23.27 0 38.06-14.797M296.484 1742.34c0-34.73 28.985-62.95 64.875-62.95s64.871 28.22 64.871 62.95c0 34.74-28.98 62.96-64.871 62.96s-64.875-28.22-64.875-62.96M212.805 1623.16c0-34.74 28.98-62.96 64.871-62.96s64.871 28.22 64.871 62.96c0 34.73-28.981 62.95-64.871 62.95-35.891 0-64.871-28.22-64.871-62.95M379.016 1622.77c0-12.66 3.836-24.56 10.554-34.54 11.516-17.09 31.668-28.41 54.317-28.41 35.89 0 64.871 28.22 64.871 62.95 0 34.74-28.981 62.96-64.871 62.96-35.891 0-64.871-28.22-64.871-62.96M285.16 1500.52c32.055 0 48.945 26.1 57.774 52.2 8.828 26.1 9.593 52.2 9.593 52.2h16.508s3.07-104.21 67.176-104.4z" style="fill:#000;fill-opacity:1;fill-rule:nonzero;stroke:none" transform="matrix(.13333 0 0 -.13333 0 260.917)"/><path d="M405.309 1696.09c-36.465-36.46-36.465-91.17-36.465-91.17l-16.317-.19s0 55.85-35.504 91.36" style="fill:#000;fill-opacity:1;fill-rule:nonzero;stroke:none" transform="matrix(.13333 0 0 -.13333 0 260.917)"/><path d="M398.016 1579.01c-36.465 36.47-91.164 36.47-91.164 36.47v16.31s55.847 0 91.355 35.51" style="fill:#000;fill-opacity:1;fill-rule:nonzero;stroke:none" transform="matrix(.13333 0 0 -.13333 0 260.917)"/><path d="M324.891 1578.82c36.468 36.47 91.168 36.47 91.168 36.47v16.31s-55.852 0-91.36 35.51M296.484 1309.25c0-34.73 28.985-62.95 64.875-62.95s64.871 28.22 64.871 62.95c0 34.75-28.98 62.96-64.871 62.96s-64.875-28.21-64.875-62.96M212.805 1190.07c0-34.74 28.98-62.96 64.871-62.96s64.871 28.22 64.871 62.96c0 34.73-28.981 62.95-64.871 62.95-35.891 0-64.871-28.22-64.871-62.95M379.016 1189.68c0-12.66 3.836-24.56 10.554-34.54 11.516-17.09 31.668-28.41 54.317-28.41 35.89 0 64.871 28.22 64.871 62.95 0 34.74-28.981 62.96-64.871 62.96-35.891 0-64.871-28.22-64.871-62.96M285.16 1067.43c32.055 0 48.945 26.1 57.774 52.2 8.828 26.1 9.593 52.21 9.593 52.21h16.508s3.07-104.22 67.176-104.41z" style="fill:#000;fill-opacity:1;fill-rule:nonzero;stroke:none" transform="matrix(.13333 0 0 -.13333 0 260.917)"/><path d="M405.309 1263c-36.465-36.46-36.465-91.16-36.465-91.16l-16.317-.2s0 55.85-35.504 91.36" style="fill:#000;fill-opacity:1;fill-rule:nonzero;stroke:none" transform="matrix(.13333 0 0 -.13333 0 260.917)"/><path d="M398.016 1145.93c-36.465 36.46-91.164 36.46-91.164 36.46v16.31s55.847 0 91.355 35.51" style="fill:#000;fill-opacity:1;fill-rule:nonzero;stroke:none" transform="matrix(.13333 0 0 -.13333 0 260.917)"/><path d="M324.891 1145.73c36.468 36.47 91.168 36.47 91.168 36.47v16.31s-55.852 0-91.36 35.51M425.078 689.262c0 34.738-28.98 62.953-64.871 62.953S295.336 724 295.336 689.262s28.98-62.953 64.871-62.953 64.871 28.214 64.871 62.953M508.758 808.449c0 34.742-28.981 62.953-64.871 62.953-35.891 0-64.871-28.211-64.871-62.953 0-34.738 28.98-62.953 64.871-62.953s64.871 28.215 64.871 62.953M342.547 808.836c0 12.664-3.836 24.566-10.555 34.547-11.515 17.082-31.668 28.402-54.316 28.402-35.891 0-64.871-28.211-64.871-62.949 0-34.742 28.98-62.953 64.871-62.953s64.871 28.211 64.871 62.953M436.402 931.094c-32.05 0-48.941-26.102-57.769-52.207-8.832-26.102-9.598-52.203-9.598-52.203h-16.508s-3.07 104.218-67.172 104.41z" style="fill:#000;fill-opacity:1;fill-rule:nonzero;stroke:none" transform="matrix(.13333 0 0 -.13333 0 260.917)"/><path d="M316.254 735.52c36.469 36.464 36.469 91.164 36.469 91.164l16.312.191s0-55.852 35.508-91.355" style="fill:#000;fill-opacity:1;fill-rule:nonzero;stroke:none" transform="matrix(.13333 0 0 -.13333 0 260.917)"/><path d="M323.547 852.594c36.469-36.465 91.168-36.465 91.168-36.465v-16.316s-55.852 0-91.36-35.504" style="fill:#000;fill-opacity:1;fill-rule:nonzero;stroke:none" transform="matrix(.13333 0 0 -.13333 0 260.917)"/><path d="M396.672 852.785c-36.465-36.465-91.164-36.465-91.164-36.465v-16.316s55.851 0 91.355-35.504M425.078 256.176c0 34.738-28.98 62.949-64.871 62.949s-64.871-28.211-64.871-62.949c0-34.742 28.98-62.953 64.871-62.953s64.871 28.211 64.871 62.953M508.758 375.363c0 34.739-28.981 62.95-64.871 62.95-35.891 0-64.871-28.211-64.871-62.95 0-34.742 28.98-62.953 64.871-62.953s64.871 28.211 64.871 62.953M342.547 375.746c0 12.668-3.836 24.567-10.555 34.547-11.515 17.082-31.668 28.406-54.316 28.406-35.891 0-64.871-28.215-64.871-62.953s28.98-62.953 64.871-62.953 64.871 28.215 64.871 62.953M436.402 498.004c-32.05 0-48.941-26.102-57.769-52.203-8.832-26.106-9.598-52.207-9.598-52.207h-16.508s-3.07 104.219-67.172 104.41z" style="fill:#000;fill-opacity:1;fill-rule:nonzero;stroke:none" transform="matrix(.13333 0 0 -.13333 0 260.917)"/><path d="M316.254 302.43c36.469 36.465 36.469 91.164 36.469 91.164l16.312.191s0-55.851 35.508-91.355" style="fill:#000;fill-opacity:1;fill-rule:nonzero;stroke:none" transform="matrix(.13333 0 0 -.13333 0 260.917)"/><path d="M323.547 419.504c36.469-36.465 91.168-36.465 91.168-36.465v-16.312s-55.852 0-91.36-35.508" style="fill:#000;fill-opacity:1;fill-rule:nonzero;stroke:none" transform="matrix(.13333 0 0 -.13333 0 260.917)"/><path d="M396.672 419.695c-36.465-36.465-91.164-36.465-91.164-36.465v-16.312s55.851 0 91.355-35.508M935.105 1742.34c0-34.73 28.981-62.95 64.872-62.95 35.893 0 64.873 28.22 64.873 62.95 0 34.74-28.98 62.96-64.873 62.96-35.891 0-64.872-28.22-64.872-62.96M851.426 1623.16c0-34.74 28.98-62.96 64.871-62.96s64.871 28.22 64.871 62.96c0 34.73-28.98 62.95-64.871 62.95s-64.871-28.22-64.871-62.95M1017.64 1622.77c0-12.66 3.83-24.56 10.55-34.54 11.52-17.09 31.67-28.41 54.32-28.41 35.89 0 64.87 28.22 64.87 62.95 0 34.74-28.98 62.96-64.87 62.96s-64.87-28.22-64.87-62.96M923.781 1500.52c32.051 0 48.942 26.1 57.77 52.2 8.832 26.1 9.597 52.2 9.597 52.2h16.512s3.07-104.21 67.17-104.4z" style="fill:#000;fill-opacity:1;fill-rule:nonzero;stroke:none" transform="matrix(.13333 0 0 -.13333 0 260.917)"/><path d="M1043.93 1696.09c-36.47-36.46-36.47-91.17-36.47-91.17l-16.312-.19s0 55.85-35.507 91.36" style="fill:#000;fill-opacity:1;fill-rule:nonzero;stroke:none" transform="matrix(.13333 0 0 -.13333 0 260.917)"/><path d="M1036.64 1579.01c-36.47 36.47-91.171 36.47-91.171 36.47v16.31s55.851 0 91.361 35.51" style="fill:#000;fill-opacity:1;fill-rule:nonzero;stroke:none" transform="matrix(.13333 0 0 -.13333 0 260.917)"/><path d="M963.512 1578.82c36.465 36.47 91.168 36.47 91.168 36.47v16.31s-55.856 0-91.36 35.51M935.105 1309.25c0-34.73 28.981-62.95 64.872-62.95 35.893 0 64.873 28.22 64.873 62.95 0 34.75-28.98 62.96-64.873 62.96-35.891 0-64.872-28.21-64.872-62.96M851.426 1190.07c0-34.74 28.98-62.96 64.871-62.96s64.871 28.22 64.871 62.96c0 34.73-28.98 62.95-64.871 62.95s-64.871-28.22-64.871-62.95M1017.64 1189.68c0-12.66 3.83-24.56 10.55-34.54 11.52-17.09 31.67-28.41 54.32-28.41 35.89 0 64.87 28.22 64.87 62.95 0 34.74-28.98 62.96-64.87 62.96s-64.87-28.22-64.87-62.96M923.781 1067.43c32.051 0 48.942 26.1 57.77 52.2 8.832 26.1 9.597 52.21 9.597 52.21h16.512s3.07-104.22 67.17-104.41z" style="fill:#000;fill-opacity:1;fill-rule:nonzero;stroke:none" transform="matrix(.13333 0 0 -.13333 0 260.917)"/><path d="M1043.93 1263c-36.47-36.46-36.47-91.16-36.47-91.16l-16.312-.2s0 55.85-35.507 91.36" style="fill:#000;fill-opacity:1;fill-rule:nonzero;stroke:none" transform="matrix(.13333 0 0 -.13333 0 260.917)"/><path d="M1036.64 1145.93c-36.47 36.46-91.171 36.46-91.171 36.46v16.31s55.851 0 91.361 35.51" style="fill:#000;fill-opacity:1;fill-rule:nonzero;stroke:none" transform="matrix(.13333 0 0 -.13333 0 260.917)"/><path d="M963.512 1145.73c36.465 36.47 91.168 36.47 91.168 36.47v16.31s-55.856 0-91.36 35.51M1063.7 689.262c0 34.738-28.98 62.953-64.872 62.953-35.89 0-64.871-28.215-64.871-62.953s28.981-62.953 64.871-62.953c35.892 0 64.872 28.214 64.872 62.953M1147.38 808.449c0 34.742-28.98 62.953-64.87 62.953s-64.87-28.211-64.87-62.953c0-34.738 28.98-62.953 64.87-62.953s64.87 28.215 64.87 62.953M981.172 808.836c0 12.664-3.84 24.566-10.555 34.547-11.515 17.082-31.668 28.402-54.316 28.402-35.891 0-64.871-28.211-64.871-62.949 0-34.742 28.98-62.953 64.871-62.953s64.871 28.211 64.871 62.953M1075.02 931.094c-32.05 0-48.94-26.102-57.77-52.207-8.82-26.102-9.59-52.203-9.59-52.203h-16.508s-3.07 104.218-67.175 104.41z" style="fill:#000;fill-opacity:1;fill-rule:nonzero;stroke:none" transform="matrix(.13333 0 0 -.13333 0 260.917)"/><path d="M954.879 735.52c36.465 36.464 36.465 91.164 36.465 91.164l16.316.191s0-55.852 35.5-91.355" style="fill:#000;fill-opacity:1;fill-rule:nonzero;stroke:none" transform="matrix(.13333 0 0 -.13333 0 260.917)"/><path d="M962.172 852.594c36.465-36.465 91.168-36.465 91.168-36.465v-16.316s-55.856 0-91.36-35.504" style="fill:#000;fill-opacity:1;fill-rule:nonzero;stroke:none" transform="matrix(.13333 0 0 -.13333 0 260.917)"/><path d="M1035.3 852.785c-36.472-36.465-91.171-36.465-91.171-36.465v-16.316s55.851 0 91.361-35.504M1063.7 256.176c0 34.738-28.98 62.949-64.872 62.949-35.89 0-64.871-28.211-64.871-62.949 0-34.742 28.981-62.953 64.871-62.953 35.892 0 64.872 28.211 64.872 62.953M1147.38 375.363c0 34.739-28.98 62.95-64.87 62.95s-64.87-28.211-64.87-62.95c0-34.742 28.98-62.953 64.87-62.953s64.87 28.211 64.87 62.953M981.172 375.746c0 12.668-3.84 24.567-10.555 34.547-11.515 17.082-31.668 28.406-54.316 28.406-35.891 0-64.871-28.215-64.871-62.953s28.98-62.953 64.871-62.953 64.871 28.215 64.871 62.953M1075.02 498.004c-32.05 0-48.94-26.102-57.77-52.203-8.82-26.106-9.59-52.207-9.59-52.207h-16.508s-3.07 104.219-67.175 104.41z" style="fill:#000;fill-opacity:1;fill-rule:nonzero;stroke:none" transform="matrix(.13333 0 0 -.13333 0 260.917)"/><path d="M954.879 302.43c36.465 36.465 36.465 91.164 36.465 91.164l16.316.191s0-55.851 35.5-91.355" style="fill:#000;fill-opacity:1;fill-rule:nonzero;stroke:none" transform="matrix(.13333 0 0 -.13333 0 260.917)"/><path d="M962.172 419.504c36.465-36.465 91.168-36.465 91.168-36.465v-16.312s-55.856 0-91.36-35.508" style="fill:#000;fill-opacity:1;fill-rule:nonzero;stroke:none" transform="matrix(.13333 0 0 -.13333 0 260.917)"/><path d="M1035.3 419.695c-36.472-36.465-91.171-36.465-91.171-36.465v-16.312s55.851 0 91.361-35.508M615.793 1525.8c0-34.74 28.98-62.95 64.871-62.95s64.871 28.21 64.871 62.95-28.98 62.95-64.871 62.95-64.871-28.21-64.871-62.95M532.113 1406.61c0-34.74 28.981-62.95 64.871-62.95 35.891 0 64.871 28.21 64.871 62.95s-28.98 62.95-64.871 62.95-64.871-28.21-64.871-62.95M698.32 1406.23c0-12.67 3.84-24.57 10.559-34.55 11.516-17.08 31.668-28.41 54.316-28.41 35.891 0 64.871 28.22 64.871 62.96 0 34.73-28.98 62.95-64.871 62.95s-64.875-28.22-64.875-62.95M604.469 1283.97c32.051 0 48.941 26.1 57.769 52.2 8.828 26.11 9.598 52.21 9.598 52.21h16.508s3.07-104.22 67.172-104.41z" style="fill:#000;fill-opacity:1;fill-rule:nonzero;stroke:none" transform="matrix(.13333 0 0 -.13333 0 260.917)"/><path d="M724.617 1479.54c-36.469-36.46-36.469-91.16-36.469-91.16l-16.312-.19s0 55.85-35.508 91.35" style="fill:#000;fill-opacity:1;fill-rule:nonzero;stroke:none" transform="matrix(.13333 0 0 -.13333 0 260.917)"/><path d="M717.324 1362.47c-36.469 36.46-91.168 36.46-91.168 36.46v16.32s55.852 0 91.36 35.5" style="fill:#000;fill-opacity:1;fill-rule:nonzero;stroke:none" transform="matrix(.13333 0 0 -.13333 0 260.917)"/><path d="M644.199 1362.28c36.465 36.46 91.164 36.46 91.164 36.46v16.31s-55.851 0-91.355 35.51M744.391 472.719c0 34.738-28.985 62.953-64.875 62.953s-64.871-28.215-64.871-62.953c0-34.742 28.98-62.953 64.871-62.953s64.875 28.211 64.875 62.953M828.07 591.906c0 34.739-28.98 62.953-64.871 62.953s-64.875-28.214-64.875-62.953c0-34.742 28.985-62.953 64.875-62.953s64.871 28.211 64.871 62.953M661.859 592.289c0 12.668-3.839 24.566-10.554 34.547-11.516 17.082-31.668 28.406-54.317 28.406-35.89 0-64.871-28.215-64.871-62.953s28.981-62.953 64.871-62.953c35.891 0 64.871 28.215 64.871 62.953M755.711 714.547c-32.051 0-48.941-26.102-57.77-52.203-8.828-26.102-9.593-52.207-9.593-52.207H671.84s-3.07 104.218-67.176 104.41z" style="fill:#000;fill-opacity:1;fill-rule:nonzero;stroke:none" transform="matrix(.13333 0 0 -.13333 0 260.917)"/><path d="M635.566 518.973c36.465 36.465 36.465 91.164 36.465 91.164l16.317.195s0-55.852 35.504-91.359" style="fill:#000;fill-opacity:1;fill-rule:nonzero;stroke:none" transform="matrix(.13333 0 0 -.13333 0 260.917)"/><path d="M642.859 636.047c36.465-36.465 91.164-36.465 91.164-36.465V583.27s-55.851 0-91.355-35.508" style="fill:#000;fill-opacity:1;fill-rule:nonzero;stroke:none" transform="matrix(.13333 0 0 -.13333 0 260.917)"/><path d="M715.984 636.242c-36.468-36.469-91.168-36.469-91.168-36.469v-16.312s55.852 0 91.36-35.508" style="fill:#000;fill-opacity:1;fill-rule:nonzero;stroke:none" transform="matrix(.13333 0 0 -.13333 0 260.917)"/></svg>