<?xml version="1.0" encoding="UTF-8" standalone="no"?>
<!-- Created with Inkscape (http://www.inkscape.org/) -->

<svg
   version="1.1"
   id="svg1"
   width="180.27953"
   height="260.85278"
   viewBox="0 0 180.27953 260.85278"
   xmlns="http://www.w3.org/2000/svg"
   xmlns:svg="http://www.w3.org/2000/svg">
  <defs
     id="defs1" />
  <g
     id="g1"
     transform="translate(2.796582e-5,0.06350344)">
    <path
       id="path1"
       d="M 9.99609,65.418 C 9.99609,35.1875 34.707,10.4766 64.9375,10.4766 H 1287.24 c 30.15,0 54.86,24.7109 54.86,54.9414 V 1891.94 c 0,30.23 -24.71,54.94 -54.86,54.94 H 64.9375 c -30.2305,0 -54.94141,-24.71 -54.94141,-54.94 V 65.418"
       style="fill:#ffffff;fill-opacity:1;fill-rule:nonzero;stroke:none"
       transform="matrix(0.13333333,0,0,-0.13333333,0,260.85333)" />
    <path
       id="path2"
       d="M 9.99609,65.418 C 9.99609,35.1875 34.707,10.4766 64.9375,10.4766 H 1287.24 c 30.15,0 54.86,24.7109 54.86,54.9414 V 1891.94 c 0,30.23 -24.71,54.94 -54.86,54.94 H 64.9375 c -30.2305,0 -54.94141,-24.71 -54.94141,-54.94 z"
       style="fill:none;stroke:#000000;stroke-width:19.9926;stroke-linecap:butt;stroke-linejoin:miter;stroke-miterlimit:10;stroke-dasharray:none;stroke-opacity:1"
       transform="matrix(0.13333333,0,0,-0.13333333,0,260.85333)" />
    <path
       id="path3"
       d="m 40.4688,1657.76 v 21.48 h 11.5625 l 53.2737,243.6 h 22.652 l 53.367,-243.6 h 13.457 v -21.48 h -66.254 v 21.48 h 13.836 l -11.656,54.15 H 77.5313 l -11.8516,-54.15 h 16.875 v -21.48 H 40.4688 m 41.707,97.12 h 43.8872 l -21.801,101.38 -22.0862,-101.38"
       style="fill:#e6180a;fill-opacity:1;fill-rule:nonzero;stroke:none"
       transform="matrix(0.13333333,0,0,-0.13333333,0,260.85333)" />
    <path
       id="path4"
       d="m 1319.63,307.566 v -21.484 h -11.57 L 1254.79,42.4922 h -22.65 l -53.37,243.5898 h -13.46 v 21.484 h 66.26 v -21.484 h -13.84 l 11.66,-54.148 h 53.17 l 11.85,54.148 h -16.87 v 21.484 h 42.09 m -41.71,-97.117 h -43.89 l 21.81,-101.379 22.08,101.379"
       style="fill:#e6180a;fill-opacity:1;fill-rule:nonzero;stroke:none"
       transform="matrix(0.13333333,0,0,-0.13333333,0,260.85333)" />
    <path
       id="path5"
       d="m 119.156,1545.8 c 20.473,0 40.946,0 61.418,0 -6.996,0.31 -12.949,4.84 -18.57,8.58 -12.629,9.53 -24.453,20.45 -33.797,33.23 -4.355,6.43 -8.937,13.66 -9.051,21.69 m 61.418,-63.5 c -8.879,-0.28 -16.461,-5.92 -23.226,-11.14 -11.953,-10.03 -22.301,-21.97 -31.035,-34.9 -3.208,-5.35 -6.981,-11.02 -7.157,-17.46 0,21.17 0,42.33 0,63.5 m 0,-63.5 c -0.304,9.46 -6.062,17.65 -11.5,24.96 -9.6912,12.07 -21.1755,22.76 -33.8122,31.69 -4.9102,3.06 -10.125,6.7 -16.1055,6.85 20.4726,0 40.9453,0 61.4177,0 m -61.4177,0 c 8.875,0.28 16.457,5.93 23.2226,11.13 11.9571,10.05 22.3051,21.99 31.0391,34.91 3.207,5.35 6.977,11.02 7.156,17.46 0,-21.17 0,-42.33 0,-63.5"
       style="fill:#e6180a;fill-opacity:1;fill-rule:nonzero;stroke:none"
       transform="matrix(0.13333333,0,0,-0.13333333,0,260.85333)" />
    <path
       id="path6"
       d="m 1240.94,419.523 c -20.48,0 -40.95,0 -61.42,0 7,-0.308 12.95,-4.835 18.57,-8.578 12.63,-9.527 24.46,-20.449 33.8,-33.23 4.36,-6.43 8.93,-13.656 9.05,-21.688 m -61.42,63.496 c 8.88,0.282 16.46,5.93 23.23,11.141 11.95,10.035 22.3,21.977 31.03,34.899 3.21,5.351 6.98,11.019 7.16,17.457 0,-21.168 0,-42.329 0,-63.497 m 0,63.497 c 0.3,-9.45 6.06,-17.641 11.5,-24.95 9.69,-12.074 21.17,-22.757 33.81,-31.691 4.91,-3.063 10.13,-6.707 16.11,-6.856 -20.48,0 -40.95,0 -61.42,0 m 61.42,0 c -8.88,-0.277 -16.46,-5.925 -23.23,-11.128 -11.95,-10.047 -22.3,-21.985 -31.03,-34.911 -3.21,-5.347 -6.98,-11.019 -7.16,-17.457 0,21.168 0,42.328 0,63.496"
       style="fill:#e6180a;fill-opacity:1;fill-rule:nonzero;stroke:none"
       transform="matrix(0.13333333,0,0,-0.13333333,0,260.85333)" />
    <path
       id="path7"
       d="m 680.047,1037.6 c 49.133,0 98.269,0 147.402,0 -16.789,0.75 -31.074,11.61 -44.566,20.59 -30.305,22.86 -58.692,49.08 -81.11,79.75 -10.46,15.44 -21.449,32.78 -21.726,52.05 M 827.449,1037.6 c -21.304,-0.67 -39.5,-14.22 -55.734,-26.73 -28.695,-24.093 -53.531,-52.745 -74.488,-83.761 -7.7,-12.839 -16.758,-26.449 -17.18,-41.898 0,50.805 0,101.586 0,152.389 m 0,-152.389 c -0.727,22.684 -14.547,42.34 -27.598,59.883 -23.261,28.98 -50.824,54.621 -81.148,76.056 -11.785,7.35 -24.297,16.1 -38.653,16.45 49.133,0 98.266,0 147.399,0 m -147.399,0 c 21.301,0.67 39.497,14.22 55.735,26.72 28.691,24.11 53.527,52.76 74.488,83.77 7.695,12.84 16.746,26.45 17.176,41.9 0,-50.8 0,-101.58 0,-152.39"
       style="fill:#e6180a;fill-opacity:1;fill-rule:nonzero;stroke:none"
       transform="matrix(0.13333333,0,0,-0.13333333,0,260.85333)" />
  </g>
</svg>
