<?xml version="1.0" encoding="UTF-8" standalone="no"?>
<!-- Created with Inkscape (http://www.inkscape.org/) -->

<svg
   version="1.1"
   id="svg1"
   width="180.27953"
   height="260.85278"
   viewBox="0 0 180.27953 260.85278"
   xmlns="http://www.w3.org/2000/svg"
   xmlns:svg="http://www.w3.org/2000/svg">
  <defs
     id="defs1" />
  <g
     id="g1"
     transform="translate(2.796582e-5,0.06350344)">
    <path
       id="path1"
       d="M 9.99609,65.418 C 9.99609,35.1875 34.707,10.4766 64.9375,10.4766 H 1287.24 c 30.15,0 54.86,24.7109 54.86,54.9414 V 1891.94 c 0,30.22 -24.71,54.94 -54.86,54.94 H 64.9375 c -30.2305,0 -54.94141,-24.72 -54.94141,-54.94 V 65.418"
       style="fill:#ffffff;fill-opacity:1;fill-rule:nonzero;stroke:none"
       transform="matrix(0.13333333,0,0,-0.13333333,0,260.85333)" />
    <path
       id="path2"
       d="M 9.99609,65.418 C 9.99609,35.1875 34.707,10.4766 64.9375,10.4766 H 1287.24 c 30.15,0 54.86,24.7109 54.86,54.9414 V 1891.94 c 0,30.22 -24.71,54.94 -54.86,54.94 H 64.9375 c -30.2305,0 -54.94141,-24.72 -54.94141,-54.94 z"
       style="fill:none;stroke:#000000;stroke-width:19.9926;stroke-linecap:butt;stroke-linejoin:miter;stroke-miterlimit:10;stroke-dasharray:none;stroke-opacity:1"
       transform="matrix(0.13333333,0,0,-0.13333333,0,260.85333)" />
    <path
       id="path3"
       d="m 40.4688,1657.77 v 21.48 h 11.5625 l 53.2737,243.59 h 22.652 l 53.367,-243.59 h 13.457 v -21.48 h -66.254 v 21.48 h 13.836 l -11.656,54.15 H 77.5313 l -11.8516,-54.15 h 16.875 v -21.48 H 40.4688 m 41.707,97.12 h 43.8872 l -21.801,101.38 -22.0862,-101.38"
       style="fill:#e6180a;fill-opacity:1;fill-rule:nonzero;stroke:none"
       transform="matrix(0.13333333,0,0,-0.13333333,0,260.85333)" />
    <path
       id="path4"
       d="m 1319.63,307.566 v -21.484 h -11.57 L 1254.79,42.4922 h -22.65 l -53.37,243.5898 h -13.46 v 21.484 h 66.26 v -21.484 h -13.84 l 11.66,-54.148 h 53.17 l 11.85,54.148 h -16.87 v 21.484 h 42.09 m -41.71,-97.117 h -43.89 l 21.81,-101.379 22.08,101.379"
       style="fill:#e6180a;fill-opacity:1;fill-rule:nonzero;stroke:none"
       transform="matrix(0.13333333,0,0,-0.13333333,0,260.85333)" />
    <path
       id="path5"
       d="m 180.492,1577.24 c -0.078,-37.67 -47.262,-65.1 -61.097,-94.93 -13.993,29.75 -61.2583,56.94 -61.5747,94.61 -0.082,17.75 13.6719,32.22 30.5469,32.22 16.9528,0 30.7888,-14.31 30.7888,-32.06 0,17.83 13.676,32.22 30.547,32.22 16.953,0.09 30.711,-14.31 30.789,-32.06"
       style="fill:#e6180a;fill-opacity:1;fill-rule:nonzero;stroke:none"
       transform="matrix(0.13333333,0,0,-0.13333333,0,260.85333)" />
    <path
       id="path6"
       d="m 1179.6,388.098 c 0.08,37.664 47.26,65.093 61.1,94.922 14,-29.747 61.26,-56.938 61.58,-94.602 0.08,-17.754 -13.68,-32.23 -30.55,-32.23 -16.96,0 -30.79,14.316 -30.79,32.07 0,-17.836 -13.68,-32.231 -30.55,-32.231 -16.95,-0.078 -30.71,14.317 -30.79,32.071"
       style="fill:#e6180a;fill-opacity:1;fill-rule:nonzero;stroke:none"
       transform="matrix(0.13333333,0,0,-0.13333333,0,260.85333)" />
    <path
       id="path7"
       d="m 827.258,1113.03 c -0.192,-90.4 -113.43,-156.229 -146.633,-227.819 -33.59,71.398 -147.02,136.659 -147.785,227.059 -0.192,42.6 32.82,77.34 73.316,77.34 40.688,0 73.891,-34.35 73.891,-76.96 0,42.8 32.82,77.35 73.316,77.35 40.692,0.19 73.703,-34.36 73.895,-76.97"
       style="fill:#e6180a;fill-opacity:1;fill-rule:nonzero;stroke:none"
       transform="matrix(0.13333333,0,0,-0.13333333,0,260.85333)" />
  </g>
</svg>
