<?xml version="1.0" encoding="UTF-8" standalone="no"?>
<!-- Created with Inkscape (http://www.inkscape.org/) -->

<svg
   version="1.1"
   id="svg1"
   width="180.27953"
   height="260.85278"
   viewBox="0 0 180.27953 260.85278"
   xmlns="http://www.w3.org/2000/svg"
   xmlns:svg="http://www.w3.org/2000/svg">
  <defs
     id="defs1" />
  <g
     id="g1"
     transform="translate(2.796582e-5,0.06350344)">
    <path
       id="path1"
       d="M 9.99609,65.418 C 9.99609,35.1875 34.707,10.4766 64.9375,10.4766 H 1287.24 c 30.15,0 54.86,24.7109 54.86,54.9414 V 1891.94 c 0,30.22 -24.71,54.94 -54.86,54.94 H 64.9375 c -30.2305,0 -54.94141,-24.72 -54.94141,-54.94 V 65.418"
       style="fill:#ffffff;fill-opacity:1;fill-rule:nonzero;stroke:none"
       transform="matrix(0.13333333,0,0,-0.13333333,0,260.85333)" />
    <path
       id="path2"
       d="M 9.99609,65.418 C 9.99609,35.1875 34.707,10.4766 64.9375,10.4766 H 1287.24 c 30.15,0 54.86,24.7109 54.86,54.9414 V 1891.94 c 0,30.22 -24.71,54.94 -54.86,54.94 H 64.9375 c -30.2305,0 -54.94141,-24.72 -54.94141,-54.94 z"
       style="fill:none;stroke:#000000;stroke-width:19.9926;stroke-linecap:butt;stroke-linejoin:miter;stroke-miterlimit:10;stroke-dasharray:none;stroke-opacity:1"
       transform="matrix(0.13333333,0,0,-0.13333333,0,260.85333)" />
    <path
       id="path3"
       d="m 40.4688,1657.76 v 21.48 h 11.5625 l 53.2737,243.6 h 22.652 l 53.367,-243.6 h 13.457 v -21.48 h -66.254 v 21.48 h 13.836 l -11.656,54.15 H 77.5313 l -11.8516,-54.15 h 16.875 v -21.48 H 40.4688 m 41.707,97.12 h 43.8872 l -21.801,101.38 -22.0862,-101.38"
       style="fill:#000000;fill-opacity:1;fill-rule:nonzero;stroke:none"
       transform="matrix(0.13333333,0,0,-0.13333333,0,260.85333)" />
    <path
       id="path4"
       d="m 1319.63,307.566 v -21.484 h -11.57 L 1254.79,42.4883 h -22.65 l -53.37,243.5937 h -13.46 v 21.484 h 66.26 v -21.484 h -13.84 l 11.66,-54.152 h 53.17 l 11.85,54.152 h -16.87 v 21.484 h 42.09 m -41.71,-97.117 h -43.89 l 21.81,-101.379 22.08,101.379"
       style="fill:#000000;fill-opacity:1;fill-rule:nonzero;stroke:none"
       transform="matrix(0.13333333,0,0,-0.13333333,0,260.85333)" />
    <path
       id="path5"
       d="m 92.3672,1583.07 c 0,-14.48 12.0738,-26.23 27.0278,-26.23 14.957,0 27.031,11.75 27.031,26.23 0,14.47 -12.074,26.23 -27.031,26.23 -14.954,0 -27.0278,-11.76 -27.0278,-26.23"
       style="fill:#000000;fill-opacity:1;fill-rule:nonzero;stroke:none"
       transform="matrix(0.13333333,0,0,-0.13333333,0,260.85333)" />
    <path
       id="path6"
       d="m 57.5,1533.41 c 0,-14.48 12.0742,-26.23 27.0273,-26.23 14.9571,0 27.0317,11.75 27.0317,26.23 0,14.47 -12.0746,26.23 -27.0317,26.23 -14.9531,0 -27.0273,-11.76 -27.0273,-26.23"
       style="fill:#000000;fill-opacity:1;fill-rule:nonzero;stroke:none"
       transform="matrix(0.13333333,0,0,-0.13333333,0,260.85333)" />
    <path
       id="path7"
       d="m 126.754,1533.25 c 0,-5.28 1.598,-10.24 4.398,-14.4 4.797,-7.12 13.196,-11.83 22.629,-11.83 14.957,0 27.032,11.75 27.032,26.23 0,14.47 -12.075,26.23 -27.032,26.23 -14.953,0 -27.027,-11.76 -27.027,-26.23"
       style="fill:#000000;fill-opacity:1;fill-rule:nonzero;stroke:none"
       transform="matrix(0.13333333,0,0,-0.13333333,0,260.85333)" />
    <path
       id="path8"
       d="m 87.6484,1482.3 c 13.3556,0 20.3906,10.88 24.0706,21.76 3.679,10.87 4,21.75 4,21.75 h 6.875 c 0,0 1.281,-43.42 27.992,-43.51 H 87.6484"
       style="fill:#000000;fill-opacity:1;fill-rule:nonzero;stroke:none"
       transform="matrix(0.13333333,0,0,-0.13333333,0,260.85333)" />
    <path
       id="path9"
       d="m 137.707,1563.79 c -15.191,-15.19 -15.191,-37.98 -15.191,-37.98 l -6.797,-0.08 c 0,0 0,23.27 -14.797,38.06"
       style="fill:#000000;fill-opacity:1;fill-rule:nonzero;stroke:none"
       transform="matrix(0.13333333,0,0,-0.13333333,0,260.85333)" />
    <path
       id="path10"
       d="m 134.668,1515.01 c -15.191,15.2 -37.9844,15.2 -37.9844,15.2 v 6.79 c 0,0 23.2734,0 38.0664,14.8"
       style="fill:#000000;fill-opacity:1;fill-rule:nonzero;stroke:none"
       transform="matrix(0.13333333,0,0,-0.13333333,0,260.85333)" />
    <path
       id="path11"
       d="m 104.203,1514.93 c 15.192,15.2 37.985,15.2 37.985,15.2 v 6.8 c 0,0 -23.274,0 -38.067,14.79"
       style="fill:#000000;fill-opacity:1;fill-rule:nonzero;stroke:none"
       transform="matrix(0.13333333,0,0,-0.13333333,0,260.85333)" />
    <path
       id="path12"
       d="m 1267.73,382.258 c 0,14.476 -12.08,26.23 -27.03,26.23 -14.95,0 -27.03,-11.754 -27.03,-26.23 0,-14.473 12.08,-26.231 27.03,-26.231 14.95,0 27.03,11.758 27.03,26.231"
       style="fill:#000000;fill-opacity:1;fill-rule:nonzero;stroke:none"
       transform="matrix(0.13333333,0,0,-0.13333333,0,260.85333)" />
    <path
       id="path13"
       d="m 1302.59,431.918 c 0,14.477 -12.07,26.23 -27.02,26.23 -14.96,0 -27.03,-11.753 -27.03,-26.23 0,-14.473 12.07,-26.227 27.03,-26.227 14.95,0 27.02,11.754 27.02,26.227"
       style="fill:#000000;fill-opacity:1;fill-rule:nonzero;stroke:none"
       transform="matrix(0.13333333,0,0,-0.13333333,0,260.85333)" />
    <path
       id="path14"
       d="m 1233.34,432.078 c 0,5.281 -1.6,10.238 -4.4,14.395 -4.8,7.117 -13.19,11.836 -22.63,11.836 -14.95,0 -27.03,-11.754 -27.03,-26.231 0,-14.473 12.08,-26.23 27.03,-26.23 14.96,0 27.03,11.757 27.03,26.23"
       style="fill:#000000;fill-opacity:1;fill-rule:nonzero;stroke:none"
       transform="matrix(0.13333333,0,0,-0.13333333,0,260.85333)" />
    <path
       id="path15"
       d="m 1272.45,483.02 c -13.36,0 -20.4,-10.875 -24.07,-21.75 -3.68,-10.875 -4,-21.754 -4,-21.754 h -6.88 c 0,0 -1.28,43.425 -27.99,43.504 h 62.94"
       style="fill:#000000;fill-opacity:1;fill-rule:nonzero;stroke:none"
       transform="matrix(0.13333333,0,0,-0.13333333,0,260.85333)" />
    <path
       id="path16"
       d="m 1222.39,401.531 c 15.19,15.196 15.19,37.985 15.19,37.985 l 6.8,0.082 c 0,0 0,-23.274 14.79,-38.067"
       style="fill:#000000;fill-opacity:1;fill-rule:nonzero;stroke:none"
       transform="matrix(0.13333333,0,0,-0.13333333,0,260.85333)" />
    <path
       id="path17"
       d="m 1225.43,450.313 c 15.19,-15.196 37.98,-15.196 37.98,-15.196 v -6.797 c 0,0 -23.27,0 -38.07,-14.793"
       style="fill:#000000;fill-opacity:1;fill-rule:nonzero;stroke:none"
       transform="matrix(0.13333333,0,0,-0.13333333,0,260.85333)" />
    <path
       id="path18"
       d="m 1255.89,450.395 c -15.19,-15.196 -37.98,-15.196 -37.98,-15.196 v -6.797 c 0,0 23.27,0 38.06,-14.797"
       style="fill:#000000;fill-opacity:1;fill-rule:nonzero;stroke:none"
       transform="matrix(0.13333333,0,0,-0.13333333,0,260.85333)" />
    <path
       id="path19"
       d="m 615.75,1127.04 c 0,-34.74 28.984,-62.95 64.875,-62.95 35.891,0 64.871,28.21 64.871,62.95 0,34.74 -28.98,62.96 -64.871,62.96 -35.891,0 -64.875,-28.22 -64.875,-62.96"
       style="fill:#000000;fill-opacity:1;fill-rule:nonzero;stroke:none"
       transform="matrix(0.13333333,0,0,-0.13333333,0,260.85333)" />
    <path
       id="path20"
       d="m 532.07,1007.86 c 0,-34.743 28.981,-62.958 64.871,-62.958 35.891,0 64.875,28.215 64.875,62.958 0,34.73 -28.984,62.95 -64.875,62.95 -35.89,0 -64.871,-28.22 -64.871,-62.95"
       style="fill:#000000;fill-opacity:1;fill-rule:nonzero;stroke:none"
       transform="matrix(0.13333333,0,0,-0.13333333,0,260.85333)" />
    <path
       id="path21"
       d="m 698.281,1007.47 c 0,-12.665 3.84,-24.568 10.555,-34.548 11.516,-17.078 31.668,-28.402 54.316,-28.402 35.891,0 64.871,28.21 64.871,62.95 0,34.74 -28.98,62.95 -64.871,62.95 -35.89,0 -64.871,-28.21 -64.871,-62.95"
       style="fill:#000000;fill-opacity:1;fill-rule:nonzero;stroke:none"
       transform="matrix(0.13333333,0,0,-0.13333333,0,260.85333)" />
    <path
       id="path22"
       d="m 604.43,885.211 c 32.05,0 48.941,26.105 57.769,52.207 8.828,26.102 9.598,52.203 9.598,52.203 h 16.504 c 0,0 3.07,-104.219 67.176,-104.41 H 604.43"
       style="fill:#000000;fill-opacity:1;fill-rule:nonzero;stroke:none"
       transform="matrix(0.13333333,0,0,-0.13333333,0,260.85333)" />
    <path
       id="path23"
       d="m 724.574,1080.79 c -36.465,-36.47 -36.465,-91.169 -36.465,-91.169 l -16.312,-0.191 c 0,0 0,55.85 -35.508,91.36"
       style="fill:#000000;fill-opacity:1;fill-rule:nonzero;stroke:none"
       transform="matrix(0.13333333,0,0,-0.13333333,0,260.85333)" />
    <path
       id="path24"
       d="m 717.281,963.711 c -36.465,36.469 -91.164,36.469 -91.164,36.469 v 16.31 c 0,0 55.852,0 91.356,35.51"
       style="fill:#000000;fill-opacity:1;fill-rule:nonzero;stroke:none"
       transform="matrix(0.13333333,0,0,-0.13333333,0,260.85333)" />
    <path
       id="path25"
       d="m 644.156,963.52 c 36.469,36.464 91.168,36.464 91.168,36.464 v 16.316 c 0,0 -55.851,0 -91.359,35.5"
       style="fill:#000000;fill-opacity:1;fill-rule:nonzero;stroke:none"
       transform="matrix(0.13333333,0,0,-0.13333333,0,260.85333)" />
    <path
       id="path26"
       d="m 764.105,749.043 c 9.262,-3.789 -0.367,-9.129 0,0 m -128.054,0 c 0,-14.02 10.75,-2.355 0,0 m 18.195,8.902 c 5.637,0.121 14.645,-7.152 4.899,-9.601 -6.372,-1.602 -13.747,7.879 -4.899,9.601 m 46.18,-9.601 c -18.641,5.922 4.39,20.636 0,0 m -65.774,14.695 c 3.528,-7.394 5.715,-20.328 16.094,-20.293 -3.996,5.606 -7.348,7.516 -8.398,14.695 2.148,-1.687 12.644,-11.476 11.574,-13.929 -5.352,-12.34 -19.684,0.054 -24.867,4.726 -13.414,12.059 -14.785,12.157 5.597,14.801 m -24.351,1.008 c 1.961,-3.938 -0.887,-5.067 0,0 m 123.015,4.59 c -0.785,-1.551 -1.953,-2.485 -3.5,-2.797 0.45,1.699 1.723,2.699 3.5,2.797 m -7,-0.699 c -1.851,0.925 -3.722,1.156 -5.597,0.699 1.703,-1.594 2.64,-3.461 2.801,-5.598 h -3.5 c 2.722,-9.543 2.457,-16.598 -6.18,-23.293 -3.496,-2.715 -9.012,-6.668 -10.817,-1.898 3.051,4.656 12.301,48.183 23.293,30.09 M 607.363,765.84 c -1.765,-11.82 -21.433,-0.902 -20.992,6.996 6.949,-3.106 13.609,-3.766 20.992,-6.996 m 105.66,6.996 c -1.66,-3.996 -4.347,-7.137 -8.398,-8.398 -0.215,4.296 2.934,11.234 8.398,8.398 m -102.863,1.398 c 3.848,-5.148 -5.207,-6.546 0,0 m 39.887,-8.394 c 0.16,-2.242 -33.891,-3.305 -32.887,4.195 8.086,-2.043 5.121,6.117 14.086,3.695 3.727,-1.007 8.297,-0.734 11.699,-2.292 3.352,-3.43 2.426,-5.559 7.102,-5.598 m 146.945,6.996 c 3.371,-0.117 6.617,0.797 9.797,2.098 -3.332,0.589 -6.922,-0.204 -9.797,-2.098 m -64.375,2.801 0.699,-0.703 c -0.91,-3.75 -6.523,-4.961 -0.699,0.703 m -64.379,4.195 c 2.758,-3.504 5.36,-8.352 8.399,-10.496 2.168,4.269 -3.059,13.359 -8.399,10.496 m 7.7,-18.891 c -6.473,1.618 -20.516,15.668 -12.633,21.188 12.695,8.887 18.754,-7.691 20.558,-16.18 0.934,-4.386 19.442,-27.597 10.258,-28.59 -5.168,-0.379 -23.098,18.871 -18.183,23.582 m 109.16,27.289 c 0.965,-0.3 1.48,-3.839 3.496,0 -1.469,0.778 -2.246,-0.222 -3.496,0 m -219.719,11.895 c -0.805,-3.777 -0.566,-7.508 0.699,-11.195 -4.508,2.777 -13.484,15.304 -0.699,11.195 m 194.527,2.102 c 4.403,-19.922 -27.586,-7.039 -27.289,-23.094 -10.867,14.023 12.813,27.191 9.793,13.996 5.957,2.644 11.442,6.449 17.496,9.098 m -228.117,8.394 c 7.895,-6.094 17.879,-8.648 24.449,-16.211 1.141,-1.308 7.426,-7.941 0.043,-6.879 -2.511,-0.66 -4.953,5.192 -5.652,5.828 -6.789,3.891 -17.18,9.61 -18.84,17.262 m 215.52,-9.797 c -3.727,0.672 -7.34,4.977 -4.899,9.086 4.535,7.617 9.231,-3.324 4.899,-9.086 m -37.786,14.696 c -0.23,-2.329 -0.468,-4.668 -0.699,-6.997 -2.867,2.231 -2.246,5.184 0.699,6.997 m -6.296,1.398 c 0.25,-3.371 -0.063,-7.004 0,-10.496 -3.043,2.723 -2.938,7.445 0,10.496 m 92.367,4.199 c -0.653,-1.672 -1.403,-2.972 -1.403,-4.898 1.848,0.554 3.016,1.953 3.5,4.199 -0.035,0.055 -2.113,1.336 -2.097,0.699 m -269.403,0 c 3.067,-2.406 4.907,-5.219 4.899,-9.097 -3.828,1.625 -5.828,5.125 -4.899,9.097 m 279.899,7 c -0.469,-1.871 -0.934,-3.73 -1.402,-5.601 2.476,2.289 1.519,6.586 1.402,5.601 m 11.195,4.196 c -3.625,-10.676 -17.426,-17.157 -19.594,-25.891 6.157,1.695 12.512,2.633 18.895,2.801 -2.785,2.148 -6.586,1.441 -10.496,1.398 3.672,5.383 10.223,6.34 14.691,9.797 h -2.797 c 2.028,1.766 3.43,3.863 4.2,6.297 -1.168,-0.231 -2.332,-0.469 -3.5,-0.699 -0.344,16.082 0.125,1.867 -1.399,6.297 m 90.266,7 c -0.903,-9.434 -5.52,-26.153 -18.586,-24.704 -11.418,1.27 -17.215,-19.691 -28.481,-6.511 -5.175,1.277 -16.093,-3.887 -18.359,1.125 -3.617,7.976 27.738,7.437 31.137,6.297 -5.742,8.168 8.07,7.593 12.597,5.597 0.993,9.449 14.211,13.438 21.692,18.196 m -357.567,6.296 c 1.356,-4.086 5.024,-8.136 3.496,-12.597 -3.503,0.644 -7.007,1.109 -10.496,0.703 5.907,-10.301 16.2,-1.625 20.993,-13.297 -6.661,-0.25 -9.321,3.738 -16.094,3.5 1.765,-2.102 3.59,-1.633 6.301,-2.102 -2.149,-3.336 -4.02,-2.523 -4.899,-5.597 7.113,0.351 20.824,2.785 25.188,-4.899 -3.848,-0.613 -7.059,-0.406 -9.793,-2.797 4.008,-0.043 7.968,0.344 11.894,1.153 5.778,-3.723 11.274,-7.949 17.492,-10.949 -2.386,2.988 -4.937,7.082 -4.898,11.195 -6.652,-0.246 -5.996,0.168 -8.207,6.816 -4.176,12.582 -10.125,15.891 -4.387,0.18 -12.308,1.758 -16.676,22.883 -26.59,28.691 m 238.61,-48.281 c 1.148,5.438 -6.246,-5.199 1.402,6.297 -6.328,-3.023 -13.816,-2.598 -19.594,-6.297 2.602,2.488 3.899,5.274 4.2,9.094 -6.985,-2.692 -11.184,-11 -2.801,-13.293 -1.196,-6.676 -8.551,-6.535 -13.735,-8.356 -6.418,-2.253 -14.148,-11.117 -19.851,-11.937 5.703,11.09 11.734,10.523 20.922,19.133 2.246,2.097 11.746,24.539 3.918,20.535 -4.317,-2.203 -13.164,0.523 -11.196,7.164 4.051,11.672 12.418,-2.355 17.145,-1.348 4.191,-2.715 6.66,-5.73 11.894,-3.687 9.454,3.687 5.625,19.605 13.993,22.887 2.675,1.05 5.968,-3.618 9.449,-2.891 7.051,1.484 8.187,14.004 14.344,14.738 6.011,2.09 5.304,-6.207 9.796,-8.32 6.348,-2.996 12.055,6.871 16.442,-1.035 2.183,-3.926 -0.301,-6.426 -2.461,-9.602 -9.824,-7.199 -8.145,-7.164 -9.418,-18.39 -2.148,-5.829 -17.656,-21.887 -24.156,-22.102 -7.633,3.289 -7.711,5.84 -14.996,1.012 -3.114,-5.36 -8.977,-15.293 -15.868,-8.66 -4.355,11.984 -1.253,14.168 10.571,15.058 m 108.461,40.582 c -0.485,0.863 -0.715,1.801 -0.7,2.801 -4.214,-3.945 -6.187,-9.844 -12.597,-11.895 0.504,2.692 0.097,5.442 1.402,8.395 -3.543,-5.633 -4.254,-12.125 -11.898,-13.293 -0.641,3.062 0.058,5.863 2.101,8.395 -6.593,-6.653 -8.515,-15.848 -11.894,-2.797 -2.563,-1.317 -8.281,-19.852 -16.797,-13.141 -6.387,5.031 6.867,21.258 11.898,23.895 10.399,-0.719 12.524,6.597 20.289,10.3 6.028,2.868 11.133,-1.086 18.125,1.336 4.801,1.664 13.399,3.043 13.344,-4.199 -0.043,-6.394 -8.808,-7.016 -13.273,-9.797 M 454.82,858.203 c -1.281,-3.637 1.356,-7.82 3.496,-10.496 -6.101,2.766 -12.097,7.543 -18.191,9.098 3.926,-5.95 10.293,-9.055 14.695,-13.996 -1.953,-0.391 -2.554,-0.641 -4.199,-0.7 v -1.398 c 14.492,-0.539 24.82,-9.781 39.184,-13.297 -4.668,6.762 -11.293,15.258 -18.192,19.594 1.301,-4.156 4.512,-7.11 6.297,-11.195 -13.113,3.421 -14.687,15.933 -23.09,22.39 m 146.246,-67.176 c -10.742,3.34 -28.109,-0.062 -30.789,14.696 -19.644,-6.493 -20.441,2.652 -35.351,12.226 -1.598,2.489 -1.77,4.75 -2.996,7.367 1.531,7.993 -9.5,11.84 -7.828,17.493 1.496,5.082 1.648,3.765 7.714,4.152 8.258,0.516 8.602,4.262 11.618,11.602 9.152,5.75 13.98,-5.922 15.808,-12.946 5.504,-5.242 13.672,-1.359 18.633,-6.152 4.438,-4.289 1.301,-10.777 5.703,-15.317 8.223,-8.468 9.461,0.348 8.824,-12.468 -0.211,-4.242 3.848,-4.961 6.313,-8.098 1.594,-3.547 1.14,-8.746 2.351,-12.555 m 286.891,72.774 c -0.258,-14.785 -19.43,-6.199 0,0 M 901.953,875 c 0.371,-7.027 -4.5,-5.508 0,0 m -44.785,-15.395 c -7.484,1.098 -11.453,14.657 -2.098,14.629 15.403,-5.843 -0.062,-6.031 2.098,-14.629 m -365.961,16.094 c -3.844,-2.379 -13.246,-0.582 -11.199,6.281 0.582,5.774 13.015,3.184 11.199,-6.281 m 407.945,13.293 c -0.179,-3.672 -0.613,-5.844 -3.496,-6.297 -0.183,2.75 0.887,5.598 3.496,6.297 m -32.293,2.102 c 7.844,-5.641 5.711,-19.61 -5.839,-15.348 -8.762,3.234 0.503,13.793 5.839,15.348 m 72.18,3.254 c 11.098,-0.703 4.129,-9.77 -1.168,-13.157 -12.148,-7.781 -6.055,10.602 1.168,13.157 m -30.09,0.242 c 3.379,-5.68 2.477,-14.856 -3.496,-18.192 0.586,5.407 -1.765,14.883 3.496,18.192 m -419.844,7.699 c 6.817,-26.418 -21.515,-6.41 0,0 m 428.942,4.199 c -0.035,-1.41 -0.629,-3.011 -1.399,-4.199 -2.64,0.664 -3.906,0.609 -3.5,2.797 1.637,0.469 3.27,0.93 4.899,1.402 m -475.824,3.496 c 4.695,-2.484 6.32,-12.113 7,-16.793 -4.383,0.797 -7.16,12.512 -7,16.793 m -37.086,12.219 c 7.937,-0.601 13.636,-9.18 3.5,-11.512 -9.09,-0.918 -14.641,8.602 -3.5,11.512 m 32.886,-3.82 c -5.433,6.121 3.551,8.824 0,0 m -37.785,16.793 c -1.347,-4.668 1.266,-4.543 4.899,-6.297 -6.43,-18.34 -18.18,6.984 -4.899,6.297 m 17.496,22.39 c 4.493,-4.289 8.95,-8.472 12.594,-13.293 -6.41,-1.777 -11.414,8.969 -12.594,13.293 m 494.016,4.2 c 1.512,-9.348 2.609,-21.055 -2.102,-29.391 0.032,1.906 -0.949,3.207 -2.796,3.5 0.132,-1.559 0,-15.812 3.73,-13.672 2.77,1.594 9.391,16.961 10.262,20.668 -1.992,-1.656 -4.778,-4.973 -5.598,-6.297 -2.082,8.356 2.156,13.91 4.199,21.692 -3.359,-3.762 -5.273,-1.551 -5.597,3.5 h -2.098 m 39.883,0.699 c -0.938,-5.828 -1.867,-11.664 -2.797,-17.492 3.289,3.82 5.176,14.492 2.797,17.492 m -1.399,15.394 c 0.133,-2.636 0.547,-13.246 -5.597,-9.796 1.125,3.976 2.531,7.976 5.597,9.796 m -544.398,6.996 c 7.789,-6.714 7.238,-9.285 3.5,-18.191 -5.184,4.242 -8.914,12.981 -3.5,18.191 m 540.199,-53.878 c 2.254,3.183 5.297,3.578 9.098,4.898 -10.684,3.5 6.5,14.477 11.894,16.094 -9.125,2.219 6.797,17.597 9.797,21.691 -5.172,-2.539 -7.472,-8.445 -12.594,-11.195 0.161,3.605 0.86,7.101 2.098,10.496 -5.183,-5.449 -7.004,-15.465 -10.789,-22.516 -4.758,-8.875 -11.09,-16.48 -17.199,-24.367 4.238,-4.961 -2.801,-8.012 -7.399,-9.558 -15.406,-5.176 -2.363,6.296 1.493,11.394 3.343,4.414 9.566,11.363 9.566,17.059 -2.801,4.855 -5.703,10.097 -2.703,15.246 2.254,3.863 5.992,3.554 10.238,4.5 5.18,3.836 3.156,4.367 4.449,11.426 2.934,15.968 12.731,5.523 23.184,7.398 12.344,2.211 14.359,-4.711 5.129,-14.078 -1.695,-6.215 3.406,-11.527 1.82,-17.383 -1.371,-5.074 -11.105,-3.777 -14.996,-5.453 -14.324,-11.027 -1.078,-16.035 -23.086,-15.652 m -6.297,60.179 c 0.91,-2.008 0.496,-3.949 -1.398,-4.898 -0.024,1.691 0.48,3.449 1.398,4.898 m -523.406,2.797 c 1.219,-9.668 4.738,-23.015 16.094,-22.39 -1.035,-5.375 -16.633,-13.973 -17.778,-5.129 -0.457,3.476 2.176,6.527 1.543,10.027 -2.55,8.633 -8.527,9.949 0.141,17.492 m 527.606,1.399 c 2.07,-1.735 2.238,-3.52 0,-4.895 -1.063,1.879 -1.063,3.512 0,4.895 M 421.93,986.957 c -1.16,3.77 -1.797,7.445 -0.7,11.195 5.493,-1.203 5.926,-9.699 0.7,-11.195 m 494.019,17.293 c 8.5,0.91 13.008,-9.617 4.196,-9.598 -5.805,-0.613 -9.641,7.008 -4.196,9.598 m 23.789,2.3 c 2.157,-3.2 3.555,-6.698 4.2,-10.495 -3.375,2.215 -5.571,6.665 -4.2,10.495 m -522.004,5.6 c 20.774,-6.97 -4.339,-15.341 0,0 m 522.704,6.3 c -0.231,-0.93 -0.469,-1.87 -0.7,-2.81 2.133,-0.69 4.235,-0.45 6.297,0.7 0.133,-3.55 0.098,-7.07 -0.699,-10.49 -3.805,2.83 -9.734,9.7 -4.898,12.6 m -529.004,0 c 0.953,-3.2 1.421,-6.47 1.402,-9.8 -4.879,0.53 -3.004,7.4 -1.402,9.8 m 553.496,1.65 c 5.457,-1.14 13.847,-12.37 4.199,-13.9 -7.356,-1.16 -8.18,10.31 -4.199,13.9 m -44.086,-11.45 c -12.985,-7 -10.727,10.24 -5.387,10.77 8.664,0.85 2.492,-5.23 5.387,-10.77 m -482.821,-1.4 c -20.5,-6.43 -5.996,32.24 0,0 m -0.699,14.7 c -15.414,2.54 14.914,18.34 0,0 m -23.09,12.59 c 5.352,-2.94 4.829,-10.31 5.598,-15.4 -5.305,3.35 -7.684,9.58 -5.598,15.4 m -13.296,-49.685 c -5.465,3.348 -2.833,11.325 -0.7,16.795 -9.062,-9.466 -6.8,7.28 -4.898,14.69 -1.356,-1.41 -1.93,-0.62 -3.496,-2.79 -5.383,7.65 -11.371,17.86 -5.598,-1.4 -2.262,-0.89 -4.598,-0.65 -7,0.7 4.633,-5.64 10.133,-10.86 11.195,-18.897 -2.964,0.965 -6.543,2.07 -9.796,2.102 2.351,-3.121 7.132,-6.285 11.199,-4.899 2.812,-7.445 5.332,-13.386 9.094,-20.293 -4.567,-1.297 -9.083,-1.492 -12.071,2.098 -2.148,10.309 -8.711,8.516 -11.844,16.793 -0.765,2.016 0.579,4.851 0.86,6.578 1.035,6.498 -4.102,7.368 -6.535,12.408 -3.473,7.2 6.422,12.24 4.547,20.4 -5.305,23.09 13.644,-2.9 20.144,-5.1 6.266,-6.09 2.52,-6.96 5.641,-15.04 1.379,-3.58 7.011,-4.68 7.984,-8.06 1.336,-4.971 -5.66,-12.835 -8.726,-16.085 m 12.597,60.185 c 1.246,-2.24 2.653,-3.09 1.399,-4.9 -3.008,0.89 -2.36,2.82 -3.5,4.9 h 2.101 m 531.102,-21.7 c -4.66,2.7 -4.254,6.12 -4.199,11.9 -3.563,6.44 -5.934,5.25 -4.262,12.36 5.312,22.6 8.301,-21.16 8.461,-24.26 m -525.504,21.7 c -4.856,31.78 14.359,13.58 0,0 m 521.305,30.78 c 0.519,-4.11 0.828,-8.4 0.699,-12.59 -4.875,3.73 -6.004,9.23 -0.699,12.59 m -524.805,1.4 c 1.961,-4.59 1.457,-9.79 0,-14.69 -5.879,4.12 -2.848,11.08 0,14.69 m 504.512,1.4 c -0.348,-4.2 -1.516,-8.17 -3.497,-11.89 -5.093,1.58 -6.585,4.81 -9.796,1.4 2.964,-1.03 10.328,-6.68 13.656,-4.97 2.75,1.42 3.984,14.6 -0.363,15.46 m -494.016,-8.39 c -4.633,3 -9.566,11.26 -9.797,16.79 5.824,-3.12 8.91,-10.34 9.797,-16.79 m -31.488,26.59 c -0.77,-4.15 -0.782,-17.2 -9.364,-8.07 -6.078,6.47 3.864,8.53 9.364,8.07 m 582.183,-5.6 c -4.679,-0.4 -15.332,-5.69 -12.152,4.9 10.398,13.97 8.836,1.01 12.152,-4.9 m -40.586,11.89 c 0.227,-0.86 0.024,-1.57 -0.699,-2.09 -1.726,1.53 -1.742,2.37 0.699,2.09 m -517.804,8.4 c 3.386,-4.59 2.953,-9.71 0.699,-14.69 -5.153,3.13 -4.516,10.44 -0.699,14.69 m -23.793,4.2 c -0.832,-1.3 -1.301,-2.7 -1.399,-4.2 7.641,0.51 -3.375,-13.34 -8.629,-10.19 -6.449,3.85 2.977,21.73 10.028,14.39 m 531.101,-62.28 c 2.547,-7.32 6.992,-13.78 9.797,-20.99 -13.043,1.64 -11.504,14.34 -22.742,16.42 -11.32,2.1 -7.27,11.52 -12.242,19.26 -2.313,3.59 -8.313,4.51 -7.532,9.81 6.801,13.6 12.946,4.49 22.223,-1.4 1.219,5.03 6.469,20.56 1.402,23.09 -0.632,-3.46 -1.105,-7.05 -1.402,-10.49 -5.254,6.21 -3.32,15.71 -6.297,22.39 -1.414,-9.72 1.598,-19.16 2.801,-28.69 -8.684,4.92 -23.645,14.48 -15.695,25.56 8.304,6.25 6.722,9.09 8.191,17.73 1.352,7.91 13.582,1.74 14.793,-3.41 1.149,-4.86 -1.488,-9.4 3.551,-12.94 3.855,-2.7 4.644,-6.06 2.328,-10.14 -4.5,-7.93 4.437,-9.08 6.984,-15.4 2.141,-5.31 -4.996,-9.19 -4.464,-14.69 3.289,-5.35 7.773,-14.56 -1.696,-16.11 m -500.312,70.68 c -3.032,1.07 -4.379,3.87 -3.5,6.99 2.98,-1.1 3.543,-3.41 3.5,-6.99 m 31.488,13.99 c 3.004,-6.29 5.844,-3.89 10.496,-2.1 0.469,-3.86 -0.016,-7.59 -1.449,-11.2 0.855,-3.66 3.367,-6.59 3.199,-10.49 -0.098,-2.28 -3.934,-3.43 -5.094,-5.67 -1.484,-2.85 -0.015,-7.26 0.09,-10.43 -4.918,-8.5 -10.047,-2.23 -12.187,-13.99 -5.7,-4.31 -9.825,-3.93 -16.754,-4.9 0,3.51 1.707,3.69 2.801,6.81 8.613,7.71 3.16,0.8 5.078,7.89 1.14,4.21 5.086,6.04 7.5,9.32 1.199,9.44 7.16,17.07 11.91,24.96 -4.805,-1.77 -6.844,-6.55 -11.195,-9.79 -5.102,6.2 -3.196,-11.41 -7.696,-14.7 -0.531,3.96 -1,7.92 -1.402,11.9 -3.617,-3.67 -3.469,-10.62 1.402,-12.6 -3.715,-8.1 -8.762,-20.23 -14.695,-25.89 -2.969,8.75 14.703,23.01 4.199,25.89 v -7.69 c -7.144,4.6 -4.164,7.12 -2.801,12.26 5.836,3.86 3.746,8.39 6.16,14.31 3.098,4.14 7.278,2.9 12.028,4.8 3.988,2.56 4.98,8.33 8.41,11.31 m 467.426,-11.19 c -13.09,2.99 8.187,22.7 0,0 m -5.598,20.29 c -2.301,0.8 -3.574,2.52 -3.5,4.89 3.059,-0.46 4.418,-1.95 3.5,-4.89 m -477.922,4.89 c -0.285,-2.03 -1.457,-3.43 -3.5,-4.19 -0.972,2.8 1.301,2.75 3.5,4.19 m 465.328,9.8 v -1.4 h -1.402 c -0.02,0.83 0.539,1.26 1.402,1.4 m 2.797,4.2 c -0.25,-1.67 -0.601,-2.72 -2.097,-3.5 0.515,2.61 -0.196,3.95 2.097,3.5 m -446.433,-9.1 c -5.297,-0.31 -10.02,3.87 -8.879,9.45 2.793,13.72 14.707,3.89 8.879,-9.45 m 442.234,16.8 c 13.277,2.94 2.297,-13.82 0,0 m -433.137,-8.4 c -7.367,1.32 -5.765,12.4 1.016,13.57 15.988,2.77 1.09,-10.55 -1.016,-13.57 m 425.442,16.09 c 1.894,-3.03 1.84,-7.04 0.699,-10.49 -4.52,2.14 -3.274,6.39 -0.699,10.49 m -37.086,3.5 c 3.777,-8.22 2.961,-15.23 10.258,-21.98 4.605,-4.27 6.445,-12.41 13.531,-13 0.078,6.32 -2.653,14.31 -9.793,14.46 -7.043,5.76 -8.981,7.12 -4.199,16.33 -3.18,1.6 -6.438,3 -9.797,4.19 m 29.386,0.7 c 0.512,-1.53 0.024,-2.81 -1.398,-3.5 0.063,1.57 0.184,2.57 1.398,3.5 m 34.29,11.2 c 2.226,-8.47 7.187,-17.64 5.597,-26.59 -2.672,2.8 -5.703,5.13 -9.097,7 3.75,-6.25 9.769,-11.45 13.296,-18.2 3.059,-0.54 8.543,16.42 9.797,18.89 -3.093,0.01 -5.66,-1.16 -7.699,-3.49 -0.348,5.71 7.363,16.9 -1.398,18.89 -0.868,-3.17 -1.352,-6.56 -1.399,-9.8 -3.582,3.95 -5.816,10.6 -9.097,13.3 m -447.832,10.5 c 13.921,-2.73 -1.641,-9.62 0,0 m 388.355,4.89 c 0.781,-3.38 0.434,-6.25 2.797,-7.7 -0.106,3.99 -0.043,6.32 -2.797,7.7 m -11.195,7.7 c 0.621,-3.02 1.789,-5.82 3.496,-8.4 0.863,3.18 -0.649,6.66 -3.496,8.4 m 56.675,-11.2 c 1.563,7.53 3.528,8.61 9.485,7.71 3.457,-0.53 5.086,-6.21 6.308,-9.1 4.586,-4.76 9.286,-3.48 14.997,-4.96 2.519,-1.9 2.535,-3.31 4.585,-5.54 -1.644,-10.49 7.68,-6.42 9.661,-14 0.875,-3.33 -3.414,-7.08 -4.7,-9.79 -1.031,-6.17 6.344,-10.65 3.149,-16.34 -3.887,-6.89 -7.445,-8.17 -4.793,-16.55 -2.074,-6.16 -10.699,-9.99 -7.195,-17.49 3.933,4.58 10.082,9.56 12.07,15.39 0.492,8.36 6.437,14.92 5.691,22.75 -0.504,5.24 -4.508,9.5 -1.441,14.29 2.418,3.78 3.371,8.67 0.691,12.43 -6.058,8.48 -8.488,15.06 -17.011,20.41 -10.711,0.1 -13.157,10.63 -23.743,12.96 -10.3,2.27 -12.16,-4.27 -7.754,-12.17 m -83.968,16.1 c 1.484,-0.92 -0.09,-1.47 2.8,-1.4 -0.742,0.94 -1.671,1.41 -2.8,1.4 m 13.996,1.4 c 0.496,-0.87 2.707,-7.41 2.097,-6.3 -3.882,-0.96 -8.121,2.76 -11.894,3.5 6.949,-5.25 14.801,-10.22 22.391,-14.7 -3.7,5.96 -8.766,11.42 -12.594,17.5 m -395.352,-14.7 c -0.695,0.55 -3.004,2.3 -4.199,2.8 -0.113,-7.55 -0.07,-14.54 -3.5,-21.69 -3.059,3.47 -2.625,16.27 -7.367,15.39 -1.328,-0.24 2.16,-25.98 1.07,-29.39 -2.617,2.91 -3.598,7.93 -8.398,5.6 5.437,-8.69 5.312,-17.69 6.3,-27.29 2.399,2.63 3.856,8.71 4.899,13.28 3.258,5.02 10.082,7.58 14.203,12.09 12.195,13.35 -9.949,-4.2 -12.105,-5.78 1.644,12.87 14.238,19.22 20.293,29.39 -4.684,0.39 -7.93,-5.18 -11.196,-7.7 3.856,11.63 10.735,43.62 0,13.3 m 46.18,2.1 c 11.68,1.26 22.254,-4.06 33.59,-5.6 -1.68,1.94 -4.156,3.63 -6.297,4.9 8.402,3.78 12.601,-2.8 20.293,-2.8 -1.477,1.99 -2.746,5.52 -4.199,7 4.91,1.03 9.703,-0.43 14.695,-0.7 -2.555,3.3 -1.856,5.63 2.098,7 -12.219,2.83 -8.719,-1.73 -20.293,-4.33 -5.598,-1.42 -8.215,2.78 -15.395,-2.14 -2.832,-0.54 -4.402,2.61 -7.012,2.27 -6.183,-2.59 -12.953,-3.43 -19.578,-2.43 -3.101,-2.45 -4.351,-4.05 -8.398,-3.87 3.73,3.07 7.762,7.71 12.476,9.87 3.59,1.64 7.418,-0.09 10.618,1.58 8.261,4.31 6.808,14.83 17.464,8.82 6.145,-3.47 5.723,-3.1 13.036,-0.23 10.617,4.16 7.336,-0.84 16.73,-2.12 2.359,-0.32 17.789,2.69 13.262,-5.89 -2.633,-4.99 -7.082,-6.14 -10.981,-10.26 -2.804,-2.96 -4.394,-10.19 -8.25,-11.81 -5.925,-2.5 -11.675,2.46 -17.519,-1.91 -6.649,-4.96 -11.141,3.8 -17.797,4.42 -7.695,0.72 -16.281,-2.71 -18.543,8.23 m -42.684,24.26 c 4.207,-0.13 6.567,-3.27 8.664,-6.77 0.149,-7.43 7.782,-11.23 7.93,-17.49 0.152,-6.51 -5.551,-9.42 -4.691,-16.64 1.562,-13.1 -10.703,-24.3 -20.993,-30.3 -4.972,-7.64 -3.652,-11.34 -12.593,-16.03 -4.625,0 -5.074,9.16 -6.492,12.16 -2.11,4.44 -6.641,7.87 -6.805,13.03 -0.125,4.05 4.066,6.46 4.453,10.49 -5.816,18.01 0.117,8.02 7.988,21 5.137,8.47 -1.328,10.76 11.059,15.42 9.195,3.47 3.398,11.84 11.48,15.13 m 414.246,-45.95 c -4.324,0.8 -11.39,5.84 -17.492,7.43 -7.074,-2.62 -12.273,-1.98 -15.812,4.39 -3.563,6.44 -8.141,1.36 -13.387,5.37 -2.969,2.27 -11.574,18.48 -10.891,20.6 2.981,9.2 17.887,3.65 24.696,6.29 0.98,-5.97 8.496,-4.47 13.297,-5.6 -4.118,15.53 -18.7,6.09 -30.09,7.51 -17.907,-3.68 -8.903,-11.93 -4.969,-21.98 4.68,-11.95 12.77,-11.42 22.523,-18.48 4.977,-3.6 10.176,-2.58 16.024,-0.97 4.324,-2.27 10.875,-7.79 16.101,-4.56 m 18.895,51.78 c -2.086,-4.41 -5.949,-3.47 -9.797,-1.16 -1.176,0.7 -1.484,2.38 -0.953,3.44 1.934,3.82 8.309,-1.77 10.75,-2.28 m -365.266,2.8 c 0.051,13.86 12.68,0.6 0,0 m -25.89,11.9 c 0.855,-5.6 0.484,-11.46 -1.399,-16.8 -3.562,4.52 -3.429,14.06 1.399,16.8 m 44.785,6.99 c -0.414,-2.98 -2.043,-5.63 -4.899,-6.29 -0.656,3.09 1.735,5.15 4.899,6.29 m 337.265,2.28 c 5.516,-4.77 6.454,-20.3 -4.66,-16.8 -6.476,2.03 -2.922,16.59 4.66,16.8 m -361.757,9.62 c -2.114,-9.07 -3.832,-19.96 -11.895,-25.89 0.567,7.79 5.774,20.93 11.895,25.89 m 237.914,2.8 c -4.199,-0.29 -6.301,1.75 -7.699,-2.1 8.257,-1.28 22.23,-7.14 12.253,6.56 -3.953,1.4 -4.058,-1 -4.554,-4.46 m -166.539,-4.9 c 5.75,-3.39 10.504,-2.19 16.773,-3.92 7.668,-2.11 14.699,-6 22.41,-7.97 -3.98,9.94 12.91,-1.11 16.094,-2.81 -1.426,9.52 10.113,6.34 14.695,8.4 -9.019,0.54 -18.472,-1.92 -27.289,1.4 1.567,2.83 4.977,4.03 8.399,5.6 -8.09,-0.11 -15.489,-7.41 -23.094,-3.5 0.574,2.59 2.203,4.46 4.898,5.6 -4.918,-2.08 -22.293,-8.19 -26.105,-1.4 -5.879,10.48 27.793,8.54 27.883,8.58 5.988,2.2 5.011,2.52 10.777,-0.02 5.934,-2.6 15.246,3.47 19.387,0.09 4.629,-7.83 4.012,-7.94 12.836,-10.29 1.777,-1.54 5.086,-3.97 4.801,-6.76 -0.731,-7.07 -8.356,-5.94 -13.141,-8.94 -3.285,-2.06 -5.867,-6.4 -9.856,-7.03 -3.91,-0.62 -7.214,3.02 -11.195,2.42 -11.027,-1.66 -6.281,-8.75 -16.129,-0.67 -6.597,5.43 -13.301,3.2 -20.207,9.43 -3.883,3.54 -10.308,7.63 -11.937,11.79 m 152.543,13.29 c -0.086,-2.82 0.152,-5.61 0.699,-8.39 -5.492,2.59 -7.402,-1.26 -6.297,-7 0.512,0.5 22.301,13.42 5.598,15.39 m 53.879,1.41 v -1.41 h 5.597 c -1.539,1.24 -3.406,1.71 -5.597,1.41 m -68.575,-0.71 c -9.34,7.21 -7.968,-5.49 -3.5,-6.29 0.485,0.86 0.723,1.8 0.703,2.8 4.504,-1.48 8.465,-3.55 13.293,-3.5 -2.058,5.05 -9.636,18.2 -10.496,6.99 m 83.27,11.2 c 0.152,-2.14 1.09,-4 2.797,-5.6 1.961,3.52 -0.844,3.49 -2.797,5.6 m -8.399,0 c -3.273,-0.11 -0.523,-1.59 -6.996,-0.7 3.379,-3.25 10.516,-4.9 8.399,-10.5 7.312,0.45 11.984,1.17 8.394,-5.6 3.969,-0.73 7.93,-0.73 11.895,0 -6.086,7.79 -14.07,10.77 -21.692,16.8 m -235.109,3.5 c -0.961,-6.83 -0.176,-14.6 -7,-18.19 0.168,6.68 -13.035,12.46 -6.102,20 4.047,4.39 9.309,-0.01 13.102,-1.81 m 181.231,-0.7 c 1.246,-3.2 2.667,-8.05 5.597,-10.54 6.117,-2.14 11.727,-8.61 17.145,-10.03 4.351,-1.13 16.41,-1.91 7.429,-9.13 -5.773,-4.64 -10.125,-2.93 -16.875,-3.71 -5.32,-4.91 -5.004,-6.85 -11.625,-2.81 -10.375,6.33 -3.468,-1.48 -14.265,-0.16 -10.043,3.32 -8.168,7.37 -18.391,4.25 -9.707,-2.96 -8.93,4.34 -8.265,11.14 -2.825,6.46 -7.543,4.2 -13.231,7.57 -9.437,5.6 8.469,16.28 11.195,21.82 2.977,-1.04 10.86,-6.15 13.84,-6.01 1.281,0.06 3.012,6.26 5.735,5.31 4.628,-1.61 4.929,-7.53 10.507,-10.07 4.243,-1.17 7.235,1.46 11.204,2.37 m 18.195,0 c 3,7.63 13.707,-9.68 12.32,-14.87 -1.723,-6.45 -23.008,16.23 -25.492,18.17 -3.602,2.82 -18.215,-3 -15.969,4.33 4.293,14.01 25.418,-4.64 29.141,-7.63 m -107.762,13.3 v -1.41 c 2.238,-0.95 4.34,-0.95 6.297,0 -1.785,1.25 -4.043,1.72 -6.297,1.41 m 170.035,-38.49 h -3.496 v -1.4 c 13.063,0 0.141,10.83 3.875,16.04 2.324,8.29 14.543,-15.72 14.848,-18.84 -5.086,-13.15 -1.223,-8.15 -15.926,-10.13 -3.051,1.05 -5.059,1.05 -7.148,3.83 -5.95,7.89 -11.512,-1.2 -19,3.5 -5.2,9.72 -11.301,3.63 -16.793,11.2 -2.547,9.98 -2.653,15.17 -10.098,23.26 -2.723,2.96 -6.395,5.53 -2.238,9.19 3.414,3.01 11.293,-0.45 14.695,-1.37 10.453,4.82 13.047,2.6 21.691,-3.45 4.122,-1.93 8.801,-0.61 11.649,-4.36 4.289,-5.64 8.445,-19.93 7.941,-27.47 m -182.629,46.88 c -7.972,-14.26 -23.218,-21.91 6.996,-17.49 -7.195,0.11 -8.046,1.05 -6.996,6.29 -2.445,-1.91 -5.011,-2.61 -7.699,-2.09 3.535,3.48 9.168,10.51 7.699,13.29 m 10.496,5.6 c -2.73,-3.98 -4.691,-8.55 -5.597,-13.3 1.64,-0.01 3.488,0.6 4.894,1.4 -1.3,4.35 3.086,10.09 0.703,11.9 m -107.062,-58.78 c 3.359,1.16 6.312,3.81 9.098,6.3 4.675,2.29 8.746,-0.51 13.293,3.5 -3.016,-0.49 -6.043,-0.73 -9.094,-0.7 2.855,13.27 13.355,7.97 20.992,13.99 -17.523,-1.15 -0.863,8.92 5.598,10.5 -6.731,2.29 -3.961,3.19 -2.102,9.79 -2.512,-3.4 -7.996,-9.68 -6.996,0 -2.23,-3.27 -4.375,-18.89 -9.797,-18.89 -5.855,0 1.867,25.16 2.801,27.99 8.828,-5.54 11.16,1.34 18.891,5.2 6.472,3.24 12.839,-0.35 11.609,-7.5 -1.918,-11.14 1.07,-22.21 -11.18,-28.59 -3.129,-6.58 -3.535,-10.51 -11.086,-13.24 -4.617,-1.67 -6.215,-0.58 -8.172,-4.86 -2.457,-5.36 -6.878,-5.69 -12.164,-7.02 -10.187,-2.58 -12.328,-8.56 -15.125,1.89 -4.347,16.21 17.246,17.84 3.434,1.64 m 126.652,60.88 c -0.746,-0.81 -1.215,-1.74 -1.398,-2.8 1.504,0.45 2.086,1.45 1.398,2.8 m 51.082,-13.3 c 2.176,1.42 6.121,11.09 10.364,7.36 2.289,-2.02 -2.731,-11.67 5.031,-5.96 0.484,-12.65 -27.156,-1.69 -26.164,9.08 0.492,5.27 7.496,9.33 12.14,6.29 5.692,-3.74 -3.043,-12 -1.371,-16.77 m -16.793,18.2 c 2.629,-4.17 11.09,-20.63 8.516,-24.49 -2.281,-3.43 -10.742,1.5 -13.766,1.12 -5.547,-0.69 -9.047,-7.53 -12.16,-11.44 -8.195,-10.27 -2.465,-15.02 8.938,-17.84 2.363,-3.39 -1.059,-6.84 0.508,-11.03 3.855,-7.73 8.746,-7.74 15.621,-6.07 6.73,1.65 4.804,1.2 9.968,-2.73 5.711,-4.35 9.813,-2.73 16.657,-0.75 4.757,-0.48 8.914,-6.22 14.355,-3.35 3.723,1.96 5.598,4.74 9.449,6.18 11.309,-1.66 17.27,11.22 26.52,7.42 3.262,-1.34 3.199,-6.93 7.066,-8.76 12.52,-3.51 11.629,5.69 20.293,-7.33 -10.972,2.9 -17.297,-1.53 -27.738,-3.15 -8.09,-1.25 -19.305,0.88 -25.441,-4.55 8.089,2.43 24.113,0.54 12.593,-10.5 5.004,5 10.867,8.17 17.063,11.54 11.613,6.33 18.926,0.27 30.527,3.83 4.445,-3.45 11.149,-3.87 15.078,-7.21 3.914,-7.27 6.039,-17.09 15.012,-16.58 4.359,-3.02 8.684,-6.82 13.293,-9.78 7.805,-1.43 8.566,1.7 10.812,-6.63 1.434,-5.33 -0.183,-11.83 0.981,-15.76 3.484,-5.83 6.961,-8.68 4.308,-15.39 -5.378,3.4 -8.128,12.2 -14.695,12.59 3.801,-5.59 7.356,-11.35 11.582,-16.65 4.016,-5.02 4.305,-13.4 10.813,-10.64 -0.528,-3.76 1.175,-6.19 4.898,-6.99 -1.535,-2.85 -2.773,-6.07 -3.5,-9.1 3.203,0.36 6.004,-0.57 8.399,-2.8 -3.102,6.51 0.808,13.64 6.296,17.49 -1.441,-4.22 2.157,-9.59 -2.8,-10.49 0.722,-5.39 1.14,-3.05 2.101,-5.6 1.77,0.66 3.406,1.59 4.899,2.8 -1.106,-6.1 -3.207,-11.76 -9.098,-4.9 3.609,-17.64 9.703,2.08 13.996,0.7 -2.25,-9.34 -2.801,-13.92 -11.199,-20.48 -2.215,-4.28 -3.176,-7.23 -2.434,-12.41 -1.539,-3.62 -5.437,-5.62 -7.597,-9.17 -7.418,-12.18 2.902,-11.08 3.726,-19.52 0.84,-8.55 -12.902,-10.26 -2.742,-19.6 6.57,-6.05 4.906,-13.61 10.441,-20.98 3.911,-3.3 10.082,-3.4 14.266,-6.32 1.617,-8.26 8.488,-9.94 15.066,-13.99 2.805,-4.62 1.911,-10.59 1.731,-15.9 -0.336,-9.7 0.473,-36.476 -5.172,-41.465 -1.008,5.891 -2.086,11.821 -2.086,17.825 0,7.75 4.555,12.99 2.379,20.88 -2.477,8.98 -9.887,13.12 -13.59,20.77 -9.066,-6.96 -13.484,-30.771 -0.515,-37.182 2.089,-1.035 5.668,-0.21 7.277,-1.742 3.086,-2.929 3.121,-17.695 3.035,-21.25 -7.992,5.617 -15.035,15.606 -23.582,3.344 -4.52,-6.484 0.777,-12.281 -5.582,-18.129 -0.699,-4.117 2.23,-10.891 0.512,-13.906 -3.164,-5.535 -11.953,-10.551 -6.817,-17.742 3.961,-5.551 8.606,-6 10.977,-13.043 0.359,-3.95 -4.406,-9.629 -5.598,-13.297 4.852,4.64 9.266,10.547 13.297,16.094 -3.457,1.265 -16.082,9.843 -17.039,13.996 -0.727,3.132 0.938,4.972 2.344,7.597 6.004,4.821 8.074,5.11 5.773,12.325 -1.289,4.035 1.996,20.761 4.578,24.902 3.91,6.277 8.59,5.254 12.914,-0.141 2.375,-7.218 10.223,-9.929 11.602,-16.703 -2.309,-9.172 -6.5,-13.098 0.828,-20.293 -0.91,-6.254 -3.184,-10.039 -9.797,-11.894 0.168,0.797 0.75,5.453 0.699,4.898 -9.949,-8.633 1.364,-13.203 -9.187,-19.773 -17.578,-10.953 -22.106,-33.422 -37.703,-45.301 -1.16,6.961 -0.824,14.195 1.105,20.992 -2.168,5.316 -3.023,11.074 -2.504,16.793 -9.214,-6.074 -34.062,-26.758 -24.964,-39.859 15.3,-22.039 -25.614,-5.875 -33.114,-9.633 -3.031,-2.485 -7.976,-13.164 -12.265,-12.024 -3.907,1.036 -5.661,3.52 -10.125,2.157 -6.102,-4.786 -9.512,-23.266 -16.801,-22.715 -5.481,0.414 -5.879,3.578 -4.192,8.601 -12.336,-0.691 -28.957,0.575 -34.296,-13.636 -5.27,-14.039 -19.387,-44.344 -39.176,-36.047 7.758,11.031 28.207,19.902 18.316,35.476 -6.527,10.282 -20.129,7.188 -30.387,6.914 -12.843,-0.339 -24.246,1.672 -36.757,4.192 -39.188,7.902 -28.735,-34.848 2.644,-38.184 -6.312,6.766 -16.738,9.797 -23.156,18.192 -3.379,5.8 -3.742,16.285 4.961,16.25 9.691,-0.036 24.394,2.964 32.254,-4.969 3.426,-3.457 0.742,-9.102 5.535,-10.578 0.523,10.586 0.32,15.847 6.996,4.898 1.07,9.262 5.211,6.801 7.695,-1.402 2.969,0.219 1.821,6.09 4.899,8.398 0,-3.332 0.469,-6.597 1.402,-9.797 3.926,2.457 0.559,7.524 4.195,9.797 1.297,-5.933 -2.175,-13.316 0.704,-16.093 -2.766,-4.43 -6.743,-8.239 -8.399,-12.598 4.82,4.055 10.805,9.019 16.793,11.199 2.871,-7.957 -11.922,-20.492 -18.891,-21.105 -2.562,-0.223 -8.929,5.472 -11.359,6.543 -10.539,4.652 -15.129,8.054 -21.531,18.058 12.344,-2.14 25.379,-5.297 37.785,-2.097 -11.535,1.832 -50.387,15.367 -58.078,3.496 8.965,0 6.637,3.023 11.695,-4.274 3.891,-5.617 8.606,-4.375 12.778,-8.887 6.378,-6.906 -2.149,-8.601 -5.579,-14.128 2.672,-0.141 4.465,-1.622 4.899,-4.2 -10.992,2.641 -24.414,1.813 -34.61,6.516 -8.011,3.695 -9.867,8.496 -17.171,7.48 4.101,4.059 0.953,16.754 -1.372,22.008 -4.898,11.098 -1.027,13 -11.925,21.375 -4.821,8.371 -12.207,19.813 -23.789,17.739 -5.43,3.5 -7.028,10.132 -13.086,13.546 -12.727,7.168 -14.496,-5.468 -22.602,-10.367 -5.598,0.469 -12.652,-0.457 -14.344,-6.922 -2.132,-8.136 8.418,-9.453 8.047,-16.093 -6.304,2.898 -14.703,7.437 -19.859,12.593 -3.91,9.532 -12.488,13.688 -16.031,23.442 -2.246,6.187 8.992,12.804 10.07,20.273 1.602,11.07 -6.852,19.578 -11.965,28.36 -1.668,-3.883 -4.285,-6.856 -7.082,-10.207 -5.676,-6.79 -4.676,-19.559 -13.211,-11.485 2.274,-6.859 4.57,-13.801 8.188,-20.098 3.007,-5.234 8.613,-8.57 11.355,-13.531 2.149,-3.89 -1.805,-5.488 -5.547,-5.551 -0.57,1.653 -1.847,2.934 -3.5,3.5 -1.183,-8.929 5.438,-10.027 12.93,-9.878 5.773,0.109 6.836,-2.262 10.211,-7.188 5.793,-8.461 5.652,-12.891 16.039,-16.519 -1.555,-1.368 -2.484,-2.997 -2.801,-4.899 -7.187,3.609 -12.484,8.723 -18.191,13.293 0.941,-7.156 8.855,-10.012 4.894,-16.094 10.457,3.059 21.36,-5.008 27.992,-12.593 11.797,4.296 -9.566,-3.954 -7.699,-3.5 h 7 c -8.027,-4.477 2.149,-9.993 2.098,-18.192 3.105,2.414 18.879,10.86 15.578,-0.703 -3.562,-12.477 -36.652,2.324 -30.273,18.195 -4.696,-1.433 -8.872,-0.246 -12.594,-2.101 5.758,-0.25 6.047,-3.434 6.535,-8.395 3.527,-7.144 10.621,-11.98 18.285,-13.715 8.094,-1.832 16.555,-0.769 21.543,6.172 5.922,8.235 12.078,5.907 21.512,3.344 -0.317,3.441 -1.121,7.871 -1.399,10.496 5.5,-3.211 27.766,-9.922 32.188,-2.797 1.133,-4.117 -0.75,-7.187 -5.598,-7 0.231,-2.785 1.629,-5.121 4.196,-6.996 -5.008,0.488 -21.395,-0.793 -17.493,9.098 -3.539,1.176 -7.402,-1.738 -9.097,-4.199 1.574,-2.157 3.445,-4.024 5.597,-5.598 -1.922,-0.625 -1.886,-0.527 -3.496,-0.699 11.176,-12.731 -7.25,-11.7 -3.5,-0.703 -4.304,0.058 -7.324,-2.629 -6.156,-6.645 0.711,-2.449 3.148,-4.367 5.457,-5.551 10.629,-1.504 18.898,2.297 28.606,-5.101 6.906,-5.262 -13.458,-10.028 -7.262,-14.86 6.191,-4.836 20.793,-7.984 26.937,-2.828 -6.148,-0.156 -15.5,-2.406 -9.097,5.598 -3.379,-1.379 -6.875,-2.309 -10.496,-2.801 -1.008,21.777 22.031,8.832 28.937,0.211 14.77,-18.437 26.785,7.207 39.988,11.195 5.118,1.547 11.258,-11.511 13.871,-14.687 9.118,-8.418 21.571,-6.262 31.36,-0.348 3.387,2.051 8.762,9.809 13.031,6.606 6.52,-4.907 8.43,-15.661 19.066,-12.778 -8.648,1.364 -21.585,14.168 -8.394,19.59 1.461,-5.324 15.961,-24.512 19.59,-16.094 -8.66,1.176 -16.34,9.133 -16.094,18.196 5.395,-2.282 20.469,-16.555 26.59,-14.442 6.332,2.188 3.969,8.856 -0.727,11.2 -9.746,4.859 -24.504,-2.286 -32.168,11.085 -1.484,2.598 0.442,1.629 0.715,3.934 2.246,1.481 4.715,2.195 7.403,2.141 3.234,2.289 1.191,6.914 5.191,9.871 -0.25,-3.629 1.437,-6.164 4.898,-6.996 -1.078,13.078 9.715,13.386 17.684,7.402 16.687,-12.531 38.801,-11.77 58.59,-10.902 -9.84,3.004 -16.153,-0.082 -26.11,1.808 -9.55,1.809 -25.121,1.063 -14.16,10.473 2.77,2.379 4.399,8.18 8.082,9.246 2.551,0.738 7.282,-3.648 11.215,-3.523 9.11,0.281 14.582,-2.547 23.027,2.8 2.661,-0.39 2.907,0.356 4.817,-2.261 1.957,-2.684 3.652,-7.899 5.023,-10.985 0.555,-1.238 4.66,-0.847 5.024,-3.371 -0.512,-3.59 -3.567,-3.855 -6.422,-5.144 -2.274,-2.094 -4.387,-4.34 -6.34,-6.739 -6.703,-1.574 -10.988,1.434 -17.598,-1.265 -11.589,-4.739 -17.171,7.625 -29.242,-0.59 -11.035,-1.336 -14.199,22.027 -30.09,19.348 4.891,-5.043 12.758,-6.305 17.446,-13.559 1.715,-2.652 3.191,-6.551 6.343,-8.133 5.711,-1.152 13.067,2.988 17.622,1.848 7.773,-12.953 17.605,-2.766 28.191,-3.121 9.734,-0.328 18.621,5.82 25.652,12.316 4.391,4.059 2.696,6.305 1.071,10.125 -7.926,3.813 -9.711,13.867 -18.653,15.164 -4.515,0.649 -10.726,-7.055 -14.074,-2.742 -4.141,5.449 4.73,9.453 7.727,11.102 4.171,2.64 3,3.613 6.863,4.031 6.355,-7.059 17.633,-0.895 25.64,-3.149 12.567,-3.547 14.883,7.453 24.887,8.286 10.184,0.847 9.785,5.164 18.258,10.847 12.793,8.563 16.102,40.809 -6.422,33.293 -2.262,-0.758 -12.765,-5.047 -11.937,1.719 0.726,5.984 3.722,15.324 9.222,18.543 0.137,-6.344 -4.968,-11.895 4.196,-11.895 8.113,3.114 15.515,7.887 21.695,13.996 11.566,0.278 17.73,3.961 25.148,12.594 5.899,12.352 -11.023,6.473 -14.437,3.59 -8.27,-6.984 -17.793,-26.105 -29.914,-25.281 12.23,17.226 12.547,34.371 32.258,46.5 9.007,5.539 12.129,12.375 23.324,9.367 8.808,3.547 8.457,11.461 14.691,16.586 8.93,1.613 18.125,8.051 17.09,17.976 -0.32,3.114 -3.199,7.848 -2.644,10.684 0.816,4.199 4.476,6.996 5.472,11.547 0.035,9.234 -8.531,9.863 -15.453,8.066 -8.219,-2.132 -13.07,2.547 -21.957,-0.371 2.883,12.106 13.672,14.721 23.094,20.021 11.101,9.12 2.851,21 4.894,32.46 -6.058,-5.13 -16.617,-4.38 -19.59,-13.29 6.75,3.49 14.868,9.79 18.192,-2.1 -8.598,-2.2 -10.754,-2.01 -19.594,0.69 -3.91,-6.47 -4.476,-12.67 -0.957,-19.59 -1.062,-5.281 -9.851,-13.175 -13.035,-18.89 -1.211,14.21 0.664,31.89 4.394,45.82 2.54,9.47 6.012,18.67 8.598,28.13 2.926,10.66 6.426,2.93 10.793,10.72 -5.129,-0.4 -19.894,6.91 -13.297,13.97 4.176,6.68 17.004,-5.51 16.793,-11.17 11.625,7.32 5.985,28.1 5.598,39.18 -5.52,-1.98 -18.5,-14.27 -21.621,-19.13 -5.281,-8.23 -4.289,-14.66 -0.602,-23.55 -0.387,-2.95 -1.457,-5.64 -3.203,-8.06 -5.922,-4.12 -4.375,-8.94 -7.461,-15.03 -11.484,19.3 -12.187,52.6 -8.398,74.17 -6.184,-0.44 -9.774,-0.75 -11.77,7.7 3.621,9.82 -2.301,14.09 -6.344,22.33 -2.156,4.4 -8.011,4.92 -9.476,9.85 -1.387,4.71 4.465,8.95 0.848,13.26 -11.84,10.02 -2.813,9.89 -6.844,22.43 -3.106,-2.22 -4.906,-6.91 -6.297,-11.19 -10.715,7.49 -3.184,15.78 -6.297,26.59 2.902,12.98 -4.41,14.46 -8.168,25.63 -2.769,8.23 -1.855,20.75 -6.676,27.87 -3.027,4.48 -10.117,5.76 -14.547,8.07 -2.566,-12.69 -5.941,-33.93 12.594,-36.13 10.813,-9.14 5.922,-21.13 10.496,-33.15 -7.429,-1.35 -6.969,21.07 -15.394,25.19 0.82,-16.62 -13.657,10 -15.559,14.09 -6.711,14.48 -6.808,3.29 -15.226,0.61 8.835,28.25 -5.125,46.84 -25.422,64.46 -11.981,10.39 -23.637,7.23 -36.856,7.08 -8.578,3.78 -20.113,1.14 -20.293,-9.27 -6.16,4.33 -12.414,8.51 -18.597,12.8 -2.668,3.43 -2.235,8.03 -4.719,11.69 -8.367,9.23 -22.238,8.09 -33.356,6.32 m -48.98,-16.1 c 2.566,1.64 18.906,31.06 24.258,15.37 1.027,-3.02 -1.266,-4.74 -2.856,-7.15 -3.051,-4.65 1.203,-8.81 -1.789,-13 -2.164,-3.03 -7.566,-3.32 -10.281,-4.64 -1.93,-1.36 -1.531,-4.59 -2.961,-6.36 -4.078,-5.04 -15.301,-3 -20.887,-5.69 -6.136,-2.96 -13.742,-3.87 -17.676,1.89 -3.449,13.53 6.938,11.01 5.188,23.79 4.91,6.22 9.305,4.4 15.227,9.93 2.796,1.7 2.91,9.35 7.703,4.1 8.304,-9.11 5.773,-4.49 4.074,-18.24 m -160.942,-90.97 c -3.41,16.17 20.364,35.55 23.79,51.79 -12.946,5.58 -16.176,-19.73 -21.692,-23.09 -0.293,7.69 2.457,16.75 -6.996,17.49 -2.121,-15.11 -3.473,-30.31 -4.969,-45.49 -0.937,-9.48 -5.625,-8.45 -6.925,-16.09 -10.043,10.45 -28.551,42.38 -37.825,13.64 -1.675,-5.19 -11.773,-5.3 -14.929,-10.16 -6.348,-9.76 -0.961,-9.82 -12.625,-17.67 -3.289,-5.56 0.722,-10.15 0.3,-15.9 -6.277,-12.91 2.395,-21.59 7.391,-33.59 5.277,-12.65 -3.52,-30.91 -5.766,-43.67 -2.836,-16.13 -5.004,-32.39 -6.523,-48.69 -1.055,3.19 -1.945,8.28 -4.59,11.2 -3.469,1.8 -7.422,4.3 -7.516,8.72 -0.089,4.28 4.262,4.8 6.79,7.58 5.394,5.96 3.023,12.67 1.05,19.62 -1.679,5.91 -5.082,18 -10.84,21.13 -3.007,1.64 -8.609,-11.49 -9.781,-13.95 -9.422,-19.71 6.946,-28.71 12.301,-45.9 -3.961,0.82 -6.648,2.81 -10.496,2.8 6.191,-8.76 17.234,-6.27 20.226,-19.62 2.278,-10.13 6.79,-17.41 7.063,-28.66 -6.5,7.06 -14.465,13.41 -21.957,19.04 -4.941,3.71 -12.758,3.34 -16.004,-2.25 -0.894,-1.54 -0.672,-3.88 -1.227,-5.6 2.739,-9 -0.832,-11.84 -4,-20.29 -0.015,-4.16 0.477,-4.99 3.231,-8.9 4.969,-7.036 1.004,-6.212 1.73,-13.493 0.664,-6.676 8.649,-7.867 12,-12.609 3.606,-5.098 1.672,-7.391 8.032,-10.801 11.093,1.863 20.953,-12.524 27.101,-19.879 9.75,-11.656 13.563,-27.332 18.383,-41.383 -11.223,2.582 3.793,-9.152 4.898,-10.496 -13.785,-2.769 -24.484,12.785 -23.23,24.492 -3.508,17.899 -14.352,15.746 -25.234,24.492 -6.051,-1.847 -4.59,-21.918 -1.274,-28.003 3.668,-6.727 10.723,-9.981 18.242,-8.614 7.18,-2.785 14.414,-8.691 20.797,-13.148 7.567,-5.293 33.426,-24.403 10.047,-26.766 -8.375,-0.847 -10.215,-1.734 -14.687,-8.398 -4.59,-6.836 5.363,-11.672 7.14,-16.883 2.617,-7.691 1.274,-13.367 9.594,-18.117 8.703,-2.531 11.703,-2.336 20.066,-6.676 7.563,-3.926 11.239,3.219 17.719,1.504 7.598,-4.379 9.332,-9.957 18.891,-7.852 -6.598,5.942 -16.946,13.246 -26.184,9.008 -8.656,-3.976 -13.148,6.067 -21.355,7.047 -9.797,1.168 -10.055,5.324 -12.688,14.336 -1.621,5.543 -11.472,12.289 -8.32,17.746 3.66,6.34 6.703,3.043 13.969,4.106 9.437,2.625 8.699,8.546 16.277,-3.266 6.652,-3.309 6.129,0.027 13.813,0.699 -6.286,3.113 -8.336,7.668 -9.098,15.395 -1.492,-1.125 -2.192,-2.758 -2.098,-4.899 -7.211,3.512 -13.605,9.321 -16.797,16.793 4.606,-3.855 7.637,1.414 8.399,3.5 0.894,-5.535 0.32,-10.672 3.5,-13.297 0,11.84 0.09,11.899 -3.164,19.258 -4.36,6.402 -10.742,12.731 -13.989,19.231 -2.191,4.378 3.27,5.707 -1.476,10.488 -3.406,3.43 -7.977,1.98 -10.106,7.703 -1.082,4.242 4.465,7.133 3.985,11.195 -7.504,12.996 -1.598,10.875 2.761,22.043 1.997,5.102 -3.167,9.301 1.231,13.168 7.684,6.762 14.023,-8.422 19.355,-11.742 15.844,2.43 9.821,-6.465 12.571,-15.07 1.566,-4.907 5.562,-6.395 6.597,-11.196 0.301,-1.414 -2.812,-3.421 -2.722,-4.898 0.488,-1.742 4.093,-9.727 3.324,-11.195 -1.086,-2.067 -4.191,-3.914 -5.836,-5.614 -1.371,-2.855 1.387,-5.625 0.832,-8.734 -0.23,-1.32 -1.387,-4.867 -3.57,-4.184 -5.875,1.84 -1.973,19.516 -0.699,23.43 -1.461,-1.176 -3.071,-2.695 -4.196,-4.199 -3.472,8.562 -1.98,15.308 1.399,23.789 -3.27,0.379 -6.153,-3.133 -7.7,-5.598 -2.16,6.621 0.106,9.645 0.7,16.094 -1.93,-0.152 -2.504,-1.48 -3.496,-2.797 -2.407,3.336 -4.032,12.449 -9.098,11.195 1.359,-3.671 2.527,-7.402 3.5,-11.195 -2.395,1.399 -4.961,2.336 -7.699,2.797 4.082,-6.879 10.488,-10.879 12.597,-18.891 -3.535,1.497 -12.465,7.829 -15.394,3.497 9.222,-2.622 16.738,-9.692 19.59,-18.891 -4.399,1.183 -6.282,2.75 -10.496,2.797 6.089,-6.766 12.343,-7.821 14.472,-17.52 1.496,-6.836 1.965,-15.625 5.821,-20.965 2.808,14.813 19.14,27.164 14.851,42.684 1.035,7.559 5.164,7.48 0.559,14.484 -4.36,6.641 -6.258,17.196 -11.317,22.422 -4.023,4.156 -7.711,3.16 -12.488,5.633 -3.652,4.547 -8.734,7.898 -14.445,9.207 -10.664,2.449 -19.164,-7.957 -17.598,11.918 0.449,0.859 0.727,1.448 1.398,2.098 8.762,0.2 13.465,2.77 17.418,10.68 4.879,9.77 1.637,19.81 1.329,29.93 -4.493,-7.46 -15.727,-7.29 -22.895,-12.77 -7.488,2.09 -1.008,19.42 1.566,23.96 -0.16,6.07 0.176,14.02 4.235,18.9 5.523,6.63 13.07,3.15 20.019,6.5 5.094,2.46 6.02,3.96 6.641,8.88 4.305,4.22 9.602,5.1 11.309,11.8 1.457,5.69 6.332,8.17 7.382,13.41 1.055,5.3 -0.558,10.6 0.09,16.07 0.813,6.84 -0.426,9.28 -6.652,13.27 -3.723,1.27 -15.039,4.39 -18.531,1.81 -3.848,-13.18 -4.325,-9.8 -12.258,-15.16 -4.809,-3.25 -5.824,-1.11 -7.574,-8.01 -1.18,-4.66 -0.774,-7.72 -5.723,-8.68 6.496,16.26 16.41,30.88 23.793,46.88 18.457,-16.63 32.398,8.24 37.785,23.09 -10.391,2.21 -19.305,-1.3 -29.012,-3.72 0.743,7.07 11.715,11.96 18.094,14.62 9.266,3.86 3.129,3.56 7.832,9.11 2.785,3.29 8.809,-2.75 10.082,-3.57 4.27,-1.1 5.844,-1.07 10.559,0.17 8.011,2.1 9.824,-2.22 17.738,-1.34 6.902,0.76 9.266,4.08 16.375,3.67 6.961,-0.39 10.988,2.28 15.758,7.3 4.086,4.31 18.055,11.23 16.64,18.6 -2.265,11.79 -22.812,13.18 -32.984,12.34 -8.648,-4.63 -12.148,-6.54 -19.246,0.55 -1.426,1.43 -1.48,2.73 -0.363,4.43 5.058,7.67 23.031,14.05 31.168,18.14 16.199,8.15 25.668,13.82 39.277,-0.54 5.672,-5.99 9.992,-7.36 18.438,-7.73 3.007,-2.47 5.914,-5.73 9.796,-6.53 4.539,-0.92 9.559,2.03 13.293,4.42 3.723,-1.11 9.903,-2.28 13.625,-0.65 4.325,1.89 16.571,8.87 19.739,12.07 2.445,2.46 2.304,5.84 1.058,8.93 -3.113,7.71 -11.883,5.66 -15.722,13.98 -6.809,3.82 -10.293,-0.68 -17.297,0.21 -10.696,5.56 -11.325,0.98 -22.043,0.87 -3.41,-0.03 -7.559,1.26 -7.367,5.18 0.355,7.36 15.257,-0.13 18.269,1.05 20.789,8.15 41.02,0.57 56.586,21.4 3.816,10.32 11.344,30.82 -8.207,27.94 -7.059,-1.03 -8.992,-2.44 -15.777,-0.1 -5.243,1.8 -7.61,1.25 -12.375,-1.08 -3.293,-1.17 -7.149,-6.24 -11.375,-7.96 -11.168,-4.56 -5.43,-11.57 -14.075,-19 -0.804,-1.57 -0.902,-8.12 -2.777,-8.64 -11.594,-3.25 -9.164,10.85 -10.09,19.16 -1.566,14.14 -15.051,14.57 -24.582,4.96 -5.375,-5.42 -11.637,0.87 -16.605,-4.25 -3.301,-3.39 -3.821,-8.51 -7.723,-11.11 -5.93,-3.94 -13.172,-4.53 -14.234,-13.21 1.133,-5.86 6.066,-10.29 0.734,-15.14 -4.133,-3.77 -7.957,-3.36 -8.156,-9.7 -0.574,-18.04 -31.524,-30.02 -40.153,-45.86"
       style="fill:#000000;fill-opacity:1;fill-rule:nonzero;stroke:none"
       transform="matrix(0.13333333,0,0,-0.13333333,0,260.85333)" />
  </g>
</svg>
