<?xml version="1.0" encoding="UTF-8" standalone="no"?>
<!-- Created with Inkscape (http://www.inkscape.org/) -->

<svg
   version="1.1"
   id="svg1"
   width="180.27953"
   height="260.85278"
   viewBox="0 0 180.27953 260.85278"
   xmlns="http://www.w3.org/2000/svg"
   xmlns:svg="http://www.w3.org/2000/svg">
  <defs
     id="defs1" />
  <g
     id="g1"
     transform="translate(2.796582e-5,0.06350344)">
    <path
       id="path1"
       d="M 9.99609,65.418 C 9.99609,35.1875 34.707,10.4766 64.9375,10.4766 H 1287.24 c 30.15,0 54.86,24.7109 54.86,54.9414 V 1891.94 c 0,30.23 -24.71,54.94 -54.86,54.94 H 64.9375 c -30.2305,0 -54.94141,-24.71 -54.94141,-54.94 V 65.418"
       style="fill:#ffffff;fill-opacity:1;fill-rule:nonzero;stroke:none"
       transform="matrix(0.13333333,0,0,-0.13333333,0,260.85333)" />
    <path
       id="path2"
       d="M 9.99609,65.418 C 9.99609,35.1875 34.707,10.4766 64.9375,10.4766 H 1287.24 c 30.15,0 54.86,24.7109 54.86,54.9414 V 1891.94 c 0,30.23 -24.71,54.94 -54.86,54.94 H 64.9375 c -30.2305,0 -54.94141,-24.71 -54.94141,-54.94 z"
       style="fill:none;stroke:#000000;stroke-width:19.9926;stroke-linecap:butt;stroke-linejoin:miter;stroke-miterlimit:10;stroke-dasharray:none;stroke-opacity:1"
       transform="matrix(0.13333333,0,0,-0.13333333,0,260.85333)" />
    <path
       id="path3"
       d="m 67.5781,1857.32 h -11.375 v 57.17 c 7.7071,4.38 15.3242,7.64 22.8438,9.77 7.582,2.24 15.2304,3.37 22.9371,3.37 18.012,0 32.039,-6.92 42.086,-20.77 10.114,-13.73 15.168,-32.91 15.168,-57.53 0,-17.51 -2.781,-33.26 -8.343,-47.22 -5.559,-13.85 -16.176,-30.31 -31.848,-49.36 l -39.4298,-48.47 h 67.0118 v 31.25 h 12.988 v -77.77 H 54.9688 v 43.32 l 20.9492,27.17 c 17.8828,23.08 29.797,42.73 35.734,58.94 5.942,16.22 8.911,35.15 8.911,56.82 0,20.47 -2.274,36.04 -6.825,46.69 -4.484,10.77 -11.058,16.16 -19.7146,16.16 -7.457,0 -13.4296,-4.26 -17.914,-12.79 -4.4883,-8.4 -7.3321,-20.65 -8.5313,-36.75"
       style="fill:#e6180a;fill-opacity:1;fill-rule:nonzero;stroke:none"
       transform="matrix(0.13333333,0,0,-0.13333333,0,260.85333)" />
    <path
       id="path4"
       d="m 1292.52,108.004 h 11.37 V 50.8359 c -7.71,-4.3789 -15.32,-7.6328 -22.84,-9.7656 -7.59,-2.25 -15.23,-3.3711 -22.94,-3.375 -18.01,0.0039 -32.04,6.9258 -42.09,20.7735 -10.11,13.7304 -15.16,32.9062 -15.16,57.5272 0,17.516 2.78,33.258 8.34,47.227 5.56,13.847 16.18,30.3 31.85,49.355 l 39.43,48.473 h -67.02 v -31.25 h -12.98 v 77.765 h 104.65 v -43.32 l -20.95,-27.164 c -17.89,-23.082 -29.8,-42.73 -35.74,-58.945 -5.94,-16.215 -8.91,-35.157 -8.91,-56.817 0,-20.476 2.27,-36.0387 6.83,-46.695 4.48,-10.7695 11.05,-16.1562 19.71,-16.1562 7.46,0 13.43,4.2617 17.91,12.7851 4.49,8.4024 7.34,20.6524 8.54,36.7501"
       style="fill:#e6180a;fill-opacity:1;fill-rule:nonzero;stroke:none"
       transform="matrix(0.13333333,0,0,-0.13333333,0,260.85333)" />
    <path
       id="path5"
       d="m 119.156,1545.8 c 20.473,0 40.946,0 61.418,0 -6.996,0.31 -12.949,4.84 -18.57,8.58 -12.629,9.53 -24.453,20.45 -33.797,33.23 -4.355,6.43 -8.937,13.66 -9.051,21.69 m 61.418,-63.5 c -8.879,-0.28 -16.461,-5.92 -23.226,-11.14 -11.953,-10.03 -22.301,-21.97 -31.035,-34.9 -3.208,-5.35 -6.981,-11.02 -7.157,-17.46 0,21.17 0,42.33 0,63.5 m 0,-63.5 c -0.304,9.46 -6.062,17.65 -11.5,24.96 -9.6912,12.07 -21.1755,22.76 -33.8122,31.69 -4.9102,3.06 -10.125,6.7 -16.1055,6.85 20.4726,0 40.9453,0 61.4177,0 m -61.4177,0 c 8.8789,0.28 16.457,5.93 23.2226,11.13 11.9571,10.05 22.3051,21.99 31.0391,34.91 3.207,5.35 6.977,11.02 7.156,17.46 0,-21.17 0,-42.33 0,-63.5"
       style="fill:#e6180a;fill-opacity:1;fill-rule:nonzero;stroke:none"
       transform="matrix(0.13333333,0,0,-0.13333333,0,260.85333)" />
    <path
       id="path6"
       d="m 1240.94,419.523 c -20.48,0 -40.95,0 -61.42,0 7,-0.308 12.95,-4.835 18.57,-8.578 12.63,-9.527 24.46,-20.449 33.8,-33.23 4.36,-6.43 8.93,-13.656 9.05,-21.688 m -61.42,63.496 c 8.88,0.282 16.46,5.93 23.23,11.141 11.95,10.035 22.3,21.977 31.03,34.899 3.21,5.351 6.98,11.019 7.16,17.457 0,-21.168 0,-42.329 0,-63.497 m 0,63.497 c 0.3,-9.45 6.06,-17.641 11.5,-24.95 9.69,-12.074 21.17,-22.757 33.81,-31.691 4.91,-3.063 10.13,-6.707 16.11,-6.856 -20.48,0 -40.95,0 -61.42,0 m 61.42,0 c -8.88,-0.277 -16.46,-5.925 -23.23,-11.128 -11.95,-10.047 -22.3,-21.985 -31.03,-34.911 -3.21,-5.347 -6.98,-11.019 -7.16,-17.457 0,21.168 0,42.328 0,63.496"
       style="fill:#e6180a;fill-opacity:1;fill-rule:nonzero;stroke:none"
       transform="matrix(0.13333333,0,0,-0.13333333,0,260.85333)" />
    <path
       id="path7"
       d="m 680.039,345.609 c -49.133,0 -98.266,0 -147.398,0 16.785,-0.75 31.07,-11.613 44.562,-20.589 30.309,-22.864 58.695,-49.082 81.11,-79.75 10.46,-15.434 21.453,-32.782 21.726,-52.051 m -147.398,152.39 c 21.3,0.672 39.496,14.227 55.734,26.735 28.691,24.09 53.527,52.742 74.488,83.758 7.696,12.839 16.754,26.449 17.176,41.898 0,-50.805 0,-101.586 0,-152.391 m 0,152.391 c 0.731,-22.687 14.551,-42.34 27.602,-59.883 23.261,-28.98 50.82,-54.621 81.144,-76.058 11.785,-7.352 24.301,-16.094 38.656,-16.45 -49.132,0 -98.269,0 -147.402,0 m 147.402,0 c -21.304,-0.671 -39.5,-14.222 -55.734,-26.714 -28.695,-24.11 -53.531,-52.762 -74.488,-83.778 -7.699,-12.84 -16.746,-26.449 -17.18,-41.898 0,50.801 0,101.586 0,152.39"
       style="fill:#e6180a;fill-opacity:1;fill-rule:nonzero;stroke:none"
       transform="matrix(0.13333333,0,0,-0.13333333,0,260.85333)" />
    <path
       id="path8"
       d="m 680.039,1652.9 c 49.133,0 98.27,0 147.402,0 -16.789,0.75 -31.074,11.62 -44.566,20.59 -30.305,22.87 -58.691,49.08 -81.109,79.75 -10.461,15.43 -21.45,32.78 -21.727,52.05 M 827.441,1652.9 c -21.304,-0.67 -39.5,-14.22 -55.738,-26.73 -28.691,-24.09 -53.527,-52.74 -74.484,-83.76 -7.699,-12.84 -16.758,-26.45 -17.18,-41.9 0,50.8 0,101.59 0,152.39 m 0,-152.39 c -0.726,22.69 -14.547,42.34 -27.598,59.88 -23.261,28.99 -50.824,54.63 -81.148,76.06 -11.785,7.35 -24.297,16.1 -38.652,16.45 49.132,0 98.265,0 147.398,0 m -147.398,0 c 21.3,0.67 39.496,14.23 55.734,26.72 28.691,24.11 53.527,52.76 74.488,83.77 7.696,12.84 16.746,26.45 17.176,41.9 0,-50.8 0,-101.58 0,-152.39"
       style="fill:#e6180a;fill-opacity:1;fill-rule:nonzero;stroke:none"
       transform="matrix(0.13333333,0,0,-0.13333333,0,260.85333)" />
  </g>
</svg>
