<?xml version="1.0" encoding="UTF-8" standalone="no"?>
<!-- Created with Inkscape (http://www.inkscape.org/) -->

<svg
   version="1.1"
   id="svg1"
   width="180.27953"
   height="260.85278"
   viewBox="0 0 180.27953 260.85278"
   xmlns="http://www.w3.org/2000/svg"
   xmlns:svg="http://www.w3.org/2000/svg">
  <defs
     id="defs1" />
  <g
     id="g1"
     transform="translate(2.796582e-5,0.06350344)">
    <path
       id="path1"
       d="M 9.99609,65.418 C 9.99609,35.1875 34.707,10.4766 64.9375,10.4766 H 1287.24 c 30.15,0 54.86,24.7109 54.86,54.9414 V 1891.94 c 0,30.22 -24.71,54.94 -54.86,54.94 H 64.9375 c -30.2305,0 -54.94141,-24.72 -54.94141,-54.94 V 65.418"
       style="fill:#ffffff;fill-opacity:1;fill-rule:nonzero;stroke:none"
       transform="matrix(0.13333333,0,0,-0.13333333,0,260.85333)" />
    <path
       id="path2"
       d="M 9.99609,65.418 C 9.99609,35.1875 34.707,10.4766 64.9375,10.4766 H 1287.24 c 30.15,0 54.86,24.7109 54.86,54.9414 V 1891.94 c 0,30.22 -24.71,54.94 -54.86,54.94 H 64.9375 c -30.2305,0 -54.94141,-24.72 -54.94141,-54.94 z"
       style="fill:none;stroke:#000000;stroke-width:19.9926;stroke-linecap:butt;stroke-linejoin:miter;stroke-miterlimit:10;stroke-dasharray:none;stroke-opacity:1"
       transform="matrix(0.13333333,0,0,-0.13333333,0,260.85333)" />
    <path
       id="path3"
       d="m 67.5781,1857.33 h -11.375 v 57.17 c 7.7071,4.38 15.3242,7.63 22.8438,9.77 7.582,2.24 15.2304,3.37 22.9371,3.37 18.012,0 32.039,-6.93 42.086,-20.78 10.114,-13.73 15.168,-32.9 15.168,-57.52 0,-17.52 -2.781,-33.26 -8.343,-47.23 -5.559,-13.84 -16.176,-30.3 -31.848,-49.36 l -39.4298,-48.46 h 67.0118 v 31.24 h 12.988 v -77.76 H 54.9688 v 43.32 l 20.9492,27.16 c 17.8828,23.09 29.797,42.73 35.734,58.95 5.942,16.21 8.911,35.15 8.911,56.81 0,20.48 -2.274,36.04 -6.825,46.7 -4.484,10.77 -11.058,16.15 -19.7146,16.15 -7.457,0 -13.4296,-4.26 -17.914,-12.78 -4.4883,-8.4 -7.3321,-20.65 -8.5313,-36.75"
       style="fill:#e6180a;fill-opacity:1;fill-rule:nonzero;stroke:none"
       transform="matrix(0.13333333,0,0,-0.13333333,0,260.85333)" />
    <path
       id="path4"
       d="m 1292.52,108.004 h 11.37 V 50.8359 c -7.71,-4.3789 -15.32,-7.6367 -22.84,-9.7656 -7.59,-2.25 -15.23,-3.375 -22.94,-3.375 -18.01,0 -32.04,6.9258 -42.09,20.7735 -10.11,13.7304 -15.16,32.9062 -15.16,57.5272 0,17.516 2.78,33.258 8.34,47.227 5.56,13.847 16.18,30.3 31.85,49.355 l 39.43,48.473 h -67.02 v -31.25 h -12.98 v 77.765 h 104.65 v -43.32 l -20.95,-27.164 c -17.89,-23.082 -29.8,-42.73 -35.74,-58.945 -5.94,-16.219 -8.91,-35.157 -8.91,-56.817 0,-20.476 2.27,-36.0427 6.83,-46.695 4.48,-10.7695 11.05,-16.1562 19.71,-16.1562 7.46,0 13.43,4.2617 17.91,12.7851 4.49,8.4024 7.34,20.6524 8.54,36.7501"
       style="fill:#e6180a;fill-opacity:1;fill-rule:nonzero;stroke:none"
       transform="matrix(0.13333333,0,0,-0.13333333,0,260.85333)" />
    <path
       id="path5"
       d="m 180.492,1577.24 c -0.078,-37.67 -47.262,-65.1 -61.097,-94.93 -13.993,29.75 -61.2583,56.94 -61.5747,94.61 -0.082,17.75 13.6719,32.22 30.5469,32.22 16.9528,0 30.7888,-14.31 30.7888,-32.06 0,17.83 13.676,32.22 30.547,32.22 16.953,0.09 30.711,-14.31 30.789,-32.06"
       style="fill:#e6180a;fill-opacity:1;fill-rule:nonzero;stroke:none"
       transform="matrix(0.13333333,0,0,-0.13333333,0,260.85333)" />
    <path
       id="path6"
       d="m 1179.6,388.098 c 0.08,37.664 47.26,65.093 61.1,94.922 14,-29.747 61.26,-56.938 61.58,-94.602 0.08,-17.754 -13.68,-32.23 -30.55,-32.23 -16.96,0 -30.79,14.316 -30.79,32.07 0,-17.836 -13.68,-32.231 -30.55,-32.231 -16.95,-0.078 -30.71,14.317 -30.79,32.071"
       style="fill:#e6180a;fill-opacity:1;fill-rule:nonzero;stroke:none"
       transform="matrix(0.13333333,0,0,-0.13333333,0,260.85333)" />
    <path
       id="path7"
       d="m 532.832,270.176 c 0.191,90.398 113.43,156.23 146.633,227.82 33.586,-71.398 147.015,-136.652 147.785,-227.051 0.191,-42.609 -32.82,-77.347 -73.316,-77.347 -40.692,0 -73.895,34.355 -73.895,76.961 0,-42.797 -32.82,-77.344 -73.316,-77.344 -40.688,-0.195 -73.7,34.351 -73.891,76.961"
       style="fill:#e6180a;fill-opacity:1;fill-rule:nonzero;stroke:none"
       transform="matrix(0.13333333,0,0,-0.13333333,0,260.85333)" />
    <path
       id="path8"
       d="m 827.25,1728.34 c -0.191,-90.4 -113.43,-156.23 -146.633,-227.82 -33.59,71.39 -147.019,136.65 -147.785,227.05 -0.191,42.61 32.82,77.34 73.316,77.34 40.688,0 73.891,-34.35 73.891,-76.96 0,42.8 32.82,77.35 73.316,77.35 40.692,0.19 73.704,-34.35 73.895,-76.96"
       style="fill:#e6180a;fill-opacity:1;fill-rule:nonzero;stroke:none"
       transform="matrix(0.13333333,0,0,-0.13333333,0,260.85333)" />
  </g>
</svg>
