<?xml version="1.0" encoding="UTF-8" standalone="no"?>
<!-- Created with Inkscape (http://www.inkscape.org/) -->

<svg
   version="1.1"
   id="svg1"
   width="180.27953"
   height="260.85278"
   viewBox="0 0 180.27953 260.85278"
   xmlns="http://www.w3.org/2000/svg"
   xmlns:svg="http://www.w3.org/2000/svg">
  <defs
     id="defs1" />
  <g
     id="g1"
     transform="translate(2.796582e-5,0.06350344)">
    <path
       id="path1"
       d="M 9.99609,65.418 C 9.99609,35.1875 34.707,10.4766 64.9375,10.4766 H 1287.24 c 30.15,0 54.86,24.7109 54.86,54.9414 V 1891.94 c 0,30.22 -24.71,54.94 -54.86,54.94 H 64.9375 c -30.2305,0 -54.94141,-24.72 -54.94141,-54.94 V 65.418"
       style="fill:#ffffff;fill-opacity:1;fill-rule:nonzero;stroke:none"
       transform="matrix(0.13333333,0,0,-0.13333333,0,260.85333)" />
    <path
       id="path2"
       d="M 9.99609,65.418 C 9.99609,35.1875 34.707,10.4766 64.9375,10.4766 H 1287.24 c 30.15,0 54.86,24.7109 54.86,54.9414 V 1891.94 c 0,30.22 -24.71,54.94 -54.86,54.94 H 64.9375 c -30.2305,0 -54.94141,-24.72 -54.94141,-54.94 z"
       style="fill:none;stroke:#000000;stroke-width:19.9926;stroke-linecap:butt;stroke-linejoin:miter;stroke-miterlimit:10;stroke-dasharray:none;stroke-opacity:1"
       transform="matrix(0.13333333,0,0,-0.13333333,0,260.85333)" />
    <path
       id="path3"
       d="m 67.5781,1857.32 h -11.375 v 57.17 c 7.7071,4.38 15.3242,7.64 22.8438,9.77 7.582,2.24 15.2304,3.37 22.9371,3.37 18.012,0 32.039,-6.92 42.086,-20.77 10.114,-13.73 15.168,-32.91 15.168,-57.53 0,-17.52 -2.781,-33.26 -8.343,-47.22 -5.559,-13.85 -16.176,-30.31 -31.848,-49.36 l -39.4298,-48.47 h 67.0118 v 31.24 h 12.988 v -77.76 H 54.9688 v 43.32 l 20.9492,27.17 c 17.8828,23.08 29.797,42.73 35.734,58.94 5.942,16.22 8.911,35.15 8.911,56.82 0,20.47 -2.274,36.04 -6.825,46.69 -4.484,10.77 -11.058,16.16 -19.7146,16.16 -7.457,0 -13.4296,-4.26 -17.914,-12.79 -4.4883,-8.4 -7.3321,-20.65 -8.5313,-36.75"
       style="fill:#000000;fill-opacity:1;fill-rule:nonzero;stroke:none"
       transform="matrix(0.13333333,0,0,-0.13333333,0,260.85333)" />
    <path
       id="path4"
       d="m 1292.52,108.004 h 11.37 V 50.8359 c -7.71,-4.3789 -15.32,-7.6367 -22.84,-9.7656 -7.59,-2.25 -15.23,-3.375 -22.94,-3.375 -18.01,0 -32.04,6.9258 -42.09,20.7735 -10.11,13.7304 -15.16,32.9062 -15.16,57.5272 0,17.516 2.78,33.258 8.34,47.227 5.56,13.847 16.18,30.3 31.85,49.355 l 39.43,48.473 h -67.02 v -31.25 h -12.98 v 77.765 h 104.65 v -43.32 l -20.95,-27.164 c -17.89,-23.082 -29.8,-42.73 -35.74,-58.945 -5.94,-16.219 -8.91,-35.157 -8.91,-56.817 0,-20.476 2.27,-36.0427 6.83,-46.695 4.48,-10.7695 11.05,-16.1562 19.71,-16.1562 7.46,0 13.43,4.2617 17.91,12.7851 4.49,8.4024 7.34,20.6524 8.54,36.7501"
       style="fill:#000000;fill-opacity:1;fill-rule:nonzero;stroke:none"
       transform="matrix(0.13333333,0,0,-0.13333333,0,260.85333)" />
    <path
       id="path5"
       d="m 87.8086,1482.39 c 13.3554,0 20.3904,14.23 24.0704,28.47 3.68,14.23 4,28.46 4,28.46 l 6.797,0.09 c 0,0 1.277,-57.02 27.988,-57.02 H 87.8086"
       style="fill:#000000;fill-opacity:1;fill-rule:nonzero;stroke:none"
       transform="matrix(0.13333333,0,0,-0.13333333,0,260.85333)" />
    <path
       id="path6"
       d="m 65.1758,1539.41 c 0.0781,27.74 41.7462,47.89 53.9802,69.81 12.235,-21.99 53.899,-42.15 53.981,-69.81 0,-13.12 -12.078,-23.76 -27.032,-23.76 -14.875,0 -26.949,10.64 -26.949,23.76 0,-13.12 -12.074,-23.76 -27.031,-23.76 -14.9531,0 -26.9492,10.64 -26.9492,23.76"
       style="fill:#000000;fill-opacity:1;fill-rule:nonzero;stroke:none"
       transform="matrix(0.13333333,0,0,-0.13333333,0,260.85333)" />
    <path
       id="path7"
       d="m 1272.29,482.941 c -13.36,0 -20.4,-14.234 -24.08,-28.468 -3.67,-14.235 -3.99,-28.469 -3.99,-28.469 l -6.8,-0.082 c 0,0 -1.28,57.019 -27.99,57.019 h 62.86"
       style="fill:#000000;fill-opacity:1;fill-rule:nonzero;stroke:none"
       transform="matrix(0.13333333,0,0,-0.13333333,0,260.85333)" />
    <path
       id="path8"
       d="m 1294.92,425.922 c -0.08,-27.75 -41.74,-47.902 -53.98,-69.813 -12.24,21.993 -53.9,42.145 -53.98,69.813 0,13.117 12.08,23.75 27.03,23.75 14.87,0 26.95,-10.633 26.95,-23.75 0,13.117 12.08,23.75 27.03,23.75 14.95,0 26.95,-10.633 26.95,-23.75"
       style="fill:#000000;fill-opacity:1;fill-rule:nonzero;stroke:none"
       transform="matrix(0.13333333,0,0,-0.13333333,0,260.85333)" />
    <path
       id="path9"
       d="m 755.277,497.805 c -32.054,0 -48.941,-34.164 -57.773,-68.325 -8.828,-34.164 -9.594,-68.328 -9.594,-68.328 l -16.316,-0.191 c 0,0 -3.071,136.844 -67.172,136.844 h 150.855"
       style="fill:#000000;fill-opacity:1;fill-rule:nonzero;stroke:none"
       transform="matrix(0.13333333,0,0,-0.13333333,0,260.85333)" />
    <path
       id="path10"
       d="M 809.594,360.961 C 809.398,294.359 709.406,245.996 680.039,193.406 650.676,246.188 550.68,294.555 550.488,360.961 c 0,31.477 28.981,57.004 64.871,57.004 35.7,0 64.68,-25.527 64.68,-57.004 0,31.477 28.981,57.004 64.871,57.004 35.891,0 64.684,-25.527 64.684,-57.004"
       style="fill:#000000;fill-opacity:1;fill-rule:nonzero;stroke:none"
       transform="matrix(0.13333333,0,0,-0.13333333,0,260.85333)" />
    <path
       id="path11"
       d="m 604.805,1500.71 c 32.05,0 48.941,34.17 57.769,68.33 8.828,34.16 9.598,68.32 9.598,68.32 l 16.312,0.2 c 0,0 3.071,-136.85 67.176,-136.85 H 604.805"
       style="fill:#000000;fill-opacity:1;fill-rule:nonzero;stroke:none"
       transform="matrix(0.13333333,0,0,-0.13333333,0,260.85333)" />
    <path
       id="path12"
       d="m 550.488,1637.56 c 0.192,66.6 100.188,114.96 129.551,167.55 29.367,-52.78 129.359,-101.15 129.551,-167.55 0,-31.48 -28.981,-57.01 -64.871,-57.01 -35.699,0 -64.68,25.53 -64.68,57.01 0,-31.48 -28.98,-57.01 -64.871,-57.01 -35.891,0 -64.68,25.53 -64.68,57.01"
       style="fill:#000000;fill-opacity:1;fill-rule:nonzero;stroke:none"
       transform="matrix(0.13333333,0,0,-0.13333333,0,260.85333)" />
  </g>
</svg>
