<?xml version="1.0" encoding="UTF-8" standalone="no"?>
<!-- Created with Inkscape (http://www.inkscape.org/) -->

<svg
   version="1.1"
   id="svg1"
   width="180.27953"
   height="260.85278"
   viewBox="0 0 180.27953 260.85278"
   xmlns="http://www.w3.org/2000/svg"
   xmlns:svg="http://www.w3.org/2000/svg">
  <defs
     id="defs1" />
  <g
     id="g1"
     transform="translate(2.796582e-5,0.06350344)">
    <path
       id="path1"
       d="M 9.99609,65.418 C 9.99609,35.1875 34.707,10.4766 64.9375,10.4766 H 1287.24 c 30.15,0 54.86,24.7109 54.86,54.9414 V 1891.94 c 0,30.22 -24.71,54.94 -54.86,54.94 H 64.9375 c -30.2305,0 -54.94141,-24.72 -54.94141,-54.94 V 65.418"
       style="fill:#ffffff;fill-opacity:1;fill-rule:nonzero;stroke:none"
       transform="matrix(0.13333333,0,0,-0.13333333,0,260.85333)" />
    <path
       id="path2"
       d="M 9.99609,65.418 C 9.99609,35.1875 34.707,10.4766 64.9375,10.4766 H 1287.24 c 30.15,0 54.86,24.7109 54.86,54.9414 V 1891.94 c 0,30.22 -24.71,54.94 -54.86,54.94 H 64.9375 c -30.2305,0 -54.94141,-24.72 -54.94141,-54.94 z"
       style="fill:none;stroke:#000000;stroke-width:19.9926;stroke-linecap:butt;stroke-linejoin:miter;stroke-miterlimit:10;stroke-dasharray:none;stroke-opacity:1"
       transform="matrix(0.13333333,0,0,-0.13333333,0,260.85333)" />
    <path
       id="path3"
       d="m 67.5781,1857.32 h -11.375 v 57.17 c 7.7071,4.38 15.3242,7.64 22.8438,9.77 7.582,2.24 15.2304,3.37 22.9371,3.37 18.012,0 32.039,-6.93 42.086,-20.77 10.114,-13.73 15.168,-32.91 15.168,-57.53 0,-17.52 -2.781,-33.26 -8.343,-47.22 -5.559,-13.85 -16.176,-30.31 -31.848,-49.36 l -39.4298,-48.47 h 67.0118 v 31.24 h 12.988 v -77.76 H 54.9688 v 43.32 l 20.9492,27.17 c 17.8828,23.08 29.797,42.73 35.734,58.94 5.942,16.22 8.911,35.15 8.911,56.81 0,20.48 -2.274,36.05 -6.825,46.7 -4.484,10.77 -11.058,16.16 -19.7146,16.16 -7.457,0 -13.4296,-4.27 -17.914,-12.79 -4.4883,-8.4 -7.3321,-20.65 -8.5313,-36.75"
       style="fill:#000000;fill-opacity:1;fill-rule:nonzero;stroke:none"
       transform="matrix(0.13333333,0,0,-0.13333333,0,260.85333)" />
    <path
       id="path4"
       d="m 1292.52,108.004 h 11.37 V 50.8359 c -7.71,-4.3789 -15.32,-7.6367 -22.84,-9.7656 -7.59,-2.25 -15.23,-3.375 -22.94,-3.375 -18.01,0 -32.04,6.9258 -42.09,20.7735 -10.11,13.7304 -15.16,32.9062 -15.16,57.5232 0,17.52 2.78,33.262 8.34,47.231 5.56,13.847 16.18,30.3 31.85,49.355 l 39.43,48.473 h -67.02 v -31.25 h -12.98 v 77.765 h 104.65 v -43.32 l -20.95,-27.164 c -17.89,-23.082 -29.8,-42.73 -35.74,-58.945 -5.94,-16.219 -8.91,-35.157 -8.91,-56.817 0,-20.476 2.27,-36.0427 6.83,-46.695 4.48,-10.7695 11.05,-16.1562 19.71,-16.1562 7.46,0 13.43,4.2617 17.91,12.7851 4.49,8.4024 7.34,20.6524 8.54,36.7501"
       style="fill:#000000;fill-opacity:1;fill-rule:nonzero;stroke:none"
       transform="matrix(0.13333333,0,0,-0.13333333,0,260.85333)" />
    <path
       id="path5"
       d="m 92.3672,1583.07 c 0,-14.48 12.0738,-26.23 27.0278,-26.23 14.957,0 27.031,11.75 27.031,26.23 0,14.47 -12.074,26.23 -27.031,26.23 -14.954,0 -27.0278,-11.76 -27.0278,-26.23"
       style="fill:#000000;fill-opacity:1;fill-rule:nonzero;stroke:none"
       transform="matrix(0.13333333,0,0,-0.13333333,0,260.85333)" />
    <path
       id="path6"
       d="m 57.5,1533.41 c 0,-14.48 12.0742,-26.23 27.0273,-26.23 14.9571,0 27.0317,11.75 27.0317,26.23 0,14.47 -12.0746,26.23 -27.0317,26.23 -14.9531,0 -27.0273,-11.76 -27.0273,-26.23"
       style="fill:#000000;fill-opacity:1;fill-rule:nonzero;stroke:none"
       transform="matrix(0.13333333,0,0,-0.13333333,0,260.85333)" />
    <path
       id="path7"
       d="m 126.754,1533.25 c 0,-5.28 1.598,-10.24 4.398,-14.4 4.797,-7.12 13.196,-11.83 22.629,-11.83 14.957,0 27.032,11.75 27.032,26.23 0,14.47 -12.075,26.23 -27.032,26.23 -14.953,0 -27.027,-11.76 -27.027,-26.23"
       style="fill:#000000;fill-opacity:1;fill-rule:nonzero;stroke:none"
       transform="matrix(0.13333333,0,0,-0.13333333,0,260.85333)" />
    <path
       id="path8"
       d="m 87.6484,1482.3 c 13.3556,0 20.3906,10.88 24.0706,21.76 3.679,10.87 4,21.75 4,21.75 h 6.875 c 0,0 1.281,-43.42 27.992,-43.51 H 87.6484"
       style="fill:#000000;fill-opacity:1;fill-rule:nonzero;stroke:none"
       transform="matrix(0.13333333,0,0,-0.13333333,0,260.85333)" />
    <path
       id="path9"
       d="m 137.707,1563.79 c -15.191,-15.19 -15.191,-37.98 -15.191,-37.98 l -6.797,-0.08 c 0,0 0,23.27 -14.797,38.06"
       style="fill:#000000;fill-opacity:1;fill-rule:nonzero;stroke:none"
       transform="matrix(0.13333333,0,0,-0.13333333,0,260.85333)" />
    <path
       id="path10"
       d="m 134.672,1515.01 c -15.195,15.2 -37.9884,15.2 -37.9884,15.2 v 6.79 c 0,0 23.2734,0 38.0664,14.8"
       style="fill:#000000;fill-opacity:1;fill-rule:nonzero;stroke:none"
       transform="matrix(0.13333333,0,0,-0.13333333,0,260.85333)" />
    <path
       id="path11"
       d="m 104.203,1514.93 c 15.192,15.2 37.985,15.2 37.985,15.2 v 6.8 c 0,0 -23.274,0 -38.067,14.79"
       style="fill:#000000;fill-opacity:1;fill-rule:nonzero;stroke:none"
       transform="matrix(0.13333333,0,0,-0.13333333,0,260.85333)" />
    <path
       id="path12"
       d="m 1267.73,382.258 c 0,14.476 -12.08,26.23 -27.03,26.23 -14.95,0 -27.03,-11.754 -27.03,-26.23 0,-14.473 12.08,-26.231 27.03,-26.231 14.95,0 27.03,11.758 27.03,26.231"
       style="fill:#000000;fill-opacity:1;fill-rule:nonzero;stroke:none"
       transform="matrix(0.13333333,0,0,-0.13333333,0,260.85333)" />
    <path
       id="path13"
       d="m 1302.59,431.918 c 0,14.477 -12.07,26.23 -27.02,26.23 -14.96,0 -27.03,-11.753 -27.03,-26.23 0,-14.473 12.07,-26.227 27.03,-26.227 14.95,0 27.02,11.754 27.02,26.227"
       style="fill:#000000;fill-opacity:1;fill-rule:nonzero;stroke:none"
       transform="matrix(0.13333333,0,0,-0.13333333,0,260.85333)" />
    <path
       id="path14"
       d="m 1233.34,432.078 c 0,5.281 -1.6,10.238 -4.4,14.395 -4.8,7.117 -13.19,11.836 -22.63,11.836 -14.95,0 -27.03,-11.754 -27.03,-26.231 0,-14.473 12.08,-26.23 27.03,-26.23 14.96,0 27.03,11.757 27.03,26.23"
       style="fill:#000000;fill-opacity:1;fill-rule:nonzero;stroke:none"
       transform="matrix(0.13333333,0,0,-0.13333333,0,260.85333)" />
    <path
       id="path15"
       d="m 1272.45,483.02 c -13.36,0 -20.4,-10.875 -24.07,-21.75 -3.68,-10.875 -4,-21.754 -4,-21.754 h -6.88 c 0,0 -1.28,43.425 -27.99,43.504 h 62.94"
       style="fill:#000000;fill-opacity:1;fill-rule:nonzero;stroke:none"
       transform="matrix(0.13333333,0,0,-0.13333333,0,260.85333)" />
    <path
       id="path16"
       d="m 1222.39,401.531 c 15.19,15.196 15.19,37.985 15.19,37.985 l 6.8,0.082 c 0,0 0,-23.274 14.79,-38.067"
       style="fill:#000000;fill-opacity:1;fill-rule:nonzero;stroke:none"
       transform="matrix(0.13333333,0,0,-0.13333333,0,260.85333)" />
    <path
       id="path17"
       d="m 1225.43,450.313 c 15.19,-15.196 37.98,-15.196 37.98,-15.196 v -6.797 c 0,0 -23.27,0 -38.07,-14.793"
       style="fill:#000000;fill-opacity:1;fill-rule:nonzero;stroke:none"
       transform="matrix(0.13333333,0,0,-0.13333333,0,260.85333)" />
    <path
       id="path18"
       d="m 1255.89,450.395 c -15.19,-15.196 -37.98,-15.196 -37.98,-15.196 v -6.797 c 0,0 23.27,0 38.06,-14.797"
       style="fill:#000000;fill-opacity:1;fill-rule:nonzero;stroke:none"
       transform="matrix(0.13333333,0,0,-0.13333333,0,260.85333)" />
    <path
       id="path19"
       d="m 744.336,256.176 c 0,34.738 -28.981,62.949 -64.871,62.949 -35.891,0 -64.871,-28.211 -64.871,-62.949 0,-34.742 28.98,-62.953 64.871,-62.953 35.89,0 64.871,28.211 64.871,62.953"
       style="fill:#000000;fill-opacity:1;fill-rule:nonzero;stroke:none"
       transform="matrix(0.13333333,0,0,-0.13333333,0,260.85333)" />
    <path
       id="path20"
       d="m 828.016,375.363 c 0,34.739 -28.981,62.95 -64.871,62.95 -35.891,0 -64.872,-28.211 -64.872,-62.95 0,-34.742 28.981,-62.953 64.872,-62.953 35.89,0 64.871,28.211 64.871,62.953"
       style="fill:#000000;fill-opacity:1;fill-rule:nonzero;stroke:none"
       transform="matrix(0.13333333,0,0,-0.13333333,0,260.85333)" />
    <path
       id="path21"
       d="m 661.809,375.746 c 0,12.668 -3.84,24.567 -10.559,34.547 -11.516,17.082 -31.668,28.406 -54.316,28.406 -35.891,0 -64.871,-28.215 -64.871,-62.953 0,-34.738 28.98,-62.953 64.871,-62.953 35.89,0 64.875,28.215 64.875,62.953"
       style="fill:#000000;fill-opacity:1;fill-rule:nonzero;stroke:none"
       transform="matrix(0.13333333,0,0,-0.13333333,0,260.85333)" />
    <path
       id="path22"
       d="m 755.66,498.004 c -32.051,0 -48.941,-26.102 -57.769,-52.203 -8.828,-26.106 -9.598,-52.207 -9.598,-52.207 h -16.504 c 0,0 -3.074,104.219 -67.176,104.41 H 755.66"
       style="fill:#000000;fill-opacity:1;fill-rule:nonzero;stroke:none"
       transform="matrix(0.13333333,0,0,-0.13333333,0,260.85333)" />
    <path
       id="path23"
       d="m 635.512,302.43 c 36.468,36.465 36.468,91.164 36.468,91.164 l 16.313,0.191 c 0,0 0,-55.851 35.508,-91.355"
       style="fill:#000000;fill-opacity:1;fill-rule:nonzero;stroke:none"
       transform="matrix(0.13333333,0,0,-0.13333333,0,260.85333)" />
    <path
       id="path24"
       d="m 642.805,419.504 c 36.468,-36.465 91.168,-36.465 91.168,-36.465 v -16.312 c 0,0 -55.852,0 -91.36,-35.508"
       style="fill:#000000;fill-opacity:1;fill-rule:nonzero;stroke:none"
       transform="matrix(0.13333333,0,0,-0.13333333,0,260.85333)" />
    <path
       id="path25"
       d="M 715.93,419.695 C 679.465,383.23 624.766,383.23 624.766,383.23 v -16.312 c 0,0 55.851,0 91.355,-35.508"
       style="fill:#000000;fill-opacity:1;fill-rule:nonzero;stroke:none"
       transform="matrix(0.13333333,0,0,-0.13333333,0,260.85333)" />
    <path
       id="path26"
       d="m 615.742,1742.34 c 0,-34.73 28.985,-62.95 64.875,-62.95 35.891,0 64.871,28.22 64.871,62.95 0,34.74 -28.98,62.96 -64.871,62.96 -35.89,0 -64.875,-28.22 -64.875,-62.96"
       style="fill:#000000;fill-opacity:1;fill-rule:nonzero;stroke:none"
       transform="matrix(0.13333333,0,0,-0.13333333,0,260.85333)" />
    <path
       id="path27"
       d="m 532.063,1623.16 c 0,-34.74 28.98,-62.96 64.871,-62.96 35.89,0 64.875,28.22 64.875,62.96 0,34.73 -28.985,62.95 -64.875,62.95 -35.891,0 -64.871,-28.22 -64.871,-62.95"
       style="fill:#000000;fill-opacity:1;fill-rule:nonzero;stroke:none"
       transform="matrix(0.13333333,0,0,-0.13333333,0,260.85333)" />
    <path
       id="path28"
       d="m 698.273,1622.77 c 0,-12.66 3.84,-24.56 10.555,-34.54 11.516,-17.09 31.668,-28.41 54.317,-28.41 35.89,0 64.871,28.22 64.871,62.95 0,34.74 -28.981,62.96 -64.871,62.96 -35.891,0 -64.872,-28.22 -64.872,-62.96"
       style="fill:#000000;fill-opacity:1;fill-rule:nonzero;stroke:none"
       transform="matrix(0.13333333,0,0,-0.13333333,0,260.85333)" />
    <path
       id="path29"
       d="m 604.422,1500.52 c 32.051,0 48.941,26.1 57.769,52.2 8.829,26.1 9.594,52.2 9.594,52.2 h 16.508 c 0,0 3.07,-104.21 67.176,-104.4 H 604.422"
       style="fill:#000000;fill-opacity:1;fill-rule:nonzero;stroke:none"
       transform="matrix(0.13333333,0,0,-0.13333333,0,260.85333)" />
    <path
       id="path30"
       d="m 724.566,1696.09 c -36.464,-36.46 -36.464,-91.17 -36.464,-91.17 l -16.317,-0.19 c 0,0 0,55.85 -35.504,91.36"
       style="fill:#000000;fill-opacity:1;fill-rule:nonzero;stroke:none"
       transform="matrix(0.13333333,0,0,-0.13333333,0,260.85333)" />
    <path
       id="path31"
       d="m 717.273,1579.01 c -36.464,36.47 -91.164,36.47 -91.164,36.47 v 16.31 c 0,0 55.852,0 91.356,35.51"
       style="fill:#000000;fill-opacity:1;fill-rule:nonzero;stroke:none"
       transform="matrix(0.13333333,0,0,-0.13333333,0,260.85333)" />
    <path
       id="path32"
       d="m 644.148,1578.82 c 36.469,36.47 91.168,36.47 91.168,36.47 v 16.31 c 0,0 -55.851,0 -91.359,35.51"
       style="fill:#000000;fill-opacity:1;fill-rule:nonzero;stroke:none"
       transform="matrix(0.13333333,0,0,-0.13333333,0,260.85333)" />
  </g>
</svg>
