<?xml version="1.0" encoding="UTF-8" standalone="no"?>
<!-- Created with Inkscape (http://www.inkscape.org/) -->

<svg
   version="1.1"
   id="svg1"
   width="180.27953"
   height="260.85278"
   viewBox="0 0 180.27953 260.85278"
   xmlns="http://www.w3.org/2000/svg"
   xmlns:svg="http://www.w3.org/2000/svg">
  <defs
     id="defs1" />
  <g
     id="g1"
     transform="translate(2.796582e-5,0.06350344)">
    <path
       id="path1"
       d="M 9.99609,65.418 C 9.99609,35.1875 34.707,10.4766 64.9375,10.4766 H 1287.24 c 30.15,0 54.86,24.7109 54.86,54.9414 V 1891.94 c 0,30.22 -24.71,54.94 -54.86,54.94 H 64.9375 c -30.2305,0 -54.94141,-24.72 -54.94141,-54.94 V 65.418"
       style="fill:#ffffff;fill-opacity:1;fill-rule:nonzero;stroke:none"
       transform="matrix(0.13333333,0,0,-0.13333333,0,260.85333)" />
    <path
       id="path2"
       d="M 9.99609,65.418 C 9.99609,35.1875 34.707,10.4766 64.9375,10.4766 H 1287.24 c 30.15,0 54.86,24.7109 54.86,54.9414 V 1891.94 c 0,30.22 -24.71,54.94 -54.86,54.94 H 64.9375 c -30.2305,0 -54.94141,-24.72 -54.94141,-54.94 z"
       style="fill:none;stroke:#000000;stroke-width:19.9926;stroke-linecap:butt;stroke-linejoin:miter;stroke-miterlimit:10;stroke-dasharray:none;stroke-opacity:1"
       transform="matrix(0.13333333,0,0,-0.13333333,0,260.85333)" />
    <path
       id="path3"
       d="m 58.668,1915.21 c 8.3398,4.14 16.4297,7.22 24.2656,9.23 7.8359,2.13 15.4805,3.2 22.9374,3.2 17.063,0 30.145,-5.74 39.242,-17.23 9.164,-11.36 13.746,-27.69 13.746,-49 0,-15.98 -2.625,-28.94 -7.867,-38.88 -5.246,-9.94 -12.926,-16.63 -23.035,-20.06 12.324,-3.67 21.516,-11.54 27.582,-23.61 6.066,-12.08 9.102,-28.59 9.102,-49.54 0,-24.74 -5.246,-43.74 -15.735,-56.99 -10.426,-13.14 -25.562,-19.71 -45.406,-19.71 -7.4531,0 -15.1641,1.18 -23.125,3.55 -7.9023,2.37 -16.1797,5.92 -24.8359,10.65 v 58.24 h 11.4687 c 0.6953,-16.81 3.5078,-29.65 8.4375,-38.53 4.9297,-8.76 11.7539,-13.14 20.4727,-13.14 9.605,0 17.031,4.97 22.277,14.91 5.243,10.07 7.868,24.27 7.868,42.62 0,19.17 -2.75,33.97 -8.247,44.38 -5.437,10.42 -13.175,15.63 -23.2262,15.63 h -6.2539 v 21.3 h 4.9297 c 9.2894,0 16.2694,4.03 20.9454,12.07 4.68,8.06 7.016,20.07 7.016,36.05 0,15.03 -2.211,26.51 -6.633,34.44 -4.364,8.05 -10.649,12.07 -18.8635,12.07 -7.4571,0 -13.3672,-3.84 -17.7266,-11.54 -4.3594,-7.57 -6.9844,-18.64 -7.8672,-33.19 H 58.668 v 53.08"
       style="fill:#e6180a;fill-opacity:1;fill-rule:nonzero;stroke:none"
       transform="matrix(0.13333333,0,0,-0.13333333,0,260.85333)" />
    <path
       id="path4"
       d="m 1301.43,50.125 c -8.34,-4.1445 -16.43,-7.2187 -24.27,-9.2344 -7.84,-2.1289 -15.48,-3.1953 -22.94,-3.1953 -17.06,0 -30.14,5.7422 -39.24,17.2227 -9.16,11.3633 -13.74,27.6992 -13.75,49.004 0.01,15.98 2.63,28.941 7.88,38.883 5.24,9.941 12.92,16.629 23.03,20.062 -12.32,3.668 -21.52,11.539 -27.59,23.613 -6.06,12.075 -9.1,28.586 -9.1,49.536 0,24.738 5.25,43.734 15.74,56.992 10.43,13.137 25.56,19.707 45.4,19.707 7.46,0 15.17,-1.184 23.13,-3.551 7.9,-2.367 16.18,-5.918 24.83,-10.652 v -58.235 h -11.46 c -0.7,16.809 -3.51,29.649 -8.44,38.528 -4.93,8.758 -11.76,13.136 -20.47,13.136 -9.61,0 -17.04,-4.968 -22.28,-14.914 -5.24,-10.058 -7.87,-24.261 -7.87,-42.609 0,-19.176 2.75,-33.973 8.25,-44.387 5.43,-10.418 13.18,-15.625 23.22,-15.625 h 6.26 v -21.304 h -4.93 c -9.29,0 -16.27,-4.024 -20.95,-12.075 -4.67,-8.047 -7.01,-20.062 -7.01,-36.039 0,-15.0349 2.21,-26.5153 6.63,-34.445 4.36,-8.0508 10.65,-12.0742 18.86,-12.0742 7.46,0 13.37,3.8476 17.73,11.5429 4.36,7.5742 6.98,18.6406 7.87,33.1993 h 11.47 V 50.125"
       style="fill:#e6180a;fill-opacity:1;fill-rule:nonzero;stroke:none"
       transform="matrix(0.13333333,0,0,-0.13333333,0,260.85333)" />
    <path
       id="path5"
       d="m 180.492,1577.24 c -0.078,-37.67 -47.262,-65.1 -61.097,-94.93 -13.993,29.75 -61.2583,56.94 -61.5786,94.61 -0.0781,17.75 13.6758,32.22 30.5508,32.22 16.9528,0 30.7888,-14.31 30.7888,-32.06 0,17.83 13.676,32.22 30.547,32.22 16.953,0.09 30.711,-14.31 30.789,-32.06"
       style="fill:#e6180a;fill-opacity:1;fill-rule:nonzero;stroke:none"
       transform="matrix(0.13333333,0,0,-0.13333333,0,260.85333)" />
    <path
       id="path6"
       d="m 1179.6,388.098 c 0.08,37.664 47.26,65.093 61.1,94.922 14,-29.747 61.26,-56.938 61.58,-94.602 0.08,-17.754 -13.68,-32.23 -30.55,-32.23 -16.96,0 -30.79,14.316 -30.79,32.07 0,-17.836 -13.67,-32.231 -30.55,-32.231 -16.95,-0.078 -30.71,14.317 -30.79,32.071"
       style="fill:#e6180a;fill-opacity:1;fill-rule:nonzero;stroke:none"
       transform="matrix(0.13333333,0,0,-0.13333333,0,260.85333)" />
    <path
       id="path7"
       d="m 532.832,270.176 c 0.191,90.398 113.43,156.23 146.633,227.82 33.59,-71.398 147.019,-136.652 147.785,-227.051 0.191,-42.609 -32.82,-77.347 -73.316,-77.347 -40.688,0 -73.891,34.355 -73.891,76.961 0,-42.797 -32.82,-77.344 -73.316,-77.344 -40.692,-0.195 -73.704,34.351 -73.895,76.961"
       style="fill:#e6180a;fill-opacity:1;fill-rule:nonzero;stroke:none"
       transform="matrix(0.13333333,0,0,-0.13333333,0,260.85333)" />
    <path
       id="path8"
       d="m 827.25,1113.03 c -0.191,-90.4 -113.43,-156.229 -146.633,-227.819 -33.586,71.398 -147.019,136.659 -147.785,227.059 -0.191,42.6 32.82,77.34 73.316,77.34 40.688,0 73.895,-34.35 73.895,-76.96 0,42.8 32.816,77.35 73.316,77.35 40.688,0.19 73.7,-34.36 73.891,-76.97"
       style="fill:#e6180a;fill-opacity:1;fill-rule:nonzero;stroke:none"
       transform="matrix(0.13333333,0,0,-0.13333333,0,260.85333)" />
    <path
       id="path9"
       d="m 827.25,1728.34 c -0.191,-90.4 -113.43,-156.23 -146.633,-227.82 -33.586,71.39 -147.019,136.65 -147.785,227.05 -0.191,42.61 32.82,77.34 73.316,77.34 40.688,0 73.895,-34.35 73.895,-76.96 0,42.8 32.816,77.35 73.316,77.35 40.688,0.19 73.7,-34.35 73.891,-76.96"
       style="fill:#e6180a;fill-opacity:1;fill-rule:nonzero;stroke:none"
       transform="matrix(0.13333333,0,0,-0.13333333,0,260.85333)" />
  </g>
</svg>
