<?xml version="1.0" encoding="UTF-8" standalone="no"?>
<!-- Created with Inkscape (http://www.inkscape.org/) -->

<svg
   version="1.1"
   id="svg1"
   width="180.27953"
   height="260.85278"
   viewBox="0 0 180.27953 260.85278"
   xmlns="http://www.w3.org/2000/svg"
   xmlns:svg="http://www.w3.org/2000/svg">
  <defs
     id="defs1" />
  <g
     id="g1"
     transform="translate(2.796582e-5,0.06350344)">
    <path
       id="path1"
       d="M 9.99609,65.418 C 9.99609,35.1875 34.707,10.4766 64.9375,10.4766 H 1287.24 c 30.15,0 54.86,24.7109 54.86,54.9414 V 1891.94 c 0,30.23 -24.71,54.94 -54.86,54.94 H 64.9375 c -30.2305,0 -54.94141,-24.71 -54.94141,-54.94 V 65.418"
       style="fill:#ffffff;fill-opacity:1;fill-rule:nonzero;stroke:none"
       transform="matrix(0.13333333,0,0,-0.13333333,0,260.85333)" />
    <path
       id="path2"
       d="M 9.99609,65.418 C 9.99609,35.1875 34.707,10.4766 64.9375,10.4766 H 1287.24 c 30.15,0 54.86,24.7109 54.86,54.9414 V 1891.94 c 0,30.23 -24.71,54.94 -54.86,54.94 H 64.9375 c -30.2305,0 -54.94141,-24.71 -54.94141,-54.94 z"
       style="fill:none;stroke:#000000;stroke-width:19.9926;stroke-linecap:butt;stroke-linejoin:miter;stroke-miterlimit:10;stroke-dasharray:none;stroke-opacity:1"
       transform="matrix(0.13333333,0,0,-0.13333333,0,260.85333)" />
    <path
       id="path3"
       d="m 58.668,1915.2 c 8.3398,4.14 16.4297,7.22 24.2656,9.23 7.8359,2.14 15.4805,3.2 22.9374,3.2 17.063,0 30.145,-5.74 39.242,-17.22 9.164,-11.36 13.746,-27.7 13.746,-49 0,-15.98 -2.625,-28.95 -7.867,-38.89 -5.246,-9.94 -12.926,-16.63 -23.035,-20.06 12.324,-3.67 21.516,-11.54 27.582,-23.61 6.066,-12.08 9.102,-28.59 9.102,-49.54 0,-24.74 -5.246,-43.74 -15.735,-56.99 -10.426,-13.14 -25.562,-19.71 -45.406,-19.71 -7.4531,0 -15.1641,1.19 -23.125,3.55 -7.9023,2.37 -16.1797,5.92 -24.8359,10.66 v 58.23 h 11.4687 c 0.6953,-16.81 3.5078,-29.65 8.4375,-38.53 4.9297,-8.75 11.7539,-13.14 20.4727,-13.14 9.605,0 17.031,4.98 22.277,14.92 5.243,10.06 7.868,24.26 7.868,42.61 0,19.18 -2.75,33.97 -8.247,44.39 -5.437,10.41 -13.175,15.62 -23.2262,15.62 h -6.2539 v 21.31 h 4.9297 c 9.2894,0 16.2694,4.02 20.9454,12.07 4.68,8.05 7.016,20.06 7.016,36.04 0,15.03 -2.211,26.52 -6.633,34.45 -4.364,8.04 -10.649,12.07 -18.8635,12.07 -7.4571,0 -13.3672,-3.85 -17.7266,-11.54 -4.3594,-7.58 -6.9844,-18.64 -7.8672,-33.2 H 58.668 v 53.08"
       style="fill:#e6180a;fill-opacity:1;fill-rule:nonzero;stroke:none"
       transform="matrix(0.13333333,0,0,-0.13333333,0,260.85333)" />
    <path
       id="path4"
       d="m 1301.43,50.125 c -8.34,-4.1406 -16.43,-7.2187 -24.27,-9.2305 -7.84,-2.1328 -15.48,-3.1953 -22.94,-3.1992 -17.06,0.0039 -30.14,5.7422 -39.24,17.2227 -9.16,11.3633 -13.74,27.6992 -13.75,49.004 0.01,15.98 2.63,28.941 7.88,38.883 5.24,9.941 12.92,16.629 23.03,20.062 -12.32,3.668 -21.52,11.539 -27.59,23.613 -6.06,12.075 -9.1,28.586 -9.1,49.536 0,24.738 5.25,43.734 15.74,56.992 10.43,13.137 25.56,19.707 45.4,19.707 7.46,0 15.17,-1.184 23.13,-3.551 7.9,-2.367 16.18,-5.918 24.83,-10.652 v -58.235 h -11.46 c -0.7,16.809 -3.51,29.649 -8.44,38.528 -4.93,8.758 -11.76,13.136 -20.47,13.136 -9.61,0 -17.04,-4.968 -22.28,-14.914 -5.24,-10.058 -7.87,-24.261 -7.87,-42.609 0,-19.176 2.75,-33.969 8.25,-44.387 5.43,-10.414 13.18,-15.625 23.22,-15.625 h 6.26 v -21.304 h -4.93 c -9.29,0 -16.27,-4.024 -20.95,-12.075 -4.67,-8.047 -7.01,-20.062 -7.01,-36.039 0,-15.0349 2.21,-26.5153 6.63,-34.445 4.36,-8.0469 10.65,-12.0742 18.86,-12.0742 7.46,0 13.37,3.8476 17.73,11.5429 4.36,7.5742 6.98,18.6406 7.87,33.1993 h 11.47 V 50.125"
       style="fill:#e6180a;fill-opacity:1;fill-rule:nonzero;stroke:none"
       transform="matrix(0.13333333,0,0,-0.13333333,0,260.85333)" />
    <path
       id="path5"
       d="m 119.156,1545.8 c 20.473,0 40.946,0 61.418,0 -6.996,0.31 -12.949,4.84 -18.57,8.58 -12.629,9.53 -24.457,20.45 -33.797,33.23 -4.355,6.43 -8.937,13.66 -9.051,21.69 m 61.418,-63.5 c -8.879,-0.28 -16.461,-5.92 -23.226,-11.14 -11.953,-10.03 -22.301,-21.97 -31.035,-34.9 -3.208,-5.35 -6.981,-11.02 -7.157,-17.46 0,21.17 0,42.33 0,63.5 m 0,-63.5 c -0.304,9.46 -6.062,17.65 -11.5,24.96 -9.6912,12.07 -21.1755,22.76 -33.8122,31.69 -4.9102,3.06 -10.125,6.7 -16.1055,6.85 20.4726,0 40.9453,0 61.4177,0 m -61.4177,0 c 8.875,0.28 16.457,5.93 23.2226,11.13 11.9571,10.05 22.3051,21.99 31.0391,34.91 3.203,5.35 6.977,11.02 7.156,17.46 0,-21.17 0,-42.33 0,-63.5"
       style="fill:#e6180a;fill-opacity:1;fill-rule:nonzero;stroke:none"
       transform="matrix(0.13333333,0,0,-0.13333333,0,260.85333)" />
    <path
       id="path6"
       d="m 1240.94,419.523 c -20.48,0 -40.95,0 -61.42,0 7,-0.308 12.95,-4.835 18.57,-8.578 12.63,-9.527 24.46,-20.449 33.8,-33.23 4.36,-6.43 8.93,-13.656 9.05,-21.688 m -61.42,63.496 c 8.88,0.282 16.46,5.93 23.23,11.141 11.95,10.035 22.3,21.977 31.03,34.899 3.21,5.351 6.98,11.019 7.16,17.457 0,-21.168 0,-42.329 0,-63.497 m 0,63.497 c 0.3,-9.45 6.06,-17.641 11.5,-24.95 9.69,-12.074 21.17,-22.757 33.81,-31.691 4.91,-3.063 10.13,-6.707 16.11,-6.856 -20.48,0 -40.95,0 -61.42,0 m 61.42,0 c -8.88,-0.277 -16.46,-5.925 -23.23,-11.128 -11.95,-10.047 -22.3,-21.985 -31.03,-34.911 -3.21,-5.347 -6.98,-11.019 -7.16,-17.457 0,21.168 0,42.328 0,63.496"
       style="fill:#e6180a;fill-opacity:1;fill-rule:nonzero;stroke:none"
       transform="matrix(0.13333333,0,0,-0.13333333,0,260.85333)" />
    <path
       id="path7"
       d="m 680.043,345.609 c -49.137,0 -98.27,0 -147.402,0 16.789,-0.75 31.074,-11.613 44.566,-20.589 30.305,-22.864 58.691,-49.082 81.109,-79.75 10.461,-15.434 21.45,-32.782 21.727,-52.051 m -147.402,152.39 c 21.304,0.672 39.5,14.227 55.734,26.735 28.695,24.09 53.531,52.742 74.488,83.758 7.696,12.839 16.758,26.449 17.18,41.898 0,-50.805 0,-101.586 0,-152.391 m 0,152.391 c 0.727,-22.687 14.547,-42.34 27.598,-59.883 23.261,-28.98 50.824,-54.621 81.148,-76.058 11.785,-7.352 24.297,-16.094 38.652,-16.45 -49.132,0 -98.265,0 -147.398,0 m 147.398,0 c -21.3,-0.671 -39.496,-14.222 -55.734,-26.714 -28.695,-24.11 -53.527,-52.762 -74.488,-83.778 -7.696,-12.84 -16.746,-26.449 -17.176,-41.898 0,50.801 0,101.586 0,152.39"
       style="fill:#e6180a;fill-opacity:1;fill-rule:nonzero;stroke:none"
       transform="matrix(0.13333333,0,0,-0.13333333,0,260.85333)" />
    <path
       id="path8"
       d="m 680.043,1037.6 c 49.133,0 98.266,0 147.398,0 -16.789,0.75 -31.074,11.61 -44.566,20.59 -30.305,22.86 -58.691,49.08 -81.109,79.75 -10.457,15.44 -21.45,32.78 -21.723,52.05 M 827.441,1037.6 c -21.304,-0.67 -39.5,-14.22 -55.734,-26.73 -28.695,-24.093 -53.531,-52.745 -74.488,-83.761 -7.696,-12.839 -16.754,-26.449 -17.176,-41.898 0,50.805 0,101.586 0,152.389 m 0,-152.389 c -0.73,22.684 -14.551,42.34 -27.602,59.883 -23.261,28.98 -50.824,54.621 -81.148,76.056 -11.781,7.35 -24.297,16.1 -38.652,16.45 49.132,0 98.265,0 147.402,0 m -147.402,0 c 21.304,0.67 39.5,14.22 55.734,26.72 28.695,24.11 53.531,52.76 74.488,83.77 7.696,12.84 16.746,26.45 17.18,41.9 0,-50.8 0,-101.58 0,-152.39"
       style="fill:#e6180a;fill-opacity:1;fill-rule:nonzero;stroke:none"
       transform="matrix(0.13333333,0,0,-0.13333333,0,260.85333)" />
    <path
       id="path9"
       d="m 680.043,1652.9 c 49.133,0 98.266,0 147.398,0 -16.789,0.75 -31.074,11.62 -44.566,20.59 -30.305,22.87 -58.691,49.08 -81.109,79.75 -10.457,15.43 -21.45,32.78 -21.723,52.05 M 827.441,1652.9 c -21.304,-0.67 -39.5,-14.22 -55.734,-26.73 -28.695,-24.09 -53.531,-52.74 -74.488,-83.76 -7.696,-12.84 -16.754,-26.45 -17.176,-41.9 0,50.8 0,101.59 0,152.39 m 0,-152.39 c -0.73,22.69 -14.551,42.34 -27.602,59.88 -23.261,28.99 -50.824,54.63 -81.148,76.06 -11.781,7.35 -24.297,16.1 -38.652,16.45 49.132,0 98.265,0 147.402,0 m -147.402,0 c 21.304,0.67 39.5,14.23 55.734,26.72 28.695,24.11 53.531,52.76 74.488,83.77 7.696,12.84 16.746,26.45 17.18,41.9 0,-50.8 0,-101.58 0,-152.39"
       style="fill:#e6180a;fill-opacity:1;fill-rule:nonzero;stroke:none"
       transform="matrix(0.13333333,0,0,-0.13333333,0,260.85333)" />
  </g>
</svg>
