<?xml version="1.0" encoding="UTF-8" standalone="no"?>
<!-- Created with Inkscape (http://www.inkscape.org/) -->

<svg
   version="1.1"
   id="svg1"
   width="180.27953"
   height="260.85278"
   viewBox="0 0 180.27953 260.85278"
   xmlns="http://www.w3.org/2000/svg"
   xmlns:svg="http://www.w3.org/2000/svg">
  <defs
     id="defs1" />
  <g
     id="g1"
     transform="translate(2.796582e-5,0.06350344)">
    <path
       id="path1"
       d="M 9.99609,65.418 C 9.99609,35.1875 34.707,10.4766 64.9375,10.4766 H 1287.24 c 30.15,0 54.86,24.7109 54.86,54.9414 V 1891.94 c 0,30.22 -24.71,54.94 -54.86,54.94 H 64.9375 c -30.2305,0 -54.94141,-24.72 -54.94141,-54.94 V 65.418"
       style="fill:#ffffff;fill-opacity:1;fill-rule:nonzero;stroke:none"
       transform="matrix(0.13333333,0,0,-0.13333333,0,260.85333)" />
    <path
       id="path2"
       d="M 9.99609,65.418 C 9.99609,35.1875 34.707,10.4766 64.9375,10.4766 H 1287.24 c 30.15,0 54.86,24.7109 54.86,54.9414 V 1891.94 c 0,30.22 -24.71,54.94 -54.86,54.94 H 64.9375 c -30.2305,0 -54.94141,-24.72 -54.94141,-54.94 z"
       style="fill:none;stroke:#000000;stroke-width:19.9926;stroke-linecap:butt;stroke-linejoin:miter;stroke-miterlimit:10;stroke-dasharray:none;stroke-opacity:1"
       transform="matrix(0.13333333,0,0,-0.13333333,0,260.85333)" />
    <path
       id="path3"
       d="m 58.668,1915.2 c 8.3398,4.14 16.4297,7.22 24.2656,9.23 7.8359,2.13 15.4805,3.2 22.9374,3.2 17.063,0 30.145,-5.74 39.242,-17.22 9.164,-11.37 13.746,-27.7 13.746,-49 0,-15.98 -2.625,-28.95 -7.867,-38.89 -5.246,-9.94 -12.926,-16.63 -23.035,-20.06 12.324,-3.67 21.516,-11.54 27.582,-23.61 6.066,-12.08 9.102,-28.59 9.102,-49.54 0,-24.74 -5.246,-43.74 -15.735,-56.99 -10.426,-13.14 -25.562,-19.71 -45.406,-19.71 -7.4531,0 -15.1641,1.19 -23.125,3.55 -7.9023,2.37 -16.1797,5.92 -24.8359,10.66 v 58.23 h 11.4687 c 0.6953,-16.81 3.5078,-29.65 8.4375,-38.53 4.9297,-8.75 11.7539,-13.14 20.4727,-13.14 9.605,0 17.031,4.98 22.277,14.92 5.243,10.06 7.868,24.26 7.868,42.61 0,19.18 -2.75,33.97 -8.247,44.39 -5.437,10.41 -13.175,15.62 -23.2262,15.62 h -6.2539 v 21.31 h 4.9297 c 9.2894,0 16.2694,4.02 20.9454,12.07 4.68,8.05 7.016,20.06 7.016,36.04 0,15.03 -2.211,26.51 -6.633,34.45 -4.364,8.04 -10.649,12.07 -18.8635,12.07 -7.4571,0 -13.3672,-3.85 -17.7266,-11.54 -4.3594,-7.58 -6.9844,-18.64 -7.8672,-33.2 H 58.668 v 53.08"
       style="fill:#000000;fill-opacity:1;fill-rule:nonzero;stroke:none"
       transform="matrix(0.13333333,0,0,-0.13333333,0,260.85333)" />
    <path
       id="path4"
       d="m 1301.43,50.125 c -8.34,-4.1445 -16.43,-7.2187 -24.27,-9.2344 -7.84,-2.1289 -15.48,-3.1953 -22.94,-3.1953 -17.06,0 -30.14,5.7422 -39.24,17.2227 -9.16,11.3633 -13.74,27.6992 -13.75,49.004 0.01,15.98 2.63,28.941 7.88,38.883 5.24,9.941 12.92,16.629 23.03,20.062 -12.32,3.668 -21.52,11.539 -27.59,23.613 -6.06,12.075 -9.1,28.586 -9.1,49.536 0,24.738 5.25,43.734 15.74,56.992 10.43,13.137 25.56,19.707 45.4,19.707 7.46,0 15.17,-1.184 23.13,-3.551 7.9,-2.367 16.18,-5.918 24.83,-10.652 v -58.235 h -11.46 c -0.7,16.809 -3.51,29.649 -8.44,38.528 -4.93,8.758 -11.76,13.136 -20.47,13.136 -9.61,0 -17.04,-4.968 -22.28,-14.914 -5.24,-10.058 -7.87,-24.261 -7.87,-42.609 0,-19.176 2.75,-33.973 8.25,-44.387 5.43,-10.418 13.18,-15.625 23.22,-15.625 h 6.26 v -21.304 h -4.93 c -9.29,0 -16.27,-4.024 -20.95,-12.075 -4.67,-8.047 -7.01,-20.062 -7.01,-36.039 0,-15.0349 2.21,-26.5153 6.63,-34.445 4.36,-8.0508 10.65,-12.0742 18.86,-12.0742 7.46,0 13.37,3.8476 17.73,11.5429 4.36,7.5742 6.98,18.6406 7.87,33.1993 h 11.47 V 50.125"
       style="fill:#000000;fill-opacity:1;fill-rule:nonzero;stroke:none"
       transform="matrix(0.13333333,0,0,-0.13333333,0,260.85333)" />
    <path
       id="path5"
       d="m 87.8086,1482.39 c 13.3554,0 20.3904,14.23 24.0704,28.47 3.68,14.23 3.996,28.46 3.996,28.46 l 6.801,0.09 c 0,0 1.277,-57.02 27.988,-57.02 H 87.8086"
       style="fill:#000000;fill-opacity:1;fill-rule:nonzero;stroke:none"
       transform="matrix(0.13333333,0,0,-0.13333333,0,260.85333)" />
    <path
       id="path6"
       d="m 65.1758,1539.41 c 0.0781,27.74 41.7462,47.89 53.9802,69.81 12.235,-21.99 53.899,-42.15 53.981,-69.81 0,-13.12 -12.078,-23.76 -27.032,-23.76 -14.875,0 -26.949,10.64 -26.949,23.76 0,-13.12 -12.078,-23.76 -27.031,-23.76 -14.9531,0 -26.9492,10.64 -26.9492,23.76"
       style="fill:#000000;fill-opacity:1;fill-rule:nonzero;stroke:none"
       transform="matrix(0.13333333,0,0,-0.13333333,0,260.85333)" />
    <path
       id="path7"
       d="m 1272.29,482.941 c -13.36,0 -20.4,-14.234 -24.08,-28.468 -3.67,-14.235 -3.99,-28.469 -3.99,-28.469 l -6.8,-0.082 c 0,0 -1.28,57.019 -27.99,57.019 h 62.86"
       style="fill:#000000;fill-opacity:1;fill-rule:nonzero;stroke:none"
       transform="matrix(0.13333333,0,0,-0.13333333,0,260.85333)" />
    <path
       id="path8"
       d="m 1294.92,425.922 c -0.08,-27.75 -41.74,-47.902 -53.98,-69.813 -12.24,21.993 -53.9,42.145 -53.98,69.813 0,13.117 12.08,23.75 27.03,23.75 14.87,0 26.95,-10.633 26.95,-23.75 0,13.117 12.08,23.75 27.03,23.75 14.95,0 26.95,-10.633 26.95,-23.75"
       style="fill:#000000;fill-opacity:1;fill-rule:nonzero;stroke:none"
       transform="matrix(0.13333333,0,0,-0.13333333,0,260.85333)" />
    <path
       id="path9"
       d="m 755.277,497.805 c -32.05,0 -48.941,-34.164 -57.769,-68.325 -8.828,-34.164 -9.598,-68.328 -9.598,-68.328 l -16.312,-0.191 c 0,0 -3.071,136.844 -67.176,136.844 h 150.855"
       style="fill:#000000;fill-opacity:1;fill-rule:nonzero;stroke:none"
       transform="matrix(0.13333333,0,0,-0.13333333,0,260.85333)" />
    <path
       id="path10"
       d="M 809.594,360.961 C 809.402,294.359 709.406,245.996 680.043,193.406 650.676,246.188 550.684,294.555 550.488,360.961 c 0,31.477 28.985,57.004 64.875,57.004 35.7,0 64.68,-25.527 64.68,-57.004 0,31.477 28.98,57.004 64.871,57.004 35.891,0 64.68,-25.527 64.68,-57.004"
       style="fill:#000000;fill-opacity:1;fill-rule:nonzero;stroke:none"
       transform="matrix(0.13333333,0,0,-0.13333333,0,260.85333)" />
    <path
       id="path11"
       d="m 604.805,885.41 c 32.05,0 48.941,34.164 57.769,68.324 8.828,34.164 9.598,68.326 9.598,68.326 l 16.312,0.19 c 0,0 3.075,-136.84 67.176,-136.84 H 604.805"
       style="fill:#000000;fill-opacity:1;fill-rule:nonzero;stroke:none"
       transform="matrix(0.13333333,0,0,-0.13333333,0,260.85333)" />
    <path
       id="path12"
       d="m 550.488,1022.25 c 0.192,66.6 100.188,114.97 129.555,167.56 29.363,-52.78 129.359,-101.15 129.551,-167.56 0,-31.473 -28.981,-57 -64.871,-57 -35.7,0 -64.68,25.527 -64.68,57 0,-31.473 -28.984,-57 -64.875,-57 -35.891,0 -64.68,25.527 -64.68,57"
       style="fill:#000000;fill-opacity:1;fill-rule:nonzero;stroke:none"
       transform="matrix(0.13333333,0,0,-0.13333333,0,260.85333)" />
    <path
       id="path13"
       d="m 604.805,1500.71 c 32.05,0 48.941,34.17 57.769,68.33 8.828,34.16 9.598,68.32 9.598,68.32 l 16.312,0.2 c 0,0 3.075,-136.85 67.176,-136.85 H 604.805"
       style="fill:#000000;fill-opacity:1;fill-rule:nonzero;stroke:none"
       transform="matrix(0.13333333,0,0,-0.13333333,0,260.85333)" />
    <path
       id="path14"
       d="m 550.488,1637.56 c 0.192,66.6 100.188,114.96 129.555,167.55 29.363,-52.78 129.359,-101.15 129.551,-167.55 0,-31.48 -28.981,-57.01 -64.871,-57.01 -35.7,0 -64.68,25.53 -64.68,57.01 0,-31.48 -28.984,-57.01 -64.875,-57.01 -35.891,0 -64.68,25.53 -64.68,57.01"
       style="fill:#000000;fill-opacity:1;fill-rule:nonzero;stroke:none"
       transform="matrix(0.13333333,0,0,-0.13333333,0,260.85333)" />
  </g>
</svg>
