<?xml version="1.0" encoding="UTF-8" standalone="no"?>
<!-- Created with Inkscape (http://www.inkscape.org/) -->

<svg
   version="1.1"
   id="svg1"
   width="180.27953"
   height="260.85278"
   viewBox="0 0 180.27953 260.85278"
   xmlns="http://www.w3.org/2000/svg"
   xmlns:svg="http://www.w3.org/2000/svg">
  <defs
     id="defs1" />
  <g
     id="g1"
     transform="translate(2.796582e-5,0.06350344)">
    <path
       id="path1"
       d="M 9.99609,65.418 C 9.99609,35.1875 34.707,10.4766 64.9375,10.4766 H 1287.24 c 30.15,0 54.86,24.7109 54.86,54.9414 V 1891.94 c 0,30.22 -24.71,54.94 -54.86,54.94 H 64.9375 c -30.2305,0 -54.94141,-24.72 -54.94141,-54.94 V 65.418"
       style="fill:#ffffff;fill-opacity:1;fill-rule:nonzero;stroke:none"
       transform="matrix(0.13333333,0,0,-0.13333333,0,260.85333)" />
    <path
       id="path2"
       d="M 9.99609,65.418 C 9.99609,35.1875 34.707,10.4766 64.9375,10.4766 H 1287.24 c 30.15,0 54.86,24.7109 54.86,54.9414 V 1891.94 c 0,30.22 -24.71,54.94 -54.86,54.94 H 64.9375 c -30.2305,0 -54.94141,-24.72 -54.94141,-54.94 z"
       style="fill:none;stroke:#000000;stroke-width:19.9926;stroke-linecap:butt;stroke-linejoin:miter;stroke-miterlimit:10;stroke-dasharray:none;stroke-opacity:1"
       transform="matrix(0.13333333,0,0,-0.13333333,0,260.85333)" />
    <path
       id="path3"
       d="m 58.668,1915.2 c 8.3398,4.14 16.4297,7.22 24.2656,9.23 7.8359,2.13 15.4805,3.2 22.9374,3.2 17.063,0 30.145,-5.74 39.242,-17.22 9.164,-11.37 13.746,-27.7 13.746,-49 0,-15.98 -2.625,-28.95 -7.867,-38.89 -5.246,-9.94 -12.926,-16.63 -23.035,-20.06 12.324,-3.67 21.516,-11.54 27.582,-23.61 6.066,-12.08 9.102,-28.59 9.102,-49.54 0,-24.74 -5.246,-43.74 -15.735,-56.99 -10.426,-13.14 -25.562,-19.71 -45.406,-19.71 -7.4531,0 -15.1641,1.18 -23.125,3.55 -7.9023,2.37 -16.1797,5.92 -24.8359,10.66 v 58.23 h 11.4687 c 0.6953,-16.81 3.5078,-29.65 8.4375,-38.53 4.9297,-8.76 11.7539,-13.14 20.4727,-13.14 9.605,0 17.031,4.98 22.277,14.92 5.243,10.06 7.868,24.26 7.868,42.61 0,19.17 -2.75,33.97 -8.247,44.39 -5.437,10.41 -13.175,15.62 -23.2262,15.62 h -6.2539 v 21.31 h 4.9297 c 9.2894,0 16.2694,4.02 20.9454,12.07 4.68,8.05 7.016,20.06 7.016,36.04 0,15.03 -2.211,26.51 -6.633,34.45 -4.364,8.04 -10.649,12.07 -18.8635,12.07 -7.4571,0 -13.3672,-3.85 -17.7266,-11.54 -4.3594,-7.58 -6.9844,-18.65 -7.8672,-33.21 H 58.668 v 53.09"
       style="fill:#000000;fill-opacity:1;fill-rule:nonzero;stroke:none"
       transform="matrix(0.13333333,0,0,-0.13333333,0,260.85333)" />
    <path
       id="path4"
       d="m 1301.43,50.125 c -8.34,-4.1445 -16.43,-7.2187 -24.27,-9.2344 -7.84,-2.1289 -15.48,-3.1953 -22.94,-3.1953 -17.06,0 -30.14,5.7422 -39.24,17.2227 -9.16,11.3633 -13.74,27.6992 -13.75,49.004 0.01,15.976 2.63,28.937 7.88,38.883 5.24,9.941 12.92,16.629 23.03,20.062 -12.32,3.668 -21.52,11.539 -27.59,23.613 -6.06,12.075 -9.1,28.586 -9.1,49.536 0,24.738 5.25,43.734 15.74,56.992 10.43,13.137 25.56,19.707 45.4,19.707 7.46,0 15.17,-1.184 23.13,-3.551 7.9,-2.367 16.18,-5.918 24.83,-10.652 v -58.235 h -11.46 c -0.7,16.805 -3.51,29.649 -8.44,38.528 -4.93,8.758 -11.76,13.136 -20.47,13.136 -9.61,0 -17.04,-4.972 -22.28,-14.914 -5.24,-10.058 -7.87,-24.265 -7.87,-42.609 0,-19.176 2.75,-33.973 8.25,-44.387 5.43,-10.418 13.18,-15.625 23.22,-15.625 h 6.26 v -21.304 h -4.93 c -9.29,0 -16.27,-4.024 -20.95,-12.075 -4.67,-8.047 -7.01,-20.062 -7.01,-36.043 0,-15.0309 2.21,-26.5113 6.63,-34.441 4.36,-8.0508 10.65,-12.0742 18.86,-12.0742 7.46,0 13.37,3.8476 17.73,11.539 4.36,7.5781 6.98,18.6445 7.87,33.2032 h 11.47 V 50.125"
       style="fill:#000000;fill-opacity:1;fill-rule:nonzero;stroke:none"
       transform="matrix(0.13333333,0,0,-0.13333333,0,260.85333)" />
    <path
       id="path5"
       d="m 92.3672,1583.07 c 0,-14.48 12.0738,-26.23 27.0278,-26.23 14.957,0 27.031,11.75 27.031,26.23 0,14.47 -12.074,26.23 -27.031,26.23 -14.954,0 -27.0278,-11.76 -27.0278,-26.23"
       style="fill:#000000;fill-opacity:1;fill-rule:nonzero;stroke:none"
       transform="matrix(0.13333333,0,0,-0.13333333,0,260.85333)" />
    <path
       id="path6"
       d="m 57.5,1533.41 c 0,-14.48 12.0742,-26.23 27.0273,-26.23 14.9571,0 27.0317,11.75 27.0317,26.23 0,14.47 -12.0746,26.23 -27.0317,26.23 -14.9531,0 -27.0273,-11.76 -27.0273,-26.23"
       style="fill:#000000;fill-opacity:1;fill-rule:nonzero;stroke:none"
       transform="matrix(0.13333333,0,0,-0.13333333,0,260.85333)" />
    <path
       id="path7"
       d="m 126.754,1533.25 c 0,-5.28 1.598,-10.24 4.398,-14.4 4.797,-7.12 13.196,-11.83 22.629,-11.83 14.957,0 27.032,11.75 27.032,26.23 0,14.47 -12.075,26.23 -27.032,26.23 -14.953,0 -27.027,-11.76 -27.027,-26.23"
       style="fill:#000000;fill-opacity:1;fill-rule:nonzero;stroke:none"
       transform="matrix(0.13333333,0,0,-0.13333333,0,260.85333)" />
    <path
       id="path8"
       d="m 87.6484,1482.3 c 13.3556,0 20.3906,10.88 24.0706,21.76 3.679,10.87 3.996,21.75 3.996,21.75 h 6.879 c 0,0 1.281,-43.42 27.988,-43.51 H 87.6484"
       style="fill:#000000;fill-opacity:1;fill-rule:nonzero;stroke:none"
       transform="matrix(0.13333333,0,0,-0.13333333,0,260.85333)" />
    <path
       id="path9"
       d="m 137.707,1563.79 c -15.191,-15.19 -15.191,-37.98 -15.191,-37.98 l -6.801,-0.08 c 0,0 0,23.27 -14.793,38.06"
       style="fill:#000000;fill-opacity:1;fill-rule:nonzero;stroke:none"
       transform="matrix(0.13333333,0,0,-0.13333333,0,260.85333)" />
    <path
       id="path10"
       d="m 134.668,1515.01 c -15.191,15.2 -37.9844,15.2 -37.9844,15.2 v 6.79 c 0,0 23.2734,0 38.0664,14.8"
       style="fill:#000000;fill-opacity:1;fill-rule:nonzero;stroke:none"
       transform="matrix(0.13333333,0,0,-0.13333333,0,260.85333)" />
    <path
       id="path11"
       d="m 104.199,1514.93 c 15.196,15.2 37.989,15.2 37.989,15.2 v 6.8 c 0,0 -23.274,0 -38.067,14.79"
       style="fill:#000000;fill-opacity:1;fill-rule:nonzero;stroke:none"
       transform="matrix(0.13333333,0,0,-0.13333333,0,260.85333)" />
    <path
       id="path12"
       d="m 1267.73,382.258 c 0,14.476 -12.08,26.23 -27.03,26.23 -14.95,0 -27.03,-11.754 -27.03,-26.23 0,-14.473 12.08,-26.231 27.03,-26.231 14.95,0 27.03,11.758 27.03,26.231"
       style="fill:#000000;fill-opacity:1;fill-rule:nonzero;stroke:none"
       transform="matrix(0.13333333,0,0,-0.13333333,0,260.85333)" />
    <path
       id="path13"
       d="m 1302.6,431.918 c 0,14.477 -12.08,26.23 -27.03,26.23 -14.96,0 -27.03,-11.753 -27.03,-26.23 0,-14.473 12.07,-26.227 27.03,-26.227 14.95,0 27.03,11.754 27.03,26.227"
       style="fill:#000000;fill-opacity:1;fill-rule:nonzero;stroke:none"
       transform="matrix(0.13333333,0,0,-0.13333333,0,260.85333)" />
    <path
       id="path14"
       d="m 1233.34,432.078 c 0,5.281 -1.6,10.238 -4.4,14.395 -4.8,7.117 -13.19,11.836 -22.63,11.836 -14.95,0 -27.03,-11.754 -27.03,-26.231 0,-14.473 12.08,-26.23 27.03,-26.23 14.96,0 27.03,11.757 27.03,26.23"
       style="fill:#000000;fill-opacity:1;fill-rule:nonzero;stroke:none"
       transform="matrix(0.13333333,0,0,-0.13333333,0,260.85333)" />
    <path
       id="path15"
       d="m 1272.45,483.02 c -13.36,0 -20.4,-10.875 -24.07,-21.75 -3.68,-10.875 -4,-21.754 -4,-21.754 h -6.88 c 0,0 -1.28,43.425 -27.99,43.504 h 62.94"
       style="fill:#000000;fill-opacity:1;fill-rule:nonzero;stroke:none"
       transform="matrix(0.13333333,0,0,-0.13333333,0,260.85333)" />
    <path
       id="path16"
       d="m 1222.39,401.531 c 15.19,15.196 15.19,37.985 15.19,37.985 l 6.8,0.082 c 0,0 0,-23.274 14.79,-38.067"
       style="fill:#000000;fill-opacity:1;fill-rule:nonzero;stroke:none"
       transform="matrix(0.13333333,0,0,-0.13333333,0,260.85333)" />
    <path
       id="path17"
       d="m 1225.43,450.313 c 15.19,-15.196 37.98,-15.196 37.98,-15.196 v -6.797 c 0,0 -23.27,0 -38.07,-14.793"
       style="fill:#000000;fill-opacity:1;fill-rule:nonzero;stroke:none"
       transform="matrix(0.13333333,0,0,-0.13333333,0,260.85333)" />
    <path
       id="path18"
       d="m 1255.89,450.395 c -15.19,-15.196 -37.98,-15.196 -37.98,-15.196 v -6.797 c 0,0 23.27,0 38.06,-14.797"
       style="fill:#000000;fill-opacity:1;fill-rule:nonzero;stroke:none"
       transform="matrix(0.13333333,0,0,-0.13333333,0,260.85333)" />
    <path
       id="path19"
       d="m 744.336,256.176 c 0,34.738 -28.981,62.949 -64.871,62.949 -35.891,0 -64.871,-28.211 -64.871,-62.949 0,-34.742 28.98,-62.953 64.871,-62.953 35.89,0 64.871,28.211 64.871,62.953"
       style="fill:#000000;fill-opacity:1;fill-rule:nonzero;stroke:none"
       transform="matrix(0.13333333,0,0,-0.13333333,0,260.85333)" />
    <path
       id="path20"
       d="m 828.02,375.363 c 0,34.739 -28.981,62.95 -64.872,62.95 -35.89,0 -64.875,-28.211 -64.875,-62.95 0,-34.742 28.985,-62.953 64.875,-62.953 35.891,0 64.872,28.211 64.872,62.953"
       style="fill:#000000;fill-opacity:1;fill-rule:nonzero;stroke:none"
       transform="matrix(0.13333333,0,0,-0.13333333,0,260.85333)" />
    <path
       id="path21"
       d="m 661.809,375.746 c 0,12.668 -3.84,24.567 -10.555,34.547 -11.516,17.082 -31.668,28.406 -54.316,28.406 -35.891,0 -64.872,-28.215 -64.872,-62.953 0,-34.738 28.981,-62.953 64.872,-62.953 35.89,0 64.871,28.215 64.871,62.953"
       style="fill:#000000;fill-opacity:1;fill-rule:nonzero;stroke:none"
       transform="matrix(0.13333333,0,0,-0.13333333,0,260.85333)" />
    <path
       id="path22"
       d="m 755.66,498.004 c -32.051,0 -48.941,-26.102 -57.769,-52.203 -8.828,-26.106 -9.598,-52.207 -9.598,-52.207 h -16.504 c 0,0 -3.07,104.219 -67.176,104.41 H 755.66"
       style="fill:#000000;fill-opacity:1;fill-rule:nonzero;stroke:none"
       transform="matrix(0.13333333,0,0,-0.13333333,0,260.85333)" />
    <path
       id="path23"
       d="m 635.516,302.43 c 36.464,36.465 36.464,91.164 36.464,91.164 l 16.313,0.191 c 0,0 0,-55.851 35.508,-91.355"
       style="fill:#000000;fill-opacity:1;fill-rule:nonzero;stroke:none"
       transform="matrix(0.13333333,0,0,-0.13333333,0,260.85333)" />
    <path
       id="path24"
       d="m 642.809,419.504 c 36.464,-36.465 91.164,-36.465 91.164,-36.465 v -16.312 c 0,0 -55.852,0 -91.356,-35.508"
       style="fill:#000000;fill-opacity:1;fill-rule:nonzero;stroke:none"
       transform="matrix(0.13333333,0,0,-0.13333333,0,260.85333)" />
    <path
       id="path25"
       d="M 715.934,419.695 C 679.465,383.23 624.766,383.23 624.766,383.23 v -16.312 c 0,0 55.851,0 91.359,-35.508"
       style="fill:#000000;fill-opacity:1;fill-rule:nonzero;stroke:none"
       transform="matrix(0.13333333,0,0,-0.13333333,0,260.85333)" />
    <path
       id="path26"
       d="m 615.746,1127.04 c 0,-34.74 28.981,-62.95 64.871,-62.95 35.891,0 64.871,28.21 64.871,62.95 0,34.74 -28.98,62.96 -64.871,62.96 -35.89,0 -64.871,-28.22 -64.871,-62.96"
       style="fill:#000000;fill-opacity:1;fill-rule:nonzero;stroke:none"
       transform="matrix(0.13333333,0,0,-0.13333333,0,260.85333)" />
    <path
       id="path27"
       d="m 532.063,1007.86 c 0,-34.743 28.984,-62.958 64.875,-62.958 35.89,0 64.871,28.215 64.871,62.958 0,34.73 -28.981,62.95 -64.871,62.95 -35.891,0 -64.875,-28.22 -64.875,-62.95"
       style="fill:#000000;fill-opacity:1;fill-rule:nonzero;stroke:none"
       transform="matrix(0.13333333,0,0,-0.13333333,0,260.85333)" />
    <path
       id="path28"
       d="m 698.273,1007.47 c 0,-12.665 3.84,-24.568 10.559,-34.548 11.516,-17.078 31.668,-28.402 54.313,-28.402 35.89,0 64.875,28.21 64.875,62.95 0,34.74 -28.985,62.95 -64.875,62.95 -35.891,0 -64.872,-28.21 -64.872,-62.95"
       style="fill:#000000;fill-opacity:1;fill-rule:nonzero;stroke:none"
       transform="matrix(0.13333333,0,0,-0.13333333,0,260.85333)" />
    <path
       id="path29"
       d="m 604.422,885.211 c 32.051,0 48.941,26.105 57.769,52.207 8.829,26.102 9.598,52.203 9.598,52.203 h 16.504 c 0,0 3.07,-104.219 67.176,-104.41 H 604.422"
       style="fill:#000000;fill-opacity:1;fill-rule:nonzero;stroke:none"
       transform="matrix(0.13333333,0,0,-0.13333333,0,260.85333)" />
    <path
       id="path30"
       d="m 724.57,1080.79 c -36.468,-36.47 -36.468,-91.169 -36.468,-91.169 l -16.313,-0.191 c 0,0 0,55.85 -35.508,91.36"
       style="fill:#000000;fill-opacity:1;fill-rule:nonzero;stroke:none"
       transform="matrix(0.13333333,0,0,-0.13333333,0,260.85333)" />
    <path
       id="path31"
       d="m 717.273,963.711 c -36.464,36.469 -91.164,36.469 -91.164,36.469 v 16.31 c 0,0 55.852,0 91.36,35.51"
       style="fill:#000000;fill-opacity:1;fill-rule:nonzero;stroke:none"
       transform="matrix(0.13333333,0,0,-0.13333333,0,260.85333)" />
    <path
       id="path32"
       d="m 644.152,963.52 c 36.465,36.464 91.164,36.464 91.164,36.464 v 16.316 c 0,0 -55.851,0 -91.359,35.5"
       style="fill:#000000;fill-opacity:1;fill-rule:nonzero;stroke:none"
       transform="matrix(0.13333333,0,0,-0.13333333,0,260.85333)" />
    <path
       id="path33"
       d="m 615.746,1742.34 c 0,-34.73 28.981,-62.95 64.871,-62.95 35.891,0 64.871,28.22 64.871,62.95 0,34.74 -28.98,62.96 -64.871,62.96 -35.89,0 -64.871,-28.22 -64.871,-62.96"
       style="fill:#000000;fill-opacity:1;fill-rule:nonzero;stroke:none"
       transform="matrix(0.13333333,0,0,-0.13333333,0,260.85333)" />
    <path
       id="path34"
       d="m 532.063,1623.16 c 0,-34.74 28.984,-62.96 64.875,-62.96 35.89,0 64.871,28.22 64.871,62.96 0,34.73 -28.981,62.95 -64.871,62.95 -35.891,0 -64.875,-28.22 -64.875,-62.95"
       style="fill:#000000;fill-opacity:1;fill-rule:nonzero;stroke:none"
       transform="matrix(0.13333333,0,0,-0.13333333,0,260.85333)" />
    <path
       id="path35"
       d="m 698.273,1622.77 c 0,-12.66 3.84,-24.56 10.559,-34.54 11.516,-17.09 31.668,-28.41 54.313,-28.41 35.89,0 64.875,28.22 64.875,62.95 0,34.74 -28.985,62.96 -64.875,62.96 -35.891,0 -64.872,-28.22 -64.872,-62.96"
       style="fill:#000000;fill-opacity:1;fill-rule:nonzero;stroke:none"
       transform="matrix(0.13333333,0,0,-0.13333333,0,260.85333)" />
    <path
       id="path36"
       d="m 604.422,1500.52 c 32.051,0 48.941,26.1 57.769,52.2 8.829,26.1 9.598,52.2 9.598,52.2 h 16.504 c 0,0 3.07,-104.21 67.176,-104.4 H 604.422"
       style="fill:#000000;fill-opacity:1;fill-rule:nonzero;stroke:none"
       transform="matrix(0.13333333,0,0,-0.13333333,0,260.85333)" />
    <path
       id="path37"
       d="m 724.57,1696.09 c -36.468,-36.46 -36.468,-91.17 -36.468,-91.17 l -16.313,-0.19 c 0,0 0,55.85 -35.508,91.36"
       style="fill:#000000;fill-opacity:1;fill-rule:nonzero;stroke:none"
       transform="matrix(0.13333333,0,0,-0.13333333,0,260.85333)" />
    <path
       id="path38"
       d="m 717.273,1579.01 c -36.464,36.47 -91.164,36.47 -91.164,36.47 v 16.31 c 0,0 55.852,0 91.36,35.51"
       style="fill:#000000;fill-opacity:1;fill-rule:nonzero;stroke:none"
       transform="matrix(0.13333333,0,0,-0.13333333,0,260.85333)" />
    <path
       id="path39"
       d="m 644.152,1578.82 c 36.465,36.47 91.164,36.47 91.164,36.47 v 16.31 c 0,0 -55.851,0 -91.359,35.51"
       style="fill:#000000;fill-opacity:1;fill-rule:nonzero;stroke:none"
       transform="matrix(0.13333333,0,0,-0.13333333,0,260.85333)" />
  </g>
</svg>
