<?xml version="1.0" encoding="UTF-8" standalone="no"?>
<!-- Created with Inkscape (http://www.inkscape.org/) -->

<svg
   version="1.1"
   id="svg1"
   width="180.27953"
   height="260.85278"
   viewBox="0 0 180.27953 260.85278"
   xmlns="http://www.w3.org/2000/svg"
   xmlns:svg="http://www.w3.org/2000/svg">
  <defs
     id="defs1" />
  <g
     id="g1"
     transform="translate(2.796582e-5,0.06350344)">
    <path
       id="path1"
       d="M 9.99609,65.418 C 9.99609,35.1875 34.707,10.4766 64.9375,10.4766 H 1287.24 c 30.15,0 54.86,24.7109 54.86,54.9414 V 1891.94 c 0,30.23 -24.71,54.94 -54.86,54.94 H 64.9375 c -30.2305,0 -54.94141,-24.71 -54.94141,-54.94 V 65.418"
       style="fill:#ffffff;fill-opacity:1;fill-rule:nonzero;stroke:none"
       transform="matrix(0.13333333,0,0,-0.13333333,0,260.85333)" />
    <path
       id="path2"
       d="M 9.99609,65.418 C 9.99609,35.1875 34.707,10.4766 64.9375,10.4766 H 1287.24 c 30.15,0 54.86,24.7109 54.86,54.9414 V 1891.94 c 0,30.23 -24.71,54.94 -54.86,54.94 H 64.9375 c -30.2305,0 -54.94141,-24.71 -54.94141,-54.94 z"
       style="fill:none;stroke:#000000;stroke-width:19.9926;stroke-linecap:butt;stroke-linejoin:miter;stroke-miterlimit:10;stroke-dasharray:none;stroke-opacity:1"
       transform="matrix(0.13333333,0,0,-0.13333333,0,260.85333)" />
    <path
       id="path3"
       d="M 165.871,1657.76 H 87.957 v 21.48 H 109 v 48.3 H 49.9453 v 20.41 l 59.2427,179.68 h 35.64 v -177.19 h 24.266 v -22.9 h -24.266 v -48.3 h 21.043 v -21.48 M 109,1750.44 v 128.72 L 66.8203,1750.44 H 109"
       style="fill:#e6180a;fill-opacity:1;fill-rule:nonzero;stroke:none"
       transform="matrix(0.13333333,0,0,-0.13333333,0,260.85333)" />
    <path
       id="path4"
       d="m 1194.22,307.566 h 77.92 v -21.484 h -21.05 v -48.289 h 59.06 V 217.375 L 1250.91,37.6953 h -35.64 V 214.887 H 1191 v 22.906 h 24.27 v 48.289 h -21.05 v 21.484 m 56.87,-92.679 V 86.168 l 42.18,128.719 h -42.18"
       style="fill:#e6180a;fill-opacity:1;fill-rule:nonzero;stroke:none"
       transform="matrix(0.13333333,0,0,-0.13333333,0,260.85333)" />
    <path
       id="path5"
       d="m 119.156,1545.8 c 20.473,0 40.946,0 61.418,0 -6.996,0.31 -12.949,4.84 -18.57,8.58 -12.629,9.53 -24.453,20.45 -33.797,33.23 -4.355,6.43 -8.937,13.66 -9.051,21.69 m 61.418,-63.5 c -8.879,-0.28 -16.461,-5.92 -23.222,-11.14 -11.957,-10.03 -22.305,-21.97 -31.039,-34.9 -3.208,-5.35 -6.981,-11.02 -7.157,-17.46 0,21.17 0,42.33 0,63.5 m 0,-63.5 c -0.304,9.46 -6.062,17.65 -11.5,24.96 -9.6912,12.07 -21.1755,22.76 -33.8122,31.69 -4.9102,3.06 -10.125,6.7 -16.1055,6.85 20.4726,0 40.9453,0 61.4177,0 m -61.4177,0 c 8.8789,0.28 16.457,5.93 23.2226,11.13 11.9571,10.05 22.3051,21.99 31.0391,34.91 3.207,5.35 6.977,11.02 7.156,17.46 0,-21.17 0,-42.33 0,-63.5"
       style="fill:#e6180a;fill-opacity:1;fill-rule:nonzero;stroke:none"
       transform="matrix(0.13333333,0,0,-0.13333333,0,260.85333)" />
    <path
       id="path6"
       d="m 1240.94,419.523 c -20.48,0 -40.95,0 -61.42,0 7,-0.308 12.95,-4.835 18.57,-8.578 12.63,-9.527 24.46,-20.449 33.8,-33.23 4.36,-6.43 8.93,-13.656 9.05,-21.688 m -61.42,63.496 c 8.88,0.282 16.46,5.93 23.23,11.141 11.95,10.035 22.3,21.977 31.03,34.899 3.21,5.351 6.98,11.019 7.16,17.457 0,-21.168 0,-42.329 0,-63.497 m 0,63.497 c 0.3,-9.45 6.06,-17.641 11.5,-24.95 9.69,-12.074 21.17,-22.757 33.81,-31.691 4.91,-3.063 10.13,-6.707 16.11,-6.856 -20.48,0 -40.95,0 -61.42,0 m 61.42,0 c -8.88,-0.277 -16.46,-5.925 -23.23,-11.128 -11.95,-10.047 -22.3,-21.985 -31.03,-34.911 -3.21,-5.347 -6.98,-11.019 -7.16,-17.457 0,21.168 0,42.328 0,63.496"
       style="fill:#e6180a;fill-opacity:1;fill-rule:nonzero;stroke:none"
       transform="matrix(0.13333333,0,0,-0.13333333,0,260.85333)" />
    <path
       id="path7"
       d="m 360.727,1652.9 c 49.136,0 98.269,0 147.402,0 -16.789,0.75 -31.074,11.62 -44.566,20.59 -30.305,22.87 -58.692,49.08 -81.11,79.75 -10.457,15.43 -21.449,32.78 -21.726,52.05 M 508.129,1652.9 c -21.305,-0.67 -39.5,-14.22 -55.734,-26.73 -28.696,-24.09 -53.532,-52.74 -74.489,-83.76 -7.695,-12.84 -16.754,-26.45 -17.179,-41.9 0,50.8 0,101.59 0,152.39 m 0,-152.39 c -0.727,22.69 -14.547,42.34 -27.598,59.88 -23.262,28.99 -50.824,54.63 -81.149,76.06 -11.785,7.35 -24.296,16.1 -38.652,16.45 49.133,0 98.266,0 147.399,0 m -147.399,0 c 21.305,0.67 39.496,14.23 55.735,26.72 28.695,24.11 53.531,52.76 74.488,83.77 7.695,12.84 16.746,26.45 17.176,41.9 0,-50.8 0,-101.58 0,-152.39"
       style="fill:#e6180a;fill-opacity:1;fill-rule:nonzero;stroke:none"
       transform="matrix(0.13333333,0,0,-0.13333333,0,260.85333)" />
    <path
       id="path8"
       d="m 360.73,345.609 c -49.132,0 -98.265,0 -147.398,0 16.785,-0.75 31.07,-11.613 44.563,-20.589 30.308,-22.864 58.695,-49.082 81.109,-79.75 10.461,-15.434 21.453,-32.782 21.726,-52.051 m -147.398,152.39 c 21.301,0.672 39.496,14.227 55.734,26.735 28.696,24.09 53.528,52.742 74.489,83.758 7.695,12.839 16.754,26.449 17.175,41.898 0,-50.805 0,-101.586 0,-152.391 m 0,152.391 c 0.731,-22.687 14.551,-42.34 27.602,-59.883 23.262,-28.98 50.82,-54.621 81.145,-76.058 11.785,-7.352 24.3,-16.094 38.656,-16.45 -49.133,0 -98.266,0 -147.403,0 m 147.403,0 c -21.305,-0.671 -39.5,-14.222 -55.735,-26.714 -28.695,-24.11 -53.531,-52.762 -74.488,-83.778 -7.695,-12.84 -16.746,-26.449 -17.18,-41.898 0,50.801 0,101.586 0,152.39"
       style="fill:#e6180a;fill-opacity:1;fill-rule:nonzero;stroke:none"
       transform="matrix(0.13333333,0,0,-0.13333333,0,260.85333)" />
    <path
       id="path9"
       d="m 999.355,1652.9 c 49.135,0 98.275,0 147.405,0 -16.79,0.75 -31.08,11.62 -44.57,20.59 -30.3,22.87 -58.69,49.08 -81.11,79.75 -10.45,15.43 -21.447,32.78 -21.725,52.05 M 1146.76,1652.9 c -21.31,-0.67 -39.5,-14.22 -55.74,-26.73 -28.69,-24.09 -53.53,-52.74 -74.48,-83.76 -7.7,-12.84 -16.759,-26.45 -17.185,-41.9 0,50.8 0,101.59 0,152.39 m 0,-152.39 c -0.726,22.69 -14.546,42.34 -27.597,59.88 -23.262,28.99 -50.824,54.63 -81.149,76.06 -11.781,7.35 -24.296,16.1 -38.652,16.45 49.133,0 98.266,0 147.398,0 m -147.398,0 c 21.305,0.67 39.5,14.23 55.734,26.72 28.696,24.11 53.532,52.76 74.489,83.77 7.695,12.84 16.746,26.45 17.175,41.9 0,-50.8 0,-101.58 0,-152.39"
       style="fill:#e6180a;fill-opacity:1;fill-rule:nonzero;stroke:none"
       transform="matrix(0.13333333,0,0,-0.13333333,0,260.85333)" />
    <path
       id="path10"
       d="m 999.355,345.609 c -49.132,0 -98.269,0 -147.402,0 16.789,-0.75 31.074,-11.613 44.567,-20.589 30.304,-22.864 58.691,-49.082 81.109,-79.75 10.461,-15.434 21.449,-32.782 21.726,-52.051 m -147.402,152.39 c 21.305,0.672 39.5,14.227 55.738,26.735 28.692,24.09 53.528,52.742 74.485,83.758 7.699,12.839 16.758,26.449 17.179,41.898 0,-50.805 0,-101.586 0,-152.391 m 0,152.391 c 0.735,-22.687 14.545,-42.34 27.595,-59.883 23.26,-28.98 50.83,-54.621 81.15,-76.058 11.79,-7.352 24.3,-16.094 38.66,-16.45 -49.14,0 -98.27,0 -147.405,0 m 147.405,0 c -21.31,-0.671 -39.5,-14.222 -55.74,-26.714 -28.69,-24.11 -53.53,-52.762 -74.49,-83.778 -7.69,-12.84 -16.745,-26.449 -17.175,-41.898 0,50.801 0,101.586 0,152.39"
       style="fill:#e6180a;fill-opacity:1;fill-rule:nonzero;stroke:none"
       transform="matrix(0.13333333,0,0,-0.13333333,0,260.85333)" />
  </g>
</svg>
