<?xml version="1.0" encoding="UTF-8" standalone="no"?>
<!-- Created with Inkscape (http://www.inkscape.org/) -->

<svg
   version="1.1"
   id="svg1"
   width="180.27953"
   height="260.85278"
   viewBox="0 0 180.27953 260.85278"
   xmlns="http://www.w3.org/2000/svg"
   xmlns:svg="http://www.w3.org/2000/svg">
  <defs
     id="defs1" />
  <g
     id="g1"
     transform="translate(2.796582e-5,0.06350344)">
    <path
       id="path1"
       d="M 9.99609,65.418 C 9.99609,35.1875 34.707,10.4766 64.9375,10.4766 H 1287.24 c 30.15,0 54.86,24.7109 54.86,54.9414 V 1891.94 c 0,30.22 -24.71,54.94 -54.86,54.94 H 64.9375 c -30.2305,0 -54.94141,-24.72 -54.94141,-54.94 V 65.418"
       style="fill:#ffffff;fill-opacity:1;fill-rule:nonzero;stroke:none"
       transform="matrix(0.13333333,0,0,-0.13333333,0,260.85333)" />
    <path
       id="path2"
       d="M 9.99609,65.418 C 9.99609,35.1875 34.707,10.4766 64.9375,10.4766 H 1287.24 c 30.15,0 54.86,24.7109 54.86,54.9414 V 1891.94 c 0,30.22 -24.71,54.94 -54.86,54.94 H 64.9375 c -30.2305,0 -54.94141,-24.72 -54.94141,-54.94 z"
       style="fill:none;stroke:#000000;stroke-width:19.9926;stroke-linecap:butt;stroke-linejoin:miter;stroke-miterlimit:10;stroke-dasharray:none;stroke-opacity:1"
       transform="matrix(0.13333333,0,0,-0.13333333,0,260.85333)" />
    <path
       id="path3"
       d="M 165.871,1657.76 H 87.957 v 21.48 H 109 v 48.3 H 49.9453 v 20.41 l 59.2427,179.68 h 35.64 v -177.19 h 24.266 v -22.9 h -24.266 v -48.3 h 21.043 v -21.48 M 109,1750.44 v 128.72 L 66.8203,1750.44 H 109"
       style="fill:#000000;fill-opacity:1;fill-rule:nonzero;stroke:none"
       transform="matrix(0.13333333,0,0,-0.13333333,0,260.85333)" />
    <path
       id="path4"
       d="m 1194.22,307.566 h 77.92 v -21.484 h -21.05 v -48.293 h 59.06 V 217.371 L 1250.91,37.6953 h -35.64 V 214.887 H 1191 v 22.902 h 24.27 v 48.293 h -21.05 v 21.484 m 56.87,-92.679 V 86.168 l 42.18,128.719 h -42.18"
       style="fill:#000000;fill-opacity:1;fill-rule:nonzero;stroke:none"
       transform="matrix(0.13333333,0,0,-0.13333333,0,260.85333)" />
    <path
       id="path5"
       d="m 87.8086,1482.39 c 13.3554,0 20.3904,14.23 24.0704,28.47 3.68,14.23 4,28.46 4,28.46 l 6.797,0.09 c 0,0 1.277,-57.02 27.988,-57.02 H 87.8086"
       style="fill:#000000;fill-opacity:1;fill-rule:nonzero;stroke:none"
       transform="matrix(0.13333333,0,0,-0.13333333,0,260.85333)" />
    <path
       id="path6"
       d="m 65.1758,1539.41 c 0.082,27.74 41.7462,47.89 53.9802,69.81 12.235,-21.99 53.899,-42.15 53.981,-69.81 0,-13.12 -12.078,-23.76 -27.032,-23.76 -14.875,0 -26.949,10.64 -26.949,23.76 0,-13.12 -12.074,-23.76 -27.031,-23.76 -14.9531,0 -26.9492,10.64 -26.9492,23.76"
       style="fill:#000000;fill-opacity:1;fill-rule:nonzero;stroke:none"
       transform="matrix(0.13333333,0,0,-0.13333333,0,260.85333)" />
    <path
       id="path7"
       d="m 1272.29,482.941 c -13.36,0 -20.4,-14.234 -24.08,-28.468 -3.67,-14.235 -3.99,-28.469 -3.99,-28.469 l -6.8,-0.082 c 0,0 -1.28,57.019 -27.99,57.019 h 62.86"
       style="fill:#000000;fill-opacity:1;fill-rule:nonzero;stroke:none"
       transform="matrix(0.13333333,0,0,-0.13333333,0,260.85333)" />
    <path
       id="path8"
       d="m 1294.92,425.922 c -0.08,-27.75 -41.74,-47.902 -53.98,-69.813 -12.24,21.993 -53.9,42.145 -53.98,69.813 0,13.117 12.08,23.75 27.03,23.75 14.87,0 26.95,-10.633 26.95,-23.75 0,13.117 12.08,23.75 27.03,23.75 14.95,0 26.95,-10.633 26.95,-23.75"
       style="fill:#000000;fill-opacity:1;fill-rule:nonzero;stroke:none"
       transform="matrix(0.13333333,0,0,-0.13333333,0,260.85333)" />
    <path
       id="path9"
       d="m 285.492,1500.71 c 32.051,0 48.942,34.17 57.77,68.33 8.828,34.16 9.597,68.32 9.597,68.32 l 16.313,0.2 c 0,0 3.07,-136.85 67.176,-136.85 H 285.492"
       style="fill:#000000;fill-opacity:1;fill-rule:nonzero;stroke:none"
       transform="matrix(0.13333333,0,0,-0.13333333,0,260.85333)" />
    <path
       id="path10"
       d="m 231.176,1637.56 c 0.191,66.6 100.187,114.96 129.551,167.55 29.367,-52.78 129.363,-101.15 129.554,-167.55 0,-31.48 -28.98,-57.01 -64.871,-57.01 -35.699,0 -64.683,25.53 -64.683,57.01 0,-31.48 -28.981,-57.01 -64.872,-57.01 -35.89,0 -64.679,25.53 -64.679,57.01"
       style="fill:#000000;fill-opacity:1;fill-rule:nonzero;stroke:none"
       transform="matrix(0.13333333,0,0,-0.13333333,0,260.85333)" />
    <path
       id="path11"
       d="m 435.969,497.805 c -32.055,0 -48.942,-34.164 -57.774,-68.325 -8.828,-34.164 -9.593,-68.328 -9.593,-68.328 l -16.317,-0.191 c 0,0 -3.07,136.844 -67.172,136.844 h 150.856"
       style="fill:#000000;fill-opacity:1;fill-rule:nonzero;stroke:none"
       transform="matrix(0.13333333,0,0,-0.13333333,0,260.85333)" />
    <path
       id="path12"
       d="M 490.285,360.961 C 490.09,294.359 390.098,245.996 360.73,193.406 331.367,246.188 231.371,294.555 231.18,360.961 c 0,31.477 28.98,57.004 64.871,57.004 35.699,0 64.679,-25.527 64.679,-57.004 0,31.477 28.981,57.004 64.875,57.004 35.891,0 64.68,-25.527 64.68,-57.004"
       style="fill:#000000;fill-opacity:1;fill-rule:nonzero;stroke:none"
       transform="matrix(0.13333333,0,0,-0.13333333,0,260.85333)" />
    <path
       id="path13"
       d="m 924.121,1500.71 c 32.051,0 48.942,34.17 57.77,68.33 8.828,34.16 9.597,68.32 9.597,68.32 l 16.312,0.2 c 0,0 3.08,-136.85 67.18,-136.85 H 924.121"
       style="fill:#000000;fill-opacity:1;fill-rule:nonzero;stroke:none"
       transform="matrix(0.13333333,0,0,-0.13333333,0,260.85333)" />
    <path
       id="path14"
       d="m 869.805,1637.56 c 0.191,66.6 100.187,114.96 129.55,167.55 29.365,-52.78 129.365,-101.15 129.555,-167.55 0,-31.48 -28.98,-57.01 -64.87,-57.01 -35.7,0 -64.685,25.53 -64.685,57.01 0,-31.48 -28.98,-57.01 -64.871,-57.01 -35.89,0 -64.679,25.53 -64.679,57.01"
       style="fill:#000000;fill-opacity:1;fill-rule:nonzero;stroke:none"
       transform="matrix(0.13333333,0,0,-0.13333333,0,260.85333)" />
    <path
       id="path15"
       d="m 1074.59,497.805 c -32.05,0 -48.94,-34.164 -57.77,-68.325 -8.83,-34.164 -9.6,-68.328 -9.6,-68.328 l -16.31,-0.191 c 0,0 -3.07,136.844 -67.176,136.844 h 150.856"
       style="fill:#000000;fill-opacity:1;fill-rule:nonzero;stroke:none"
       transform="matrix(0.13333333,0,0,-0.13333333,0,260.85333)" />
    <path
       id="path16"
       d="m 1128.91,360.961 c -0.2,-66.602 -100.19,-114.965 -129.555,-167.555 -29.367,52.782 -129.359,101.149 -129.55,167.555 0,31.477 28.98,57.004 64.871,57.004 35.699,0 64.679,-25.527 64.679,-57.004 0,31.477 28.985,57.004 64.875,57.004 35.89,0 64.68,-25.527 64.68,-57.004"
       style="fill:#000000;fill-opacity:1;fill-rule:nonzero;stroke:none"
       transform="matrix(0.13333333,0,0,-0.13333333,0,260.85333)" />
  </g>
</svg>
