<?xml version="1.0" encoding="UTF-8" standalone="no"?>
<!-- Created with Inkscape (http://www.inkscape.org/) -->

<svg
   version="1.1"
   id="svg1"
   width="180.27953"
   height="260.85278"
   viewBox="0 0 180.27953 260.85278"
   xmlns="http://www.w3.org/2000/svg"
   xmlns:svg="http://www.w3.org/2000/svg">
  <defs
     id="defs1" />
  <g
     id="g1"
     transform="translate(2.796582e-5,0.06350344)">
    <path
       id="path1"
       d="M 9.99609,65.418 C 9.99609,35.1875 34.707,10.4766 64.9375,10.4766 H 1287.24 c 30.15,0 54.86,24.7109 54.86,54.9414 V 1891.94 c 0,30.23 -24.71,54.94 -54.86,54.94 H 64.9375 c -30.2305,0 -54.94141,-24.71 -54.94141,-54.94 V 65.418"
       style="fill:#ffffff;fill-opacity:1;fill-rule:nonzero;stroke:none"
       transform="matrix(0.13333333,0,0,-0.13333333,0,260.85333)" />
    <path
       id="path2"
       d="M 9.99609,65.418 C 9.99609,35.1875 34.707,10.4766 64.9375,10.4766 H 1287.24 c 30.15,0 54.86,24.7109 54.86,54.9414 V 1891.94 c 0,30.23 -24.71,54.94 -54.86,54.94 H 64.9375 c -30.2305,0 -54.94141,-24.71 -54.94141,-54.94 z"
       style="fill:none;stroke:#000000;stroke-width:19.9926;stroke-linecap:butt;stroke-linejoin:miter;stroke-miterlimit:10;stroke-dasharray:none;stroke-opacity:1"
       transform="matrix(0.13333333,0,0,-0.13333333,0,260.85333)" />
    <path
       id="path3"
       d="m 151.465,1922.84 v -46.52 H 75.7305 v -58.23 c 4.1679,6.03 8.8125,10.59 13.9336,13.66 5.1172,3.08 10.5199,4.62 16.2069,4.62 17.442,0 31.219,-8.28 41.328,-24.85 10.11,-16.46 15.168,-38.89 15.168,-67.29 0,-28.89 -5.058,-51.37 -15.168,-67.47 -10.109,-16.1 -24.265,-24.15 -42.465,-24.15 -7.7106,0 -15.3863,1.19 -23.0348,3.55 -7.582,2.37 -15.5117,6.04 -23.789,11.01 v 57.88 h 11.375 c 0.3789,-17.4 2.7773,-30.36 7.2031,-38.88 4.4844,-8.53 11.0898,-12.79 19.8086,-12.79 9.2891,0 16.1801,5.8 20.6641,17.41 4.488,11.71 6.73,29.53 6.73,53.44 0,23.55 -2.211,41.13 -6.632,52.73 -4.364,11.72 -10.996,17.58 -19.9067,17.58 -4.8046,0 -9.1015,-1.9 -12.8906,-5.69 -3.7304,-3.67 -7.207,-9.41 -10.4297,-17.22 h -9.4765 v 131.21 h 87.1095"
       style="fill:#e6180a;fill-opacity:1;fill-rule:nonzero;stroke:none"
       transform="matrix(0.13333333,0,0,-0.13333333,0,260.85333)" />
    <path
       id="path4"
       d="m 1208.63,42.4922 v 46.5156 h 75.74 v 58.2342 c -4.17,-6.035 -8.82,-10.594 -13.94,-13.672 -5.12,-3.074 -10.52,-4.613 -16.21,-4.613 -17.44,0 -31.21,8.285 -41.33,24.856 -10.1,16.453 -15.16,38.882 -15.16,67.289 0,28.882 5.06,51.371 15.16,67.468 10.12,16.098 24.27,24.145 42.47,24.145 7.71,0 15.39,-1.184 23.03,-3.551 7.59,-2.367 15.52,-6.035 23.8,-11.008 v -57.879 h -11.38 c -0.38,17.399 -2.78,30.36 -7.2,38.883 -4.49,8.52 -11.09,12.781 -19.81,12.781 -9.29,0 -16.18,-5.796 -20.67,-17.398 -4.49,-11.719 -6.73,-29.531 -6.73,-53.441 0,-23.555 2.21,-41.133 6.64,-52.731 4.36,-11.719 11,-17.578 19.91,-17.578 4.8,0 9.09,1.895 12.89,5.684 3.72,3.668 7.2,9.41 10.42,17.218 h 9.48 V 42.4922 h -87.11"
       style="fill:#e6180a;fill-opacity:1;fill-rule:nonzero;stroke:none"
       transform="matrix(0.13333333,0,0,-0.13333333,0,260.85333)" />
    <path
       id="path5"
       d="m 119.156,1545.8 c 20.473,0 40.946,0 61.418,0 -6.996,0.31 -12.949,4.84 -18.57,8.58 -12.629,9.53 -24.453,20.45 -33.797,33.23 -4.355,6.43 -8.937,13.66 -9.051,21.69 m 61.418,-63.5 c -8.879,-0.28 -16.457,-5.92 -23.222,-11.14 -11.957,-10.03 -22.305,-21.97 -31.039,-34.9 -3.208,-5.35 -6.981,-11.02 -7.157,-17.46 0,21.17 0,42.33 0,63.5 m 0,-63.5 c -0.304,9.46 -6.062,17.65 -11.5,24.96 -9.6912,12.07 -21.1755,22.76 -33.8122,31.69 -4.9102,3.06 -10.1211,6.7 -16.1055,6.85 20.4726,0 40.9453,0 61.4177,0 m -61.4177,0 c 8.8789,0.28 16.457,5.93 23.2226,11.13 11.9571,10.05 22.3051,21.99 31.0391,34.91 3.207,5.35 6.977,11.02 7.156,17.46 0,-21.17 0,-42.33 0,-63.5"
       style="fill:#e6180a;fill-opacity:1;fill-rule:nonzero;stroke:none"
       transform="matrix(0.13333333,0,0,-0.13333333,0,260.85333)" />
    <path
       id="path6"
       d="m 1240.94,419.523 c -20.48,0 -40.95,0 -61.42,0 7,-0.308 12.95,-4.835 18.57,-8.578 12.63,-9.527 24.46,-20.449 33.8,-33.23 4.36,-6.43 8.93,-13.656 9.05,-21.688 m -61.42,63.496 c 8.88,0.282 16.46,5.93 23.23,11.141 11.95,10.035 22.3,21.977 31.03,34.899 3.21,5.351 6.98,11.019 7.16,17.457 0,-21.168 0,-42.329 0,-63.497 m 0,63.497 c 0.3,-9.45 6.06,-17.641 11.5,-24.95 9.69,-12.074 21.17,-22.757 33.81,-31.691 4.91,-3.063 10.13,-6.707 16.11,-6.856 -20.48,0 -40.95,0 -61.42,0 m 61.42,0 c -8.88,-0.277 -16.46,-5.925 -23.23,-11.128 -11.95,-10.047 -22.3,-21.985 -31.03,-34.911 -3.21,-5.347 -6.98,-11.019 -7.16,-17.457 0,21.168 0,42.328 0,63.496"
       style="fill:#e6180a;fill-opacity:1;fill-rule:nonzero;stroke:none"
       transform="matrix(0.13333333,0,0,-0.13333333,0,260.85333)" />
    <path
       id="path7"
       d="m 360.734,1652.9 c 49.133,0 98.27,0 147.403,0 -16.789,0.75 -31.074,11.62 -44.567,20.59 -30.304,22.87 -58.691,49.08 -81.109,79.75 -10.461,15.43 -21.449,32.78 -21.727,52.05 M 508.137,1652.9 c -21.305,-0.67 -39.5,-14.22 -55.739,-26.73 -28.691,-24.09 -53.527,-52.74 -74.484,-83.76 -7.699,-12.84 -16.758,-26.45 -17.18,-41.9 0,50.8 0,101.59 0,152.39 m 0,-152.39 c -0.73,22.69 -14.546,42.34 -27.597,59.88 -23.262,28.99 -50.824,54.63 -81.149,76.06 -11.785,7.35 -24.297,16.1 -38.656,16.45 49.137,0 98.27,0 147.402,0 m -147.402,0 c 21.305,0.67 39.5,14.23 55.738,26.72 28.692,24.11 53.528,52.76 74.489,83.77 7.695,12.84 16.746,26.45 17.175,41.9 0,-50.8 0,-101.58 0,-152.39"
       style="fill:#e6180a;fill-opacity:1;fill-rule:nonzero;stroke:none"
       transform="matrix(0.13333333,0,0,-0.13333333,0,260.85333)" />
    <path
       id="path8"
       d="m 360.734,345.609 c -49.132,0 -98.269,0 -147.402,0 16.789,-0.75 31.074,-11.613 44.566,-20.589 30.305,-22.864 58.692,-49.082 81.11,-79.75 10.461,-15.434 21.449,-32.782 21.726,-52.051 m -147.402,152.39 c 21.305,0.672 39.5,14.227 55.738,26.735 28.692,24.09 53.528,52.742 74.485,83.758 7.699,12.839 16.758,26.449 17.179,41.898 0,-50.805 0,-101.586 0,-152.391 m 0,152.391 c 0.731,-22.687 14.547,-42.34 27.598,-59.883 23.262,-28.98 50.824,-54.621 81.148,-76.058 11.786,-7.352 24.297,-16.094 38.657,-16.45 -49.137,0 -98.27,0 -147.403,0 m 147.403,0 c -21.305,-0.671 -39.5,-14.222 -55.739,-26.714 -28.691,-24.11 -53.527,-52.762 -74.488,-83.778 -7.695,-12.84 -16.746,-26.449 -17.176,-41.898 0,50.801 0,101.586 0,152.39"
       style="fill:#e6180a;fill-opacity:1;fill-rule:nonzero;stroke:none"
       transform="matrix(0.13333333,0,0,-0.13333333,0,260.85333)" />
    <path
       id="path9"
       d="m 999.355,1652.9 c 49.135,0 98.275,0 147.405,0 -16.79,0.75 -31.08,11.62 -44.57,20.59 -30.3,22.87 -58.69,49.08 -81.11,79.75 -10.46,15.43 -21.447,32.78 -21.725,52.05 M 1146.76,1652.9 c -21.31,-0.67 -39.5,-14.22 -55.74,-26.73 -28.69,-24.09 -53.53,-52.74 -74.48,-83.76 -7.7,-12.84 -16.763,-26.45 -17.185,-41.9 0,50.8 0,101.59 0,152.39 m 0,-152.39 c -0.726,22.69 -14.546,42.34 -27.597,59.88 -23.262,28.99 -50.824,54.63 -81.149,76.06 -11.785,7.35 -24.296,16.1 -38.652,16.45 49.133,0 98.266,0 147.398,0 m -147.398,0 c 21.301,0.67 39.496,14.23 55.734,26.72 28.696,24.11 53.528,52.76 74.489,83.77 7.695,12.84 16.746,26.45 17.175,41.9 0,-50.8 0,-101.58 0,-152.39"
       style="fill:#e6180a;fill-opacity:1;fill-rule:nonzero;stroke:none"
       transform="matrix(0.13333333,0,0,-0.13333333,0,260.85333)" />
    <path
       id="path10"
       d="m 999.355,345.609 c -49.132,0 -98.265,0 -147.398,0 16.785,-0.75 31.074,-11.613 44.566,-20.589 30.305,-22.864 58.692,-49.082 81.11,-79.75 10.457,-15.434 21.449,-32.782 21.722,-52.051 m -147.398,152.39 c 21.305,0.672 39.496,14.227 55.734,26.735 28.696,24.09 53.532,52.742 74.489,83.758 7.695,12.839 16.754,26.449 17.175,41.898 0,-50.805 0,-101.586 0,-152.391 m 0,152.391 c 0.735,-22.687 14.555,-42.34 27.605,-59.883 23.26,-28.98 50.82,-54.621 81.15,-76.058 11.78,-7.352 24.29,-16.094 38.65,-16.45 -49.13,0 -98.27,0 -147.405,0 m 147.405,0 c -21.31,-0.671 -39.5,-14.222 -55.74,-26.714 -28.69,-24.11 -53.53,-52.762 -74.48,-83.778 -7.7,-12.84 -16.751,-26.449 -17.185,-41.898 0,50.801 0,101.586 0,152.39"
       style="fill:#e6180a;fill-opacity:1;fill-rule:nonzero;stroke:none"
       transform="matrix(0.13333333,0,0,-0.13333333,0,260.85333)" />
    <path
       id="path11"
       d="m 680.043,1037.6 c 49.133,0 98.266,0 147.398,0 -16.785,0.75 -31.07,11.61 -44.566,20.59 -30.305,22.86 -58.691,49.08 -81.105,79.75 -10.461,15.44 -21.454,32.78 -21.727,52.05 M 827.441,1037.6 c -21.304,-0.67 -39.496,-14.22 -55.734,-26.73 -28.695,-24.093 -53.531,-52.745 -74.488,-83.761 -7.696,-12.839 -16.754,-26.449 -17.176,-41.898 0,50.805 0,101.586 0,152.389 m 0,-152.389 c -0.73,22.684 -14.551,42.34 -27.602,59.883 -23.261,28.98 -50.82,54.621 -81.148,76.056 -11.781,7.35 -24.297,16.1 -38.652,16.45 49.132,0 98.265,0 147.402,0 m -147.402,0 c 21.304,0.67 39.5,14.22 55.734,26.72 28.695,24.11 53.531,52.76 74.488,83.77 7.696,12.84 16.746,26.45 17.18,41.9 0,-50.8 0,-101.58 0,-152.39"
       style="fill:#e6180a;fill-opacity:1;fill-rule:nonzero;stroke:none"
       transform="matrix(0.13333333,0,0,-0.13333333,0,260.85333)" />
  </g>
</svg>
