<?xml version="1.0" encoding="UTF-8" standalone="no"?>
<!-- Created with Inkscape (http://www.inkscape.org/) -->

<svg
   version="1.1"
   id="svg1"
   width="180.27953"
   height="260.85278"
   viewBox="0 0 180.27953 260.85278"
   xmlns="http://www.w3.org/2000/svg"
   xmlns:svg="http://www.w3.org/2000/svg">
  <defs
     id="defs1" />
  <g
     id="g1"
     transform="translate(2.796582e-5,0.06350344)">
    <path
       id="path1"
       d="M 9.99609,65.418 C 9.99609,35.1875 34.707,10.4766 64.9375,10.4766 H 1287.24 c 30.15,0 54.86,24.7109 54.86,54.9414 V 1891.94 c 0,30.22 -24.71,54.94 -54.86,54.94 H 64.9375 c -30.2305,0 -54.94141,-24.72 -54.94141,-54.94 V 65.418"
       style="fill:#ffffff;fill-opacity:1;fill-rule:nonzero;stroke:none"
       transform="matrix(0.13333333,0,0,-0.13333333,0,260.85333)" />
    <path
       id="path2"
       d="M 9.99609,65.418 C 9.99609,35.1875 34.707,10.4766 64.9375,10.4766 H 1287.24 c 30.15,0 54.86,24.7109 54.86,54.9414 V 1891.94 c 0,30.22 -24.71,54.94 -54.86,54.94 H 64.9375 c -30.2305,0 -54.94141,-24.72 -54.94141,-54.94 z"
       style="fill:none;stroke:#000000;stroke-width:19.9926;stroke-linecap:butt;stroke-linejoin:miter;stroke-miterlimit:10;stroke-dasharray:none;stroke-opacity:1"
       transform="matrix(0.13333333,0,0,-0.13333333,0,260.85333)" />
    <path
       id="path3"
       d="m 151.465,1922.84 v -46.51 H 75.7305 v -58.24 c 4.1679,6.04 8.8125,10.59 13.9336,13.67 5.1172,3.08 10.5199,4.62 16.2069,4.62 17.442,0 31.219,-8.29 41.328,-24.86 10.11,-16.45 15.168,-38.88 15.168,-67.29 0,-28.88 -5.058,-51.37 -15.168,-67.46 -10.109,-16.1 -24.265,-24.15 -42.465,-24.15 -7.7106,0 -15.3863,1.18 -23.0348,3.55 -7.582,2.37 -15.5117,6.04 -23.789,11.01 v 57.88 h 11.375 c 0.3789,-17.4 2.7773,-30.36 7.2031,-38.88 4.4844,-8.53 11.0898,-12.79 19.8086,-12.79 9.2891,0 16.1801,5.8 20.6641,17.4 4.488,11.72 6.73,29.53 6.73,53.44 0,23.56 -2.211,41.13 -6.632,52.73 -4.364,11.72 -10.996,17.58 -19.9067,17.58 -4.8046,0 -9.1015,-1.89 -12.8906,-5.68 -3.7304,-3.67 -7.207,-9.41 -10.4297,-17.22 h -9.4765 v 131.2 h 87.1095"
       style="fill:#e6180a;fill-opacity:1;fill-rule:nonzero;stroke:none"
       transform="matrix(0.13333333,0,0,-0.13333333,0,260.85333)" />
    <path
       id="path4"
       d="m 1208.63,42.4922 v 46.5156 h 75.74 v 58.2342 c -4.17,-6.035 -8.82,-10.594 -13.94,-13.672 -5.12,-3.078 -10.52,-4.613 -16.21,-4.613 -17.44,0 -31.21,8.285 -41.33,24.856 -10.1,16.453 -15.16,38.882 -15.16,67.289 0,28.878 5.06,51.371 15.16,67.468 10.12,16.098 24.27,24.145 42.47,24.145 7.71,0 15.39,-1.184 23.03,-3.551 7.59,-2.367 15.52,-6.035 23.8,-11.008 v -57.879 h -11.38 c -0.38,17.399 -2.78,30.36 -7.2,38.883 -4.49,8.52 -11.09,12.781 -19.81,12.781 -9.29,0 -16.18,-5.8 -20.67,-17.398 -4.49,-11.719 -6.73,-29.531 -6.73,-53.441 0,-23.555 2.21,-41.133 6.64,-52.731 4.36,-11.719 11,-17.578 19.91,-17.578 4.8,0 9.09,1.895 12.89,5.684 3.72,3.668 7.2,9.41 10.42,17.218 h 9.48 V 42.4922 h -87.11"
       style="fill:#e6180a;fill-opacity:1;fill-rule:nonzero;stroke:none"
       transform="matrix(0.13333333,0,0,-0.13333333,0,260.85333)" />
    <path
       id="path5"
       d="m 180.492,1577.24 c -0.078,-37.67 -47.262,-65.1 -61.097,-94.93 -13.993,29.75 -61.2544,56.94 -61.5747,94.61 -0.082,17.75 13.6719,32.22 30.5469,32.22 16.9528,0 30.7888,-14.31 30.7888,-32.06 0,17.83 13.676,32.22 30.547,32.22 16.957,0.09 30.711,-14.31 30.789,-32.06"
       style="fill:#e6180a;fill-opacity:1;fill-rule:nonzero;stroke:none"
       transform="matrix(0.13333333,0,0,-0.13333333,0,260.85333)" />
    <path
       id="path6"
       d="m 1179.6,388.098 c 0.08,37.664 47.26,65.093 61.1,94.922 14,-29.747 61.26,-56.938 61.58,-94.602 0.08,-17.754 -13.68,-32.23 -30.55,-32.23 -16.96,0 -30.79,14.316 -30.79,32.07 0,-17.836 -13.67,-32.231 -30.55,-32.231 -16.95,-0.078 -30.71,14.317 -30.79,32.071"
       style="fill:#e6180a;fill-opacity:1;fill-rule:nonzero;stroke:none"
       transform="matrix(0.13333333,0,0,-0.13333333,0,260.85333)" />
    <path
       id="path7"
       d="m 507.945,1728.34 c -0.191,-90.4 -113.429,-156.23 -146.636,-227.82 -33.586,71.39 -147.016,136.65 -147.786,227.05 -0.191,42.61 32.821,77.34 73.321,77.34 40.687,0 73.89,-34.35 73.89,-76.96 0,42.8 32.821,77.35 73.317,77.35 40.691,0.19 73.703,-34.35 73.894,-76.96"
       style="fill:#e6180a;fill-opacity:1;fill-rule:nonzero;stroke:none"
       transform="matrix(0.13333333,0,0,-0.13333333,0,260.85333)" />
    <path
       id="path8"
       d="m 213.523,270.176 c 0.196,90.398 113.43,156.23 146.637,227.82 33.586,-71.398 147.016,-136.652 147.785,-227.051 0.192,-42.609 -32.82,-77.347 -73.32,-77.347 -40.687,0 -73.891,34.355 -73.891,76.961 0,-42.797 -32.82,-77.344 -73.316,-77.344 -40.688,-0.195 -73.699,34.351 -73.895,76.961"
       style="fill:#e6180a;fill-opacity:1;fill-rule:nonzero;stroke:none"
       transform="matrix(0.13333333,0,0,-0.13333333,0,260.85333)" />
    <path
       id="path9"
       d="m 1146.57,1728.34 c -0.19,-90.4 -113.43,-156.23 -146.636,-227.82 -33.59,71.39 -147.02,136.65 -147.786,227.05 -0.191,42.61 32.821,77.34 73.317,77.34 40.687,0 73.89,-34.35 73.89,-76.96 0,42.8 32.825,77.35 73.315,77.35 40.69,0.19 73.71,-34.35 73.9,-76.96"
       style="fill:#e6180a;fill-opacity:1;fill-rule:nonzero;stroke:none"
       transform="matrix(0.13333333,0,0,-0.13333333,0,260.85333)" />
    <path
       id="path10"
       d="m 852.148,270.176 c 0.192,90.398 113.43,156.23 146.633,227.82 33.589,-71.398 147.019,-136.652 147.789,-227.051 0.19,-42.609 -32.82,-77.347 -73.32,-77.347 -40.69,0 -73.895,34.355 -73.895,76.961 0,-42.797 -32.816,-77.344 -73.316,-77.344 -40.687,-0.195 -73.699,34.351 -73.891,76.961"
       style="fill:#e6180a;fill-opacity:1;fill-rule:nonzero;stroke:none"
       transform="matrix(0.13333333,0,0,-0.13333333,0,260.85333)" />
    <path
       id="path11"
       d="m 827.25,1113.03 c -0.191,-90.4 -113.43,-156.229 -146.633,-227.819 -33.586,71.398 -147.015,136.659 -147.785,227.059 -0.191,42.6 32.82,77.34 73.316,77.34 40.688,0 73.895,-34.35 73.895,-76.96 0,42.8 32.816,77.35 73.316,77.35 40.688,0.19 73.7,-34.36 73.891,-76.97"
       style="fill:#e6180a;fill-opacity:1;fill-rule:nonzero;stroke:none"
       transform="matrix(0.13333333,0,0,-0.13333333,0,260.85333)" />
  </g>
</svg>
