<?xml version="1.0" encoding="UTF-8" standalone="no"?>
<!-- Created with Inkscape (http://www.inkscape.org/) -->

<svg
   version="1.1"
   id="svg1"
   width="180.27953"
   height="260.85278"
   viewBox="0 0 180.27953 260.85278"
   xmlns="http://www.w3.org/2000/svg"
   xmlns:svg="http://www.w3.org/2000/svg">
  <defs
     id="defs1" />
  <g
     id="g1"
     transform="translate(2.796582e-5,0.06350344)">
    <path
       id="path1"
       d="M 9.99609,65.418 C 9.99609,35.1875 34.707,10.4766 64.9375,10.4766 H 1287.24 c 30.15,0 54.86,24.7109 54.86,54.9414 V 1891.94 c 0,30.22 -24.71,54.94 -54.86,54.94 H 64.9375 c -30.2305,0 -54.94141,-24.72 -54.94141,-54.94 V 65.418"
       style="fill:#ffffff;fill-opacity:1;fill-rule:nonzero;stroke:none"
       transform="matrix(0.13333333,0,0,-0.13333333,0,260.85333)" />
    <path
       id="path2"
       d="M 9.99609,65.418 C 9.99609,35.1875 34.707,10.4766 64.9375,10.4766 H 1287.24 c 30.15,0 54.86,24.7109 54.86,54.9414 V 1891.94 c 0,30.22 -24.71,54.94 -54.86,54.94 H 64.9375 c -30.2305,0 -54.94141,-24.72 -54.94141,-54.94 z"
       style="fill:none;stroke:#000000;stroke-width:19.9926;stroke-linecap:butt;stroke-linejoin:miter;stroke-miterlimit:10;stroke-dasharray:none;stroke-opacity:1"
       transform="matrix(0.13333333,0,0,-0.13333333,0,260.85333)" />
    <path
       id="path3"
       d="m 151.465,1922.84 v -46.52 H 75.7305 v -58.23 c 4.1679,6.03 8.8125,10.59 13.9336,13.66 5.1172,3.08 10.5199,4.62 16.2069,4.62 17.442,0 31.219,-8.28 41.328,-24.85 10.11,-16.46 15.168,-38.89 15.168,-67.29 0,-28.89 -5.058,-51.37 -15.168,-67.47 -10.109,-16.1 -24.265,-24.15 -42.465,-24.15 -7.7106,0 -15.3863,1.19 -23.0348,3.55 -7.582,2.37 -15.5117,6.04 -23.789,11.01 v 57.88 h 11.375 c 0.3789,-17.4 2.7773,-30.36 7.2031,-38.88 4.4844,-8.53 11.0898,-12.79 19.8086,-12.79 9.2891,0 16.1801,5.8 20.6641,17.41 4.488,11.71 6.73,29.53 6.73,53.44 0,23.55 -2.211,41.13 -6.632,52.73 -4.364,11.72 -10.996,17.57 -19.9067,17.58 -4.8046,-0.01 -9.1015,-1.9 -12.8906,-5.69 -3.7304,-3.67 -7.207,-9.41 -10.4297,-17.22 h -9.4765 v 131.21 h 87.1095"
       style="fill:#000000;fill-opacity:1;fill-rule:nonzero;stroke:none"
       transform="matrix(0.13333333,0,0,-0.13333333,0,260.85333)" />
    <path
       id="path4"
       d="m 1208.63,42.4922 v 46.5156 h 75.74 v 58.2342 c -4.17,-6.035 -8.82,-10.594 -13.94,-13.672 -5.12,-3.078 -10.52,-4.613 -16.21,-4.613 -17.44,0 -31.21,8.285 -41.33,24.856 -10.1,16.453 -15.16,38.882 -15.16,67.289 0,28.878 5.06,51.371 15.16,67.468 10.12,16.098 24.27,24.145 42.47,24.145 7.71,0 15.39,-1.184 23.03,-3.551 7.59,-2.367 15.52,-6.035 23.8,-11.008 v -57.879 h -11.38 c -0.38,17.399 -2.78,30.36 -7.2,38.883 -4.49,8.52 -11.09,12.781 -19.81,12.781 -9.29,0 -16.18,-5.8 -20.67,-17.398 -4.49,-11.719 -6.73,-29.531 -6.73,-53.441 0,-23.555 2.21,-41.133 6.64,-52.731 4.36,-11.719 11,-17.578 19.91,-17.578 4.8,0 9.09,1.895 12.89,5.684 3.72,3.668 7.2,9.41 10.42,17.218 h 9.48 V 42.4922 h -87.11"
       style="fill:#000000;fill-opacity:1;fill-rule:nonzero;stroke:none"
       transform="matrix(0.13333333,0,0,-0.13333333,0,260.85333)" />
    <path
       id="path5"
       d="m 87.8086,1482.39 c 13.3554,0 20.3904,14.23 24.0704,28.47 3.68,14.23 4,28.46 4,28.46 l 6.797,0.09 c 0,0 1.277,-57.02 27.988,-57.02 H 87.8086"
       style="fill:#000000;fill-opacity:1;fill-rule:nonzero;stroke:none"
       transform="matrix(0.13333333,0,0,-0.13333333,0,260.85333)" />
    <path
       id="path6"
       d="m 65.1758,1539.41 c 0.082,27.74 41.7462,47.89 53.9802,69.81 12.235,-21.99 53.899,-42.15 53.981,-69.81 0,-13.12 -12.074,-23.76 -27.032,-23.76 -14.875,0 -26.949,10.64 -26.949,23.76 0,-13.12 -12.074,-23.76 -27.031,-23.76 -14.9531,0 -26.9492,10.64 -26.9492,23.76"
       style="fill:#000000;fill-opacity:1;fill-rule:nonzero;stroke:none"
       transform="matrix(0.13333333,0,0,-0.13333333,0,260.85333)" />
    <path
       id="path7"
       d="m 1272.29,482.941 c -13.36,0 -20.4,-14.234 -24.08,-28.468 -3.67,-14.235 -3.99,-28.469 -3.99,-28.469 l -6.8,-0.082 c 0,0 -1.28,57.019 -27.99,57.019 h 62.86"
       style="fill:#000000;fill-opacity:1;fill-rule:nonzero;stroke:none"
       transform="matrix(0.13333333,0,0,-0.13333333,0,260.85333)" />
    <path
       id="path8"
       d="m 1294.92,425.922 c -0.08,-27.75 -41.74,-47.902 -53.98,-69.813 -12.24,21.993 -53.9,42.145 -53.98,69.813 0,13.117 12.08,23.75 27.03,23.75 14.87,0 26.95,-10.633 26.95,-23.75 0,13.117 12.08,23.75 27.03,23.75 14.95,0 26.95,-10.633 26.95,-23.75"
       style="fill:#000000;fill-opacity:1;fill-rule:nonzero;stroke:none"
       transform="matrix(0.13333333,0,0,-0.13333333,0,260.85333)" />
    <path
       id="path9"
       d="m 285.5,1500.71 c 32.051,0 48.941,34.17 57.77,68.33 8.828,34.16 9.597,68.32 9.597,68.32 l 16.313,0.2 c 0,0 3.07,-136.85 67.175,-136.85 H 285.5"
       style="fill:#000000;fill-opacity:1;fill-rule:nonzero;stroke:none"
       transform="matrix(0.13333333,0,0,-0.13333333,0,260.85333)" />
    <path
       id="path10"
       d="m 231.184,1637.56 c 0.191,66.6 100.187,114.96 129.55,167.55 29.368,-52.78 129.36,-101.15 129.551,-167.55 0,-31.48 -28.98,-57.01 -64.871,-57.01 -35.699,0 -64.68,25.53 -64.68,57.01 0,-31.48 -28.98,-57.01 -64.871,-57.01 -35.89,0 -64.679,25.53 -64.679,57.01"
       style="fill:#000000;fill-opacity:1;fill-rule:nonzero;stroke:none"
       transform="matrix(0.13333333,0,0,-0.13333333,0,260.85333)" />
    <path
       id="path11"
       d="m 435.969,497.805 c -32.051,0 -48.942,-34.164 -57.77,-68.325 -8.828,-34.164 -9.597,-68.328 -9.597,-68.328 l -16.313,-0.191 c 0,0 -3.07,136.844 -67.176,136.844 h 150.856"
       style="fill:#000000;fill-opacity:1;fill-rule:nonzero;stroke:none"
       transform="matrix(0.13333333,0,0,-0.13333333,0,260.85333)" />
    <path
       id="path12"
       d="M 490.285,360.961 C 490.094,294.359 390.098,245.996 360.734,193.406 c -29.367,52.782 -129.359,101.149 -129.55,167.555 0,31.477 28.98,57.004 64.871,57.004 35.699,0 64.679,-25.527 64.679,-57.004 0,31.477 28.981,57.004 64.871,57.004 35.891,0 64.68,-25.527 64.68,-57.004"
       style="fill:#000000;fill-opacity:1;fill-rule:nonzero;stroke:none"
       transform="matrix(0.13333333,0,0,-0.13333333,0,260.85333)" />
    <path
       id="path13"
       d="m 924.121,1500.71 c 32.051,0 48.942,34.17 57.77,68.33 8.828,34.16 9.597,68.32 9.597,68.32 l 16.312,0.2 c 0,0 3.07,-136.85 67.18,-136.85 H 924.121"
       style="fill:#000000;fill-opacity:1;fill-rule:nonzero;stroke:none"
       transform="matrix(0.13333333,0,0,-0.13333333,0,260.85333)" />
    <path
       id="path14"
       d="m 869.805,1637.56 c 0.191,66.6 100.187,114.96 129.55,167.55 29.365,-52.78 129.355,-101.15 129.555,-167.55 0,-31.48 -28.98,-57.01 -64.87,-57.01 -35.7,0 -64.685,25.53 -64.685,57.01 0,-31.48 -28.98,-57.01 -64.871,-57.01 -35.89,0 -64.679,25.53 -64.679,57.01"
       style="fill:#000000;fill-opacity:1;fill-rule:nonzero;stroke:none"
       transform="matrix(0.13333333,0,0,-0.13333333,0,260.85333)" />
    <path
       id="path15"
       d="m 1074.59,497.805 c -32.05,0 -48.94,-34.164 -57.77,-68.325 -8.83,-34.164 -9.59,-68.328 -9.59,-68.328 l -16.316,-0.191 c 0,0 -3.074,136.844 -67.176,136.844 h 150.852"
       style="fill:#000000;fill-opacity:1;fill-rule:nonzero;stroke:none"
       transform="matrix(0.13333333,0,0,-0.13333333,0,260.85333)" />
    <path
       id="path16"
       d="m 1128.91,360.961 c -0.19,-66.602 -100.19,-114.965 -129.555,-167.555 -29.363,52.782 -129.359,101.149 -129.55,167.555 0,31.477 28.98,57.004 64.871,57.004 35.699,0 64.679,-25.527 64.679,-57.004 0,31.477 28.985,57.004 64.875,57.004 35.89,0 64.68,-25.527 64.68,-57.004"
       style="fill:#000000;fill-opacity:1;fill-rule:nonzero;stroke:none"
       transform="matrix(0.13333333,0,0,-0.13333333,0,260.85333)" />
    <path
       id="path17"
       d="m 604.805,885.41 c 32.05,0 48.941,34.164 57.769,68.324 8.832,34.164 9.598,68.326 9.598,68.326 l 16.312,0.19 c 0,0 3.075,-136.84 67.176,-136.84 H 604.805"
       style="fill:#000000;fill-opacity:1;fill-rule:nonzero;stroke:none"
       transform="matrix(0.13333333,0,0,-0.13333333,0,260.85333)" />
    <path
       id="path18"
       d="m 550.488,1022.25 c 0.192,66.6 100.188,114.97 129.555,167.56 29.363,-52.78 129.359,-101.15 129.551,-167.56 0,-31.473 -28.981,-57 -64.871,-57 -35.7,0 -64.68,25.527 -64.68,57 0,-31.473 -28.984,-57 -64.875,-57 -35.891,0 -64.68,25.527 -64.68,57"
       style="fill:#000000;fill-opacity:1;fill-rule:nonzero;stroke:none"
       transform="matrix(0.13333333,0,0,-0.13333333,0,260.85333)" />
  </g>
</svg>
