<?xml version="1.0" encoding="UTF-8" standalone="no"?>
<!-- Created with Inkscape (http://www.inkscape.org/) -->

<svg
   version="1.1"
   id="svg1"
   width="180.27953"
   height="260.85278"
   viewBox="0 0 180.27953 260.85278"
   xmlns="http://www.w3.org/2000/svg"
   xmlns:svg="http://www.w3.org/2000/svg">
  <defs
     id="defs1" />
  <g
     id="g1"
     transform="translate(2.796582e-5,0.06350344)">
    <path
       id="path1"
       d="M 9.99609,65.418 C 9.99609,35.1875 34.707,10.4766 64.9375,10.4766 H 1287.24 c 30.15,0 54.86,24.7109 54.86,54.9414 V 1891.94 c 0,30.22 -24.71,54.94 -54.86,54.94 H 64.9375 c -30.2305,0 -54.94141,-24.72 -54.94141,-54.94 V 65.418"
       style="fill:#ffffff;fill-opacity:1;fill-rule:nonzero;stroke:none"
       transform="matrix(0.13333333,0,0,-0.13333333,0,260.85333)" />
    <path
       id="path2"
       d="M 9.99609,65.418 C 9.99609,35.1875 34.707,10.4766 64.9375,10.4766 H 1287.24 c 30.15,0 54.86,24.7109 54.86,54.9414 V 1891.94 c 0,30.22 -24.71,54.94 -54.86,54.94 H 64.9375 c -30.2305,0 -54.94141,-24.72 -54.94141,-54.94 z"
       style="fill:none;stroke:#000000;stroke-width:19.9926;stroke-linecap:butt;stroke-linejoin:miter;stroke-miterlimit:10;stroke-dasharray:none;stroke-opacity:1"
       transform="matrix(0.13333333,0,0,-0.13333333,0,260.85333)" />
    <path
       id="path3"
       d="m 151.465,1922.84 v -46.52 H 75.7305 v -58.24 c 4.1679,6.04 8.8125,10.6 13.9336,13.67 5.1172,3.08 10.5199,4.62 16.2069,4.62 17.442,0 31.219,-8.28 41.328,-24.85 10.11,-16.46 15.168,-38.89 15.168,-67.29 0,-28.89 -5.058,-51.37 -15.168,-67.47 -10.109,-16.1 -24.265,-24.15 -42.465,-24.15 -7.7106,0 -15.3863,1.18 -23.0348,3.55 -7.582,2.37 -15.5117,6.04 -23.789,11.01 v 57.88 h 11.375 c 0.3789,-17.4 2.7773,-30.36 7.2031,-38.88 4.4844,-8.53 11.0898,-12.79 19.8086,-12.79 9.2891,0 16.1801,5.8 20.6641,17.41 4.488,11.71 6.73,29.53 6.73,53.44 0,23.55 -2.211,41.13 -6.632,52.73 -4.364,11.71 -10.996,17.57 -19.9067,17.57 -4.8046,0 -9.1015,-1.89 -12.8906,-5.68 -3.7304,-3.67 -7.207,-9.41 -10.4297,-17.22 h -9.4765 v 131.21 h 87.1095"
       style="fill:#000000;fill-opacity:1;fill-rule:nonzero;stroke:none"
       transform="matrix(0.13333333,0,0,-0.13333333,0,260.85333)" />
    <path
       id="path4"
       d="m 1208.63,42.4883 v 46.5195 h 75.74 v 58.2342 c -4.17,-6.035 -8.82,-10.594 -13.94,-13.672 -5.12,-3.078 -10.52,-4.613 -16.21,-4.617 -17.44,0.004 -31.21,8.289 -41.33,24.86 -10.1,16.453 -15.16,38.882 -15.16,67.289 0,28.878 5.06,51.371 15.16,67.468 10.12,16.098 24.27,24.145 42.47,24.145 7.71,0 15.39,-1.184 23.03,-3.551 7.59,-2.367 15.52,-6.035 23.8,-11.008 v -57.879 h -11.38 c -0.38,17.399 -2.78,30.36 -7.2,38.883 -4.49,8.52 -11.09,12.781 -19.81,12.781 -9.29,0 -16.18,-5.8 -20.67,-17.398 -4.49,-11.719 -6.73,-29.531 -6.73,-53.441 0,-23.555 2.21,-41.133 6.64,-52.731 4.36,-11.719 11,-17.578 19.91,-17.578 4.8,0 9.09,1.895 12.89,5.68 3.72,3.672 7.2,9.41 10.42,17.222 h 9.48 V 42.4883 h -87.11"
       style="fill:#000000;fill-opacity:1;fill-rule:nonzero;stroke:none"
       transform="matrix(0.13333333,0,0,-0.13333333,0,260.85333)" />
    <path
       id="path5"
       d="m 92.3672,1583.07 c 0,-14.48 12.0738,-26.23 27.0278,-26.23 14.957,0 27.031,11.75 27.031,26.23 0,14.47 -12.074,26.23 -27.031,26.23 -14.954,0 -27.0278,-11.76 -27.0278,-26.23"
       style="fill:#000000;fill-opacity:1;fill-rule:nonzero;stroke:none"
       transform="matrix(0.13333333,0,0,-0.13333333,0,260.85333)" />
    <path
       id="path6"
       d="m 57.5,1533.41 c 0,-14.48 12.0742,-26.23 27.0273,-26.23 14.9571,0 27.0317,11.75 27.0317,26.23 0,14.47 -12.0746,26.23 -27.0317,26.23 -14.9531,0 -27.0273,-11.76 -27.0273,-26.23"
       style="fill:#000000;fill-opacity:1;fill-rule:nonzero;stroke:none"
       transform="matrix(0.13333333,0,0,-0.13333333,0,260.85333)" />
    <path
       id="path7"
       d="m 126.754,1533.25 c 0,-5.28 1.598,-10.24 4.398,-14.4 4.797,-7.12 13.196,-11.83 22.633,-11.83 14.953,0 27.028,11.75 27.028,26.23 0,14.47 -12.075,26.23 -27.028,26.23 -14.957,0 -27.031,-11.76 -27.031,-26.23"
       style="fill:#000000;fill-opacity:1;fill-rule:nonzero;stroke:none"
       transform="matrix(0.13333333,0,0,-0.13333333,0,260.85333)" />
    <path
       id="path8"
       d="m 87.6484,1482.3 c 13.3556,0 20.3906,10.88 24.0706,21.76 3.679,10.87 4,21.75 4,21.75 h 6.875 c 0,0 1.281,-43.42 27.992,-43.51 H 87.6484"
       style="fill:#000000;fill-opacity:1;fill-rule:nonzero;stroke:none"
       transform="matrix(0.13333333,0,0,-0.13333333,0,260.85333)" />
    <path
       id="path9"
       d="m 137.711,1563.79 c -15.195,-15.19 -15.195,-37.98 -15.195,-37.98 l -6.797,-0.08 c 0,0 0,23.27 -14.797,38.06"
       style="fill:#000000;fill-opacity:1;fill-rule:nonzero;stroke:none"
       transform="matrix(0.13333333,0,0,-0.13333333,0,260.85333)" />
    <path
       id="path10"
       d="m 134.672,1515.01 c -15.195,15.2 -37.9884,15.2 -37.9884,15.2 v 6.79 c 0,0 23.2734,0 38.0664,14.8"
       style="fill:#000000;fill-opacity:1;fill-rule:nonzero;stroke:none"
       transform="matrix(0.13333333,0,0,-0.13333333,0,260.85333)" />
    <path
       id="path11"
       d="m 104.203,1514.93 c 15.192,15.2 37.985,15.2 37.985,15.2 v 6.8 c 0,0 -23.27,0 -38.067,14.79"
       style="fill:#000000;fill-opacity:1;fill-rule:nonzero;stroke:none"
       transform="matrix(0.13333333,0,0,-0.13333333,0,260.85333)" />
    <path
       id="path12"
       d="m 1267.73,382.258 c 0,14.476 -12.08,26.23 -27.03,26.23 -14.95,0 -27.03,-11.754 -27.03,-26.23 0,-14.473 12.08,-26.231 27.03,-26.231 14.95,0 27.03,11.758 27.03,26.231"
       style="fill:#000000;fill-opacity:1;fill-rule:nonzero;stroke:none"
       transform="matrix(0.13333333,0,0,-0.13333333,0,260.85333)" />
    <path
       id="path13"
       d="m 1302.6,431.918 c 0,14.477 -12.08,26.23 -27.03,26.23 -14.96,0 -27.03,-11.753 -27.03,-26.23 0,-14.473 12.07,-26.227 27.03,-26.227 14.95,0 27.03,11.754 27.03,26.227"
       style="fill:#000000;fill-opacity:1;fill-rule:nonzero;stroke:none"
       transform="matrix(0.13333333,0,0,-0.13333333,0,260.85333)" />
    <path
       id="path14"
       d="m 1233.34,432.078 c 0,5.281 -1.6,10.238 -4.39,14.395 -4.81,7.117 -13.2,11.836 -22.64,11.836 -14.95,0 -27.03,-11.754 -27.03,-26.231 0,-14.473 12.08,-26.23 27.03,-26.23 14.96,0 27.03,11.757 27.03,26.23"
       style="fill:#000000;fill-opacity:1;fill-rule:nonzero;stroke:none"
       transform="matrix(0.13333333,0,0,-0.13333333,0,260.85333)" />
    <path
       id="path15"
       d="m 1272.45,483.02 c -13.36,0 -20.4,-10.875 -24.07,-21.75 -3.68,-10.875 -4,-21.754 -4,-21.754 h -6.88 c 0,0 -1.28,43.425 -27.99,43.504 h 62.94"
       style="fill:#000000;fill-opacity:1;fill-rule:nonzero;stroke:none"
       transform="matrix(0.13333333,0,0,-0.13333333,0,260.85333)" />
    <path
       id="path16"
       d="m 1222.39,401.531 c 15.19,15.196 15.19,37.985 15.19,37.985 l 6.8,0.082 c 0,0 0,-23.274 14.79,-38.067"
       style="fill:#000000;fill-opacity:1;fill-rule:nonzero;stroke:none"
       transform="matrix(0.13333333,0,0,-0.13333333,0,260.85333)" />
    <path
       id="path17"
       d="m 1225.43,450.313 c 15.19,-15.196 37.98,-15.196 37.98,-15.196 v -6.797 c 0,0 -23.27,0 -38.07,-14.793"
       style="fill:#000000;fill-opacity:1;fill-rule:nonzero;stroke:none"
       transform="matrix(0.13333333,0,0,-0.13333333,0,260.85333)" />
    <path
       id="path18"
       d="m 1255.89,450.395 c -15.19,-15.196 -37.98,-15.196 -37.98,-15.196 v -6.797 c 0,0 23.27,0 38.06,-14.797"
       style="fill:#000000;fill-opacity:1;fill-rule:nonzero;stroke:none"
       transform="matrix(0.13333333,0,0,-0.13333333,0,260.85333)" />
    <path
       id="path19"
       d="m 296.438,1742.34 c 0,-34.73 28.98,-62.95 64.871,-62.95 35.89,0 64.875,28.22 64.875,62.95 0,34.74 -28.985,62.96 -64.875,62.96 -35.891,0 -64.871,-28.22 -64.871,-62.96"
       style="fill:#000000;fill-opacity:1;fill-rule:nonzero;stroke:none"
       transform="matrix(0.13333333,0,0,-0.13333333,0,260.85333)" />
    <path
       id="path20"
       d="m 212.758,1623.16 c 0,-34.74 28.98,-62.96 64.871,-62.96 35.891,0 64.871,28.22 64.871,62.96 0,34.73 -28.98,62.95 -64.871,62.95 -35.891,0 -64.871,-28.22 -64.871,-62.95"
       style="fill:#000000;fill-opacity:1;fill-rule:nonzero;stroke:none"
       transform="matrix(0.13333333,0,0,-0.13333333,0,260.85333)" />
    <path
       id="path21"
       d="m 378.969,1622.77 c 0,-12.66 3.836,-24.56 10.554,-34.54 11.516,-17.09 31.668,-28.41 54.317,-28.41 35.89,0 64.871,28.22 64.871,62.95 0,34.74 -28.981,62.96 -64.871,62.96 -35.891,0 -64.871,-28.22 -64.871,-62.96"
       style="fill:#000000;fill-opacity:1;fill-rule:nonzero;stroke:none"
       transform="matrix(0.13333333,0,0,-0.13333333,0,260.85333)" />
    <path
       id="path22"
       d="m 285.113,1500.52 c 32.055,0 48.942,26.1 57.774,52.2 8.828,26.1 9.593,52.2 9.593,52.2 h 16.508 c 0,0 3.071,-104.21 67.176,-104.4 H 285.113"
       style="fill:#000000;fill-opacity:1;fill-rule:nonzero;stroke:none"
       transform="matrix(0.13333333,0,0,-0.13333333,0,260.85333)" />
    <path
       id="path23"
       d="m 405.262,1696.09 c -36.465,-36.46 -36.465,-91.17 -36.465,-91.17 l -16.317,-0.19 c 0,0 0,55.85 -35.503,91.36"
       style="fill:#000000;fill-opacity:1;fill-rule:nonzero;stroke:none"
       transform="matrix(0.13333333,0,0,-0.13333333,0,260.85333)" />
    <path
       id="path24"
       d="m 397.969,1579.01 c -36.465,36.47 -91.168,36.47 -91.168,36.47 v 16.31 c 0,0 55.851,0 91.359,35.51"
       style="fill:#000000;fill-opacity:1;fill-rule:nonzero;stroke:none"
       transform="matrix(0.13333333,0,0,-0.13333333,0,260.85333)" />
    <path
       id="path25"
       d="m 324.844,1578.82 c 36.465,36.47 91.168,36.47 91.168,36.47 v 16.31 c 0,0 -55.852,0 -91.36,35.51"
       style="fill:#000000;fill-opacity:1;fill-rule:nonzero;stroke:none"
       transform="matrix(0.13333333,0,0,-0.13333333,0,260.85333)" />
    <path
       id="path26"
       d="m 425.031,256.176 c 0,34.738 -28.98,62.949 -64.871,62.949 -35.89,0 -64.875,-28.211 -64.875,-62.949 0,-34.742 28.985,-62.953 64.875,-62.953 35.891,0 64.871,28.211 64.871,62.953"
       style="fill:#000000;fill-opacity:1;fill-rule:nonzero;stroke:none"
       transform="matrix(0.13333333,0,0,-0.13333333,0,260.85333)" />
    <path
       id="path27"
       d="m 508.711,375.363 c 0,34.739 -28.981,62.95 -64.871,62.95 -35.891,0 -64.871,-28.211 -64.871,-62.95 0,-34.742 28.98,-62.953 64.871,-62.953 35.89,0 64.871,28.211 64.871,62.953"
       style="fill:#000000;fill-opacity:1;fill-rule:nonzero;stroke:none"
       transform="matrix(0.13333333,0,0,-0.13333333,0,260.85333)" />
    <path
       id="path28"
       d="m 342.5,375.746 c 0,12.668 -3.836,24.567 -10.555,34.547 -11.515,17.082 -31.668,28.406 -54.316,28.406 -35.891,0 -64.871,-28.215 -64.871,-62.953 0,-34.738 28.98,-62.953 64.871,-62.953 35.891,0 64.871,28.215 64.871,62.953"
       style="fill:#000000;fill-opacity:1;fill-rule:nonzero;stroke:none"
       transform="matrix(0.13333333,0,0,-0.13333333,0,260.85333)" />
    <path
       id="path29"
       d="m 436.355,498.004 c -32.054,0 -48.941,-26.102 -57.773,-52.203 -8.828,-26.106 -9.594,-52.207 -9.594,-52.207 H 352.48 c 0,0 -3.07,104.219 -67.175,104.41 h 151.05"
       style="fill:#000000;fill-opacity:1;fill-rule:nonzero;stroke:none"
       transform="matrix(0.13333333,0,0,-0.13333333,0,260.85333)" />
    <path
       id="path30"
       d="m 316.207,302.43 c 36.465,36.465 36.465,91.164 36.465,91.164 l 16.316,0.191 c 0,0 0,-55.851 35.504,-91.355"
       style="fill:#000000;fill-opacity:1;fill-rule:nonzero;stroke:none"
       transform="matrix(0.13333333,0,0,-0.13333333,0,260.85333)" />
    <path
       id="path31"
       d="m 323.5,419.504 c 36.465,-36.465 91.168,-36.465 91.168,-36.465 v -16.312 c 0,0 -55.852,0 -91.359,-35.508"
       style="fill:#000000;fill-opacity:1;fill-rule:nonzero;stroke:none"
       transform="matrix(0.13333333,0,0,-0.13333333,0,260.85333)" />
    <path
       id="path32"
       d="M 396.625,419.695 C 360.16,383.23 305.457,383.23 305.457,383.23 v -16.312 c 0,0 55.852,0 91.359,-35.508"
       style="fill:#000000;fill-opacity:1;fill-rule:nonzero;stroke:none"
       transform="matrix(0.13333333,0,0,-0.13333333,0,260.85333)" />
    <path
       id="path33"
       d="m 935.063,1742.34 c 0,-34.73 28.98,-62.95 64.871,-62.95 35.886,0 64.866,28.22 64.866,62.95 0,34.74 -28.98,62.96 -64.866,62.96 -35.891,0 -64.871,-28.22 -64.871,-62.96"
       style="fill:#000000;fill-opacity:1;fill-rule:nonzero;stroke:none"
       transform="matrix(0.13333333,0,0,-0.13333333,0,260.85333)" />
    <path
       id="path34"
       d="m 851.379,1623.16 c 0,-34.74 28.98,-62.96 64.871,-62.96 35.891,0 64.875,28.22 64.875,62.96 0,34.73 -28.984,62.95 -64.875,62.95 -35.891,0 -64.871,-28.22 -64.871,-62.95"
       style="fill:#000000;fill-opacity:1;fill-rule:nonzero;stroke:none"
       transform="matrix(0.13333333,0,0,-0.13333333,0,260.85333)" />
    <path
       id="path35"
       d="m 1017.59,1622.77 c 0,-12.66 3.84,-24.56 10.55,-34.54 11.52,-17.09 31.67,-28.41 54.32,-28.41 35.89,0 64.87,28.22 64.87,62.95 0,34.74 -28.98,62.96 -64.87,62.96 -35.89,0 -64.87,-28.22 -64.87,-62.96"
       style="fill:#000000;fill-opacity:1;fill-rule:nonzero;stroke:none"
       transform="matrix(0.13333333,0,0,-0.13333333,0,260.85333)" />
    <path
       id="path36"
       d="m 923.738,1500.52 c 32.051,0 48.942,26.1 57.77,52.2 8.828,26.1 9.597,52.2 9.597,52.2 h 16.505 c 0,0 3.07,-104.21 67.18,-104.4 H 923.738"
       style="fill:#000000;fill-opacity:1;fill-rule:nonzero;stroke:none"
       transform="matrix(0.13333333,0,0,-0.13333333,0,260.85333)" />
    <path
       id="path37"
       d="m 1043.88,1696.09 c -36.46,-36.46 -36.46,-91.17 -36.46,-91.17 l -16.315,-0.19 c 0,0 0,55.85 -35.507,91.36"
       style="fill:#000000;fill-opacity:1;fill-rule:nonzero;stroke:none"
       transform="matrix(0.13333333,0,0,-0.13333333,0,260.85333)" />
    <path
       id="path38"
       d="m 1036.59,1579.01 c -36.46,36.47 -91.164,36.47 -91.164,36.47 v 16.31 c 0,0 55.854,0 91.354,35.51"
       style="fill:#000000;fill-opacity:1;fill-rule:nonzero;stroke:none"
       transform="matrix(0.13333333,0,0,-0.13333333,0,260.85333)" />
    <path
       id="path39"
       d="m 963.465,1578.82 c 36.469,36.47 91.165,36.47 91.165,36.47 v 16.31 c 0,0 -55.849,0 -91.357,35.51"
       style="fill:#000000;fill-opacity:1;fill-rule:nonzero;stroke:none"
       transform="matrix(0.13333333,0,0,-0.13333333,0,260.85333)" />
    <path
       id="path40"
       d="m 1063.65,256.176 c 0,34.738 -28.98,62.949 -64.869,62.949 -35.89,0 -64.871,-28.211 -64.871,-62.949 0,-34.742 28.981,-62.953 64.871,-62.953 35.889,0 64.869,28.211 64.869,62.953"
       style="fill:#000000;fill-opacity:1;fill-rule:nonzero;stroke:none"
       transform="matrix(0.13333333,0,0,-0.13333333,0,260.85333)" />
    <path
       id="path41"
       d="m 1147.34,375.363 c 0,34.739 -28.99,62.95 -64.88,62.95 -35.89,0 -64.87,-28.211 -64.87,-62.95 0,-34.742 28.98,-62.953 64.87,-62.953 35.89,0 64.88,28.211 64.88,62.953"
       style="fill:#000000;fill-opacity:1;fill-rule:nonzero;stroke:none"
       transform="matrix(0.13333333,0,0,-0.13333333,0,260.85333)" />
    <path
       id="path42"
       d="m 981.125,375.746 c 0,12.668 -3.84,24.567 -10.559,34.547 -11.515,17.082 -31.668,28.406 -54.312,28.406 -35.891,0 -64.875,-28.215 -64.875,-62.953 0,-34.738 28.984,-62.953 64.875,-62.953 35.891,0 64.871,28.215 64.871,62.953"
       style="fill:#000000;fill-opacity:1;fill-rule:nonzero;stroke:none"
       transform="matrix(0.13333333,0,0,-0.13333333,0,260.85333)" />
    <path
       id="path43"
       d="m 1074.98,498.004 c -32.05,0 -48.94,-26.102 -57.77,-52.203 -8.83,-26.106 -9.6,-52.207 -9.6,-52.207 h -16.505 c 0,0 -3.07,104.219 -67.175,104.41 h 151.05"
       style="fill:#000000;fill-opacity:1;fill-rule:nonzero;stroke:none"
       transform="matrix(0.13333333,0,0,-0.13333333,0,260.85333)" />
    <path
       id="path44"
       d="m 954.828,302.43 c 36.469,36.465 36.469,91.164 36.469,91.164 l 16.313,0.191 c 0,0 0,-55.851 35.51,-91.355"
       style="fill:#000000;fill-opacity:1;fill-rule:nonzero;stroke:none"
       transform="matrix(0.13333333,0,0,-0.13333333,0,260.85333)" />
    <path
       id="path45"
       d="m 962.125,419.504 c 36.465,-36.465 91.165,-36.465 91.165,-36.465 v -16.312 c 0,0 -55.852,0 -91.36,-35.508"
       style="fill:#000000;fill-opacity:1;fill-rule:nonzero;stroke:none"
       transform="matrix(0.13333333,0,0,-0.13333333,0,260.85333)" />
    <path
       id="path46"
       d="M 1035.25,419.695 C 998.781,383.23 944.082,383.23 944.082,383.23 v -16.312 c 0,0 55.852,0 91.358,-35.508"
       style="fill:#000000;fill-opacity:1;fill-rule:nonzero;stroke:none"
       transform="matrix(0.13333333,0,0,-0.13333333,0,260.85333)" />
    <path
       id="path47"
       d="m 615.746,1127.04 c 0,-34.74 28.981,-62.95 64.871,-62.95 35.891,0 64.871,28.21 64.871,62.95 0,34.74 -28.98,62.96 -64.871,62.96 -35.89,0 -64.871,-28.22 -64.871,-62.96"
       style="fill:#000000;fill-opacity:1;fill-rule:nonzero;stroke:none"
       transform="matrix(0.13333333,0,0,-0.13333333,0,260.85333)" />
    <path
       id="path48"
       d="m 532.063,1007.86 c 0,-34.743 28.984,-62.958 64.875,-62.958 35.89,0 64.871,28.215 64.871,62.958 0,34.73 -28.981,62.95 -64.871,62.95 -35.891,0 -64.875,-28.22 -64.875,-62.95"
       style="fill:#000000;fill-opacity:1;fill-rule:nonzero;stroke:none"
       transform="matrix(0.13333333,0,0,-0.13333333,0,260.85333)" />
    <path
       id="path49"
       d="m 698.273,1007.47 c 0,-12.665 3.84,-24.568 10.559,-34.548 11.516,-17.078 31.668,-28.402 54.313,-28.402 35.89,0 64.875,28.21 64.875,62.95 0,34.74 -28.985,62.95 -64.875,62.95 -35.891,0 -64.872,-28.21 -64.872,-62.95"
       style="fill:#000000;fill-opacity:1;fill-rule:nonzero;stroke:none"
       transform="matrix(0.13333333,0,0,-0.13333333,0,260.85333)" />
    <path
       id="path50"
       d="m 604.422,885.211 c 32.051,0 48.941,26.105 57.769,52.207 8.829,26.102 9.598,52.203 9.598,52.203 h 16.504 c 0,0 3.07,-104.219 67.176,-104.41 H 604.422"
       style="fill:#000000;fill-opacity:1;fill-rule:nonzero;stroke:none"
       transform="matrix(0.13333333,0,0,-0.13333333,0,260.85333)" />
    <path
       id="path51"
       d="m 724.57,1080.79 c -36.468,-36.47 -36.468,-91.169 -36.468,-91.169 l -16.313,-0.191 c 0,0 0,55.85 -35.508,91.36"
       style="fill:#000000;fill-opacity:1;fill-rule:nonzero;stroke:none"
       transform="matrix(0.13333333,0,0,-0.13333333,0,260.85333)" />
    <path
       id="path52"
       d="m 717.277,963.711 c -36.468,36.469 -91.168,36.469 -91.168,36.469 v 16.31 c 0,0 55.852,0 91.36,35.51"
       style="fill:#000000;fill-opacity:1;fill-rule:nonzero;stroke:none"
       transform="matrix(0.13333333,0,0,-0.13333333,0,260.85333)" />
    <path
       id="path53"
       d="m 644.152,963.52 c 36.465,36.464 91.164,36.464 91.164,36.464 v 16.316 c 0,0 -55.851,0 -91.359,35.5"
       style="fill:#000000;fill-opacity:1;fill-rule:nonzero;stroke:none"
       transform="matrix(0.13333333,0,0,-0.13333333,0,260.85333)" />
  </g>
</svg>
