<?xml version="1.0" encoding="UTF-8" standalone="no"?>
<!-- Created with Inkscape (http://www.inkscape.org/) -->

<svg
   version="1.1"
   id="svg1"
   width="180.27953"
   height="260.85278"
   viewBox="0 0 180.27953 260.85278"
   xmlns="http://www.w3.org/2000/svg"
   xmlns:svg="http://www.w3.org/2000/svg">
  <defs
     id="defs1" />
  <g
     id="g1"
     transform="translate(2.796582e-5,0.06350344)">
    <path
       id="path1"
       d="M 9.99609,65.418 C 9.99609,35.1875 34.707,10.4766 64.9375,10.4766 H 1287.24 c 30.15,0 54.86,24.7109 54.86,54.9414 V 1891.94 c 0,30.22 -24.71,54.94 -54.86,54.94 H 64.9375 c -30.2305,0 -54.94141,-24.72 -54.94141,-54.94 V 65.418"
       style="fill:#ffffff;fill-opacity:1;fill-rule:nonzero;stroke:none"
       transform="matrix(0.13333333,0,0,-0.13333333,0,260.85333)" />
    <path
       id="path2"
       d="M 9.99609,65.418 C 9.99609,35.1875 34.707,10.4766 64.9375,10.4766 H 1287.24 c 30.15,0 54.86,24.7109 54.86,54.9414 V 1891.94 c 0,30.22 -24.71,54.94 -54.86,54.94 H 64.9375 c -30.2305,0 -54.94141,-24.72 -54.94141,-54.94 z"
       style="fill:none;stroke:#000000;stroke-width:19.9926;stroke-linecap:butt;stroke-linejoin:miter;stroke-miterlimit:10;stroke-dasharray:none;stroke-opacity:1"
       transform="matrix(0.13333333,0,0,-0.13333333,0,260.85333)" />
    <path
       id="path3"
       d="m 89.7578,1814.89 c 4.1055,6.16 8.6875,10.78 13.7462,13.86 5.117,3.07 10.676,4.61 16.68,4.61 14.472,0 25.816,-7.93 34.031,-23.79 8.277,-15.86 12.414,-37.64 12.418,-65.34 -0.004,-29.23 -4.649,-51.84 -13.938,-67.82 -9.289,-15.86 -22.496,-23.79 -39.621,-23.79 -19.3357,0 -33.9959,10.89 -43.9802,32.67 -9.9219,21.89 -14.8829,54.03 -14.8829,96.41 0,48.17 5.5313,84.51 16.5899,109.01 11.0586,24.62 27.457,36.93 49.1952,36.93 5.688,0 11.785,-0.89 18.293,-2.67 6.508,-1.77 13.492,-4.43 20.949,-7.99 v -46.87 H 147.77 c -1.582,12.08 -4.582,21.19 -9.008,27.34 -4.36,6.28 -10.016,9.41 -16.965,9.41 -11.25,0 -19.402,-7.22 -24.4572,-21.66 -4.9921,-14.44 -7.5195,-37.87 -7.582,-70.31 m 21.1372,-141.5 c 6.507,0 11.156,5.15 13.933,15.45 2.781,10.41 4.172,28.41 4.172,53.97 0,25.57 -1.391,43.5 -4.172,53.8 -2.777,10.41 -7.426,15.62 -13.933,15.62 -6.508,0 -11.1528,-5.21 -13.9341,-15.62 -2.7148,-10.3 -4.0742,-28.23 -4.0742,-53.8 0,-25.56 1.3594,-43.56 4.0742,-53.97 2.7813,-10.3 7.4261,-15.45 13.9341,-15.45"
       style="fill:#e6180a;fill-opacity:1;fill-rule:nonzero;stroke:none"
       transform="matrix(0.13333333,0,0,-0.13333333,0,260.85333)" />
    <path
       id="path4"
       d="m 1270.34,150.438 c -4.11,-6.153 -8.69,-10.77 -13.75,-13.848 -5.12,-3.078 -10.68,-4.617 -16.68,-4.617 -14.47,0 -25.81,7.929 -34.03,23.793 -8.28,15.859 -12.42,37.64 -12.42,65.336 0,29.234 4.65,51.843 13.94,67.824 9.29,15.859 22.49,23.789 39.62,23.789 19.34,0 34,-10.891 43.98,-32.668 9.92,-21.899 14.88,-54.035 14.88,-96.406 0,-48.176 -5.53,-84.5121 -16.59,-109.016 -11.06,-24.6172 -27.45,-36.9297 -49.19,-36.9297 -5.69,0 -11.79,0.8906 -18.3,2.6641 -6.5,1.7773 -13.49,4.4375 -20.94,7.9883 v 46.875 h 11.47 c 1.58,-12.0743 4.58,-21.1875 9,-27.3438 4.36,-6.2734 10.02,-9.4101 16.97,-9.4101 11.25,0 19.4,7.2226 24.45,21.6601 5,14.4414 7.52,37.8791 7.59,70.3091 m -21.14,141.503 c -6.51,0 -11.15,-5.148 -13.93,-15.445 -2.79,-10.418 -4.18,-28.406 -4.18,-53.973 0,-25.566 1.39,-43.5 4.18,-53.796 2.78,-10.418 7.42,-15.625 13.93,-15.625 6.51,0 11.15,5.207 13.93,15.625 2.72,10.296 4.08,28.23 4.08,53.796 0,25.567 -1.36,43.555 -4.08,53.973 -2.78,10.297 -7.42,15.445 -13.93,15.445"
       style="fill:#e6180a;fill-opacity:1;fill-rule:nonzero;stroke:none"
       transform="matrix(0.13333333,0,0,-0.13333333,0,260.85333)" />
    <path
       id="path5"
       d="m 180.492,1577.24 c -0.078,-37.67 -47.262,-65.1 -61.097,-94.93 -13.993,29.75 -61.2544,56.94 -61.5747,94.61 -0.082,17.75 13.6719,32.22 30.5469,32.22 16.9528,0 30.7888,-14.31 30.7888,-32.06 0,17.83 13.676,32.22 30.547,32.22 16.957,0.09 30.711,-14.31 30.789,-32.06"
       style="fill:#e6180a;fill-opacity:1;fill-rule:nonzero;stroke:none"
       transform="matrix(0.13333333,0,0,-0.13333333,0,260.85333)" />
    <path
       id="path6"
       d="m 1179.6,388.098 c 0.08,37.664 47.26,65.093 61.1,94.922 14,-29.747 61.26,-56.938 61.58,-94.602 0.08,-17.754 -13.68,-32.23 -30.55,-32.23 -16.96,0 -30.79,14.316 -30.79,32.07 0,-17.836 -13.68,-32.231 -30.55,-32.231 -16.95,-0.078 -30.71,14.317 -30.79,32.071"
       style="fill:#e6180a;fill-opacity:1;fill-rule:nonzero;stroke:none"
       transform="matrix(0.13333333,0,0,-0.13333333,0,260.85333)" />
    <path
       id="path7"
       d="m 507.941,1728.34 c -0.191,-90.4 -113.429,-156.23 -146.632,-227.82 -33.586,71.39 -147.016,136.65 -147.786,227.05 -0.191,42.61 32.821,77.34 73.317,77.34 40.687,0 73.894,-34.35 73.894,-76.96 0,42.8 32.817,77.35 73.317,77.35 40.687,0.19 73.699,-34.35 73.89,-76.96"
       style="fill:#e6180a;fill-opacity:1;fill-rule:nonzero;stroke:none"
       transform="matrix(0.13333333,0,0,-0.13333333,0,260.85333)" />
    <path
       id="path8"
       d="M 507.941,1113.03 C 507.75,1022.63 394.512,956.801 361.309,885.211 327.723,956.609 214.293,1021.87 213.523,1112.27 c -0.191,42.6 32.821,77.34 73.317,77.34 40.687,0 73.894,-34.35 73.894,-76.96 0,42.8 32.817,77.35 73.317,77.35 40.687,0.19 73.699,-34.36 73.89,-76.97"
       style="fill:#e6180a;fill-opacity:1;fill-rule:nonzero;stroke:none"
       transform="matrix(0.13333333,0,0,-0.13333333,0,260.85333)" />
    <path
       id="path9"
       d="m 213.527,270.176 c 0.192,90.398 113.43,156.23 146.633,227.82 33.586,-71.398 147.016,-136.652 147.785,-227.051 0.192,-42.609 -32.82,-77.347 -73.316,-77.347 -40.691,0 -73.895,34.355 -73.895,76.961 0,-42.797 -32.82,-77.344 -73.316,-77.344 -40.688,-0.195 -73.699,34.351 -73.891,76.961"
       style="fill:#e6180a;fill-opacity:1;fill-rule:nonzero;stroke:none"
       transform="matrix(0.13333333,0,0,-0.13333333,0,260.85333)" />
    <path
       id="path10"
       d="m 1146.56,1728.34 c -0.19,-90.4 -113.43,-156.23 -146.63,-227.82 -33.586,71.39 -147.016,136.65 -147.785,227.05 -0.192,42.61 32.82,77.34 73.316,77.34 40.691,0 73.894,-34.35 73.894,-76.96 0,42.8 32.825,77.35 73.315,77.35 40.69,0.19 73.7,-34.35 73.89,-76.96"
       style="fill:#e6180a;fill-opacity:1;fill-rule:nonzero;stroke:none"
       transform="matrix(0.13333333,0,0,-0.13333333,0,260.85333)" />
    <path
       id="path11"
       d="m 1146.56,1113.03 c -0.19,-90.4 -113.43,-156.229 -146.63,-227.819 -33.586,71.398 -147.016,136.659 -147.785,227.059 -0.192,42.6 32.82,77.34 73.316,77.34 40.691,0 73.894,-34.35 73.894,-76.96 0,42.8 32.825,77.35 73.315,77.35 40.69,0.19 73.7,-34.36 73.89,-76.97"
       style="fill:#e6180a;fill-opacity:1;fill-rule:nonzero;stroke:none"
       transform="matrix(0.13333333,0,0,-0.13333333,0,260.85333)" />
    <path
       id="path12"
       d="m 852.148,270.176 c 0.192,90.398 113.43,156.23 146.633,227.82 33.589,-71.398 147.019,-136.652 147.789,-227.051 0.19,-42.609 -32.82,-77.347 -73.32,-77.347 -40.69,0 -73.891,34.355 -73.891,76.961 0,-42.797 -32.82,-77.344 -73.316,-77.344 -40.691,-0.195 -73.703,34.351 -73.895,76.961"
       style="fill:#e6180a;fill-opacity:1;fill-rule:nonzero;stroke:none"
       transform="matrix(0.13333333,0,0,-0.13333333,0,260.85333)" />
  </g>
</svg>
