<?xml version="1.0" encoding="UTF-8" standalone="no"?>
<!-- Created with Inkscape (http://www.inkscape.org/) -->

<svg
   version="1.1"
   id="svg1"
   width="180.27953"
   height="260.85278"
   viewBox="0 0 180.27953 260.85278"
   xmlns="http://www.w3.org/2000/svg"
   xmlns:svg="http://www.w3.org/2000/svg">
  <defs
     id="defs1" />
  <g
     id="g1"
     transform="translate(2.796582e-5,0.06350344)">
    <path
       id="path1"
       d="M 9.99609,65.418 C 9.99609,35.1875 34.707,10.4766 64.9375,10.4766 H 1287.24 c 30.15,0 54.86,24.7109 54.86,54.9414 V 1891.94 c 0,30.23 -24.71,54.94 -54.86,54.94 H 64.9375 c -30.2305,0 -54.94141,-24.71 -54.94141,-54.94 V 65.418"
       style="fill:#ffffff;fill-opacity:1;fill-rule:nonzero;stroke:none"
       transform="matrix(0.13333333,0,0,-0.13333333,0,260.85333)" />
    <path
       id="path2"
       d="M 9.99609,65.418 C 9.99609,35.1875 34.707,10.4766 64.9375,10.4766 H 1287.24 c 30.15,0 54.86,24.7109 54.86,54.9414 V 1891.94 c 0,30.23 -24.71,54.94 -54.86,54.94 H 64.9375 c -30.2305,0 -54.94141,-24.71 -54.94141,-54.94 z"
       style="fill:none;stroke:#000000;stroke-width:19.9926;stroke-linecap:butt;stroke-linejoin:miter;stroke-miterlimit:10;stroke-dasharray:none;stroke-opacity:1"
       transform="matrix(0.13333333,0,0,-0.13333333,0,260.85333)" />
    <path
       id="path3"
       d="m 89.7578,1814.89 c 4.1055,6.15 8.6875,10.77 13.7462,13.85 5.117,3.08 10.676,4.61 16.68,4.61 14.472,0 25.816,-7.93 34.031,-23.79 8.277,-15.86 12.414,-37.64 12.418,-65.33 -0.004,-29.24 -4.649,-51.85 -13.938,-67.83 -9.289,-15.86 -22.496,-23.79 -39.621,-23.79 -19.3357,0 -33.9959,10.89 -43.9802,32.67 -9.9219,21.9 -14.8829,54.03 -14.8829,96.41 0,48.17 5.5313,84.51 16.5899,109.01 11.0586,24.62 27.457,36.93 49.1952,36.93 5.688,0 11.785,-0.89 18.293,-2.66 6.508,-1.78 13.492,-4.44 20.949,-7.99 v -46.87 H 147.77 c -1.582,12.07 -4.582,21.18 -9.008,27.34 -4.36,6.27 -10.016,9.41 -16.965,9.41 -11.25,0 -19.402,-7.22 -24.4572,-21.66 -4.9921,-14.44 -7.5195,-37.88 -7.582,-70.31 m 21.1372,-141.51 c 6.507,0 11.156,5.16 13.933,15.45 2.781,10.42 4.172,28.41 4.172,53.97 0,25.57 -1.391,43.5 -4.172,53.8 -2.777,10.42 -7.426,15.63 -13.933,15.63 -6.508,0 -11.1528,-5.21 -13.9341,-15.63 -2.7148,-10.3 -4.0742,-28.23 -4.0742,-53.8 0,-25.56 1.3594,-43.55 4.0742,-53.97 2.7813,-10.29 7.4261,-15.45 13.9341,-15.45"
       style="fill:#e6180a;fill-opacity:1;fill-rule:nonzero;stroke:none"
       transform="matrix(0.13333333,0,0,-0.13333333,0,260.85333)" />
    <path
       id="path4"
       d="m 1270.34,150.438 c -4.11,-6.153 -8.69,-10.77 -13.75,-13.848 -5.12,-3.078 -10.68,-4.617 -16.68,-4.617 -14.47,0 -25.81,7.933 -34.03,23.793 -8.28,15.859 -12.42,37.64 -12.42,65.336 0,29.234 4.65,51.843 13.94,67.824 9.29,15.859 22.49,23.789 39.62,23.789 19.34,0 34,-10.891 43.98,-32.668 9.92,-21.899 14.88,-54.031 14.88,-96.406 0,-48.176 -5.53,-84.5121 -16.59,-109.016 -11.06,-24.6172 -27.45,-36.9258 -49.19,-36.9297 -5.69,0.0039 -11.79,0.8906 -18.3,2.6641 -6.5,1.7773 -13.49,4.4414 -20.94,7.9922 v 46.8711 h 11.47 c 1.58,-12.0743 4.58,-21.1875 9,-27.3438 4.36,-6.2734 10.02,-9.4101 16.97,-9.4101 11.25,0 19.4,7.2226 24.45,21.6601 5,14.4414 7.52,37.8791 7.59,70.3091 m -21.14,141.503 c -6.51,0 -11.15,-5.148 -13.93,-15.445 -2.79,-10.414 -4.18,-28.406 -4.18,-53.973 0,-25.566 1.39,-43.5 4.18,-53.796 2.78,-10.418 7.42,-15.625 13.93,-15.625 6.51,0 11.15,5.207 13.93,15.625 2.72,10.296 4.08,28.23 4.08,53.796 0,25.567 -1.36,43.559 -4.08,53.973 -2.78,10.297 -7.42,15.445 -13.93,15.445"
       style="fill:#e6180a;fill-opacity:1;fill-rule:nonzero;stroke:none"
       transform="matrix(0.13333333,0,0,-0.13333333,0,260.85333)" />
    <path
       id="path5"
       d="m 119.156,1545.8 c 20.473,0 40.946,0 61.418,0 -6.996,0.31 -12.949,4.84 -18.57,8.58 -12.629,9.53 -24.453,20.45 -33.797,33.23 -4.355,6.43 -8.937,13.66 -9.051,21.69 m 61.418,-63.5 c -8.879,-0.28 -16.457,-5.92 -23.222,-11.14 -11.957,-10.03 -22.305,-21.97 -31.039,-34.9 -3.208,-5.35 -6.981,-11.02 -7.157,-17.46 0,21.17 0,42.33 0,63.5 m 0,-63.5 c -0.304,9.46 -6.062,17.65 -11.5,24.96 -9.6912,12.07 -21.1755,22.76 -33.8122,31.69 -4.9102,3.06 -10.125,6.7 -16.1055,6.85 20.4726,0 40.9453,0 61.4177,0 m -61.4177,0 c 8.8789,0.28 16.457,5.93 23.2226,11.13 11.9571,10.05 22.3051,21.99 31.0391,34.91 3.207,5.35 6.977,11.02 7.156,17.46 0,-21.17 0,-42.33 0,-63.5"
       style="fill:#e6180a;fill-opacity:1;fill-rule:nonzero;stroke:none"
       transform="matrix(0.13333333,0,0,-0.13333333,0,260.85333)" />
    <path
       id="path6"
       d="m 1240.94,419.523 c -20.48,0 -40.95,0 -61.42,0 7,-0.308 12.95,-4.835 18.57,-8.578 12.63,-9.527 24.46,-20.449 33.8,-33.23 4.36,-6.43 8.93,-13.656 9.05,-21.688 m -61.42,63.496 c 8.88,0.282 16.46,5.93 23.23,11.141 11.95,10.035 22.3,21.977 31.03,34.899 3.21,5.351 6.98,11.019 7.16,17.457 0,-21.168 0,-42.329 0,-63.497 m 0,63.497 c 0.3,-9.45 6.06,-17.641 11.5,-24.95 9.69,-12.074 21.17,-22.757 33.81,-31.691 4.91,-3.063 10.13,-6.707 16.11,-6.856 -20.48,0 -40.95,0 -61.42,0 m 61.42,0 c -8.88,-0.277 -16.46,-5.925 -23.23,-11.128 -11.95,-10.047 -22.3,-21.985 -31.03,-34.911 -3.21,-5.347 -6.98,-11.019 -7.16,-17.457 0,21.168 0,42.328 0,63.496"
       style="fill:#e6180a;fill-opacity:1;fill-rule:nonzero;stroke:none"
       transform="matrix(0.13333333,0,0,-0.13333333,0,260.85333)" />
    <path
       id="path7"
       d="m 360.734,1652.9 c 49.133,0 98.266,0 147.399,0 -16.785,0.75 -31.07,11.62 -44.567,20.59 -30.304,22.87 -58.691,49.08 -81.105,79.75 -10.461,15.43 -21.453,32.78 -21.727,52.05 M 508.133,1652.9 c -21.305,-0.67 -39.496,-14.22 -55.735,-26.73 -28.695,-24.09 -53.527,-52.74 -74.488,-83.76 -7.695,-12.84 -16.754,-26.45 -17.176,-41.9 0,50.8 0,101.59 0,152.39 m 0,-152.39 c -0.73,22.69 -14.55,42.34 -27.601,59.88 -23.262,28.99 -50.82,54.63 -81.149,76.06 -11.781,7.35 -24.296,16.1 -38.652,16.45 49.133,0 98.266,0 147.402,0 m -147.402,0 c 21.305,0.67 39.5,14.23 55.734,26.72 28.696,24.11 53.532,52.76 74.489,83.77 7.695,12.84 16.746,26.45 17.179,41.9 0,-50.8 0,-101.58 0,-152.39"
       style="fill:#e6180a;fill-opacity:1;fill-rule:nonzero;stroke:none"
       transform="matrix(0.13333333,0,0,-0.13333333,0,260.85333)" />
    <path
       id="path8"
       d="m 360.734,1037.6 c 49.133,0 98.266,0 147.399,0 -16.785,0.75 -31.07,11.61 -44.567,20.59 -30.304,22.86 -58.691,49.08 -81.105,79.75 -10.461,15.44 -21.453,32.78 -21.727,52.05 M 508.133,1037.6 c -21.305,-0.67 -39.496,-14.22 -55.735,-26.73 -28.695,-24.093 -53.527,-52.745 -74.488,-83.761 -7.695,-12.839 -16.754,-26.449 -17.176,-41.898 0,50.805 0,101.586 0,152.389 m 0,-152.389 c -0.73,22.684 -14.55,42.34 -27.601,59.883 -23.262,28.98 -50.82,54.621 -81.149,76.056 -11.781,7.35 -24.296,16.1 -38.652,16.45 49.133,0 98.266,0 147.402,0 m -147.402,0 c 21.305,0.67 39.5,14.22 55.734,26.72 28.696,24.11 53.532,52.76 74.489,83.77 7.695,12.84 16.746,26.45 17.179,41.9 0,-50.8 0,-101.58 0,-152.39"
       style="fill:#e6180a;fill-opacity:1;fill-rule:nonzero;stroke:none"
       transform="matrix(0.13333333,0,0,-0.13333333,0,260.85333)" />
    <path
       id="path9"
       d="m 360.734,345.609 c -49.132,0 -98.265,0 -147.398,0 16.785,-0.75 31.07,-11.613 44.562,-20.589 30.309,-22.864 58.692,-49.082 81.11,-79.75 10.461,-15.434 21.453,-32.782 21.726,-52.051 m -147.398,152.39 c 21.301,0.672 39.496,14.227 55.734,26.735 28.692,24.09 53.528,52.742 74.489,83.758 7.695,12.839 16.754,26.449 17.175,41.898 0,-50.805 0,-101.586 0,-152.391 m 0,152.391 c 0.731,-22.687 14.551,-42.34 27.602,-59.883 23.262,-28.98 50.82,-54.621 81.144,-76.058 11.786,-7.352 24.301,-16.094 38.657,-16.45 -49.133,0 -98.27,0 -147.403,0 m 147.403,0 c -21.305,-0.671 -39.5,-14.222 -55.735,-26.714 -28.695,-24.11 -53.531,-52.762 -74.488,-83.778 -7.699,-12.84 -16.746,-26.449 -17.18,-41.898 0,50.801 0,101.586 0,152.39"
       style="fill:#e6180a;fill-opacity:1;fill-rule:nonzero;stroke:none"
       transform="matrix(0.13333333,0,0,-0.13333333,0,260.85333)" />
    <path
       id="path10"
       d="m 999.355,1652.9 c 49.135,0 98.265,0 147.395,0 -16.78,0.75 -31.07,11.62 -44.56,20.59 -30.31,22.87 -58.69,49.08 -81.11,79.75 -10.46,15.43 -21.447,32.78 -21.725,52.05 M 1146.75,1652.9 c -21.3,-0.67 -39.49,-14.22 -55.73,-26.73 -28.69,-24.09 -53.53,-52.74 -74.49,-83.76 -7.69,-12.84 -16.753,-26.45 -17.175,-41.9 0,50.8 0,101.59 0,152.39 m 0,-152.39 c -0.73,22.69 -14.55,42.34 -27.601,59.88 -23.262,28.99 -50.82,54.63 -81.145,76.06 -11.785,7.35 -24.3,16.1 -38.656,16.45 49.133,0 98.27,0 147.402,0 m -147.402,0 c 21.305,0.67 39.5,14.23 55.735,26.72 28.695,24.11 53.531,52.76 74.488,83.77 7.699,12.84 16.746,26.45 17.179,41.9 0,-50.8 0,-101.58 0,-152.39"
       style="fill:#e6180a;fill-opacity:1;fill-rule:nonzero;stroke:none"
       transform="matrix(0.13333333,0,0,-0.13333333,0,260.85333)" />
    <path
       id="path11"
       d="m 999.355,1037.6 c 49.135,0 98.265,0 147.395,0 -16.78,0.75 -31.07,11.61 -44.56,20.59 -30.31,22.86 -58.69,49.08 -81.11,79.75 -10.46,15.44 -21.447,32.78 -21.725,52.05 M 1146.75,1037.6 c -21.3,-0.67 -39.49,-14.22 -55.73,-26.73 -28.69,-24.093 -53.53,-52.745 -74.49,-83.761 -7.69,-12.839 -16.753,-26.449 -17.175,-41.898 0,50.805 0,101.586 0,152.389 m 0,-152.389 c -0.73,22.684 -14.55,42.34 -27.601,59.883 -23.262,28.98 -50.82,54.621 -81.145,76.056 -11.785,7.35 -24.3,16.1 -38.656,16.45 49.133,0 98.27,0 147.402,0 m -147.402,0 c 21.305,0.67 39.5,14.22 55.735,26.72 28.695,24.11 53.531,52.76 74.488,83.77 7.699,12.84 16.746,26.45 17.179,41.9 0,-50.8 0,-101.58 0,-152.39"
       style="fill:#e6180a;fill-opacity:1;fill-rule:nonzero;stroke:none"
       transform="matrix(0.13333333,0,0,-0.13333333,0,260.85333)" />
    <path
       id="path12"
       d="m 999.359,345.609 c -49.132,0 -98.269,0 -147.402,0 16.789,-0.75 31.074,-11.613 44.566,-20.589 30.305,-22.864 58.692,-49.082 81.11,-79.75 10.461,-15.434 21.449,-32.782 21.726,-52.051 m -147.402,152.39 c 21.305,0.672 39.5,14.227 55.734,26.735 28.696,24.09 53.532,52.742 74.489,83.758 7.699,12.839 16.758,26.449 17.179,41.898 0,-50.805 0,-101.586 0,-152.391 m 0,152.391 c 0.731,-22.687 14.551,-42.34 27.601,-59.883 23.26,-28.98 50.82,-54.621 81.15,-76.058 11.78,-7.352 24.29,-16.094 38.65,-16.45 -49.13,0 -98.27,0 -147.401,0 m 147.401,0 c -21.3,-0.671 -39.5,-14.222 -55.74,-26.714 -28.69,-24.11 -53.52,-52.762 -74.48,-83.778 -7.7,-12.84 -16.751,-26.449 -17.181,-41.898 0,50.801 0,101.586 0,152.39"
       style="fill:#e6180a;fill-opacity:1;fill-rule:nonzero;stroke:none"
       transform="matrix(0.13333333,0,0,-0.13333333,0,260.85333)" />
  </g>
</svg>
