<?xml version="1.0" encoding="UTF-8" standalone="no"?>
<!-- Created with Inkscape (http://www.inkscape.org/) -->

<svg
   version="1.1"
   id="svg1"
   width="180.27953"
   height="260.85278"
   viewBox="0 0 180.27953 260.85278"
   xmlns="http://www.w3.org/2000/svg"
   xmlns:svg="http://www.w3.org/2000/svg">
  <defs
     id="defs1" />
  <g
     id="g1"
     transform="translate(2.796582e-5,0.06350344)">
    <path
       id="path1"
       d="M 9.99609,65.418 C 9.99609,35.1875 34.707,10.4766 64.9375,10.4766 H 1287.24 c 30.15,0 54.86,24.7109 54.86,54.9414 V 1891.94 c 0,30.22 -24.71,54.94 -54.86,54.94 H 64.9375 c -30.2305,0 -54.94141,-24.72 -54.94141,-54.94 V 65.418"
       style="fill:#ffffff;fill-opacity:1;fill-rule:nonzero;stroke:none"
       transform="matrix(0.13333333,0,0,-0.13333333,0,260.85333)" />
    <path
       id="path2"
       d="M 9.99609,65.418 C 9.99609,35.1875 34.707,10.4766 64.9375,10.4766 H 1287.24 c 30.15,0 54.86,24.7109 54.86,54.9414 V 1891.94 c 0,30.22 -24.71,54.94 -54.86,54.94 H 64.9375 c -30.2305,0 -54.94141,-24.72 -54.94141,-54.94 z"
       style="fill:none;stroke:#000000;stroke-width:19.9926;stroke-linecap:butt;stroke-linejoin:miter;stroke-miterlimit:10;stroke-dasharray:none;stroke-opacity:1"
       transform="matrix(0.13333333,0,0,-0.13333333,0,260.85333)" />
    <path
       id="path3"
       d="m 89.7578,1814.89 c 4.1055,6.15 8.6875,10.77 13.7462,13.85 5.117,3.07 10.676,4.61 16.68,4.61 14.472,0 25.816,-7.93 34.031,-23.79 8.277,-15.86 12.414,-37.64 12.418,-65.33 -0.004,-29.24 -4.649,-51.85 -13.938,-67.83 -9.289,-15.86 -22.496,-23.79 -39.621,-23.79 -19.3357,0 -33.9959,10.89 -43.9802,32.67 -9.9219,21.9 -14.8829,54.03 -14.8829,96.41 0,48.17 5.5313,84.51 16.5899,109.01 11.0586,24.62 27.457,36.93 49.1952,36.93 5.688,0 11.785,-0.89 18.293,-2.67 6.508,-1.77 13.492,-4.43 20.949,-7.98 v -46.87 H 147.77 c -1.582,12.07 -4.582,21.18 -9.008,27.34 -4.36,6.27 -10.016,9.41 -16.965,9.41 -11.25,0 -19.402,-7.22 -24.4572,-21.66 -4.9921,-14.44 -7.5195,-37.88 -7.582,-70.31 m 21.1372,-141.51 c 6.507,0 11.156,5.15 13.933,15.45 2.781,10.42 4.172,28.41 4.172,53.97 0,25.57 -1.391,43.5 -4.172,53.8 -2.777,10.42 -7.426,15.63 -13.933,15.63 -6.508,0 -11.1528,-5.21 -13.9341,-15.63 -2.7148,-10.3 -4.0742,-28.23 -4.0742,-53.8 0,-25.56 1.3594,-43.55 4.0742,-53.97 2.7813,-10.3 7.4261,-15.45 13.9341,-15.45"
       style="fill:#000000;fill-opacity:1;fill-rule:nonzero;stroke:none"
       transform="matrix(0.13333333,0,0,-0.13333333,0,260.85333)" />
    <path
       id="path4"
       d="m 1270.34,150.438 c -4.11,-6.153 -8.69,-10.77 -13.75,-13.848 -5.12,-3.078 -10.68,-4.617 -16.68,-4.617 -14.47,0 -25.81,7.929 -34.03,23.793 -8.28,15.859 -12.42,37.64 -12.42,65.336 0,29.234 4.65,51.843 13.94,67.824 9.29,15.859 22.49,23.789 39.62,23.789 19.34,0 34,-10.891 43.98,-32.668 9.92,-21.899 14.88,-54.035 14.88,-96.406 0,-48.176 -5.53,-84.5121 -16.59,-109.016 -11.06,-24.6172 -27.45,-36.9297 -49.19,-36.9297 -5.69,0 -11.79,0.8906 -18.3,2.6641 -6.5,1.7773 -13.49,4.4375 -20.94,7.9883 v 46.875 h 11.47 c 1.58,-12.0743 4.58,-21.1875 9,-27.3438 4.36,-6.2734 10.02,-9.4101 16.97,-9.4101 11.25,0 19.4,7.2226 24.45,21.6601 5,14.4414 7.52,37.8791 7.59,70.3091 m -21.14,141.503 c -6.51,0 -11.15,-5.148 -13.93,-15.445 -2.79,-10.418 -4.18,-28.406 -4.18,-53.973 0,-25.566 1.39,-43.5 4.18,-53.796 2.78,-10.418 7.42,-15.625 13.93,-15.625 6.51,0 11.15,5.207 13.93,15.625 2.72,10.296 4.08,28.23 4.08,53.796 0,25.567 -1.36,43.555 -4.08,53.973 -2.78,10.297 -7.42,15.445 -13.93,15.445"
       style="fill:#000000;fill-opacity:1;fill-rule:nonzero;stroke:none"
       transform="matrix(0.13333333,0,0,-0.13333333,0,260.85333)" />
    <path
       id="path5"
       d="m 87.8086,1482.39 c 13.3554,0 20.3904,14.23 24.0704,28.47 3.68,14.23 4,28.46 4,28.46 l 6.797,0.09 c 0,0 1.277,-57.02 27.988,-57.02 H 87.8086"
       style="fill:#000000;fill-opacity:1;fill-rule:nonzero;stroke:none"
       transform="matrix(0.13333333,0,0,-0.13333333,0,260.85333)" />
    <path
       id="path6"
       d="m 65.1758,1539.41 c 0.082,27.74 41.7462,47.89 53.9802,69.81 12.235,-21.99 53.899,-42.15 53.981,-69.81 0,-13.12 -12.078,-23.76 -27.032,-23.76 -14.875,0 -26.949,10.64 -26.949,23.76 0,-13.12 -12.074,-23.76 -27.031,-23.76 -14.9531,0 -26.9492,10.64 -26.9492,23.76"
       style="fill:#000000;fill-opacity:1;fill-rule:nonzero;stroke:none"
       transform="matrix(0.13333333,0,0,-0.13333333,0,260.85333)" />
    <path
       id="path7"
       d="m 1272.29,482.941 c -13.36,0 -20.4,-14.234 -24.08,-28.468 -3.67,-14.235 -3.99,-28.469 -3.99,-28.469 l -6.8,-0.082 c 0,0 -1.28,57.019 -27.99,57.019 h 62.86"
       style="fill:#000000;fill-opacity:1;fill-rule:nonzero;stroke:none"
       transform="matrix(0.13333333,0,0,-0.13333333,0,260.85333)" />
    <path
       id="path8"
       d="m 1294.92,425.922 c -0.08,-27.75 -41.74,-47.902 -53.98,-69.813 -12.24,21.993 -53.9,42.145 -53.98,69.813 0,13.117 12.08,23.75 27.03,23.75 14.87,0 26.95,-10.633 26.95,-23.75 0,13.117 12.08,23.75 27.03,23.75 14.95,0 26.95,-10.633 26.95,-23.75"
       style="fill:#000000;fill-opacity:1;fill-rule:nonzero;stroke:none"
       transform="matrix(0.13333333,0,0,-0.13333333,0,260.85333)" />
    <path
       id="path9"
       d="m 285.496,1500.71 c 32.055,0 48.942,34.17 57.77,68.33 8.832,34.16 9.597,68.32 9.597,68.32 l 16.317,0.2 c 0,0 3.07,-136.85 67.172,-136.85 H 285.496"
       style="fill:#000000;fill-opacity:1;fill-rule:nonzero;stroke:none"
       transform="matrix(0.13333333,0,0,-0.13333333,0,260.85333)" />
    <path
       id="path10"
       d="m 231.18,1637.56 c 0.191,66.6 100.187,114.96 129.554,167.55 29.364,-52.78 129.36,-101.15 129.551,-167.55 0,-31.48 -28.98,-57.01 -64.871,-57.01 -35.699,0 -64.68,25.53 -64.68,57.01 0,-31.48 -28.984,-57.01 -64.875,-57.01 -35.89,0 -64.679,25.53 -64.679,57.01"
       style="fill:#000000;fill-opacity:1;fill-rule:nonzero;stroke:none"
       transform="matrix(0.13333333,0,0,-0.13333333,0,260.85333)" />
    <path
       id="path11"
       d="m 285.496,885.41 c 32.055,0 48.942,34.164 57.77,68.324 8.832,34.164 9.597,68.326 9.597,68.326 l 16.317,0.19 c 0,0 3.07,-136.84 67.172,-136.84 H 285.496"
       style="fill:#000000;fill-opacity:1;fill-rule:nonzero;stroke:none"
       transform="matrix(0.13333333,0,0,-0.13333333,0,260.85333)" />
    <path
       id="path12"
       d="m 231.18,1022.25 c 0.191,66.6 100.187,114.97 129.554,167.56 29.364,-52.78 129.36,-101.15 129.551,-167.56 0,-31.473 -28.98,-57 -64.871,-57 -35.699,0 -64.68,25.527 -64.68,57 0,-31.473 -28.984,-57 -64.875,-57 -35.89,0 -64.679,25.527 -64.679,57"
       style="fill:#000000;fill-opacity:1;fill-rule:nonzero;stroke:none"
       transform="matrix(0.13333333,0,0,-0.13333333,0,260.85333)" />
    <path
       id="path13"
       d="m 435.973,497.805 c -32.055,0 -48.942,-34.164 -57.774,-68.325 -8.828,-34.164 -9.594,-68.328 -9.594,-68.328 l -16.316,-0.191 c 0,0 -3.07,136.844 -67.172,136.844 h 150.856"
       style="fill:#000000;fill-opacity:1;fill-rule:nonzero;stroke:none"
       transform="matrix(0.13333333,0,0,-0.13333333,0,260.85333)" />
    <path
       id="path14"
       d="M 490.289,360.961 C 490.094,294.359 390.102,245.996 360.734,193.406 c -29.363,52.782 -129.359,101.149 -129.55,167.555 0,31.477 28.98,57.004 64.871,57.004 35.699,0 64.679,-25.527 64.679,-57.004 0,31.477 28.981,57.004 64.871,57.004 35.891,0 64.684,-25.527 64.684,-57.004"
       style="fill:#000000;fill-opacity:1;fill-rule:nonzero;stroke:none"
       transform="matrix(0.13333333,0,0,-0.13333333,0,260.85333)" />
    <path
       id="path15"
       d="m 924.117,1500.71 c 32.055,0 48.942,34.17 57.774,68.33 8.828,34.16 9.593,68.32 9.593,68.32 l 16.316,0.2 c 0,0 3.07,-136.85 67.17,-136.85 H 924.117"
       style="fill:#000000;fill-opacity:1;fill-rule:nonzero;stroke:none"
       transform="matrix(0.13333333,0,0,-0.13333333,0,260.85333)" />
    <path
       id="path16"
       d="m 869.801,1637.56 c 0.195,66.6 100.187,114.96 129.554,167.55 29.365,-52.78 129.355,-101.15 129.555,-167.55 0,-31.48 -28.98,-57.01 -64.87,-57.01 -35.7,0 -64.685,25.53 -64.685,57.01 0,-31.48 -28.98,-57.01 -64.871,-57.01 -35.89,0 -64.683,25.53 -64.683,57.01"
       style="fill:#000000;fill-opacity:1;fill-rule:nonzero;stroke:none"
       transform="matrix(0.13333333,0,0,-0.13333333,0,260.85333)" />
    <path
       id="path17"
       d="m 924.117,885.41 c 32.055,0 48.942,34.164 57.774,68.324 8.828,34.164 9.593,68.326 9.593,68.326 l 16.316,0.19 c 0,0 3.07,-136.84 67.17,-136.84 H 924.117"
       style="fill:#000000;fill-opacity:1;fill-rule:nonzero;stroke:none"
       transform="matrix(0.13333333,0,0,-0.13333333,0,260.85333)" />
    <path
       id="path18"
       d="m 869.801,1022.25 c 0.195,66.6 100.187,114.97 129.554,167.56 29.365,-52.78 129.355,-101.15 129.555,-167.56 0,-31.473 -28.98,-57 -64.87,-57 -35.7,0 -64.685,25.527 -64.685,57 0,-31.473 -28.98,-57 -64.871,-57 -35.89,0 -64.683,25.527 -64.683,57"
       style="fill:#000000;fill-opacity:1;fill-rule:nonzero;stroke:none"
       transform="matrix(0.13333333,0,0,-0.13333333,0,260.85333)" />
    <path
       id="path19"
       d="m 1074.59,497.805 c -32.05,0 -48.94,-34.164 -57.77,-68.325 -8.82,-34.164 -9.59,-68.328 -9.59,-68.328 l -16.316,-0.191 c 0,0 -3.07,136.844 -67.176,136.844 h 150.852"
       style="fill:#000000;fill-opacity:1;fill-rule:nonzero;stroke:none"
       transform="matrix(0.13333333,0,0,-0.13333333,0,260.85333)" />
    <path
       id="path20"
       d="M 1128.91,360.961 C 1128.72,294.359 1028.72,245.996 999.359,193.406 969.992,246.188 870,294.555 869.805,360.961 c 0,31.477 28.984,57.004 64.875,57.004 35.699,0 64.679,-25.527 64.679,-57.004 0,31.477 28.981,57.004 64.871,57.004 35.89,0 64.68,-25.527 64.68,-57.004"
       style="fill:#000000;fill-opacity:1;fill-rule:nonzero;stroke:none"
       transform="matrix(0.13333333,0,0,-0.13333333,0,260.85333)" />
  </g>
</svg>
