<?xml version="1.0" encoding="UTF-8" standalone="no"?>
<!-- Created with Inkscape (http://www.inkscape.org/) -->

<svg
   version="1.1"
   id="svg1"
   width="180.27953"
   height="260.85278"
   viewBox="0 0 180.27953 260.85278"
   xmlns="http://www.w3.org/2000/svg"
   xmlns:svg="http://www.w3.org/2000/svg">
  <defs
     id="defs1" />
  <g
     id="g1"
     transform="translate(2.796582e-5,0.06350344)">
    <path
       id="path1"
       d="M 9.99609,65.418 C 9.99609,35.1875 34.707,10.4766 64.9375,10.4766 H 1287.24 c 30.15,0 54.86,24.7109 54.86,54.9414 V 1891.94 c 0,30.22 -24.71,54.94 -54.86,54.94 H 64.9375 c -30.2305,0 -54.94141,-24.72 -54.94141,-54.94 V 65.418"
       style="fill:#ffffff;fill-opacity:1;fill-rule:nonzero;stroke:none"
       transform="matrix(0.13333333,0,0,-0.13333333,0,260.85333)" />
    <path
       id="path2"
       d="M 9.99609,65.418 C 9.99609,35.1875 34.707,10.4766 64.9375,10.4766 H 1287.24 c 30.15,0 54.86,24.7109 54.86,54.9414 V 1891.94 c 0,30.22 -24.71,54.94 -54.86,54.94 H 64.9375 c -30.2305,0 -54.94141,-24.72 -54.94141,-54.94 z"
       style="fill:none;stroke:#000000;stroke-width:19.9926;stroke-linecap:butt;stroke-linejoin:miter;stroke-miterlimit:10;stroke-dasharray:none;stroke-opacity:1"
       transform="matrix(0.13333333,0,0,-0.13333333,0,260.85333)" />
    <path
       id="path3"
       d="m 89.7578,1814.89 c 4.1055,6.15 8.6875,10.77 13.7462,13.85 5.117,3.07 10.676,4.61 16.68,4.61 14.472,0 25.816,-7.93 34.031,-23.79 8.277,-15.86 12.414,-37.64 12.418,-65.33 -0.004,-29.24 -4.649,-51.85 -13.938,-67.83 -9.289,-15.86 -22.496,-23.79 -39.621,-23.79 -19.3357,0 -33.9959,10.89 -43.9802,32.67 -9.9219,21.9 -14.8829,54.03 -14.8829,96.41 0,48.17 5.5313,84.51 16.5899,109.01 11.0586,24.62 27.457,36.93 49.1952,36.93 5.688,0 11.785,-0.89 18.293,-2.67 6.508,-1.77 13.492,-4.43 20.949,-7.98 v -46.87 H 147.77 c -1.582,12.07 -4.582,21.18 -9.008,27.34 -4.36,6.27 -10.016,9.41 -16.965,9.41 -11.25,0 -19.402,-7.22 -24.4572,-21.66 -4.9921,-14.45 -7.5195,-37.88 -7.582,-70.31 m 21.1372,-141.51 c 6.507,0 11.156,5.15 13.933,15.45 2.781,10.42 4.172,28.41 4.172,53.97 0,25.57 -1.391,43.5 -4.172,53.8 -2.777,10.42 -7.426,15.63 -13.933,15.63 -6.508,0 -11.1528,-5.21 -13.9341,-15.63 -2.7148,-10.3 -4.0742,-28.23 -4.0742,-53.8 0,-25.56 1.3594,-43.55 4.0742,-53.97 2.7813,-10.3 7.4261,-15.45 13.9341,-15.45"
       style="fill:#000000;fill-opacity:1;fill-rule:nonzero;stroke:none"
       transform="matrix(0.13333333,0,0,-0.13333333,0,260.85333)" />
    <path
       id="path4"
       d="m 1270.34,150.438 c -4.11,-6.153 -8.69,-10.77 -13.75,-13.848 -5.12,-3.078 -10.68,-4.617 -16.68,-4.617 -14.47,0 -25.81,7.929 -34.03,23.793 -8.28,15.859 -12.42,37.636 -12.42,65.336 0,29.234 4.65,51.843 13.94,67.82 9.29,15.863 22.49,23.793 39.62,23.793 19.34,0 34,-10.891 43.98,-32.668 9.92,-21.899 14.88,-54.035 14.88,-96.406 0,-48.176 -5.53,-84.5121 -16.59,-109.016 -11.06,-24.6172 -27.45,-36.9297 -49.19,-36.9297 -5.69,0 -11.79,0.8906 -18.3,2.6641 -6.5,1.7773 -13.49,4.4375 -20.94,7.9883 v 46.875 h 11.47 c 1.58,-12.0743 4.58,-21.1875 9,-27.3438 4.36,-6.2734 10.02,-9.4101 16.97,-9.4101 11.25,0 19.4,7.2226 24.45,21.6601 5,14.4414 7.52,37.8791 7.59,70.3091 m -21.14,141.503 c -6.51,0 -11.15,-5.148 -13.93,-15.445 -2.79,-10.418 -4.18,-28.406 -4.18,-53.973 0,-25.57 1.39,-43.5 4.18,-53.796 2.78,-10.418 7.42,-15.625 13.93,-15.625 6.51,0 11.15,5.207 13.93,15.625 2.72,10.296 4.08,28.226 4.08,53.796 0,25.567 -1.36,43.555 -4.08,53.973 -2.78,10.297 -7.42,15.445 -13.93,15.445"
       style="fill:#000000;fill-opacity:1;fill-rule:nonzero;stroke:none"
       transform="matrix(0.13333333,0,0,-0.13333333,0,260.85333)" />
    <path
       id="path5"
       d="m 92.3672,1583.07 c 0,-14.48 12.0738,-26.23 27.0278,-26.23 14.957,0 27.031,11.75 27.031,26.23 0,14.47 -12.074,26.23 -27.031,26.23 -14.954,0 -27.0278,-11.76 -27.0278,-26.23"
       style="fill:#000000;fill-opacity:1;fill-rule:nonzero;stroke:none"
       transform="matrix(0.13333333,0,0,-0.13333333,0,260.85333)" />
    <path
       id="path6"
       d="m 57.5,1533.41 c 0,-14.48 12.0742,-26.23 27.0273,-26.23 14.9571,0 27.0317,11.75 27.0317,26.23 0,14.47 -12.0746,26.23 -27.0317,26.23 -14.9531,0 -27.0273,-11.76 -27.0273,-26.23"
       style="fill:#000000;fill-opacity:1;fill-rule:nonzero;stroke:none"
       transform="matrix(0.13333333,0,0,-0.13333333,0,260.85333)" />
    <path
       id="path7"
       d="m 126.754,1533.25 c 0,-5.28 1.598,-10.24 4.398,-14.4 4.797,-7.12 13.196,-11.83 22.629,-11.83 14.957,0 27.032,11.75 27.032,26.23 0,14.47 -12.075,26.23 -27.032,26.23 -14.953,0 -27.027,-11.76 -27.027,-26.23"
       style="fill:#000000;fill-opacity:1;fill-rule:nonzero;stroke:none"
       transform="matrix(0.13333333,0,0,-0.13333333,0,260.85333)" />
    <path
       id="path8"
       d="m 87.6484,1482.3 c 13.3556,0 20.3906,10.88 24.0706,21.76 3.679,10.87 4,21.75 4,21.75 h 6.875 c 0,0 1.281,-43.42 27.992,-43.51 H 87.6484"
       style="fill:#000000;fill-opacity:1;fill-rule:nonzero;stroke:none"
       transform="matrix(0.13333333,0,0,-0.13333333,0,260.85333)" />
    <path
       id="path9"
       d="m 137.711,1563.79 c -15.195,-15.19 -15.195,-37.98 -15.195,-37.98 l -6.797,-0.08 c 0,0 0,23.27 -14.797,38.06"
       style="fill:#000000;fill-opacity:1;fill-rule:nonzero;stroke:none"
       transform="matrix(0.13333333,0,0,-0.13333333,0,260.85333)" />
    <path
       id="path10"
       d="m 134.672,1515.01 c -15.195,15.2 -37.9884,15.2 -37.9884,15.2 v 6.79 c 0,0 23.2734,0 38.0664,14.8"
       style="fill:#000000;fill-opacity:1;fill-rule:nonzero;stroke:none"
       transform="matrix(0.13333333,0,0,-0.13333333,0,260.85333)" />
    <path
       id="path11"
       d="m 104.203,1514.93 c 15.192,15.2 37.985,15.2 37.985,15.2 v 6.8 c 0,0 -23.27,0 -38.067,14.79"
       style="fill:#000000;fill-opacity:1;fill-rule:nonzero;stroke:none"
       transform="matrix(0.13333333,0,0,-0.13333333,0,260.85333)" />
    <path
       id="path12"
       d="m 1267.73,382.258 c 0,14.476 -12.08,26.23 -27.03,26.23 -14.95,0 -27.03,-11.754 -27.03,-26.23 0,-14.473 12.08,-26.231 27.03,-26.231 14.95,0 27.03,11.758 27.03,26.231"
       style="fill:#000000;fill-opacity:1;fill-rule:nonzero;stroke:none"
       transform="matrix(0.13333333,0,0,-0.13333333,0,260.85333)" />
    <path
       id="path13"
       d="m 1302.59,431.918 c 0,14.477 -12.07,26.23 -27.02,26.23 -14.96,0 -27.03,-11.753 -27.03,-26.23 0,-14.473 12.07,-26.227 27.03,-26.227 14.95,0 27.02,11.754 27.02,26.227"
       style="fill:#000000;fill-opacity:1;fill-rule:nonzero;stroke:none"
       transform="matrix(0.13333333,0,0,-0.13333333,0,260.85333)" />
    <path
       id="path14"
       d="m 1233.34,432.078 c 0,5.281 -1.6,10.238 -4.4,14.395 -4.8,7.117 -13.19,11.836 -22.63,11.836 -14.95,0 -27.03,-11.754 -27.03,-26.231 0,-14.473 12.08,-26.23 27.03,-26.23 14.96,0 27.03,11.757 27.03,26.23"
       style="fill:#000000;fill-opacity:1;fill-rule:nonzero;stroke:none"
       transform="matrix(0.13333333,0,0,-0.13333333,0,260.85333)" />
    <path
       id="path15"
       d="m 1272.45,483.02 c -13.36,0 -20.4,-10.875 -24.07,-21.75 -3.68,-10.875 -4,-21.754 -4,-21.754 h -6.88 c 0,0 -1.28,43.425 -27.99,43.504 h 62.94"
       style="fill:#000000;fill-opacity:1;fill-rule:nonzero;stroke:none"
       transform="matrix(0.13333333,0,0,-0.13333333,0,260.85333)" />
    <path
       id="path16"
       d="m 1222.39,401.531 c 15.19,15.196 15.19,37.985 15.19,37.985 l 6.8,0.082 c 0,0 0,-23.274 14.79,-38.067"
       style="fill:#000000;fill-opacity:1;fill-rule:nonzero;stroke:none"
       transform="matrix(0.13333333,0,0,-0.13333333,0,260.85333)" />
    <path
       id="path17"
       d="m 1225.43,450.313 c 15.19,-15.196 37.98,-15.196 37.98,-15.196 v -6.797 c 0,0 -23.27,0 -38.07,-14.793"
       style="fill:#000000;fill-opacity:1;fill-rule:nonzero;stroke:none"
       transform="matrix(0.13333333,0,0,-0.13333333,0,260.85333)" />
    <path
       id="path18"
       d="m 1255.89,450.395 c -15.19,-15.196 -37.98,-15.196 -37.98,-15.196 v -6.797 c 0,0 23.27,0 38.06,-14.797"
       style="fill:#000000;fill-opacity:1;fill-rule:nonzero;stroke:none"
       transform="matrix(0.13333333,0,0,-0.13333333,0,260.85333)" />
    <path
       id="path19"
       d="m 296.438,1742.34 c 0,-34.73 28.98,-62.95 64.871,-62.95 35.89,0 64.871,28.22 64.871,62.95 0,34.74 -28.981,62.96 -64.871,62.96 -35.891,0 -64.871,-28.22 -64.871,-62.96"
       style="fill:#000000;fill-opacity:1;fill-rule:nonzero;stroke:none"
       transform="matrix(0.13333333,0,0,-0.13333333,0,260.85333)" />
    <path
       id="path20"
       d="m 212.758,1623.16 c 0,-34.74 28.98,-62.96 64.871,-62.96 35.891,0 64.871,28.22 64.871,62.96 0,34.73 -28.98,62.95 -64.871,62.95 -35.891,0 -64.871,-28.22 -64.871,-62.95"
       style="fill:#000000;fill-opacity:1;fill-rule:nonzero;stroke:none"
       transform="matrix(0.13333333,0,0,-0.13333333,0,260.85333)" />
    <path
       id="path21"
       d="m 378.965,1622.77 c 0,-12.66 3.84,-24.56 10.558,-34.54 11.516,-17.09 31.668,-28.41 54.317,-28.41 35.89,0 64.871,28.22 64.871,62.95 0,34.74 -28.981,62.96 -64.871,62.96 -35.891,0 -64.875,-28.22 -64.875,-62.96"
       style="fill:#000000;fill-opacity:1;fill-rule:nonzero;stroke:none"
       transform="matrix(0.13333333,0,0,-0.13333333,0,260.85333)" />
    <path
       id="path22"
       d="m 285.113,1500.52 c 32.051,0 48.942,26.1 57.77,52.2 8.828,26.1 9.597,52.2 9.597,52.2 h 16.504 c 0,0 3.075,-104.21 67.176,-104.4 H 285.113"
       style="fill:#000000;fill-opacity:1;fill-rule:nonzero;stroke:none"
       transform="matrix(0.13333333,0,0,-0.13333333,0,260.85333)" />
    <path
       id="path23"
       d="m 405.262,1696.09 c -36.469,-36.46 -36.469,-91.17 -36.469,-91.17 l -16.313,-0.19 c 0,0 0,55.85 -35.507,91.36"
       style="fill:#000000;fill-opacity:1;fill-rule:nonzero;stroke:none"
       transform="matrix(0.13333333,0,0,-0.13333333,0,260.85333)" />
    <path
       id="path24"
       d="m 397.969,1579.01 c -36.469,36.47 -91.168,36.47 -91.168,36.47 v 16.31 c 0,0 55.851,0 91.359,35.51"
       style="fill:#000000;fill-opacity:1;fill-rule:nonzero;stroke:none"
       transform="matrix(0.13333333,0,0,-0.13333333,0,260.85333)" />
    <path
       id="path25"
       d="m 324.844,1578.82 c 36.465,36.47 91.164,36.47 91.164,36.47 v 16.31 c 0,0 -55.852,0 -91.36,35.51"
       style="fill:#000000;fill-opacity:1;fill-rule:nonzero;stroke:none"
       transform="matrix(0.13333333,0,0,-0.13333333,0,260.85333)" />
    <path
       id="path26"
       d="m 296.438,1127.04 c 0,-34.74 28.98,-62.95 64.871,-62.95 35.89,0 64.871,28.21 64.871,62.95 0,34.74 -28.981,62.96 -64.871,62.96 -35.891,0 -64.871,-28.22 -64.871,-62.96"
       style="fill:#000000;fill-opacity:1;fill-rule:nonzero;stroke:none"
       transform="matrix(0.13333333,0,0,-0.13333333,0,260.85333)" />
    <path
       id="path27"
       d="m 212.758,1007.86 c 0,-34.743 28.98,-62.958 64.871,-62.958 35.891,0 64.871,28.215 64.871,62.958 0,34.73 -28.98,62.95 -64.871,62.95 -35.891,0 -64.871,-28.22 -64.871,-62.95"
       style="fill:#000000;fill-opacity:1;fill-rule:nonzero;stroke:none"
       transform="matrix(0.13333333,0,0,-0.13333333,0,260.85333)" />
    <path
       id="path28"
       d="m 378.965,1007.47 c 0,-12.665 3.84,-24.568 10.558,-34.548 11.516,-17.078 31.668,-28.402 54.317,-28.402 35.89,0 64.871,28.21 64.871,62.95 0,34.74 -28.981,62.95 -64.871,62.95 -35.891,0 -64.875,-28.21 -64.875,-62.95"
       style="fill:#000000;fill-opacity:1;fill-rule:nonzero;stroke:none"
       transform="matrix(0.13333333,0,0,-0.13333333,0,260.85333)" />
    <path
       id="path29"
       d="m 285.113,885.211 c 32.051,0 48.942,26.105 57.77,52.207 8.828,26.102 9.597,52.203 9.597,52.203 h 16.504 c 0,0 3.075,-104.219 67.176,-104.41 H 285.113"
       style="fill:#000000;fill-opacity:1;fill-rule:nonzero;stroke:none"
       transform="matrix(0.13333333,0,0,-0.13333333,0,260.85333)" />
    <path
       id="path30"
       d="m 405.262,1080.79 c -36.469,-36.47 -36.469,-91.169 -36.469,-91.169 L 352.48,989.43 c 0,0 0,55.85 -35.507,91.36"
       style="fill:#000000;fill-opacity:1;fill-rule:nonzero;stroke:none"
       transform="matrix(0.13333333,0,0,-0.13333333,0,260.85333)" />
    <path
       id="path31"
       d="m 397.969,963.711 c -36.469,36.469 -91.168,36.469 -91.168,36.469 v 16.31 c 0,0 55.851,0 91.359,35.51"
       style="fill:#000000;fill-opacity:1;fill-rule:nonzero;stroke:none"
       transform="matrix(0.13333333,0,0,-0.13333333,0,260.85333)" />
    <path
       id="path32"
       d="m 324.844,963.52 c 36.465,36.464 91.164,36.464 91.164,36.464 v 16.316 c 0,0 -55.852,0 -91.36,35.5"
       style="fill:#000000;fill-opacity:1;fill-rule:nonzero;stroke:none"
       transform="matrix(0.13333333,0,0,-0.13333333,0,260.85333)" />
    <path
       id="path33"
       d="m 425.031,256.176 c 0,34.738 -28.98,62.949 -64.871,62.949 -35.89,0 -64.871,-28.211 -64.871,-62.949 0,-34.742 28.981,-62.953 64.871,-62.953 35.891,0 64.871,28.211 64.871,62.953"
       style="fill:#000000;fill-opacity:1;fill-rule:nonzero;stroke:none"
       transform="matrix(0.13333333,0,0,-0.13333333,0,260.85333)" />
    <path
       id="path34"
       d="m 508.711,375.363 c 0,34.739 -28.981,62.95 -64.871,62.95 -35.891,0 -64.871,-28.211 -64.871,-62.95 0,-34.742 28.98,-62.953 64.871,-62.953 35.89,0 64.871,28.211 64.871,62.953"
       style="fill:#000000;fill-opacity:1;fill-rule:nonzero;stroke:none"
       transform="matrix(0.13333333,0,0,-0.13333333,0,260.85333)" />
    <path
       id="path35"
       d="m 342.504,375.746 c 0,12.668 -3.84,24.567 -10.559,34.547 -11.515,17.082 -31.668,28.406 -54.316,28.406 -35.891,0 -64.871,-28.215 -64.871,-62.953 0,-34.738 28.98,-62.953 64.871,-62.953 35.891,0 64.875,28.215 64.875,62.953"
       style="fill:#000000;fill-opacity:1;fill-rule:nonzero;stroke:none"
       transform="matrix(0.13333333,0,0,-0.13333333,0,260.85333)" />
    <path
       id="path36"
       d="m 436.355,498.004 c -32.05,0 -48.941,-26.102 -57.769,-52.203 -8.828,-26.106 -9.598,-52.207 -9.598,-52.207 h -16.504 c 0,0 -3.074,104.219 -67.175,104.41 h 151.046"
       style="fill:#000000;fill-opacity:1;fill-rule:nonzero;stroke:none"
       transform="matrix(0.13333333,0,0,-0.13333333,0,260.85333)" />
    <path
       id="path37"
       d="m 316.207,302.43 c 36.469,36.465 36.469,91.164 36.469,91.164 l 16.312,0.191 c 0,0 0,-55.851 35.508,-91.355"
       style="fill:#000000;fill-opacity:1;fill-rule:nonzero;stroke:none"
       transform="matrix(0.13333333,0,0,-0.13333333,0,260.85333)" />
    <path
       id="path38"
       d="m 323.5,419.504 c 36.469,-36.465 91.168,-36.465 91.168,-36.465 v -16.312 c 0,0 -55.852,0 -91.359,-35.508"
       style="fill:#000000;fill-opacity:1;fill-rule:nonzero;stroke:none"
       transform="matrix(0.13333333,0,0,-0.13333333,0,260.85333)" />
    <path
       id="path39"
       d="M 396.625,419.695 C 360.16,383.23 305.461,383.23 305.461,383.23 v -16.312 c 0,0 55.852,0 91.355,-35.508"
       style="fill:#000000;fill-opacity:1;fill-rule:nonzero;stroke:none"
       transform="matrix(0.13333333,0,0,-0.13333333,0,260.85333)" />
    <path
       id="path40"
       d="m 935.059,1742.34 c 0,-34.73 28.98,-62.95 64.871,-62.95 35.89,0 64.87,28.22 64.87,62.95 0,34.74 -28.98,62.96 -64.87,62.96 -35.891,0 -64.871,-28.22 -64.871,-62.96"
       style="fill:#000000;fill-opacity:1;fill-rule:nonzero;stroke:none"
       transform="matrix(0.13333333,0,0,-0.13333333,0,260.85333)" />
    <path
       id="path41"
       d="m 851.379,1623.16 c 0,-34.74 28.98,-62.96 64.871,-62.96 35.891,0 64.871,28.22 64.871,62.96 0,34.73 -28.98,62.95 -64.871,62.95 -35.891,0 -64.871,-28.22 -64.871,-62.95"
       style="fill:#000000;fill-opacity:1;fill-rule:nonzero;stroke:none"
       transform="matrix(0.13333333,0,0,-0.13333333,0,260.85333)" />
    <path
       id="path42"
       d="m 1017.59,1622.77 c 0,-12.66 3.84,-24.56 10.55,-34.54 11.52,-17.09 31.67,-28.41 54.32,-28.41 35.89,0 64.87,28.22 64.87,62.95 0,34.74 -28.98,62.96 -64.87,62.96 -35.89,0 -64.87,-28.22 -64.87,-62.96"
       style="fill:#000000;fill-opacity:1;fill-rule:nonzero;stroke:none"
       transform="matrix(0.13333333,0,0,-0.13333333,0,260.85333)" />
    <path
       id="path43"
       d="m 923.734,1500.52 c 32.051,0 48.942,26.1 57.77,52.2 8.828,26.1 9.598,52.2 9.598,52.2 h 16.508 c 0,0 3.07,-104.21 67.17,-104.4 H 923.734"
       style="fill:#000000;fill-opacity:1;fill-rule:nonzero;stroke:none"
       transform="matrix(0.13333333,0,0,-0.13333333,0,260.85333)" />
    <path
       id="path44"
       d="m 1043.88,1696.09 c -36.47,-36.46 -36.47,-91.17 -36.47,-91.17 l -16.308,-0.19 c 0,0 0,55.85 -35.508,91.36"
       style="fill:#000000;fill-opacity:1;fill-rule:nonzero;stroke:none"
       transform="matrix(0.13333333,0,0,-0.13333333,0,260.85333)" />
    <path
       id="path45"
       d="m 1036.59,1579.01 c -36.47,36.47 -91.168,36.47 -91.168,36.47 v 16.31 c 0,0 55.848,0 91.358,35.51"
       style="fill:#000000;fill-opacity:1;fill-rule:nonzero;stroke:none"
       transform="matrix(0.13333333,0,0,-0.13333333,0,260.85333)" />
    <path
       id="path46"
       d="m 963.465,1578.82 c 36.465,36.47 91.165,36.47 91.165,36.47 v 16.31 c 0,0 -55.853,0 -91.357,35.51"
       style="fill:#000000;fill-opacity:1;fill-rule:nonzero;stroke:none"
       transform="matrix(0.13333333,0,0,-0.13333333,0,260.85333)" />
    <path
       id="path47"
       d="m 935.059,1127.04 c 0,-34.74 28.98,-62.95 64.871,-62.95 35.89,0 64.87,28.21 64.87,62.95 0,34.74 -28.98,62.96 -64.87,62.96 -35.891,0 -64.871,-28.22 -64.871,-62.96"
       style="fill:#000000;fill-opacity:1;fill-rule:nonzero;stroke:none"
       transform="matrix(0.13333333,0,0,-0.13333333,0,260.85333)" />
    <path
       id="path48"
       d="m 851.379,1007.86 c 0,-34.743 28.98,-62.958 64.871,-62.958 35.891,0 64.871,28.215 64.871,62.958 0,34.73 -28.98,62.95 -64.871,62.95 -35.891,0 -64.871,-28.22 -64.871,-62.95"
       style="fill:#000000;fill-opacity:1;fill-rule:nonzero;stroke:none"
       transform="matrix(0.13333333,0,0,-0.13333333,0,260.85333)" />
    <path
       id="path49"
       d="m 1017.59,1007.47 c 0,-12.665 3.84,-24.568 10.55,-34.548 11.52,-17.078 31.67,-28.402 54.32,-28.402 35.89,0 64.87,28.21 64.87,62.95 0,34.74 -28.98,62.95 -64.87,62.95 -35.89,0 -64.87,-28.21 -64.87,-62.95"
       style="fill:#000000;fill-opacity:1;fill-rule:nonzero;stroke:none"
       transform="matrix(0.13333333,0,0,-0.13333333,0,260.85333)" />
    <path
       id="path50"
       d="m 923.734,885.211 c 32.051,0 48.942,26.105 57.77,52.207 8.828,26.102 9.598,52.203 9.598,52.203 h 16.508 c 0,0 3.07,-104.219 67.17,-104.41 H 923.734"
       style="fill:#000000;fill-opacity:1;fill-rule:nonzero;stroke:none"
       transform="matrix(0.13333333,0,0,-0.13333333,0,260.85333)" />
    <path
       id="path51"
       d="m 1043.88,1080.79 c -36.47,-36.47 -36.47,-91.169 -36.47,-91.169 l -16.308,-0.191 c 0,0 0,55.85 -35.508,91.36"
       style="fill:#000000;fill-opacity:1;fill-rule:nonzero;stroke:none"
       transform="matrix(0.13333333,0,0,-0.13333333,0,260.85333)" />
    <path
       id="path52"
       d="m 1036.59,963.711 c -36.47,36.469 -91.168,36.469 -91.168,36.469 v 16.31 c 0,0 55.848,0 91.358,35.51"
       style="fill:#000000;fill-opacity:1;fill-rule:nonzero;stroke:none"
       transform="matrix(0.13333333,0,0,-0.13333333,0,260.85333)" />
    <path
       id="path53"
       d="m 963.465,963.52 c 36.465,36.464 91.165,36.464 91.165,36.464 v 16.316 c 0,0 -55.853,0 -91.357,35.5"
       style="fill:#000000;fill-opacity:1;fill-rule:nonzero;stroke:none"
       transform="matrix(0.13333333,0,0,-0.13333333,0,260.85333)" />
    <path
       id="path54"
       d="m 1063.66,256.176 c 0,34.738 -28.99,62.949 -64.879,62.949 -35.89,0 -64.871,-28.211 -64.871,-62.949 0,-34.742 28.981,-62.953 64.871,-62.953 35.889,0 64.879,28.211 64.879,62.953"
       style="fill:#000000;fill-opacity:1;fill-rule:nonzero;stroke:none"
       transform="matrix(0.13333333,0,0,-0.13333333,0,260.85333)" />
    <path
       id="path55"
       d="m 1147.34,375.363 c 0,34.739 -28.98,62.95 -64.88,62.95 -35.89,0 -64.87,-28.211 -64.87,-62.95 0,-34.742 28.98,-62.953 64.87,-62.953 35.9,0 64.88,28.211 64.88,62.953"
       style="fill:#000000;fill-opacity:1;fill-rule:nonzero;stroke:none"
       transform="matrix(0.13333333,0,0,-0.13333333,0,260.85333)" />
    <path
       id="path56"
       d="m 981.125,375.746 c 0,12.668 -3.84,24.567 -10.555,34.547 -11.515,17.082 -31.668,28.406 -54.316,28.406 -35.891,0 -64.871,-28.215 -64.871,-62.953 0,-34.738 28.98,-62.953 64.871,-62.953 35.891,0 64.871,28.215 64.871,62.953"
       style="fill:#000000;fill-opacity:1;fill-rule:nonzero;stroke:none"
       transform="matrix(0.13333333,0,0,-0.13333333,0,260.85333)" />
    <path
       id="path57"
       d="m 1074.98,498.004 c -32.05,0 -48.94,-26.102 -57.77,-52.203 -8.83,-26.106 -9.6,-52.207 -9.6,-52.207 h -16.505 c 0,0 -3.07,104.219 -67.175,104.41 h 151.05"
       style="fill:#000000;fill-opacity:1;fill-rule:nonzero;stroke:none"
       transform="matrix(0.13333333,0,0,-0.13333333,0,260.85333)" />
    <path
       id="path58"
       d="m 954.832,302.43 c 36.465,36.465 36.465,91.164 36.465,91.164 l 16.313,0.191 c 0,0 0,-55.851 35.51,-91.355"
       style="fill:#000000;fill-opacity:1;fill-rule:nonzero;stroke:none"
       transform="matrix(0.13333333,0,0,-0.13333333,0,260.85333)" />
    <path
       id="path59"
       d="m 962.125,419.504 c 36.465,-36.465 91.165,-36.465 91.165,-36.465 v -16.312 c 0,0 -55.852,0 -91.356,-35.508"
       style="fill:#000000;fill-opacity:1;fill-rule:nonzero;stroke:none"
       transform="matrix(0.13333333,0,0,-0.13333333,0,260.85333)" />
    <path
       id="path60"
       d="M 1035.25,419.695 C 998.781,383.23 944.082,383.23 944.082,383.23 v -16.312 c 0,0 55.852,0 91.358,-35.508"
       style="fill:#000000;fill-opacity:1;fill-rule:nonzero;stroke:none"
       transform="matrix(0.13333333,0,0,-0.13333333,0,260.85333)" />
  </g>
</svg>
