<?xml version="1.0" encoding="UTF-8" standalone="no"?>
<!-- Created with Inkscape (http://www.inkscape.org/) -->

<svg
   version="1.1"
   id="svg1"
   width="180.27953"
   height="260.85278"
   viewBox="0 0 180.27953 260.85278"
   xmlns="http://www.w3.org/2000/svg"
   xmlns:svg="http://www.w3.org/2000/svg">
  <defs
     id="defs1" />
  <g
     id="g1"
     transform="translate(2.796582e-5,0.06350344)">
    <path
       id="path1"
       d="M 9.99609,65.418 C 9.99609,35.1875 34.707,10.4766 64.9375,10.4766 H 1287.24 c 30.15,0 54.86,24.7109 54.86,54.9414 V 1891.94 c 0,30.23 -24.71,54.94 -54.86,54.94 H 64.9375 c -30.2305,0 -54.94141,-24.71 -54.94141,-54.94 V 65.418"
       style="fill:#ffffff;fill-opacity:1;fill-rule:nonzero;stroke:none"
       transform="matrix(0.13333333,0,0,-0.13333333,0,260.85333)" />
    <path
       id="path2"
       d="M 9.99609,65.418 C 9.99609,35.1875 34.707,10.4766 64.9375,10.4766 H 1287.24 c 30.15,0 54.86,24.7109 54.86,54.9414 V 1891.94 c 0,30.23 -24.71,54.94 -54.86,54.94 H 64.9375 c -30.2305,0 -54.94141,-24.71 -54.94141,-54.94 z"
       style="fill:none;stroke:#000000;stroke-width:19.9926;stroke-linecap:butt;stroke-linejoin:miter;stroke-miterlimit:10;stroke-dasharray:none;stroke-opacity:1"
       transform="matrix(0.13333333,0,0,-0.13333333,0,260.85333)" />
    <path
       id="path3"
       d="m 160.945,1877.74 -58.39,-219.98 H 83.3125 l 56.8715,214.83 H 70.3281 v -35.86 H 57.3398 v 86.11 H 160.945 v -45.1"
       style="fill:#e6180a;fill-opacity:1;fill-rule:nonzero;stroke:none"
       transform="matrix(0.13333333,0,0,-0.13333333,0,260.85333)" />
    <path
       id="path4"
       d="m 1199.11,87.5859 58.39,219.9801 h 19.24 L 1219.87,92.7344 h 69.86 v 35.8676 h 12.98 V 42.4922 h -103.6 v 45.0937"
       style="fill:#e6180a;fill-opacity:1;fill-rule:nonzero;stroke:none"
       transform="matrix(0.13333333,0,0,-0.13333333,0,260.85333)" />
    <path
       id="path5"
       d="m 119.156,1545.8 c 20.473,0 40.946,0 61.418,0 -6.996,0.31 -12.949,4.84 -18.57,8.58 -12.629,9.53 -24.453,20.45 -33.797,33.23 -4.355,6.43 -8.937,13.66 -9.051,21.69 m 61.418,-63.5 c -8.879,-0.28 -16.461,-5.92 -23.222,-11.14 -11.957,-10.03 -22.305,-21.97 -31.039,-34.9 -3.208,-5.35 -6.981,-11.02 -7.157,-17.46 0,21.17 0,42.33 0,63.5 m 0,-63.5 c -0.304,9.46 -6.062,17.65 -11.5,24.96 -9.6912,12.07 -21.1755,22.76 -33.8122,31.69 -4.9102,3.06 -10.125,6.7 -16.1055,6.85 20.4726,0 40.9453,0 61.4177,0 m -61.4177,0 c 8.8789,0.28 16.457,5.93 23.2226,11.13 11.9571,10.05 22.3051,21.99 31.0391,34.91 3.207,5.35 6.977,11.02 7.156,17.46 0,-21.17 0,-42.33 0,-63.5"
       style="fill:#e6180a;fill-opacity:1;fill-rule:nonzero;stroke:none"
       transform="matrix(0.13333333,0,0,-0.13333333,0,260.85333)" />
    <path
       id="path6"
       d="m 1240.9,419.523 c -20.47,0 -40.95,0 -61.42,0 7,-0.308 12.95,-4.835 18.57,-8.578 12.63,-9.527 24.45,-20.449 33.8,-33.23 4.35,-6.43 8.94,-13.656 9.05,-21.688 m -61.42,63.496 c 8.88,0.282 16.46,5.93 23.22,11.141 11.96,10.035 22.31,21.977 31.04,34.899 3.21,5.351 6.98,11.019 7.16,17.457 0,-21.168 0,-42.329 0,-63.497 m 0,63.497 c 0.3,-9.45 6.06,-17.641 11.5,-24.95 9.69,-12.074 21.17,-22.757 33.81,-31.691 4.91,-3.063 10.13,-6.707 16.11,-6.856 -20.48,0 -40.95,0 -61.42,0 m 61.42,0 c -8.88,-0.277 -16.46,-5.925 -23.23,-11.128 -11.95,-10.047 -22.3,-21.985 -31.04,-34.911 -3.2,-5.347 -6.97,-11.019 -7.15,-17.457 0,21.168 0,42.328 0,63.496"
       style="fill:#e6180a;fill-opacity:1;fill-rule:nonzero;stroke:none"
       transform="matrix(0.13333333,0,0,-0.13333333,0,260.85333)" />
    <path
       id="path7"
       d="m 360.738,1652.9 c 49.133,0 98.27,0 147.403,0 -16.789,0.75 -31.075,11.62 -44.567,20.59 -30.304,22.87 -58.691,49.08 -81.109,79.75 -10.461,15.43 -21.449,32.78 -21.727,52.05 M 508.141,1652.9 c -21.305,-0.67 -39.5,-14.22 -55.739,-26.73 -28.691,-24.09 -53.527,-52.74 -74.484,-83.76 -7.699,-12.84 -16.758,-26.45 -17.18,-41.9 0,50.8 0,101.59 0,152.39 m 0,-152.39 c -0.73,22.69 -14.547,42.34 -27.597,59.88 -23.262,28.99 -50.825,54.63 -81.149,76.06 -11.785,7.35 -24.297,16.1 -38.656,16.45 49.137,0 98.269,0 147.402,0 m -147.402,0 c 21.305,0.67 39.5,14.23 55.738,26.72 28.692,24.11 53.528,52.76 74.489,83.77 7.695,12.84 16.746,26.45 17.175,41.9 0,-50.8 0,-101.58 0,-152.39"
       style="fill:#e6180a;fill-opacity:1;fill-rule:nonzero;stroke:none"
       transform="matrix(0.13333333,0,0,-0.13333333,0,260.85333)" />
    <path
       id="path8"
       d="m 360.738,1037.6 c 49.133,0 98.27,0 147.403,0 -16.789,0.75 -31.075,11.61 -44.567,20.59 -30.304,22.86 -58.691,49.08 -81.109,79.75 -10.461,15.44 -21.449,32.78 -21.727,52.05 M 508.141,1037.6 c -21.305,-0.67 -39.5,-14.22 -55.739,-26.73 -28.691,-24.093 -53.527,-52.745 -74.484,-83.761 -7.699,-12.839 -16.758,-26.449 -17.18,-41.898 0,50.805 0,101.586 0,152.389 m 0,-152.389 c -0.73,22.684 -14.547,42.34 -27.597,59.883 -23.262,28.98 -50.825,54.621 -81.149,76.056 -11.785,7.35 -24.297,16.1 -38.656,16.45 49.137,0 98.269,0 147.402,0 m -147.402,0 c 21.305,0.67 39.5,14.22 55.738,26.72 28.692,24.11 53.528,52.76 74.489,83.77 7.695,12.84 16.746,26.45 17.175,41.9 0,-50.8 0,-101.58 0,-152.39"
       style="fill:#e6180a;fill-opacity:1;fill-rule:nonzero;stroke:none"
       transform="matrix(0.13333333,0,0,-0.13333333,0,260.85333)" />
    <path
       id="path9"
       d="m 360.738,345.609 c -49.136,0 -98.269,0 -147.402,0 16.789,-0.75 31.074,-11.613 44.566,-20.589 30.305,-22.864 58.692,-49.082 81.11,-79.75 10.461,-15.434 21.449,-32.782 21.726,-52.051 m -147.402,152.39 c 21.305,0.672 39.5,14.227 55.734,26.735 28.696,24.09 53.532,52.742 74.489,83.758 7.695,12.839 16.757,26.449 17.179,41.898 0,-50.805 0,-101.586 0,-152.391 m 0,152.391 c 0.727,-22.687 14.547,-42.34 27.598,-59.883 23.262,-28.98 50.824,-54.621 81.148,-76.058 11.786,-7.352 24.297,-16.094 38.653,-16.45 -49.133,0 -98.266,0 -147.399,0 m 147.399,0 c -21.301,-0.671 -39.496,-14.222 -55.735,-26.714 -28.695,-24.11 -53.527,-52.762 -74.488,-83.778 -7.695,-12.84 -16.746,-26.449 -17.176,-41.898 0,50.801 0,101.586 0,152.39"
       style="fill:#e6180a;fill-opacity:1;fill-rule:nonzero;stroke:none"
       transform="matrix(0.13333333,0,0,-0.13333333,0,260.85333)" />
    <path
       id="path10"
       d="m 999.359,1652.9 c 49.141,0 98.271,0 147.401,0 -16.79,0.75 -31.07,11.62 -44.56,20.59 -30.31,22.87 -58.7,49.08 -81.11,79.75 -10.46,15.43 -21.453,32.78 -21.731,52.05 M 1146.76,1652.9 c -21.3,-0.67 -39.5,-14.22 -55.73,-26.73 -28.7,-24.09 -53.53,-52.74 -74.49,-83.76 -7.7,-12.84 -16.759,-26.45 -17.181,-41.9 0,50.8 0,101.59 0,152.39 m 0,-152.39 c -0.726,22.69 -14.546,42.34 -27.597,59.88 -23.262,28.99 -50.824,54.63 -81.149,76.06 -11.785,7.35 -24.297,16.1 -38.652,16.45 49.133,0 98.266,0 147.398,0 m -147.398,0 c 21.301,0.67 39.496,14.23 55.734,26.72 28.696,24.11 53.528,52.76 74.489,83.77 7.695,12.84 16.746,26.45 17.175,41.9 0,-50.8 0,-101.58 0,-152.39"
       style="fill:#e6180a;fill-opacity:1;fill-rule:nonzero;stroke:none"
       transform="matrix(0.13333333,0,0,-0.13333333,0,260.85333)" />
    <path
       id="path11"
       d="m 999.359,1037.6 c 49.141,0 98.271,0 147.401,0 -16.79,0.75 -31.07,11.61 -44.56,20.59 -30.31,22.86 -58.7,49.08 -81.11,79.75 -10.46,15.44 -21.453,32.78 -21.731,52.05 M 1146.76,1037.6 c -21.3,-0.67 -39.5,-14.22 -55.73,-26.73 -28.7,-24.093 -53.53,-52.745 -74.49,-83.761 -7.7,-12.839 -16.759,-26.449 -17.181,-41.898 0,50.805 0,101.586 0,152.389 m 0,-152.389 c -0.726,22.684 -14.546,42.34 -27.597,59.883 -23.262,28.98 -50.824,54.621 -81.149,76.056 -11.785,7.35 -24.297,16.1 -38.652,16.45 49.133,0 98.266,0 147.398,0 m -147.398,0 c 21.301,0.67 39.496,14.22 55.734,26.72 28.696,24.11 53.528,52.76 74.489,83.77 7.695,12.84 16.746,26.45 17.175,41.9 0,-50.8 0,-101.58 0,-152.39"
       style="fill:#e6180a;fill-opacity:1;fill-rule:nonzero;stroke:none"
       transform="matrix(0.13333333,0,0,-0.13333333,0,260.85333)" />
    <path
       id="path12"
       d="m 999.359,345.609 c -49.132,0 -98.265,0 -147.402,0 16.789,-0.75 31.074,-11.613 44.566,-20.589 30.309,-22.864 58.692,-49.082 81.11,-79.75 10.461,-15.434 21.449,-32.782 21.726,-52.051 m -147.402,152.39 c 21.305,0.672 39.5,14.227 55.738,26.735 28.692,24.09 53.528,52.742 74.489,83.758 7.695,12.839 16.754,26.449 17.175,41.898 0,-50.805 0,-101.586 0,-152.391 m 0,152.391 c 0.731,-22.687 14.551,-42.34 27.601,-59.883 23.26,-28.98 50.82,-54.621 81.15,-76.058 11.78,-7.352 24.3,-16.094 38.65,-16.45 -49.13,0 -98.27,0 -147.401,0 m 147.401,0 c -21.3,-0.671 -39.5,-14.222 -55.74,-26.714 -28.69,-24.11 -53.52,-52.762 -74.48,-83.778 -7.7,-12.84 -16.747,-26.449 -17.181,-41.898 0,50.801 0,101.586 0,152.39"
       style="fill:#e6180a;fill-opacity:1;fill-rule:nonzero;stroke:none"
       transform="matrix(0.13333333,0,0,-0.13333333,0,260.85333)" />
    <path
       id="path13"
       d="m 680.047,1219.81 c 49.133,0 98.269,0 147.402,0 -16.789,0.75 -31.074,11.62 -44.566,20.59 -30.305,22.87 -58.692,49.08 -81.11,79.75 -10.46,15.44 -21.449,32.78 -21.726,52.05 m 147.402,-152.39 c -21.304,-0.67 -39.5,-14.22 -55.738,-26.73 -28.691,-24.09 -53.527,-52.74 -74.484,-83.76 -7.7,-12.84 -16.758,-26.45 -17.18,-41.9 0,50.81 0,101.59 0,152.39 m 0,-152.39 c -0.731,22.69 -14.547,42.34 -27.598,59.88 -23.261,28.99 -50.824,54.63 -81.148,76.07 -11.785,7.34 -24.297,16.09 -38.656,16.44 49.136,0 98.269,0 147.402,0 m -147.402,0 c 21.304,0.67 39.5,14.23 55.738,26.72 28.691,24.11 53.527,52.76 74.488,83.78 7.695,12.84 16.746,26.44 17.176,41.89 0,-50.8 0,-101.58 0,-152.39"
       style="fill:#e6180a;fill-opacity:1;fill-rule:nonzero;stroke:none"
       transform="matrix(0.13333333,0,0,-0.13333333,0,260.85333)" />
  </g>
</svg>
