<?xml version="1.0" encoding="UTF-8" standalone="no"?>
<!-- Created with Inkscape (http://www.inkscape.org/) -->

<svg
   version="1.1"
   id="svg1"
   width="180.27953"
   height="260.85278"
   viewBox="0 0 180.27953 260.85278"
   xmlns="http://www.w3.org/2000/svg"
   xmlns:svg="http://www.w3.org/2000/svg">
  <defs
     id="defs1" />
  <g
     id="g1"
     transform="translate(2.796582e-5,0.06350344)">
    <path
       id="path1"
       d="M 9.99609,65.418 C 9.99609,35.1875 34.707,10.4766 64.9375,10.4766 H 1287.24 c 30.15,0 54.86,24.7109 54.86,54.9414 V 1891.94 c 0,30.22 -24.71,54.94 -54.86,54.94 H 64.9375 c -30.2305,0 -54.94141,-24.72 -54.94141,-54.94 V 65.418"
       style="fill:#ffffff;fill-opacity:1;fill-rule:nonzero;stroke:none"
       transform="matrix(0.13333333,0,0,-0.13333333,0,260.85333)" />
    <path
       id="path2"
       d="M 9.99609,65.418 C 9.99609,35.1875 34.707,10.4766 64.9375,10.4766 H 1287.24 c 30.15,0 54.86,24.7109 54.86,54.9414 V 1891.94 c 0,30.22 -24.71,54.94 -54.86,54.94 H 64.9375 c -30.2305,0 -54.94141,-24.72 -54.94141,-54.94 z"
       style="fill:none;stroke:#000000;stroke-width:19.9926;stroke-linecap:butt;stroke-linejoin:miter;stroke-miterlimit:10;stroke-dasharray:none;stroke-opacity:1"
       transform="matrix(0.13333333,0,0,-0.13333333,0,260.85333)" />
    <path
       id="path3"
       d="m 160.945,1877.75 -58.39,-219.98 H 83.3125 L 140.184,1872.6 H 70.3281 v -35.87 H 57.3398 v 86.11 H 160.945 v -45.09"
       style="fill:#e6180a;fill-opacity:1;fill-rule:nonzero;stroke:none"
       transform="matrix(0.13333333,0,0,-0.13333333,0,260.85333)" />
    <path
       id="path4"
       d="m 1199.11,87.5859 58.39,219.9801 h 19.24 L 1219.87,92.7344 h 69.86 v 35.8676 h 12.98 V 42.4922 h -103.6 v 45.0937"
       style="fill:#e6180a;fill-opacity:1;fill-rule:nonzero;stroke:none"
       transform="matrix(0.13333333,0,0,-0.13333333,0,260.85333)" />
    <path
       id="path5"
       d="m 180.492,1577.24 c -0.078,-37.67 -47.262,-65.1 -61.097,-94.93 -13.993,29.75 -61.2583,56.94 -61.5747,94.61 -0.082,17.75 13.6719,32.22 30.5469,32.22 16.9528,0 30.7888,-14.31 30.7888,-32.06 0,17.83 13.676,32.22 30.547,32.22 16.953,0.09 30.711,-14.31 30.789,-32.06"
       style="fill:#e6180a;fill-opacity:1;fill-rule:nonzero;stroke:none"
       transform="matrix(0.13333333,0,0,-0.13333333,0,260.85333)" />
    <path
       id="path6"
       d="m 1179.56,388.098 c 0.08,37.664 47.26,65.093 61.1,94.922 13.99,-29.747 61.26,-56.938 61.57,-94.602 0.09,-17.754 -13.67,-32.23 -30.54,-32.23 -16.96,0 -30.79,14.316 -30.79,32.07 0,-17.836 -13.68,-32.231 -30.55,-32.231 -16.96,-0.078 -30.71,14.317 -30.79,32.071"
       style="fill:#e6180a;fill-opacity:1;fill-rule:nonzero;stroke:none"
       transform="matrix(0.13333333,0,0,-0.13333333,0,260.85333)" />
    <path
       id="path7"
       d="m 507.949,1728.34 c -0.191,-90.4 -113.429,-156.23 -146.636,-227.82 -33.586,71.39 -147.016,136.65 -147.786,227.05 -0.191,42.61 32.821,77.34 73.321,77.34 40.687,0 73.89,-34.35 73.89,-76.96 0,42.8 32.821,77.35 73.317,77.35 40.691,0.19 73.703,-34.35 73.894,-76.96"
       style="fill:#e6180a;fill-opacity:1;fill-rule:nonzero;stroke:none"
       transform="matrix(0.13333333,0,0,-0.13333333,0,260.85333)" />
    <path
       id="path8"
       d="M 507.949,1113.03 C 507.758,1022.63 394.52,956.801 361.313,885.211 327.727,956.609 214.297,1021.87 213.527,1112.27 c -0.191,42.6 32.821,77.34 73.321,77.34 40.687,0 73.89,-34.35 73.89,-76.96 0,42.8 32.821,77.35 73.317,77.35 40.691,0.19 73.703,-34.36 73.894,-76.97"
       style="fill:#e6180a;fill-opacity:1;fill-rule:nonzero;stroke:none"
       transform="matrix(0.13333333,0,0,-0.13333333,0,260.85333)" />
    <path
       id="path9"
       d="m 213.527,270.176 c 0.192,90.398 113.43,156.23 146.633,227.82 33.59,-71.398 147.02,-136.652 147.785,-227.051 0.192,-42.609 -32.82,-77.347 -73.316,-77.347 -40.688,0 -73.891,34.355 -73.891,76.961 0,-42.797 -32.82,-77.344 -73.316,-77.344 -40.692,-0.195 -73.703,34.351 -73.895,76.961"
       style="fill:#e6180a;fill-opacity:1;fill-rule:nonzero;stroke:none"
       transform="matrix(0.13333333,0,0,-0.13333333,0,260.85333)" />
    <path
       id="path10"
       d="m 1146.57,1728.34 c -0.19,-90.4 -113.43,-156.23 -146.632,-227.82 -33.59,71.39 -147.02,136.65 -147.786,227.05 -0.191,42.61 32.821,77.34 73.317,77.34 40.687,0 73.89,-34.35 73.89,-76.96 0,42.8 32.821,77.35 73.321,77.35 40.69,0.19 73.7,-34.35 73.89,-76.96"
       style="fill:#e6180a;fill-opacity:1;fill-rule:nonzero;stroke:none"
       transform="matrix(0.13333333,0,0,-0.13333333,0,260.85333)" />
    <path
       id="path11"
       d="m 1146.57,1113.03 c -0.19,-90.4 -113.43,-156.229 -146.632,-227.819 -33.59,71.398 -147.02,136.659 -147.786,227.059 -0.191,42.6 32.821,77.34 73.317,77.34 40.687,0 73.89,-34.35 73.89,-76.96 0,42.8 32.821,77.35 73.321,77.35 40.69,0.19 73.7,-34.36 73.89,-76.97"
       style="fill:#e6180a;fill-opacity:1;fill-rule:nonzero;stroke:none"
       transform="matrix(0.13333333,0,0,-0.13333333,0,260.85333)" />
    <path
       id="path12"
       d="m 852.152,270.176 c 0.192,90.398 113.43,156.23 146.633,227.82 33.585,-71.398 147.015,-136.652 147.785,-227.051 0.19,-42.609 -32.82,-77.347 -73.32,-77.347 -40.69,0 -73.891,34.355 -73.891,76.961 0,-42.797 -32.82,-77.344 -73.316,-77.344 -40.688,-0.195 -73.699,34.351 -73.891,76.961"
       style="fill:#e6180a;fill-opacity:1;fill-rule:nonzero;stroke:none"
       transform="matrix(0.13333333,0,0,-0.13333333,0,260.85333)" />
    <path
       id="path13"
       d="m 827.258,1295.25 c -0.192,-90.4 -113.43,-156.23 -146.637,-227.82 -33.586,71.4 -147.016,136.65 -147.781,227.05 -0.195,42.61 32.816,77.35 73.316,77.35 40.688,0 73.891,-34.36 73.891,-76.97 0,42.8 32.82,77.35 73.316,77.35 40.692,0.19 73.703,-34.35 73.895,-76.96"
       style="fill:#e6180a;fill-opacity:1;fill-rule:nonzero;stroke:none"
       transform="matrix(0.13333333,0,0,-0.13333333,0,260.85333)" />
  </g>
</svg>
