<?xml version="1.0" encoding="UTF-8" standalone="no"?>
<!-- Created with Inkscape (http://www.inkscape.org/) -->

<svg
   version="1.1"
   id="svg1"
   width="180.27953"
   height="260.85278"
   viewBox="0 0 180.27953 260.85278"
   xmlns="http://www.w3.org/2000/svg"
   xmlns:svg="http://www.w3.org/2000/svg">
  <defs
     id="defs1" />
  <g
     id="g1"
     transform="translate(2.796582e-5,0.06350344)">
    <path
       id="path1"
       d="M 9.99609,65.418 C 9.99609,35.1875 34.707,10.4766 64.9375,10.4766 H 1287.24 c 30.15,0 54.86,24.7109 54.86,54.9414 V 1891.94 c 0,30.22 -24.71,54.94 -54.86,54.94 H 64.9375 c -30.2305,0 -54.94141,-24.72 -54.94141,-54.94 V 65.418"
       style="fill:#ffffff;fill-opacity:1;fill-rule:nonzero;stroke:none"
       transform="matrix(0.13333333,0,0,-0.13333333,0,260.85333)" />
    <path
       id="path2"
       d="M 9.99609,65.418 C 9.99609,35.1875 34.707,10.4766 64.9375,10.4766 H 1287.24 c 30.15,0 54.86,24.7109 54.86,54.9414 V 1891.94 c 0,30.22 -24.71,54.94 -54.86,54.94 H 64.9375 c -30.2305,0 -54.94141,-24.72 -54.94141,-54.94 z"
       style="fill:none;stroke:#000000;stroke-width:19.9926;stroke-linecap:butt;stroke-linejoin:miter;stroke-miterlimit:10;stroke-dasharray:none;stroke-opacity:1"
       transform="matrix(0.13333333,0,0,-0.13333333,0,260.85333)" />
    <path
       id="path3"
       d="m 160.945,1877.74 -58.39,-219.98 H 83.3125 l 56.8715,214.83 H 70.3281 v -35.86 H 57.3398 v 86.11 H 160.945 v -45.1"
       style="fill:#000000;fill-opacity:1;fill-rule:nonzero;stroke:none"
       transform="matrix(0.13333333,0,0,-0.13333333,0,260.85333)" />
    <path
       id="path4"
       d="m 1199.11,87.5859 58.39,219.9801 h 19.24 L 1219.87,92.7344 h 69.86 v 35.8676 h 12.98 V 42.4922 h -103.6 v 45.0937"
       style="fill:#000000;fill-opacity:1;fill-rule:nonzero;stroke:none"
       transform="matrix(0.13333333,0,0,-0.13333333,0,260.85333)" />
    <path
       id="path5"
       d="m 87.8086,1482.39 c 13.3554,0 20.3904,14.23 24.0704,28.47 3.68,14.23 4,28.46 4,28.46 l 6.797,0.09 c 0,0 1.277,-57.02 27.988,-57.02 H 87.8086"
       style="fill:#000000;fill-opacity:1;fill-rule:nonzero;stroke:none"
       transform="matrix(0.13333333,0,0,-0.13333333,0,260.85333)" />
    <path
       id="path6"
       d="m 65.1758,1539.41 c 0.082,27.74 41.7462,47.89 53.9802,69.81 12.235,-21.99 53.899,-42.15 53.981,-69.81 0,-13.12 -12.078,-23.76 -27.032,-23.76 -14.875,0 -26.949,10.64 -26.949,23.76 0,-13.12 -12.074,-23.76 -27.031,-23.76 -14.9531,0 -26.9492,10.64 -26.9492,23.76"
       style="fill:#000000;fill-opacity:1;fill-rule:nonzero;stroke:none"
       transform="matrix(0.13333333,0,0,-0.13333333,0,260.85333)" />
    <path
       id="path7"
       d="m 1272.25,482.941 c -13.36,0 -20.39,-14.234 -24.07,-28.468 -3.68,-14.235 -4,-28.469 -4,-28.469 l -6.8,-0.082 c 0,0 -1.28,57.019 -27.99,57.019 h 62.86"
       style="fill:#000000;fill-opacity:1;fill-rule:nonzero;stroke:none"
       transform="matrix(0.13333333,0,0,-0.13333333,0,260.85333)" />
    <path
       id="path8"
       d="m 1294.88,425.922 c -0.08,-27.75 -41.75,-47.902 -53.98,-69.813 -12.24,21.993 -53.9,42.145 -53.98,69.813 0,13.117 12.08,23.75 27.03,23.75 14.87,0 26.95,-10.633 26.95,-23.75 0,13.117 12.07,23.75 27.03,23.75 14.95,0 26.95,-10.633 26.95,-23.75"
       style="fill:#000000;fill-opacity:1;fill-rule:nonzero;stroke:none"
       transform="matrix(0.13333333,0,0,-0.13333333,0,260.85333)" />
    <path
       id="path9"
       d="m 285.504,1500.71 c 32.051,0 48.941,34.17 57.769,68.33 8.829,34.16 9.598,68.32 9.598,68.32 l 16.313,0.2 c 0,0 3.07,-136.85 67.175,-136.85 H 285.504"
       style="fill:#000000;fill-opacity:1;fill-rule:nonzero;stroke:none"
       transform="matrix(0.13333333,0,0,-0.13333333,0,260.85333)" />
    <path
       id="path10"
       d="m 231.188,1637.56 c 0.191,66.6 100.187,114.96 129.55,167.55 29.367,-52.78 129.36,-101.15 129.551,-167.55 0,-31.48 -28.98,-57.01 -64.871,-57.01 -35.699,0 -64.68,25.53 -64.68,57.01 0,-31.48 -28.98,-57.01 -64.871,-57.01 -35.89,0 -64.679,25.53 -64.679,57.01"
       style="fill:#000000;fill-opacity:1;fill-rule:nonzero;stroke:none"
       transform="matrix(0.13333333,0,0,-0.13333333,0,260.85333)" />
    <path
       id="path11"
       d="m 285.504,885.41 c 32.051,0 48.941,34.164 57.769,68.324 8.829,34.164 9.598,68.326 9.598,68.326 l 16.313,0.19 c 0,0 3.07,-136.84 67.175,-136.84 H 285.504"
       style="fill:#000000;fill-opacity:1;fill-rule:nonzero;stroke:none"
       transform="matrix(0.13333333,0,0,-0.13333333,0,260.85333)" />
    <path
       id="path12"
       d="m 231.188,1022.25 c 0.191,66.6 100.187,114.97 129.55,167.56 29.367,-52.78 129.36,-101.15 129.551,-167.56 0,-31.473 -28.98,-57 -64.871,-57 -35.699,0 -64.68,25.527 -64.68,57 0,-31.473 -28.98,-57 -64.871,-57 -35.89,0 -64.679,25.527 -64.679,57"
       style="fill:#000000;fill-opacity:1;fill-rule:nonzero;stroke:none"
       transform="matrix(0.13333333,0,0,-0.13333333,0,260.85333)" />
    <path
       id="path13"
       d="m 435.973,497.805 c -32.051,0 -48.942,-34.164 -57.77,-68.325 -8.828,-34.164 -9.598,-68.328 -9.598,-68.328 l -16.312,-0.191 c 0,0 -3.07,136.844 -67.176,136.844 h 150.856"
       style="fill:#000000;fill-opacity:1;fill-rule:nonzero;stroke:none"
       transform="matrix(0.13333333,0,0,-0.13333333,0,260.85333)" />
    <path
       id="path14"
       d="M 490.289,360.961 C 490.098,294.359 390.102,245.996 360.738,193.406 331.371,246.188 231.379,294.555 231.184,360.961 c 0,31.477 28.984,57.004 64.875,57.004 35.695,0 64.679,-25.527 64.679,-57.004 0,31.477 28.981,57.004 64.871,57.004 35.891,0 64.68,-25.527 64.68,-57.004"
       style="fill:#000000;fill-opacity:1;fill-rule:nonzero;stroke:none"
       transform="matrix(0.13333333,0,0,-0.13333333,0,260.85333)" />
    <path
       id="path15"
       d="m 924.125,1500.71 c 32.051,0 48.941,34.17 57.77,68.33 8.828,34.16 9.597,68.32 9.597,68.32 l 16.308,0.2 c 0,0 3.08,-136.85 67.18,-136.85 H 924.125"
       style="fill:#000000;fill-opacity:1;fill-rule:nonzero;stroke:none"
       transform="matrix(0.13333333,0,0,-0.13333333,0,260.85333)" />
    <path
       id="path16"
       d="m 869.809,1637.56 c 0.191,66.6 100.187,114.96 129.55,167.55 29.371,-52.78 129.361,-101.15 129.551,-167.55 0,-31.48 -28.98,-57.01 -64.87,-57.01 -35.7,0 -64.681,25.53 -64.681,57.01 0,-31.48 -28.98,-57.01 -64.871,-57.01 -35.89,0 -64.679,25.53 -64.679,57.01"
       style="fill:#000000;fill-opacity:1;fill-rule:nonzero;stroke:none"
       transform="matrix(0.13333333,0,0,-0.13333333,0,260.85333)" />
    <path
       id="path17"
       d="m 924.125,885.41 c 32.051,0 48.941,34.164 57.77,68.324 8.828,34.164 9.597,68.326 9.597,68.326 l 16.308,0.19 c 0,0 3.08,-136.84 67.18,-136.84 H 924.125"
       style="fill:#000000;fill-opacity:1;fill-rule:nonzero;stroke:none"
       transform="matrix(0.13333333,0,0,-0.13333333,0,260.85333)" />
    <path
       id="path18"
       d="m 869.809,1022.25 c 0.191,66.6 100.187,114.97 129.55,167.56 29.371,-52.78 129.361,-101.15 129.551,-167.56 0,-31.473 -28.98,-57 -64.87,-57 -35.7,0 -64.681,25.527 -64.681,57 0,-31.473 -28.98,-57 -64.871,-57 -35.89,0 -64.679,25.527 -64.679,57"
       style="fill:#000000;fill-opacity:1;fill-rule:nonzero;stroke:none"
       transform="matrix(0.13333333,0,0,-0.13333333,0,260.85333)" />
    <path
       id="path19"
       d="m 1074.6,497.805 c -32.06,0 -48.94,-34.164 -57.78,-68.325 -8.82,-34.164 -9.59,-68.328 -9.59,-68.328 l -16.316,-0.191 c 0,0 -3.07,136.844 -67.172,136.844 H 1074.6"
       style="fill:#000000;fill-opacity:1;fill-rule:nonzero;stroke:none"
       transform="matrix(0.13333333,0,0,-0.13333333,0,260.85333)" />
    <path
       id="path20"
       d="M 1128.91,360.961 C 1128.72,294.359 1028.73,245.996 999.359,193.406 969.996,246.188 870,294.555 869.809,360.961 c 0,31.477 28.98,57.004 64.871,57.004 35.699,0 64.679,-25.527 64.679,-57.004 0,31.477 28.981,57.004 64.871,57.004 35.89,0 64.68,-25.527 64.68,-57.004"
       style="fill:#000000;fill-opacity:1;fill-rule:nonzero;stroke:none"
       transform="matrix(0.13333333,0,0,-0.13333333,0,260.85333)" />
    <path
       id="path21"
       d="m 604.813,1067.63 c 32.05,0 48.941,34.16 57.769,68.32 8.828,34.16 9.598,68.33 9.598,68.33 l 16.312,0.19 c 0,0 3.071,-136.84 67.176,-136.84 H 604.813"
       style="fill:#000000;fill-opacity:1;fill-rule:nonzero;stroke:none"
       transform="matrix(0.13333333,0,0,-0.13333333,0,260.85333)" />
    <path
       id="path22"
       d="m 550.496,1204.47 c 0.192,66.6 100.188,114.96 129.551,167.55 29.367,-52.78 129.359,-101.14 129.551,-167.55 0,-31.48 -28.981,-57 -64.871,-57 -35.7,0 -64.68,25.52 -64.68,57 0,-31.48 -28.981,-57 -64.871,-57 -35.891,0 -64.68,25.52 -64.68,57"
       style="fill:#000000;fill-opacity:1;fill-rule:nonzero;stroke:none"
       transform="matrix(0.13333333,0,0,-0.13333333,0,260.85333)" />
  </g>
</svg>
