<?xml version="1.0" encoding="UTF-8" standalone="no"?>
<!-- Created with Inkscape (http://www.inkscape.org/) -->

<svg
   version="1.1"
   id="svg1"
   width="180.27953"
   height="260.85278"
   viewBox="0 0 180.27953 260.85278"
   xmlns="http://www.w3.org/2000/svg"
   xmlns:svg="http://www.w3.org/2000/svg">
  <defs
     id="defs1" />
  <g
     id="g1"
     transform="translate(2.796582e-5,0.06350344)">
    <path
       id="path1"
       d="M 9.99609,65.418 C 9.99609,35.1875 34.707,10.4766 64.9375,10.4766 H 1287.24 c 30.15,0 54.86,24.7109 54.86,54.9414 V 1891.94 c 0,30.22 -24.71,54.94 -54.86,54.94 H 64.9375 c -30.2305,0 -54.94141,-24.72 -54.94141,-54.94 V 65.418"
       style="fill:#ffffff;fill-opacity:1;fill-rule:nonzero;stroke:none"
       transform="matrix(0.13333333,0,0,-0.13333333,0,260.85333)" />
    <path
       id="path2"
       d="M 9.99609,65.418 C 9.99609,35.1875 34.707,10.4766 64.9375,10.4766 H 1287.24 c 30.15,0 54.86,24.7109 54.86,54.9414 V 1891.94 c 0,30.22 -24.71,54.94 -54.86,54.94 H 64.9375 c -30.2305,0 -54.94141,-24.72 -54.94141,-54.94 z"
       style="fill:none;stroke:#000000;stroke-width:19.9926;stroke-linecap:butt;stroke-linejoin:miter;stroke-miterlimit:10;stroke-dasharray:none;stroke-opacity:1"
       transform="matrix(0.13333333,0,0,-0.13333333,0,260.85333)" />
    <path
       id="path3"
       d="m 160.945,1877.74 -58.39,-219.98 H 83.3125 l 56.8715,214.83 H 70.3281 v -35.86 H 57.3398 v 86.11 H 160.945 v -45.1"
       style="fill:#000000;fill-opacity:1;fill-rule:nonzero;stroke:none"
       transform="matrix(0.13333333,0,0,-0.13333333,0,260.85333)" />
    <path
       id="path4"
       d="m 1199.11,87.5859 58.39,219.9801 h 19.24 L 1219.87,92.7344 h 69.86 v 35.8676 h 12.98 V 42.4883 h -103.6 v 45.0976"
       style="fill:#000000;fill-opacity:1;fill-rule:nonzero;stroke:none"
       transform="matrix(0.13333333,0,0,-0.13333333,0,260.85333)" />
    <path
       id="path5"
       d="m 92.3672,1583.07 c 0,-14.48 12.0738,-26.23 27.0278,-26.23 14.957,0 27.031,11.75 27.031,26.23 0,14.47 -12.074,26.23 -27.031,26.23 -14.954,0 -27.0278,-11.76 -27.0278,-26.23"
       style="fill:#000000;fill-opacity:1;fill-rule:nonzero;stroke:none"
       transform="matrix(0.13333333,0,0,-0.13333333,0,260.85333)" />
    <path
       id="path6"
       d="m 57.5,1533.41 c 0,-14.48 12.0742,-26.23 27.0273,-26.23 14.9571,0 27.0317,11.75 27.0317,26.23 0,14.47 -12.0746,26.23 -27.0317,26.23 -14.9531,0 -27.0273,-11.76 -27.0273,-26.23"
       style="fill:#000000;fill-opacity:1;fill-rule:nonzero;stroke:none"
       transform="matrix(0.13333333,0,0,-0.13333333,0,260.85333)" />
    <path
       id="path7"
       d="m 126.754,1533.25 c 0,-5.28 1.598,-10.24 4.398,-14.4 4.797,-7.12 13.196,-11.83 22.629,-11.83 14.957,0 27.032,11.75 27.032,26.23 0,14.47 -12.075,26.23 -27.032,26.23 -14.953,0 -27.027,-11.76 -27.027,-26.23"
       style="fill:#000000;fill-opacity:1;fill-rule:nonzero;stroke:none"
       transform="matrix(0.13333333,0,0,-0.13333333,0,260.85333)" />
    <path
       id="path8"
       d="m 87.6484,1482.3 c 13.3556,0 20.3906,10.88 24.0706,21.76 3.679,10.87 4,21.75 4,21.75 h 6.875 c 0,0 1.281,-43.42 27.992,-43.51 H 87.6484"
       style="fill:#000000;fill-opacity:1;fill-rule:nonzero;stroke:none"
       transform="matrix(0.13333333,0,0,-0.13333333,0,260.85333)" />
    <path
       id="path9"
       d="m 137.707,1563.79 c -15.191,-15.19 -15.191,-37.98 -15.191,-37.98 l -6.797,-0.08 c 0,0 0,23.27 -14.797,38.06"
       style="fill:#000000;fill-opacity:1;fill-rule:nonzero;stroke:none"
       transform="matrix(0.13333333,0,0,-0.13333333,0,260.85333)" />
    <path
       id="path10"
       d="m 134.672,1515.01 c -15.195,15.2 -37.9884,15.2 -37.9884,15.2 v 6.79 c 0,0 23.2734,0 38.0664,14.8"
       style="fill:#000000;fill-opacity:1;fill-rule:nonzero;stroke:none"
       transform="matrix(0.13333333,0,0,-0.13333333,0,260.85333)" />
    <path
       id="path11"
       d="m 104.203,1514.93 c 15.192,15.2 37.985,15.2 37.985,15.2 v 6.8 c 0,0 -23.274,0 -38.067,14.79"
       style="fill:#000000;fill-opacity:1;fill-rule:nonzero;stroke:none"
       transform="matrix(0.13333333,0,0,-0.13333333,0,260.85333)" />
    <path
       id="path12"
       d="m 1267.69,382.258 c 0,14.476 -12.08,26.23 -27.03,26.23 -14.96,0 -27.03,-11.754 -27.03,-26.23 0,-14.473 12.07,-26.231 27.03,-26.231 14.95,0 27.03,11.758 27.03,26.231"
       style="fill:#000000;fill-opacity:1;fill-rule:nonzero;stroke:none"
       transform="matrix(0.13333333,0,0,-0.13333333,0,260.85333)" />
    <path
       id="path13"
       d="m 1302.55,431.918 c 0,14.477 -12.07,26.23 -27.02,26.23 -14.96,0 -27.03,-11.753 -27.03,-26.23 0,-14.473 12.07,-26.227 27.03,-26.227 14.95,0 27.02,11.754 27.02,26.227"
       style="fill:#000000;fill-opacity:1;fill-rule:nonzero;stroke:none"
       transform="matrix(0.13333333,0,0,-0.13333333,0,260.85333)" />
    <path
       id="path14"
       d="m 1233.3,432.078 c 0,5.281 -1.6,10.238 -4.4,14.395 -4.79,7.117 -13.19,11.836 -22.63,11.836 -14.95,0 -27.03,-11.754 -27.03,-26.231 0,-14.473 12.08,-26.23 27.03,-26.23 14.96,0 27.03,11.757 27.03,26.23"
       style="fill:#000000;fill-opacity:1;fill-rule:nonzero;stroke:none"
       transform="matrix(0.13333333,0,0,-0.13333333,0,260.85333)" />
    <path
       id="path15"
       d="m 1272.41,483.02 c -13.36,0 -20.39,-10.875 -24.07,-21.75 -3.68,-10.875 -4,-21.754 -4,-21.754 h -6.88 c 0,0 -1.28,43.425 -27.99,43.504 h 62.94"
       style="fill:#000000;fill-opacity:1;fill-rule:nonzero;stroke:none"
       transform="matrix(0.13333333,0,0,-0.13333333,0,260.85333)" />
    <path
       id="path16"
       d="m 1222.34,401.531 c 15.2,15.196 15.2,37.985 15.2,37.985 l 6.8,0.082 c 0,0 0,-23.274 14.79,-38.067"
       style="fill:#000000;fill-opacity:1;fill-rule:nonzero;stroke:none"
       transform="matrix(0.13333333,0,0,-0.13333333,0,260.85333)" />
    <path
       id="path17"
       d="m 1225.38,450.313 c 15.2,-15.196 37.99,-15.196 37.99,-15.196 v -6.797 c 0,0 -23.27,0 -38.07,-14.793"
       style="fill:#000000;fill-opacity:1;fill-rule:nonzero;stroke:none"
       transform="matrix(0.13333333,0,0,-0.13333333,0,260.85333)" />
    <path
       id="path18"
       d="m 1255.85,450.395 c -15.19,-15.196 -37.98,-15.196 -37.98,-15.196 v -6.797 c 0,0 23.27,0 38.06,-14.797"
       style="fill:#000000;fill-opacity:1;fill-rule:nonzero;stroke:none"
       transform="matrix(0.13333333,0,0,-0.13333333,0,260.85333)" />
    <path
       id="path19"
       d="m 296.441,1742.34 c 0,-34.73 28.981,-62.95 64.872,-62.95 35.89,0 64.875,28.22 64.875,62.95 0,34.74 -28.985,62.96 -64.875,62.96 -35.891,0 -64.872,-28.22 -64.872,-62.96"
       style="fill:#000000;fill-opacity:1;fill-rule:nonzero;stroke:none"
       transform="matrix(0.13333333,0,0,-0.13333333,0,260.85333)" />
    <path
       id="path20"
       d="m 212.762,1623.16 c 0,-34.74 28.98,-62.96 64.871,-62.96 35.89,0 64.871,28.22 64.871,62.96 0,34.73 -28.981,62.95 -64.871,62.95 -35.891,0 -64.871,-28.22 -64.871,-62.95"
       style="fill:#000000;fill-opacity:1;fill-rule:nonzero;stroke:none"
       transform="matrix(0.13333333,0,0,-0.13333333,0,260.85333)" />
    <path
       id="path21"
       d="m 378.973,1622.77 c 0,-12.66 3.836,-24.56 10.554,-34.54 11.516,-17.09 31.668,-28.41 54.317,-28.41 35.89,0 64.871,28.22 64.871,62.95 0,34.74 -28.981,62.96 -64.871,62.96 -35.891,0 -64.871,-28.22 -64.871,-62.96"
       style="fill:#000000;fill-opacity:1;fill-rule:nonzero;stroke:none"
       transform="matrix(0.13333333,0,0,-0.13333333,0,260.85333)" />
    <path
       id="path22"
       d="m 285.117,1500.52 c 32.055,0 48.942,26.1 57.774,52.2 8.828,26.1 9.593,52.2 9.593,52.2 h 16.508 c 0,0 3.071,-104.21 67.176,-104.4 H 285.117"
       style="fill:#000000;fill-opacity:1;fill-rule:nonzero;stroke:none"
       transform="matrix(0.13333333,0,0,-0.13333333,0,260.85333)" />
    <path
       id="path23"
       d="m 405.266,1696.09 c -36.465,-36.46 -36.465,-91.17 -36.465,-91.17 l -16.317,-0.19 c 0,0 0,55.85 -35.504,91.36"
       style="fill:#000000;fill-opacity:1;fill-rule:nonzero;stroke:none"
       transform="matrix(0.13333333,0,0,-0.13333333,0,260.85333)" />
    <path
       id="path24"
       d="m 397.973,1579.01 c -36.465,36.47 -91.168,36.47 -91.168,36.47 v 16.31 c 0,0 55.851,0 91.359,35.51"
       style="fill:#000000;fill-opacity:1;fill-rule:nonzero;stroke:none"
       transform="matrix(0.13333333,0,0,-0.13333333,0,260.85333)" />
    <path
       id="path25"
       d="m 324.848,1578.82 c 36.465,36.47 91.168,36.47 91.168,36.47 v 16.31 c 0,0 -55.852,0 -91.36,35.51"
       style="fill:#000000;fill-opacity:1;fill-rule:nonzero;stroke:none"
       transform="matrix(0.13333333,0,0,-0.13333333,0,260.85333)" />
    <path
       id="path26"
       d="m 296.441,1127.04 c 0,-34.74 28.981,-62.95 64.872,-62.95 35.89,0 64.875,28.21 64.875,62.95 0,34.74 -28.985,62.96 -64.875,62.96 -35.891,0 -64.872,-28.22 -64.872,-62.96"
       style="fill:#000000;fill-opacity:1;fill-rule:nonzero;stroke:none"
       transform="matrix(0.13333333,0,0,-0.13333333,0,260.85333)" />
    <path
       id="path27"
       d="m 212.762,1007.86 c 0,-34.743 28.98,-62.958 64.871,-62.958 35.89,0 64.871,28.215 64.871,62.958 0,34.73 -28.981,62.95 -64.871,62.95 -35.891,0 -64.871,-28.22 -64.871,-62.95"
       style="fill:#000000;fill-opacity:1;fill-rule:nonzero;stroke:none"
       transform="matrix(0.13333333,0,0,-0.13333333,0,260.85333)" />
    <path
       id="path28"
       d="m 378.973,1007.47 c 0,-12.665 3.836,-24.568 10.554,-34.548 11.516,-17.078 31.668,-28.402 54.317,-28.402 35.89,0 64.871,28.21 64.871,62.95 0,34.74 -28.981,62.95 -64.871,62.95 -35.891,0 -64.871,-28.21 -64.871,-62.95"
       style="fill:#000000;fill-opacity:1;fill-rule:nonzero;stroke:none"
       transform="matrix(0.13333333,0,0,-0.13333333,0,260.85333)" />
    <path
       id="path29"
       d="m 285.117,885.211 c 32.055,0 48.942,26.105 57.774,52.207 8.828,26.102 9.593,52.203 9.593,52.203 h 16.508 c 0,0 3.071,-104.219 67.176,-104.41 H 285.117"
       style="fill:#000000;fill-opacity:1;fill-rule:nonzero;stroke:none"
       transform="matrix(0.13333333,0,0,-0.13333333,0,260.85333)" />
    <path
       id="path30"
       d="m 405.266,1080.79 c -36.465,-36.47 -36.465,-91.169 -36.465,-91.169 l -16.317,-0.191 c 0,0 0,55.85 -35.504,91.36"
       style="fill:#000000;fill-opacity:1;fill-rule:nonzero;stroke:none"
       transform="matrix(0.13333333,0,0,-0.13333333,0,260.85333)" />
    <path
       id="path31"
       d="m 397.973,963.711 c -36.465,36.469 -91.168,36.469 -91.168,36.469 v 16.31 c 0,0 55.851,0 91.359,35.51"
       style="fill:#000000;fill-opacity:1;fill-rule:nonzero;stroke:none"
       transform="matrix(0.13333333,0,0,-0.13333333,0,260.85333)" />
    <path
       id="path32"
       d="m 324.848,963.52 c 36.465,36.464 91.168,36.464 91.168,36.464 v 16.316 c 0,0 -55.852,0 -91.36,35.5"
       style="fill:#000000;fill-opacity:1;fill-rule:nonzero;stroke:none"
       transform="matrix(0.13333333,0,0,-0.13333333,0,260.85333)" />
    <path
       id="path33"
       d="m 425.031,256.176 c 0,34.738 -28.98,62.949 -64.871,62.949 -35.89,0 -64.871,-28.211 -64.871,-62.949 0,-34.742 28.981,-62.953 64.871,-62.953 35.891,0 64.871,28.211 64.871,62.953"
       style="fill:#000000;fill-opacity:1;fill-rule:nonzero;stroke:none"
       transform="matrix(0.13333333,0,0,-0.13333333,0,260.85333)" />
    <path
       id="path34"
       d="m 508.715,375.363 c 0,34.739 -28.981,62.95 -64.871,62.95 -35.891,0 -64.875,-28.211 -64.875,-62.95 0,-34.742 28.984,-62.953 64.875,-62.953 35.89,0 64.871,28.211 64.871,62.953"
       style="fill:#000000;fill-opacity:1;fill-rule:nonzero;stroke:none"
       transform="matrix(0.13333333,0,0,-0.13333333,0,260.85333)" />
    <path
       id="path35"
       d="m 342.504,375.746 c 0,12.668 -3.84,24.567 -10.555,34.547 -11.515,17.082 -31.668,28.406 -54.316,28.406 -35.891,0 -64.871,-28.215 -64.871,-62.953 0,-34.738 28.98,-62.953 64.871,-62.953 35.89,0 64.871,28.215 64.871,62.953"
       style="fill:#000000;fill-opacity:1;fill-rule:nonzero;stroke:none"
       transform="matrix(0.13333333,0,0,-0.13333333,0,260.85333)" />
    <path
       id="path36"
       d="m 436.355,498.004 c -32.05,0 -48.941,-26.102 -57.769,-52.203 -8.828,-26.106 -9.598,-52.207 -9.598,-52.207 h -16.504 c 0,0 -3.07,104.219 -67.175,104.41 h 151.046"
       style="fill:#000000;fill-opacity:1;fill-rule:nonzero;stroke:none"
       transform="matrix(0.13333333,0,0,-0.13333333,0,260.85333)" />
    <path
       id="path37"
       d="m 316.211,302.43 c 36.465,36.465 36.465,91.164 36.465,91.164 l 16.312,0.191 c 0,0 0,-55.851 35.508,-91.355"
       style="fill:#000000;fill-opacity:1;fill-rule:nonzero;stroke:none"
       transform="matrix(0.13333333,0,0,-0.13333333,0,260.85333)" />
    <path
       id="path38"
       d="m 323.504,419.504 c 36.465,-36.465 91.164,-36.465 91.164,-36.465 v -16.312 c 0,0 -55.852,0 -91.355,-35.508"
       style="fill:#000000;fill-opacity:1;fill-rule:nonzero;stroke:none"
       transform="matrix(0.13333333,0,0,-0.13333333,0,260.85333)" />
    <path
       id="path39"
       d="M 396.629,419.695 C 360.16,383.23 305.461,383.23 305.461,383.23 v -16.312 c 0,0 55.852,0 91.359,-35.508"
       style="fill:#000000;fill-opacity:1;fill-rule:nonzero;stroke:none"
       transform="matrix(0.13333333,0,0,-0.13333333,0,260.85333)" />
    <path
       id="path40"
       d="m 935.066,1742.34 c 0,-34.73 28.981,-62.95 64.872,-62.95 35.892,0 64.872,28.22 64.872,62.95 0,34.74 -28.98,62.96 -64.872,62.96 -35.891,0 -64.872,-28.22 -64.872,-62.96"
       style="fill:#000000;fill-opacity:1;fill-rule:nonzero;stroke:none"
       transform="matrix(0.13333333,0,0,-0.13333333,0,260.85333)" />
    <path
       id="path41"
       d="m 851.383,1623.16 c 0,-34.74 28.98,-62.96 64.871,-62.96 35.891,0 64.875,28.22 64.875,62.96 0,34.73 -28.984,62.95 -64.875,62.95 -35.891,0 -64.871,-28.22 -64.871,-62.95"
       style="fill:#000000;fill-opacity:1;fill-rule:nonzero;stroke:none"
       transform="matrix(0.13333333,0,0,-0.13333333,0,260.85333)" />
    <path
       id="path42"
       d="m 1017.59,1622.77 c 0,-12.66 3.84,-24.56 10.56,-34.54 11.51,-17.09 31.67,-28.41 54.31,-28.41 35.9,0 64.88,28.22 64.88,62.95 0,34.74 -28.98,62.96 -64.88,62.96 -35.89,0 -64.87,-28.22 -64.87,-62.96"
       style="fill:#000000;fill-opacity:1;fill-rule:nonzero;stroke:none"
       transform="matrix(0.13333333,0,0,-0.13333333,0,260.85333)" />
    <path
       id="path43"
       d="m 923.742,1500.52 c 32.051,0 48.942,26.1 57.77,52.2 8.828,26.1 9.597,52.2 9.597,52.2 h 16.501 c 0,0 3.07,-104.21 67.18,-104.4 H 923.742"
       style="fill:#000000;fill-opacity:1;fill-rule:nonzero;stroke:none"
       transform="matrix(0.13333333,0,0,-0.13333333,0,260.85333)" />
    <path
       id="path44"
       d="m 1043.89,1696.09 c -36.47,-36.46 -36.47,-91.17 -36.47,-91.17 l -16.311,-0.19 c 0,0 0,55.85 -35.507,91.36"
       style="fill:#000000;fill-opacity:1;fill-rule:nonzero;stroke:none"
       transform="matrix(0.13333333,0,0,-0.13333333,0,260.85333)" />
    <path
       id="path45"
       d="m 1036.59,1579.01 c -36.46,36.47 -91.16,36.47 -91.16,36.47 v 16.31 c 0,0 55.85,0 91.36,35.51"
       style="fill:#000000;fill-opacity:1;fill-rule:nonzero;stroke:none"
       transform="matrix(0.13333333,0,0,-0.13333333,0,260.85333)" />
    <path
       id="path46"
       d="m 963.469,1578.82 c 36.469,36.47 91.171,36.47 91.171,36.47 v 16.31 c 0,0 -55.855,0 -91.363,35.51"
       style="fill:#000000;fill-opacity:1;fill-rule:nonzero;stroke:none"
       transform="matrix(0.13333333,0,0,-0.13333333,0,260.85333)" />
    <path
       id="path47"
       d="m 935.066,1127.04 c 0,-34.74 28.981,-62.95 64.872,-62.95 35.892,0 64.872,28.21 64.872,62.95 0,34.74 -28.98,62.96 -64.872,62.96 -35.891,0 -64.872,-28.22 -64.872,-62.96"
       style="fill:#000000;fill-opacity:1;fill-rule:nonzero;stroke:none"
       transform="matrix(0.13333333,0,0,-0.13333333,0,260.85333)" />
    <path
       id="path48"
       d="m 851.383,1007.86 c 0,-34.743 28.98,-62.958 64.871,-62.958 35.891,0 64.875,28.215 64.875,62.958 0,34.73 -28.984,62.95 -64.875,62.95 -35.891,0 -64.871,-28.22 -64.871,-62.95"
       style="fill:#000000;fill-opacity:1;fill-rule:nonzero;stroke:none"
       transform="matrix(0.13333333,0,0,-0.13333333,0,260.85333)" />
    <path
       id="path49"
       d="m 1017.59,1007.47 c 0,-12.665 3.84,-24.568 10.56,-34.548 11.51,-17.078 31.67,-28.402 54.31,-28.402 35.9,0 64.88,28.21 64.88,62.95 0,34.74 -28.98,62.95 -64.88,62.95 -35.89,0 -64.87,-28.21 -64.87,-62.95"
       style="fill:#000000;fill-opacity:1;fill-rule:nonzero;stroke:none"
       transform="matrix(0.13333333,0,0,-0.13333333,0,260.85333)" />
    <path
       id="path50"
       d="m 923.742,885.211 c 32.051,0 48.942,26.105 57.77,52.207 8.828,26.102 9.597,52.203 9.597,52.203 h 16.501 c 0,0 3.07,-104.219 67.18,-104.41 H 923.742"
       style="fill:#000000;fill-opacity:1;fill-rule:nonzero;stroke:none"
       transform="matrix(0.13333333,0,0,-0.13333333,0,260.85333)" />
    <path
       id="path51"
       d="m 1043.89,1080.79 c -36.47,-36.47 -36.47,-91.169 -36.47,-91.169 l -16.311,-0.191 c 0,0 0,55.85 -35.507,91.36"
       style="fill:#000000;fill-opacity:1;fill-rule:nonzero;stroke:none"
       transform="matrix(0.13333333,0,0,-0.13333333,0,260.85333)" />
    <path
       id="path52"
       d="m 1036.59,963.711 c -36.46,36.469 -91.16,36.469 -91.16,36.469 v 16.31 c 0,0 55.85,0 91.36,35.51"
       style="fill:#000000;fill-opacity:1;fill-rule:nonzero;stroke:none"
       transform="matrix(0.13333333,0,0,-0.13333333,0,260.85333)" />
    <path
       id="path53"
       d="m 963.469,963.52 c 36.469,36.464 91.171,36.464 91.171,36.464 v 16.316 c 0,0 -55.855,0 -91.363,35.5"
       style="fill:#000000;fill-opacity:1;fill-rule:nonzero;stroke:none"
       transform="matrix(0.13333333,0,0,-0.13333333,0,260.85333)" />
    <path
       id="path54"
       d="m 1063.66,256.176 c 0,34.738 -28.98,62.949 -64.875,62.949 -35.89,0 -64.871,-28.211 -64.871,-62.949 0,-34.742 28.981,-62.953 64.871,-62.953 35.895,0 64.875,28.211 64.875,62.953"
       style="fill:#000000;fill-opacity:1;fill-rule:nonzero;stroke:none"
       transform="matrix(0.13333333,0,0,-0.13333333,0,260.85333)" />
    <path
       id="path55"
       d="m 1147.34,375.363 c 0,34.739 -28.98,62.95 -64.88,62.95 -35.89,0 -64.87,-28.211 -64.87,-62.95 0,-34.742 28.98,-62.953 64.87,-62.953 35.9,0 64.88,28.211 64.88,62.953"
       style="fill:#000000;fill-opacity:1;fill-rule:nonzero;stroke:none"
       transform="matrix(0.13333333,0,0,-0.13333333,0,260.85333)" />
    <path
       id="path56"
       d="m 981.125,375.746 c 0,12.668 -3.836,24.567 -10.555,34.547 -11.515,17.082 -31.668,28.406 -54.316,28.406 -35.891,0 -64.871,-28.215 -64.871,-62.953 0,-34.738 28.98,-62.953 64.871,-62.953 35.891,0 64.871,28.215 64.871,62.953"
       style="fill:#000000;fill-opacity:1;fill-rule:nonzero;stroke:none"
       transform="matrix(0.13333333,0,0,-0.13333333,0,260.85333)" />
    <path
       id="path57"
       d="m 1074.98,498.004 c -32.05,0 -48.94,-26.102 -57.77,-52.203 -8.83,-26.106 -9.6,-52.207 -9.6,-52.207 h -16.505 c 0,0 -3.07,104.219 -67.171,104.41 h 151.046"
       style="fill:#000000;fill-opacity:1;fill-rule:nonzero;stroke:none"
       transform="matrix(0.13333333,0,0,-0.13333333,0,260.85333)" />
    <path
       id="path58"
       d="m 954.832,302.43 c 36.469,36.465 36.469,91.164 36.469,91.164 l 16.309,0.191 c 0,0 0,-55.851 35.51,-91.355"
       style="fill:#000000;fill-opacity:1;fill-rule:nonzero;stroke:none"
       transform="matrix(0.13333333,0,0,-0.13333333,0,260.85333)" />
    <path
       id="path59"
       d="m 962.125,419.504 c 36.469,-36.465 91.165,-36.465 91.165,-36.465 v -16.312 c 0,0 -55.849,0 -91.356,-35.508"
       style="fill:#000000;fill-opacity:1;fill-rule:nonzero;stroke:none"
       transform="matrix(0.13333333,0,0,-0.13333333,0,260.85333)" />
    <path
       id="path60"
       d="M 1035.25,419.695 C 998.785,383.23 944.086,383.23 944.086,383.23 v -16.312 c 0,0 55.852,0 91.354,-35.508"
       style="fill:#000000;fill-opacity:1;fill-rule:nonzero;stroke:none"
       transform="matrix(0.13333333,0,0,-0.13333333,0,260.85333)" />
    <path
       id="path61"
       d="m 615.75,1309.25 c 0,-34.73 28.98,-62.95 64.871,-62.95 35.891,0 64.875,28.22 64.875,62.95 0,34.75 -28.984,62.96 -64.875,62.96 -35.891,0 -64.871,-28.21 -64.871,-62.96"
       style="fill:#000000;fill-opacity:1;fill-rule:nonzero;stroke:none"
       transform="matrix(0.13333333,0,0,-0.13333333,0,260.85333)" />
    <path
       id="path62"
       d="m 532.07,1190.07 c 0,-34.74 28.981,-62.96 64.871,-62.96 35.891,0 64.872,28.22 64.872,62.96 0,34.73 -28.981,62.95 -64.872,62.95 -35.89,0 -64.871,-28.22 -64.871,-62.95"
       style="fill:#000000;fill-opacity:1;fill-rule:nonzero;stroke:none"
       transform="matrix(0.13333333,0,0,-0.13333333,0,260.85333)" />
    <path
       id="path63"
       d="m 698.281,1189.68 c 0,-12.66 3.836,-24.56 10.555,-34.54 11.516,-17.09 31.668,-28.41 54.316,-28.41 35.891,0 64.871,28.22 64.871,62.95 0,34.74 -28.98,62.96 -64.871,62.96 -35.89,0 -64.871,-28.22 -64.871,-62.96"
       style="fill:#000000;fill-opacity:1;fill-rule:nonzero;stroke:none"
       transform="matrix(0.13333333,0,0,-0.13333333,0,260.85333)" />
    <path
       id="path64"
       d="m 604.426,1067.43 c 32.054,0 48.941,26.1 57.773,52.2 8.828,26.1 9.594,52.21 9.594,52.21 h 16.508 c 0,0 3.07,-104.22 67.176,-104.41 H 604.426"
       style="fill:#000000;fill-opacity:1;fill-rule:nonzero;stroke:none"
       transform="matrix(0.13333333,0,0,-0.13333333,0,260.85333)" />
    <path
       id="path65"
       d="m 724.574,1263 c -36.465,-36.46 -36.465,-91.16 -36.465,-91.16 l -16.316,-0.2 c 0,0 0,55.85 -35.504,91.36"
       style="fill:#000000;fill-opacity:1;fill-rule:nonzero;stroke:none"
       transform="matrix(0.13333333,0,0,-0.13333333,0,260.85333)" />
    <path
       id="path66"
       d="m 717.281,1145.93 c -36.465,36.46 -91.168,36.46 -91.168,36.46 v 16.31 c 0,0 55.852,0 91.36,35.51"
       style="fill:#000000;fill-opacity:1;fill-rule:nonzero;stroke:none"
       transform="matrix(0.13333333,0,0,-0.13333333,0,260.85333)" />
    <path
       id="path67"
       d="m 644.156,1145.73 c 36.465,36.47 91.168,36.47 91.168,36.47 v 16.31 c 0,0 -55.851,0 -91.359,35.51"
       style="fill:#000000;fill-opacity:1;fill-rule:nonzero;stroke:none"
       transform="matrix(0.13333333,0,0,-0.13333333,0,260.85333)" />
  </g>
</svg>
