<?xml version="1.0" encoding="UTF-8" standalone="no"?>
<!-- Created with Inkscape (http://www.inkscape.org/) -->

<svg
   version="1.1"
   id="svg1"
   width="180.27953"
   height="260.85278"
   viewBox="0 0 180.27953 260.85278"
   xmlns="http://www.w3.org/2000/svg"
   xmlns:svg="http://www.w3.org/2000/svg">
  <defs
     id="defs1" />
  <g
     id="g1"
     transform="translate(2.796582e-5,0.06350344)">
    <path
       id="path1"
       d="M 9.99609,65.418 C 9.99609,35.1875 34.707,10.4766 64.9375,10.4766 H 1287.24 c 30.15,0 54.86,24.7109 54.86,54.9414 V 1891.94 c 0,30.22 -24.71,54.94 -54.86,54.94 H 64.9375 c -30.2305,0 -54.94141,-24.72 -54.94141,-54.94 V 65.418"
       style="fill:#ffffff;fill-opacity:1;fill-rule:nonzero;stroke:none"
       transform="matrix(0.13333333,0,0,-0.13333333,0,260.85333)" />
    <path
       id="path2"
       d="M 9.99609,65.418 C 9.99609,35.1875 34.707,10.4766 64.9375,10.4766 H 1287.24 c 30.15,0 54.86,24.7109 54.86,54.9414 V 1891.94 c 0,30.22 -24.71,54.94 -54.86,54.94 H 64.9375 c -30.2305,0 -54.94141,-24.72 -54.94141,-54.94 z"
       style="fill:none;stroke:#000000;stroke-width:19.9926;stroke-linecap:butt;stroke-linejoin:miter;stroke-miterlimit:10;stroke-dasharray:none;stroke-opacity:1"
       transform="matrix(0.13333333,0,0,-0.13333333,0,260.85333)" />
    <path
       id="path3"
       d="m 132.223,1798.92 c 11.25,-3.44 19.781,-11.19 25.593,-23.26 5.875,-12.07 8.817,-27.87 8.817,-47.41 0,-24.38 -4.93,-43.08 -14.789,-56.1 -9.793,-13.02 -23.949,-19.53 -42.465,-19.53 -18.5157,0 -32.7032,6.51 -42.5587,19.53 -9.8594,13.02 -14.789,31.72 -14.789,56.1 0,19.54 2.9414,35.34 8.8164,47.41 5.875,12.07 14.4062,19.82 25.5937,23.26 -9.9219,4.26 -17.3476,11.36 -22.2773,21.3 -4.9297,10.06 -7.3907,22.79 -7.3907,38.17 0,22.49 4.4844,39.66 13.4571,51.49 8.9726,11.84 22.0234,17.76 39.1485,17.76 17.062,0 30.078,-5.92 39.055,-17.76 9.035,-11.83 13.554,-29 13.554,-51.49 0,-15.38 -2.496,-28.11 -7.488,-38.17 -4.93,-9.94 -12.355,-17.04 -22.277,-21.3 m -6.918,58.76 c 0,18.71 -1.203,31.55 -3.602,38.53 -2.402,7.1 -6.512,10.65 -12.324,10.65 -5.875,0 -10.0157,-3.55 -12.4181,-10.65 -2.3359,-6.98 -3.5078,-19.82 -3.5078,-38.53 0,-18.58 1.1719,-31.36 3.5078,-38.34 2.4024,-6.87 6.5431,-10.3 12.4181,-10.3 5.879,0 9.984,3.43 12.324,10.3 2.399,6.98 3.602,19.76 3.602,38.34 M 129,1731.27 c 0,21.66 -1.484,36.58 -4.453,44.74 -2.91,8.17 -7.965,12.26 -15.168,12.26 -7.266,0 -12.3556,-4.09 -15.2618,-12.26 -2.9063,-8.16 -4.3594,-23.08 -4.3594,-44.74 0,-21.89 1.4531,-37.05 4.3594,-45.45 2.9726,-8.28 8.0588,-12.43 15.2618,-12.43 7.141,0 12.195,4.15 15.168,12.43 2.969,8.4 4.453,23.56 4.453,45.45"
       style="fill:#e6180a;fill-opacity:1;fill-rule:nonzero;stroke:none"
       transform="matrix(0.13333333,0,0,-0.13333333,0,260.85333)" />
    <path
       id="path4"
       d="m 1227.91,166.418 c -11.25,3.434 -19.78,11.184 -25.59,23.258 -5.88,12.074 -8.82,27.875 -8.82,47.406 0,24.383 4.93,43.082 14.79,56.102 9.8,13.019 23.95,19.531 42.46,19.531 18.52,0 32.71,-6.512 42.57,-19.531 9.85,-13.02 14.78,-31.719 14.78,-56.102 0,-19.531 -2.94,-35.332 -8.81,-47.406 -5.88,-12.074 -14.41,-19.824 -25.59,-23.258 9.92,-4.262 17.34,-11.363 22.27,-21.305 4.93,-10.062 7.39,-22.785 7.39,-38.172 0,-22.4918 -4.48,-39.6519 -13.46,-51.4879 -8.97,-11.8398 -22.02,-17.7578 -39.15,-17.7578 -17.05,0 -30.07,5.918 -39.05,17.7578 -9.03,11.836 -13.55,28.9961 -13.55,51.4879 0,15.387 2.49,28.11 7.49,38.172 4.93,9.942 12.35,17.043 22.27,21.305 m 6.92,-58.77 c 0,-18.6988 1.2,-31.5425 3.6,-38.5269 2.41,-7.1016 6.51,-10.6523 12.32,-10.6523 5.88,0 10.02,3.5507 12.42,10.6523 2.34,6.9844 3.51,19.8281 3.51,38.5269 0,18.586 -1.17,31.368 -3.51,38.352 -2.4,6.863 -6.54,10.297 -12.42,10.297 -5.87,0 -9.98,-3.434 -12.32,-10.297 -2.4,-6.984 -3.6,-19.766 -3.6,-38.352 m -3.7,126.415 c 0,-21.661 1.49,-36.575 4.46,-44.743 2.91,-8.168 7.96,-12.25 15.16,-12.25 7.27,0 12.36,4.082 15.27,12.25 2.9,8.168 4.36,23.082 4.36,44.743 0,21.898 -1.46,37.046 -4.36,45.453 -2.97,8.285 -8.06,12.425 -15.27,12.425 -7.14,0 -12.19,-4.14 -15.16,-12.425 -2.97,-8.407 -4.46,-23.555 -4.46,-45.453"
       style="fill:#e6180a;fill-opacity:1;fill-rule:nonzero;stroke:none"
       transform="matrix(0.13333333,0,0,-0.13333333,0,260.85333)" />
    <path
       id="path5"
       d="m 180.492,1577.24 c -0.078,-37.67 -47.262,-65.1 -61.097,-94.93 -13.993,29.75 -61.2544,56.94 -61.5747,94.61 -0.082,17.75 13.6719,32.22 30.5469,32.22 16.9528,0 30.7888,-14.31 30.7888,-32.06 0,17.83 13.676,32.22 30.547,32.22 16.957,0.09 30.711,-14.31 30.789,-32.06"
       style="fill:#e6180a;fill-opacity:1;fill-rule:nonzero;stroke:none"
       transform="matrix(0.13333333,0,0,-0.13333333,0,260.85333)" />
    <path
       id="path6"
       d="m 1179.64,388.098 c 0.08,37.664 47.26,65.093 61.1,94.922 13.99,-29.747 61.26,-56.938 61.58,-94.602 0.07,-17.754 -13.68,-32.23 -30.55,-32.23 -16.96,0 -30.79,14.316 -30.79,32.07 0,-17.836 -13.68,-32.231 -30.55,-32.231 -16.95,-0.078 -30.71,14.317 -30.79,32.071"
       style="fill:#e6180a;fill-opacity:1;fill-rule:nonzero;stroke:none"
       transform="matrix(0.13333333,0,0,-0.13333333,0,260.85333)" />
    <path
       id="path7"
       d="m 507.988,1728.34 c -0.191,-90.4 -113.429,-156.23 -146.633,-227.82 -33.589,71.39 -147.019,136.65 -147.785,227.05 -0.195,42.61 32.817,77.34 73.317,77.34 40.687,0 73.89,-34.35 73.89,-76.96 0,42.8 32.821,77.35 73.317,77.35 40.691,0.19 73.703,-34.35 73.894,-76.96"
       style="fill:#e6180a;fill-opacity:1;fill-rule:nonzero;stroke:none"
       transform="matrix(0.13333333,0,0,-0.13333333,0,260.85333)" />
    <path
       id="path8"
       d="m 507.988,1295.25 c -0.191,-90.4 -113.429,-156.23 -146.633,-227.82 -33.589,71.4 -147.019,136.65 -147.785,227.05 -0.195,42.61 32.817,77.35 73.317,77.35 40.687,0 73.89,-34.36 73.89,-76.97 0,42.8 32.821,77.35 73.317,77.35 40.691,0.19 73.703,-34.35 73.894,-76.96"
       style="fill:#e6180a;fill-opacity:1;fill-rule:nonzero;stroke:none"
       transform="matrix(0.13333333,0,0,-0.13333333,0,260.85333)" />
    <path
       id="path9"
       d="m 213.57,703.262 c 0.192,90.398 113.43,156.23 146.633,227.82 33.586,-71.398 147.016,-136.652 147.785,-227.051 0.192,-42.609 -32.82,-77.347 -73.316,-77.347 -40.688,0 -73.895,34.355 -73.895,76.964 0,-42.8 -32.816,-77.347 -73.316,-77.347 -40.688,-0.192 -73.699,34.355 -73.891,76.961"
       style="fill:#e6180a;fill-opacity:1;fill-rule:nonzero;stroke:none"
       transform="matrix(0.13333333,0,0,-0.13333333,0,260.85333)" />
    <path
       id="path10"
       d="m 213.57,270.176 c 0.192,90.398 113.43,156.23 146.633,227.82 33.586,-71.398 147.016,-136.652 147.785,-227.051 0.192,-42.609 -32.82,-77.347 -73.316,-77.347 -40.688,0 -73.895,34.355 -73.895,76.961 0,-42.797 -32.816,-77.344 -73.316,-77.344 -40.688,-0.195 -73.699,34.351 -73.891,76.961"
       style="fill:#e6180a;fill-opacity:1;fill-rule:nonzero;stroke:none"
       transform="matrix(0.13333333,0,0,-0.13333333,0,260.85333)" />
    <path
       id="path11"
       d="m 1146.61,1728.34 c -0.2,-90.4 -113.43,-156.23 -146.637,-227.82 -33.586,71.39 -147.016,136.65 -147.785,227.05 -0.192,42.61 32.82,77.34 73.316,77.34 40.691,0 73.894,-34.35 73.894,-76.96 0,42.8 32.822,77.35 73.312,77.35 40.69,0.19 73.7,-34.35 73.9,-76.96"
       style="fill:#e6180a;fill-opacity:1;fill-rule:nonzero;stroke:none"
       transform="matrix(0.13333333,0,0,-0.13333333,0,260.85333)" />
    <path
       id="path12"
       d="m 1146.61,1295.25 c -0.2,-90.4 -113.43,-156.23 -146.637,-227.82 -33.586,71.4 -147.016,136.65 -147.785,227.05 -0.192,42.61 32.82,77.35 73.316,77.35 40.691,0 73.894,-34.36 73.894,-76.97 0,42.8 32.822,77.35 73.312,77.35 40.69,0.19 73.7,-34.35 73.9,-76.96"
       style="fill:#e6180a;fill-opacity:1;fill-rule:nonzero;stroke:none"
       transform="matrix(0.13333333,0,0,-0.13333333,0,260.85333)" />
    <path
       id="path13"
       d="m 852.191,703.262 c 0.196,90.398 113.434,156.23 146.637,227.82 33.582,-71.398 147.012,-136.652 147.782,-227.051 0.19,-42.609 -32.82,-77.347 -73.31,-77.347 -40.69,0 -73.898,34.355 -73.898,76.964 0,-42.8 -32.82,-77.347 -73.316,-77.347 -40.688,-0.192 -73.699,34.355 -73.895,76.961"
       style="fill:#e6180a;fill-opacity:1;fill-rule:nonzero;stroke:none"
       transform="matrix(0.13333333,0,0,-0.13333333,0,260.85333)" />
    <path
       id="path14"
       d="m 852.191,270.176 c 0.196,90.398 113.434,156.23 146.637,227.82 33.582,-71.398 147.012,-136.652 147.782,-227.051 0.19,-42.609 -32.82,-77.347 -73.31,-77.347 -40.69,0 -73.898,34.355 -73.898,76.961 0,-42.797 -32.82,-77.344 -73.316,-77.344 -40.688,-0.195 -73.699,34.351 -73.895,76.961"
       style="fill:#e6180a;fill-opacity:1;fill-rule:nonzero;stroke:none"
       transform="matrix(0.13333333,0,0,-0.13333333,0,260.85333)" />
  </g>
</svg>
