<?xml version="1.0" encoding="UTF-8" standalone="no"?>
<!-- Created with Inkscape (http://www.inkscape.org/) -->

<svg
   version="1.1"
   id="svg1"
   width="180.27953"
   height="260.85278"
   viewBox="0 0 180.27953 260.85278"
   xmlns="http://www.w3.org/2000/svg"
   xmlns:svg="http://www.w3.org/2000/svg">
  <defs
     id="defs1" />
  <g
     id="g1"
     transform="translate(2.796582e-5,0.06350344)">
    <path
       id="path1"
       d="M 9.99609,65.418 C 9.99609,35.1875 34.707,10.4766 64.9375,10.4766 H 1287.24 c 30.15,0 54.86,24.7109 54.86,54.9414 V 1891.94 c 0,30.23 -24.71,54.94 -54.86,54.94 H 64.9375 c -30.2305,0 -54.94141,-24.71 -54.94141,-54.94 V 65.418"
       style="fill:#ffffff;fill-opacity:1;fill-rule:nonzero;stroke:none"
       transform="matrix(0.13333333,0,0,-0.13333333,0,260.85333)" />
    <path
       id="path2"
       d="M 9.99609,65.418 C 9.99609,35.1875 34.707,10.4766 64.9375,10.4766 H 1287.24 c 30.15,0 54.86,24.7109 54.86,54.9414 V 1891.94 c 0,30.23 -24.71,54.94 -54.86,54.94 H 64.9375 c -30.2305,0 -54.94141,-24.71 -54.94141,-54.94 z"
       style="fill:none;stroke:#000000;stroke-width:19.9926;stroke-linecap:butt;stroke-linejoin:miter;stroke-miterlimit:10;stroke-dasharray:none;stroke-opacity:1"
       transform="matrix(0.13333333,0,0,-0.13333333,0,260.85333)" />
    <path
       id="path3"
       d="m 132.223,1798.91 c 11.25,-3.43 19.781,-11.19 25.593,-23.26 5.875,-12.07 8.817,-27.87 8.817,-47.4 0,-24.39 -4.93,-43.09 -14.789,-56.11 -9.793,-13.02 -23.949,-19.53 -42.465,-19.53 -18.5157,0 -32.7032,6.51 -42.5587,19.53 -9.8594,13.02 -14.789,31.72 -14.789,56.11 0,19.53 2.9414,35.33 8.8164,47.4 5.875,12.07 14.4062,19.83 25.5937,23.26 -9.9219,4.26 -17.3476,11.36 -22.2773,21.3 -4.9297,10.07 -7.3907,22.79 -7.3907,38.18 0,22.49 4.4844,39.65 13.4571,51.49 8.9726,11.83 22.0234,17.75 39.1485,17.75 17.062,0 30.078,-5.92 39.055,-17.75 9.035,-11.84 13.554,-29 13.554,-51.49 0,-15.39 -2.496,-28.11 -7.488,-38.18 -4.93,-9.94 -12.355,-17.04 -22.277,-21.3 m -6.918,58.77 c 0,18.7 -1.203,31.54 -3.602,38.52 -2.402,7.1 -6.512,10.66 -12.324,10.66 -5.875,0 -10.0157,-3.56 -12.4181,-10.66 -2.3359,-6.98 -3.5078,-19.82 -3.5078,-38.52 0,-18.59 1.1719,-31.37 3.5078,-38.35 2.4024,-6.87 6.5431,-10.3 12.4181,-10.3 5.879,0 9.984,3.43 12.324,10.3 2.399,6.98 3.602,19.76 3.602,38.35 M 129,1731.27 c 0,21.66 -1.484,36.57 -4.453,44.74 -2.91,8.16 -7.965,12.25 -15.168,12.25 -7.266,0 -12.3556,-4.09 -15.2618,-12.25 -2.9063,-8.17 -4.3594,-23.08 -4.3594,-44.74 0,-21.9 1.4531,-37.06 4.3594,-45.46 2.9726,-8.28 8.0588,-12.43 15.2618,-12.43 7.141,0 12.195,4.15 15.168,12.43 2.969,8.4 4.453,23.56 4.453,45.46"
       style="fill:#e6180a;fill-opacity:1;fill-rule:nonzero;stroke:none"
       transform="matrix(0.13333333,0,0,-0.13333333,0,260.85333)" />
    <path
       id="path4"
       d="m 1227.91,166.418 c -11.25,3.434 -19.78,11.184 -25.59,23.258 -5.88,12.074 -8.82,27.875 -8.82,47.406 0,24.383 4.93,43.082 14.79,56.102 9.8,13.023 23.95,19.531 42.46,19.531 18.52,0 32.71,-6.508 42.57,-19.531 9.85,-13.02 14.78,-31.719 14.78,-56.102 0,-19.531 -2.94,-35.332 -8.81,-47.406 -5.88,-12.074 -14.41,-19.824 -25.59,-23.258 9.92,-4.262 17.34,-11.363 22.27,-21.305 4.93,-10.062 7.39,-22.785 7.39,-38.172 0,-22.4918 -4.48,-39.6519 -13.46,-51.4879 -8.97,-11.8359 -22.02,-17.7539 -39.15,-17.7578 -17.05,0.0039 -30.07,5.9219 -39.05,17.7578 -9.03,11.836 -13.55,28.9961 -13.55,51.4879 0,15.387 2.49,28.11 7.49,38.172 4.93,9.942 12.35,17.043 22.27,21.305 m 6.92,-58.77 c 0,-18.6988 1.2,-31.5425 3.6,-38.5269 2.41,-7.1016 6.51,-10.6523 12.32,-10.6523 5.88,0 10.02,3.5507 12.42,10.6523 2.34,6.9844 3.51,19.8281 3.51,38.5269 0,18.586 -1.17,31.368 -3.51,38.352 -2.4,6.867 -6.54,10.297 -12.42,10.297 -5.87,0 -9.98,-3.43 -12.32,-10.297 -2.4,-6.984 -3.6,-19.766 -3.6,-38.352 m -3.7,126.415 c 0,-21.661 1.49,-36.575 4.46,-44.743 2.91,-8.168 7.96,-12.25 15.16,-12.25 7.27,0 12.36,4.082 15.27,12.25 2.9,8.168 4.36,23.082 4.36,44.743 0,21.898 -1.46,37.046 -4.36,45.453 -2.97,8.285 -8.06,12.425 -15.27,12.425 -7.14,0 -12.19,-4.14 -15.16,-12.425 -2.97,-8.407 -4.46,-23.555 -4.46,-45.453"
       style="fill:#e6180a;fill-opacity:1;fill-rule:nonzero;stroke:none"
       transform="matrix(0.13333333,0,0,-0.13333333,0,260.85333)" />
    <path
       id="path5"
       d="m 119.156,1545.8 c 20.473,0 40.946,0 61.418,0 -6.996,0.31 -12.949,4.84 -18.57,8.58 -12.629,9.53 -24.453,20.45 -33.797,33.23 -4.355,6.43 -8.937,13.66 -9.051,21.69 m 61.418,-63.5 c -8.879,-0.28 -16.457,-5.92 -23.222,-11.14 -11.957,-10.03 -22.305,-21.97 -31.039,-34.9 -3.208,-5.35 -6.981,-11.02 -7.157,-17.46 0,21.17 0,42.33 0,63.5 m 0,-63.5 c -0.304,9.46 -6.062,17.65 -11.5,24.96 -9.6912,12.07 -21.1755,22.76 -33.8122,31.69 -4.9102,3.06 -10.1211,6.7 -16.1055,6.85 20.4726,0 40.9453,0 61.4177,0 m -61.4177,0 c 8.8789,0.28 16.457,5.93 23.2226,11.13 11.9571,10.05 22.3051,21.99 31.0391,34.91 3.207,5.35 6.977,11.02 7.156,17.46 0,-21.17 0,-42.33 0,-63.5"
       style="fill:#e6180a;fill-opacity:1;fill-rule:nonzero;stroke:none"
       transform="matrix(0.13333333,0,0,-0.13333333,0,260.85333)" />
    <path
       id="path6"
       d="m 1240.98,419.523 c -20.47,0 -40.94,0 -61.42,0 6.99,-0.308 12.95,-4.835 18.57,-8.578 12.63,-9.527 24.46,-20.449 33.8,-33.23 4.36,-6.43 8.93,-13.656 9.05,-21.688 m -61.42,63.496 c 8.88,0.282 16.46,5.93 23.23,11.141 11.95,10.035 22.3,21.977 31.03,34.899 3.21,5.351 6.98,11.019 7.16,17.457 0,-21.168 0,-42.329 0,-63.497 m 0,63.497 c 0.3,-9.45 6.06,-17.641 11.5,-24.95 9.69,-12.074 21.18,-22.757 33.81,-31.691 4.91,-3.063 10.12,-6.707 16.1,-6.856 -20.47,0 -40.94,0 -61.41,0 m 61.41,0 c -8.87,-0.277 -16.45,-5.925 -23.22,-11.128 -11.96,-10.047 -22.3,-21.985 -31.03,-34.911 -3.21,-5.347 -6.98,-11.019 -7.16,-17.457 0,21.168 0,42.328 0,63.496"
       style="fill:#e6180a;fill-opacity:1;fill-rule:nonzero;stroke:none"
       transform="matrix(0.13333333,0,0,-0.13333333,0,260.85333)" />
    <path
       id="path7"
       d="m 360.777,1652.9 c 49.133,0 98.27,0 147.403,0 -16.789,0.75 -31.075,11.62 -44.567,20.59 -30.304,22.87 -58.691,49.08 -81.109,79.75 -10.461,15.43 -21.449,32.78 -21.727,52.05 M 508.18,1652.9 c -21.305,-0.67 -39.5,-14.22 -55.739,-26.73 -28.691,-24.09 -53.527,-52.74 -74.484,-83.76 -7.699,-12.84 -16.758,-26.45 -17.18,-41.9 0,50.8 0,101.59 0,152.39 m 0,-152.39 c -0.73,22.69 -14.547,42.34 -27.597,59.88 -23.262,28.99 -50.825,54.63 -81.149,76.06 -11.785,7.35 -24.297,16.1 -38.656,16.45 49.137,0 98.27,0 147.402,0 m -147.402,0 c 21.305,0.67 39.5,14.23 55.738,26.72 28.692,24.11 53.528,52.76 74.489,83.77 7.695,12.84 16.746,26.45 17.175,41.9 0,-50.8 0,-101.58 0,-152.39"
       style="fill:#e6180a;fill-opacity:1;fill-rule:nonzero;stroke:none"
       transform="matrix(0.13333333,0,0,-0.13333333,0,260.85333)" />
    <path
       id="path8"
       d="m 360.777,1219.81 c 49.133,0 98.27,0 147.403,0 -16.789,0.75 -31.075,11.62 -44.567,20.59 -30.304,22.87 -58.691,49.08 -81.109,79.75 -10.461,15.44 -21.449,32.78 -21.727,52.05 M 508.18,1219.81 c -21.305,-0.67 -39.5,-14.22 -55.739,-26.73 -28.691,-24.09 -53.527,-52.74 -74.484,-83.76 -7.699,-12.84 -16.758,-26.45 -17.18,-41.9 0,50.81 0,101.59 0,152.39 m 0,-152.39 c -0.73,22.69 -14.547,42.34 -27.597,59.88 -23.262,28.99 -50.825,54.63 -81.149,76.07 -11.785,7.34 -24.297,16.09 -38.656,16.44 49.137,0 98.27,0 147.402,0 m -147.402,0 c 21.305,0.67 39.5,14.23 55.738,26.72 28.692,24.11 53.528,52.76 74.489,83.78 7.695,12.84 16.746,26.44 17.175,41.89 0,-50.8 0,-101.58 0,-152.39"
       style="fill:#e6180a;fill-opacity:1;fill-rule:nonzero;stroke:none"
       transform="matrix(0.13333333,0,0,-0.13333333,0,260.85333)" />
    <path
       id="path9"
       d="m 360.777,778.699 c -49.132,0 -98.265,0 -147.398,0 16.785,-0.75 31.07,-11.613 44.566,-20.59 30.305,-22.863 58.692,-49.082 81.106,-79.75 10.461,-15.433 21.453,-32.785 21.726,-52.054 M 213.379,778.699 c 21.305,0.672 39.496,14.227 55.734,26.735 28.696,24.086 53.528,52.742 74.489,83.757 7.695,12.84 16.753,26.45 17.175,41.899 0,-50.805 0,-101.59 0,-152.391 m 0,152.391 c 0.731,-22.688 14.551,-42.34 27.602,-59.883 23.262,-28.98 50.82,-54.621 81.148,-76.062 11.782,-7.348 24.297,-16.09 38.653,-16.446 -49.133,0 -98.266,0 -147.403,0 m 147.403,0 c -21.305,-0.672 -39.5,-14.222 -55.735,-26.719 -28.695,-24.105 -53.531,-52.761 -74.488,-83.777 -7.695,-12.84 -16.746,-26.445 -17.18,-41.898 0,50.804 0,101.59 0,152.394"
       style="fill:#e6180a;fill-opacity:1;fill-rule:nonzero;stroke:none"
       transform="matrix(0.13333333,0,0,-0.13333333,0,260.85333)" />
    <path
       id="path10"
       d="m 360.777,345.609 c -49.132,0 -98.265,0 -147.398,0 16.785,-0.75 31.07,-11.613 44.566,-20.589 30.305,-22.864 58.692,-49.082 81.106,-79.75 10.461,-15.434 21.453,-32.782 21.726,-52.051 m -147.398,152.39 c 21.305,0.672 39.496,14.227 55.734,26.735 28.696,24.09 53.528,52.742 74.489,83.758 7.695,12.839 16.753,26.449 17.175,41.898 0,-50.805 0,-101.586 0,-152.391 m 0,152.391 c 0.731,-22.687 14.551,-42.34 27.602,-59.883 23.262,-28.98 50.82,-54.621 81.148,-76.058 11.782,-7.352 24.297,-16.094 38.653,-16.45 -49.133,0 -98.266,0 -147.403,0 m 147.403,0 c -21.305,-0.671 -39.5,-14.222 -55.735,-26.714 -28.695,-24.11 -53.531,-52.762 -74.488,-83.778 -7.695,-12.84 -16.746,-26.449 -17.18,-41.898 0,50.801 0,101.586 0,152.39"
       style="fill:#e6180a;fill-opacity:1;fill-rule:nonzero;stroke:none"
       transform="matrix(0.13333333,0,0,-0.13333333,0,260.85333)" />
    <path
       id="path11"
       d="m 999.398,1652.9 c 49.132,0 98.262,0 147.402,0 -16.79,0.75 -31.07,11.62 -44.57,20.59 -30.3,22.87 -58.69,49.08 -81.1,79.75 -10.47,15.43 -21.454,32.78 -21.732,52.05 M 1146.8,1652.9 c -21.3,-0.67 -39.5,-14.22 -55.74,-26.73 -28.69,-24.09 -53.52,-52.74 -74.49,-83.76 -7.69,-12.84 -16.75,-26.45 -17.172,-41.9 0,50.8 0,101.59 0,152.39 m 0,-152.39 c -0.73,22.69 -14.546,42.34 -27.597,59.88 -23.262,28.99 -50.824,54.63 -81.149,76.06 -11.785,7.35 -24.3,16.1 -38.656,16.45 49.137,0 98.27,0 147.402,0 m -147.402,0 c 21.305,0.67 39.5,14.23 55.738,26.72 28.692,24.11 53.528,52.76 74.489,83.77 7.695,12.84 16.742,26.45 17.175,41.9 0,-50.8 0,-101.58 0,-152.39"
       style="fill:#e6180a;fill-opacity:1;fill-rule:nonzero;stroke:none"
       transform="matrix(0.13333333,0,0,-0.13333333,0,260.85333)" />
    <path
       id="path12"
       d="m 999.398,1219.81 c 49.132,0 98.262,0 147.402,0 -16.79,0.75 -31.07,11.62 -44.57,20.59 -30.3,22.87 -58.69,49.08 -81.1,79.75 -10.47,15.44 -21.454,32.78 -21.732,52.05 M 1146.8,1219.81 c -21.3,-0.67 -39.5,-14.22 -55.74,-26.73 -28.69,-24.09 -53.52,-52.74 -74.49,-83.76 -7.69,-12.84 -16.75,-26.45 -17.172,-41.9 0,50.81 0,101.59 0,152.39 m 0,-152.39 c -0.73,22.69 -14.546,42.34 -27.597,59.88 -23.262,28.99 -50.824,54.63 -81.149,76.07 -11.785,7.34 -24.3,16.09 -38.656,16.44 49.137,0 98.27,0 147.402,0 m -147.402,0 c 21.305,0.67 39.5,14.23 55.738,26.72 28.692,24.11 53.528,52.76 74.489,83.78 7.695,12.84 16.742,26.44 17.175,41.89 0,-50.8 0,-101.58 0,-152.39"
       style="fill:#e6180a;fill-opacity:1;fill-rule:nonzero;stroke:none"
       transform="matrix(0.13333333,0,0,-0.13333333,0,260.85333)" />
    <path
       id="path13"
       d="m 999.402,778.699 c -49.132,0 -98.265,0 -147.402,0 16.789,-0.75 31.074,-11.613 44.566,-20.59 30.305,-22.863 58.692,-49.082 81.11,-79.75 10.461,-15.433 21.449,-32.785 21.726,-52.054 M 852,778.699 c 21.305,0.672 39.5,14.227 55.738,26.735 28.692,24.086 53.528,52.742 74.489,83.757 7.695,12.84 16.753,26.45 17.175,41.899 0,-50.805 0,-101.59 0,-152.391 m 0,152.391 c 0.728,-22.688 14.548,-42.34 27.598,-59.883 23.26,-28.98 50.82,-54.621 81.15,-76.062 11.78,-7.348 24.3,-16.09 38.65,-16.446 -49.13,0 -98.26,0 -147.398,0 m 147.398,0 c -21.3,-0.672 -39.5,-14.222 -55.73,-26.719 -28.69,-24.105 -53.53,-52.761 -74.49,-83.777 -7.7,-12.84 -16.744,-26.445 -17.178,-41.898 0,50.804 0,101.59 0,152.394"
       style="fill:#e6180a;fill-opacity:1;fill-rule:nonzero;stroke:none"
       transform="matrix(0.13333333,0,0,-0.13333333,0,260.85333)" />
    <path
       id="path14"
       d="m 999.402,345.609 c -49.132,0 -98.265,0 -147.402,0 16.789,-0.75 31.074,-11.613 44.566,-20.589 30.305,-22.864 58.692,-49.082 81.11,-79.75 10.461,-15.434 21.449,-32.782 21.726,-52.051 M 852,345.609 c 21.305,0.672 39.5,14.227 55.738,26.735 28.692,24.09 53.528,52.742 74.489,83.758 7.695,12.839 16.753,26.449 17.175,41.898 0,-50.805 0,-101.586 0,-152.391 m 0,152.391 c 0.728,-22.687 14.548,-42.34 27.598,-59.883 23.26,-28.98 50.82,-54.621 81.15,-76.058 11.78,-7.352 24.3,-16.094 38.65,-16.45 -49.13,0 -98.26,0 -147.398,0 m 147.398,0 c -21.3,-0.671 -39.5,-14.222 -55.73,-26.714 -28.69,-24.11 -53.53,-52.762 -74.49,-83.778 -7.7,-12.84 -16.744,-26.449 -17.178,-41.898 0,50.801 0,101.586 0,152.39"
       style="fill:#e6180a;fill-opacity:1;fill-rule:nonzero;stroke:none"
       transform="matrix(0.13333333,0,0,-0.13333333,0,260.85333)" />
  </g>
</svg>
