<?xml version="1.0" encoding="UTF-8" standalone="no"?>
<!-- Created with Inkscape (http://www.inkscape.org/) -->

<svg
   version="1.1"
   id="svg1"
   width="180.27953"
   height="260.85278"
   viewBox="0 0 180.27953 260.85278"
   xmlns="http://www.w3.org/2000/svg"
   xmlns:svg="http://www.w3.org/2000/svg">
  <defs
     id="defs1" />
  <g
     id="g1"
     transform="translate(2.796582e-5,0.06350344)">
    <path
       id="path1"
       d="M 9.99609,65.418 C 9.99609,35.1875 34.707,10.4766 64.9375,10.4766 H 1287.24 c 30.15,0 54.86,24.7109 54.86,54.9414 V 1891.94 c 0,30.22 -24.71,54.94 -54.86,54.94 H 64.9375 c -30.2305,0 -54.94141,-24.72 -54.94141,-54.94 V 65.418"
       style="fill:#ffffff;fill-opacity:1;fill-rule:nonzero;stroke:none"
       transform="matrix(0.13333333,0,0,-0.13333333,0,260.85333)" />
    <path
       id="path2"
       d="M 9.99609,65.418 C 9.99609,35.1875 34.707,10.4766 64.9375,10.4766 H 1287.24 c 30.15,0 54.86,24.7109 54.86,54.9414 V 1891.94 c 0,30.22 -24.71,54.94 -54.86,54.94 H 64.9375 c -30.2305,0 -54.94141,-24.72 -54.94141,-54.94 z"
       style="fill:none;stroke:#000000;stroke-width:19.9926;stroke-linecap:butt;stroke-linejoin:miter;stroke-miterlimit:10;stroke-dasharray:none;stroke-opacity:1"
       transform="matrix(0.13333333,0,0,-0.13333333,0,260.85333)" />
    <path
       id="path3"
       d="m 132.223,1798.91 c 11.25,-3.43 19.781,-11.19 25.593,-23.26 5.875,-12.07 8.817,-27.87 8.817,-47.4 0,-24.39 -4.93,-43.09 -14.789,-56.11 -9.793,-13.02 -23.949,-19.53 -42.465,-19.53 -18.5157,0 -32.7032,6.51 -42.5587,19.53 -9.8594,13.02 -14.789,31.72 -14.789,56.11 0,19.53 2.9414,35.33 8.8164,47.4 5.875,12.07 14.4062,19.83 25.5937,23.26 -9.9219,4.26 -17.3476,11.36 -22.2773,21.3 -4.9297,10.07 -7.3907,22.79 -7.3907,38.18 0,22.49 4.4844,39.65 13.4571,51.49 8.9726,11.83 22.0234,17.75 39.1485,17.75 17.062,0 30.078,-5.92 39.055,-17.75 9.035,-11.84 13.554,-29 13.554,-51.49 0,-15.39 -2.496,-28.11 -7.488,-38.18 -4.93,-9.94 -12.355,-17.04 -22.277,-21.3 m -6.918,58.77 c 0,18.7 -1.203,31.54 -3.602,38.52 -2.402,7.1 -6.512,10.66 -12.324,10.66 -5.875,0 -10.0157,-3.56 -12.4181,-10.66 -2.3359,-6.98 -3.5078,-19.82 -3.5078,-38.52 0,-18.59 1.1719,-31.37 3.5078,-38.35 2.4024,-6.87 6.5431,-10.3 12.4181,-10.3 5.879,0 9.984,3.43 12.324,10.3 2.399,6.98 3.602,19.76 3.602,38.35 M 129,1731.27 c 0,21.66 -1.484,36.57 -4.453,44.73 -2.91,8.17 -7.965,12.26 -15.168,12.26 -7.266,0 -12.3556,-4.09 -15.2618,-12.26 -2.9063,-8.16 -4.3594,-23.07 -4.3594,-44.73 0,-21.9 1.4531,-37.06 4.3594,-45.46 2.9726,-8.28 8.0588,-12.43 15.2618,-12.43 7.141,0 12.195,4.15 15.168,12.43 2.969,8.4 4.453,23.56 4.453,45.46"
       style="fill:#000000;fill-opacity:1;fill-rule:nonzero;stroke:none"
       transform="matrix(0.13333333,0,0,-0.13333333,0,260.85333)" />
    <path
       id="path4"
       d="m 1227.91,166.418 c -11.25,3.434 -19.78,11.184 -25.59,23.258 -5.88,12.074 -8.82,27.875 -8.82,47.406 0,24.383 4.93,43.082 14.79,56.102 9.8,13.023 23.95,19.531 42.46,19.531 18.52,0 32.71,-6.508 42.57,-19.531 9.85,-13.02 14.78,-31.719 14.78,-56.102 0,-19.531 -2.94,-35.332 -8.81,-47.406 -5.88,-12.074 -14.41,-19.824 -25.59,-23.258 9.92,-4.262 17.34,-11.363 22.27,-21.305 4.93,-10.062 7.39,-22.785 7.39,-38.172 0,-22.4918 -4.48,-39.6519 -13.46,-51.4879 -8.97,-11.8398 -22.02,-17.7578 -39.15,-17.7578 -17.05,0 -30.07,5.918 -39.05,17.7578 -9.03,11.836 -13.55,28.9961 -13.55,51.4879 0,15.387 2.49,28.11 7.49,38.172 4.93,9.942 12.35,17.043 22.27,21.305 m 6.92,-58.77 c 0,-18.6988 1.2,-31.5425 3.6,-38.5269 2.41,-7.1016 6.51,-10.6523 12.32,-10.6523 5.88,0 10.02,3.5507 12.42,10.6523 2.34,6.9844 3.51,19.8281 3.51,38.5269 0,18.586 -1.17,31.368 -3.51,38.352 -2.4,6.863 -6.54,10.297 -12.42,10.297 -5.87,0 -9.98,-3.434 -12.32,-10.297 -2.4,-6.984 -3.6,-19.766 -3.6,-38.352 m -3.7,126.415 c 0,-21.661 1.49,-36.575 4.46,-44.743 2.91,-8.168 7.96,-12.25 15.16,-12.25 7.27,0 12.36,4.082 15.27,12.25 2.9,8.168 4.36,23.082 4.36,44.743 0,21.898 -1.46,37.046 -4.36,45.453 -2.97,8.285 -8.06,12.425 -15.27,12.425 -7.14,0 -12.19,-4.14 -15.16,-12.425 -2.97,-8.407 -4.46,-23.555 -4.46,-45.453"
       style="fill:#000000;fill-opacity:1;fill-rule:nonzero;stroke:none"
       transform="matrix(0.13333333,0,0,-0.13333333,0,260.85333)" />
    <path
       id="path5"
       d="m 87.8086,1482.39 c 13.3554,0 20.3904,14.23 24.0704,28.47 3.68,14.23 4,28.46 4,28.46 l 6.797,0.09 c 0,0 1.277,-57.02 27.988,-57.02 H 87.8086"
       style="fill:#000000;fill-opacity:1;fill-rule:nonzero;stroke:none"
       transform="matrix(0.13333333,0,0,-0.13333333,0,260.85333)" />
    <path
       id="path6"
       d="m 65.1758,1539.41 c 0.082,27.74 41.7462,47.89 53.9802,69.81 12.235,-21.99 53.899,-42.15 53.981,-69.81 0,-13.12 -12.074,-23.76 -27.032,-23.76 -14.875,0 -26.949,10.64 -26.949,23.76 0,-13.12 -12.074,-23.76 -27.031,-23.76 -14.9531,0 -26.9492,10.64 -26.9492,23.76"
       style="fill:#000000;fill-opacity:1;fill-rule:nonzero;stroke:none"
       transform="matrix(0.13333333,0,0,-0.13333333,0,260.85333)" />
    <path
       id="path7"
       d="m 1272.33,482.941 c -13.36,0 -20.4,-14.234 -24.08,-28.468 -3.67,-14.235 -3.99,-28.469 -3.99,-28.469 l -6.8,-0.082 c 0,0 -1.28,57.019 -27.99,57.019 h 62.86"
       style="fill:#000000;fill-opacity:1;fill-rule:nonzero;stroke:none"
       transform="matrix(0.13333333,0,0,-0.13333333,0,260.85333)" />
    <path
       id="path8"
       d="m 1294.96,425.922 c -0.08,-27.75 -41.75,-47.902 -53.98,-69.813 -12.24,21.993 -53.9,42.145 -53.98,69.813 0,13.117 12.07,23.75 27.03,23.75 14.87,0 26.95,-10.633 26.95,-23.75 0,13.117 12.07,23.75 27.03,23.75 14.95,0 26.95,-10.633 26.95,-23.75"
       style="fill:#000000;fill-opacity:1;fill-rule:nonzero;stroke:none"
       transform="matrix(0.13333333,0,0,-0.13333333,0,260.85333)" />
    <path
       id="path9"
       d="m 285.543,1500.71 c 32.051,0 48.941,34.17 57.77,68.33 8.828,34.16 9.597,68.32 9.597,68.32 l 16.313,0.2 c 0,0 3.07,-136.85 67.175,-136.85 H 285.543"
       style="fill:#000000;fill-opacity:1;fill-rule:nonzero;stroke:none"
       transform="matrix(0.13333333,0,0,-0.13333333,0,260.85333)" />
    <path
       id="path10"
       d="m 231.227,1637.56 c 0.191,66.6 100.187,114.96 129.55,167.55 29.368,-52.78 129.36,-101.15 129.551,-167.55 0,-31.48 -28.98,-57.01 -64.871,-57.01 -35.699,0 -64.68,25.53 -64.68,57.01 0,-31.48 -28.98,-57.01 -64.871,-57.01 -35.89,0 -64.679,25.53 -64.679,57.01"
       style="fill:#000000;fill-opacity:1;fill-rule:nonzero;stroke:none"
       transform="matrix(0.13333333,0,0,-0.13333333,0,260.85333)" />
    <path
       id="path11"
       d="m 285.543,1067.63 c 32.051,0 48.941,34.16 57.77,68.32 8.828,34.16 9.597,68.33 9.597,68.33 l 16.313,0.19 c 0,0 3.07,-136.84 67.175,-136.84 H 285.543"
       style="fill:#000000;fill-opacity:1;fill-rule:nonzero;stroke:none"
       transform="matrix(0.13333333,0,0,-0.13333333,0,260.85333)" />
    <path
       id="path12"
       d="m 231.227,1204.47 c 0.191,66.6 100.187,114.96 129.55,167.55 29.368,-52.78 129.36,-101.14 129.551,-167.55 0,-31.48 -28.98,-57 -64.871,-57 -35.699,0 -64.68,25.52 -64.68,57 0,-31.48 -28.98,-57 -64.871,-57 -35.89,0 -64.679,25.52 -64.679,57"
       style="fill:#000000;fill-opacity:1;fill-rule:nonzero;stroke:none"
       transform="matrix(0.13333333,0,0,-0.13333333,0,260.85333)" />
    <path
       id="path13"
       d="m 436.016,930.895 c -32.055,0 -48.942,-34.165 -57.77,-68.329 -8.832,-34.164 -9.598,-68.328 -9.598,-68.328 l -16.316,-0.191 c 0,0 -3.07,136.848 -67.172,136.848 h 150.856"
       style="fill:#000000;fill-opacity:1;fill-rule:nonzero;stroke:none"
       transform="matrix(0.13333333,0,0,-0.13333333,0,260.85333)" />
    <path
       id="path14"
       d="M 490.332,794.047 C 490.141,727.449 390.145,679.082 360.777,626.492 c -29.363,52.781 -129.359,101.149 -129.55,167.555 0,31.476 28.98,57.004 64.871,57.004 35.699,0 64.679,-25.528 64.679,-57.004 0,31.476 28.985,57.004 64.875,57.004 35.891,0 64.68,-25.528 64.68,-57.004"
       style="fill:#000000;fill-opacity:1;fill-rule:nonzero;stroke:none"
       transform="matrix(0.13333333,0,0,-0.13333333,0,260.85333)" />
    <path
       id="path15"
       d="m 436.016,497.805 c -32.055,0 -48.942,-34.164 -57.77,-68.325 -8.832,-34.164 -9.598,-68.328 -9.598,-68.328 l -16.316,-0.191 c 0,0 -3.07,136.844 -67.172,136.844 h 150.856"
       style="fill:#000000;fill-opacity:1;fill-rule:nonzero;stroke:none"
       transform="matrix(0.13333333,0,0,-0.13333333,0,260.85333)" />
    <path
       id="path16"
       d="M 490.332,360.961 C 490.141,294.359 390.145,245.996 360.777,193.406 c -29.363,52.782 -129.359,101.149 -129.55,167.555 0,31.477 28.98,57.004 64.871,57.004 35.699,0 64.679,-25.527 64.679,-57.004 0,31.477 28.985,57.004 64.875,57.004 35.891,0 64.68,-25.527 64.68,-57.004"
       style="fill:#000000;fill-opacity:1;fill-rule:nonzero;stroke:none"
       transform="matrix(0.13333333,0,0,-0.13333333,0,260.85333)" />
    <path
       id="path17"
       d="m 924.164,1500.71 c 32.051,0 48.941,34.17 57.77,68.33 8.828,34.16 9.593,68.32 9.593,68.32 l 16.313,0.2 c 0,0 3.07,-136.85 67.18,-136.85 H 924.164"
       style="fill:#000000;fill-opacity:1;fill-rule:nonzero;stroke:none"
       transform="matrix(0.13333333,0,0,-0.13333333,0,260.85333)" />
    <path
       id="path18"
       d="m 869.848,1637.56 c 0.191,66.6 100.187,114.96 129.55,167.55 29.362,-52.78 129.362,-101.15 129.552,-167.55 0,-31.48 -28.98,-57.01 -64.87,-57.01 -35.7,0 -64.682,25.53 -64.682,57.01 0,-31.48 -28.98,-57.01 -64.871,-57.01 -35.89,0 -64.679,25.53 -64.679,57.01"
       style="fill:#000000;fill-opacity:1;fill-rule:nonzero;stroke:none"
       transform="matrix(0.13333333,0,0,-0.13333333,0,260.85333)" />
    <path
       id="path19"
       d="m 924.164,1067.63 c 32.051,0 48.941,34.16 57.77,68.32 8.828,34.16 9.593,68.33 9.593,68.33 l 16.313,0.19 c 0,0 3.07,-136.84 67.18,-136.84 H 924.164"
       style="fill:#000000;fill-opacity:1;fill-rule:nonzero;stroke:none"
       transform="matrix(0.13333333,0,0,-0.13333333,0,260.85333)" />
    <path
       id="path20"
       d="m 869.848,1204.47 c 0.191,66.6 100.187,114.96 129.55,167.55 29.362,-52.78 129.362,-101.14 129.552,-167.55 0,-31.48 -28.98,-57 -64.87,-57 -35.7,0 -64.682,25.52 -64.682,57 0,-31.48 -28.98,-57 -64.871,-57 -35.89,0 -64.679,25.52 -64.679,57"
       style="fill:#000000;fill-opacity:1;fill-rule:nonzero;stroke:none"
       transform="matrix(0.13333333,0,0,-0.13333333,0,260.85333)" />
    <path
       id="path21"
       d="m 1074.64,930.895 c -32.05,0 -48.94,-34.165 -57.77,-68.329 -8.83,-34.164 -9.6,-68.328 -9.6,-68.328 l -16.313,-0.191 c 0,0 -3.07,136.848 -67.176,136.848 h 150.859"
       style="fill:#000000;fill-opacity:1;fill-rule:nonzero;stroke:none"
       transform="matrix(0.13333333,0,0,-0.13333333,0,260.85333)" />
    <path
       id="path22"
       d="m 1128.95,794.047 c -0.19,-66.598 -100.18,-114.965 -129.548,-167.555 -29.363,52.781 -129.359,101.149 -129.55,167.555 0,31.476 28.98,57.004 64.871,57.004 35.699,0 64.679,-25.528 64.679,-57.004 0,31.476 28.978,57.004 64.868,57.004 35.89,0 64.68,-25.528 64.68,-57.004"
       style="fill:#000000;fill-opacity:1;fill-rule:nonzero;stroke:none"
       transform="matrix(0.13333333,0,0,-0.13333333,0,260.85333)" />
    <path
       id="path23"
       d="m 1074.64,497.805 c -32.05,0 -48.94,-34.164 -57.77,-68.325 -8.83,-34.164 -9.6,-68.328 -9.6,-68.328 l -16.313,-0.191 c 0,0 -3.07,136.844 -67.176,136.844 h 150.859"
       style="fill:#000000;fill-opacity:1;fill-rule:nonzero;stroke:none"
       transform="matrix(0.13333333,0,0,-0.13333333,0,260.85333)" />
    <path
       id="path24"
       d="m 1128.95,360.961 c -0.19,-66.602 -100.18,-114.965 -129.548,-167.555 -29.363,52.782 -129.359,101.149 -129.55,167.555 0,31.477 28.98,57.004 64.871,57.004 35.699,0 64.679,-25.527 64.679,-57.004 0,31.477 28.978,57.004 64.868,57.004 35.89,0 64.68,-25.527 64.68,-57.004"
       style="fill:#000000;fill-opacity:1;fill-rule:nonzero;stroke:none"
       transform="matrix(0.13333333,0,0,-0.13333333,0,260.85333)" />
  </g>
</svg>
