<?xml version="1.0" encoding="UTF-8" standalone="no"?>
<!-- Created with Inkscape (http://www.inkscape.org/) -->

<svg
   version="1.1"
   id="svg1"
   width="180.27953"
   height="260.85278"
   viewBox="0 0 180.27953 260.85278"
   xmlns="http://www.w3.org/2000/svg"
   xmlns:svg="http://www.w3.org/2000/svg">
  <defs
     id="defs1" />
  <g
     id="g1"
     transform="translate(2.796582e-5,0.06350344)">
    <path
       id="path1"
       d="M 9.99609,65.418 C 9.99609,35.1875 34.707,10.4766 64.9375,10.4766 H 1287.24 c 30.15,0 54.86,24.7109 54.86,54.9414 V 1891.94 c 0,30.22 -24.71,54.94 -54.86,54.94 H 64.9375 c -30.2305,0 -54.94141,-24.72 -54.94141,-54.94 V 65.418"
       style="fill:#ffffff;fill-opacity:1;fill-rule:nonzero;stroke:none"
       transform="matrix(0.13333333,0,0,-0.13333333,0,260.85333)" />
    <path
       id="path2"
       d="M 9.99609,65.418 C 9.99609,35.1875 34.707,10.4766 64.9375,10.4766 H 1287.24 c 30.15,0 54.86,24.7109 54.86,54.9414 V 1891.94 c 0,30.22 -24.71,54.94 -54.86,54.94 H 64.9375 c -30.2305,0 -54.94141,-24.72 -54.94141,-54.94 z"
       style="fill:none;stroke:#000000;stroke-width:19.9926;stroke-linecap:butt;stroke-linejoin:miter;stroke-miterlimit:10;stroke-dasharray:none;stroke-opacity:1"
       transform="matrix(0.13333333,0,0,-0.13333333,0,260.85333)" />
    <path
       id="path3"
       d="m 132.223,1798.91 c 11.25,-3.43 19.781,-11.19 25.593,-23.26 5.875,-12.07 8.817,-27.87 8.817,-47.4 0,-24.39 -4.93,-43.09 -14.789,-56.11 -9.793,-13.02 -23.949,-19.53 -42.465,-19.53 -18.5157,0 -32.7032,6.51 -42.5587,19.53 -9.8594,13.02 -14.789,31.72 -14.789,56.11 0,19.53 2.9414,35.33 8.8164,47.4 5.875,12.07 14.4062,19.83 25.5937,23.26 -9.9219,4.26 -17.3476,11.36 -22.2773,21.3 -4.9297,10.06 -7.3907,22.79 -7.3907,38.18 0,22.49 4.4844,39.65 13.4571,51.49 8.9726,11.83 22.0234,17.75 39.1485,17.75 17.062,0 30.078,-5.92 39.055,-17.75 9.035,-11.84 13.554,-29 13.554,-51.49 0,-15.39 -2.496,-28.12 -7.488,-38.18 -4.93,-9.94 -12.355,-17.04 -22.277,-21.3 m -6.918,58.77 c 0,18.7 -1.203,31.54 -3.602,38.52 -2.402,7.1 -6.512,10.66 -12.324,10.66 -5.875,0 -10.0157,-3.56 -12.4181,-10.66 -2.3359,-6.98 -3.5078,-19.82 -3.5078,-38.52 0,-18.59 1.1719,-31.37 3.5078,-38.35 2.4024,-6.87 6.5431,-10.3 12.4181,-10.3 5.879,0 9.984,3.43 12.324,10.3 2.399,6.98 3.602,19.76 3.602,38.35 M 129,1731.27 c 0,21.66 -1.484,36.57 -4.453,44.73 -2.91,8.17 -7.965,12.26 -15.168,12.26 -7.266,0 -12.3556,-4.09 -15.2618,-12.26 -2.9063,-8.16 -4.3594,-23.07 -4.3594,-44.73 0,-21.9 1.4531,-37.06 4.3594,-45.46 2.9726,-8.28 8.0588,-12.43 15.2618,-12.43 7.141,0 12.195,4.15 15.168,12.43 2.969,8.4 4.453,23.56 4.453,45.46"
       style="fill:#000000;fill-opacity:1;fill-rule:nonzero;stroke:none"
       transform="matrix(0.13333333,0,0,-0.13333333,0,260.85333)" />
    <path
       id="path4"
       d="m 1227.91,166.418 c -11.25,3.434 -19.78,11.184 -25.59,23.258 -5.88,12.074 -8.82,27.875 -8.82,47.406 0,24.383 4.93,43.082 14.79,56.102 9.8,13.019 23.95,19.531 42.46,19.531 18.52,0 32.71,-6.512 42.57,-19.531 9.85,-13.02 14.78,-31.719 14.78,-56.102 0,-19.531 -2.94,-35.332 -8.81,-47.406 -5.88,-12.074 -14.41,-19.824 -25.59,-23.258 9.92,-4.262 17.34,-11.363 22.27,-21.305 4.93,-10.062 7.39,-22.785 7.39,-38.175 0,-22.4888 -4.48,-39.6489 -13.46,-51.4888 -8.97,-11.8359 -22.02,-17.7539 -39.15,-17.7539 -17.05,0 -30.07,5.918 -39.05,17.7539 -9.03,11.8399 -13.55,29 -13.55,51.4888 0,15.39 2.49,28.113 7.49,38.175 4.93,9.942 12.35,17.043 22.27,21.305 m 6.92,-58.77 c 0,-18.6988 1.2,-31.5425 3.6,-38.5269 2.41,-7.1016 6.51,-10.6523 12.32,-10.6523 5.88,0 10.02,3.5507 12.42,10.6523 2.34,6.9844 3.51,19.8281 3.51,38.5269 0,18.586 -1.17,31.368 -3.51,38.352 -2.4,6.863 -6.54,10.297 -12.42,10.297 -5.87,0 -9.98,-3.434 -12.32,-10.297 -2.4,-6.984 -3.6,-19.766 -3.6,-38.352 m -3.7,126.415 c 0,-21.661 1.49,-36.575 4.46,-44.743 2.91,-8.168 7.96,-12.25 15.16,-12.25 7.27,0 12.36,4.082 15.27,12.25 2.9,8.168 4.36,23.082 4.36,44.743 0,21.898 -1.46,37.046 -4.36,45.453 -2.97,8.285 -8.06,12.425 -15.27,12.425 -7.14,0 -12.19,-4.14 -15.16,-12.425 -2.97,-8.407 -4.46,-23.555 -4.46,-45.453"
       style="fill:#000000;fill-opacity:1;fill-rule:nonzero;stroke:none"
       transform="matrix(0.13333333,0,0,-0.13333333,0,260.85333)" />
    <path
       id="path5"
       d="m 92.3672,1583.07 c 0,-14.48 12.0738,-26.23 27.0278,-26.23 14.957,0 27.031,11.75 27.031,26.23 0,14.47 -12.074,26.23 -27.031,26.23 -14.954,0 -27.0278,-11.76 -27.0278,-26.23"
       style="fill:#000000;fill-opacity:1;fill-rule:nonzero;stroke:none"
       transform="matrix(0.13333333,0,0,-0.13333333,0,260.85333)" />
    <path
       id="path6"
       d="m 57.5,1533.41 c 0,-14.48 12.0742,-26.23 27.0273,-26.23 14.9571,0 27.0317,11.75 27.0317,26.23 0,14.47 -12.0746,26.23 -27.0317,26.23 -14.9531,0 -27.0273,-11.76 -27.0273,-26.23"
       style="fill:#000000;fill-opacity:1;fill-rule:nonzero;stroke:none"
       transform="matrix(0.13333333,0,0,-0.13333333,0,260.85333)" />
    <path
       id="path7"
       d="m 126.754,1533.25 c 0,-5.28 1.598,-10.24 4.398,-14.4 4.797,-7.12 13.196,-11.83 22.633,-11.83 14.953,0 27.028,11.75 27.028,26.23 0,14.47 -12.075,26.23 -27.028,26.23 -14.957,0 -27.031,-11.76 -27.031,-26.23"
       style="fill:#000000;fill-opacity:1;fill-rule:nonzero;stroke:none"
       transform="matrix(0.13333333,0,0,-0.13333333,0,260.85333)" />
    <path
       id="path8"
       d="m 87.6484,1482.3 c 13.3556,0 20.3906,10.88 24.0706,21.76 3.679,10.87 4,21.75 4,21.75 h 6.875 c 0,0 1.281,-43.42 27.992,-43.51 H 87.6484"
       style="fill:#000000;fill-opacity:1;fill-rule:nonzero;stroke:none"
       transform="matrix(0.13333333,0,0,-0.13333333,0,260.85333)" />
    <path
       id="path9"
       d="m 137.711,1563.79 c -15.195,-15.19 -15.195,-37.98 -15.195,-37.98 l -6.797,-0.08 c 0,0 0,23.27 -14.797,38.06"
       style="fill:#000000;fill-opacity:1;fill-rule:nonzero;stroke:none"
       transform="matrix(0.13333333,0,0,-0.13333333,0,260.85333)" />
    <path
       id="path10"
       d="m 134.672,1515.01 c -15.195,15.2 -37.9884,15.2 -37.9884,15.2 v 6.79 c 0,0 23.2734,0 38.0664,14.8"
       style="fill:#000000;fill-opacity:1;fill-rule:nonzero;stroke:none"
       transform="matrix(0.13333333,0,0,-0.13333333,0,260.85333)" />
    <path
       id="path11"
       d="m 104.203,1514.93 c 15.192,15.2 37.985,15.2 37.985,15.2 v 6.8 c 0,0 -23.27,0 -38.067,14.79"
       style="fill:#000000;fill-opacity:1;fill-rule:nonzero;stroke:none"
       transform="matrix(0.13333333,0,0,-0.13333333,0,260.85333)" />
    <path
       id="path12"
       d="m 1267.77,382.258 c 0,14.476 -12.08,26.23 -27.03,26.23 -14.95,0 -27.03,-11.754 -27.03,-26.23 0,-14.473 12.08,-26.231 27.03,-26.231 14.95,0 27.03,11.758 27.03,26.231"
       style="fill:#000000;fill-opacity:1;fill-rule:nonzero;stroke:none"
       transform="matrix(0.13333333,0,0,-0.13333333,0,260.85333)" />
    <path
       id="path13"
       d="m 1302.64,431.918 c 0,14.477 -12.08,26.23 -27.03,26.23 -14.96,0 -27.04,-11.753 -27.04,-26.23 0,-14.473 12.08,-26.227 27.04,-26.227 14.95,0 27.03,11.754 27.03,26.227"
       style="fill:#000000;fill-opacity:1;fill-rule:nonzero;stroke:none"
       transform="matrix(0.13333333,0,0,-0.13333333,0,260.85333)" />
    <path
       id="path14"
       d="m 1233.38,432.078 c 0,5.281 -1.6,10.238 -4.4,14.395 -4.8,7.117 -13.19,11.836 -22.63,11.836 -14.95,0 -27.03,-11.754 -27.03,-26.231 0,-14.473 12.08,-26.23 27.03,-26.23 14.95,0 27.03,11.757 27.03,26.23"
       style="fill:#000000;fill-opacity:1;fill-rule:nonzero;stroke:none"
       transform="matrix(0.13333333,0,0,-0.13333333,0,260.85333)" />
    <path
       id="path15"
       d="m 1272.49,483.02 c -13.36,0 -20.4,-10.875 -24.08,-21.75 -3.67,-10.875 -3.99,-21.754 -3.99,-21.754 h -6.88 c 0,0 -1.28,43.425 -27.99,43.504 h 62.94"
       style="fill:#000000;fill-opacity:1;fill-rule:nonzero;stroke:none"
       transform="matrix(0.13333333,0,0,-0.13333333,0,260.85333)" />
    <path
       id="path16"
       d="m 1222.43,401.531 c 15.19,15.196 15.19,37.985 15.19,37.985 l 6.8,0.082 c 0,0 0,-23.274 14.79,-38.067"
       style="fill:#000000;fill-opacity:1;fill-rule:nonzero;stroke:none"
       transform="matrix(0.13333333,0,0,-0.13333333,0,260.85333)" />
    <path
       id="path17"
       d="m 1225.46,450.313 c 15.2,-15.196 37.99,-15.196 37.99,-15.196 v -6.797 c 0,0 -23.27,0 -38.07,-14.793"
       style="fill:#000000;fill-opacity:1;fill-rule:nonzero;stroke:none"
       transform="matrix(0.13333333,0,0,-0.13333333,0,260.85333)" />
    <path
       id="path18"
       d="m 1255.93,450.395 c -15.19,-15.196 -37.98,-15.196 -37.98,-15.196 v -6.797 c 0,0 23.27,0 38.06,-14.797"
       style="fill:#000000;fill-opacity:1;fill-rule:nonzero;stroke:none"
       transform="matrix(0.13333333,0,0,-0.13333333,0,260.85333)" />
    <path
       id="path19"
       d="m 296.48,1742.34 c 0,-34.73 28.985,-62.95 64.875,-62.95 35.891,0 64.872,28.22 64.872,62.95 0,34.74 -28.981,62.96 -64.872,62.96 -35.89,0 -64.875,-28.22 -64.875,-62.96"
       style="fill:#000000;fill-opacity:1;fill-rule:nonzero;stroke:none"
       transform="matrix(0.13333333,0,0,-0.13333333,0,260.85333)" />
    <path
       id="path20"
       d="m 212.801,1623.16 c 0,-34.74 28.98,-62.96 64.871,-62.96 35.891,0 64.871,28.22 64.871,62.96 0,34.73 -28.98,62.95 -64.871,62.95 -35.891,0 -64.871,-28.22 -64.871,-62.95"
       style="fill:#000000;fill-opacity:1;fill-rule:nonzero;stroke:none"
       transform="matrix(0.13333333,0,0,-0.13333333,0,260.85333)" />
    <path
       id="path21"
       d="m 379.012,1622.77 c 0,-12.66 3.84,-24.56 10.554,-34.54 11.516,-17.09 31.668,-28.41 54.317,-28.41 35.89,0 64.871,28.22 64.871,62.95 0,34.74 -28.981,62.96 -64.871,62.96 -35.891,0 -64.871,-28.22 -64.871,-62.96"
       style="fill:#000000;fill-opacity:1;fill-rule:nonzero;stroke:none"
       transform="matrix(0.13333333,0,0,-0.13333333,0,260.85333)" />
    <path
       id="path22"
       d="m 285.156,1500.52 c 32.055,0 48.946,26.1 57.774,52.2 8.828,26.1 9.593,52.2 9.593,52.2 h 16.508 c 0,0 3.071,-104.21 67.176,-104.4 H 285.156"
       style="fill:#000000;fill-opacity:1;fill-rule:nonzero;stroke:none"
       transform="matrix(0.13333333,0,0,-0.13333333,0,260.85333)" />
    <path
       id="path23"
       d="m 405.305,1696.09 c -36.465,-36.46 -36.465,-91.17 -36.465,-91.17 l -16.317,-0.19 c 0,0 0,55.85 -35.503,91.36"
       style="fill:#000000;fill-opacity:1;fill-rule:nonzero;stroke:none"
       transform="matrix(0.13333333,0,0,-0.13333333,0,260.85333)" />
    <path
       id="path24"
       d="m 398.012,1579.01 c -36.465,36.47 -91.164,36.47 -91.164,36.47 v 16.31 c 0,0 55.847,0 91.355,35.51"
       style="fill:#000000;fill-opacity:1;fill-rule:nonzero;stroke:none"
       transform="matrix(0.13333333,0,0,-0.13333333,0,260.85333)" />
    <path
       id="path25"
       d="m 324.887,1578.82 c 36.468,36.47 91.168,36.47 91.168,36.47 v 16.31 c 0,0 -55.852,0 -91.36,35.51"
       style="fill:#000000;fill-opacity:1;fill-rule:nonzero;stroke:none"
       transform="matrix(0.13333333,0,0,-0.13333333,0,260.85333)" />
    <path
       id="path26"
       d="m 296.48,1309.25 c 0,-34.73 28.985,-62.95 64.875,-62.95 35.891,0 64.872,28.22 64.872,62.95 0,34.75 -28.981,62.96 -64.872,62.96 -35.89,0 -64.875,-28.21 -64.875,-62.96"
       style="fill:#000000;fill-opacity:1;fill-rule:nonzero;stroke:none"
       transform="matrix(0.13333333,0,0,-0.13333333,0,260.85333)" />
    <path
       id="path27"
       d="m 212.801,1190.07 c 0,-34.74 28.98,-62.96 64.871,-62.96 35.891,0 64.871,28.22 64.871,62.96 0,34.73 -28.98,62.95 -64.871,62.95 -35.891,0 -64.871,-28.22 -64.871,-62.95"
       style="fill:#000000;fill-opacity:1;fill-rule:nonzero;stroke:none"
       transform="matrix(0.13333333,0,0,-0.13333333,0,260.85333)" />
    <path
       id="path28"
       d="m 379.012,1189.68 c 0,-12.66 3.84,-24.56 10.554,-34.54 11.516,-17.09 31.668,-28.41 54.317,-28.41 35.89,0 64.871,28.22 64.871,62.95 0,34.74 -28.981,62.96 -64.871,62.96 -35.891,0 -64.871,-28.22 -64.871,-62.96"
       style="fill:#000000;fill-opacity:1;fill-rule:nonzero;stroke:none"
       transform="matrix(0.13333333,0,0,-0.13333333,0,260.85333)" />
    <path
       id="path29"
       d="m 285.156,1067.43 c 32.055,0 48.946,26.1 57.774,52.2 8.828,26.1 9.593,52.21 9.593,52.21 h 16.508 c 0,0 3.071,-104.22 67.176,-104.41 H 285.156"
       style="fill:#000000;fill-opacity:1;fill-rule:nonzero;stroke:none"
       transform="matrix(0.13333333,0,0,-0.13333333,0,260.85333)" />
    <path
       id="path30"
       d="m 405.305,1263 c -36.465,-36.46 -36.465,-91.16 -36.465,-91.16 l -16.317,-0.2 c 0,0 0,55.85 -35.503,91.36"
       style="fill:#000000;fill-opacity:1;fill-rule:nonzero;stroke:none"
       transform="matrix(0.13333333,0,0,-0.13333333,0,260.85333)" />
    <path
       id="path31"
       d="m 398.012,1145.93 c -36.465,36.46 -91.164,36.46 -91.164,36.46 v 16.31 c 0,0 55.847,0 91.355,35.51"
       style="fill:#000000;fill-opacity:1;fill-rule:nonzero;stroke:none"
       transform="matrix(0.13333333,0,0,-0.13333333,0,260.85333)" />
    <path
       id="path32"
       d="m 324.887,1145.73 c 36.468,36.47 91.168,36.47 91.168,36.47 v 16.31 c 0,0 -55.852,0 -91.36,35.51"
       style="fill:#000000;fill-opacity:1;fill-rule:nonzero;stroke:none"
       transform="matrix(0.13333333,0,0,-0.13333333,0,260.85333)" />
    <path
       id="path33"
       d="m 425.074,689.262 c 0,34.738 -28.98,62.953 -64.871,62.953 -35.89,0 -64.871,-28.215 -64.871,-62.953 0,-34.739 28.981,-62.953 64.871,-62.953 35.891,0 64.871,28.214 64.871,62.953"
       style="fill:#000000;fill-opacity:1;fill-rule:nonzero;stroke:none"
       transform="matrix(0.13333333,0,0,-0.13333333,0,260.85333)" />
    <path
       id="path34"
       d="m 508.754,808.449 c 0,34.742 -28.981,62.953 -64.871,62.953 -35.891,0 -64.871,-28.211 -64.871,-62.953 0,-34.738 28.98,-62.953 64.871,-62.953 35.89,0 64.871,28.215 64.871,62.953"
       style="fill:#000000;fill-opacity:1;fill-rule:nonzero;stroke:none"
       transform="matrix(0.13333333,0,0,-0.13333333,0,260.85333)" />
    <path
       id="path35"
       d="m 342.547,808.836 c 0,12.664 -3.84,24.566 -10.559,34.547 -11.515,17.082 -31.668,28.402 -54.316,28.402 -35.891,0 -64.871,-28.211 -64.871,-62.949 0,-34.742 28.98,-62.953 64.871,-62.953 35.891,0 64.875,28.211 64.875,62.953"
       style="fill:#000000;fill-opacity:1;fill-rule:nonzero;stroke:none"
       transform="matrix(0.13333333,0,0,-0.13333333,0,260.85333)" />
    <path
       id="path36"
       d="m 436.398,931.094 c -32.05,0 -48.941,-26.102 -57.769,-52.207 -8.828,-26.102 -9.598,-52.203 -9.598,-52.203 h -16.504 c 0,0 -3.074,104.218 -67.175,104.41 h 151.046"
       style="fill:#000000;fill-opacity:1;fill-rule:nonzero;stroke:none"
       transform="matrix(0.13333333,0,0,-0.13333333,0,260.85333)" />
    <path
       id="path37"
       d="m 316.25,735.52 c 36.469,36.464 36.469,91.164 36.469,91.164 l 16.312,0.191 c 0,0 0,-55.852 35.508,-91.355"
       style="fill:#000000;fill-opacity:1;fill-rule:nonzero;stroke:none"
       transform="matrix(0.13333333,0,0,-0.13333333,0,260.85333)" />
    <path
       id="path38"
       d="m 323.543,852.594 c 36.469,-36.465 91.168,-36.465 91.168,-36.465 v -16.316 c 0,0 -55.852,0 -91.359,-35.504"
       style="fill:#000000;fill-opacity:1;fill-rule:nonzero;stroke:none"
       transform="matrix(0.13333333,0,0,-0.13333333,0,260.85333)" />
    <path
       id="path39"
       d="M 396.668,852.785 C 360.203,816.32 305.504,816.32 305.504,816.32 v -16.316 c 0,0 55.851,0 91.359,-35.504"
       style="fill:#000000;fill-opacity:1;fill-rule:nonzero;stroke:none"
       transform="matrix(0.13333333,0,0,-0.13333333,0,260.85333)" />
    <path
       id="path40"
       d="m 425.074,256.176 c 0,34.738 -28.98,62.949 -64.871,62.949 -35.89,0 -64.871,-28.211 -64.871,-62.949 0,-34.742 28.981,-62.953 64.871,-62.953 35.891,0 64.871,28.211 64.871,62.953"
       style="fill:#000000;fill-opacity:1;fill-rule:nonzero;stroke:none"
       transform="matrix(0.13333333,0,0,-0.13333333,0,260.85333)" />
    <path
       id="path41"
       d="m 508.754,375.363 c 0,34.739 -28.981,62.95 -64.871,62.95 -35.891,0 -64.871,-28.211 -64.871,-62.95 0,-34.742 28.98,-62.953 64.871,-62.953 35.89,0 64.871,28.211 64.871,62.953"
       style="fill:#000000;fill-opacity:1;fill-rule:nonzero;stroke:none"
       transform="matrix(0.13333333,0,0,-0.13333333,0,260.85333)" />
    <path
       id="path42"
       d="m 342.547,375.746 c 0,12.668 -3.84,24.567 -10.559,34.547 -11.515,17.082 -31.668,28.406 -54.316,28.406 -35.891,0 -64.871,-28.215 -64.871,-62.953 0,-34.738 28.98,-62.953 64.871,-62.953 35.891,0 64.875,28.215 64.875,62.953"
       style="fill:#000000;fill-opacity:1;fill-rule:nonzero;stroke:none"
       transform="matrix(0.13333333,0,0,-0.13333333,0,260.85333)" />
    <path
       id="path43"
       d="m 436.398,498.004 c -32.05,0 -48.941,-26.102 -57.769,-52.203 -8.828,-26.106 -9.598,-52.207 -9.598,-52.207 h -16.504 c 0,0 -3.074,104.219 -67.175,104.41 h 151.046"
       style="fill:#000000;fill-opacity:1;fill-rule:nonzero;stroke:none"
       transform="matrix(0.13333333,0,0,-0.13333333,0,260.85333)" />
    <path
       id="path44"
       d="m 316.25,302.43 c 36.469,36.465 36.469,91.164 36.469,91.164 l 16.312,0.191 c 0,0 0,-55.851 35.508,-91.355"
       style="fill:#000000;fill-opacity:1;fill-rule:nonzero;stroke:none"
       transform="matrix(0.13333333,0,0,-0.13333333,0,260.85333)" />
    <path
       id="path45"
       d="m 323.543,419.504 c 36.469,-36.465 91.168,-36.465 91.168,-36.465 v -16.312 c 0,0 -55.852,0 -91.359,-35.508"
       style="fill:#000000;fill-opacity:1;fill-rule:nonzero;stroke:none"
       transform="matrix(0.13333333,0,0,-0.13333333,0,260.85333)" />
    <path
       id="path46"
       d="M 396.668,419.695 C 360.203,383.23 305.504,383.23 305.504,383.23 v -16.312 c 0,0 55.851,0 91.359,-35.508"
       style="fill:#000000;fill-opacity:1;fill-rule:nonzero;stroke:none"
       transform="matrix(0.13333333,0,0,-0.13333333,0,260.85333)" />
    <path
       id="path47"
       d="m 935.102,1742.34 c 0,-34.73 28.98,-62.95 64.871,-62.95 35.887,0 64.877,28.22 64.877,62.95 0,34.74 -28.99,62.96 -64.877,62.96 -35.891,0 -64.871,-28.22 -64.871,-62.96"
       style="fill:#000000;fill-opacity:1;fill-rule:nonzero;stroke:none"
       transform="matrix(0.13333333,0,0,-0.13333333,0,260.85333)" />
    <path
       id="path48"
       d="m 851.422,1623.16 c 0,-34.74 28.98,-62.96 64.871,-62.96 35.891,0 64.871,28.22 64.871,62.96 0,34.73 -28.98,62.95 -64.871,62.95 -35.891,0 -64.871,-28.22 -64.871,-62.95"
       style="fill:#000000;fill-opacity:1;fill-rule:nonzero;stroke:none"
       transform="matrix(0.13333333,0,0,-0.13333333,0,260.85333)" />
    <path
       id="path49"
       d="m 1017.63,1622.77 c 0,-12.66 3.84,-24.56 10.56,-34.54 11.51,-17.09 31.67,-28.41 54.31,-28.41 35.89,0 64.88,28.22 64.88,62.95 0,34.74 -28.99,62.96 -64.88,62.96 -35.89,0 -64.87,-28.22 -64.87,-62.96"
       style="fill:#000000;fill-opacity:1;fill-rule:nonzero;stroke:none"
       transform="matrix(0.13333333,0,0,-0.13333333,0,260.85333)" />
    <path
       id="path50"
       d="m 923.777,1500.52 c 32.055,0 48.942,26.1 57.774,52.2 8.828,26.1 9.594,52.2 9.594,52.2 h 16.505 c 0,0 3.07,-104.21 67.18,-104.4 H 923.777"
       style="fill:#000000;fill-opacity:1;fill-rule:nonzero;stroke:none"
       transform="matrix(0.13333333,0,0,-0.13333333,0,260.85333)" />
    <path
       id="path51"
       d="m 1043.93,1696.09 c -36.47,-36.46 -36.47,-91.17 -36.47,-91.17 l -16.315,-0.19 c 0,0 0,55.85 -35.508,91.36"
       style="fill:#000000;fill-opacity:1;fill-rule:nonzero;stroke:none"
       transform="matrix(0.13333333,0,0,-0.13333333,0,260.85333)" />
    <path
       id="path52"
       d="m 1036.63,1579.01 c -36.46,36.47 -91.165,36.47 -91.165,36.47 v 16.31 c 0,0 55.855,0 91.355,35.51"
       style="fill:#000000;fill-opacity:1;fill-rule:nonzero;stroke:none"
       transform="matrix(0.13333333,0,0,-0.13333333,0,260.85333)" />
    <path
       id="path53"
       d="m 963.508,1578.82 c 36.465,36.47 91.162,36.47 91.162,36.47 v 16.31 c 0,0 -55.846,0 -91.354,35.51"
       style="fill:#000000;fill-opacity:1;fill-rule:nonzero;stroke:none"
       transform="matrix(0.13333333,0,0,-0.13333333,0,260.85333)" />
    <path
       id="path54"
       d="m 935.102,1309.25 c 0,-34.73 28.98,-62.95 64.871,-62.95 35.887,0 64.877,28.22 64.877,62.95 0,34.75 -28.99,62.96 -64.877,62.96 -35.891,0 -64.871,-28.21 -64.871,-62.96"
       style="fill:#000000;fill-opacity:1;fill-rule:nonzero;stroke:none"
       transform="matrix(0.13333333,0,0,-0.13333333,0,260.85333)" />
    <path
       id="path55"
       d="m 851.422,1190.07 c 0,-34.74 28.98,-62.96 64.871,-62.96 35.891,0 64.871,28.22 64.871,62.96 0,34.73 -28.98,62.95 -64.871,62.95 -35.891,0 -64.871,-28.22 -64.871,-62.95"
       style="fill:#000000;fill-opacity:1;fill-rule:nonzero;stroke:none"
       transform="matrix(0.13333333,0,0,-0.13333333,0,260.85333)" />
    <path
       id="path56"
       d="m 1017.63,1189.68 c 0,-12.66 3.84,-24.56 10.56,-34.54 11.51,-17.09 31.67,-28.41 54.31,-28.41 35.89,0 64.88,28.22 64.88,62.95 0,34.74 -28.99,62.96 -64.88,62.96 -35.89,0 -64.87,-28.22 -64.87,-62.96"
       style="fill:#000000;fill-opacity:1;fill-rule:nonzero;stroke:none"
       transform="matrix(0.13333333,0,0,-0.13333333,0,260.85333)" />
    <path
       id="path57"
       d="m 923.777,1067.43 c 32.055,0 48.942,26.1 57.774,52.2 8.828,26.1 9.594,52.21 9.594,52.21 h 16.505 c 0,0 3.07,-104.22 67.18,-104.41 H 923.777"
       style="fill:#000000;fill-opacity:1;fill-rule:nonzero;stroke:none"
       transform="matrix(0.13333333,0,0,-0.13333333,0,260.85333)" />
    <path
       id="path58"
       d="m 1043.93,1263 c -36.47,-36.46 -36.47,-91.16 -36.47,-91.16 l -16.315,-0.2 c 0,0 0,55.85 -35.508,91.36"
       style="fill:#000000;fill-opacity:1;fill-rule:nonzero;stroke:none"
       transform="matrix(0.13333333,0,0,-0.13333333,0,260.85333)" />
    <path
       id="path59"
       d="m 1036.63,1145.93 c -36.46,36.46 -91.165,36.46 -91.165,36.46 v 16.31 c 0,0 55.855,0 91.355,35.51"
       style="fill:#000000;fill-opacity:1;fill-rule:nonzero;stroke:none"
       transform="matrix(0.13333333,0,0,-0.13333333,0,260.85333)" />
    <path
       id="path60"
       d="m 963.508,1145.73 c 36.465,36.47 91.162,36.47 91.162,36.47 v 16.31 c 0,0 -55.846,0 -91.354,35.51"
       style="fill:#000000;fill-opacity:1;fill-rule:nonzero;stroke:none"
       transform="matrix(0.13333333,0,0,-0.13333333,0,260.85333)" />
    <path
       id="path61"
       d="m 1063.7,689.262 c 0,34.738 -28.98,62.953 -64.872,62.953 -35.89,0 -64.875,-28.215 -64.875,-62.953 0,-34.739 28.985,-62.953 64.875,-62.953 35.892,0 64.872,28.214 64.872,62.953"
       style="fill:#000000;fill-opacity:1;fill-rule:nonzero;stroke:none"
       transform="matrix(0.13333333,0,0,-0.13333333,0,260.85333)" />
    <path
       id="path62"
       d="m 1147.38,808.449 c 0,34.742 -28.98,62.953 -64.87,62.953 -35.89,0 -64.87,-28.211 -64.87,-62.953 0,-34.738 28.98,-62.953 64.87,-62.953 35.89,0 64.87,28.215 64.87,62.953"
       style="fill:#000000;fill-opacity:1;fill-rule:nonzero;stroke:none"
       transform="matrix(0.13333333,0,0,-0.13333333,0,260.85333)" />
    <path
       id="path63"
       d="m 981.168,808.836 c 0,12.664 -3.836,24.566 -10.555,34.547 -11.515,17.082 -31.668,28.402 -54.316,28.402 -35.891,0 -64.871,-28.211 -64.871,-62.949 0,-34.742 28.98,-62.953 64.871,-62.953 35.891,0 64.871,28.211 64.871,62.953"
       style="fill:#000000;fill-opacity:1;fill-rule:nonzero;stroke:none"
       transform="matrix(0.13333333,0,0,-0.13333333,0,260.85333)" />
    <path
       id="path64"
       d="m 1075.02,931.094 c -32.05,0 -48.94,-26.102 -57.77,-52.207 -8.83,-26.102 -9.59,-52.203 -9.59,-52.203 h -16.512 c 0,0 -3.07,104.218 -67.175,104.41 h 151.047"
       style="fill:#000000;fill-opacity:1;fill-rule:nonzero;stroke:none"
       transform="matrix(0.13333333,0,0,-0.13333333,0,260.85333)" />
    <path
       id="path65"
       d="m 954.875,735.52 c 36.465,36.464 36.465,91.164 36.465,91.164 l 16.32,0.191 c 0,0 0,-55.852 35.5,-91.355"
       style="fill:#000000;fill-opacity:1;fill-rule:nonzero;stroke:none"
       transform="matrix(0.13333333,0,0,-0.13333333,0,260.85333)" />
    <path
       id="path66"
       d="m 962.168,852.594 c 36.469,-36.465 91.172,-36.465 91.172,-36.465 v -16.316 c 0,0 -55.856,0 -91.363,-35.504"
       style="fill:#000000;fill-opacity:1;fill-rule:nonzero;stroke:none"
       transform="matrix(0.13333333,0,0,-0.13333333,0,260.85333)" />
    <path
       id="path67"
       d="M 1035.29,852.785 C 998.828,816.32 944.129,816.32 944.129,816.32 v -16.316 c 0,0 55.848,0 91.351,-35.504"
       style="fill:#000000;fill-opacity:1;fill-rule:nonzero;stroke:none"
       transform="matrix(0.13333333,0,0,-0.13333333,0,260.85333)" />
    <path
       id="path68"
       d="m 1063.7,256.176 c 0,34.738 -28.98,62.949 -64.872,62.949 -35.89,0 -64.875,-28.211 -64.875,-62.949 0,-34.742 28.985,-62.953 64.875,-62.953 35.892,0 64.872,28.211 64.872,62.953"
       style="fill:#000000;fill-opacity:1;fill-rule:nonzero;stroke:none"
       transform="matrix(0.13333333,0,0,-0.13333333,0,260.85333)" />
    <path
       id="path69"
       d="m 1147.38,375.363 c 0,34.739 -28.98,62.95 -64.87,62.95 -35.89,0 -64.87,-28.211 -64.87,-62.95 0,-34.742 28.98,-62.953 64.87,-62.953 35.89,0 64.87,28.211 64.87,62.953"
       style="fill:#000000;fill-opacity:1;fill-rule:nonzero;stroke:none"
       transform="matrix(0.13333333,0,0,-0.13333333,0,260.85333)" />
    <path
       id="path70"
       d="m 981.168,375.746 c 0,12.668 -3.836,24.567 -10.555,34.547 -11.515,17.082 -31.668,28.406 -54.316,28.406 -35.891,0 -64.871,-28.215 -64.871,-62.953 0,-34.738 28.98,-62.953 64.871,-62.953 35.891,0 64.871,28.215 64.871,62.953"
       style="fill:#000000;fill-opacity:1;fill-rule:nonzero;stroke:none"
       transform="matrix(0.13333333,0,0,-0.13333333,0,260.85333)" />
    <path
       id="path71"
       d="m 1075.02,498.004 c -32.05,0 -48.94,-26.102 -57.77,-52.203 -8.83,-26.106 -9.59,-52.207 -9.59,-52.207 h -16.512 c 0,0 -3.07,104.219 -67.175,104.41 h 151.047"
       style="fill:#000000;fill-opacity:1;fill-rule:nonzero;stroke:none"
       transform="matrix(0.13333333,0,0,-0.13333333,0,260.85333)" />
    <path
       id="path72"
       d="m 954.875,302.43 c 36.465,36.465 36.465,91.164 36.465,91.164 l 16.32,0.191 c 0,0 0,-55.851 35.5,-91.355"
       style="fill:#000000;fill-opacity:1;fill-rule:nonzero;stroke:none"
       transform="matrix(0.13333333,0,0,-0.13333333,0,260.85333)" />
    <path
       id="path73"
       d="m 962.168,419.504 c 36.469,-36.465 91.172,-36.465 91.172,-36.465 v -16.312 c 0,0 -55.856,0 -91.363,-35.508"
       style="fill:#000000;fill-opacity:1;fill-rule:nonzero;stroke:none"
       transform="matrix(0.13333333,0,0,-0.13333333,0,260.85333)" />
    <path
       id="path74"
       d="M 1035.29,419.695 C 998.828,383.23 944.129,383.23 944.129,383.23 v -16.312 c 0,0 55.848,0 91.351,-35.508"
       style="fill:#000000;fill-opacity:1;fill-rule:nonzero;stroke:none"
       transform="matrix(0.13333333,0,0,-0.13333333,0,260.85333)" />
  </g>
</svg>
