<?xml version="1.0" encoding="UTF-8" standalone="no"?>
<!-- Created with Inkscape (http://www.inkscape.org/) -->

<svg
   version="1.1"
   id="svg1"
   width="180.27953"
   height="260.85278"
   viewBox="0 0 180.27953 260.85278"
   xmlns="http://www.w3.org/2000/svg"
   xmlns:svg="http://www.w3.org/2000/svg">
  <defs
     id="defs1" />
  <g
     id="g1"
     transform="translate(2.796582e-5,0.06350344)">
    <path
       id="path1"
       d="M 9.99609,65.418 C 9.99609,35.1875 34.707,10.4766 64.9375,10.4766 H 1287.24 c 30.15,0 54.86,24.7109 54.86,54.9414 V 1891.94 c 0,30.22 -24.71,54.94 -54.86,54.94 H 64.9375 c -30.2305,0 -54.94141,-24.72 -54.94141,-54.94 V 65.418"
       style="fill:#ffffff;fill-opacity:1;fill-rule:nonzero;stroke:none"
       transform="matrix(0.13333333,0,0,-0.13333333,0,260.85333)" />
    <path
       id="path2"
       d="M 9.99609,65.418 C 9.99609,35.1875 34.707,10.4766 64.9375,10.4766 H 1287.24 c 30.15,0 54.86,24.7109 54.86,54.9414 V 1891.94 c 0,30.22 -24.71,54.94 -54.86,54.94 H 64.9375 c -30.2305,0 -54.94141,-24.72 -54.94141,-54.94 z"
       style="fill:none;stroke:#000000;stroke-width:19.9926;stroke-linecap:butt;stroke-linejoin:miter;stroke-miterlimit:10;stroke-dasharray:none;stroke-opacity:1"
       transform="matrix(0.13333333,0,0,-0.13333333,0,260.85333)" />
    <path
       id="path3"
       d="m 108.148,1906.86 c -6.511,0 -11.1558,-5.2 -13.9371,-15.62 -2.7148,-10.3 -4.0742,-28.23 -4.0742,-53.79 0,-25.57 1.3594,-43.56 4.0742,-53.98 2.7813,-10.3 7.4261,-15.45 13.9371,-15.45 6.508,0 11.153,5.15 13.934,15.45 2.777,10.42 4.168,28.41 4.168,53.98 0,25.56 -1.391,43.49 -4.168,53.79 -2.781,10.42 -7.426,15.62 -13.934,15.62 m 21.137,-141.15 c -4.172,-6.27 -8.816,-11 -13.933,-14.2 -5.055,-3.08 -10.555,-4.62 -16.4965,-4.62 -14.4063,0 -25.75,7.88 -34.0274,23.62 -8.2148,15.86 -12.3203,37.7 -12.3203,65.51 0,29.36 4.6094,51.96 13.836,67.83 9.2265,15.86 22.4023,23.79 39.5272,23.79 19.336,0 33.996,-10.95 43.981,-32.85 9.984,-21.9 14.976,-53.97 14.976,-96.23 0,-48.17 -5.527,-84.57 -16.586,-109.19 -11.058,-24.5 -27.457,-36.75 -49.1951,-36.75 -5.6875,0 -11.7852,0.89 -18.293,2.66 -6.5117,1.78 -13.4922,4.44 -20.9492,7.99 v 46.87 h 11.4687 c 1.5821,-12.07 4.5508,-21.24 8.9102,-27.51 4.4258,-6.16 10.1445,-9.24 17.1562,-9.24 11.1212,0 19.2112,7.22 24.2652,21.66 5.055,14.56 7.618,38.11 7.68,70.66"
       style="fill:#e6180a;fill-opacity:1;fill-rule:nonzero;stroke:none"
       transform="matrix(0.13333333,0,0,-0.13333333,0,260.85333)" />
    <path
       id="path4"
       d="m 1251.91,58.4688 c 6.51,0 11.15,5.2109 13.93,15.625 2.72,10.2968 4.08,28.2302 4.08,53.7972 0,25.566 -1.36,43.558 -4.08,53.972 -2.78,10.297 -7.42,15.446 -13.93,15.446 -6.51,0 -11.16,-5.149 -13.94,-15.446 -2.77,-10.414 -4.17,-28.406 -4.17,-53.972 0,-25.567 1.4,-43.5004 4.17,-53.7972 2.78,-10.4141 7.43,-15.625 13.94,-15.625 m -21.14,141.1482 c 4.17,6.274 8.82,11.008 13.93,14.203 5.06,3.078 10.56,4.618 16.5,4.618 14.41,0 25.75,-7.872 34.03,-23.614 8.21,-15.859 12.32,-37.699 12.32,-65.515 0,-29.352 -4.61,-51.9613 -13.84,-67.8207 -9.23,-15.8594 -22.4,-23.793 -39.53,-23.793 -19.33,0 -33.99,10.9492 -43.98,32.8477 -9.98,21.8984 -14.97,53.973 -14.97,96.23 0,48.172 5.52,84.571 16.58,109.192 11.06,24.5 27.46,36.75 49.2,36.75 5.69,0 11.78,-0.887 18.29,-2.664 6.51,-1.774 13.49,-4.438 20.95,-7.988 v -46.872 h -11.47 c -1.58,12.071 -4.55,21.247 -8.91,27.52 -4.42,6.152 -10.14,9.23 -17.16,9.23 -11.12,0 -19.21,-7.218 -24.26,-21.66 -5.06,-14.558 -7.62,-38.113 -7.68,-70.664"
       style="fill:#e6180a;fill-opacity:1;fill-rule:nonzero;stroke:none"
       transform="matrix(0.13333333,0,0,-0.13333333,0,260.85333)" />
    <path
       id="path5"
       d="m 180.492,1577.24 c -0.078,-37.67 -47.262,-65.1 -61.097,-94.93 -13.993,29.75 -61.2544,56.94 -61.5747,94.61 -0.082,17.75 13.6758,32.22 30.5469,32.22 16.9528,0 30.7888,-14.31 30.7888,-32.06 0,17.83 13.676,32.22 30.551,32.22 16.953,0.09 30.707,-14.31 30.785,-32.06"
       style="fill:#e6180a;fill-opacity:1;fill-rule:nonzero;stroke:none"
       transform="matrix(0.13333333,0,0,-0.13333333,0,260.85333)" />
    <path
       id="path6"
       d="m 1179.56,388.098 c 0.08,37.664 47.26,65.093 61.1,94.922 13.99,-29.747 61.26,-56.938 61.57,-94.602 0.09,-17.754 -13.67,-32.23 -30.54,-32.23 -16.96,0 -30.79,14.316 -30.79,32.07 0,-17.836 -13.68,-32.231 -30.55,-32.231 -16.95,-0.078 -30.71,14.317 -30.79,32.071"
       style="fill:#e6180a;fill-opacity:1;fill-rule:nonzero;stroke:none"
       transform="matrix(0.13333333,0,0,-0.13333333,0,260.85333)" />
    <path
       id="path7"
       d="m 507.945,1728.34 c -0.191,-90.4 -113.429,-156.23 -146.632,-227.82 -33.586,71.39 -147.016,136.65 -147.786,227.05 -0.191,42.61 32.821,77.34 73.317,77.34 40.687,0 73.894,-34.35 73.894,-76.96 0,42.8 32.817,77.35 73.317,77.35 40.687,0.19 73.699,-34.35 73.89,-76.96"
       style="fill:#e6180a;fill-opacity:1;fill-rule:nonzero;stroke:none"
       transform="matrix(0.13333333,0,0,-0.13333333,0,260.85333)" />
    <path
       id="path8"
       d="m 507.945,1295.25 c -0.191,-90.4 -113.429,-156.23 -146.632,-227.82 -33.586,71.4 -147.016,136.65 -147.786,227.05 -0.191,42.61 32.821,77.35 73.317,77.35 40.687,0 73.894,-34.36 73.894,-76.97 0,42.8 32.817,77.35 73.317,77.35 40.687,0.19 73.699,-34.35 73.89,-76.96"
       style="fill:#e6180a;fill-opacity:1;fill-rule:nonzero;stroke:none"
       transform="matrix(0.13333333,0,0,-0.13333333,0,260.85333)" />
    <path
       id="path9"
       d="m 213.531,703.262 c 0.192,90.398 113.43,156.23 146.633,227.82 33.586,-71.398 147.016,-136.652 147.785,-227.051 0.192,-42.609 -32.82,-77.347 -73.316,-77.347 -40.688,0 -73.895,34.355 -73.895,76.964 0,-42.8 -32.816,-77.347 -73.316,-77.347 -40.688,-0.192 -73.699,34.355 -73.891,76.961"
       style="fill:#e6180a;fill-opacity:1;fill-rule:nonzero;stroke:none"
       transform="matrix(0.13333333,0,0,-0.13333333,0,260.85333)" />
    <path
       id="path10"
       d="m 213.531,270.176 c 0.192,90.398 113.43,156.23 146.633,227.82 33.586,-71.398 147.016,-136.652 147.785,-227.051 0.192,-42.609 -32.82,-77.347 -73.316,-77.347 -40.688,0 -73.895,34.355 -73.895,76.961 0,-42.797 -32.816,-77.344 -73.316,-77.344 -40.688,-0.195 -73.699,34.351 -73.891,76.961"
       style="fill:#e6180a;fill-opacity:1;fill-rule:nonzero;stroke:none"
       transform="matrix(0.13333333,0,0,-0.13333333,0,260.85333)" />
    <path
       id="path11"
       d="m 1146.57,1728.34 c -0.19,-90.4 -113.43,-156.23 -146.629,-227.82 -33.586,71.39 -147.015,136.65 -147.785,227.05 -0.191,42.61 32.821,77.34 73.317,77.34 40.687,0 73.894,-34.35 73.894,-76.96 0,42.8 32.813,77.35 73.313,77.35 40.69,0.19 73.7,-34.35 73.89,-76.96"
       style="fill:#e6180a;fill-opacity:1;fill-rule:nonzero;stroke:none"
       transform="matrix(0.13333333,0,0,-0.13333333,0,260.85333)" />
    <path
       id="path12"
       d="m 1146.57,1295.25 c -0.19,-90.4 -113.43,-156.23 -146.629,-227.82 -33.586,71.4 -147.015,136.65 -147.785,227.05 -0.191,42.61 32.821,77.35 73.317,77.35 40.687,0 73.894,-34.36 73.894,-76.97 0,42.8 32.813,77.35 73.313,77.35 40.69,0.19 73.7,-34.35 73.89,-76.96"
       style="fill:#e6180a;fill-opacity:1;fill-rule:nonzero;stroke:none"
       transform="matrix(0.13333333,0,0,-0.13333333,0,260.85333)" />
    <path
       id="path13"
       d="m 852.156,703.262 c 0.192,90.398 113.43,156.23 146.633,227.82 33.591,-71.398 147.011,-136.652 147.781,-227.051 0.2,-42.609 -32.82,-77.347 -73.31,-77.347 -40.69,0 -73.897,34.355 -73.897,76.964 0,-42.8 -32.82,-77.347 -73.316,-77.347 -40.688,-0.192 -73.699,34.355 -73.891,76.961"
       style="fill:#e6180a;fill-opacity:1;fill-rule:nonzero;stroke:none"
       transform="matrix(0.13333333,0,0,-0.13333333,0,260.85333)" />
    <path
       id="path14"
       d="m 852.156,270.176 c 0.192,90.398 113.43,156.23 146.633,227.82 33.591,-71.398 147.011,-136.652 147.781,-227.051 0.2,-42.609 -32.82,-77.347 -73.31,-77.347 -40.69,0 -73.897,34.355 -73.897,76.961 0,-42.797 -32.82,-77.344 -73.316,-77.344 -40.688,-0.195 -73.699,34.351 -73.891,76.961"
       style="fill:#e6180a;fill-opacity:1;fill-rule:nonzero;stroke:none"
       transform="matrix(0.13333333,0,0,-0.13333333,0,260.85333)" />
    <path
       id="path15"
       d="m 827.258,1511.78 c -0.192,-90.4 -113.43,-156.23 -146.633,-227.82 -33.586,71.4 -147.016,136.66 -147.785,227.06 -0.192,42.6 32.82,77.34 73.316,77.34 40.692,0 73.895,-34.35 73.895,-76.96 0,42.8 32.82,77.35 73.316,77.35 40.688,0.19 73.699,-34.36 73.891,-76.97"
       style="fill:#e6180a;fill-opacity:1;fill-rule:nonzero;stroke:none"
       transform="matrix(0.13333333,0,0,-0.13333333,0,260.85333)" />
  </g>
</svg>
