<?xml version="1.0" encoding="UTF-8" standalone="no"?>
<!-- Created with Inkscape (http://www.inkscape.org/) -->

<svg
   version="1.1"
   id="svg1"
   width="180.27953"
   height="260.85278"
   viewBox="0 0 180.27953 260.85278"
   xmlns="http://www.w3.org/2000/svg"
   xmlns:svg="http://www.w3.org/2000/svg">
  <defs
     id="defs1" />
  <g
     id="g1"
     transform="translate(2.796582e-5,0.06350344)">
    <path
       id="path1"
       d="M 9.99609,65.418 C 9.99609,35.1875 34.707,10.4766 64.9375,10.4766 H 1287.24 c 30.15,0 54.86,24.7109 54.86,54.9414 V 1891.94 c 0,30.23 -24.71,54.94 -54.86,54.94 H 64.9375 c -30.2305,0 -54.94141,-24.71 -54.94141,-54.94 V 65.418"
       style="fill:#ffffff;fill-opacity:1;fill-rule:nonzero;stroke:none"
       transform="matrix(0.13333333,0,0,-0.13333333,0,260.85333)" />
    <path
       id="path2"
       d="M 9.99609,65.418 C 9.99609,35.1875 34.707,10.4766 64.9375,10.4766 H 1287.24 c 30.15,0 54.86,24.7109 54.86,54.9414 V 1891.94 c 0,30.23 -24.71,54.94 -54.86,54.94 H 64.9375 c -30.2305,0 -54.94141,-24.71 -54.94141,-54.94 z"
       style="fill:none;stroke:#000000;stroke-width:19.9926;stroke-linecap:butt;stroke-linejoin:miter;stroke-miterlimit:10;stroke-dasharray:none;stroke-opacity:1"
       transform="matrix(0.13333333,0,0,-0.13333333,0,260.85333)" />
    <path
       id="path3"
       d="m 108.148,1906.86 c -6.511,0 -11.1558,-5.21 -13.9371,-15.63 -2.7148,-10.3 -4.0742,-28.23 -4.0742,-53.79 0,-25.57 1.3594,-43.56 4.0742,-53.98 2.7813,-10.3 7.4261,-15.44 13.9371,-15.44 6.508,0 11.153,5.14 13.934,15.44 2.777,10.42 4.168,28.41 4.168,53.98 0,25.56 -1.391,43.49 -4.168,53.79 -2.781,10.42 -7.426,15.63 -13.934,15.63 m 21.137,-141.15 c -4.172,-6.28 -8.816,-11.01 -13.933,-14.21 -5.055,-3.07 -10.555,-4.61 -16.4965,-4.61 -14.4063,0 -25.75,7.87 -34.0274,23.61 -8.2148,15.86 -12.3203,37.7 -12.3203,65.52 0,29.35 4.6094,51.96 13.836,67.82 9.2265,15.86 22.4023,23.79 39.5272,23.79 19.336,0 33.996,-10.95 43.981,-32.84 9.984,-21.9 14.976,-53.98 14.976,-96.24 0,-48.17 -5.527,-84.57 -16.586,-109.19 -11.058,-24.5 -27.457,-36.75 -49.1951,-36.75 -5.6875,0 -11.7852,0.89 -18.293,2.66 -6.5117,1.78 -13.4922,4.44 -20.9492,8 v 46.87 h 11.4687 c 1.5821,-12.08 4.5508,-21.25 8.9102,-27.52 4.4258,-6.16 10.1445,-9.24 17.1562,-9.24 11.1212,0 19.2112,7.23 24.2652,21.67 5.055,14.56 7.618,38.11 7.68,70.66"
       style="fill:#e6180a;fill-opacity:1;fill-rule:nonzero;stroke:none"
       transform="matrix(0.13333333,0,0,-0.13333333,0,260.85333)" />
    <path
       id="path4"
       d="m 1251.91,58.4688 c 6.51,0 11.15,5.2109 13.93,15.625 2.72,10.2968 4.08,28.2302 4.08,53.7972 0,25.566 -1.36,43.558 -4.08,53.972 -2.78,10.297 -7.42,15.45 -13.93,15.45 -6.51,0 -11.16,-5.153 -13.94,-15.45 -2.77,-10.414 -4.17,-28.406 -4.17,-53.972 0,-25.567 1.4,-43.5004 4.17,-53.7972 2.78,-10.4141 7.43,-15.625 13.94,-15.625 m -21.14,141.1482 c 4.17,6.274 8.82,11.008 13.93,14.207 5.06,3.074 10.56,4.614 16.5,4.614 14.41,0 25.75,-7.872 34.03,-23.614 8.21,-15.859 12.32,-37.699 12.32,-65.511 0,-29.356 -4.61,-51.9653 -13.84,-67.8247 -9.23,-15.8594 -22.4,-23.7891 -39.53,-23.793 -19.33,0.0039 -33.99,10.9492 -43.98,32.8477 -9.98,21.8984 -14.97,53.973 -14.97,96.23 0,48.172 5.52,84.571 16.58,109.192 11.06,24.5 27.46,36.75 49.2,36.75 5.69,0 11.78,-0.887 18.29,-2.664 6.51,-1.774 13.49,-4.438 20.95,-7.988 v -46.872 h -11.47 c -1.58,12.075 -4.55,21.247 -8.91,27.52 -4.42,6.152 -10.14,9.23 -17.16,9.23 -11.12,0 -19.21,-7.218 -24.26,-21.66 -5.06,-14.558 -7.62,-38.113 -7.68,-70.664"
       style="fill:#e6180a;fill-opacity:1;fill-rule:nonzero;stroke:none"
       transform="matrix(0.13333333,0,0,-0.13333333,0,260.85333)" />
    <path
       id="path5"
       d="m 119.156,1545.8 c 20.473,0 40.946,0 61.418,0 -6.996,0.31 -12.949,4.84 -18.57,8.58 -12.625,9.53 -24.453,20.45 -33.793,33.23 -4.359,6.43 -8.938,13.66 -9.055,21.69 m 61.418,-63.5 c -8.879,-0.28 -16.457,-5.92 -23.222,-11.14 -11.957,-10.03 -22.305,-21.97 -31.039,-34.9 -3.208,-5.35 -6.981,-11.02 -7.157,-17.46 0,21.17 0,42.33 0,63.5 m 0,-63.5 c -0.304,9.46 -6.062,17.65 -11.5,24.96 -9.6912,12.07 -21.1755,22.76 -33.8122,31.69 -4.9102,3.06 -10.1211,6.7 -16.1055,6.85 20.4726,0 40.9453,0 61.4177,0 m -61.4177,0 c 8.8789,0.28 16.457,5.93 23.2226,11.13 11.9571,10.05 22.3051,21.99 31.0391,34.91 3.207,5.35 6.977,11.02 7.156,17.46 0,-21.17 0,-42.33 0,-63.5"
       style="fill:#e6180a;fill-opacity:1;fill-rule:nonzero;stroke:none"
       transform="matrix(0.13333333,0,0,-0.13333333,0,260.85333)" />
    <path
       id="path6"
       d="m 1240.9,419.523 c -20.47,0 -40.95,0 -61.42,0 7,-0.308 12.95,-4.835 18.57,-8.578 12.63,-9.527 24.46,-20.449 33.8,-33.23 4.35,-6.43 8.94,-13.656 9.05,-21.688 m -61.42,63.496 c 8.88,0.282 16.46,5.93 23.23,11.141 11.95,10.035 22.3,21.977 31.03,34.899 3.21,5.351 6.98,11.019 7.16,17.457 0,-21.168 0,-42.329 0,-63.497 m 0,63.497 c 0.3,-9.45 6.06,-17.641 11.5,-24.95 9.69,-12.074 21.17,-22.757 33.81,-31.691 4.91,-3.063 10.13,-6.707 16.11,-6.856 -20.48,0 -40.95,0 -61.42,0 m 61.42,0 c -8.88,-0.277 -16.46,-5.925 -23.23,-11.128 -11.95,-10.047 -22.3,-21.985 -31.04,-34.911 -3.2,-5.347 -6.97,-11.019 -7.15,-17.457 0,21.168 0,42.328 0,63.496"
       style="fill:#e6180a;fill-opacity:1;fill-rule:nonzero;stroke:none"
       transform="matrix(0.13333333,0,0,-0.13333333,0,260.85333)" />
    <path
       id="path7"
       d="m 360.738,1652.9 c 49.133,0 98.266,0 147.399,0 -16.785,0.75 -31.071,11.62 -44.567,20.59 -30.304,22.87 -58.691,49.08 -81.105,79.75 -10.461,15.43 -21.453,32.78 -21.727,52.05 M 508.137,1652.9 c -21.305,-0.67 -39.496,-14.22 -55.735,-26.73 -28.695,-24.09 -53.531,-52.74 -74.488,-83.76 -7.695,-12.84 -16.754,-26.45 -17.176,-41.9 0,50.8 0,101.59 0,152.39 m 0,-152.39 c -0.73,22.69 -14.55,42.34 -27.601,59.88 -23.262,28.99 -50.821,54.63 -81.149,76.06 -11.781,7.35 -24.297,16.1 -38.652,16.45 49.133,0 98.266,0 147.402,0 m -147.402,0 c 21.305,0.67 39.5,14.23 55.734,26.72 28.696,24.11 53.532,52.76 74.489,83.77 7.695,12.84 16.746,26.45 17.179,41.9 0,-50.8 0,-101.58 0,-152.39"
       style="fill:#e6180a;fill-opacity:1;fill-rule:nonzero;stroke:none"
       transform="matrix(0.13333333,0,0,-0.13333333,0,260.85333)" />
    <path
       id="path8"
       d="m 360.738,1219.81 c 49.133,0 98.266,0 147.399,0 -16.785,0.75 -31.071,11.62 -44.567,20.59 -30.304,22.87 -58.691,49.08 -81.105,79.75 -10.461,15.44 -21.453,32.78 -21.727,52.05 m 147.399,-152.39 c -21.305,-0.67 -39.496,-14.22 -55.735,-26.73 -28.695,-24.09 -53.531,-52.74 -74.488,-83.76 -7.695,-12.84 -16.754,-26.45 -17.176,-41.9 0,50.81 0,101.59 0,152.39 m 0,-152.39 c -0.73,22.69 -14.55,42.34 -27.601,59.88 -23.262,28.99 -50.821,54.63 -81.149,76.07 -11.781,7.34 -24.297,16.09 -38.652,16.44 49.133,0 98.266,0 147.402,0 m -147.402,0 c 21.305,0.67 39.5,14.23 55.734,26.72 28.696,24.11 53.532,52.76 74.489,83.78 7.695,12.84 16.746,26.44 17.179,41.89 0,-50.8 0,-101.58 0,-152.39"
       style="fill:#e6180a;fill-opacity:1;fill-rule:nonzero;stroke:none"
       transform="matrix(0.13333333,0,0,-0.13333333,0,260.85333)" />
    <path
       id="path9"
       d="m 360.738,778.699 c -49.133,0 -98.265,0 -147.398,0 16.785,-0.75 31.07,-11.613 44.566,-20.59 30.305,-22.863 58.692,-49.082 81.106,-79.75 10.461,-15.433 21.453,-32.785 21.726,-52.054 M 213.34,778.699 c 21.305,0.672 39.496,14.227 55.734,26.735 28.696,24.086 53.531,52.742 74.489,83.757 7.695,12.84 16.753,26.45 17.175,41.899 0,-50.805 0,-101.59 0,-152.391 m 0,152.391 c 0.731,-22.688 14.551,-42.34 27.602,-59.883 23.262,-28.98 50.82,-54.621 81.148,-76.062 11.782,-7.348 24.297,-16.09 38.653,-16.446 -49.133,0 -98.266,0 -147.403,0 m 147.403,0 c -21.305,-0.672 -39.5,-14.222 -55.735,-26.719 -28.695,-24.105 -53.531,-52.761 -74.488,-83.777 -7.695,-12.84 -16.746,-26.445 -17.18,-41.898 0,50.804 0,101.59 0,152.394"
       style="fill:#e6180a;fill-opacity:1;fill-rule:nonzero;stroke:none"
       transform="matrix(0.13333333,0,0,-0.13333333,0,260.85333)" />
    <path
       id="path10"
       d="m 360.738,345.609 c -49.133,0 -98.265,0 -147.398,0 16.785,-0.75 31.07,-11.613 44.566,-20.589 30.305,-22.864 58.692,-49.082 81.106,-79.75 10.461,-15.434 21.453,-32.782 21.726,-52.051 M 213.34,345.609 c 21.305,0.672 39.496,14.227 55.734,26.735 28.696,24.09 53.531,52.742 74.489,83.758 7.695,12.839 16.753,26.449 17.175,41.898 0,-50.805 0,-101.586 0,-152.391 m 0,152.391 c 0.731,-22.687 14.551,-42.34 27.602,-59.883 23.262,-28.98 50.82,-54.621 81.148,-76.058 11.782,-7.352 24.297,-16.094 38.653,-16.45 -49.133,0 -98.266,0 -147.403,0 m 147.403,0 c -21.305,-0.671 -39.5,-14.222 -55.735,-26.714 -28.695,-24.11 -53.531,-52.762 -74.488,-83.778 -7.695,-12.84 -16.746,-26.449 -17.18,-41.898 0,50.801 0,101.586 0,152.39"
       style="fill:#e6180a;fill-opacity:1;fill-rule:nonzero;stroke:none"
       transform="matrix(0.13333333,0,0,-0.13333333,0,260.85333)" />
    <path
       id="path11"
       d="m 999.367,1652.9 c 49.133,0 98.263,0 147.403,0 -16.79,0.75 -31.07,11.62 -44.57,20.59 -30.31,22.87 -58.69,49.08 -81.11,79.75 -10.46,15.43 -21.449,32.78 -21.723,52.05 M 1146.77,1652.9 c -21.31,-0.67 -39.5,-14.22 -55.74,-26.73 -28.69,-24.09 -53.53,-52.74 -74.49,-83.76 -7.69,-12.84 -16.751,-26.45 -17.173,-41.9 0,50.8 0,101.59 0,152.39 m 0,-152.39 c -0.73,22.69 -14.551,42.34 -27.601,59.88 -23.262,28.99 -50.825,54.63 -81.149,76.06 -11.781,7.35 -24.297,16.1 -38.652,16.45 49.133,0 98.265,0 147.402,0 m -147.402,0 c 21.305,0.67 39.5,14.23 55.734,26.72 28.696,24.11 53.531,52.76 74.489,83.77 7.695,12.84 16.746,26.45 17.179,41.9 0,-50.8 0,-101.58 0,-152.39"
       style="fill:#e6180a;fill-opacity:1;fill-rule:nonzero;stroke:none"
       transform="matrix(0.13333333,0,0,-0.13333333,0,260.85333)" />
    <path
       id="path12"
       d="m 999.367,1219.81 c 49.133,0 98.263,0 147.403,0 -16.79,0.75 -31.07,11.62 -44.57,20.59 -30.31,22.87 -58.69,49.08 -81.11,79.75 -10.46,15.44 -21.449,32.78 -21.723,52.05 m 147.403,-152.39 c -21.31,-0.67 -39.5,-14.22 -55.74,-26.73 -28.69,-24.09 -53.53,-52.74 -74.49,-83.76 -7.69,-12.84 -16.751,-26.45 -17.173,-41.9 0,50.81 0,101.59 0,152.39 m 0,-152.39 c -0.73,22.69 -14.551,42.34 -27.601,59.88 -23.262,28.99 -50.825,54.63 -81.149,76.07 -11.781,7.34 -24.297,16.09 -38.652,16.44 49.133,0 98.265,0 147.402,0 m -147.402,0 c 21.305,0.67 39.5,14.23 55.734,26.72 28.696,24.11 53.531,52.76 74.489,83.78 7.695,12.84 16.746,26.44 17.179,41.89 0,-50.8 0,-101.58 0,-152.39"
       style="fill:#e6180a;fill-opacity:1;fill-rule:nonzero;stroke:none"
       transform="matrix(0.13333333,0,0,-0.13333333,0,260.85333)" />
    <path
       id="path13"
       d="m 999.363,778.699 c -49.133,0 -98.265,0 -147.398,0 16.785,-0.75 31.07,-11.613 44.562,-20.59 30.309,-22.863 58.692,-49.082 81.11,-79.75 10.461,-15.433 21.449,-32.785 21.726,-52.054 M 851.965,778.699 c 21.301,0.672 39.496,14.227 55.734,26.735 28.692,24.086 53.528,52.742 74.489,83.757 7.695,12.84 16.753,26.45 17.175,41.899 0,-50.805 0,-101.59 0,-152.391 m 0,152.391 c 0.727,-22.688 14.547,-42.34 27.597,-59.883 23.27,-28.98 50.83,-54.621 81.15,-76.062 11.78,-7.348 24.3,-16.09 38.66,-16.446 -49.14,0 -98.27,0 -147.407,0 m 147.407,0 c -21.31,-0.672 -39.5,-14.222 -55.74,-26.719 -28.69,-24.105 -53.53,-52.761 -74.49,-83.777 -7.7,-12.84 -16.743,-26.445 -17.177,-41.898 0,50.804 0,101.59 0,152.394"
       style="fill:#e6180a;fill-opacity:1;fill-rule:nonzero;stroke:none"
       transform="matrix(0.13333333,0,0,-0.13333333,0,260.85333)" />
    <path
       id="path14"
       d="m 999.363,345.609 c -49.133,0 -98.265,0 -147.398,0 16.785,-0.75 31.07,-11.613 44.562,-20.589 30.309,-22.864 58.692,-49.082 81.11,-79.75 10.461,-15.434 21.449,-32.782 21.726,-52.051 m -147.398,152.39 c 21.301,0.672 39.496,14.227 55.734,26.735 28.692,24.09 53.528,52.742 74.489,83.758 7.695,12.839 16.753,26.449 17.175,41.898 0,-50.805 0,-101.586 0,-152.391 m 0,152.391 c 0.727,-22.687 14.547,-42.34 27.597,-59.883 23.27,-28.98 50.83,-54.621 81.15,-76.058 11.78,-7.352 24.3,-16.094 38.66,-16.45 -49.14,0 -98.27,0 -147.407,0 m 147.407,0 c -21.31,-0.671 -39.5,-14.222 -55.74,-26.714 -28.69,-24.11 -53.53,-52.762 -74.49,-83.778 -7.7,-12.84 -16.743,-26.449 -17.177,-41.898 0,50.801 0,101.586 0,152.39"
       style="fill:#e6180a;fill-opacity:1;fill-rule:nonzero;stroke:none"
       transform="matrix(0.13333333,0,0,-0.13333333,0,260.85333)" />
    <path
       id="path15"
       d="m 680.051,1436.36 c 49.133,0 98.265,0 147.398,0 -16.785,0.75 -31.07,11.61 -44.562,20.59 -30.309,22.86 -58.696,49.08 -81.11,79.75 -10.461,15.43 -21.453,32.78 -21.726,52.05 m 147.398,-152.39 c -21.301,-0.67 -39.496,-14.23 -55.734,-26.73 -28.695,-24.09 -53.527,-52.75 -74.488,-83.76 -7.696,-12.84 -16.754,-26.45 -17.176,-41.9 0,50.8 0,101.58 0,152.39 m 0,-152.39 c -0.731,22.68 -14.551,42.34 -27.602,59.88 -23.261,28.98 -50.82,54.62 -81.144,76.06 -11.785,7.35 -24.301,16.09 -38.657,16.45 49.133,0 98.266,0 147.403,0 m -147.403,0 c 21.305,0.67 39.5,14.22 55.735,26.71 28.695,24.11 53.531,52.77 74.488,83.78 7.695,12.84 16.746,26.45 17.18,41.9 0,-50.8 0,-101.59 0,-152.39"
       style="fill:#e6180a;fill-opacity:1;fill-rule:nonzero;stroke:none"
       transform="matrix(0.13333333,0,0,-0.13333333,0,260.85333)" />
  </g>
</svg>
