<?xml version="1.0" encoding="UTF-8" standalone="no"?>
<!-- Created with Inkscape (http://www.inkscape.org/) -->

<svg
   version="1.1"
   id="svg1"
   width="180.27953"
   height="260.85278"
   viewBox="0 0 180.27953 260.85278"
   xmlns="http://www.w3.org/2000/svg"
   xmlns:svg="http://www.w3.org/2000/svg">
  <defs
     id="defs1" />
  <g
     id="g1"
     transform="translate(2.796582e-5,0.06350344)">
    <path
       id="path1"
       d="M 9.99609,65.418 C 9.99609,35.1875 34.707,10.4766 64.9375,10.4766 H 1287.24 c 30.15,0 54.86,24.7109 54.86,54.9414 V 1891.94 c 0,30.22 -24.71,54.94 -54.86,54.94 H 64.9375 c -30.2305,0 -54.94141,-24.72 -54.94141,-54.94 V 65.418"
       style="fill:#ffffff;fill-opacity:1;fill-rule:nonzero;stroke:none"
       transform="matrix(0.13333333,0,0,-0.13333333,0,260.85333)" />
    <path
       id="path2"
       d="M 9.99609,65.418 C 9.99609,35.1875 34.707,10.4766 64.9375,10.4766 H 1287.24 c 30.15,0 54.86,24.7109 54.86,54.9414 V 1891.94 c 0,30.22 -24.71,54.94 -54.86,54.94 H 64.9375 c -30.2305,0 -54.94141,-24.72 -54.94141,-54.94 z"
       style="fill:none;stroke:#000000;stroke-width:19.9926;stroke-linecap:butt;stroke-linejoin:miter;stroke-miterlimit:10;stroke-dasharray:none;stroke-opacity:1"
       transform="matrix(0.13333333,0,0,-0.13333333,0,260.85333)" />
    <path
       id="path3"
       d="m 108.148,1906.86 c -6.511,0 -11.1558,-5.21 -13.9371,-15.63 -2.7148,-10.3 -4.0742,-28.23 -4.0742,-53.79 0,-25.57 1.3594,-43.56 4.0742,-53.98 2.7813,-10.3 7.4261,-15.44 13.9371,-15.44 6.508,0 11.153,5.14 13.934,15.44 2.777,10.42 4.168,28.41 4.168,53.98 0,25.56 -1.391,43.49 -4.168,53.79 -2.781,10.42 -7.426,15.63 -13.934,15.63 m 21.137,-141.15 c -4.172,-6.28 -8.816,-11.01 -13.933,-14.21 -5.055,-3.07 -10.555,-4.61 -16.4965,-4.61 -14.4063,0 -25.75,7.87 -34.0274,23.61 -8.2148,15.86 -12.3203,37.7 -12.3203,65.52 0,29.35 4.6094,51.96 13.836,67.82 9.2265,15.86 22.4023,23.79 39.5272,23.79 19.336,0 33.996,-10.95 43.981,-32.84 9.984,-21.9 14.976,-53.98 14.976,-96.24 0,-48.17 -5.527,-84.57 -16.586,-109.19 -11.058,-24.5 -27.457,-36.75 -49.1951,-36.75 -5.6875,0 -11.7852,0.89 -18.293,2.66 -6.5117,1.78 -13.4922,4.44 -20.9492,8 v 46.87 h 11.4687 c 1.5821,-12.08 4.5508,-21.25 8.9102,-27.52 4.4258,-6.16 10.1445,-9.24 17.1562,-9.24 11.1212,0 19.2112,7.23 24.2652,21.67 5.055,14.56 7.618,38.11 7.68,70.66"
       style="fill:#000000;fill-opacity:1;fill-rule:nonzero;stroke:none"
       transform="matrix(0.13333333,0,0,-0.13333333,0,260.85333)" />
    <path
       id="path4"
       d="m 1251.91,58.4688 c 6.51,0 11.15,5.2109 13.93,15.625 2.72,10.2968 4.08,28.2302 4.08,53.7972 0,25.566 -1.36,43.558 -4.08,53.972 -2.78,10.297 -7.42,15.446 -13.93,15.446 -6.51,0 -11.16,-5.149 -13.94,-15.446 -2.77,-10.414 -4.17,-28.406 -4.17,-53.972 0,-25.567 1.4,-43.5004 4.17,-53.7972 2.78,-10.4141 7.43,-15.625 13.94,-15.625 m -21.14,141.1482 c 4.17,6.274 8.82,11.008 13.93,14.203 5.06,3.078 10.56,4.618 16.5,4.618 14.41,0 25.75,-7.872 34.03,-23.614 8.21,-15.859 12.32,-37.699 12.32,-65.515 0,-29.352 -4.61,-51.9613 -13.84,-67.8207 -9.23,-15.8594 -22.4,-23.793 -39.53,-23.793 -19.33,0 -33.99,10.9492 -43.98,32.8477 -9.98,21.8984 -14.97,53.973 -14.97,96.23 0,48.172 5.52,84.571 16.58,109.192 11.06,24.5 27.46,36.75 49.2,36.75 5.69,0 11.78,-0.887 18.29,-2.664 6.51,-1.774 13.49,-4.438 20.95,-7.988 v -46.872 h -11.47 c -1.58,12.071 -4.55,21.247 -8.91,27.52 -4.42,6.152 -10.14,9.23 -17.16,9.23 -11.12,0 -19.21,-7.218 -24.26,-21.66 -5.06,-14.558 -7.62,-38.113 -7.68,-70.664"
       style="fill:#000000;fill-opacity:1;fill-rule:nonzero;stroke:none"
       transform="matrix(0.13333333,0,0,-0.13333333,0,260.85333)" />
    <path
       id="path5"
       d="m 87.8086,1482.39 c 13.3554,0 20.3904,14.23 24.0704,28.47 3.68,14.23 4,28.46 4,28.46 l 6.797,0.09 c 0,0 1.277,-57.02 27.988,-57.02 H 87.8086"
       style="fill:#000000;fill-opacity:1;fill-rule:nonzero;stroke:none"
       transform="matrix(0.13333333,0,0,-0.13333333,0,260.85333)" />
    <path
       id="path6"
       d="m 65.1758,1539.41 c 0.082,27.74 41.7462,47.89 53.9802,69.81 12.235,-21.99 53.899,-42.15 53.981,-69.81 0,-13.12 -12.074,-23.76 -27.032,-23.76 -14.875,0 -26.949,10.64 -26.949,23.76 0,-13.12 -12.074,-23.76 -27.031,-23.76 -14.9531,0 -26.9492,10.64 -26.9492,23.76"
       style="fill:#000000;fill-opacity:1;fill-rule:nonzero;stroke:none"
       transform="matrix(0.13333333,0,0,-0.13333333,0,260.85333)" />
    <path
       id="path7"
       d="m 1272.25,482.941 c -13.36,0 -20.39,-14.234 -24.07,-28.468 -3.68,-14.235 -4,-28.469 -4,-28.469 l -6.8,-0.082 c 0,0 -1.28,57.019 -27.99,57.019 h 62.86"
       style="fill:#000000;fill-opacity:1;fill-rule:nonzero;stroke:none"
       transform="matrix(0.13333333,0,0,-0.13333333,0,260.85333)" />
    <path
       id="path8"
       d="m 1294.88,425.922 c -0.08,-27.75 -41.75,-47.902 -53.98,-69.813 -12.24,21.993 -53.9,42.145 -53.98,69.813 0,13.117 12.08,23.75 27.03,23.75 14.87,0 26.95,-10.633 26.95,-23.75 0,13.117 12.08,23.75 27.03,23.75 14.95,0 26.95,-10.633 26.95,-23.75"
       style="fill:#000000;fill-opacity:1;fill-rule:nonzero;stroke:none"
       transform="matrix(0.13333333,0,0,-0.13333333,0,260.85333)" />
    <path
       id="path9"
       d="m 285.5,1500.71 c 32.055,0 48.941,34.17 57.77,68.33 8.832,34.16 9.597,68.32 9.597,68.32 l 16.313,0.2 c 0,0 3.074,-136.85 67.175,-136.85 H 285.5"
       style="fill:#000000;fill-opacity:1;fill-rule:nonzero;stroke:none"
       transform="matrix(0.13333333,0,0,-0.13333333,0,260.85333)" />
    <path
       id="path10"
       d="m 231.184,1637.56 c 0.191,66.6 100.187,114.96 129.554,167.55 29.364,-52.78 129.36,-101.15 129.551,-167.55 0,-31.48 -28.98,-57.01 -64.871,-57.01 -35.699,0 -64.68,25.53 -64.68,57.01 0,-31.48 -28.984,-57.01 -64.875,-57.01 -35.89,0 -64.679,25.53 -64.679,57.01"
       style="fill:#000000;fill-opacity:1;fill-rule:nonzero;stroke:none"
       transform="matrix(0.13333333,0,0,-0.13333333,0,260.85333)" />
    <path
       id="path11"
       d="m 285.5,1067.63 c 32.055,0 48.941,34.16 57.77,68.32 8.832,34.16 9.597,68.33 9.597,68.33 l 16.313,0.19 c 0,0 3.074,-136.84 67.175,-136.84 H 285.5"
       style="fill:#000000;fill-opacity:1;fill-rule:nonzero;stroke:none"
       transform="matrix(0.13333333,0,0,-0.13333333,0,260.85333)" />
    <path
       id="path12"
       d="m 231.184,1204.47 c 0.191,66.6 100.187,114.96 129.554,167.55 29.364,-52.78 129.36,-101.14 129.551,-167.55 0,-31.48 -28.98,-57 -64.871,-57 -35.699,0 -64.68,25.52 -64.68,57 0,-31.48 -28.984,-57 -64.875,-57 -35.89,0 -64.679,25.52 -64.679,57"
       style="fill:#000000;fill-opacity:1;fill-rule:nonzero;stroke:none"
       transform="matrix(0.13333333,0,0,-0.13333333,0,260.85333)" />
    <path
       id="path13"
       d="m 435.977,930.895 c -32.051,0 -48.942,-34.165 -57.77,-68.329 -8.832,-34.164 -9.598,-68.328 -9.598,-68.328 l -16.312,-0.191 c 0,0 -3.074,136.848 -67.176,136.848 h 150.856"
       style="fill:#000000;fill-opacity:1;fill-rule:nonzero;stroke:none"
       transform="matrix(0.13333333,0,0,-0.13333333,0,260.85333)" />
    <path
       id="path14"
       d="M 490.293,794.047 C 490.102,727.449 390.105,679.082 360.738,626.492 c -29.363,52.781 -129.359,101.149 -129.55,167.555 0,31.476 28.98,57.004 64.871,57.004 35.699,0 64.679,-25.528 64.679,-57.004 0,31.476 28.985,57.004 64.875,57.004 35.891,0 64.68,-25.528 64.68,-57.004"
       style="fill:#000000;fill-opacity:1;fill-rule:nonzero;stroke:none"
       transform="matrix(0.13333333,0,0,-0.13333333,0,260.85333)" />
    <path
       id="path15"
       d="m 435.977,497.805 c -32.051,0 -48.942,-34.164 -57.77,-68.325 -8.832,-34.164 -9.598,-68.328 -9.598,-68.328 l -16.312,-0.191 c 0,0 -3.074,136.844 -67.176,136.844 h 150.856"
       style="fill:#000000;fill-opacity:1;fill-rule:nonzero;stroke:none"
       transform="matrix(0.13333333,0,0,-0.13333333,0,260.85333)" />
    <path
       id="path16"
       d="M 490.293,360.961 C 490.102,294.359 390.105,245.996 360.738,193.406 c -29.363,52.782 -129.359,101.149 -129.55,167.555 0,31.477 28.98,57.004 64.871,57.004 35.699,0 64.679,-25.527 64.679,-57.004 0,31.477 28.985,57.004 64.875,57.004 35.891,0 64.68,-25.527 64.68,-57.004"
       style="fill:#000000;fill-opacity:1;fill-rule:nonzero;stroke:none"
       transform="matrix(0.13333333,0,0,-0.13333333,0,260.85333)" />
    <path
       id="path17"
       d="m 924.129,1500.71 c 32.051,0 48.941,34.17 57.769,68.33 8.832,34.16 9.598,68.32 9.598,68.32 l 16.314,0.2 c 0,0 3.07,-136.85 67.17,-136.85 H 924.129"
       style="fill:#000000;fill-opacity:1;fill-rule:nonzero;stroke:none"
       transform="matrix(0.13333333,0,0,-0.13333333,0,260.85333)" />
    <path
       id="path18"
       d="m 869.813,1637.56 c 0.191,66.6 100.187,114.96 129.554,167.55 29.363,-52.78 129.363,-101.15 129.553,-167.55 0,-31.48 -28.98,-57.01 -64.87,-57.01 -35.7,0 -64.683,25.53 -64.683,57.01 0,-31.48 -28.984,-57.01 -64.875,-57.01 -35.89,0 -64.679,25.53 -64.679,57.01"
       style="fill:#000000;fill-opacity:1;fill-rule:nonzero;stroke:none"
       transform="matrix(0.13333333,0,0,-0.13333333,0,260.85333)" />
    <path
       id="path19"
       d="m 924.129,1067.63 c 32.051,0 48.941,34.16 57.769,68.32 8.832,34.16 9.598,68.33 9.598,68.33 l 16.314,0.19 c 0,0 3.07,-136.84 67.17,-136.84 H 924.129"
       style="fill:#000000;fill-opacity:1;fill-rule:nonzero;stroke:none"
       transform="matrix(0.13333333,0,0,-0.13333333,0,260.85333)" />
    <path
       id="path20"
       d="m 869.813,1204.47 c 0.191,66.6 100.187,114.96 129.554,167.55 29.363,-52.78 129.363,-101.14 129.553,-167.55 0,-31.48 -28.98,-57 -64.87,-57 -35.7,0 -64.683,25.52 -64.683,57 0,-31.48 -28.984,-57 -64.875,-57 -35.89,0 -64.679,25.52 -64.679,57"
       style="fill:#000000;fill-opacity:1;fill-rule:nonzero;stroke:none"
       transform="matrix(0.13333333,0,0,-0.13333333,0,260.85333)" />
    <path
       id="path21"
       d="m 1074.6,930.895 c -32.05,0 -48.94,-34.165 -57.77,-68.329 -8.83,-34.164 -9.6,-68.328 -9.6,-68.328 l -16.312,-0.191 c 0,0 -3.07,136.848 -67.172,136.848 H 1074.6"
       style="fill:#000000;fill-opacity:1;fill-rule:nonzero;stroke:none"
       transform="matrix(0.13333333,0,0,-0.13333333,0,260.85333)" />
    <path
       id="path22"
       d="M 1128.92,794.047 C 1128.72,727.449 1028.73,679.082 999.363,626.492 970,679.273 870.004,727.641 869.813,794.047 c 0,31.476 28.98,57.004 64.871,57.004 35.699,0 64.679,-25.528 64.679,-57.004 0,31.476 28.977,57.004 64.867,57.004 35.9,0 64.69,-25.528 64.69,-57.004"
       style="fill:#000000;fill-opacity:1;fill-rule:nonzero;stroke:none"
       transform="matrix(0.13333333,0,0,-0.13333333,0,260.85333)" />
    <path
       id="path23"
       d="m 1074.6,497.805 c -32.05,0 -48.94,-34.164 -57.77,-68.325 -8.83,-34.164 -9.6,-68.328 -9.6,-68.328 l -16.312,-0.191 c 0,0 -3.07,136.844 -67.172,136.844 H 1074.6"
       style="fill:#000000;fill-opacity:1;fill-rule:nonzero;stroke:none"
       transform="matrix(0.13333333,0,0,-0.13333333,0,260.85333)" />
    <path
       id="path24"
       d="M 1128.92,360.961 C 1128.72,294.359 1028.73,245.996 999.363,193.406 970,246.188 870.004,294.555 869.813,360.961 c 0,31.477 28.98,57.004 64.871,57.004 35.699,0 64.679,-25.527 64.679,-57.004 0,31.477 28.977,57.004 64.867,57.004 35.9,0 64.69,-25.527 64.69,-57.004"
       style="fill:#000000;fill-opacity:1;fill-rule:nonzero;stroke:none"
       transform="matrix(0.13333333,0,0,-0.13333333,0,260.85333)" />
    <path
       id="path25"
       d="m 604.813,1284.15 c 32.054,0 48.941,34.17 57.773,68.33 8.828,34.16 9.594,68.32 9.594,68.32 l 16.316,0.2 c 0,0 3.07,-136.85 67.172,-136.85 H 604.813"
       style="fill:#000000;fill-opacity:1;fill-rule:nonzero;stroke:none"
       transform="matrix(0.13333333,0,0,-0.13333333,0,260.85333)" />
    <path
       id="path26"
       d="m 550.496,1421 c 0.195,66.6 100.188,114.96 129.555,167.55 29.363,-52.78 129.359,-101.14 129.551,-167.55 0,-31.48 -28.981,-57 -64.872,-57 -35.699,0 -64.679,25.52 -64.679,57 0,-31.48 -28.981,-57 -64.875,-57 -35.891,0 -64.68,25.52 -64.68,57"
       style="fill:#000000;fill-opacity:1;fill-rule:nonzero;stroke:none"
       transform="matrix(0.13333333,0,0,-0.13333333,0,260.85333)" />
  </g>
</svg>
