<?xml version="1.0" encoding="UTF-8" standalone="no"?>
<!-- Created with Inkscape (http://www.inkscape.org/) -->

<svg
   version="1.1"
   id="svg1"
   width="180.27953"
   height="260.85278"
   viewBox="0 0 180.27953 260.85278"
   xmlns="http://www.w3.org/2000/svg"
   xmlns:svg="http://www.w3.org/2000/svg">
  <defs
     id="defs1" />
  <g
     id="g1"
     transform="translate(2.796582e-5,0.06350344)">
    <path
       id="path1"
       d="M 9.99609,65.418 C 9.99609,35.1875 34.707,10.4766 64.9375,10.4766 H 1287.24 c 30.15,0 54.86,24.7109 54.86,54.9414 V 1891.94 c 0,30.22 -24.71,54.94 -54.86,54.94 H 64.9375 c -30.2305,0 -54.94141,-24.72 -54.94141,-54.94 V 65.418"
       style="fill:#ffffff;fill-opacity:1;fill-rule:nonzero;stroke:none"
       transform="matrix(0.13333333,0,0,-0.13333333,0,260.85333)" />
    <path
       id="path2"
       d="M 9.99609,65.418 C 9.99609,35.1875 34.707,10.4766 64.9375,10.4766 H 1287.24 c 30.15,0 54.86,24.7109 54.86,54.9414 V 1891.94 c 0,30.22 -24.71,54.94 -54.86,54.94 H 64.9375 c -30.2305,0 -54.94141,-24.72 -54.94141,-54.94 z"
       style="fill:none;stroke:#000000;stroke-width:19.9926;stroke-linecap:butt;stroke-linejoin:miter;stroke-miterlimit:10;stroke-dasharray:none;stroke-opacity:1"
       transform="matrix(0.13333333,0,0,-0.13333333,0,260.85333)" />
    <path
       id="path3"
       d="m 108.148,1906.86 c -6.511,0 -11.1558,-5.21 -13.9371,-15.63 -2.7148,-10.3 -4.0742,-28.23 -4.0742,-53.79 0,-25.57 1.3594,-43.56 4.0742,-53.98 2.7813,-10.3 7.4261,-15.44 13.9371,-15.44 6.508,0 11.153,5.14 13.934,15.44 2.777,10.42 4.168,28.41 4.168,53.98 0,25.56 -1.391,43.49 -4.168,53.79 -2.781,10.42 -7.426,15.63 -13.934,15.63 m 21.137,-141.15 c -4.172,-6.28 -8.816,-11.01 -13.933,-14.21 -5.055,-3.07 -10.555,-4.61 -16.4965,-4.61 -14.4063,0 -25.75,7.87 -34.0274,23.61 -8.2148,15.86 -12.3203,37.7 -12.3203,65.52 0,29.35 4.6094,51.96 13.836,67.82 9.2265,15.86 22.4023,23.79 39.5272,23.79 19.336,0 33.996,-10.95 43.981,-32.84 9.984,-21.9 14.976,-53.98 14.976,-96.24 0,-48.17 -5.527,-84.57 -16.586,-109.19 -11.058,-24.5 -27.457,-36.75 -49.1951,-36.75 -5.6875,0 -11.7852,0.89 -18.293,2.66 -6.5117,1.78 -13.4922,4.44 -20.9492,8 v 46.87 h 11.4687 c 1.5821,-12.08 4.5508,-21.25 8.9102,-27.52 4.4258,-6.16 10.1445,-9.24 17.1562,-9.24 11.1212,0 19.2112,7.23 24.2652,21.66 5.055,14.56 7.618,38.12 7.68,70.67"
       style="fill:#000000;fill-opacity:1;fill-rule:nonzero;stroke:none"
       transform="matrix(0.13333333,0,0,-0.13333333,0,260.85333)" />
    <path
       id="path4"
       d="m 1251.91,58.4688 c 6.51,0 11.15,5.207 13.93,15.625 2.72,10.2968 4.08,28.2302 4.08,53.7972 0,25.566 -1.36,43.558 -4.08,53.972 -2.78,10.297 -7.42,15.446 -13.93,15.446 -6.51,0 -11.16,-5.149 -13.94,-15.446 -2.77,-10.414 -4.17,-28.406 -4.17,-53.972 0,-25.567 1.4,-43.5004 4.17,-53.7972 2.78,-10.418 7.43,-15.625 13.94,-15.625 m -21.14,141.1482 c 4.17,6.274 8.82,11.008 13.93,14.203 5.06,3.078 10.56,4.618 16.5,4.618 14.41,0 25.75,-7.872 34.03,-23.614 8.21,-15.859 12.32,-37.699 12.32,-65.515 0,-29.352 -4.61,-51.9613 -13.84,-67.8207 -9.23,-15.8594 -22.4,-23.793 -39.53,-23.793 -19.33,0 -33.99,10.9492 -43.98,32.8477 -9.98,21.8984 -14.97,53.973 -14.97,96.23 0,48.172 5.52,84.571 16.58,109.188 11.06,24.504 27.46,36.754 49.2,36.754 5.69,0 11.78,-0.887 18.29,-2.664 6.51,-1.774 13.49,-4.438 20.95,-7.988 v -46.872 h -11.47 c -1.58,12.071 -4.55,21.247 -8.91,27.52 -4.42,6.152 -10.14,9.23 -17.16,9.23 -11.12,0 -19.21,-7.218 -24.26,-21.66 -5.06,-14.558 -7.62,-38.113 -7.68,-70.664"
       style="fill:#000000;fill-opacity:1;fill-rule:nonzero;stroke:none"
       transform="matrix(0.13333333,0,0,-0.13333333,0,260.85333)" />
    <path
       id="path5"
       d="m 92.3672,1583.07 c 0,-14.48 12.0738,-26.23 27.0278,-26.23 14.957,0 27.031,11.75 27.031,26.23 0,14.47 -12.074,26.23 -27.031,26.23 -14.954,0 -27.0278,-11.76 -27.0278,-26.23"
       style="fill:#000000;fill-opacity:1;fill-rule:nonzero;stroke:none"
       transform="matrix(0.13333333,0,0,-0.13333333,0,260.85333)" />
    <path
       id="path6"
       d="m 57.5,1533.41 c 0,-14.48 12.0742,-26.23 27.0313,-26.23 14.9531,0 27.0277,11.75 27.0277,26.23 0,14.47 -12.0746,26.23 -27.0277,26.23 -14.9571,0 -27.0313,-11.76 -27.0313,-26.23"
       style="fill:#000000;fill-opacity:1;fill-rule:nonzero;stroke:none"
       transform="matrix(0.13333333,0,0,-0.13333333,0,260.85333)" />
    <path
       id="path7"
       d="m 126.754,1533.25 c 0,-5.28 1.598,-10.24 4.398,-14.4 4.797,-7.12 13.196,-11.83 22.633,-11.83 14.953,0 27.028,11.75 27.028,26.23 0,14.47 -12.075,26.23 -27.028,26.23 -14.957,0 -27.031,-11.76 -27.031,-26.23"
       style="fill:#000000;fill-opacity:1;fill-rule:nonzero;stroke:none"
       transform="matrix(0.13333333,0,0,-0.13333333,0,260.85333)" />
    <path
       id="path8"
       d="m 87.6484,1482.3 c 13.3556,0 20.3906,10.88 24.0706,21.76 3.679,10.87 4,21.75 4,21.75 h 6.875 c 0,0 1.281,-43.42 27.992,-43.51 H 87.6484"
       style="fill:#000000;fill-opacity:1;fill-rule:nonzero;stroke:none"
       transform="matrix(0.13333333,0,0,-0.13333333,0,260.85333)" />
    <path
       id="path9"
       d="m 137.711,1563.79 c -15.195,-15.19 -15.195,-37.98 -15.195,-37.98 l -6.797,-0.08 c 0,0 0,23.27 -14.797,38.06"
       style="fill:#000000;fill-opacity:1;fill-rule:nonzero;stroke:none"
       transform="matrix(0.13333333,0,0,-0.13333333,0,260.85333)" />
    <path
       id="path10"
       d="m 134.672,1515.01 c -15.195,15.2 -37.9884,15.2 -37.9884,15.2 v 6.79 c 0,0 23.2734,0 38.0664,14.8"
       style="fill:#000000;fill-opacity:1;fill-rule:nonzero;stroke:none"
       transform="matrix(0.13333333,0,0,-0.13333333,0,260.85333)" />
    <path
       id="path11"
       d="m 104.203,1514.93 c 15.192,15.2 37.985,15.2 37.985,15.2 v 6.8 c 0,0 -23.27,0 -38.067,14.79"
       style="fill:#000000;fill-opacity:1;fill-rule:nonzero;stroke:none"
       transform="matrix(0.13333333,0,0,-0.13333333,0,260.85333)" />
    <path
       id="path12"
       d="m 1267.69,382.258 c 0,14.476 -12.08,26.23 -27.03,26.23 -14.96,0 -27.03,-11.754 -27.03,-26.23 0,-14.473 12.07,-26.231 27.03,-26.231 14.95,0 27.03,11.758 27.03,26.231"
       style="fill:#000000;fill-opacity:1;fill-rule:nonzero;stroke:none"
       transform="matrix(0.13333333,0,0,-0.13333333,0,260.85333)" />
    <path
       id="path13"
       d="m 1302.55,431.918 c 0,14.477 -12.07,26.23 -27.02,26.23 -14.96,0 -27.03,-11.753 -27.03,-26.23 0,-14.473 12.07,-26.227 27.03,-26.227 14.95,0 27.02,11.754 27.02,26.227"
       style="fill:#000000;fill-opacity:1;fill-rule:nonzero;stroke:none"
       transform="matrix(0.13333333,0,0,-0.13333333,0,260.85333)" />
    <path
       id="path14"
       d="m 1233.3,432.078 c 0,5.281 -1.6,10.238 -4.4,14.395 -4.79,7.117 -13.19,11.836 -22.63,11.836 -14.95,0 -27.03,-11.754 -27.03,-26.231 0,-14.473 12.08,-26.23 27.03,-26.23 14.96,0 27.03,11.757 27.03,26.23"
       style="fill:#000000;fill-opacity:1;fill-rule:nonzero;stroke:none"
       transform="matrix(0.13333333,0,0,-0.13333333,0,260.85333)" />
    <path
       id="path15"
       d="m 1272.41,483.02 c -13.36,0 -20.39,-10.875 -24.07,-21.75 -3.68,-10.875 -4,-21.754 -4,-21.754 h -6.88 c 0,0 -1.28,43.425 -27.99,43.504 h 62.94"
       style="fill:#000000;fill-opacity:1;fill-rule:nonzero;stroke:none"
       transform="matrix(0.13333333,0,0,-0.13333333,0,260.85333)" />
    <path
       id="path16"
       d="m 1222.35,401.531 c 15.19,15.196 15.19,37.985 15.19,37.985 l 6.8,0.082 c 0,0 0,-23.274 14.79,-38.067"
       style="fill:#000000;fill-opacity:1;fill-rule:nonzero;stroke:none"
       transform="matrix(0.13333333,0,0,-0.13333333,0,260.85333)" />
    <path
       id="path17"
       d="m 1225.39,450.313 c 15.19,-15.196 37.98,-15.196 37.98,-15.196 v -6.797 c 0,0 -23.27,0 -38.07,-14.793"
       style="fill:#000000;fill-opacity:1;fill-rule:nonzero;stroke:none"
       transform="matrix(0.13333333,0,0,-0.13333333,0,260.85333)" />
    <path
       id="path18"
       d="m 1255.86,450.395 c -15.2,-15.196 -37.99,-15.196 -37.99,-15.196 v -6.797 c 0,0 23.27,0 38.06,-14.797"
       style="fill:#000000;fill-opacity:1;fill-rule:nonzero;stroke:none"
       transform="matrix(0.13333333,0,0,-0.13333333,0,260.85333)" />
    <path
       id="path19"
       d="m 296.441,1742.34 c 0,-34.73 28.981,-62.95 64.872,-62.95 35.89,0 64.871,28.22 64.871,62.95 0,34.74 -28.981,62.96 -64.871,62.96 -35.891,0 -64.872,-28.22 -64.872,-62.96"
       style="fill:#000000;fill-opacity:1;fill-rule:nonzero;stroke:none"
       transform="matrix(0.13333333,0,0,-0.13333333,0,260.85333)" />
    <path
       id="path20"
       d="m 212.758,1623.16 c 0,-34.74 28.984,-62.96 64.875,-62.96 35.89,0 64.871,28.22 64.871,62.96 0,34.73 -28.981,62.95 -64.871,62.95 -35.891,0 -64.875,-28.22 -64.875,-62.95"
       style="fill:#000000;fill-opacity:1;fill-rule:nonzero;stroke:none"
       transform="matrix(0.13333333,0,0,-0.13333333,0,260.85333)" />
    <path
       id="path21"
       d="m 378.969,1622.77 c 0,-12.66 3.84,-24.56 10.558,-34.54 11.516,-17.09 31.668,-28.41 54.317,-28.41 35.89,0 64.871,28.22 64.871,62.95 0,34.74 -28.981,62.96 -64.871,62.96 -35.895,0 -64.875,-28.22 -64.875,-62.96"
       style="fill:#000000;fill-opacity:1;fill-rule:nonzero;stroke:none"
       transform="matrix(0.13333333,0,0,-0.13333333,0,260.85333)" />
    <path
       id="path22"
       d="m 285.117,1500.52 c 32.051,0 48.942,26.1 57.77,52.2 8.828,26.1 9.597,52.2 9.597,52.2 h 16.504 c 0,0 3.071,-104.21 67.176,-104.4 H 285.117"
       style="fill:#000000;fill-opacity:1;fill-rule:nonzero;stroke:none"
       transform="matrix(0.13333333,0,0,-0.13333333,0,260.85333)" />
    <path
       id="path23"
       d="m 405.266,1696.09 c -36.469,-36.46 -36.469,-91.17 -36.469,-91.17 l -16.313,-0.19 c 0,0 0,55.85 -35.507,91.36"
       style="fill:#000000;fill-opacity:1;fill-rule:nonzero;stroke:none"
       transform="matrix(0.13333333,0,0,-0.13333333,0,260.85333)" />
    <path
       id="path24"
       d="m 397.973,1579.01 c -36.469,36.47 -91.168,36.47 -91.168,36.47 v 16.31 c 0,0 55.851,0 91.359,35.51"
       style="fill:#000000;fill-opacity:1;fill-rule:nonzero;stroke:none"
       transform="matrix(0.13333333,0,0,-0.13333333,0,260.85333)" />
    <path
       id="path25"
       d="m 324.848,1578.82 c 36.465,36.47 91.164,36.47 91.164,36.47 v 16.31 c 0,0 -55.852,0 -91.36,35.51"
       style="fill:#000000;fill-opacity:1;fill-rule:nonzero;stroke:none"
       transform="matrix(0.13333333,0,0,-0.13333333,0,260.85333)" />
    <path
       id="path26"
       d="m 296.441,1309.25 c 0,-34.73 28.981,-62.95 64.872,-62.95 35.89,0 64.871,28.22 64.871,62.95 0,34.75 -28.981,62.96 -64.871,62.96 -35.891,0 -64.872,-28.21 -64.872,-62.96"
       style="fill:#000000;fill-opacity:1;fill-rule:nonzero;stroke:none"
       transform="matrix(0.13333333,0,0,-0.13333333,0,260.85333)" />
    <path
       id="path27"
       d="m 212.758,1190.07 c 0,-34.74 28.984,-62.96 64.875,-62.96 35.89,0 64.871,28.22 64.871,62.96 0,34.73 -28.981,62.95 -64.871,62.95 -35.891,0 -64.875,-28.22 -64.875,-62.95"
       style="fill:#000000;fill-opacity:1;fill-rule:nonzero;stroke:none"
       transform="matrix(0.13333333,0,0,-0.13333333,0,260.85333)" />
    <path
       id="path28"
       d="m 378.969,1189.68 c 0,-12.66 3.84,-24.56 10.558,-34.54 11.516,-17.09 31.668,-28.41 54.317,-28.41 35.89,0 64.871,28.22 64.871,62.95 0,34.74 -28.981,62.96 -64.871,62.96 -35.895,0 -64.875,-28.22 -64.875,-62.96"
       style="fill:#000000;fill-opacity:1;fill-rule:nonzero;stroke:none"
       transform="matrix(0.13333333,0,0,-0.13333333,0,260.85333)" />
    <path
       id="path29"
       d="m 285.117,1067.43 c 32.051,0 48.942,26.1 57.77,52.2 8.828,26.1 9.597,52.21 9.597,52.21 h 16.504 c 0,0 3.071,-104.22 67.176,-104.41 H 285.117"
       style="fill:#000000;fill-opacity:1;fill-rule:nonzero;stroke:none"
       transform="matrix(0.13333333,0,0,-0.13333333,0,260.85333)" />
    <path
       id="path30"
       d="m 405.266,1263 c -36.469,-36.46 -36.469,-91.16 -36.469,-91.16 l -16.313,-0.2 c 0,0 0,55.85 -35.507,91.36"
       style="fill:#000000;fill-opacity:1;fill-rule:nonzero;stroke:none"
       transform="matrix(0.13333333,0,0,-0.13333333,0,260.85333)" />
    <path
       id="path31"
       d="m 397.973,1145.93 c -36.469,36.46 -91.168,36.46 -91.168,36.46 v 16.31 c 0,0 55.851,0 91.359,35.51"
       style="fill:#000000;fill-opacity:1;fill-rule:nonzero;stroke:none"
       transform="matrix(0.13333333,0,0,-0.13333333,0,260.85333)" />
    <path
       id="path32"
       d="m 324.848,1145.73 c 36.465,36.47 91.164,36.47 91.164,36.47 v 16.31 c 0,0 -55.852,0 -91.36,35.51"
       style="fill:#000000;fill-opacity:1;fill-rule:nonzero;stroke:none"
       transform="matrix(0.13333333,0,0,-0.13333333,0,260.85333)" />
    <path
       id="path33"
       d="m 425.035,689.262 c 0,34.738 -28.98,62.953 -64.871,62.953 -35.891,0 -64.871,-28.215 -64.871,-62.953 0,-34.739 28.98,-62.953 64.871,-62.953 35.891,0 64.871,28.214 64.871,62.953"
       style="fill:#000000;fill-opacity:1;fill-rule:nonzero;stroke:none"
       transform="matrix(0.13333333,0,0,-0.13333333,0,260.85333)" />
    <path
       id="path34"
       d="m 508.719,808.449 c 0,34.742 -28.985,62.953 -64.875,62.953 -35.891,0 -64.871,-28.211 -64.871,-62.953 0,-34.738 28.98,-62.953 64.871,-62.953 35.89,0 64.875,28.215 64.875,62.953"
       style="fill:#000000;fill-opacity:1;fill-rule:nonzero;stroke:none"
       transform="matrix(0.13333333,0,0,-0.13333333,0,260.85333)" />
    <path
       id="path35"
       d="m 342.508,808.836 c 0,12.664 -3.84,24.566 -10.559,34.547 -11.515,17.082 -31.668,28.402 -54.312,28.402 -35.895,0 -64.875,-28.211 -64.875,-62.949 0,-34.742 28.98,-62.953 64.875,-62.953 35.89,0 64.871,28.211 64.871,62.953"
       style="fill:#000000;fill-opacity:1;fill-rule:nonzero;stroke:none"
       transform="matrix(0.13333333,0,0,-0.13333333,0,260.85333)" />
    <path
       id="path36"
       d="m 436.359,931.094 c -32.05,0 -48.941,-26.102 -57.769,-52.207 -8.828,-26.102 -9.598,-52.203 -9.598,-52.203 h -16.504 c 0,0 -3.07,104.218 -67.175,104.41 h 151.046"
       style="fill:#000000;fill-opacity:1;fill-rule:nonzero;stroke:none"
       transform="matrix(0.13333333,0,0,-0.13333333,0,260.85333)" />
    <path
       id="path37"
       d="m 316.211,735.52 c 36.469,36.464 36.469,91.164 36.469,91.164 l 16.312,0.191 c 0,0 0,-55.852 35.508,-91.355"
       style="fill:#000000;fill-opacity:1;fill-rule:nonzero;stroke:none"
       transform="matrix(0.13333333,0,0,-0.13333333,0,260.85333)" />
    <path
       id="path38"
       d="m 323.504,852.594 c 36.469,-36.465 91.168,-36.465 91.168,-36.465 v -16.316 c 0,0 -55.852,0 -91.359,-35.504"
       style="fill:#000000;fill-opacity:1;fill-rule:nonzero;stroke:none"
       transform="matrix(0.13333333,0,0,-0.13333333,0,260.85333)" />
    <path
       id="path39"
       d="M 396.629,852.785 C 360.164,816.32 305.465,816.32 305.465,816.32 v -16.316 c 0,0 55.851,0 91.359,-35.504"
       style="fill:#000000;fill-opacity:1;fill-rule:nonzero;stroke:none"
       transform="matrix(0.13333333,0,0,-0.13333333,0,260.85333)" />
    <path
       id="path40"
       d="m 425.035,256.176 c 0,34.738 -28.98,62.949 -64.871,62.949 -35.891,0 -64.871,-28.211 -64.871,-62.949 0,-34.742 28.98,-62.953 64.871,-62.953 35.891,0 64.871,28.211 64.871,62.953"
       style="fill:#000000;fill-opacity:1;fill-rule:nonzero;stroke:none"
       transform="matrix(0.13333333,0,0,-0.13333333,0,260.85333)" />
    <path
       id="path41"
       d="m 508.719,375.363 c 0,34.739 -28.985,62.95 -64.875,62.95 -35.891,0 -64.871,-28.211 -64.871,-62.95 0,-34.742 28.98,-62.953 64.871,-62.953 35.89,0 64.875,28.211 64.875,62.953"
       style="fill:#000000;fill-opacity:1;fill-rule:nonzero;stroke:none"
       transform="matrix(0.13333333,0,0,-0.13333333,0,260.85333)" />
    <path
       id="path42"
       d="m 342.508,375.746 c 0,12.668 -3.84,24.567 -10.559,34.547 -11.515,17.082 -31.668,28.406 -54.312,28.406 -35.895,0 -64.875,-28.215 -64.875,-62.953 0,-34.738 28.98,-62.953 64.875,-62.953 35.89,0 64.871,28.215 64.871,62.953"
       style="fill:#000000;fill-opacity:1;fill-rule:nonzero;stroke:none"
       transform="matrix(0.13333333,0,0,-0.13333333,0,260.85333)" />
    <path
       id="path43"
       d="m 436.359,498.004 c -32.05,0 -48.941,-26.102 -57.769,-52.203 -8.828,-26.106 -9.598,-52.207 -9.598,-52.207 h -16.504 c 0,0 -3.07,104.219 -67.175,104.41 h 151.046"
       style="fill:#000000;fill-opacity:1;fill-rule:nonzero;stroke:none"
       transform="matrix(0.13333333,0,0,-0.13333333,0,260.85333)" />
    <path
       id="path44"
       d="m 316.211,302.43 c 36.469,36.465 36.469,91.164 36.469,91.164 l 16.312,0.191 c 0,0 0,-55.851 35.508,-91.355"
       style="fill:#000000;fill-opacity:1;fill-rule:nonzero;stroke:none"
       transform="matrix(0.13333333,0,0,-0.13333333,0,260.85333)" />
    <path
       id="path45"
       d="m 323.504,419.504 c 36.469,-36.465 91.168,-36.465 91.168,-36.465 v -16.312 c 0,0 -55.852,0 -91.359,-35.508"
       style="fill:#000000;fill-opacity:1;fill-rule:nonzero;stroke:none"
       transform="matrix(0.13333333,0,0,-0.13333333,0,260.85333)" />
    <path
       id="path46"
       d="M 396.629,419.695 C 360.164,383.23 305.465,383.23 305.465,383.23 v -16.312 c 0,0 55.851,0 91.359,-35.508"
       style="fill:#000000;fill-opacity:1;fill-rule:nonzero;stroke:none"
       transform="matrix(0.13333333,0,0,-0.13333333,0,260.85333)" />
    <path
       id="path47"
       d="m 935.07,1742.34 c 0,-34.73 28.981,-62.95 64.871,-62.95 35.889,0 64.869,28.22 64.869,62.95 0,34.74 -28.98,62.96 -64.869,62.96 -35.89,0 -64.871,-28.22 -64.871,-62.96"
       style="fill:#000000;fill-opacity:1;fill-rule:nonzero;stroke:none"
       transform="matrix(0.13333333,0,0,-0.13333333,0,260.85333)" />
    <path
       id="path48"
       d="m 851.387,1623.16 c 0,-34.74 28.984,-62.96 64.875,-62.96 35.89,0 64.871,28.22 64.871,62.96 0,34.73 -28.981,62.95 -64.871,62.95 -35.891,0 -64.875,-28.22 -64.875,-62.95"
       style="fill:#000000;fill-opacity:1;fill-rule:nonzero;stroke:none"
       transform="matrix(0.13333333,0,0,-0.13333333,0,260.85333)" />
    <path
       id="path49"
       d="m 1017.6,1622.77 c 0,-12.66 3.84,-24.56 10.56,-34.54 11.51,-17.09 31.66,-28.41 54.31,-28.41 35.89,0 64.87,28.22 64.87,62.95 0,34.74 -28.98,62.96 -64.87,62.96 -35.89,0 -64.87,-28.22 -64.87,-62.96"
       style="fill:#000000;fill-opacity:1;fill-rule:nonzero;stroke:none"
       transform="matrix(0.13333333,0,0,-0.13333333,0,260.85333)" />
    <path
       id="path50"
       d="m 923.746,1500.52 c 32.051,0 48.942,26.1 57.77,52.2 8.828,26.1 9.597,52.2 9.597,52.2 h 16.507 c 0,0 3.07,-104.21 67.17,-104.4 H 923.746"
       style="fill:#000000;fill-opacity:1;fill-rule:nonzero;stroke:none"
       transform="matrix(0.13333333,0,0,-0.13333333,0,260.85333)" />
    <path
       id="path51"
       d="m 1043.89,1696.09 c -36.46,-36.46 -36.46,-91.17 -36.46,-91.17 l -16.317,-0.19 c 0,0 0,55.85 -35.508,91.36"
       style="fill:#000000;fill-opacity:1;fill-rule:nonzero;stroke:none"
       transform="matrix(0.13333333,0,0,-0.13333333,0,260.85333)" />
    <path
       id="path52"
       d="m 1036.6,1579.01 c -36.47,36.47 -91.166,36.47 -91.166,36.47 v 16.31 c 0,0 55.856,0 91.356,35.51"
       style="fill:#000000;fill-opacity:1;fill-rule:nonzero;stroke:none"
       transform="matrix(0.13333333,0,0,-0.13333333,0,260.85333)" />
    <path
       id="path53"
       d="m 963.477,1578.82 c 36.464,36.47 91.163,36.47 91.163,36.47 v 16.31 c 0,0 -55.851,0 -91.359,35.51"
       style="fill:#000000;fill-opacity:1;fill-rule:nonzero;stroke:none"
       transform="matrix(0.13333333,0,0,-0.13333333,0,260.85333)" />
    <path
       id="path54"
       d="m 935.07,1309.25 c 0,-34.73 28.981,-62.95 64.871,-62.95 35.889,0 64.869,28.22 64.869,62.95 0,34.75 -28.98,62.96 -64.869,62.96 -35.89,0 -64.871,-28.21 -64.871,-62.96"
       style="fill:#000000;fill-opacity:1;fill-rule:nonzero;stroke:none"
       transform="matrix(0.13333333,0,0,-0.13333333,0,260.85333)" />
    <path
       id="path55"
       d="m 851.387,1190.07 c 0,-34.74 28.984,-62.96 64.875,-62.96 35.89,0 64.871,28.22 64.871,62.96 0,34.73 -28.981,62.95 -64.871,62.95 -35.891,0 -64.875,-28.22 -64.875,-62.95"
       style="fill:#000000;fill-opacity:1;fill-rule:nonzero;stroke:none"
       transform="matrix(0.13333333,0,0,-0.13333333,0,260.85333)" />
    <path
       id="path56"
       d="m 1017.6,1189.68 c 0,-12.66 3.84,-24.56 10.56,-34.54 11.51,-17.09 31.66,-28.41 54.31,-28.41 35.89,0 64.87,28.22 64.87,62.95 0,34.74 -28.98,62.96 -64.87,62.96 -35.89,0 -64.87,-28.22 -64.87,-62.96"
       style="fill:#000000;fill-opacity:1;fill-rule:nonzero;stroke:none"
       transform="matrix(0.13333333,0,0,-0.13333333,0,260.85333)" />
    <path
       id="path57"
       d="m 923.746,1067.43 c 32.051,0 48.942,26.1 57.77,52.2 8.828,26.1 9.597,52.21 9.597,52.21 h 16.507 c 0,0 3.07,-104.22 67.17,-104.41 H 923.746"
       style="fill:#000000;fill-opacity:1;fill-rule:nonzero;stroke:none"
       transform="matrix(0.13333333,0,0,-0.13333333,0,260.85333)" />
    <path
       id="path58"
       d="m 1043.89,1263 c -36.46,-36.46 -36.46,-91.16 -36.46,-91.16 l -16.317,-0.2 c 0,0 0,55.85 -35.508,91.36"
       style="fill:#000000;fill-opacity:1;fill-rule:nonzero;stroke:none"
       transform="matrix(0.13333333,0,0,-0.13333333,0,260.85333)" />
    <path
       id="path59"
       d="m 1036.6,1145.93 c -36.47,36.46 -91.166,36.46 -91.166,36.46 v 16.31 c 0,0 55.856,0 91.356,35.51"
       style="fill:#000000;fill-opacity:1;fill-rule:nonzero;stroke:none"
       transform="matrix(0.13333333,0,0,-0.13333333,0,260.85333)" />
    <path
       id="path60"
       d="m 963.477,1145.73 c 36.464,36.47 91.163,36.47 91.163,36.47 v 16.31 c 0,0 -55.851,0 -91.359,35.51"
       style="fill:#000000;fill-opacity:1;fill-rule:nonzero;stroke:none"
       transform="matrix(0.13333333,0,0,-0.13333333,0,260.85333)" />
    <path
       id="path61"
       d="m 1063.66,689.262 c 0,34.738 -28.98,62.953 -64.871,62.953 -35.891,0 -64.871,-28.215 -64.871,-62.953 0,-34.739 28.98,-62.953 64.871,-62.953 35.891,0 64.871,28.214 64.871,62.953"
       style="fill:#000000;fill-opacity:1;fill-rule:nonzero;stroke:none"
       transform="matrix(0.13333333,0,0,-0.13333333,0,260.85333)" />
    <path
       id="path62"
       d="m 1147.34,808.449 c 0,34.742 -28.98,62.953 -64.87,62.953 -35.89,0 -64.87,-28.211 -64.87,-62.953 0,-34.738 28.98,-62.953 64.87,-62.953 35.89,0 64.87,28.215 64.87,62.953"
       style="fill:#000000;fill-opacity:1;fill-rule:nonzero;stroke:none"
       transform="matrix(0.13333333,0,0,-0.13333333,0,260.85333)" />
    <path
       id="path63"
       d="m 981.133,808.836 c 0,12.664 -3.84,24.566 -10.559,34.547 -11.515,17.082 -31.668,28.402 -54.316,28.402 -35.891,0 -64.871,-28.211 -64.871,-62.949 0,-34.742 28.98,-62.953 64.871,-62.953 35.89,0 64.875,28.211 64.875,62.953"
       style="fill:#000000;fill-opacity:1;fill-rule:nonzero;stroke:none"
       transform="matrix(0.13333333,0,0,-0.13333333,0,260.85333)" />
    <path
       id="path64"
       d="m 1074.98,931.094 c -32.05,0 -48.94,-26.102 -57.77,-52.207 -8.82,-26.102 -9.59,-52.203 -9.59,-52.203 h -16.511 c 0,0 -3.07,104.218 -67.171,104.41 h 151.042"
       style="fill:#000000;fill-opacity:1;fill-rule:nonzero;stroke:none"
       transform="matrix(0.13333333,0,0,-0.13333333,0,260.85333)" />
    <path
       id="path65"
       d="m 954.836,735.52 c 36.469,36.464 36.469,91.164 36.469,91.164 l 16.315,0.191 c 0,0 0,-55.852 35.51,-91.355"
       style="fill:#000000;fill-opacity:1;fill-rule:nonzero;stroke:none"
       transform="matrix(0.13333333,0,0,-0.13333333,0,260.85333)" />
    <path
       id="path66"
       d="m 962.129,852.594 c 36.469,-36.465 91.171,-36.465 91.171,-36.465 v -16.316 c 0,0 -55.855,0 -91.362,-35.504"
       style="fill:#000000;fill-opacity:1;fill-rule:nonzero;stroke:none"
       transform="matrix(0.13333333,0,0,-0.13333333,0,260.85333)" />
    <path
       id="path67"
       d="M 1035.25,852.785 C 998.789,816.32 944.09,816.32 944.09,816.32 v -16.316 c 0,0 55.851,0 91.36,-35.504"
       style="fill:#000000;fill-opacity:1;fill-rule:nonzero;stroke:none"
       transform="matrix(0.13333333,0,0,-0.13333333,0,260.85333)" />
    <path
       id="path68"
       d="m 1063.66,256.176 c 0,34.738 -28.98,62.949 -64.871,62.949 -35.891,0 -64.871,-28.211 -64.871,-62.949 0,-34.742 28.98,-62.953 64.871,-62.953 35.891,0 64.871,28.211 64.871,62.953"
       style="fill:#000000;fill-opacity:1;fill-rule:nonzero;stroke:none"
       transform="matrix(0.13333333,0,0,-0.13333333,0,260.85333)" />
    <path
       id="path69"
       d="m 1147.34,375.363 c 0,34.739 -28.98,62.95 -64.87,62.95 -35.89,0 -64.87,-28.211 -64.87,-62.95 0,-34.742 28.98,-62.953 64.87,-62.953 35.89,0 64.87,28.211 64.87,62.953"
       style="fill:#000000;fill-opacity:1;fill-rule:nonzero;stroke:none"
       transform="matrix(0.13333333,0,0,-0.13333333,0,260.85333)" />
    <path
       id="path70"
       d="m 981.133,375.746 c 0,12.668 -3.84,24.567 -10.559,34.547 -11.515,17.082 -31.668,28.406 -54.316,28.406 -35.891,0 -64.871,-28.215 -64.871,-62.953 0,-34.738 28.98,-62.953 64.871,-62.953 35.89,0 64.875,28.215 64.875,62.953"
       style="fill:#000000;fill-opacity:1;fill-rule:nonzero;stroke:none"
       transform="matrix(0.13333333,0,0,-0.13333333,0,260.85333)" />
    <path
       id="path71"
       d="m 1074.98,498.004 c -32.05,0 -48.94,-26.102 -57.77,-52.203 -8.82,-26.106 -9.59,-52.207 -9.59,-52.207 h -16.511 c 0,0 -3.07,104.219 -67.171,104.41 h 151.042"
       style="fill:#000000;fill-opacity:1;fill-rule:nonzero;stroke:none"
       transform="matrix(0.13333333,0,0,-0.13333333,0,260.85333)" />
    <path
       id="path72"
       d="m 954.836,302.43 c 36.469,36.465 36.469,91.164 36.469,91.164 l 16.315,0.191 c 0,0 0,-55.851 35.51,-91.355"
       style="fill:#000000;fill-opacity:1;fill-rule:nonzero;stroke:none"
       transform="matrix(0.13333333,0,0,-0.13333333,0,260.85333)" />
    <path
       id="path73"
       d="m 962.129,419.504 c 36.469,-36.465 91.171,-36.465 91.171,-36.465 v -16.312 c 0,0 -55.855,0 -91.362,-35.508"
       style="fill:#000000;fill-opacity:1;fill-rule:nonzero;stroke:none"
       transform="matrix(0.13333333,0,0,-0.13333333,0,260.85333)" />
    <path
       id="path74"
       d="M 1035.25,419.695 C 998.789,383.23 944.09,383.23 944.09,383.23 v -16.312 c 0,0 55.851,0 91.36,-35.508"
       style="fill:#000000;fill-opacity:1;fill-rule:nonzero;stroke:none"
       transform="matrix(0.13333333,0,0,-0.13333333,0,260.85333)" />
    <path
       id="path75"
       d="m 615.754,1525.8 c 0,-34.74 28.98,-62.95 64.871,-62.95 35.891,0 64.871,28.21 64.871,62.95 0,34.74 -28.98,62.95 -64.871,62.95 -35.891,0 -64.871,-28.21 -64.871,-62.95"
       style="fill:#000000;fill-opacity:1;fill-rule:nonzero;stroke:none"
       transform="matrix(0.13333333,0,0,-0.13333333,0,260.85333)" />
    <path
       id="path76"
       d="m 532.074,1406.61 c 0,-34.74 28.981,-62.95 64.871,-62.95 35.891,0 64.871,28.21 64.871,62.95 0,34.74 -28.98,62.95 -64.871,62.95 -35.89,0 -64.871,-28.21 -64.871,-62.95"
       style="fill:#000000;fill-opacity:1;fill-rule:nonzero;stroke:none"
       transform="matrix(0.13333333,0,0,-0.13333333,0,260.85333)" />
    <path
       id="path77"
       d="m 698.281,1406.23 c 0,-12.67 3.84,-24.57 10.559,-34.55 11.515,-17.08 31.668,-28.41 54.316,-28.41 35.891,0 64.871,28.22 64.871,62.96 0,34.73 -28.98,62.95 -64.871,62.95 -35.89,0 -64.875,-28.22 -64.875,-62.95"
       style="fill:#000000;fill-opacity:1;fill-rule:nonzero;stroke:none"
       transform="matrix(0.13333333,0,0,-0.13333333,0,260.85333)" />
    <path
       id="path78"
       d="m 604.43,1283.97 c 32.05,0 48.941,26.1 57.769,52.2 8.828,26.11 9.598,52.21 9.598,52.21 h 16.504 c 0,0 3.074,-104.22 67.176,-104.41 H 604.43"
       style="fill:#000000;fill-opacity:1;fill-rule:nonzero;stroke:none"
       transform="matrix(0.13333333,0,0,-0.13333333,0,260.85333)" />
    <path
       id="path79"
       d="m 724.578,1479.54 c -36.469,-36.46 -36.469,-91.16 -36.469,-91.16 l -16.312,-0.19 c 0,0 0,55.85 -35.508,91.35"
       style="fill:#000000;fill-opacity:1;fill-rule:nonzero;stroke:none"
       transform="matrix(0.13333333,0,0,-0.13333333,0,260.85333)" />
    <path
       id="path80"
       d="m 717.285,1362.47 c -36.469,36.46 -91.168,36.46 -91.168,36.46 v 16.32 c 0,0 55.852,0 91.36,35.5"
       style="fill:#000000;fill-opacity:1;fill-rule:nonzero;stroke:none"
       transform="matrix(0.13333333,0,0,-0.13333333,0,260.85333)" />
    <path
       id="path81"
       d="m 644.16,1362.28 c 36.465,36.46 91.164,36.46 91.164,36.46 v 16.31 c 0,0 -55.851,0 -91.355,35.51"
       style="fill:#000000;fill-opacity:1;fill-rule:nonzero;stroke:none"
       transform="matrix(0.13333333,0,0,-0.13333333,0,260.85333)" />
  </g>
</svg>
