<?xml version="1.0" encoding="UTF-8" standalone="no"?>
<!-- Created with Inkscape (http://www.inkscape.org/) -->

<svg
   version="1.1"
   id="svg1"
   width="180.27953"
   height="260.85278"
   viewBox="0 0 180.27953 260.85278"
   xmlns="http://www.w3.org/2000/svg"
   xmlns:svg="http://www.w3.org/2000/svg">
  <defs
     id="defs1" />
  <g
     id="g1"
     transform="translate(2.796582e-5,0.06350344)">
    <path
       id="path1"
       d="M 9.99609,65.418 C 9.99609,35.1875 34.707,10.4766 64.9375,10.4766 H 1287.24 c 30.15,0 54.86,24.7109 54.86,54.9414 V 1891.94 c 0,30.22 -24.71,54.94 -54.86,54.94 H 64.9375 c -30.2305,0 -54.94141,-24.72 -54.94141,-54.94 V 65.418"
       style="fill:#ffffff;fill-opacity:1;fill-rule:nonzero;stroke:none"
       transform="matrix(0.13333333,0,0,-0.13333333,0,260.85333)" />
    <path
       id="path2"
       d="M 9.99609,65.418 C 9.99609,35.1875 34.707,10.4766 64.9375,10.4766 H 1287.24 c 30.15,0 54.86,24.7109 54.86,54.9414 V 1891.94 c 0,30.22 -24.71,54.94 -54.86,54.94 H 64.9375 c -30.2305,0 -54.94141,-24.72 -54.94141,-54.94 z"
       style="fill:none;stroke:#000000;stroke-width:19.9926;stroke-linecap:butt;stroke-linejoin:miter;stroke-miterlimit:10;stroke-dasharray:none;stroke-opacity:1"
       transform="matrix(0.13333333,0,0,-0.13333333,0,260.85333)" />
    <path
       id="path3"
       d="m 57.2031,1657.77 v 21.48 h 15.168 v 214.48 l -16.8477,-32.67 v 26.45 l 20.3125,40.13 h 17.0625 v -248.39 h 15.2186 v -21.48 H 57.2031"
       style="fill:#e6180a;fill-opacity:1;fill-rule:nonzero;stroke:none"
       transform="matrix(0.13333333,0,0,-0.13333333,0,260.85333)" />
    <path
       id="path4"
       d="m 157.73,1673.39 c 4.333,0 7.293,6.45 8.883,19.36 1.625,12.89 2.438,45.33 2.438,97.29 0,51.6 -0.813,83.98 -2.438,97.12 -1.59,13.14 -4.55,19.7 -8.883,19.7 -4.332,0 -7.312,-6.45 -8.937,-19.35 -1.586,-12.9 -2.383,-45.39 -2.383,-97.47 0,-51.96 0.797,-84.4 2.383,-97.29 1.625,-12.91 4.605,-19.36 8.937,-19.36 m 0,-20.77 c -10.796,0 -19.066,11.77 -24.804,35.33 -5.742,23.68 -8.613,57.7 -8.613,102.09 0,44.39 2.871,78.42 8.613,102.09 5.738,23.67 14.008,35.51 24.804,35.51 10.762,0 19.012,-11.84 24.754,-35.51 5.743,-23.67 8.61,-57.7 8.61,-102.09 0,-44.39 -2.867,-78.41 -8.61,-102.09 -5.742,-23.56 -13.992,-35.33 -24.754,-35.33"
       style="fill:#e6180a;fill-opacity:1;fill-rule:nonzero;stroke:none"
       transform="matrix(0.13333333,0,0,-0.13333333,0,260.85333)" />
    <path
       id="path5"
       d="m 1302.93,307.566 v -21.484 h -15.16 V 71.6094 l 16.84,32.6676 V 77.8203 l -20.31,-40.125 h -17.07 V 286.082 h -15.21 v 21.484 h 50.91"
       style="fill:#e6180a;fill-opacity:1;fill-rule:nonzero;stroke:none"
       transform="matrix(0.13333333,0,0,-0.13333333,0,260.85333)" />
    <path
       id="path6"
       d="m 1202.4,291.941 c -4.33,0 -7.29,-6.449 -8.88,-19.351 -1.63,-12.902 -2.44,-45.332 -2.44,-97.297 0,-51.605 0.81,-83.9766 2.44,-97.1172 1.59,-13.1367 4.55,-19.707 8.88,-19.707 4.33,0 7.31,6.4531 8.94,19.3515 1.59,12.9024 2.38,45.3947 2.38,97.4727 0,51.965 -0.79,84.395 -2.38,97.297 -1.63,12.902 -4.61,19.351 -8.94,19.351 m 0,20.774 c 10.8,0 19.07,-11.777 24.81,-35.332 5.74,-23.672 8.61,-57.703 8.61,-102.09 0,-44.383 -2.87,-78.4141 -8.61,-102.086 -5.74,-23.6718 -14.01,-35.5117 -24.81,-35.5117 -10.76,0 -19.01,11.8399 -24.75,35.5117 -5.74,23.6719 -8.61,57.703 -8.61,102.086 0,44.387 2.87,78.418 8.61,102.09 5.74,23.555 13.99,35.332 24.75,35.332"
       style="fill:#e6180a;fill-opacity:1;fill-rule:nonzero;stroke:none"
       transform="matrix(0.13333333,0,0,-0.13333333,0,260.85333)" />
    <path
       id="path7"
       d="m 180.57,1577.24 c -0.078,-37.67 -47.261,-65.1 -61.093,-94.93 -13.997,29.75 -61.2582,56.94 -61.5786,94.61 -0.082,17.75 13.6758,32.22 30.5469,32.22 16.9527,0 30.7887,-14.31 30.7887,-32.06 0,17.83 13.676,32.22 30.551,32.22 16.953,0.09 30.707,-14.31 30.785,-32.06"
       style="fill:#e6180a;fill-opacity:1;fill-rule:nonzero;stroke:none"
       transform="matrix(0.13333333,0,0,-0.13333333,0,260.85333)" />
    <path
       id="path8"
       d="m 1179.64,388.098 c 0.08,37.664 47.26,65.093 61.1,94.922 13.99,-29.747 61.26,-56.938 61.58,-94.602 0.07,-17.754 -13.68,-32.23 -30.55,-32.23 -16.96,0 -30.79,14.316 -30.79,32.07 0,-17.836 -13.68,-32.231 -30.55,-32.231 -16.95,-0.078 -30.71,14.317 -30.79,32.071"
       style="fill:#e6180a;fill-opacity:1;fill-rule:nonzero;stroke:none"
       transform="matrix(0.13333333,0,0,-0.13333333,0,260.85333)" />
    <path
       id="path9"
       d="m 507.992,1728.34 c -0.191,-90.4 -113.429,-156.23 -146.633,-227.82 -33.589,71.39 -147.019,136.65 -147.785,227.05 -0.195,42.61 32.817,77.34 73.317,77.34 40.687,0 73.89,-34.35 73.89,-76.96 0,42.8 32.821,77.35 73.317,77.35 40.691,0.19 73.703,-34.35 73.894,-76.96"
       style="fill:#e6180a;fill-opacity:1;fill-rule:nonzero;stroke:none"
       transform="matrix(0.13333333,0,0,-0.13333333,0,260.85333)" />
    <path
       id="path10"
       d="m 507.992,1295.25 c -0.191,-90.4 -113.429,-156.23 -146.633,-227.82 -33.589,71.4 -147.019,136.65 -147.785,227.05 -0.195,42.61 32.817,77.35 73.317,77.35 40.687,0 73.89,-34.36 73.89,-76.97 0,42.8 32.821,77.35 73.317,77.35 40.691,0.19 73.703,-34.35 73.894,-76.96"
       style="fill:#e6180a;fill-opacity:1;fill-rule:nonzero;stroke:none"
       transform="matrix(0.13333333,0,0,-0.13333333,0,260.85333)" />
    <path
       id="path11"
       d="m 213.574,703.262 c 0.192,90.398 113.43,156.23 146.633,227.82 33.586,-71.398 147.016,-136.652 147.785,-227.051 0.192,-42.609 -32.82,-77.347 -73.316,-77.347 -40.692,0 -73.895,34.355 -73.895,76.964 0,-42.8 -32.82,-77.347 -73.316,-77.347 -40.688,-0.192 -73.699,34.355 -73.891,76.961"
       style="fill:#e6180a;fill-opacity:1;fill-rule:nonzero;stroke:none"
       transform="matrix(0.13333333,0,0,-0.13333333,0,260.85333)" />
    <path
       id="path12"
       d="m 213.574,270.176 c 0.192,90.398 113.43,156.23 146.633,227.82 33.586,-71.398 147.016,-136.652 147.785,-227.051 0.192,-42.609 -32.82,-77.347 -73.316,-77.347 -40.692,0 -73.895,34.355 -73.895,76.961 0,-42.797 -32.82,-77.344 -73.316,-77.344 -40.688,-0.195 -73.699,34.351 -73.891,76.961"
       style="fill:#e6180a;fill-opacity:1;fill-rule:nonzero;stroke:none"
       transform="matrix(0.13333333,0,0,-0.13333333,0,260.85333)" />
    <path
       id="path13"
       d="m 1146.61,1728.34 c -0.19,-90.4 -113.43,-156.23 -146.633,-227.82 -33.586,71.39 -147.016,136.65 -147.786,227.05 -0.191,42.61 32.821,77.34 73.317,77.34 40.691,0 73.894,-34.35 73.894,-76.96 0,42.8 32.818,77.35 73.318,77.35 40.69,0.19 73.7,-34.35 73.89,-76.96"
       style="fill:#e6180a;fill-opacity:1;fill-rule:nonzero;stroke:none"
       transform="matrix(0.13333333,0,0,-0.13333333,0,260.85333)" />
    <path
       id="path14"
       d="m 1146.61,1295.25 c -0.19,-90.4 -113.43,-156.23 -146.633,-227.82 -33.586,71.4 -147.016,136.65 -147.786,227.05 -0.191,42.61 32.821,77.35 73.317,77.35 40.691,0 73.894,-34.36 73.894,-76.97 0,42.8 32.818,77.35 73.318,77.35 40.69,0.19 73.7,-34.35 73.89,-76.96"
       style="fill:#e6180a;fill-opacity:1;fill-rule:nonzero;stroke:none"
       transform="matrix(0.13333333,0,0,-0.13333333,0,260.85333)" />
    <path
       id="path15"
       d="m 852.195,703.262 c 0.192,90.398 113.43,156.23 146.633,227.82 33.592,-71.398 147.022,-136.652 147.782,-227.051 0.19,-42.609 -32.82,-77.347 -73.31,-77.347 -40.69,0 -73.894,34.355 -73.894,76.964 0,-42.8 -32.82,-77.347 -73.316,-77.347 -40.692,-0.192 -73.703,34.355 -73.895,76.961"
       style="fill:#e6180a;fill-opacity:1;fill-rule:nonzero;stroke:none"
       transform="matrix(0.13333333,0,0,-0.13333333,0,260.85333)" />
    <path
       id="path16"
       d="m 852.195,270.176 c 0.192,90.398 113.43,156.23 146.633,227.82 33.592,-71.398 147.022,-136.652 147.782,-227.051 0.19,-42.609 -32.82,-77.347 -73.31,-77.347 -40.69,0 -73.894,34.355 -73.894,76.961 0,-42.797 -32.82,-77.344 -73.316,-77.344 -40.692,-0.195 -73.703,34.351 -73.895,76.961"
       style="fill:#e6180a;fill-opacity:1;fill-rule:nonzero;stroke:none"
       transform="matrix(0.13333333,0,0,-0.13333333,0,260.85333)" />
    <path
       id="path17"
       d="m 827.297,1511.78 c -0.192,-90.4 -113.43,-156.23 -146.633,-227.82 -33.586,71.4 -147.016,136.66 -147.785,227.06 -0.191,42.6 32.82,77.34 73.316,77.34 40.692,0 73.895,-34.35 73.895,-76.96 0,42.8 32.82,77.35 73.316,77.35 40.688,0.19 73.699,-34.36 73.891,-76.97"
       style="fill:#e6180a;fill-opacity:1;fill-rule:nonzero;stroke:none"
       transform="matrix(0.13333333,0,0,-0.13333333,0,260.85333)" />
    <path
       id="path18"
       d="m 532.883,486.73 c 0.191,90.399 113.43,156.231 146.633,227.821 33.589,-71.399 147.019,-136.656 147.785,-227.055 0.191,-42.605 -32.821,-77.348 -73.317,-77.348 -40.687,0 -73.89,34.356 -73.89,76.965 0,-42.8 -32.821,-77.347 -73.317,-77.347 -40.691,-0.192 -73.703,34.355 -73.894,76.964"
       style="fill:#e6180a;fill-opacity:1;fill-rule:nonzero;stroke:none"
       transform="matrix(0.13333333,0,0,-0.13333333,0,260.85333)" />
  </g>
</svg>
