<?xml version="1.0" encoding="UTF-8" standalone="no"?>
<!-- Created with Inkscape (http://www.inkscape.org/) -->

<svg
   version="1.1"
   id="svg1"
   width="180.27953"
   height="260.85278"
   viewBox="0 0 180.27953 260.85278"
   xmlns="http://www.w3.org/2000/svg"
   xmlns:svg="http://www.w3.org/2000/svg">
  <defs
     id="defs1" />
  <g
     id="g1"
     transform="translate(2.796582e-5,0.06350344)">
    <path
       id="path1"
       d="M 9.99609,65.418 C 9.99609,35.1875 34.707,10.4766 64.9375,10.4766 H 1287.24 c 30.15,0 54.86,24.7109 54.86,54.9414 V 1891.94 c 0,30.23 -24.71,54.94 -54.86,54.94 H 64.9375 c -30.2305,0 -54.94141,-24.71 -54.94141,-54.94 V 65.418"
       style="fill:#ffffff;fill-opacity:1;fill-rule:nonzero;stroke:none"
       transform="matrix(0.13333333,0,0,-0.13333333,0,260.85333)" />
    <path
       id="path2"
       d="M 9.99609,65.418 C 9.99609,35.1875 34.707,10.4766 64.9375,10.4766 H 1287.24 c 30.15,0 54.86,24.7109 54.86,54.9414 V 1891.94 c 0,30.23 -24.71,54.94 -54.86,54.94 H 64.9375 c -30.2305,0 -54.94141,-24.71 -54.94141,-54.94 z"
       style="fill:none;stroke:#000000;stroke-width:19.9926;stroke-linecap:butt;stroke-linejoin:miter;stroke-miterlimit:10;stroke-dasharray:none;stroke-opacity:1"
       transform="matrix(0.13333333,0,0,-0.13333333,0,260.85333)" />
    <path
       id="path3"
       d="m 57.2031,1657.76 v 21.48 h 15.168 v 214.48 l -16.8477,-32.67 v 26.45 l 20.3125,40.13 h 17.0625 v -248.39 h 15.2186 v -21.48 H 57.2031"
       style="fill:#e6180a;fill-opacity:1;fill-rule:nonzero;stroke:none"
       transform="matrix(0.13333333,0,0,-0.13333333,0,260.85333)" />
    <path
       id="path4"
       d="m 157.73,1673.38 c 4.333,0 7.293,6.46 8.883,19.36 1.625,12.9 2.438,45.33 2.438,97.29 0,51.61 -0.813,83.98 -2.438,97.12 -1.59,13.14 -4.55,19.71 -8.883,19.71 -4.332,0 -7.312,-6.45 -8.937,-19.36 -1.586,-12.9 -2.383,-45.39 -2.383,-97.47 0,-51.96 0.797,-84.39 2.383,-97.29 1.625,-12.9 4.605,-19.36 8.937,-19.36 m 0,-20.77 c -10.796,0 -19.066,11.78 -24.804,35.33 -5.742,23.68 -8.613,57.7 -8.613,102.09 0,44.39 2.871,78.42 8.613,102.09 5.738,23.67 14.008,35.51 24.804,35.51 10.762,0 19.012,-11.84 24.754,-35.51 5.743,-23.67 8.61,-57.7 8.61,-102.09 0,-44.39 -2.867,-78.41 -8.61,-102.09 -5.742,-23.55 -13.992,-35.33 -24.754,-35.33"
       style="fill:#e6180a;fill-opacity:1;fill-rule:nonzero;stroke:none"
       transform="matrix(0.13333333,0,0,-0.13333333,0,260.85333)" />
    <path
       id="path5"
       d="m 1302.93,307.566 v -21.484 h -15.16 V 71.6094 l 16.84,32.6676 V 77.8242 L 1284.3,37.6953 h -17.07 V 286.082 h -15.21 v 21.484 h 50.91"
       style="fill:#e6180a;fill-opacity:1;fill-rule:nonzero;stroke:none"
       transform="matrix(0.13333333,0,0,-0.13333333,0,260.85333)" />
    <path
       id="path6"
       d="m 1202.4,291.941 c -4.33,0 -7.29,-6.449 -8.88,-19.351 -1.63,-12.902 -2.44,-45.332 -2.44,-97.293 0,-51.609 0.81,-83.9806 2.44,-97.1212 1.59,-13.1367 4.55,-19.707 8.88,-19.707 4.33,0 7.31,6.4531 8.94,19.3554 1.59,12.8985 2.38,45.3908 2.38,97.4728 0,51.961 -0.79,84.391 -2.38,97.293 -1.63,12.902 -4.61,19.351 -8.94,19.351 m 0,20.774 c 10.8,0 19.07,-11.777 24.81,-35.332 5.74,-23.672 8.61,-57.703 8.61,-102.086 0,-44.387 -2.87,-78.4181 -8.61,-102.09 -5.74,-23.6718 -14.01,-35.5078 -24.81,-35.5117 -10.76,0.0039 -19.01,11.8399 -24.75,35.5117 -5.74,23.6719 -8.61,57.703 -8.61,102.09 0,44.383 2.87,78.414 8.61,102.086 5.74,23.555 13.99,35.332 24.75,35.332"
       style="fill:#e6180a;fill-opacity:1;fill-rule:nonzero;stroke:none"
       transform="matrix(0.13333333,0,0,-0.13333333,0,260.85333)" />
    <path
       id="path7"
       d="m 119.234,1545.8 c 20.473,0 40.946,0 61.418,0 -6.996,0.31 -12.949,4.84 -18.57,8.58 -12.625,9.53 -24.453,20.45 -33.793,33.23 -4.359,6.43 -8.937,13.66 -9.055,21.69 m 61.418,-63.5 c -8.875,-0.28 -16.457,-5.92 -23.222,-11.14 -11.957,-10.03 -22.305,-21.97 -31.039,-34.9 -3.207,-5.35 -6.981,-11.02 -7.157,-17.46 0,21.17 0,42.33 0,63.5 m 0,-63.5 c -0.304,9.46 -6.062,17.65 -11.5,24.96 -9.691,12.07 -21.1754,22.76 -33.8121,31.69 -4.9102,3.06 -10.1211,6.7 -16.1055,6.85 20.4727,0 40.9453,0 61.4176,0 m -61.4176,0 c 8.8789,0.28 16.4609,5.93 23.2266,11.13 11.9531,10.05 22.301,21.99 31.035,34.91 3.207,5.35 6.977,11.02 7.156,17.46 0,-21.17 0,-42.33 0,-63.5"
       style="fill:#e6180a;fill-opacity:1;fill-rule:nonzero;stroke:none"
       transform="matrix(0.13333333,0,0,-0.13333333,0,260.85333)" />
    <path
       id="path8"
       d="m 1240.98,419.523 c -20.48,0 -40.95,0 -61.42,0 6.99,-0.308 12.95,-4.835 18.57,-8.578 12.63,-9.527 24.46,-20.449 33.8,-33.23 4.36,-6.43 8.93,-13.656 9.05,-21.688 m -61.42,63.496 c 8.88,0.282 16.46,5.93 23.23,11.141 11.95,10.035 22.3,21.977 31.03,34.899 3.21,5.351 6.98,11.019 7.16,17.457 0,-21.168 0,-42.329 0,-63.497 m 0,63.497 c 0.3,-9.45 6.06,-17.641 11.5,-24.95 9.69,-12.074 21.17,-22.757 33.81,-31.691 4.91,-3.063 10.12,-6.707 16.1,-6.856 -20.47,0 -40.94,0 -61.41,0 m 61.41,0 c -8.87,-0.277 -16.45,-5.925 -23.22,-11.128 -11.96,-10.047 -22.3,-21.985 -31.03,-34.911 -3.21,-5.347 -6.98,-11.019 -7.16,-17.457 0,21.168 0,42.328 0,63.496"
       style="fill:#e6180a;fill-opacity:1;fill-rule:nonzero;stroke:none"
       transform="matrix(0.13333333,0,0,-0.13333333,0,260.85333)" />
    <path
       id="path9"
       d="m 360.781,1652.9 c 49.133,0 98.27,0 147.403,0 -16.789,0.75 -31.075,11.62 -44.567,20.59 -30.304,22.87 -58.691,49.08 -81.109,79.75 -10.461,15.43 -21.449,32.78 -21.727,52.05 M 508.184,1652.9 c -21.305,-0.67 -39.5,-14.22 -55.739,-26.73 -28.691,-24.09 -53.527,-52.74 -74.484,-83.76 -7.699,-12.84 -16.758,-26.45 -17.18,-41.9 0,50.8 0,101.59 0,152.39 m 0,-152.39 c -0.73,22.69 -14.547,42.34 -27.597,59.88 -23.262,28.99 -50.825,54.63 -81.149,76.06 -11.785,7.35 -24.297,16.1 -38.656,16.45 49.137,0 98.269,0 147.402,0 m -147.402,0 c 21.305,0.67 39.5,14.23 55.738,26.72 28.692,24.11 53.528,52.76 74.488,83.77 7.696,12.84 16.747,26.45 17.176,41.9 0,-50.8 0,-101.58 0,-152.39"
       style="fill:#e6180a;fill-opacity:1;fill-rule:nonzero;stroke:none"
       transform="matrix(0.13333333,0,0,-0.13333333,0,260.85333)" />
    <path
       id="path10"
       d="m 360.781,1219.81 c 49.133,0 98.27,0 147.403,0 -16.789,0.75 -31.075,11.62 -44.567,20.59 -30.304,22.87 -58.691,49.08 -81.109,79.75 -10.461,15.44 -21.449,32.78 -21.727,52.05 m 147.403,-152.39 c -21.305,-0.67 -39.5,-14.22 -55.739,-26.73 -28.691,-24.09 -53.527,-52.74 -74.484,-83.76 -7.699,-12.84 -16.758,-26.45 -17.18,-41.9 0,50.81 0,101.59 0,152.39 m 0,-152.39 c -0.73,22.69 -14.547,42.34 -27.597,59.88 -23.262,28.99 -50.825,54.63 -81.149,76.07 -11.785,7.34 -24.297,16.09 -38.656,16.44 49.137,0 98.269,0 147.402,0 m -147.402,0 c 21.305,0.67 39.5,14.23 55.738,26.72 28.692,24.11 53.528,52.76 74.488,83.78 7.696,12.84 16.747,26.44 17.176,41.89 0,-50.8 0,-101.58 0,-152.39"
       style="fill:#e6180a;fill-opacity:1;fill-rule:nonzero;stroke:none"
       transform="matrix(0.13333333,0,0,-0.13333333,0,260.85333)" />
    <path
       id="path11"
       d="m 360.781,778.699 c -49.133,0 -98.265,0 -147.402,0 16.789,-0.75 31.074,-11.613 44.566,-20.59 30.309,-22.863 58.692,-49.082 81.11,-79.75 10.461,-15.433 21.449,-32.785 21.726,-52.054 M 213.379,778.699 c 21.305,0.672 39.5,14.227 55.738,26.735 28.692,24.086 53.528,52.742 74.488,83.757 7.696,12.84 16.754,26.45 17.176,41.899 0,-50.805 0,-101.59 0,-152.391 m 0,152.391 c 0.731,-22.688 14.547,-42.34 27.602,-59.883 23.262,-28.98 50.82,-54.621 81.144,-76.062 11.786,-7.348 24.301,-16.09 38.657,-16.446 -49.133,0 -98.27,0 -147.403,0 m 147.403,0 c -21.305,-0.672 -39.5,-14.222 -55.739,-26.719 -28.691,-24.105 -53.527,-52.761 -74.484,-83.777 -7.699,-12.84 -16.746,-26.445 -17.18,-41.898 0,50.804 0,101.59 0,152.394"
       style="fill:#e6180a;fill-opacity:1;fill-rule:nonzero;stroke:none"
       transform="matrix(0.13333333,0,0,-0.13333333,0,260.85333)" />
    <path
       id="path12"
       d="m 360.781,345.609 c -49.133,0 -98.265,0 -147.402,0 16.789,-0.75 31.074,-11.613 44.566,-20.589 30.309,-22.864 58.692,-49.082 81.11,-79.75 10.461,-15.434 21.449,-32.782 21.726,-52.051 m -147.402,152.39 c 21.305,0.672 39.5,14.227 55.738,26.735 28.692,24.09 53.528,52.742 74.488,83.758 7.696,12.839 16.754,26.449 17.176,41.898 0,-50.805 0,-101.586 0,-152.391 m 0,152.391 c 0.731,-22.687 14.547,-42.34 27.602,-59.883 23.262,-28.98 50.82,-54.621 81.144,-76.058 11.786,-7.352 24.301,-16.094 38.657,-16.45 -49.133,0 -98.27,0 -147.403,0 m 147.403,0 c -21.305,-0.671 -39.5,-14.222 -55.739,-26.714 -28.691,-24.11 -53.527,-52.762 -74.484,-83.778 -7.699,-12.84 -16.746,-26.449 -17.18,-41.898 0,50.801 0,101.586 0,152.39"
       style="fill:#e6180a;fill-opacity:1;fill-rule:nonzero;stroke:none"
       transform="matrix(0.13333333,0,0,-0.13333333,0,260.85333)" />
    <path
       id="path13"
       d="m 999.402,1652.9 c 49.138,0 98.268,0 147.398,0 -16.78,0.75 -31.07,11.62 -44.56,20.59 -30.31,22.87 -58.69,49.08 -81.11,79.75 -10.46,15.43 -21.45,32.78 -21.728,52.05 M 1146.8,1652.9 c -21.3,-0.67 -39.5,-14.22 -55.73,-26.73 -28.69,-24.09 -53.53,-52.74 -74.49,-83.76 -7.7,-12.84 -16.756,-26.45 -17.178,-41.9 0,50.8 0,101.59 0,152.39 m 0,-152.39 c -0.73,22.69 -14.547,42.34 -27.601,59.88 -23.262,28.99 -50.821,54.63 -81.145,76.06 -11.785,7.35 -24.301,16.1 -38.656,16.45 49.133,0 98.27,0 147.402,0 m -147.402,0 c 21.305,0.67 39.5,14.23 55.738,26.72 28.692,24.11 53.528,52.76 74.485,83.77 7.699,12.84 16.746,26.45 17.179,41.9 0,-50.8 0,-101.58 0,-152.39"
       style="fill:#e6180a;fill-opacity:1;fill-rule:nonzero;stroke:none"
       transform="matrix(0.13333333,0,0,-0.13333333,0,260.85333)" />
    <path
       id="path14"
       d="m 999.402,1219.81 c 49.138,0 98.268,0 147.398,0 -16.78,0.75 -31.07,11.62 -44.56,20.59 -30.31,22.87 -58.69,49.08 -81.11,79.75 -10.46,15.44 -21.45,32.78 -21.728,52.05 M 1146.8,1219.81 c -21.3,-0.67 -39.5,-14.22 -55.73,-26.73 -28.69,-24.09 -53.53,-52.74 -74.49,-83.76 -7.7,-12.84 -16.756,-26.45 -17.178,-41.9 0,50.81 0,101.59 0,152.39 m 0,-152.39 c -0.73,22.69 -14.547,42.34 -27.601,59.88 -23.262,28.99 -50.821,54.63 -81.145,76.07 -11.785,7.34 -24.301,16.09 -38.656,16.44 49.133,0 98.27,0 147.402,0 m -147.402,0 c 21.305,0.67 39.5,14.23 55.738,26.72 28.692,24.11 53.528,52.76 74.485,83.78 7.699,12.84 16.746,26.44 17.179,41.89 0,-50.8 0,-101.58 0,-152.39"
       style="fill:#e6180a;fill-opacity:1;fill-rule:nonzero;stroke:none"
       transform="matrix(0.13333333,0,0,-0.13333333,0,260.85333)" />
    <path
       id="path15"
       d="m 999.406,778.699 c -49.136,0 -98.269,0 -147.402,0 16.789,-0.75 31.074,-11.613 44.566,-20.59 30.305,-22.863 58.692,-49.082 81.11,-79.75 10.461,-15.433 21.449,-32.785 21.726,-52.054 M 852.004,778.699 c 21.305,0.672 39.5,14.227 55.734,26.735 28.696,24.086 53.532,52.742 74.489,83.757 7.695,12.84 16.757,26.45 17.179,41.899 0,-50.805 0,-101.59 0,-152.391 m 0,152.391 c 0.724,-22.688 14.544,-42.34 27.594,-59.883 23.27,-28.98 50.83,-54.621 81.15,-76.062 11.79,-7.348 24.3,-16.09 38.65,-16.446 -49.13,0 -98.26,0 -147.394,0 m 147.394,0 c -21.3,-0.672 -39.49,-14.222 -55.73,-26.719 -28.69,-24.105 -53.53,-52.761 -74.49,-83.777 -7.69,-12.84 -16.744,-26.445 -17.174,-41.898 0,50.804 0,101.59 0,152.394"
       style="fill:#e6180a;fill-opacity:1;fill-rule:nonzero;stroke:none"
       transform="matrix(0.13333333,0,0,-0.13333333,0,260.85333)" />
    <path
       id="path16"
       d="m 999.406,345.609 c -49.136,0 -98.269,0 -147.402,0 16.789,-0.75 31.074,-11.613 44.566,-20.589 30.305,-22.864 58.692,-49.082 81.11,-79.75 10.461,-15.434 21.449,-32.782 21.726,-52.051 m -147.402,152.39 c 21.305,0.672 39.5,14.227 55.734,26.735 28.696,24.09 53.532,52.742 74.489,83.758 7.695,12.839 16.757,26.449 17.179,41.898 0,-50.805 0,-101.586 0,-152.391 m 0,152.391 c 0.724,-22.687 14.544,-42.34 27.594,-59.883 23.27,-28.98 50.83,-54.621 81.15,-76.058 11.79,-7.352 24.3,-16.094 38.65,-16.45 -49.13,0 -98.26,0 -147.394,0 m 147.394,0 c -21.3,-0.671 -39.49,-14.222 -55.73,-26.714 -28.69,-24.11 -53.53,-52.762 -74.49,-83.778 -7.69,-12.84 -16.744,-26.449 -17.174,-41.898 0,50.801 0,101.586 0,152.39"
       style="fill:#e6180a;fill-opacity:1;fill-rule:nonzero;stroke:none"
       transform="matrix(0.13333333,0,0,-0.13333333,0,260.85333)" />
    <path
       id="path17"
       d="m 680.09,1436.36 c 49.133,0 98.265,0 147.398,0 -16.785,0.75 -31.07,11.61 -44.562,20.59 -30.309,22.86 -58.692,49.08 -81.11,79.75 -10.461,15.43 -21.449,32.78 -21.726,52.05 m 147.398,-152.39 c -21.3,-0.67 -39.496,-14.23 -55.734,-26.73 -28.691,-24.09 -53.527,-52.75 -74.488,-83.76 -7.696,-12.84 -16.754,-26.45 -17.176,-41.9 0,50.8 0,101.58 0,152.39 m 0,-152.39 c -0.731,22.68 -14.551,42.34 -27.602,59.88 -23.261,28.98 -50.82,54.62 -81.144,76.06 -11.785,7.35 -24.301,16.09 -38.656,16.45 49.132,0 98.269,0 147.402,0 m -147.402,0 c 21.304,0.67 39.5,14.22 55.734,26.71 28.695,24.11 53.531,52.77 74.488,83.78 7.699,12.84 16.746,26.45 17.18,41.9 0,-50.8 0,-101.59 0,-152.39"
       style="fill:#e6180a;fill-opacity:1;fill-rule:nonzero;stroke:none"
       transform="matrix(0.13333333,0,0,-0.13333333,0,260.85333)" />
    <path
       id="path18"
       d="m 680.094,562.152 c -49.133,0 -98.27,0 -147.403,0 16.789,-0.75 31.075,-11.613 44.567,-20.589 30.305,-22.864 58.691,-49.079 81.109,-79.75 10.461,-15.43 21.449,-32.782 21.727,-52.051 m -147.403,152.39 c 21.305,0.672 39.5,14.227 55.735,26.735 28.695,24.09 53.531,52.742 74.488,83.758 7.699,12.839 16.758,26.449 17.18,41.898 0,-50.801 0,-101.586 0,-152.391 m 0,152.391 c 0.726,-22.684 14.547,-42.34 27.597,-59.879 23.262,-28.984 50.825,-54.625 81.149,-76.062 11.785,-7.352 24.297,-16.094 38.652,-16.45 -49.133,0 -98.265,0 -147.398,0 m 147.398,0 C 806.191,561.48 787.996,547.93 771.758,535.438 743.066,511.328 718.23,482.676 697.27,451.66 c -7.696,-12.84 -16.747,-26.449 -17.176,-41.898 0,50.804 0,101.586 0,152.39"
       style="fill:#e6180a;fill-opacity:1;fill-rule:nonzero;stroke:none"
       transform="matrix(0.13333333,0,0,-0.13333333,0,260.85333)" />
  </g>
</svg>
