<?xml version="1.0" encoding="UTF-8" standalone="no"?>
<!-- Created with Inkscape (http://www.inkscape.org/) -->

<svg
   version="1.1"
   id="svg1"
   width="180.27953"
   height="260.85278"
   viewBox="0 0 180.27953 260.85278"
   xmlns="http://www.w3.org/2000/svg"
   xmlns:svg="http://www.w3.org/2000/svg">
  <defs
     id="defs1" />
  <g
     id="g1"
     transform="translate(2.796582e-5,0.06350344)">
    <path
       id="path1"
       d="M 9.99609,65.418 C 9.99609,35.1875 34.707,10.4766 64.9375,10.4766 H 1287.24 c 30.15,0 54.86,24.7109 54.86,54.9414 V 1891.94 c 0,30.22 -24.71,54.94 -54.86,54.94 H 64.9375 c -30.2305,0 -54.94141,-24.72 -54.94141,-54.94 V 65.418"
       style="fill:#ffffff;fill-opacity:1;fill-rule:nonzero;stroke:none"
       transform="matrix(0.13333333,0,0,-0.13333333,0,260.85333)" />
    <path
       id="path2"
       d="M 9.99609,65.418 C 9.99609,35.1875 34.707,10.4766 64.9375,10.4766 H 1287.24 c 30.15,0 54.86,24.7109 54.86,54.9414 V 1891.94 c 0,30.22 -24.71,54.94 -54.86,54.94 H 64.9375 c -30.2305,0 -54.94141,-24.72 -54.94141,-54.94 z"
       style="fill:none;stroke:#000000;stroke-width:19.9926;stroke-linecap:butt;stroke-linejoin:miter;stroke-miterlimit:10;stroke-dasharray:none;stroke-opacity:1"
       transform="matrix(0.13333333,0,0,-0.13333333,0,260.85333)" />
    <path
       id="path3"
       d="m 57.2031,1657.76 v 21.48 h 15.168 v 214.48 l -16.8477,-32.67 v 26.45 l 20.3125,40.13 h 17.0625 v -248.39 h 15.2186 v -21.48 H 57.2031"
       style="fill:#000000;fill-opacity:1;fill-rule:nonzero;stroke:none"
       transform="matrix(0.13333333,0,0,-0.13333333,0,260.85333)" />
    <path
       id="path4"
       d="m 157.73,1673.38 c 4.333,0 7.293,6.46 8.883,19.36 1.625,12.9 2.438,45.33 2.438,97.29 0,51.61 -0.813,83.98 -2.438,97.12 -1.59,13.14 -4.55,19.71 -8.883,19.71 -4.332,0 -7.312,-6.45 -8.937,-19.36 -1.586,-12.9 -2.383,-45.39 -2.383,-97.47 0,-51.96 0.797,-84.39 2.383,-97.29 1.625,-12.9 4.605,-19.36 8.937,-19.36 m 0,-20.77 c -10.796,0 -19.066,11.78 -24.804,35.33 -5.742,23.68 -8.613,57.7 -8.613,102.09 0,44.39 2.871,78.42 8.613,102.09 5.738,23.67 14.008,35.51 24.804,35.51 10.762,0 19.012,-11.84 24.754,-35.51 5.743,-23.67 8.61,-57.7 8.61,-102.09 0,-44.39 -2.867,-78.41 -8.61,-102.09 -5.742,-23.55 -13.992,-35.33 -24.754,-35.33"
       style="fill:#000000;fill-opacity:1;fill-rule:nonzero;stroke:none"
       transform="matrix(0.13333333,0,0,-0.13333333,0,260.85333)" />
    <path
       id="path5"
       d="m 1302.93,307.566 v -21.484 h -15.16 V 71.6094 l 16.84,32.6676 V 77.8203 l -20.31,-40.125 h -17.07 V 286.082 h -15.21 v 21.484 h 50.91"
       style="fill:#000000;fill-opacity:1;fill-rule:nonzero;stroke:none"
       transform="matrix(0.13333333,0,0,-0.13333333,0,260.85333)" />
    <path
       id="path6"
       d="m 1202.4,291.941 c -4.33,0 -7.29,-6.449 -8.88,-19.351 -1.63,-12.902 -2.44,-45.332 -2.44,-97.297 0,-51.605 0.81,-83.9766 2.44,-97.1172 1.59,-13.1367 4.55,-19.707 8.88,-19.707 4.33,0 7.31,6.4531 8.94,19.3515 1.59,12.9024 2.38,45.3947 2.38,97.4727 0,51.965 -0.79,84.395 -2.38,97.297 -1.63,12.902 -4.61,19.351 -8.94,19.351 m 0,20.774 c 10.8,0 19.07,-11.777 24.81,-35.332 5.74,-23.672 8.61,-57.703 8.61,-102.09 0,-44.383 -2.87,-78.4141 -8.61,-102.086 -5.74,-23.6718 -14.01,-35.5117 -24.81,-35.5117 -10.76,0 -19.01,11.8399 -24.75,35.5117 -5.74,23.6719 -8.61,57.703 -8.61,102.086 0,44.387 2.87,78.418 8.61,102.09 5.74,23.555 13.99,35.332 24.75,35.332"
       style="fill:#000000;fill-opacity:1;fill-rule:nonzero;stroke:none"
       transform="matrix(0.13333333,0,0,-0.13333333,0,260.85333)" />
    <path
       id="path7"
       d="m 87.8867,1482.39 c 13.3553,0 20.3903,14.23 24.0703,28.47 3.68,14.23 4,28.46 4,28.46 l 6.797,0.09 c 0,0 1.277,-57.02 27.988,-57.02 H 87.8867"
       style="fill:#000000;fill-opacity:1;fill-rule:nonzero;stroke:none"
       transform="matrix(0.13333333,0,0,-0.13333333,0,260.85333)" />
    <path
       id="path8"
       d="m 65.2539,1539.41 c 0.082,27.74 41.7461,47.89 53.9801,69.81 12.235,-21.99 53.903,-42.15 53.981,-69.81 0,-13.12 -12.074,-23.76 -27.031,-23.76 -14.875,0 -26.95,10.64 -26.95,23.76 0,-13.12 -12.074,-23.76 -27.0309,-23.76 -14.9531,0 -26.9492,10.64 -26.9492,23.76"
       style="fill:#000000;fill-opacity:1;fill-rule:nonzero;stroke:none"
       transform="matrix(0.13333333,0,0,-0.13333333,0,260.85333)" />
    <path
       id="path9"
       d="m 1272.33,482.941 c -13.36,0 -20.4,-14.234 -24.08,-28.468 -3.67,-14.235 -3.99,-28.469 -3.99,-28.469 l -6.8,-0.082 c 0,0 -1.28,57.019 -27.99,57.019 h 62.86"
       style="fill:#000000;fill-opacity:1;fill-rule:nonzero;stroke:none"
       transform="matrix(0.13333333,0,0,-0.13333333,0,260.85333)" />
    <path
       id="path10"
       d="m 1294.96,425.922 c -0.08,-27.75 -41.75,-47.902 -53.98,-69.813 -12.24,21.993 -53.9,42.145 -53.98,69.813 0,13.117 12.07,23.75 27.03,23.75 14.87,0 26.95,-10.633 26.95,-23.75 0,13.117 12.07,23.75 27.03,23.75 14.95,0 26.95,-10.633 26.95,-23.75"
       style="fill:#000000;fill-opacity:1;fill-rule:nonzero;stroke:none"
       transform="matrix(0.13333333,0,0,-0.13333333,0,260.85333)" />
    <path
       id="path11"
       d="m 285.547,1500.71 c 32.051,0 48.941,34.17 57.769,68.33 8.829,34.16 9.598,68.32 9.598,68.32 l 16.313,0.2 c 0,0 3.07,-136.85 67.175,-136.85 H 285.547"
       style="fill:#000000;fill-opacity:1;fill-rule:nonzero;stroke:none"
       transform="matrix(0.13333333,0,0,-0.13333333,0,260.85333)" />
    <path
       id="path12"
       d="m 231.23,1637.56 c 0.192,66.6 100.188,114.96 129.551,167.55 29.367,-52.78 129.36,-101.15 129.551,-167.55 0,-31.48 -28.98,-57.01 -64.871,-57.01 -35.699,0 -64.68,25.53 -64.68,57.01 0,-31.48 -28.98,-57.01 -64.871,-57.01 -35.89,0 -64.68,25.53 -64.68,57.01"
       style="fill:#000000;fill-opacity:1;fill-rule:nonzero;stroke:none"
       transform="matrix(0.13333333,0,0,-0.13333333,0,260.85333)" />
    <path
       id="path13"
       d="m 285.547,1067.63 c 32.051,0 48.941,34.16 57.769,68.32 8.829,34.16 9.598,68.33 9.598,68.33 l 16.313,0.19 c 0,0 3.07,-136.84 67.175,-136.84 H 285.547"
       style="fill:#000000;fill-opacity:1;fill-rule:nonzero;stroke:none"
       transform="matrix(0.13333333,0,0,-0.13333333,0,260.85333)" />
    <path
       id="path14"
       d="m 231.23,1204.47 c 0.192,66.6 100.188,114.96 129.551,167.55 29.367,-52.78 129.36,-101.14 129.551,-167.55 0,-31.48 -28.98,-57 -64.871,-57 -35.699,0 -64.68,25.52 -64.68,57 0,-31.48 -28.98,-57 -64.871,-57 -35.89,0 -64.68,25.52 -64.68,57"
       style="fill:#000000;fill-opacity:1;fill-rule:nonzero;stroke:none"
       transform="matrix(0.13333333,0,0,-0.13333333,0,260.85333)" />
    <path
       id="path15"
       d="m 436.02,930.895 c -32.055,0 -48.946,-34.165 -57.774,-68.329 -8.828,-34.164 -9.594,-68.328 -9.594,-68.328 l -16.316,-0.191 c 0,0 -3.07,136.848 -67.176,136.848 h 150.86"
       style="fill:#000000;fill-opacity:1;fill-rule:nonzero;stroke:none"
       transform="matrix(0.13333333,0,0,-0.13333333,0,260.85333)" />
    <path
       id="path16"
       d="M 490.332,794.047 C 490.141,727.449 390.148,679.082 360.781,626.492 331.418,679.273 231.422,727.641 231.23,794.047 c 0,31.476 28.981,57.004 64.872,57.004 35.699,0 64.679,-25.528 64.679,-57.004 0,31.476 28.981,57.004 64.871,57.004 35.891,0 64.68,-25.528 64.68,-57.004"
       style="fill:#000000;fill-opacity:1;fill-rule:nonzero;stroke:none"
       transform="matrix(0.13333333,0,0,-0.13333333,0,260.85333)" />
    <path
       id="path17"
       d="m 436.02,497.805 c -32.055,0 -48.946,-34.164 -57.774,-68.325 -8.828,-34.164 -9.594,-68.328 -9.594,-68.328 l -16.316,-0.191 c 0,0 -3.07,136.844 -67.176,136.844 h 150.86"
       style="fill:#000000;fill-opacity:1;fill-rule:nonzero;stroke:none"
       transform="matrix(0.13333333,0,0,-0.13333333,0,260.85333)" />
    <path
       id="path18"
       d="M 490.332,360.961 C 490.141,294.359 390.148,245.996 360.781,193.406 331.418,246.188 231.422,294.555 231.23,360.961 c 0,31.477 28.981,57.004 64.872,57.004 35.699,0 64.679,-25.527 64.679,-57.004 0,31.477 28.981,57.004 64.871,57.004 35.891,0 64.68,-25.527 64.68,-57.004"
       style="fill:#000000;fill-opacity:1;fill-rule:nonzero;stroke:none"
       transform="matrix(0.13333333,0,0,-0.13333333,0,260.85333)" />
    <path
       id="path19"
       d="m 924.164,1500.71 c 32.055,0 48.945,34.17 57.774,68.33 8.828,34.16 9.593,68.32 9.593,68.32 l 16.319,0.2 c 0,0 3.07,-136.85 67.17,-136.85 H 924.164"
       style="fill:#000000;fill-opacity:1;fill-rule:nonzero;stroke:none"
       transform="matrix(0.13333333,0,0,-0.13333333,0,260.85333)" />
    <path
       id="path20"
       d="m 869.852,1637.56 c 0.191,66.6 100.183,114.96 129.55,167.55 29.368,-52.78 129.358,-101.15 129.548,-167.55 0,-31.48 -28.98,-57.01 -64.87,-57.01 -35.7,0 -64.678,25.53 -64.678,57.01 0,-31.48 -28.98,-57.01 -64.871,-57.01 -35.89,0 -64.679,25.53 -64.679,57.01"
       style="fill:#000000;fill-opacity:1;fill-rule:nonzero;stroke:none"
       transform="matrix(0.13333333,0,0,-0.13333333,0,260.85333)" />
    <path
       id="path21"
       d="m 924.164,1067.63 c 32.055,0 48.945,34.16 57.774,68.32 8.828,34.16 9.593,68.33 9.593,68.33 l 16.319,0.19 c 0,0 3.07,-136.84 67.17,-136.84 H 924.164"
       style="fill:#000000;fill-opacity:1;fill-rule:nonzero;stroke:none"
       transform="matrix(0.13333333,0,0,-0.13333333,0,260.85333)" />
    <path
       id="path22"
       d="m 869.852,1204.47 c 0.191,66.6 100.183,114.96 129.55,167.55 29.368,-52.78 129.358,-101.14 129.548,-167.55 0,-31.48 -28.98,-57 -64.87,-57 -35.7,0 -64.678,25.52 -64.678,57 0,-31.48 -28.98,-57 -64.871,-57 -35.89,0 -64.679,25.52 -64.679,57"
       style="fill:#000000;fill-opacity:1;fill-rule:nonzero;stroke:none"
       transform="matrix(0.13333333,0,0,-0.13333333,0,260.85333)" />
    <path
       id="path23"
       d="m 1074.64,930.895 c -32.05,0 -48.94,-34.165 -57.77,-68.329 -8.83,-34.164 -9.6,-68.328 -9.6,-68.328 l -16.309,-0.191 c 0,0 -3.07,136.848 -67.176,136.848 h 150.855"
       style="fill:#000000;fill-opacity:1;fill-rule:nonzero;stroke:none"
       transform="matrix(0.13333333,0,0,-0.13333333,0,260.85333)" />
    <path
       id="path24"
       d="m 1128.96,794.047 c -0.19,-66.598 -100.19,-114.965 -129.554,-167.555 -29.367,52.781 -129.359,101.149 -129.554,167.555 0,31.476 28.984,57.004 64.875,57.004 35.695,0 64.679,-25.528 64.679,-57.004 0,31.476 28.984,57.004 64.874,57.004 35.89,0 64.68,-25.528 64.68,-57.004"
       style="fill:#000000;fill-opacity:1;fill-rule:nonzero;stroke:none"
       transform="matrix(0.13333333,0,0,-0.13333333,0,260.85333)" />
    <path
       id="path25"
       d="m 1074.64,497.805 c -32.05,0 -48.94,-34.164 -57.77,-68.325 -8.83,-34.164 -9.6,-68.328 -9.6,-68.328 l -16.309,-0.191 c 0,0 -3.07,136.844 -67.176,136.844 h 150.855"
       style="fill:#000000;fill-opacity:1;fill-rule:nonzero;stroke:none"
       transform="matrix(0.13333333,0,0,-0.13333333,0,260.85333)" />
    <path
       id="path26"
       d="m 1128.96,360.961 c -0.19,-66.602 -100.19,-114.965 -129.554,-167.555 -29.367,52.782 -129.359,101.149 -129.554,167.555 0,31.477 28.984,57.004 64.875,57.004 35.695,0 64.679,-25.527 64.679,-57.004 0,31.477 28.984,57.004 64.874,57.004 35.89,0 64.68,-25.527 64.68,-57.004"
       style="fill:#000000;fill-opacity:1;fill-rule:nonzero;stroke:none"
       transform="matrix(0.13333333,0,0,-0.13333333,0,260.85333)" />
    <path
       id="path27"
       d="m 604.852,1284.15 c 32.054,0 48.941,34.17 57.773,68.33 8.828,34.16 9.594,68.32 9.594,68.32 l 16.316,0.2 c 0,0 3.07,-136.85 67.172,-136.85 H 604.852"
       style="fill:#000000;fill-opacity:1;fill-rule:nonzero;stroke:none"
       transform="matrix(0.13333333,0,0,-0.13333333,0,260.85333)" />
    <path
       id="path28"
       d="m 550.535,1421 c 0.195,66.6 100.188,114.96 129.555,167.55 29.363,-52.78 129.359,-101.14 129.551,-167.55 0,-31.48 -28.981,-57 -64.871,-57 -35.7,0 -64.68,25.52 -64.68,57 0,-31.48 -28.981,-57 -64.871,-57 -35.891,0 -64.684,25.52 -64.684,57"
       style="fill:#000000;fill-opacity:1;fill-rule:nonzero;stroke:none"
       transform="matrix(0.13333333,0,0,-0.13333333,0,260.85333)" />
    <path
       id="path29"
       d="m 755.328,714.359 c -32.051,0 -48.941,-34.164 -57.769,-68.328 -8.829,-34.164 -9.598,-68.324 -9.598,-68.324 l -16.313,-0.195 c 0,0 -3.07,136.847 -67.175,136.847 h 150.855"
       style="fill:#000000;fill-opacity:1;fill-rule:nonzero;stroke:none"
       transform="matrix(0.13333333,0,0,-0.13333333,0,260.85333)" />
    <path
       id="path30"
       d="M 809.645,577.512 C 809.453,510.914 709.457,462.547 680.094,409.961 c -29.367,52.777 -129.36,101.144 -129.555,167.551 0,31.476 28.984,57.004 64.875,57.004 35.699,0 64.68,-25.528 64.68,-57.004 0,31.476 28.98,57.004 64.871,57.004 35.89,0 64.68,-25.528 64.68,-57.004"
       style="fill:#000000;fill-opacity:1;fill-rule:nonzero;stroke:none"
       transform="matrix(0.13333333,0,0,-0.13333333,0,260.85333)" />
  </g>
</svg>
