<?xml version="1.0" encoding="UTF-8" standalone="no"?>
<!-- Created with Inkscape (http://www.inkscape.org/) -->

<svg
   version="1.1"
   id="svg1"
   width="180.27953"
   height="260.85278"
   viewBox="0 0 180.27953 260.85278"
   xmlns="http://www.w3.org/2000/svg"
   xmlns:svg="http://www.w3.org/2000/svg">
  <defs
     id="defs1" />
  <g
     id="g1"
     transform="translate(2.796582e-5,0.06350344)">
    <path
       id="path1"
       d="M 9.99609,65.418 C 9.99609,35.1875 34.707,10.4766 64.9375,10.4766 H 1287.24 c 30.15,0 54.86,24.7109 54.86,54.9414 V 1891.94 c 0,30.22 -24.71,54.94 -54.86,54.94 H 64.9375 c -30.2305,0 -54.94141,-24.72 -54.94141,-54.94 V 65.418"
       style="fill:#ffffff;fill-opacity:1;fill-rule:nonzero;stroke:none"
       transform="matrix(0.13333333,0,0,-0.13333333,0,260.85333)" />
    <path
       id="path2"
       d="M 9.99609,65.418 C 9.99609,35.1875 34.707,10.4766 64.9375,10.4766 H 1287.24 c 30.15,0 54.86,24.7109 54.86,54.9414 V 1891.94 c 0,30.22 -24.71,54.94 -54.86,54.94 H 64.9375 c -30.2305,0 -54.94141,-24.72 -54.94141,-54.94 z"
       style="fill:none;stroke:#000000;stroke-width:19.9926;stroke-linecap:butt;stroke-linejoin:miter;stroke-miterlimit:10;stroke-dasharray:none;stroke-opacity:1"
       transform="matrix(0.13333333,0,0,-0.13333333,0,260.85333)" />
    <path
       id="path3"
       d="m 57.2031,1657.76 v 21.48 h 15.168 v 214.48 l -16.8477,-32.67 v 26.45 l 20.3125,40.13 h 17.0625 v -248.39 h 15.2186 v -21.48 H 57.2031"
       style="fill:#000000;fill-opacity:1;fill-rule:nonzero;stroke:none"
       transform="matrix(0.13333333,0,0,-0.13333333,0,260.85333)" />
    <path
       id="path4"
       d="m 157.73,1673.38 c 4.333,0 7.293,6.46 8.883,19.36 1.625,12.9 2.438,45.33 2.438,97.29 0,51.61 -0.813,83.98 -2.438,97.12 -1.59,13.14 -4.55,19.71 -8.883,19.71 -4.332,0 -7.312,-6.45 -8.937,-19.36 -1.586,-12.9 -2.383,-45.39 -2.383,-97.47 0,-51.96 0.797,-84.39 2.383,-97.29 1.625,-12.9 4.605,-19.36 8.937,-19.36 m 0,-20.77 c -10.796,0 -19.066,11.78 -24.804,35.33 -5.742,23.68 -8.613,57.7 -8.613,102.09 0,44.39 2.871,78.42 8.613,102.09 5.738,23.67 14.008,35.51 24.804,35.51 10.762,0 19.012,-11.84 24.754,-35.51 5.743,-23.67 8.61,-57.7 8.61,-102.09 0,-44.39 -2.867,-78.41 -8.61,-102.09 -5.742,-23.55 -13.992,-35.33 -24.754,-35.33"
       style="fill:#000000;fill-opacity:1;fill-rule:nonzero;stroke:none"
       transform="matrix(0.13333333,0,0,-0.13333333,0,260.85333)" />
    <path
       id="path5"
       d="m 1302.93,307.566 v -21.484 h -15.16 V 71.6094 l 16.84,32.6676 V 77.8203 l -20.31,-40.125 h -17.07 V 286.082 h -15.21 v 21.484 h 50.91"
       style="fill:#000000;fill-opacity:1;fill-rule:nonzero;stroke:none"
       transform="matrix(0.13333333,0,0,-0.13333333,0,260.85333)" />
    <path
       id="path6"
       d="m 1202.4,291.941 c -4.33,0 -7.29,-6.449 -8.88,-19.351 -1.63,-12.902 -2.44,-45.332 -2.44,-97.297 0,-51.605 0.81,-83.9766 2.44,-97.1172 1.59,-13.1367 4.55,-19.707 8.88,-19.707 4.33,0 7.31,6.4531 8.94,19.3515 1.59,12.9024 2.38,45.3947 2.38,97.4727 0,51.965 -0.79,84.395 -2.38,97.297 -1.63,12.902 -4.61,19.351 -8.94,19.351 m 0,20.774 c 10.8,0 19.07,-11.777 24.81,-35.332 5.74,-23.672 8.61,-57.703 8.61,-102.09 0,-44.387 -2.87,-78.4141 -8.61,-102.086 -5.74,-23.6757 -14.01,-35.5117 -24.81,-35.5117 -10.76,0 -19.01,11.836 -24.75,35.5117 -5.74,23.6719 -8.61,57.699 -8.61,102.086 0,44.387 2.87,78.418 8.61,102.09 5.74,23.555 13.99,35.332 24.75,35.332"
       style="fill:#000000;fill-opacity:1;fill-rule:nonzero;stroke:none"
       transform="matrix(0.13333333,0,0,-0.13333333,0,260.85333)" />
    <path
       id="path7"
       d="m 92.4453,1583.07 c 0,-14.48 12.0747,-26.23 27.0317,-26.23 14.953,0 27.027,11.75 27.027,26.23 0,14.47 -12.074,26.23 -27.027,26.23 -14.957,0 -27.0317,-11.76 -27.0317,-26.23"
       style="fill:#000000;fill-opacity:1;fill-rule:nonzero;stroke:none"
       transform="matrix(0.13333333,0,0,-0.13333333,0,260.85333)" />
    <path
       id="path8"
       d="m 57.5781,1533.41 c 0,-14.48 12.0742,-26.23 27.0313,-26.23 14.9531,0 27.0276,11.75 27.0276,26.23 0,14.47 -12.0745,26.23 -27.0276,26.23 -14.9571,0 -27.0313,-11.76 -27.0313,-26.23"
       style="fill:#000000;fill-opacity:1;fill-rule:nonzero;stroke:none"
       transform="matrix(0.13333333,0,0,-0.13333333,0,260.85333)" />
    <path
       id="path9"
       d="m 126.832,1533.25 c 0,-5.28 1.598,-10.24 4.398,-14.4 4.797,-7.12 13.196,-11.83 22.633,-11.83 14.953,0 27.028,11.75 27.028,26.23 0,14.47 -12.075,26.23 -27.028,26.23 -14.957,0 -27.031,-11.76 -27.031,-26.23"
       style="fill:#000000;fill-opacity:1;fill-rule:nonzero;stroke:none"
       transform="matrix(0.13333333,0,0,-0.13333333,0,260.85333)" />
    <path
       id="path10"
       d="m 87.7266,1482.3 c 13.3554,0 20.3904,10.88 24.0704,21.76 3.68,10.87 4,21.75 4,21.75 h 6.875 c 0,0 1.281,-43.42 27.992,-43.51 H 87.7266"
       style="fill:#000000;fill-opacity:1;fill-rule:nonzero;stroke:none"
       transform="matrix(0.13333333,0,0,-0.13333333,0,260.85333)" />
    <path
       id="path11"
       d="m 137.789,1563.79 c -15.195,-15.19 -15.195,-37.98 -15.195,-37.98 l -6.797,-0.08 c 0,0 0,23.27 -14.797,38.06"
       style="fill:#000000;fill-opacity:1;fill-rule:nonzero;stroke:none"
       transform="matrix(0.13333333,0,0,-0.13333333,0,260.85333)" />
    <path
       id="path12"
       d="m 134.75,1515.01 c -15.195,15.2 -37.9883,15.2 -37.9883,15.2 v 6.79 c 0,0 23.2733,0 38.0663,14.8"
       style="fill:#000000;fill-opacity:1;fill-rule:nonzero;stroke:none"
       transform="matrix(0.13333333,0,0,-0.13333333,0,260.85333)" />
    <path
       id="path13"
       d="m 104.281,1514.93 c 15.196,15.2 37.985,15.2 37.985,15.2 v 6.8 c 0,0 -23.27,0 -38.067,14.79"
       style="fill:#000000;fill-opacity:1;fill-rule:nonzero;stroke:none"
       transform="matrix(0.13333333,0,0,-0.13333333,0,260.85333)" />
    <path
       id="path14"
       d="m 1267.77,382.258 c 0,14.476 -12.08,26.23 -27.03,26.23 -14.95,0 -27.03,-11.754 -27.03,-26.23 0,-14.473 12.08,-26.231 27.03,-26.231 14.95,0 27.03,11.758 27.03,26.231"
       style="fill:#000000;fill-opacity:1;fill-rule:nonzero;stroke:none"
       transform="matrix(0.13333333,0,0,-0.13333333,0,260.85333)" />
    <path
       id="path15"
       d="m 1302.64,431.918 c 0,14.477 -12.08,26.23 -27.03,26.23 -14.96,0 -27.04,-11.753 -27.04,-26.23 0,-14.473 12.08,-26.227 27.04,-26.227 14.95,0 27.03,11.754 27.03,26.227"
       style="fill:#000000;fill-opacity:1;fill-rule:nonzero;stroke:none"
       transform="matrix(0.13333333,0,0,-0.13333333,0,260.85333)" />
    <path
       id="path16"
       d="m 1233.38,432.078 c 0,5.281 -1.6,10.238 -4.4,14.395 -4.8,7.117 -13.19,11.836 -22.63,11.836 -14.96,0 -27.03,-11.754 -27.03,-26.231 0,-14.473 12.07,-26.23 27.03,-26.23 14.95,0 27.03,11.757 27.03,26.23"
       style="fill:#000000;fill-opacity:1;fill-rule:nonzero;stroke:none"
       transform="matrix(0.13333333,0,0,-0.13333333,0,260.85333)" />
    <path
       id="path17"
       d="m 1272.48,483.02 c -13.35,0 -20.39,-10.875 -24.07,-21.75 -3.67,-10.875 -3.99,-21.754 -3.99,-21.754 h -6.88 c 0,0 -1.28,43.425 -27.99,43.504 h 62.93"
       style="fill:#000000;fill-opacity:1;fill-rule:nonzero;stroke:none"
       transform="matrix(0.13333333,0,0,-0.13333333,0,260.85333)" />
    <path
       id="path18"
       d="m 1222.43,401.531 c 15.19,15.196 15.19,37.985 15.19,37.985 l 6.8,0.082 c 0,0 0,-23.274 14.79,-38.067"
       style="fill:#000000;fill-opacity:1;fill-rule:nonzero;stroke:none"
       transform="matrix(0.13333333,0,0,-0.13333333,0,260.85333)" />
    <path
       id="path19"
       d="m 1225.46,450.313 c 15.2,-15.196 37.99,-15.196 37.99,-15.196 v -6.797 c 0,0 -23.27,0 -38.07,-14.793"
       style="fill:#000000;fill-opacity:1;fill-rule:nonzero;stroke:none"
       transform="matrix(0.13333333,0,0,-0.13333333,0,260.85333)" />
    <path
       id="path20"
       d="m 1255.93,450.395 c -15.19,-15.196 -37.98,-15.196 -37.98,-15.196 v -6.797 c 0,0 23.27,0 38.06,-14.797"
       style="fill:#000000;fill-opacity:1;fill-rule:nonzero;stroke:none"
       transform="matrix(0.13333333,0,0,-0.13333333,0,260.85333)" />
    <path
       id="path21"
       d="m 296.484,1742.34 c 0,-34.73 28.985,-62.95 64.875,-62.95 35.891,0 64.871,28.22 64.871,62.95 0,34.74 -28.98,62.96 -64.871,62.96 -35.89,0 -64.875,-28.22 -64.875,-62.96"
       style="fill:#000000;fill-opacity:1;fill-rule:nonzero;stroke:none"
       transform="matrix(0.13333333,0,0,-0.13333333,0,260.85333)" />
    <path
       id="path22"
       d="m 212.805,1623.16 c 0,-34.74 28.98,-62.96 64.871,-62.96 35.89,0 64.871,28.22 64.871,62.96 0,34.73 -28.981,62.95 -64.871,62.95 -35.891,0 -64.871,-28.22 -64.871,-62.95"
       style="fill:#000000;fill-opacity:1;fill-rule:nonzero;stroke:none"
       transform="matrix(0.13333333,0,0,-0.13333333,0,260.85333)" />
    <path
       id="path23"
       d="m 379.016,1622.77 c 0,-12.66 3.836,-24.56 10.554,-34.54 11.516,-17.09 31.668,-28.41 54.317,-28.41 35.89,0 64.871,28.22 64.871,62.95 0,34.74 -28.981,62.96 -64.871,62.96 -35.891,0 -64.871,-28.22 -64.871,-62.96"
       style="fill:#000000;fill-opacity:1;fill-rule:nonzero;stroke:none"
       transform="matrix(0.13333333,0,0,-0.13333333,0,260.85333)" />
    <path
       id="path24"
       d="m 285.16,1500.52 c 32.055,0 48.945,26.1 57.774,52.2 8.828,26.1 9.593,52.2 9.593,52.2 h 16.508 c 0,0 3.07,-104.21 67.176,-104.4 H 285.16"
       style="fill:#000000;fill-opacity:1;fill-rule:nonzero;stroke:none"
       transform="matrix(0.13333333,0,0,-0.13333333,0,260.85333)" />
    <path
       id="path25"
       d="m 405.309,1696.09 c -36.465,-36.46 -36.465,-91.17 -36.465,-91.17 l -16.317,-0.19 c 0,0 0,55.85 -35.504,91.36"
       style="fill:#000000;fill-opacity:1;fill-rule:nonzero;stroke:none"
       transform="matrix(0.13333333,0,0,-0.13333333,0,260.85333)" />
    <path
       id="path26"
       d="m 398.016,1579.01 c -36.465,36.47 -91.164,36.47 -91.164,36.47 v 16.31 c 0,0 55.847,0 91.355,35.51"
       style="fill:#000000;fill-opacity:1;fill-rule:nonzero;stroke:none"
       transform="matrix(0.13333333,0,0,-0.13333333,0,260.85333)" />
    <path
       id="path27"
       d="m 324.891,1578.82 c 36.468,36.47 91.168,36.47 91.168,36.47 v 16.31 c 0,0 -55.852,0 -91.36,35.51"
       style="fill:#000000;fill-opacity:1;fill-rule:nonzero;stroke:none"
       transform="matrix(0.13333333,0,0,-0.13333333,0,260.85333)" />
    <path
       id="path28"
       d="m 296.484,1309.25 c 0,-34.73 28.985,-62.95 64.875,-62.95 35.891,0 64.871,28.22 64.871,62.95 0,34.75 -28.98,62.96 -64.871,62.96 -35.89,0 -64.875,-28.21 -64.875,-62.96"
       style="fill:#000000;fill-opacity:1;fill-rule:nonzero;stroke:none"
       transform="matrix(0.13333333,0,0,-0.13333333,0,260.85333)" />
    <path
       id="path29"
       d="m 212.805,1190.07 c 0,-34.74 28.98,-62.96 64.871,-62.96 35.89,0 64.871,28.22 64.871,62.96 0,34.73 -28.981,62.95 -64.871,62.95 -35.891,0 -64.871,-28.22 -64.871,-62.95"
       style="fill:#000000;fill-opacity:1;fill-rule:nonzero;stroke:none"
       transform="matrix(0.13333333,0,0,-0.13333333,0,260.85333)" />
    <path
       id="path30"
       d="m 379.016,1189.68 c 0,-12.66 3.836,-24.56 10.554,-34.54 11.516,-17.09 31.668,-28.41 54.317,-28.41 35.89,0 64.871,28.22 64.871,62.95 0,34.74 -28.981,62.96 -64.871,62.96 -35.891,0 -64.871,-28.22 -64.871,-62.96"
       style="fill:#000000;fill-opacity:1;fill-rule:nonzero;stroke:none"
       transform="matrix(0.13333333,0,0,-0.13333333,0,260.85333)" />
    <path
       id="path31"
       d="m 285.16,1067.43 c 32.055,0 48.945,26.1 57.774,52.2 8.828,26.1 9.593,52.21 9.593,52.21 h 16.508 c 0,0 3.07,-104.22 67.176,-104.41 H 285.16"
       style="fill:#000000;fill-opacity:1;fill-rule:nonzero;stroke:none"
       transform="matrix(0.13333333,0,0,-0.13333333,0,260.85333)" />
    <path
       id="path32"
       d="m 405.309,1263 c -36.465,-36.46 -36.465,-91.16 -36.465,-91.16 l -16.317,-0.2 c 0,0 0,55.85 -35.504,91.36"
       style="fill:#000000;fill-opacity:1;fill-rule:nonzero;stroke:none"
       transform="matrix(0.13333333,0,0,-0.13333333,0,260.85333)" />
    <path
       id="path33"
       d="m 398.016,1145.93 c -36.465,36.46 -91.164,36.46 -91.164,36.46 v 16.31 c 0,0 55.847,0 91.355,35.51"
       style="fill:#000000;fill-opacity:1;fill-rule:nonzero;stroke:none"
       transform="matrix(0.13333333,0,0,-0.13333333,0,260.85333)" />
    <path
       id="path34"
       d="m 324.891,1145.73 c 36.468,36.47 91.168,36.47 91.168,36.47 v 16.31 c 0,0 -55.852,0 -91.36,35.51"
       style="fill:#000000;fill-opacity:1;fill-rule:nonzero;stroke:none"
       transform="matrix(0.13333333,0,0,-0.13333333,0,260.85333)" />
    <path
       id="path35"
       d="m 425.078,689.262 c 0,34.738 -28.98,62.953 -64.871,62.953 -35.891,0 -64.871,-28.215 -64.871,-62.953 0,-34.739 28.98,-62.953 64.871,-62.953 35.891,0 64.871,28.214 64.871,62.953"
       style="fill:#000000;fill-opacity:1;fill-rule:nonzero;stroke:none"
       transform="matrix(0.13333333,0,0,-0.13333333,0,260.85333)" />
    <path
       id="path36"
       d="m 508.758,808.449 c 0,34.742 -28.981,62.953 -64.871,62.953 -35.891,0 -64.871,-28.211 -64.871,-62.953 0,-34.738 28.98,-62.953 64.871,-62.953 35.89,0 64.871,28.215 64.871,62.953"
       style="fill:#000000;fill-opacity:1;fill-rule:nonzero;stroke:none"
       transform="matrix(0.13333333,0,0,-0.13333333,0,260.85333)" />
    <path
       id="path37"
       d="m 342.547,808.836 c 0,12.664 -3.836,24.566 -10.555,34.547 -11.515,17.082 -31.668,28.402 -54.316,28.402 -35.891,0 -64.871,-28.211 -64.871,-62.949 0,-34.742 28.98,-62.953 64.871,-62.953 35.89,0 64.871,28.211 64.871,62.953"
       style="fill:#000000;fill-opacity:1;fill-rule:nonzero;stroke:none"
       transform="matrix(0.13333333,0,0,-0.13333333,0,260.85333)" />
    <path
       id="path38"
       d="m 436.402,931.094 c -32.05,0 -48.941,-26.102 -57.769,-52.207 -8.832,-26.102 -9.598,-52.203 -9.598,-52.203 h -16.508 c 0,0 -3.07,104.218 -67.172,104.41 h 151.047"
       style="fill:#000000;fill-opacity:1;fill-rule:nonzero;stroke:none"
       transform="matrix(0.13333333,0,0,-0.13333333,0,260.85333)" />
    <path
       id="path39"
       d="m 316.254,735.52 c 36.469,36.464 36.469,91.164 36.469,91.164 l 16.312,0.191 c 0,0 0,-55.852 35.508,-91.355"
       style="fill:#000000;fill-opacity:1;fill-rule:nonzero;stroke:none"
       transform="matrix(0.13333333,0,0,-0.13333333,0,260.85333)" />
    <path
       id="path40"
       d="m 323.547,852.594 c 36.469,-36.465 91.168,-36.465 91.168,-36.465 v -16.316 c 0,0 -55.852,0 -91.36,-35.504"
       style="fill:#000000;fill-opacity:1;fill-rule:nonzero;stroke:none"
       transform="matrix(0.13333333,0,0,-0.13333333,0,260.85333)" />
    <path
       id="path41"
       d="M 396.672,852.785 C 360.207,816.32 305.508,816.32 305.508,816.32 v -16.316 c 0,0 55.851,0 91.355,-35.504"
       style="fill:#000000;fill-opacity:1;fill-rule:nonzero;stroke:none"
       transform="matrix(0.13333333,0,0,-0.13333333,0,260.85333)" />
    <path
       id="path42"
       d="m 425.078,256.176 c 0,34.738 -28.98,62.949 -64.871,62.949 -35.891,0 -64.871,-28.211 -64.871,-62.949 0,-34.742 28.98,-62.953 64.871,-62.953 35.891,0 64.871,28.211 64.871,62.953"
       style="fill:#000000;fill-opacity:1;fill-rule:nonzero;stroke:none"
       transform="matrix(0.13333333,0,0,-0.13333333,0,260.85333)" />
    <path
       id="path43"
       d="m 508.758,375.363 c 0,34.739 -28.981,62.95 -64.871,62.95 -35.891,0 -64.871,-28.211 -64.871,-62.95 0,-34.742 28.98,-62.953 64.871,-62.953 35.89,0 64.871,28.211 64.871,62.953"
       style="fill:#000000;fill-opacity:1;fill-rule:nonzero;stroke:none"
       transform="matrix(0.13333333,0,0,-0.13333333,0,260.85333)" />
    <path
       id="path44"
       d="m 342.547,375.746 c 0,12.668 -3.836,24.567 -10.555,34.547 -11.515,17.082 -31.668,28.406 -54.316,28.406 -35.891,0 -64.871,-28.215 -64.871,-62.953 0,-34.738 28.98,-62.953 64.871,-62.953 35.89,0 64.871,28.215 64.871,62.953"
       style="fill:#000000;fill-opacity:1;fill-rule:nonzero;stroke:none"
       transform="matrix(0.13333333,0,0,-0.13333333,0,260.85333)" />
    <path
       id="path45"
       d="m 436.402,498.004 c -32.05,0 -48.941,-26.102 -57.769,-52.203 -8.832,-26.106 -9.598,-52.207 -9.598,-52.207 h -16.508 c 0,0 -3.07,104.219 -67.172,104.41 h 151.047"
       style="fill:#000000;fill-opacity:1;fill-rule:nonzero;stroke:none"
       transform="matrix(0.13333333,0,0,-0.13333333,0,260.85333)" />
    <path
       id="path46"
       d="m 316.254,302.43 c 36.469,36.465 36.469,91.164 36.469,91.164 l 16.312,0.191 c 0,0 0,-55.851 35.508,-91.355"
       style="fill:#000000;fill-opacity:1;fill-rule:nonzero;stroke:none"
       transform="matrix(0.13333333,0,0,-0.13333333,0,260.85333)" />
    <path
       id="path47"
       d="m 323.547,419.504 c 36.469,-36.465 91.168,-36.465 91.168,-36.465 v -16.312 c 0,0 -55.852,0 -91.36,-35.508"
       style="fill:#000000;fill-opacity:1;fill-rule:nonzero;stroke:none"
       transform="matrix(0.13333333,0,0,-0.13333333,0,260.85333)" />
    <path
       id="path48"
       d="M 396.672,419.695 C 360.207,383.23 305.508,383.23 305.508,383.23 v -16.312 c 0,0 55.851,0 91.355,-35.508"
       style="fill:#000000;fill-opacity:1;fill-rule:nonzero;stroke:none"
       transform="matrix(0.13333333,0,0,-0.13333333,0,260.85333)" />
    <path
       id="path49"
       d="m 935.105,1742.34 c 0,-34.73 28.981,-62.95 64.872,-62.95 35.893,0 64.873,28.22 64.873,62.95 0,34.74 -28.98,62.96 -64.873,62.96 -35.891,0 -64.872,-28.22 -64.872,-62.96"
       style="fill:#000000;fill-opacity:1;fill-rule:nonzero;stroke:none"
       transform="matrix(0.13333333,0,0,-0.13333333,0,260.85333)" />
    <path
       id="path50"
       d="m 851.426,1623.16 c 0,-34.74 28.98,-62.96 64.871,-62.96 35.891,0 64.871,28.22 64.871,62.96 0,34.73 -28.98,62.95 -64.871,62.95 -35.891,0 -64.871,-28.22 -64.871,-62.95"
       style="fill:#000000;fill-opacity:1;fill-rule:nonzero;stroke:none"
       transform="matrix(0.13333333,0,0,-0.13333333,0,260.85333)" />
    <path
       id="path51"
       d="m 1017.64,1622.77 c 0,-12.66 3.83,-24.56 10.55,-34.54 11.52,-17.09 31.67,-28.41 54.32,-28.41 35.89,0 64.87,28.22 64.87,62.95 0,34.74 -28.98,62.96 -64.87,62.96 -35.89,0 -64.87,-28.22 -64.87,-62.96"
       style="fill:#000000;fill-opacity:1;fill-rule:nonzero;stroke:none"
       transform="matrix(0.13333333,0,0,-0.13333333,0,260.85333)" />
    <path
       id="path52"
       d="m 923.781,1500.52 c 32.051,0 48.942,26.1 57.77,52.2 8.832,26.1 9.597,52.2 9.597,52.2 h 16.512 c 0,0 3.07,-104.21 67.17,-104.4 H 923.781"
       style="fill:#000000;fill-opacity:1;fill-rule:nonzero;stroke:none"
       transform="matrix(0.13333333,0,0,-0.13333333,0,260.85333)" />
    <path
       id="path53"
       d="m 1043.93,1696.09 c -36.47,-36.46 -36.47,-91.17 -36.47,-91.17 l -16.312,-0.19 c 0,0 0,55.85 -35.507,91.36"
       style="fill:#000000;fill-opacity:1;fill-rule:nonzero;stroke:none"
       transform="matrix(0.13333333,0,0,-0.13333333,0,260.85333)" />
    <path
       id="path54"
       d="m 1036.64,1579.01 c -36.47,36.47 -91.171,36.47 -91.171,36.47 v 16.31 c 0,0 55.851,0 91.361,35.51"
       style="fill:#000000;fill-opacity:1;fill-rule:nonzero;stroke:none"
       transform="matrix(0.13333333,0,0,-0.13333333,0,260.85333)" />
    <path
       id="path55"
       d="m 963.512,1578.82 c 36.465,36.47 91.168,36.47 91.168,36.47 v 16.31 c 0,0 -55.856,0 -91.36,35.51"
       style="fill:#000000;fill-opacity:1;fill-rule:nonzero;stroke:none"
       transform="matrix(0.13333333,0,0,-0.13333333,0,260.85333)" />
    <path
       id="path56"
       d="m 935.105,1309.25 c 0,-34.73 28.981,-62.95 64.872,-62.95 35.893,0 64.873,28.22 64.873,62.95 0,34.75 -28.98,62.96 -64.873,62.96 -35.891,0 -64.872,-28.21 -64.872,-62.96"
       style="fill:#000000;fill-opacity:1;fill-rule:nonzero;stroke:none"
       transform="matrix(0.13333333,0,0,-0.13333333,0,260.85333)" />
    <path
       id="path57"
       d="m 851.426,1190.07 c 0,-34.74 28.98,-62.96 64.871,-62.96 35.891,0 64.871,28.22 64.871,62.96 0,34.73 -28.98,62.95 -64.871,62.95 -35.891,0 -64.871,-28.22 -64.871,-62.95"
       style="fill:#000000;fill-opacity:1;fill-rule:nonzero;stroke:none"
       transform="matrix(0.13333333,0,0,-0.13333333,0,260.85333)" />
    <path
       id="path58"
       d="m 1017.64,1189.68 c 0,-12.66 3.83,-24.56 10.55,-34.54 11.52,-17.09 31.67,-28.41 54.32,-28.41 35.89,0 64.87,28.22 64.87,62.95 0,34.74 -28.98,62.96 -64.87,62.96 -35.89,0 -64.87,-28.22 -64.87,-62.96"
       style="fill:#000000;fill-opacity:1;fill-rule:nonzero;stroke:none"
       transform="matrix(0.13333333,0,0,-0.13333333,0,260.85333)" />
    <path
       id="path59"
       d="m 923.781,1067.43 c 32.051,0 48.942,26.1 57.77,52.2 8.832,26.1 9.597,52.21 9.597,52.21 h 16.512 c 0,0 3.07,-104.22 67.17,-104.41 H 923.781"
       style="fill:#000000;fill-opacity:1;fill-rule:nonzero;stroke:none"
       transform="matrix(0.13333333,0,0,-0.13333333,0,260.85333)" />
    <path
       id="path60"
       d="m 1043.93,1263 c -36.47,-36.46 -36.47,-91.16 -36.47,-91.16 l -16.312,-0.2 c 0,0 0,55.85 -35.507,91.36"
       style="fill:#000000;fill-opacity:1;fill-rule:nonzero;stroke:none"
       transform="matrix(0.13333333,0,0,-0.13333333,0,260.85333)" />
    <path
       id="path61"
       d="m 1036.64,1145.93 c -36.47,36.46 -91.171,36.46 -91.171,36.46 v 16.31 c 0,0 55.851,0 91.361,35.51"
       style="fill:#000000;fill-opacity:1;fill-rule:nonzero;stroke:none"
       transform="matrix(0.13333333,0,0,-0.13333333,0,260.85333)" />
    <path
       id="path62"
       d="m 963.512,1145.73 c 36.465,36.47 91.168,36.47 91.168,36.47 v 16.31 c 0,0 -55.856,0 -91.36,35.51"
       style="fill:#000000;fill-opacity:1;fill-rule:nonzero;stroke:none"
       transform="matrix(0.13333333,0,0,-0.13333333,0,260.85333)" />
    <path
       id="path63"
       d="m 1063.7,689.262 c 0,34.738 -28.98,62.953 -64.872,62.953 -35.89,0 -64.871,-28.215 -64.871,-62.953 0,-34.739 28.981,-62.953 64.871,-62.953 35.892,0 64.872,28.214 64.872,62.953"
       style="fill:#000000;fill-opacity:1;fill-rule:nonzero;stroke:none"
       transform="matrix(0.13333333,0,0,-0.13333333,0,260.85333)" />
    <path
       id="path64"
       d="m 1147.38,808.449 c 0,34.742 -28.98,62.953 -64.87,62.953 -35.89,0 -64.87,-28.211 -64.87,-62.953 0,-34.738 28.98,-62.953 64.87,-62.953 35.89,0 64.87,28.215 64.87,62.953"
       style="fill:#000000;fill-opacity:1;fill-rule:nonzero;stroke:none"
       transform="matrix(0.13333333,0,0,-0.13333333,0,260.85333)" />
    <path
       id="path65"
       d="m 981.172,808.836 c 0,12.664 -3.84,24.566 -10.555,34.547 -11.515,17.082 -31.668,28.402 -54.316,28.402 -35.891,0 -64.871,-28.211 -64.871,-62.949 0,-34.742 28.98,-62.953 64.871,-62.953 35.89,0 64.871,28.211 64.871,62.953"
       style="fill:#000000;fill-opacity:1;fill-rule:nonzero;stroke:none"
       transform="matrix(0.13333333,0,0,-0.13333333,0,260.85333)" />
    <path
       id="path66"
       d="m 1075.02,931.094 c -32.05,0 -48.94,-26.102 -57.77,-52.207 -8.82,-26.102 -9.59,-52.203 -9.59,-52.203 h -16.508 c 0,0 -3.07,104.218 -67.175,104.41 h 151.043"
       style="fill:#000000;fill-opacity:1;fill-rule:nonzero;stroke:none"
       transform="matrix(0.13333333,0,0,-0.13333333,0,260.85333)" />
    <path
       id="path67"
       d="m 954.879,735.52 c 36.465,36.464 36.465,91.164 36.465,91.164 l 16.316,0.191 c 0,0 0,-55.852 35.5,-91.355"
       style="fill:#000000;fill-opacity:1;fill-rule:nonzero;stroke:none"
       transform="matrix(0.13333333,0,0,-0.13333333,0,260.85333)" />
    <path
       id="path68"
       d="m 962.172,852.594 c 36.465,-36.465 91.168,-36.465 91.168,-36.465 v -16.316 c 0,0 -55.856,0 -91.36,-35.504"
       style="fill:#000000;fill-opacity:1;fill-rule:nonzero;stroke:none"
       transform="matrix(0.13333333,0,0,-0.13333333,0,260.85333)" />
    <path
       id="path69"
       d="M 1035.3,852.785 C 998.828,816.32 944.129,816.32 944.129,816.32 v -16.316 c 0,0 55.851,0 91.361,-35.504"
       style="fill:#000000;fill-opacity:1;fill-rule:nonzero;stroke:none"
       transform="matrix(0.13333333,0,0,-0.13333333,0,260.85333)" />
    <path
       id="path70"
       d="m 1063.7,256.176 c 0,34.738 -28.98,62.949 -64.872,62.949 -35.89,0 -64.871,-28.211 -64.871,-62.949 0,-34.742 28.981,-62.953 64.871,-62.953 35.892,0 64.872,28.211 64.872,62.953"
       style="fill:#000000;fill-opacity:1;fill-rule:nonzero;stroke:none"
       transform="matrix(0.13333333,0,0,-0.13333333,0,260.85333)" />
    <path
       id="path71"
       d="m 1147.38,375.363 c 0,34.739 -28.98,62.95 -64.87,62.95 -35.89,0 -64.87,-28.211 -64.87,-62.95 0,-34.742 28.98,-62.953 64.87,-62.953 35.89,0 64.87,28.211 64.87,62.953"
       style="fill:#000000;fill-opacity:1;fill-rule:nonzero;stroke:none"
       transform="matrix(0.13333333,0,0,-0.13333333,0,260.85333)" />
    <path
       id="path72"
       d="m 981.172,375.746 c 0,12.668 -3.84,24.567 -10.555,34.547 -11.515,17.082 -31.668,28.406 -54.316,28.406 -35.891,0 -64.871,-28.215 -64.871,-62.953 0,-34.738 28.98,-62.953 64.871,-62.953 35.89,0 64.871,28.215 64.871,62.953"
       style="fill:#000000;fill-opacity:1;fill-rule:nonzero;stroke:none"
       transform="matrix(0.13333333,0,0,-0.13333333,0,260.85333)" />
    <path
       id="path73"
       d="m 1075.02,498.004 c -32.05,0 -48.94,-26.102 -57.77,-52.203 -8.82,-26.106 -9.59,-52.207 -9.59,-52.207 h -16.508 c 0,0 -3.07,104.219 -67.175,104.41 h 151.043"
       style="fill:#000000;fill-opacity:1;fill-rule:nonzero;stroke:none"
       transform="matrix(0.13333333,0,0,-0.13333333,0,260.85333)" />
    <path
       id="path74"
       d="m 954.879,302.43 c 36.465,36.465 36.465,91.164 36.465,91.164 l 16.316,0.191 c 0,0 0,-55.851 35.5,-91.355"
       style="fill:#000000;fill-opacity:1;fill-rule:nonzero;stroke:none"
       transform="matrix(0.13333333,0,0,-0.13333333,0,260.85333)" />
    <path
       id="path75"
       d="m 962.172,419.504 c 36.465,-36.465 91.168,-36.465 91.168,-36.465 v -16.312 c 0,0 -55.856,0 -91.36,-35.508"
       style="fill:#000000;fill-opacity:1;fill-rule:nonzero;stroke:none"
       transform="matrix(0.13333333,0,0,-0.13333333,0,260.85333)" />
    <path
       id="path76"
       d="M 1035.3,419.695 C 998.828,383.23 944.129,383.23 944.129,383.23 v -16.312 c 0,0 55.851,0 91.361,-35.508"
       style="fill:#000000;fill-opacity:1;fill-rule:nonzero;stroke:none"
       transform="matrix(0.13333333,0,0,-0.13333333,0,260.85333)" />
    <path
       id="path77"
       d="m 615.793,1525.8 c 0,-34.74 28.98,-62.95 64.871,-62.95 35.891,0 64.871,28.21 64.871,62.95 0,34.74 -28.98,62.95 -64.871,62.95 -35.891,0 -64.871,-28.21 -64.871,-62.95"
       style="fill:#000000;fill-opacity:1;fill-rule:nonzero;stroke:none"
       transform="matrix(0.13333333,0,0,-0.13333333,0,260.85333)" />
    <path
       id="path78"
       d="m 532.113,1406.61 c 0,-34.74 28.981,-62.95 64.871,-62.95 35.891,0 64.871,28.21 64.871,62.95 0,34.74 -28.98,62.95 -64.871,62.95 -35.89,0 -64.871,-28.21 -64.871,-62.95"
       style="fill:#000000;fill-opacity:1;fill-rule:nonzero;stroke:none"
       transform="matrix(0.13333333,0,0,-0.13333333,0,260.85333)" />
    <path
       id="path79"
       d="m 698.32,1406.23 c 0,-12.67 3.84,-24.57 10.559,-34.55 11.516,-17.08 31.668,-28.41 54.316,-28.41 35.891,0 64.871,28.22 64.871,62.96 0,34.73 -28.98,62.95 -64.871,62.95 -35.89,0 -64.875,-28.22 -64.875,-62.95"
       style="fill:#000000;fill-opacity:1;fill-rule:nonzero;stroke:none"
       transform="matrix(0.13333333,0,0,-0.13333333,0,260.85333)" />
    <path
       id="path80"
       d="m 604.469,1283.97 c 32.051,0 48.941,26.1 57.769,52.2 8.828,26.11 9.598,52.21 9.598,52.21 h 16.508 c 0,0 3.07,-104.22 67.172,-104.41 H 604.469"
       style="fill:#000000;fill-opacity:1;fill-rule:nonzero;stroke:none"
       transform="matrix(0.13333333,0,0,-0.13333333,0,260.85333)" />
    <path
       id="path81"
       d="m 724.617,1479.54 c -36.469,-36.46 -36.469,-91.16 -36.469,-91.16 l -16.312,-0.19 c 0,0 0,55.85 -35.508,91.35"
       style="fill:#000000;fill-opacity:1;fill-rule:nonzero;stroke:none"
       transform="matrix(0.13333333,0,0,-0.13333333,0,260.85333)" />
    <path
       id="path82"
       d="m 717.324,1362.47 c -36.469,36.46 -91.168,36.46 -91.168,36.46 v 16.32 c 0,0 55.852,0 91.36,35.5"
       style="fill:#000000;fill-opacity:1;fill-rule:nonzero;stroke:none"
       transform="matrix(0.13333333,0,0,-0.13333333,0,260.85333)" />
    <path
       id="path83"
       d="m 644.199,1362.28 c 36.465,36.46 91.164,36.46 91.164,36.46 v 16.31 c 0,0 -55.851,0 -91.355,35.51"
       style="fill:#000000;fill-opacity:1;fill-rule:nonzero;stroke:none"
       transform="matrix(0.13333333,0,0,-0.13333333,0,260.85333)" />
    <path
       id="path84"
       d="m 744.391,472.719 c 0,34.738 -28.985,62.953 -64.875,62.953 -35.891,0 -64.871,-28.215 -64.871,-62.953 0,-34.742 28.98,-62.953 64.871,-62.953 35.89,0 64.875,28.211 64.875,62.953"
       style="fill:#000000;fill-opacity:1;fill-rule:nonzero;stroke:none"
       transform="matrix(0.13333333,0,0,-0.13333333,0,260.85333)" />
    <path
       id="path85"
       d="m 828.07,591.906 c 0,34.739 -28.98,62.953 -64.871,62.953 -35.89,0 -64.875,-28.214 -64.875,-62.953 0,-34.742 28.985,-62.953 64.875,-62.953 35.891,0 64.871,28.211 64.871,62.953"
       style="fill:#000000;fill-opacity:1;fill-rule:nonzero;stroke:none"
       transform="matrix(0.13333333,0,0,-0.13333333,0,260.85333)" />
    <path
       id="path86"
       d="m 661.859,592.289 c 0,12.668 -3.839,24.566 -10.554,34.547 -11.516,17.082 -31.668,28.406 -54.317,28.406 -35.89,0 -64.871,-28.215 -64.871,-62.953 0,-34.738 28.981,-62.953 64.871,-62.953 35.891,0 64.871,28.215 64.871,62.953"
       style="fill:#000000;fill-opacity:1;fill-rule:nonzero;stroke:none"
       transform="matrix(0.13333333,0,0,-0.13333333,0,260.85333)" />
    <path
       id="path87"
       d="m 755.711,714.547 c -32.051,0 -48.941,-26.102 -57.77,-52.203 -8.828,-26.102 -9.593,-52.207 -9.593,-52.207 H 671.84 c 0,0 -3.07,104.218 -67.176,104.41 h 151.047"
       style="fill:#000000;fill-opacity:1;fill-rule:nonzero;stroke:none"
       transform="matrix(0.13333333,0,0,-0.13333333,0,260.85333)" />
    <path
       id="path88"
       d="m 635.566,518.973 c 36.465,36.465 36.465,91.164 36.465,91.164 l 16.317,0.195 c 0,0 0,-55.852 35.504,-91.359"
       style="fill:#000000;fill-opacity:1;fill-rule:nonzero;stroke:none"
       transform="matrix(0.13333333,0,0,-0.13333333,0,260.85333)" />
    <path
       id="path89"
       d="m 642.859,636.047 c 36.465,-36.465 91.164,-36.465 91.164,-36.465 V 583.27 c 0,0 -55.851,0 -91.355,-35.508"
       style="fill:#000000;fill-opacity:1;fill-rule:nonzero;stroke:none"
       transform="matrix(0.13333333,0,0,-0.13333333,0,260.85333)" />
    <path
       id="path90"
       d="m 715.984,636.242 c -36.468,-36.469 -91.168,-36.469 -91.168,-36.469 v -16.312 c 0,0 55.852,0 91.36,-35.508"
       style="fill:#000000;fill-opacity:1;fill-rule:nonzero;stroke:none"
       transform="matrix(0.13333333,0,0,-0.13333333,0,260.85333)" />
  </g>
</svg>
