<?xml version="1.0" encoding="UTF-8" standalone="no"?>
<!-- Created with Inkscape (http://www.inkscape.org/) -->

<svg
   version="1.1"
   id="svg1"
   width="180.27953"
   height="260.85278"
   viewBox="0 0 180.27953 260.85278"
   xmlns="http://www.w3.org/2000/svg"
   xmlns:svg="http://www.w3.org/2000/svg">
  <defs
     id="defs1" />
  <g
     id="g1"
     transform="translate(2.796582e-5,0.06350344)">
    <path
       id="path1"
       d="M 9.99609,65.418 C 9.99609,35.1875 34.707,10.4766 64.9375,10.4766 H 1287.24 c 30.15,0 54.86,24.7109 54.86,54.9414 V 1891.94 c 0,30.22 -24.71,54.94 -54.86,54.94 H 64.9375 c -30.2305,0 -54.94141,-24.72 -54.94141,-54.94 V 65.418"
       style="fill:#ffffff;fill-opacity:1;fill-rule:nonzero;stroke:none"
       transform="matrix(0.13333333,0,0,-0.13333333,0,260.85333)" />
    <path
       id="path2"
       d="M 9.99609,65.418 C 9.99609,35.1875 34.707,10.4766 64.9375,10.4766 H 1287.24 c 30.15,0 54.86,24.7109 54.86,54.9414 V 1891.94 c 0,30.22 -24.71,54.94 -54.86,54.94 H 64.9375 c -30.2305,0 -54.94141,-24.72 -54.94141,-54.94 z"
       style="fill:none;stroke:#000000;stroke-width:19.9926;stroke-linecap:butt;stroke-linejoin:miter;stroke-miterlimit:10;stroke-dasharray:none;stroke-opacity:1"
       transform="matrix(0.13333333,0,0,-0.13333333,0,260.85333)" />
    <path
       id="path3"
       d="m 67.6445,1704.02 v 23.63 h 5.7266 c 0.1758,-6.3 0.8203,-10.93 1.9375,-13.88 1.1445,-2.95 2.832,-4.42 5.0625,-4.42 2.8477,0 4.8281,2.51 5.9453,7.54 1.1445,4.96 1.7188,14.32 1.7188,28.06 V 1878 h -9.5586 v 12.17 H 113.488 V 1878 h -8.414 v -133.86 c 0,-16.29 -1.804,-28.19 -5.4138,-35.69 -3.5821,-7.52 -9.293,-11.27 -17.1329,-11.27 -2.4335,0 -4.8867,0.57 -7.3515,1.71 -2.4688,1.14 -4.9766,2.85 -7.5313,5.13"
       style="fill:#000000;fill-opacity:1;fill-rule:nonzero;stroke:none"
       transform="matrix(0.13333333,0,0,-0.13333333,0,260.85333)" />
    <path
       id="path4"
       d="m 156.113,1749.27 c 5.61,0 9.778,5.4 12.508,16.19 2.731,10.8 4.094,27.29 4.094,49.49 0,22.25 -1.363,38.78 -4.094,49.57 -2.73,10.8 -6.898,16.19 -12.508,16.19 -5.578,0 -9.746,-5.46 -12.504,-16.39 -2.73,-10.86 -4.097,-27.32 -4.097,-49.37 0,-22 1.367,-38.46 4.097,-49.38 2.758,-10.87 6.926,-16.3 12.504,-16.3 m 0,-12.16 c -11.066,0 -19.742,6.9 -26.023,20.71 -6.285,13.81 -9.426,32.85 -9.426,57.13 0,24.26 3.141,43.3 9.426,57.12 6.308,13.88 14.984,20.81 26.023,20.81 11.071,0 19.742,-6.9 26.028,-20.71 6.281,-13.81 9.422,-32.89 9.422,-57.22 0,-24.28 -3.157,-43.32 -9.469,-57.13 -6.281,-13.81 -14.942,-20.71 -25.981,-20.71"
       style="fill:#000000;fill-opacity:1;fill-rule:nonzero;stroke:none"
       transform="matrix(0.13333333,0,0,-0.13333333,0,260.85333)" />
    <path
       id="path5"
       d="m 199.668,1740.02 v 12.17 h 8.41 V 1878 h -8.41 v 12.17 h 33.816 V 1878 h -8.453 v -54.81 l 27.875,54.81 h -7.047 v 12.17 h 24.532 V 1878 h -8.766 l -23.602,-46.36 32.102,-79.45 h 6.473 v -12.17 h -22.282 l -29.285,72.91 v -60.74 h 8.453 v -12.17 h -33.816"
       style="fill:#000000;fill-opacity:1;fill-rule:nonzero;stroke:none"
       transform="matrix(0.13333333,0,0,-0.13333333,0,260.85333)" />
    <path
       id="path6"
       d="m 278.051,1740.02 v 12.17 h 8.41 V 1878 h -8.41 v 12.17 h 59.097 v -35.4 h -6.078 v 21.62 h -27.652 v -48.17 h 17.215 v 19.1 h 6.035 v -51.89 h -6.035 v 19.11 h -17.215 v -60.74 h 28.488 v 21.62 h 6.035 v -35.4 h -59.89"
       style="fill:#000000;fill-opacity:1;fill-rule:nonzero;stroke:none"
       transform="matrix(0.13333333,0,0,-0.13333333,0,260.85333)" />
    <path
       id="path7"
       d="m 390.387,1813.34 c 2.613,-0.88 4.816,-2.86 6.605,-5.94 1.793,-3.08 3.348,-7.54 4.668,-13.37 l 9.602,-41.84 H 418 v -12.17 h -21.621 l -10.481,45.36 c -2.027,9.38 -3.757,15.35 -5.199,17.9 -1.406,2.61 -3.375,3.92 -5.898,3.92 h -2.688 v -55.01 h 8.453 v -12.17 H 346.75 v 12.17 h 8.41 V 1878 h -8.41 v 12.17 h 37.516 c 7.632,0 13.519,-3.52 17.66,-10.56 4.168,-6.97 6.254,-16.9 6.254,-29.77 0,-10.46 -1.485,-18.74 -4.45,-24.84 -2.933,-6.04 -7.382,-9.92 -13.343,-11.66 m -18.274,5.93 h 5.77 c 4.109,0 7.265,2.55 9.469,7.64 2.23,5.1 3.343,12.37 3.343,21.82 0,9.46 -1.113,16.7 -3.343,21.73 -2.204,5.02 -5.36,7.54 -9.469,7.54 h -5.77 v -58.73"
       style="fill:#000000;fill-opacity:1;fill-rule:nonzero;stroke:none"
       transform="matrix(0.13333333,0,0,-0.13333333,0,260.85333)" />
    <path
       id="path8"
       d="m 1284.45,253.336 v -23.633 h -5.72 c -0.18,6.301 -0.82,10.926 -1.94,13.875 -1.15,2.953 -2.83,4.426 -5.06,4.426 -2.85,0 -4.83,-2.516 -5.95,-7.543 -1.14,-4.961 -1.72,-14.313 -1.72,-28.059 V 79.3555 h 9.56 v -12.168 h -35.01 v 12.168 h 8.41 V 213.207 c 0,16.293 1.81,28.195 5.42,35.703 3.58,7.508 9.29,11.262 17.13,11.262 2.43,0 4.89,-0.57 7.35,-1.707 2.47,-1.141 4.98,-2.852 7.53,-5.129"
       style="fill:#000000;fill-opacity:1;fill-rule:nonzero;stroke:none"
       transform="matrix(0.13333333,0,0,-0.13333333,0,260.85333)" />
    <path
       id="path9"
       d="m 1195.98,208.078 c -5.6,0 -9.77,-5.394 -12.5,-16.191 -2.73,-10.793 -4.1,-27.285 -4.1,-49.477 0,-22.258 1.37,-38.785 4.1,-49.578 2.73,-10.7968 6.9,-16.1914 12.5,-16.1914 5.58,0 9.75,5.461 12.51,16.3907 2.73,10.8637 4.1,27.3207 4.1,49.3787 0,21.988 -1.37,38.449 -4.1,49.379 -2.76,10.859 -6.93,16.289 -12.51,16.289 m 0,12.168 c 11.07,0 19.75,-6.902 26.03,-20.715 6.28,-13.812 9.42,-32.851 9.42,-57.121 0,-24.269 -3.14,-43.3123 -9.42,-57.1209 -6.31,-13.8789 -14.99,-20.8203 -26.03,-20.8203 -11.07,0 -19.74,6.9062 -26.02,20.7187 -6.28,13.8125 -9.42,32.8865 -9.42,57.2225 0,24.27 3.15,43.309 9.46,57.121 6.29,13.813 14.95,20.715 25.98,20.715"
       style="fill:#000000;fill-opacity:1;fill-rule:nonzero;stroke:none"
       transform="matrix(0.13333333,0,0,-0.13333333,0,260.85333)" />
    <path
       id="path10"
       d="m 1152.43,217.332 v -12.168 h -8.41 V 79.3555 h 8.41 v -12.168 h -33.82 v 12.168 h 8.46 v 54.8085 l -27.88,-54.8085 h 7.05 v -12.168 h -24.53 v 12.168 h 8.76 l 23.6,46.3595 -32.1,79.449 h -6.47 v 12.168 h 22.28 l 29.29,-72.91 v 60.742 h -8.46 v 12.168 h 33.82"
       style="fill:#000000;fill-opacity:1;fill-rule:nonzero;stroke:none"
       transform="matrix(0.13333333,0,0,-0.13333333,0,260.85333)" />
    <path
       id="path11"
       d="m 1074.05,217.332 v -12.168 h -8.41 V 79.3555 h 8.41 v -12.168 h -59.1 v 35.3985 h 6.08 V 80.9648 h 27.65 v 48.1682 h -17.22 v -19.106 h -6.03 v 51.891 h 6.03 v -19.105 h 17.22 v 60.742 h -28.49 v -21.621 h -6.03 v 35.398 h 59.89"
       style="fill:#000000;fill-opacity:1;fill-rule:nonzero;stroke:none"
       transform="matrix(0.13333333,0,0,-0.13333333,0,260.85333)" />
    <path
       id="path12"
       d="m 961.707,144.02 c -2.609,0.871 -4.812,2.847 -6.605,5.933 -1.789,3.082 -3.344,7.543 -4.668,13.375 l -9.598,41.836 h -6.738 v 12.168 h 21.621 l 10.48,-45.355 c 2.028,-9.387 3.758,-15.356 5.199,-17.903 1.407,-2.613 3.375,-3.922 5.899,-3.922 h 2.687 v 55.012 h -8.457 v 12.168 h 33.823 v -12.168 h -8.412 V 79.3555 h 8.412 v -12.168 h -37.522 c -7.633,0 -13.515,3.5195 -17.656,10.5586 -4.168,6.9727 -6.254,16.8945 -6.254,29.7659 0,10.461 1.484,18.738 4.449,24.84 2.934,6.035 7.383,9.925 13.34,11.668 m 18.277,-5.934 h -5.769 c -4.11,0 -7.266,-2.547 -9.469,-7.645 -2.23,-5.093 -3.344,-12.367 -3.344,-21.824 0,-9.4529 1.114,-16.6912 3.344,-21.7186 2.203,-5.0312 5.359,-7.5429 9.469,-7.5429 h 5.769 v 58.7305"
       style="fill:#000000;fill-opacity:1;fill-rule:nonzero;stroke:none"
       transform="matrix(0.13333333,0,0,-0.13333333,0,260.85333)" />
    <path
       id="path13"
       d="m 816.434,352.707 -5.993,-11.574 6.188,-40.262 16.121,2.793 31.945,21.625 -35.519,33.797"
       style="fill:#e6180a;fill-opacity:1;fill-rule:nonzero;stroke:none"
       transform="matrix(0.13333333,0,0,-0.13333333,0,260.85333)" />
    <path
       id="path14"
       d="m 938.625,1420.96 c 2.242,-0.84 -51.312,-51.33 -58.051,-51.33 l -45.437,-25.24 -27.063,-39.97 -20.344,-45.01 -1.25,-49.92 18.93,-26.92 40.246,-8.28 50.34,8.83 55.164,35.1 27.953,36.22 10.571,35.37 -3.735,23.59 -25.051,12.1 -21.394,1.99 -1.496,9.01 3.847,21.64 -18.328,14.61 -33.457,-2.21 54.321,49.13 56.279,-14.27 26.56,4.8 75.64,-92.81 -40.48,-55.76 -6.25,-24.09 8.41,-33.93 12.63,-34.79 -6.18,-37.58 -9.53,-13.46 1.12,-29.73 -5.89,-15.14 -20.47,-8.7 -19.08,8.13 -11.77,20.47 5.89,23.85 15.98,8.98 14.3,0.27 2.53,4.21 -11.22,28.9 -25.52,18.78 -20.758,1.12 -50.473,-34.21 -5.617,-29.46 -0.551,-49.35 48.801,-32.26 22.138,-35.617 7.02,-41.511 5.62,-51.606 46.26,-114.988 16.27,-29.172 -6.17,-5.047 -37.86,17.68 -34.219,35.34 -1.965,26.914 6.464,21.039 -8.98,15.699 -15.148,-0.273 -9.527,-15.149 1.394,-12.336 12.34,-20.195 -5.602,-31.137 -22.437,-41.511 -11.785,-0.278 -23.278,33.102 -12.906,44.027 12.059,28.606 -0.274,11.507 -20.472,16.543 -15.715,-5.047 -11.492,-17.664 11.785,-38.425 -12.629,-22.727 -47.403,-40.098 -8.687,5.047 -10.941,28.606 -2.809,42.629 25.812,20.195 1.965,22.437 -14.593,12.614 -15.977,-2.516 -15.988,-11.496 -1.121,-21.039 0.277,-25.242 -31.691,-40.668 -35.063,-26.641 -14.578,3.93 -6.172,18.508 -1.117,77.402 30.844,16.266 8.976,17.664 -9.82,15.715 -20.195,6.168 -17.664,-11.219 -7.856,-18.504 5.891,-25.246 -12.907,-14.301 -19.058,-15.992 -49.641,-23.555 -21.883,-3.359 0.274,31.965 17.387,55.242 14.593,21.039 33.086,9.824 10.664,20.469 -5.89,15.992 -21.317,9.527 -19.351,-10.941 -6.735,-12.887 -3.636,-19.078 -26.364,-18.23 -68.718,-21.039 -9.809,9.253 20.473,59.192 26.918,26.637 31.687,4.48 12.906,22.156 -6.168,21.04 -19.078,8.41 -17.937,-8.68 -14.301,-31.41 -26.656,-17.407 -64.223,-11.769 7.289,28.036 15.422,28.62 10.941,9.53 17.957,19.92 29.446,2.52 11.769,12.33 3.93,10.94 -1.395,11.22 -15.992,10.38 -26.363,-7.85 -13.734,-0.84 -26.086,25.24 -9.825,16.27 6.172,3.09 33.946,-0.85 38.976,10.37 76.574,35.34 33.379,6.45 33.93,-7.01 25.793,-15.42 -0.551,16.54 10.649,13.75 33.652,6.44 1.691,4.22 1.118,24.68 18.23,15.7 13.75,48.52 27.484,42.63 0.278,12.91 -17.664,37.3 0.554,39.55 7.856,22.14 15.422,21.32 36.187,15.71 14.578,21.87 15.145,7.01 18.508,-5.05 11.785,-18.78 -5.891,-26.93 -22.437,-9.53 -25.797,10.37 -5.047,-1.96 -3.652,-28.61 7.289,-24.67 15.988,-9.55 58.898,14.87"
       style="fill:#e6180a;fill-opacity:1;fill-rule:nonzero;stroke:none"
       transform="matrix(0.13333333,0,0,-0.13333333,0,260.85333)" />
    <path
       id="path15"
       d="m 940.371,1421.44 3.242,-3.81 -54.691,-48.86 -3.242,3.82 54.691,48.85"
       style="fill:#e6180a;fill-opacity:1;fill-rule:nonzero;stroke:none"
       transform="matrix(0.13333333,0,0,-0.13333333,0,260.85333)" />
    <path
       id="path16"
       d="m 419.918,1114.24 24.789,-5.58 17.453,-29.68 -19.207,-92.531 -49.918,-92.89 -76.476,-78.575 h -67.387 l -10.828,14.676 85.89,77.516 68.801,112.434"
       style="fill:#e6180a;fill-opacity:1;fill-rule:nonzero;stroke:none"
       transform="matrix(0.13333333,0,0,-0.13333333,0,260.85333)" />
    <path
       id="path17"
       d="m 859.078,758.719 10.781,8.082 30.973,7.633 9.887,-8.977 16.609,-62.859 5.844,-34.11 -4.496,-63.75 -25.586,-103.718 -18.863,-45.778 -30.52,-39.515 -37.273,-25.586 2.695,17.957 10.777,17.5 20.653,34.125 18.406,54.316 16.609,73.184 5.844,52.078 -8.086,58.359 -23.344,41.754"
       style="fill:#e6180a;fill-opacity:1;fill-rule:nonzero;stroke:none"
       transform="matrix(0.13333333,0,0,-0.13333333,0,260.85333)" />
    <path
       id="path18"
       d="m 687.73,658.586 7.145,7.031 22.125,2.207 17.402,6.281 2.746,3.118 9.172,-2.321 4.219,5.926 6.414,-2.922 4.887,1.086 11.234,3.071 26.832,52.042 12.453,30.426 9.239,-4.449 10.922,3.297 73.687,22.598 4.805,-10.067 -14.203,-0.972 -26.204,-6.95 -15.468,-10.293 3.082,-16.785 -9.871,-4.531 -20.145,-29.043 2.485,-9.348 18.39,4.203 9.922,20.114 -3.297,11.039 5.422,1.347 20.113,-36.738 -4.593,-42.531 12.859,-22.402 -7.453,-55.848 -7.969,-35.695 -9.516,-37.438 -15.91,-45.309 -25.519,-42.875 -3.035,19.075 15.359,38.945 -7.356,69.613 1.364,64.871 -15.129,4.903 -8.832,-15.051 1.883,-144.758 8.183,-21.539 3.004,-20.926 -5.894,-25.601 10.277,-26.383 -7.191,-8.652 -6.934,-16.868 11.445,-30.906 6.282,0.242 39.464,23.93 7.68,-20.488 -18.945,-23.442 -31.039,-6.574 -19.028,27.984 -3.23,39.079 0.129,14.007 -10.828,6.77 -1.153,28.801 -21.199,58.086 -5.828,60.582 -0.813,59.386 0.747,37.696 -44.188,-2.324 -3.832,-6.981 -11.184,6.594 -19.984,-5.766 -15.324,0.457 -17.324,-9.84 -31.137,-7.32 -29.059,-3.863 11.543,13.066 61.055,12.031 21.039,12.809 6.707,31.898"
       style="fill:#000000;fill-opacity:1;fill-rule:nonzero;stroke:none"
       transform="matrix(0.13333333,0,0,-0.13333333,0,260.85333)" />
    <path
       id="path19"
       d="m 853.754,740.914 h 7.539 v -7.176 h -7.539 v 7.176"
       style="fill:#000000;fill-opacity:1;fill-rule:nonzero;stroke:none"
       transform="matrix(0.13333333,0,0,-0.13333333,0,260.85333)" />
    <path
       id="path20"
       d="m 815.465,432.09 h 7.328 v -20.117 h -7.328 v 20.117"
       style="fill:#000000;fill-opacity:1;fill-rule:nonzero;stroke:none"
       transform="matrix(0.13333333,0,0,-0.13333333,0,260.85333)" />
    <path
       id="path21"
       d="m 872.039,693.422 11.207,1.336 6.328,-58.211 -11.207,-1.336 -6.328,58.211"
       style="fill:#000000;fill-opacity:1;fill-rule:nonzero;stroke:none"
       transform="matrix(0.13333333,0,0,-0.13333333,0,260.85333)" />
    <path
       id="path22"
       d="m 915.852,775.098 c 0,-1.981 15.503,-34.578 15.503,-34.578 l 9.934,-50.082 1.199,-67.567 -15.5,-96.98 -3.98,-9.532 3.574,-1.996 3.977,2.793 45.714,96.578 18.278,78.293 3.98,42.129 7.139,-2.777 -5.16,-61.199 -23.44,-83.867 -39.351,-81.477 -43.328,-57.633 -19.871,-15.504 -1.594,8.348 25.035,45.715 29.414,112.078 5.57,65.973 -12.726,73.527 -12.324,37.758"
       style="fill:#000000;fill-opacity:1;fill-rule:nonzero;stroke:none"
       transform="matrix(0.13333333,0,0,-0.13333333,0,260.85333)" />
    <path
       id="path23"
       d="m 623.996,1604.65 31.363,-2.74 17.258,-39.17 -13.215,-28.53 -43.379,5.33 -6.98,40.44"
       style="fill:#e6180a;fill-opacity:1;fill-rule:nonzero;stroke:none"
       transform="matrix(0.13333333,0,0,-0.13333333,0,260.85333)" />
    <path
       id="path24"
       d="m 721.676,1644 25.781,12.57 10.273,-3.57 3.668,-13.31 0.082,-12.47 -7.335,-21.01 -25.407,-22.84 -44.578,-10.18 -3.199,12.29 15.859,4.95 21.739,21.28"
       style="fill:#e6180a;fill-opacity:1;fill-rule:nonzero;stroke:none"
       transform="matrix(0.13333333,0,0,-0.13333333,0,260.85333)" />
    <path
       id="path25"
       d="m 414.707,1626.38 c 0,-9.9 -7.551,-17.91 -16.863,-17.91 -9.317,0 -16.867,8.01 -16.867,17.91 0,9.89 7.55,17.9 16.867,17.9 9.312,0 16.863,-8.01 16.863,-17.9"
       style="fill:#ff009c;fill-opacity:1;fill-rule:nonzero;stroke:none"
       transform="matrix(0.13333333,0,0,-0.13333333,0,260.85333)" />
    <path
       id="path26"
       d="m 454.133,1535.58 c 0,-9.18 -7.863,-16.62 -17.559,-16.62 -9.695,0 -17.558,7.44 -17.558,16.62 0,9.18 7.863,16.62 17.558,16.62 9.696,0 17.559,-7.44 17.559,-16.62"
       style="fill:#00ff0a;fill-opacity:1;fill-rule:nonzero;stroke:none"
       transform="matrix(0.13333333,0,0,-0.13333333,0,260.85333)" />
    <path
       id="path27"
       d="m 542.227,1399.85 c 0,-9.58 -8.532,-17.33 -19.051,-17.33 -10.52,0 -19.047,7.75 -19.047,17.33 0,9.57 8.527,17.33 19.047,17.33 10.519,0 19.051,-7.76 19.051,-17.33 v 0"
       style="fill:#ff9e00;fill-opacity:1;fill-rule:nonzero;stroke:none"
       transform="matrix(0.13333333,0,0,-0.13333333,0,260.85333)" />
    <path
       id="path28"
       d="m 612.852,1353.22 c 0,-10.54 -8.352,-19.09 -18.657,-19.09 -10.304,0 -18.656,8.55 -18.656,19.09 0,10.54 8.352,19.08 18.656,19.08 10.305,0 18.657,-8.54 18.657,-19.08"
       style="fill:#0072ff;fill-opacity:1;fill-rule:nonzero;stroke:none"
       transform="matrix(0.13333333,0,0,-0.13333333,0,260.85333)" />
    <path
       id="path29"
       d="m 687.367,1329.7 c 0,-11.63 -8.465,-21.05 -18.91,-21.05 -10.441,0 -18.91,9.42 -18.91,21.05 0,11.63 8.469,21.05 18.91,21.05 10.445,0 18.91,-9.42 18.91,-21.05"
       style="fill:#ffff00;fill-opacity:1;fill-rule:nonzero;stroke:none"
       transform="matrix(0.13333333,0,0,-0.13333333,0,260.85333)" />
    <path
       id="path30"
       d="m 491.98,1457.18 c 2.739,-4.47 0.215,-10.97 -5.636,-14.51 -5.848,-3.53 -12.809,-2.77 -15.547,1.71 -2.734,4.48 -0.211,10.98 5.637,14.51 5.851,3.54 12.812,2.77 15.546,-1.71"
       style="fill:#e6180a;fill-opacity:1;fill-rule:nonzero;stroke:none"
       transform="matrix(0.13333333,0,0,-0.13333333,0,260.85333)" />
    <path
       id="path31"
       d="m 537.301,1487.31 c 0,-4.18 -2.942,-7.58 -6.571,-7.58 -3.625,0 -6.566,3.4 -6.566,7.58 0,4.18 2.941,7.57 6.566,7.57 3.629,0 6.571,-3.39 6.571,-7.57"
       style="fill:#e6180a;fill-opacity:1;fill-rule:nonzero;stroke:none"
       transform="matrix(0.13333333,0,0,-0.13333333,0,260.85333)" />
    <path
       id="path32"
       d="m 444.102,1414.8 c 0.785,-0.89 0.168,-2.7 -1.602,-4.71 -1.773,-2 -4.414,-3.88 -6.871,-4.88 -2.461,-1 -4.336,-0.96 -4.887,0.11 -0.785,0.89 -0.168,2.71 1.606,4.71 1.773,2.01 4.414,3.88 6.871,4.88 2.457,1 4.336,0.96 4.883,-0.11"
       style="fill:#e6180a;fill-opacity:1;fill-rule:nonzero;stroke:none"
       transform="matrix(0.13333333,0,0,-0.13333333,0,260.85333)" />
    <path
       id="path33"
       d="m 304.563,1323.43 30.917,28.73 14.442,-14.53 -30.918,-28.73 -14.441,14.53"
       style="fill:#e6180a;fill-opacity:1;fill-rule:nonzero;stroke:none"
       transform="matrix(0.13333333,0,0,-0.13333333,0,260.85333)" />
    <path
       id="path34"
       d="m 241.047,1276.12 45.062,36.35 12.852,-14.82 -45.063,-36.36 -12.851,14.83"
       style="fill:#e6180a;fill-opacity:1;fill-rule:nonzero;stroke:none"
       transform="matrix(0.13333333,0,0,-0.13333333,0,260.85333)" />
    <path
       id="path35"
       d="m 226.84,1251.65 c 1.504,-1.69 1.613,-4.36 0.293,-6.95 -1.324,-2.59 -3.867,-4.68 -6.617,-5.43 -2.75,-0.76 -5.266,-0.06 -6.539,1.82 -1.504,1.7 -1.618,4.37 -0.293,6.96 1.32,2.59 3.863,4.68 6.617,5.43 2.75,0.75 5.262,0.05 6.539,-1.83 v 0"
       style="fill:#e6180a;fill-opacity:1;fill-rule:nonzero;stroke:none"
       transform="matrix(0.13333333,0,0,-0.13333333,0,260.85333)" />
    <path
       id="path36"
       d="m 222.223,780.617 11.898,4.27 17.192,-9.157 15.535,-14.496 0.164,-15.375 -33.199,-17.273 -16.641,11.039 1.656,33.039"
       style="fill:#e6180a;fill-opacity:1;fill-rule:nonzero;stroke:none"
       transform="matrix(0.13333333,0,0,-0.13333333,0,260.85333)" />
    <path
       id="path37"
       d="m 354.738,1276.29 38.039,12.03 8.782,-13 -11.055,-145.95 22.418,-26.01 -24.043,-92.3 -27.305,-12.357 -67.289,25.347 -3.246,27.3 25.68,125.47 31.203,88.41"
       style="fill:#e6180a;fill-opacity:1;fill-rule:nonzero;stroke:none"
       transform="matrix(0.13333333,0,0,-0.13333333,0,260.85333)" />
    <path
       id="path38"
       d="m 712.699,655.617 105.098,24.074 27.258,11.672 19.82,1.883 5.18,-9.547 0.468,-47.191 -8.375,-7.906 -148.394,-11.672 -15.211,2.711 -1.055,20.179"
       style="fill:#e6180a;fill-opacity:1;fill-rule:nonzero;stroke:none"
       transform="matrix(0.13333333,0,0,-0.13333333,0,260.85333)" />
    <path
       id="path39"
       d="m 1069.05,1536.23 c 2.24,0 16.54,-2.24 18.51,-3.93 1.96,-1.67 12.89,-15.15 12.89,-15.15 l -3.36,-25.79 1.68,-10.95 20.75,-36.16 7.86,-42.63 -7.86,-54.42 -14.57,-33.1 -77.98,95.65 27.21,8.68 25.8,26.37 5.89,28.9 -2.52,3.08 -26.93,3.36 -15.7,23.28 10.93,24.67"
       style="fill:#e6180a;fill-opacity:1;fill-rule:nonzero;stroke:none"
       transform="matrix(0.13333333,0,0,-0.13333333,0,260.85333)" />
    <path
       id="path40"
       d="m 493.168,1477.35 c -19.336,-15.05 -40.52,-41.95 -63.379,-50.83 -9.09,-3.46 -25.051,21.9 -33.441,0.83 -13.493,3.86 -23.703,-2.19 -24.352,-16.24 -15.113,-0.05 -34.156,-11.54 -42.629,-24.41 -8.476,-12.93 5.973,-27.2 -4.465,-39.01 -24.351,-27.54 -61.672,-49.03 -89.968,-72.47 -9.594,-7.88 -28.653,-17.91 -26.055,-32.92 3.57,-20.52 35.891,6.49 42.582,12.17 19.348,15.85 39.234,34.19 60.469,47.21 4.222,2.58 14.269,13.67 19.269,12.66 5.535,-1.25 16.739,-29.17 17.891,-34.72 1.801,-9.74 -9.594,-24.91 -12.809,-34.09 -10.875,-31.17 -22.855,-62.36 -31.527,-94.16 -9.121,-33.49 -9.465,-71.46 -21.719,-103.9 -6.285,-16.4 -19.5,-29.59 -27.324,-45.45 -13.051,-26.497 -23.668,-59.047 -30.844,-87.668 -6.816,-27.207 -7.582,-59.661 -5.488,-87.661 0.519,-5.082 6.496,-8.507 6.414,-12.988 -0.113,-4.871 -9.141,-6.105 -10.551,-11.461 -1.836,-6.933 3.555,-12.89 3.442,-19.383 -0.457,-24.953 -11.09,-54.191 3.945,-77.925 11.281,-16.77 56.816,5.293 63.312,18.687 3.766,7.063 -1.625,14.106 -4.336,20.274 -8.96,18.558 -23.457,28.882 -39.496,40.96 -4.531,3.524 -7.793,19.661 -3.687,24.61 3.687,4.223 10.617,0.976 15.051,0.098 11.363,-2.469 25.488,-1.008 37.336,-0.747 40.523,1.008 76.851,6.106 115.261,20.586 11.172,4.219 31.219,9.219 37.34,20 -34.726,-1.625 -65.715,-25.277 -102.273,-19.48 0.566,-0.098 26.101,25.695 26.101,25.695 11.496,14.481 49.176,58.703 57.617,74.953 6.004,11.364 11.833,30.746 21.411,39.614 5.617,5.191 20.535,3.066 27.988,4.543 17.855,3.621 36.492,10.226 51.219,21.609 14.609,11.294 7.109,34.644 29.949,40.304 12.648,3.14 24.043,-7.93 25.051,-20.05 0.843,-10.14 -8.149,-20.387 -16.934,-24.363 -8.992,-4.075 -18.262,0.632 -27.598,-4.969 -22.726,-13.57 -35.062,-44.074 -42.402,-68.067 -2.078,-6.8 -6.621,-21.867 -1.43,-28.214 6.157,-7.5 36.157,2.238 43.832,4.949 19.825,6.527 46.075,14.953 60.766,30.652 5.031,5.391 4.156,13.57 6.508,20.211 6.09,17.223 20.926,27.027 37.957,17.582 13.297,-7.437 10.812,-22.469 1.754,-32.191 -12.324,-13.137 -30.067,-4.907 -40.586,-19.547 -15.375,-21.43 -21.235,-52.438 -26.348,-77.86 -1.219,-6.07 -4.336,-23.132 1.528,-27.597 4.867,-3.781 13.457,0 18.503,1.59 16.739,4.906 32.762,11.851 47.747,20.976 14.691,8.946 25.632,19.641 38.296,31.008 -19.48,-36.836 -35.75,-75.715 -53.07,-113.641 -6.152,-13.457 -11.512,-37.953 -22.418,-48.035 -10.555,-9.738 -38.93,15.879 -49.515,19.821 -5.274,2 -15.649,4.464 -19.481,-1.524 -9.738,-15.262 24.305,-36.348 32.469,-44.937 -26.738,1.152 -54.481,7.55 -81.172,6.429 -8.113,-0.34 -21.652,0.067 -27.598,-6.105 -6.492,-6.508 -0.875,-12.856 6.496,-14.481 19.918,-4.398 43.02,-8.164 63.313,-10.195 v -1.621 c -16.981,-4.043 -34.824,0.469 -51.949,-2.582 -5.895,-1.055 -14.903,-2.922 -17.86,-8.945 -3.879,-8.606 8.117,-13.329 14.614,-14.141 21.605,-2.727 44.835,-1.914 66.558,-1.914 v -3.246 c -21.609,-1.707 -42.273,-5.813 -63.312,-10.992 -6.493,-1.575 -21.414,-6.348 -13.621,-15.7 5.503,-6.785 16.867,-6.07 24.984,-5.777 22.258,1.07 44.367,9.285 66.559,9.742 -10.438,-13.734 -31.477,-17.324 -43.833,-30.847 -20.792,-23.293 16.543,-13.993 27.598,-8.118 -6.086,-17.906 -15.293,-34.609 -22.726,-51.945 -2.547,-5.926 -8.278,-14.125 -7.305,-21.105 0.812,-5.489 5.68,-3.246 8.066,0 5.211,8.39 8.559,18.668 12.227,27.597 h 1.621 l -3.246,-16.234 c 14.613,2.387 24.773,38.898 29.223,51.949 h 1.621 c -1.621,-6.09 -15.582,-29.433 -8.829,-33.801 3.961,-2.711 7.208,5.293 8.36,7.825 5.34,12.339 11.836,24.644 16.703,37.339 h 1.625 l -11.363,-35.714 c 18.683,5.55 20.242,41.656 32.468,55.195 l -16.234,-43.832 c 12.984,1.055 19.008,24.351 22.727,35.715 h 1.621 l -8.114,-27.598 c 11.75,1.914 16.54,18.945 19.481,29.223 h 1.621 l -4.871,-21.106 c 10.555,1.625 13.266,13.684 16.234,22.727 h 1.625 c -6.054,-19.481 6.492,-11.965 11.364,1.625 h 1.625 v -9.742 c 10.242,1.625 12.984,12.289 16.234,21.105 h 1.621 l -1.621,-14.609 c 8.961,1.539 11.086,9.738 12.984,17.855 h 1.625 l -1.625,-11.363 c 10.422,0.828 13.621,10.391 16.235,19.48 h 1.625 l -1.625,-14.609 c 7.906,1.41 10.164,9.367 12.988,16.234 h 1.621 v -9.742 c 9.742,1.61 12.52,10.633 14.613,19.481 h 1.621 c -3.781,-21.641 7.86,-3.993 14.922,-0.973 6.524,2.598 16.883,1.703 24.039,2.598 0,-67.5 -5.421,-130.7 15.926,-196.43 2.695,-8.297 7.633,-15.895 9.742,-24.352 3.02,-12.078 -4.773,-29.464 13.278,-30.847 -1.153,-27.028 -2.059,-53.098 15.57,-76.297 12.582,-16.235 47.711,2.758 55.293,16.234 13.945,24.789 -12.711,47.078 -31.898,60.617 -6.852,4.739 -24.743,15.504 -20.571,26.704 2.567,6.835 14.692,11.98 20.571,15.632 15.648,9.743 30.293,21.235 43.75,33.868 35.324,33.179 59.625,74.933 80.632,118.035 24.985,51.445 42.838,113.039 42.838,170.457 0,14.609 -0.26,29.222 -0.47,43.832 -0.04,3.215 -0.18,12.547 -5.71,11.363 -5.357,-0.894 -3.54,-12.109 -3.54,-15.762 0.472,-16.707 -1.137,-32.941 -3.457,-49.175 -5.618,-39.985 -13.184,-81.168 -29.012,-118.508 -10.696,-25.973 -27.598,-50.324 -37.336,-76.297 h -1.625 c 21.105,66.461 24.918,141.219 11.039,209.418 -3.781,18.57 -10.113,37.66 -20.777,53.57 -2.438,4.027 -5.149,11.363 -10.082,12.988 -5.129,1.997 -16.805,-3.668 -21.707,-5.761 -16.348,-7.227 -33.149,-13.379 -49.383,-20.215 14.547,12.5 50.601,36.609 50.164,58.426 -0.278,13.004 -12.824,22.746 -10.895,37.355 1.25,9.742 12.094,19.481 22.387,18.652 3.961,-0.355 7.113,-2.578 10.195,-4.902 21.867,-16.508 -1.558,-30.047 -1.605,-47.824 -0.051,-16.301 9.285,-39.043 17.304,-53.086 4.969,-8.961 16.672,-34.254 30.196,-28.781 7.238,2.953 11.137,13.621 14.254,20.113 8.621,17.891 20.195,39.496 16.832,60.129 -2.289,14.027 -25.664,30.848 -1.75,42.211 7.953,3.91 16.101,-3.688 17.386,-11.363 1.672,-9.954 -6.722,-19.481 -7.031,-29.223 -0.39,-24.625 22.143,-44.465 39.643,-58.02 5.81,-4.578 40.65,-27.257 45.07,-11.414 1.98,7.078 -5.18,17.907 -8.1,23.977 -10.07,20.488 -20.73,40.375 -28.87,61.691 -10.42,27.336 -22.37,53.571 -27.53,82.793 -4.79,27.012 -1.67,56.821 -13.443,82.516 -8.051,17.42 -21.672,31.74 -37.664,42.2 -8.442,5.5 -20.325,9.2 -26.899,17.14 -4.855,5.86 0.34,13.89 0.797,20.48 1.199,17.47 -5.211,34.06 2.758,51.52 2.859,6.23 14.758,11.03 20.133,15.04 10.922,8.77 19.769,18.43 34.09,20.3 23.768,3.1 46.818,-26.52 48.698,-47.89 -7.4,-0.02 -14.22,-0.47 -21.1,-3.53 -41.462,-18.39 0.32,-87.82 38.62,-53.54 14.95,13.53 2.86,27.01 4.79,42.46 0.78,6.28 6.54,10.76 9.27,16.23 5.03,10.13 7.4,25.97 6.77,37.34 -1.84,24.66 -21.01,46.46 -20.05,71.43 1.19,30.73 40.91,59.04 54.25,86.03 18.38,37.81 21.4,87.07 5.94,126.63 -4.62,11.85 -15.16,21.11 -19.4,32.39 -2.27,5.65 3.71,12.09 4.06,17.94 1.28,20.68 -11.18,40.31 -33.91,38.33 -23.52,-2.05 -39.71,-30.73 -26.41,-51.32 8.55,-13.51 24.43,-17.36 39.4,-14.61 -0.39,-45.6 -51.55,-70.31 -92.538,-64.24 -23.519,3.47 -41.656,16.56 -66.558,15.47 -18.149,-0.79 -34.45,-7.39 -51.95,-11.3 -5.746,-1.02 -14.836,-4.87 -20.355,-1.62 -22.078,12.3 -12.453,38.59 -10.488,56.82 12.988,-9.13 28.281,-16.24 43.816,-7.08 23.148,13.57 18.395,53.41 -8.102,59.89 -12.417,3.03 -27.046,-1.92 -34.66,-12.29 -3.504,-4.81 -3.715,-12.49 -8.39,-16.27 -9.239,-7.47 -24.352,-8.36 -34.547,-16.44 -21.672,-17.18 -28.832,-51.64 -26.039,-77.62 1.136,-10.68 4.594,-22.77 9.465,-32.46 3.699,-7.33 11.152,-13.47 7.777,-22.46 -6.445,-17.14 -21.398,-32.32 -29.191,-49.25 -6.2,-12.99 -5.196,-29.42 -11.77,-41.63 -3.23,-6 -10.68,-8.76 -15,-14 -7.078,-8.63 -5.68,-19.92 -3.781,-30.13 -22.727,5.34 -51.348,-10.93 -45.457,-35.72 -9.821,6.8 -22.403,16.23 -34.09,19.27 -49.707,11.58 -102.438,-29.45 -147.875,-43.65 -10.762,-3.38 -24.301,-6.87 -35.57,-6.45 -8.118,0.39 -19.918,4.6 -27.141,-0.05 -12.356,-8.06 6.039,-19.15 9.285,-25.22 3.668,-6.68 -7.16,-4.23 -9.742,-3.01 -9.738,4.57 -35.715,15.99 -40.582,25.54 -3.539,7.35 0,23.55 -0.035,31.95 -0.664,33.26 7.761,66.1 8.152,99.06 0,10.09 2.254,20.87 1.461,30.84 -0.473,5.93 -4.012,11.79 -1.156,17.58 4.125,8.38 12.355,14.89 16.965,23.28 6.382,11.53 8.507,24.69 17.925,34.43 10.274,10.75 30.309,20.43 37.352,33.9 3.168,6.04 -2.727,11.64 -0.16,17.09 2.156,5.02 12.547,9.47 16.914,12.52 14.609,10.1 28.246,21.09 42.176,32.06 4.804,3.8 12.078,15.26 18.687,8.74 12.824,-12.67 4.738,-59.69 -12.648,-65.98 -9.27,-3.25 -18.426,10.05 -30.356,4.87 -8.59,-3.34 -12.988,-12.25 -12.988,-21.1 -0.52,-31.45 51.137,-26.22 42.207,4.87 38.492,10.52 30.504,60.02 39.305,89.29 3.375,11.23 15.695,19.2 17.515,29.22 6.965,2.06 13.36,11.82 19.871,2.87 6.102,-8.67 -0.843,-36.96 -0.39,-48.33 1.332,-28.03 9.738,-53.57 -0.973,-81.17 -2.437,-6.17 -4.644,-16.23 -10.73,-19.66 -4.321,-4.59 -18.024,-1.95 -26.641,-5.96 -16.09,-11.42 -12.402,-48 19.594,-36.68 17.258,6.09 7.953,17.76 16.199,28.59 8.59,11.29 22.34,18.26 30.148,30.45 17.758,27.51 8.606,60.03 3.247,89.29 -1.622,8.57 -5.422,41.86 9.675,41.86 5.715,0 8.149,-8.42 9.723,-12.64 5.359,-14.61 10.699,-28.8 14.012,-43.84 7.175,-33.03 11.168,-78.99 -9.629,-108.76 -6.864,-9.74 -21.606,-5.04 -27.028,-17.89 -5.437,-14.06 1.071,-29.79 16.235,-33.2 16.234,-3.7 28.23,9.67 27.531,25.1 -0.258,5.71 -4.852,12.59 -1.996,17.86 4.531,8.48 13.23,13.92 17.68,22.72 14.398,28.53 16.574,69.01 5.972,99.03 -8.601,23.68 -47.629,51.95 -39.609,77.92 6.641,21.53 31.914,17.71 48.848,26.63 38.343,20.18 47.336,47.93 34.14,85.11 -0.926,6.5 7.063,12.82 3.149,19.52 -3.508,5.98 -11.317,5.11 -14.953,0 -7.27,-10.33 6.023,-17.62 -7.176,-27.67 -8.18,-6.35 -18.864,-3.99 -28.133,-7.32 -4.301,-1.56 -7.352,-6.33 -11.785,-7.16 -6.949,-1.44 -13.231,3.98 -19.821,-1.44 -10.648,-8.14 -7.355,-31.9 -26.835,-34.09 -30.129,-2.72 -27.793,20.46 -42.973,38.96 -11.817,14.4 -30.078,23.02 -47.938,27.22 -26.543,6.23 -56.492,-0.96 -73.101,-24.24 -9.692,-13.49 -14.106,-46.44 -35.664,-45.71 -8.41,0.29 -29.758,6.93 -33.055,15.48 -4.285,10.49 2.777,20.77 -9.316,28.87 -11.43,7.45 -28.508,2.37 -31.672,-11.38 -2.957,-12.95 2.613,-27.29 17.222,-28.86 5.895,-0.65 12.094,2.92 17.582,0.21 14.594,-7.77 25.747,-21.11 44.106,-17.65 23.914,4.51 30.848,36.58 48.703,50.71 22.012,17.34 62.613,2.57 84.418,-8.33 7.855,-4.18 20.551,-10.67 22.191,-20.42 1.817,-10.69 -20.57,-3.71 -25.437,-3.24 -26.984,3.84 -58.445,-4.4 -72.664,-29.26 -10.293,-17.97 -2.633,-37.37 -27.988,-44.93 -6.965,-2.11 -17.469,-5.36 -23.524,0.42 -7.84,7.21 -4.527,19.95 -17.094,23.99 -13.457,4.31 -28.476,-1.73 -30.457,-16.8 -0.422,-3.26 0,-6.62 1.008,-9.74 8.36,-26.41 29.207,-6.88 45.699,-8.99 15.957,-2.05 30.829,-6.74 45.391,4.8 18.313,14.51 14.676,36.66 40.648,45.85 10.766,3.77 44.305,12.86 49.27,-2.71 3.574,-11.34 -12.141,-18.51 -19.105,-23.88 -16.168,-12.49 -31.981,-25.75 -48.02,-38.78 -5.035,-4.41 -29.465,-23.32 -36.25,-28.51 z m 192.145,107.47 c 16.039,1.62 35.277,20.56 39.66,35.71 1.929,6.49 -1.543,16.24 2.351,22.18 4.399,6.59 23.801,15.74 29.043,6.91 17.16,-29.09 -19.285,-65.08 -45.097,-68.26 -8.102,-0.99 -22.711,-7.63 -25.957,3.46 z m -288.965,57.79 c 19.757,2.58 24.968,-30.26 4.871,-33.09 -21.461,-3.02 -25.977,30.36 -4.871,33.09 z m 277.601,-26.95 c -0.554,-4.95 1.621,-14.82 8.848,-9.04 2.969,2.4 -11.609,17.16 -3.004,25.91 4.902,4.87 12.66,0.43 18.508,1.26 5.597,0.8 11.363,7.44 17.336,5.13 7.484,-2.92 3.328,-18.49 0.519,-23.4 -7.304,-13.06 -25.519,-31.63 -42.207,-28.63 -18.281,3.33 -11.445,21.9 0,28.77 z m 22.727,9.74 6.492,-11.36 c 10.617,6.49 4.871,16.75 -6.492,11.36 z m -14.61,-17.29 c -0.586,-0.58 -3.117,-1.95 -4.171,-1.54 -1.059,0.41 -2.52,11.82 -2.52,11.82 0,0 7.273,-9.69 6.691,-10.28 z m -45.457,-6.65 c 18.996,4.46 35.52,-34.63 29.645,-49.11 -5.016,-12.22 -13.102,-2.4 -21.527,-4.47 -4.872,-1.2 -6.493,-6.96 -11.461,-7.92 -3.149,-0.62 -6.703,0.91 -6.801,4.25 -0.195,6.86 10.598,8.97 7.758,16.19 -3.004,7.61 -21.965,2.32 -20.34,11.41 1.914,10.75 15.453,0 19.336,6.95 3.75,6.45 -9.176,19.68 3.39,22.7 z m -204.546,-51.29 c 20.875,3.8 29.511,-26.25 6.492,-29.92 -19.95,-3.2 -27.16,26.04 -6.492,29.92 z M 1071.68,760.129 c -30.84,5.961 -65.21,31.465 -73.395,63.312 -4.594,17.86 20.485,41.188 -7.773,52.715 -13.785,5.711 -25.051,-13.785 -25.035,-25.117 0.015,-11.867 9.871,-17.125 12.726,-27.598 4.516,-16.425 -10.422,-41.152 -17.578,-55.195 -2.582,-4.867 -5.926,-13.894 -12.324,-14.738 -9.754,-1.496 -21.41,25.277 -24.563,32.597 -4.851,11.297 -13.472,28.02 -12.269,40.586 0.695,7.254 6.523,12.614 8.422,19.481 4.629,16.898 -1.575,34.09 -18.668,40.34 -11.996,4.398 -27.598,-6.317 -31.184,-17.629 -6.152,-18.07 10.422,-30.133 8.149,-45.457 -3.375,-22.727 -40.602,-44.594 -56.512,-58.442 h -1.621 c -14.207,12.68 -12.989,30.844 -15.293,48.704 -0.942,6.492 -3.117,17.484 0.679,23.39 9.321,13.945 29.223,16.074 25.215,38.297 -4.289,23.59 -33.332,26.672 -47.293,9.676 -13.617,-16.528 0.848,-33.492 -6.656,-50.262 -12.141,-27.141 -41.055,-47.742 -62.156,-66.559 0,0 -8.231,0.067 -9.84,1.688 -1.606,1.625 -5.18,5.73 -6.656,9.953 -4.043,11.559 -5.551,28.199 -4.141,40.309 1.152,11.933 -2.824,30.843 2.145,41.754 4.269,9.238 23.343,11.769 30.648,19.464 16.496,17.356 -4.121,45.52 -25.144,42.321 -15.879,-2.418 -28.575,-19.61 -27.29,-35.371 0.602,-7.403 6.477,-16.543 2.239,-23.524 -17.922,-29.531 -64.692,-46.754 -96.703,-52.777 0,29.223 9.3,79.172 31.687,100.129 11.899,11.156 30.324,1.558 41.363,20.004 11.801,19.48 -2.773,42.109 -24.336,43.457 -15.113,0.941 -27.078,-14.239 -30.843,-27.227 -1.235,-4.867 0,-11.363 -2.742,-15.211 -12.403,-16.004 -39.465,-22.824 -57.325,-29.562 -6.816,-2.532 -33.472,-11.653 -38.961,-4.574 -5.324,7.042 4.711,24.671 7.371,31.476 7.243,18.719 17.29,41.543 36.461,51.43 14.239,7.336 28.524,-1.512 39.403,15.129 14.172,22.032 -4.012,54.762 -31.285,45.362 -21.102,-7.25 -16.235,-27.02 -28.297,-39.73 -19.594,-20.503 -55.68,-23.492 -82.094,-23.492 3.051,24.352 28.102,62.472 48.977,75.312 6.753,4.16 13.734,0.16 20.828,1.75 14.613,3.36 27.519,21.47 23.672,36.51 -3.668,14.34 -24.223,19.55 -36.657,14.66 -4.937,-1.99 -9.222,-7.66 -14.613,-8.23 -5.535,-0.6 -9.738,6.12 -13.133,9.4 -9.156,8.52 -23.797,16.51 -25.828,29.69 23.555,0 45.457,0 67.973,8.12 36.461,13.39 72.859,38.64 112.226,43.52 26.688,3.32 41.641,-20.79 66.559,-20.79 -0.113,5.52 -2.242,12.52 -0.36,17.79 6.579,18.34 34.157,9.3 43.215,21.17 4.5,6.27 1.301,14.45 3.996,21.1 3.473,8.79 13.215,11.72 17.387,19.48 6.086,11.77 5.567,26.77 11.004,38.96 8.313,18.87 25.406,37.34 31.074,56.82 3.719,12.99 -9.902,28.22 -13.785,40.59 -8.113,25.42 -5.957,51.32 7.598,74.68 11.886,20.81 28.719,19.28 45.945,30.42 13.473,8.54 21.559,35.29 43.848,24.02 17.176,-8.66 17.531,-37.11 0,-45.82 -15.164,-7.54 -24.352,6.96 -37.34,4.35 -23.297,-4.16 -9.738,-50.54 -0.582,-61.19 6.816,-7.99 15.582,-7.12 24.933,-5.37 19.79,4.33 38.036,11 58.442,12.71 19.48,1.62 34.094,-11.09 51.949,-15.18 37.611,-9.16 98.541,7.34 108.771,49.56 1.62,6.89 4.87,17.86 -0.72,23.66 -5.06,5.14 -12.42,3.23 -18.77,4.51 -13.05,2.61 -22.88,15.4 -20.56,28.67 3.99,22.73 34.51,30.16 47.53,11.36 9.29,-13.41 -2.84,-25.57 0.37,-38.96 1.61,-6.51 8.9,-11.87 12.18,-17.86 7.57,-13.86 12.21,-28.26 14.93,-43.83 7.21,-41.05 -3.52,-81.17 -26.99,-115.26 -13.15,-19.09 -36.19,-35.76 -39.96,-60.07 -4.28,-27.71 16.08,-51.13 18.72,-77.92 1.06,-10.71 -0.74,-25.7 -5.06,-35.71 -2.37,-5.38 -7.91,-8.54 -8.88,-14.65 -2.58,-16.2 8.96,-31.72 -8.74,-44.44 -18.05,-12.99 -46.31,7.14 -41.31,28.24 1.87,7.78 7.76,16.58 15.55,19.11 6.15,2 15.54,1.07 19.44,7.32 4.48,7.18 -1.19,19.02 -5.02,25.52 -11.47,18.78 -28.69,32.74 -51.758,29.59 -10.274,-1.39 -18.098,-9.33 -25.973,-15.37 -8.117,-6.14 -20.324,-11.93 -26.609,-19.74 -11.981,-14.85 -5.957,-38.33 -5.891,-54.56 0.031,-7.65 -5.91,-17.02 -3.687,-24.35 3.265,-10.62 22.582,-17.26 31.332,-22.73 16.656,-10.07 29.773,-24.67 38.363,-42.21 15.613,-31.93 10.033,-75.828 19.933,-110.391 8.73,-30.488 22.24,-60.746 35.86,-89.285 7.11,-14.562 16.66,-28.379 21.09,-43.785 z M 529.465,1494.33 c 8.117,2.4 10.668,-11.85 3.019,-13.82 -8.652,-2.22 -11.265,11.37 -3.019,13.82 z m -53.57,-32.89 -1.625,-1.63 z m 6.492,-2.42 c 15.601,2.94 12.695,-16.04 -1.621,-18.2 -15.7,-2.39 -9.825,16.04 1.621,18.2 z m -75.813,-34.45 c 13.992,4.97 19.321,-37.81 8.977,-39.56 -8.961,-1.55 -19.203,35.84 -8.977,39.56 z m -8.605,-55.67 c -12.985,2.18 -22.141,33.64 -16.653,45.01 6.411,13.24 14.559,-7.05 15.032,-12.54 0.566,-4.33 1.363,-8.62 1.558,-12.98 0.063,-6.5 0.063,-13.01 0.063,-19.49 z m 71.429,48.71 C 465,1403 446.672,1396.96 437.387,1386.47 c -10.875,-12.01 -13.946,-31.46 -24.805,-44.69 -5.863,-7.58 -20.277,-11.22 -24.48,-17.57 -3.118,-4.54 6.621,-6.59 8.894,-8.88 4.969,-4.87 2.598,-15.71 -1.574,-20.18 -5.992,-6.1 -31.543,-17.16 -39.172,-11.28 -6.461,4.99 -8.215,16.15 -10.977,23.34 -1.867,4.84 -5.746,10.56 -4.933,15.96 0.699,5.56 12.973,18.64 18.668,18.79 4.84,0.11 7.793,-4.23 12.906,-2.41 8.574,3.06 6.574,12.96 11.82,18.62 8.262,9.03 18.102,1.33 20.731,18.87 28.344,-3.4 35.16,37.32 64.933,40.57 z m 47.079,-2.32 c 22.73,6.57 35.035,-23.97 12.925,-30.69 -19.855,-6.04 -32.828,24.89 -12.925,30.69 z m -73.051,-0.93 c -1.203,-6.7 -4.985,-7.53 -11.363,-8.12 1.183,7.08 4.593,7.89 11.363,8.12 z m -82.176,-12.58 c 5.18,1.49 7.891,-4.73 9.059,-8.53 2.371,-7.71 11.867,-39.15 1.332,-43.41 -5.196,-2.09 -8.75,3.8 -10.344,7.7 -3.067,7.53 -12.207,40.59 -0.047,44.24 z m -10.359,-58.85 c -11.364,3.73 -21.559,29.22 -14.61,40.13 6.492,10.19 12.989,-3.15 14.125,-9.29 0.485,-4.3 0.485,-8.66 1.168,-12.98 0.828,-6.5 0.469,-11.66 -0.683,-17.86 z m 636.371,-25.97 c 0,0 -10.098,6.68 -21.817,9.83 -9.043,2.44 -19.222,1.53 -25.261,1.53 1.203,9.45 6.82,21.45 3.25,30.84 -11.496,32.91 -70.442,11.37 -89.289,0.34 -45.649,-26.89 -76.317,-84.04 -68.848,-136.72 1.039,-7.27 -0.957,-13.85 1.851,-21.1 12.645,-32.47 56.852,-29.29 84.856,-26.25 62.191,6.78 134.136,76.28 115.258,141.53 z m -396.106,52.79 c 23.946,6.02 24.887,-28.83 6.215,-32.86 -24.074,-5.32 -29.66,26.97 -6.215,32.86 z m 282.469,-70.65 -17.855,-17.86 c 16.898,2.91 38.714,12.94 46.152,29.22 7.418,16.81 -8.004,45.46 -26.672,47.08 4.254,-15.31 35.145,-43.83 6.492,-53.57 0,20.08 -3.246,41.62 -27.597,42.21 7.109,23.63 68.168,32.11 83.214,12.43 7.629,-9.97 -7.5,-24.69 1.918,-32.5 13.52,-11.22 39.852,2.93 47.063,-22.14 6.23,-21.69 -9.207,-45.46 -21.367,-61.69 -31.508,-42.45 -106.364,-86.62 -159.532,-53.57 -13.246,8.52 -16.23,25.97 -16.23,40.58 -0.051,31.5 8,53.1 24.82,79.55 5.504,8.65 14.141,28.37 25.407,30.57 4.968,1.02 7.238,-9.45 8.718,-12.7 5.356,-12.58 11.688,-23.52 25.469,-27.61 z m -538.641,48.7 c 5.746,1.06 9.399,-6.87 7.809,-11.43 -2.176,-7.45 -15.961,-22.05 -24.078,-22.66 -5.145,0 -11.637,7.31 -9.074,12.16 2.582,5.26 19.804,21.17 25.343,21.93 z m 327.602,-0.98 c 21.441,8.37 32.855,-23.96 14.461,-31.65 -21.996,-9.22 -34.465,23.8 -14.461,31.65 z M 875.754,1304 c -1.137,-0.84 -2.227,0.08 -4.156,0.71 -1.934,0.64 -6.399,5.33 -8.817,8.09 -2.418,2.76 -7.597,10.27 -7.597,10.27 0,0 4.886,-1.62 9.629,2.67 4.738,4.28 4.933,9.24 4.933,9.24 0,0 2.449,-2.81 5.277,-11.25 1.508,-4.55 3.196,-13.3 2.856,-15.23 -0.34,-1.93 -0.988,-3.66 -2.125,-4.5 z m -22.258,36.19 c 3.426,3.42 5.34,2.04 7.176,1.39 1.832,-0.65 6.25,-3.23 6.25,-3.23 0,0 -3.899,0.55 -8.395,-3.51 -4.496,-4.05 -4.722,-7.57 -4.722,-7.57 0,0 -1.996,4.3 -2.274,6.53 -0.39,3.09 -1.476,2.95 1.965,6.39 z m -600.008,-76.81 c -18.523,11.79 15.535,38.17 29.223,41.43 17.613,4.03 5.176,-15.45 0,-19.63 -3.703,-3.09 -7.5,-6.1 -11.367,-8.99 -5.86,-4.38 -12.043,-8.34 -17.856,-12.81 z m 667.215,25.98 24.352,-13.06 19.48,-14.54 c -1.219,22.32 -23.765,33.52 -43.832,27.6 z m -115.262,-29.22 19.481,25.97 c -13.539,-0.91 -22.774,-12.45 -19.481,-25.97 z m -426.953,22.19 c 25.36,4.22 16.059,-35.24 14.336,-51.42 -2.969,-25.52 -4.594,-50.68 -6.363,-76.29 -0.602,-8.85 -4.723,-18.93 -3.914,-27.6 1.152,-14.61 13.004,-13.56 17.68,-23.23 4.222,-8.8 0.308,-24.47 -1.332,-33.59 -2.727,-15.11 -11.235,-56.5 -28.684,-61.17 -7.5,-2.14 -15.52,1.64 -22.582,3.65 -17.891,5.1 -47.078,8.62 -49.805,31.55 -1.687,13.55 3.813,30.31 5.762,43.82 6.492,45.14 20.113,89.29 32.453,133.13 6.734,24.17 13.149,56.28 42.449,61.15 z m 529.231,-10.83 h -8.117 c 1.539,-21.32 29.949,-34.56 48.699,-37.34 -0.031,10.57 -0.469,28.88 -8.571,36.66 -7.875,7.59 -29.417,16.56 -32.011,0.68 z m -22.731,-51.95 -11.363,-17.85 c 28.93,4.51 17.859,30.74 9.742,48.69 -8.117,-7.74 -0.73,-13.99 1.621,-22.72 -15.777,2.38 -31.754,19.45 -42.207,30.84 -3.652,4.24 -8.117,15.2 -14.609,15.2 -18.313,0 -15.02,-36.85 -7.305,-45.68 13.539,-15.51 46.266,-11.79 64.121,-8.48 z m -24.351,53.58 c -1.621,-10.82 9.742,-16.81 19.484,-17.86 -0.812,10.57 -10.344,14.61 -19.484,17.86 z m -32.465,-6.5 37.336,-42.21 c -20.617,0 -54.918,16.24 -37.336,42.21 z m 82.613,3.72 c 1.43,2.58 4.645,5.65 9.188,6.12 4.547,0 8.054,-3.3 8.054,-3.3 0,0 -5.406,-1.41 -9.269,-5.71 -3.867,-4.3 -4.809,-12.19 -4.809,-12.19 -4.543,0.94 -5.34,10.52 -3.164,15.08 z m 18.004,-12.67 c 4.449,4.34 4.367,11.04 4.367,11.04 0,0 5.016,-3.67 7.418,-10.37 2.453,-6.83 4.594,-14.8 2.192,-17.21 -2.403,-2.4 -10.715,1.5 -15.891,3.88 -4.238,1.95 -9.367,7.16 -9.367,7.16 0,0 7.094,1.43 11.281,5.5 z m -707.769,-5.04 c 10.683,0.56 7.046,-11.98 -1.622,-12.68 -9.109,-0.98 -6.691,12.06 1.622,12.68 z M 796.902,1143.2 c -3.828,-3.62 2.778,-8.36 5.293,-9.88 6.918,-3.88 22.727,-11.17 29.774,-3.48 6.543,7.2 -30.082,18.07 -35.067,13.36 z m -72.629,-9.69 c 9.739,-41.88 58.313,-63.86 95.782,-72.66 14.609,-3.64 39.511,-6.25 50.324,6.1 -33.168,8.59 -63.492,8.12 -94.156,26.97 -16.25,9.85 -33.297,37.97 -51.95,39.59 z m -266.32,-72.92 C 434.414,967.391 394.414,890.992 337.027,842 c -19.058,-16.285 -39.121,-23.426 -64.058,-23.426 -5.145,0 -19.481,-2.469 -21.656,3.75 -2.825,7.403 52.226,52.727 69.402,70.926 37.058,40.063 63.699,85.859 82.125,136.36 9.742,26.29 19.402,52.77 19.48,81.18 6.399,-0.02 38.168,-17.65 35.633,-50.2 z m 1.707,-26.11 8.117,48.71 -16.234,25.97 c 9.723,-2.64 17.566,-13.46 27.598,-14.61 16.234,-1.72 32.468,17.74 49.398,0.41 4.789,-4.97 2.957,-12.85 0.016,-18.27 -12.84,-23.64 -29.934,-6.98 -46.168,-18.16 -9.172,-6.33 -12.356,-20.8 -22.727,-24.05 z M 258.359,862.406 c -9.058,2.871 18.782,90.438 24.317,105.242 4.336,11.625 11.398,31.594 20.519,40.282 4.903,4.72 16.27,3.16 17.485,-4.39 1.707,-10.532 -10.813,-24.395 -14.528,-33.993 -11.785,-30.356 -20.668,-59.465 -28.507,-90.91 -2.258,-8.91 -10.227,-19.106 -19.286,-16.231 z m 441.563,54.641 c 16.723,3.281 32.273,-9.496 24.351,-27.043 -4.3,-9.742 -22.109,-19.629 -32.468,-21.641 -8.895,-1.754 -10.68,11.899 -11.559,18.391 -1.898,13.621 5.067,27.437 19.676,30.293 z m 17.859,-246.203 c -3.25,11.363 12.418,34.691 17.5,45.453 17.532,37.16 37.696,75.004 51.832,113.641 4.758,12.984 -9.269,27.468 -4.738,42.207 3.93,13.441 20.875,22.726 33.961,15.761 13.41,-7.336 10.828,-23.863 1.754,-33.601 -6.445,-6.739 -16.836,-8.899 -22.387,-16.543 -9.758,-13.395 -15.437,-31.754 -22.34,-46.77 -18.293,-39.789 -34.48,-81.867 -55.582,-120.148 z M 690.184,855.91 667.957,800.715 618.754,690.324 h -1.625 c 2.16,24.352 53.246,141.074 73.055,165.586 z m 0,-21.101 c 0,0 -39.563,-128.364 -61.692,-142.86 l 39.903,92.531 z M 798.949,825.066 781.773,781.234 732.391,674.09 h -1.625 c 5.683,31.933 28.199,66.285 41.707,95.781 8.05,17.582 14.074,40.211 26.476,55.195 z M 771.352,813.703 704.793,667.598 h -1.625 c -1.621,11.965 9.711,28.246 15.016,38.961 12.195,24.351 22.925,49.953 34.886,74.675 5.293,10.957 8.832,24.352 18.282,32.469 z m 29.222,-12.988 c -3.25,-29.738 -27.031,-65.36 -39.465,-92.531 -4.418,-9.743 -8.25,-24.887 -17.355,-30.848 l 36.07,81.172 z M 690.184,797.469 661.645,730.91 641.48,688.699 c -1.625,12.469 9.219,29.578 14.61,40.586 11.363,21.934 21.105,45.391 30.844,68.184 z m 112.011,-9.742 c 2.582,-14.157 -4.351,-24.723 -9.965,-37.336 -9.906,-22.227 -26.367,-47.516 -30.621,-71.43 14.079,0 17.86,9.172 23.168,21.105 8.817,20.129 23.75,41.426 27.161,63.313 h -1.625 l -37.336,-81.172 h -1.625 c 3.961,26.785 23.718,61.074 37.339,84.418 0,0 10.063,-8.117 12.985,-8.117 2.922,0 13.476,2.824 35.019,11.738 2.871,0.942 55.618,17.481 48.993,7.238 -2.028,-3.199 -10.684,-0.746 -14.223,-2.742 0,0 -41.574,-6.996 -38.602,-21.121 4.512,-21.723 23.539,-40.812 28.864,-63.297 14.027,-56.82 -0.797,-115.406 -14.09,-170.457 -6.09,-25.242 -16.285,-53.57 -28.621,-76.301 -6.821,-12.613 -20.844,-26.898 -24.27,-40.582 -1.363,-5.421 -4.449,-17.468 -3.101,-22.73 1.574,-6.75 7.906,-13.359 6.671,-20.828 -2.273,-13.895 -14.074,-18.91 -10.421,-35.988 0.777,-3.899 2.273,-7.696 3.796,-11.364 9.969,-24.351 22.715,-2.191 40.813,3.926 4.027,1.367 10.133,4.125 14.094,1.383 11.328,-7.891 -6.481,-28.039 -14.157,-31.301 -6.671,-2.922 -19.726,-8.668 -26.918,-5.488 -13.683,6.039 -20.453,36.074 -21.41,49.336 -0.57,7.859 3.344,16.64 0.34,24.269 -2.273,5.571 -8.765,7.582 -10.797,13.071 -2.84,6.8 1.219,14.14 -0.617,21.101 -3.828,14.434 -12.012,27.598 -16.121,42.211 -8.195,28.91 -10.566,59.496 -13.406,89.285 -1.903,19.321 0.16,40.586 1.347,60.067 0.696,8.004 3.797,17.855 0.649,25.875 -4.805,11.918 -28.246,6.593 -36.363,1.722 h -1.625 c -6.836,2.742 -10.813,0.535 -12.989,-6.492 h -1.621 c -4.871,8.879 -15.375,6.328 -22.726,1.621 h -11.368 -1.621 c -8.117,2.68 -22.726,-4.871 -27.597,-11.363 -6.496,2.242 -9.856,1.543 -14.61,-3.246 l -38.965,-6.492 c 6.868,12.058 28.215,12.402 40.586,14.609 11.996,2.434 39.496,8.863 47.079,18.555 8.117,9.886 8.832,33.23 6.496,44.757 l 4.867,4.872 c 10.828,-1.672 34.465,3.57 42.211,11.363 l 9.738,-3.246 3.246,6.492 h 1.625 l 6.492,-3.246 c 0,16.234 10.731,32.402 17.582,47.078 10.016,21.41 18.59,42.937 26.25,64.934 z m -56.816,-1.622 -18.07,-42.21 -37.125,-81.168 h -1.625 l 35.031,79.546 z M 226.41,780.246 c 12.356,5.809 41.672,-14.613 39.399,-28.234 -1.754,-10.485 -10.325,-5.34 -16.348,-9.301 -3.309,-2.176 -4.676,-6.492 -8.18,-8.555 -21.152,-11.609 -30.406,38.782 -14.871,46.09 z m 465.395,-0.637 c -1.2,-23.05 -20.145,-50.632 -29.95,-71.425 -3.621,-7.696 -6.414,-18.215 -13.882,-22.731 8.117,28.801 25.797,70.309 43.832,94.156 z m 128.25,-379.871 c 3.734,20.567 24.351,39.821 32.32,60.063 20.164,51.949 36.738,108.086 40.586,163.965 1.738,25.129 0.973,52.597 -8.297,76.3 -6.234,15.926 -23.117,36.946 -24.641,53.539 -1.089,11.719 29.188,17.793 37.954,17.028 10.972,-0.957 13.41,-14.949 16.054,-23.488 7.809,-25.133 12.5,-50.329 15.246,-76.301 6.621,-63.313 -32.746,-180.246 -37.195,-191.563 -4.445,-11.312 -37.5,-63.472 -72.027,-79.543 z m 92.531,371.758 c 31.43,-44.191 32.273,-123.949 23.652,-175.328 -3.179,-18.93 -5.922,-38.168 -10.664,-56.82 -1.265,-6.055 -6.492,-17.907 -3.832,-23.879 3.231,-7.371 11.949,2.777 14.156,6.023 9.563,12.985 14.61,29.219 21.739,43.832 23.914,48.504 40.261,104.578 42.593,159.09 h 1.63 c 0,-74.949 -29.434,-156.512 -69.45,-219.156 -15.164,-23.735 -30.39,-48.363 -53.93,-64.938 33.797,61.559 66.543,185.102 53.344,254.192 -3.816,20.051 -19.238,76.984 -19.238,76.984 z m -188.313,-4.871 c -6.98,-32.613 -29.531,-67.211 -43.832,-97.406 h -1.625 l 31.852,71.429 z m 110.391,0 V 765 h -4.871 z M 699.922,765 l -38.961,-84.414 8.117,-3.25 28.621,61.691 13.586,24.352 -40.586,-89.289 -10.211,8.476 13.461,32.387 22.727,50.047 z m 150.961,-26.07 c -12.973,-1.723 -37.34,-44.922 -16.219,-43.426 13.395,0.941 23.703,8.961 25.633,22.418 0.926,6.394 0.812,22.387 -9.414,21.008 z m 1.637,-4.774 c 9.644,-18.07 -3.247,-31.754 -21.102,-34.09 1.379,13.442 9.738,26.75 21.102,34.09 z M 690.184,649.738 v -1.621 c -6.77,-7.746 -3.981,-25.375 -10.715,-30.844 -20.977,-16.835 -58.606,-16.234 -83.446,-25.214 -26.882,-9.965 -48.847,-33.586 -77.921,-38.098 9.398,17.855 45.878,17.598 50.73,38.894 2.324,10.211 -15.891,8.508 -21.508,7.907 -26.383,-2.973 -50.961,-12.84 -77.926,-7.84 v 1.621 l 89.29,19.48 c -5.7,17.86 -20.083,11.883 -34.157,11.364 -17.824,-0.305 -42.988,-0.16 -60,4.871 v 1.625 c 18.91,8.035 41.559,6.492 61.688,6.492 6.476,0 21.656,-1.754 25.972,4.188 6.172,7.921 -14.121,10.21 -17.855,11.382 -21.301,6.688 -45.781,10.407 -68.184,10.407 3.168,9.007 13.297,5.519 21.106,6.086 22.664,1.687 42.875,-4.465 64.933,-6.086 7.325,-0.391 26.446,-2.762 27.536,8.117 0.632,6.281 -7.032,10.519 -11.301,13.539 -9.738,6.734 -23.406,14.558 -24.348,27.043 l 56.817,-27.598 55.195,-12.984 z m 120.129,31.172 c -23.571,-7.808 -48.797,-12.957 -73.051,-18.199 -9.742,-2.031 -22.129,-0.438 -30.555,-6.008 -10.031,-6.574 -15.582,-26.461 -10.453,-37.449 5.031,-10.766 30.242,-4.059 39.383,-3.621 32.468,1.605 66.558,2.742 99.027,6.945 9.512,1.172 25.973,-0.453 33.395,6.738 10.437,10.34 5.746,53.539 -0.746,65.473 -4.418,8.133 -44.758,-9.82 -57,-13.879 z m 48.621,9.981 c 6.039,-0.567 7.613,-7.059 8.05,-11.93 0.926,-10.535 5.407,-38.133 -3.796,-45.684 -8.036,-6.589 -25.309,-3.554 -35.165,-4.836 -30.113,-3.929 -61.964,-5.535 -92.386,-6.316 -9.254,-0.242 -23.199,-4.918 -31.949,-0.617 -12.157,5.992 2.726,28.523 10.843,31.347 29.696,10.391 63.703,11.301 94.16,21.055 14.399,4.598 35,18.039 50.243,16.981 z m -43.75,-76.168 c -12.258,-3.606 -10.844,-24.434 -11.364,-34.789 -1.625,-36.707 0,-73.801 1.621,-110.391 0.36,-6.801 0.977,-42.68 12.016,-39.207 9.902,3.117 15.582,25.457 18.133,34.336 4.383,15.828 -2.551,37.226 -3.899,53.574 -1.98,20.762 -0.273,42.207 -0.273,63.313 0,12.48 4.805,39.332 -16.234,33.164 z m 3.246,-179.27 c -8.117,4.867 -6.59,23.52 -7.645,32.465 -4.012,33.832 -2.094,68.184 -2.094,102.273 0,8.118 -1.851,35.082 6.981,38.965 17.367,8.098 8.992,-33.101 9.933,-40.586 2.454,-19.48 -0.257,-39.011 0.942,-58.441 0.973,-12.016 6.914,-25.391 5.586,-37.34 -1.477,-13.262 -11.172,-24.547 -13.703,-37.336 z m -120.129,168.832 -3.25,-9.742 h -1.621 z m 11.363,0 -1.625,-8.117 h -1.625 z m -37.34,-3.246 -3.246,-9.742 h -1.625 z m 11.364,0 -4.872,-14.613 h -1.621 z m -24.352,-6.496 v -1.621 l -4.867,-6.496 z m -16.234,-4.867 -8.114,-19.485 h -1.625 z m 24.351,0 -1.621,-6.496 h -1.625 z M 628.492,584.805 622,568.57 h -1.625 z m 24.352,0 -4.871,-12.989 h -1.621 z m -37.34,-1.625 -4.867,-12.989 h -1.625 l 3.246,12.989 z m -14.609,-3.246 v -4.871 h -1.622 z m -14.61,-6.493 -6.496,-17.859 h -1.621 z m 22.727,-4.871 -1.625,-1.625 z m -37.336,-1.625 -9.742,-22.726 h -1.625 z m -14.613,-6.492 -22.727,-51.949 h -1.625 c 2.031,13.555 12.371,44.644 24.352,51.949 z M 823.301,303.957 c -9.742,8.715 -19.481,54.496 4.871,50.195 6.137,-1.07 32.758,-23.41 28.926,-29.66 -2.223,-3.621 -10.649,-4.301 -14.317,-5.926 -7.742,-3.246 -13.976,-8.328 -19.48,-14.609"
       style="fill:#000000;fill-opacity:1;fill-rule:nonzero;stroke:none"
       transform="matrix(0.13333333,0,0,-0.13333333,0,260.85333)" />
    <path
       id="path41"
       d="m 332.613,610.887 c -15.558,-34.309 15.996,-78.848 16.207,-111.735 25.078,21.262 79.371,26.391 95.293,60.536 7.442,16.121 0.934,35.003 -14.422,42.003 -15.429,7.036 -33.957,-0.246 -41.328,-16.402 7.403,16.227 0.934,35 -14.422,42.004 -15.394,7.109 -33.886,-0.281 -41.328,-16.406"
       style="fill:#e6180a;fill-opacity:1;fill-rule:nonzero;stroke:none"
       transform="matrix(0.13333333,0,0,-0.13333333,0,260.85333)" />
    <path
       id="path42"
       d="m 469.402,397.43 c -19.816,-5.098 -39.636,-10.196 -59.453,-15.293 6.696,2.043 11.328,7.906 15.84,12.926 9.852,12.367 18.578,25.886 24.438,40.582 2.621,7.308 5.253,15.449 3.363,23.25 m -43.641,-76.758 c 8.664,1.937 17.406,-1.641 25.254,-5 14.074,-6.739 27.063,-15.723 38.735,-26.055 4.437,-4.383 9.5,-8.93 11.273,-15.117 -5.27,20.488 -10.539,40.973 -15.809,61.465 m 15.809,-61.465 c -2.059,9.226 1.477,18.586 4.922,27.015 6.375,14.102 14.828,27.305 24.836,39.098 3.992,4.188 8.133,9.012 13.883,10.645 -19.817,-5.098 -39.633,-10.196 -59.45,-15.293 m 59.45,15.293 c -8.661,-1.942 -17.407,1.636 -25.25,4.992 -14.075,6.746 -27.063,15.726 -38.735,26.062 -4.437,4.379 -9.5,8.93 -11.277,15.118 5.273,-20.493 10.539,-40.977 15.812,-61.465"
       style="fill:#e6180a;fill-opacity:1;fill-rule:nonzero;stroke:none"
       transform="matrix(0.13333333,0,0,-0.13333333,0,260.85333)" />
    <path
       id="path43"
       d="m 694.434,402.121 c -7.02,-12.664 -23.289,-17.094 -36.375,-9.844 -13.086,7.254 -17.95,23.399 -10.93,36.063 7.019,12.664 23.289,17.094 36.375,9.844 13.086,-7.254 17.949,-23.399 10.93,-36.063"
       style="fill:#000000;fill-opacity:1;fill-rule:nonzero;stroke:none"
       transform="matrix(0.13333333,0,0,-0.13333333,0,260.85333)" />
    <path
       id="path44"
       d="m 700.855,341.758 c -7.019,-12.668 -23.289,-17.098 -36.371,-9.844 -13.086,7.254 -17.953,23.395 -10.929,36.063 7.019,12.664 23.285,17.093 36.371,9.839 13.086,-7.25 17.949,-23.394 10.929,-36.058"
       style="fill:#000000;fill-opacity:1;fill-rule:nonzero;stroke:none"
       transform="matrix(0.13333333,0,0,-0.13333333,0,260.85333)" />
    <path
       id="path45"
       d="m 640.18,375.207 c -2.559,-4.621 -6.364,-8.184 -10.828,-10.465 -7.653,-3.898 -17.289,-3.957 -25.543,0.621 -13.086,7.254 -17.95,23.395 -10.93,36.063 7.019,12.664 23.285,17.094 36.371,9.84 13.086,-7.254 17.949,-23.395 10.93,-36.059"
       style="fill:#000000;fill-opacity:1;fill-rule:nonzero;stroke:none"
       transform="matrix(0.13333333,0,0,-0.13333333,0,260.85333)" />
    <path
       id="path46"
       d="m 649.691,311.664 c -11.687,6.481 -12.57,19.41 -10.511,30.707 2.054,11.301 7.05,20.973 7.05,20.973 l -6.019,3.336 c 0,0 -22.18,-37.375 -45.59,-24.489 l 55.07,-30.527"
       style="fill:#000000;fill-opacity:1;fill-rule:nonzero;stroke:none"
       transform="matrix(0.13333333,0,0,-0.13333333,0,260.85333)" />
    <path
       id="path47"
       d="m 645.41,407.25 c 5.926,-20.664 -5.129,-40.609 -5.129,-40.609 l 5.91,-3.368 c 0,0 11.286,20.364 31.407,26.133"
       style="fill:#000000;fill-opacity:1;fill-rule:nonzero;stroke:none"
       transform="matrix(0.13333333,0,0,-0.13333333,0,260.85333)" />
    <path
       id="path48"
       d="m 624.41,363.09 c 20.664,5.926 40.606,-5.129 40.606,-5.129 l 3.297,5.949 c 0,0 -20.364,11.285 -26.133,31.406"
       style="fill:#000000;fill-opacity:1;fill-rule:nonzero;stroke:none"
       transform="matrix(0.13333333,0,0,-0.13333333,0,260.85333)" />
    <path
       id="path49"
       d="m 651.031,348.242 c -5.926,20.664 -25.867,31.719 -25.867,31.719 l 3.297,5.949 c 0,0 20.359,-11.289 40.48,-5.515"
       style="fill:#000000;fill-opacity:1;fill-rule:nonzero;stroke:none"
       transform="matrix(0.13333333,0,0,-0.13333333,0,260.85333)" />
    <path
       id="path50"
       d="m 506,707.066 c -12.832,-3.699 -23.539,8.032 -31.016,20.692 -7.48,12.66 -11.73,26.25 -11.73,26.25 l -6.555,-1.805 c 0,0 14.567,-55.148 -11.101,-62.547 L 506,707.066"
       style="fill:#000000;fill-opacity:1;fill-rule:nonzero;stroke:none"
       transform="matrix(0.13333333,0,0,-0.13333333,0,260.85333)" />
    <path
       id="path51"
       d="m 511.957,768.129 c -7.766,26.648 -53.387,34.473 -71.215,52.141 -5.664,-24.524 -40.121,-55.43 -32.535,-82.043 3.633,-12.606 18.184,-19.481 32.555,-15.34 14.293,4.121 22.953,17.687 19.32,30.293 3.633,-12.606 18.184,-19.481 32.555,-15.34 14.371,4.144 22.953,17.687 19.32,30.289"
       style="fill:#000000;fill-opacity:1;fill-rule:nonzero;stroke:none"
       transform="matrix(0.13333333,0,0,-0.13333333,0,260.85333)" />
  </g>
</svg>
