<svg xmlns="http://www.w3.org/2000/svg" width="180.28" height="260.853" viewBox="0 0 180.28 260.853"><path d="M9.996 65.418c0-30.23 24.711-54.941 54.942-54.941H1287.24c30.15 0 54.86 24.71 54.86 54.941V1891.94c0 30.23-24.71 54.94-54.86 54.94H64.938c-30.231 0-54.942-24.71-54.942-54.94z" style="fill:#fff;fill-opacity:1;fill-rule:nonzero;stroke:none" transform="matrix(.13333 0 0 -.13333 0 260.917)"/><path d="M9.996 65.418c0-30.23 24.711-54.941 54.942-54.941H1287.24c30.15 0 54.86 24.71 54.86 54.941V1891.94c0 30.23-24.71 54.94-54.86 54.94H64.938c-30.231 0-54.942-24.71-54.942-54.94z" style="fill:none;stroke:#000;stroke-width:19.9926;stroke-linecap:butt;stroke-linejoin:miter;stroke-miterlimit:10;stroke-dasharray:none;stroke-opacity:1" transform="matrix(.13333 0 0 -.13333 0 260.917)"/><path d="M40.469 1657.76v21.48H52.03l53.274 243.6h22.652l53.367-243.6h13.457v-21.48h-66.254v21.48h13.836l-11.656 54.15H77.531l-11.851-54.15h16.875v-21.48zm41.707 97.12h43.887l-21.801 101.38zM1319.63 307.566v-21.484h-11.57l-53.27-243.59h-22.65l-53.37 243.59h-13.46v21.484h66.26v-21.484h-13.84l11.66-54.148h53.17l11.85 54.148h-16.87v21.484zm-41.71-97.117h-43.89l21.81-101.379zM119.156 1545.8h61.418c-6.996.31-12.949 4.84-18.57 8.58-12.629 9.53-24.453 20.45-33.797 33.23-4.355 6.43-8.937 13.66-9.051 21.69m61.418-63.5c-8.879-.28-16.461-5.92-23.226-11.14-11.953-10.03-22.301-21.97-31.035-34.9-3.208-5.35-6.981-11.02-7.157-17.46v63.5m0-63.5c-.304 9.46-6.062 17.65-11.5 24.96-9.691 12.07-21.175 22.76-33.812 31.69-4.91 3.06-10.125 6.7-16.106 6.85h61.418m-61.418 0c8.875.28 16.457 5.93 23.223 11.13 11.957 10.05 22.305 21.99 31.039 34.91 3.207 5.35 6.977 11.02 7.156 17.46v-63.5M1240.94 419.523h-61.42c7-.308 12.95-4.835 18.57-8.578 12.63-9.527 24.46-20.449 33.8-33.23 4.36-6.43 8.93-13.656 9.05-21.688m-61.42 63.496c8.88.282 16.46 5.93 23.23 11.141 11.95 10.035 22.3 21.977 31.03 34.899 3.21 5.351 6.98 11.019 7.16 17.457v-63.497m0 63.497c.3-9.45 6.06-17.641 11.5-24.95 9.69-12.074 21.17-22.757 33.81-31.691 4.91-3.063 10.13-6.707 16.11-6.856h-61.42m61.42 0c-8.88-.277-16.46-5.925-23.23-11.128-11.95-10.047-22.3-21.985-31.03-34.911-3.21-5.347-6.98-11.019-7.16-17.457v63.496M680.047 1037.6h147.402c-16.789.75-31.074 11.61-44.566 20.59-30.305 22.86-58.692 49.08-81.11 79.75-10.46 15.44-21.449 32.78-21.726 52.05m147.402-152.39c-21.304-.67-39.5-14.22-55.734-26.73-28.695-24.093-53.531-52.745-74.488-83.761-7.7-12.839-16.758-26.449-17.18-41.898V1037.6m0-152.389c-.727 22.684-14.547 42.34-27.598 59.883-23.261 28.98-50.824 54.621-81.148 76.056-11.785 7.35-24.297 16.1-38.653 16.45h147.399m-147.399 0c21.301.67 39.497 14.22 55.735 26.72 28.691 24.11 53.527 52.76 74.488 83.77 7.695 12.84 16.746 26.45 17.176 41.9V1037.6" style="fill:#e6180a;fill-opacity:1;fill-rule:nonzero;stroke:none" transform="matrix(.13333 0 0 -.13333 0 260.917)"/></svg>