<svg xmlns="http://www.w3.org/2000/svg" width="180.28" height="260.853" viewBox="0 0 180.28 260.853"><path d="M9.996 65.418c0-30.23 24.711-54.941 54.942-54.941H1287.24c30.15 0 54.86 24.71 54.86 54.941V1891.94c0 30.23-24.71 54.94-54.86 54.94H64.938c-30.231 0-54.942-24.71-54.942-54.94z" style="fill:#fff;fill-opacity:1;fill-rule:nonzero;stroke:none" transform="matrix(.13333 0 0 -.13333 0 260.917)"/><path d="M9.996 65.418c0-30.23 24.711-54.941 54.942-54.941H1287.24c30.15 0 54.86 24.71 54.86 54.941V1891.94c0 30.23-24.71 54.94-54.86 54.94H64.938c-30.231 0-54.942-24.71-54.942-54.94z" style="fill:none;stroke:#000;stroke-width:19.9926;stroke-linecap:butt;stroke-linejoin:miter;stroke-miterlimit:10;stroke-dasharray:none;stroke-opacity:1" transform="matrix(.13333 0 0 -.13333 0 260.917)"/><path d="M67.578 1857.32H56.203v57.17c7.707 4.38 15.324 7.64 22.844 9.77 7.582 2.24 15.23 3.37 22.937 3.37 18.012 0 32.039-6.92 42.086-20.77 10.114-13.73 15.168-32.91 15.168-57.53 0-17.51-2.781-33.26-8.343-47.22-5.559-13.85-16.176-30.31-31.848-49.36l-39.43-48.47h67.012v31.25h12.988v-77.77H54.969v43.32l20.949 27.17c17.883 23.08 29.797 42.73 35.734 58.94 5.942 16.22 8.911 35.15 8.911 56.82 0 20.47-2.274 36.04-6.825 46.69-4.484 10.77-11.058 16.16-19.715 16.16-7.457 0-13.43-4.26-17.914-12.79q-6.732-12.6-8.53-36.75M1292.52 108.004h11.37V50.836c-7.71-4.379-15.32-7.633-22.84-9.766-7.59-2.25-15.23-3.37-22.94-3.375-18.01.004-32.04 6.926-42.09 20.774-10.11 13.73-15.16 32.906-15.16 57.527q0 26.274 8.34 47.227c5.56 13.847 16.18 30.3 31.85 49.355l39.43 48.473h-67.02v-31.25h-12.98v77.765h104.65v-43.32l-20.95-27.164c-17.89-23.082-29.8-42.73-35.74-58.945s-8.91-35.157-8.91-56.817c0-20.476 2.27-36.039 6.83-46.695q6.72-16.155 19.71-16.156 11.19 0 17.91 12.785c4.49 8.402 7.34 20.652 8.54 36.75M119.156 1545.8h61.418c-6.996.31-12.949 4.84-18.57 8.58-12.629 9.53-24.453 20.45-33.797 33.23-4.355 6.43-8.937 13.66-9.051 21.69m61.418-63.5c-8.879-.28-16.461-5.92-23.226-11.14-11.953-10.03-22.301-21.97-31.035-34.9-3.208-5.35-6.981-11.02-7.157-17.46v63.5m0-63.5c-.304 9.46-6.062 17.65-11.5 24.96-9.691 12.07-21.175 22.76-33.812 31.69-4.91 3.06-10.125 6.7-16.106 6.85h61.418m-61.418 0c8.88.28 16.457 5.93 23.223 11.13 11.957 10.05 22.305 21.99 31.039 34.91 3.207 5.35 6.977 11.02 7.156 17.46v-63.5M1240.94 419.523h-61.42c7-.308 12.95-4.835 18.57-8.578 12.63-9.527 24.46-20.449 33.8-33.23 4.36-6.43 8.93-13.656 9.05-21.688m-61.42 63.496c8.88.282 16.46 5.93 23.23 11.141 11.95 10.035 22.3 21.977 31.03 34.899 3.21 5.351 6.98 11.019 7.16 17.457v-63.497m0 63.497c.3-9.45 6.06-17.641 11.5-24.95 9.69-12.074 21.17-22.757 33.81-31.691 4.91-3.063 10.13-6.707 16.11-6.856h-61.42m61.42 0c-8.88-.277-16.46-5.925-23.23-11.128-11.95-10.047-22.3-21.985-31.03-34.911-3.21-5.347-6.98-11.019-7.16-17.457v63.496M680.039 345.609H532.641c16.785-.75 31.07-11.613 44.562-20.589 30.309-22.864 58.695-49.082 81.11-79.75 10.46-15.434 21.453-32.782 21.726-52.051m-147.398 152.39c21.3.672 39.496 14.227 55.734 26.735 28.691 24.09 53.527 52.742 74.488 83.758 7.696 12.839 16.754 26.449 17.176 41.898V345.609m0 152.391c.731-22.687 14.551-42.34 27.602-59.883 23.261-28.98 50.82-54.621 81.144-76.058 11.785-7.352 24.301-16.094 38.656-16.45H680.039m147.402 0c-21.304-.671-39.5-14.222-55.734-26.714-28.695-24.11-53.531-52.762-74.488-83.778-7.699-12.84-16.746-26.449-17.18-41.898v152.39M680.039 1652.9h147.402c-16.789.75-31.074 11.62-44.566 20.59-30.305 22.87-58.691 49.08-81.109 79.75-10.461 15.43-21.45 32.78-21.727 52.05m147.402-152.39c-21.304-.67-39.5-14.22-55.738-26.73-28.691-24.09-53.527-52.74-74.484-83.76-7.699-12.84-16.758-26.45-17.18-41.9v152.39m0-152.39c-.726 22.69-14.547 42.34-27.598 59.88-23.261 28.99-50.824 54.63-81.148 76.06-11.785 7.35-24.297 16.1-38.652 16.45h147.398m-147.398 0c21.3.67 39.496 14.23 55.734 26.72 28.691 24.11 53.527 52.76 74.488 83.77 7.696 12.84 16.746 26.45 17.176 41.9V1652.9" style="fill:#e6180a;fill-opacity:1;fill-rule:nonzero;stroke:none" transform="matrix(.13333 0 0 -.13333 0 260.917)"/></svg>