<svg xmlns="http://www.w3.org/2000/svg" width="180.28" height="260.853" viewBox="0 0 180.28 260.853"><path d="M9.996 65.418c0-30.23 24.711-54.941 54.942-54.941H1287.24c30.15 0 54.86 24.71 54.86 54.941V1891.94c0 30.23-24.71 54.94-54.86 54.94H64.938c-30.231 0-54.942-24.71-54.942-54.94z" style="fill:#fff;fill-opacity:1;fill-rule:nonzero;stroke:none" transform="matrix(.13333 0 0 -.13333 0 260.917)"/><path d="M9.996 65.418c0-30.23 24.711-54.941 54.942-54.941H1287.24c30.15 0 54.86 24.71 54.86 54.941V1891.94c0 30.23-24.71 54.94-54.86 54.94H64.938c-30.231 0-54.942-24.71-54.942-54.94z" style="fill:none;stroke:#000;stroke-width:19.9926;stroke-linecap:butt;stroke-linejoin:miter;stroke-miterlimit:10;stroke-dasharray:none;stroke-opacity:1" transform="matrix(.13333 0 0 -.13333 0 260.917)"/><path d="M58.668 1915.2c8.34 4.14 16.43 7.22 24.266 9.23 7.836 2.14 15.48 3.2 22.937 3.2q25.596 0 39.242-17.22c9.164-11.36 13.746-27.7 13.746-49 0-15.98-2.625-28.95-7.867-38.89-5.246-9.94-12.926-16.63-23.035-20.06q18.484-5.505 27.582-23.61c6.066-12.08 9.102-28.59 9.102-49.54 0-24.74-5.246-43.74-15.735-56.99q-15.64-19.71-45.406-19.71c-7.453 0-15.164 1.19-23.125 3.55-7.902 2.37-16.18 5.92-24.836 10.66v58.23h11.469c.695-16.81 3.508-29.65 8.437-38.53 4.93-8.75 11.754-13.14 20.473-13.14 9.605 0 17.031 4.98 22.277 14.92 5.243 10.06 7.868 24.26 7.868 42.61 0 19.18-2.75 33.97-8.247 44.39-5.437 10.41-13.175 15.62-23.226 15.62h-6.254v21.31h4.93c9.289 0 16.269 4.02 20.945 12.07 4.68 8.05 7.016 20.06 7.016 36.04 0 15.03-2.211 26.52-6.633 34.45-4.364 8.04-10.649 12.07-18.863 12.07-7.458 0-13.368-3.85-17.727-11.54-4.36-7.58-6.985-18.64-7.867-33.2H58.668zM1301.43 50.125q-12.51-6.212-24.27-9.23c-7.84-2.133-15.48-3.196-22.94-3.2q-25.59.005-39.24 17.223c-9.16 11.363-13.74 27.7-13.75 49.004.01 15.98 2.63 28.941 7.88 38.883 5.24 9.941 12.92 16.629 23.03 20.062-12.32 3.668-21.52 11.539-27.59 23.613-6.06 12.075-9.1 28.586-9.1 49.536 0 24.738 5.25 43.734 15.74 56.992 10.43 13.137 25.56 19.707 45.4 19.707q11.19 0 23.13-3.551c7.9-2.367 16.18-5.918 24.83-10.652v-58.235h-11.46c-.7 16.809-3.51 29.649-8.44 38.528-4.93 8.758-11.76 13.136-20.47 13.136-9.61 0-17.04-4.968-22.28-14.914-5.24-10.058-7.87-24.261-7.87-42.609 0-19.176 2.75-33.969 8.25-44.387 5.43-10.414 13.18-15.625 23.22-15.625h6.26v-21.304h-4.93c-9.29 0-16.27-4.024-20.95-12.075-4.67-8.047-7.01-20.062-7.01-36.039q0-22.551 6.63-34.445c4.36-8.047 10.65-12.074 18.86-12.074q11.19 0 17.73 11.543c4.36 7.574 6.98 18.64 7.87 33.199h11.47zM119.156 1545.8h61.418c-6.996.31-12.949 4.84-18.57 8.58-12.629 9.53-24.457 20.45-33.797 33.23-4.355 6.43-8.937 13.66-9.051 21.69m61.418-63.5c-8.879-.28-16.461-5.92-23.226-11.14-11.953-10.03-22.301-21.97-31.035-34.9-3.208-5.35-6.981-11.02-7.157-17.46v63.5m0-63.5c-.304 9.46-6.062 17.65-11.5 24.96-9.691 12.07-21.175 22.76-33.812 31.69-4.91 3.06-10.125 6.7-16.106 6.85h61.418m-61.418 0c8.875.28 16.457 5.93 23.223 11.13 11.957 10.05 22.305 21.99 31.039 34.91 3.203 5.35 6.977 11.02 7.156 17.46v-63.5M1240.94 419.523h-61.42c7-.308 12.95-4.835 18.57-8.578 12.63-9.527 24.46-20.449 33.8-33.23 4.36-6.43 8.93-13.656 9.05-21.688m-61.42 63.496c8.88.282 16.46 5.93 23.23 11.141 11.95 10.035 22.3 21.977 31.03 34.899 3.21 5.351 6.98 11.019 7.16 17.457v-63.497m0 63.497c.3-9.45 6.06-17.641 11.5-24.95 9.69-12.074 21.17-22.757 33.81-31.691 4.91-3.063 10.13-6.707 16.11-6.856h-61.42m61.42 0c-8.88-.277-16.46-5.925-23.23-11.128-11.95-10.047-22.3-21.985-31.03-34.911-3.21-5.347-6.98-11.019-7.16-17.457v63.496M680.043 345.609H532.641c16.789-.75 31.074-11.613 44.566-20.589 30.305-22.864 58.691-49.082 81.109-79.75 10.461-15.434 21.45-32.782 21.727-52.051m-147.402 152.39c21.304.672 39.5 14.227 55.734 26.735 28.695 24.09 53.531 52.742 74.488 83.758 7.696 12.839 16.758 26.449 17.18 41.898V345.609m0 152.391c.727-22.687 14.547-42.34 27.598-59.883 23.261-28.98 50.824-54.621 81.148-76.058 11.785-7.352 24.297-16.094 38.652-16.45H680.043m147.398 0c-21.3-.671-39.496-14.222-55.734-26.714-28.695-24.11-53.527-52.762-74.488-83.778-7.696-12.84-16.746-26.449-17.176-41.898v152.39M680.043 1037.6h147.398c-16.789.75-31.074 11.61-44.566 20.59-30.305 22.86-58.691 49.08-81.109 79.75-10.457 15.44-21.45 32.78-21.723 52.05m147.398-152.39c-21.304-.67-39.5-14.22-55.734-26.73-28.695-24.093-53.531-52.745-74.488-83.761-7.696-12.839-16.754-26.449-17.176-41.898V1037.6m0-152.389c-.73 22.684-14.551 42.34-27.602 59.883-23.261 28.98-50.824 54.621-81.148 76.056-11.781 7.35-24.297 16.1-38.652 16.45h147.402m-147.402 0c21.304.67 39.5 14.22 55.734 26.72 28.695 24.11 53.531 52.76 74.488 83.77 7.696 12.84 16.746 26.45 17.18 41.9V1037.6M680.043 1652.9h147.398c-16.789.75-31.074 11.62-44.566 20.59-30.305 22.87-58.691 49.08-81.109 79.75-10.457 15.43-21.45 32.78-21.723 52.05m147.398-152.39c-21.304-.67-39.5-14.22-55.734-26.73-28.695-24.09-53.531-52.74-74.488-83.76-7.696-12.84-16.754-26.45-17.176-41.9v152.39m0-152.39c-.73 22.69-14.551 42.34-27.602 59.88-23.261 28.99-50.824 54.63-81.148 76.06-11.781 7.35-24.297 16.1-38.652 16.45h147.402m-147.402 0c21.304.67 39.5 14.23 55.734 26.72 28.695 24.11 53.531 52.76 74.488 83.77 7.696 12.84 16.746 26.45 17.18 41.9V1652.9" style="fill:#e6180a;fill-opacity:1;fill-rule:nonzero;stroke:none" transform="matrix(.13333 0 0 -.13333 0 260.917)"/></svg>