<svg xmlns="http://www.w3.org/2000/svg" width="180.28" height="260.853" viewBox="0 0 180.28 260.853"><path d="M9.996 65.418c0-30.23 24.711-54.941 54.942-54.941H1287.24c30.15 0 54.86 24.71 54.86 54.941V1891.94c0 30.22-24.71 54.94-54.86 54.94H64.938c-30.231 0-54.942-24.72-54.942-54.94z" style="fill:#fff;fill-opacity:1;fill-rule:nonzero;stroke:none" transform="matrix(.13333 0 0 -.13333 0 260.917)"/><path d="M9.996 65.418c0-30.23 24.711-54.941 54.942-54.941H1287.24c30.15 0 54.86 24.71 54.86 54.941V1891.94c0 30.22-24.71 54.94-54.86 54.94H64.938c-30.231 0-54.942-24.72-54.942-54.94z" style="fill:none;stroke:#000;stroke-width:19.9926;stroke-linecap:butt;stroke-linejoin:miter;stroke-miterlimit:10;stroke-dasharray:none;stroke-opacity:1" transform="matrix(.13333 0 0 -.13333 0 260.917)"/><path d="M58.668 1915.21c8.34 4.14 16.43 7.22 24.266 9.23 7.836 2.13 15.48 3.2 22.937 3.2 17.063 0 30.145-5.74 39.242-17.23 9.164-11.36 13.746-27.69 13.746-49q-.002-23.97-7.867-38.88c-5.246-9.94-12.926-16.63-23.035-20.06q18.484-5.505 27.582-23.61c6.066-12.08 9.102-28.59 9.102-49.54 0-24.74-5.246-43.74-15.735-56.99q-15.64-19.71-45.406-19.71c-7.453 0-15.164 1.18-23.125 3.55q-11.853 3.555-24.836 10.65v58.24h11.469c.695-16.81 3.508-29.65 8.437-38.53q7.395-13.14 20.473-13.14 14.408 0 22.277 14.91c5.243 10.07 7.868 24.27 7.868 42.62 0 19.17-2.75 33.97-8.247 44.38-5.437 10.42-13.175 15.63-23.226 15.63h-6.254v21.3h4.93c9.289 0 16.269 4.03 20.945 12.07 4.68 8.06 7.016 20.07 7.016 36.05q0 22.545-6.633 34.44c-4.364 8.05-10.649 12.07-18.863 12.07-7.458 0-13.368-3.84-17.727-11.54-4.36-7.57-6.985-18.64-7.867-33.19H58.668zM1301.43 50.125c-8.34-4.144-16.43-7.219-24.27-9.234-7.84-2.13-15.48-3.196-22.94-3.196q-25.59 0-39.24 17.223c-9.16 11.363-13.74 27.7-13.75 49.004.01 15.98 2.63 28.941 7.88 38.883 5.24 9.941 12.92 16.629 23.03 20.062-12.32 3.668-21.52 11.539-27.59 23.613-6.06 12.075-9.1 28.586-9.1 49.536 0 24.738 5.25 43.734 15.74 56.992 10.43 13.137 25.56 19.707 45.4 19.707q11.19 0 23.13-3.551c7.9-2.367 16.18-5.918 24.83-10.652v-58.235h-11.46c-.7 16.809-3.51 29.649-8.44 38.528-4.93 8.758-11.76 13.136-20.47 13.136-9.61 0-17.04-4.968-22.28-14.914-5.24-10.058-7.87-24.261-7.87-42.609q0-28.765 8.25-44.387c5.43-10.418 13.18-15.625 23.22-15.625h6.26v-21.304h-4.93c-9.29 0-16.27-4.024-20.95-12.075-4.67-8.047-7.01-20.062-7.01-36.039q0-22.551 6.63-34.445c4.36-8.05 10.65-12.074 18.86-12.074q11.19 0 17.73 11.543c4.36 7.574 6.98 18.64 7.87 33.199h11.47zM180.492 1577.24c-.078-37.67-47.262-65.1-61.097-94.93-13.993 29.75-61.258 56.94-61.579 94.61-.078 17.75 13.676 32.22 30.551 32.22 16.953 0 30.789-14.31 30.789-32.06 0 17.83 13.676 32.22 30.547 32.22 16.953.09 30.711-14.31 30.789-32.06M1179.6 388.098c.08 37.664 47.26 65.093 61.1 94.922 14-29.747 61.26-56.938 61.58-94.602.08-17.754-13.68-32.23-30.55-32.23-16.96 0-30.79 14.316-30.79 32.07 0-17.836-13.67-32.231-30.55-32.231-16.95-.078-30.71 14.317-30.79 32.071M532.832 270.176c.191 90.398 113.43 156.23 146.633 227.82 33.59-71.398 147.019-136.652 147.785-227.051.191-42.609-32.82-77.347-73.316-77.347-40.688 0-73.891 34.355-73.891 76.961 0-42.797-32.82-77.344-73.316-77.344-40.692-.195-73.704 34.351-73.895 76.961M827.25 1113.03c-.191-90.4-113.43-156.229-146.633-227.819-33.586 71.398-147.019 136.659-147.785 227.059-.191 42.6 32.82 77.34 73.316 77.34 40.688 0 73.895-34.35 73.895-76.96 0 42.8 32.816 77.35 73.316 77.35 40.688.19 73.7-34.36 73.891-76.97M827.25 1728.34c-.191-90.4-113.43-156.23-146.633-227.82-33.586 71.39-147.019 136.65-147.785 227.05-.191 42.61 32.82 77.34 73.316 77.34 40.688 0 73.895-34.35 73.895-76.96 0 42.8 32.816 77.35 73.316 77.35 40.688.19 73.7-34.35 73.891-76.96" style="fill:#e6180a;fill-opacity:1;fill-rule:nonzero;stroke:none" transform="matrix(.13333 0 0 -.13333 0 260.917)"/></svg>