<svg xmlns="http://www.w3.org/2000/svg" width="180.28" height="260.853" viewBox="0 0 180.28 260.853"><path d="M9.996 65.418c0-30.23 24.711-54.941 54.942-54.941H1287.24c30.15 0 54.86 24.71 54.86 54.941V1891.94c0 30.23-24.71 54.94-54.86 54.94H64.938c-30.231 0-54.942-24.71-54.942-54.94z" style="fill:#fff;fill-opacity:1;fill-rule:nonzero;stroke:none" transform="matrix(.13333 0 0 -.13333 0 260.917)"/><path d="M9.996 65.418c0-30.23 24.711-54.941 54.942-54.941H1287.24c30.15 0 54.86 24.71 54.86 54.941V1891.94c0 30.23-24.71 54.94-54.86 54.94H64.938c-30.231 0-54.942-24.71-54.942-54.94z" style="fill:none;stroke:#000;stroke-width:19.9926;stroke-linecap:butt;stroke-linejoin:miter;stroke-miterlimit:10;stroke-dasharray:none;stroke-opacity:1" transform="matrix(.13333 0 0 -.13333 0 260.917)"/><path d="M165.871 1657.76H87.957v21.48H109v48.3H49.945v20.41l59.243 179.68h35.64v-177.19h24.266v-22.9h-24.266v-48.3h21.043zM109 1750.44v128.72l-42.18-128.72zM1194.22 307.566h77.92v-21.484h-21.05v-48.289h59.06v-20.418l-59.24-179.68h-35.64v177.192H1191v22.906h24.27v48.289h-21.05zm56.87-92.679V86.168l42.18 128.719zM119.156 1545.8h61.418c-6.996.31-12.949 4.84-18.57 8.58-12.629 9.53-24.453 20.45-33.797 33.23-4.355 6.43-8.937 13.66-9.051 21.69m61.418-63.5c-8.879-.28-16.461-5.92-23.222-11.14-11.957-10.03-22.305-21.97-31.039-34.9-3.208-5.35-6.981-11.02-7.157-17.46v63.5m0-63.5c-.304 9.46-6.062 17.65-11.5 24.96-9.691 12.07-21.175 22.76-33.812 31.69-4.91 3.06-10.125 6.7-16.106 6.85h61.418m-61.418 0c8.88.28 16.457 5.93 23.223 11.13 11.957 10.05 22.305 21.99 31.039 34.91 3.207 5.35 6.977 11.02 7.156 17.46v-63.5M1240.94 419.523h-61.42c7-.308 12.95-4.835 18.57-8.578 12.63-9.527 24.46-20.449 33.8-33.23 4.36-6.43 8.93-13.656 9.05-21.688m-61.42 63.496c8.88.282 16.46 5.93 23.23 11.141 11.95 10.035 22.3 21.977 31.03 34.899 3.21 5.351 6.98 11.019 7.16 17.457v-63.497m0 63.497c.3-9.45 6.06-17.641 11.5-24.95 9.69-12.074 21.17-22.757 33.81-31.691 4.91-3.063 10.13-6.707 16.11-6.856h-61.42m61.42 0c-8.88-.277-16.46-5.925-23.23-11.128-11.95-10.047-22.3-21.985-31.03-34.911-3.21-5.347-6.98-11.019-7.16-17.457v63.496M360.727 1652.9h147.402c-16.789.75-31.074 11.62-44.566 20.59-30.305 22.87-58.692 49.08-81.11 79.75-10.457 15.43-21.449 32.78-21.726 52.05m147.402-152.39c-21.305-.67-39.5-14.22-55.734-26.73-28.696-24.09-53.532-52.74-74.489-83.76-7.695-12.84-16.754-26.45-17.179-41.9v152.39m0-152.39c-.727 22.69-14.547 42.34-27.598 59.88-23.262 28.99-50.824 54.63-81.149 76.06-11.785 7.35-24.296 16.1-38.652 16.45h147.399m-147.399 0c21.305.67 39.496 14.23 55.735 26.72 28.695 24.11 53.531 52.76 74.488 83.77 7.695 12.84 16.746 26.45 17.176 41.9V1652.9M360.73 345.609H213.332c16.785-.75 31.07-11.613 44.563-20.589 30.308-22.864 58.695-49.082 81.109-79.75 10.461-15.434 21.453-32.782 21.726-52.051m-147.398 152.39c21.301.672 39.496 14.227 55.734 26.735 28.696 24.09 53.528 52.742 74.489 83.758 7.695 12.839 16.754 26.449 17.175 41.898V345.609m0 152.391c.731-22.687 14.551-42.34 27.602-59.883 23.262-28.98 50.82-54.621 81.145-76.058 11.785-7.352 24.3-16.094 38.656-16.45H360.73m147.403 0c-21.305-.671-39.5-14.222-55.735-26.714-28.695-24.11-53.531-52.762-74.488-83.778-7.695-12.84-16.746-26.449-17.18-41.898v152.39M999.355 1652.9h147.405c-16.79.75-31.08 11.62-44.57 20.59-30.3 22.87-58.69 49.08-81.11 79.75-10.45 15.43-21.447 32.78-21.725 52.05m147.405-152.39c-21.31-.67-39.5-14.22-55.74-26.73-28.69-24.09-53.53-52.74-74.48-83.76-7.7-12.84-16.759-26.45-17.185-41.9v152.39m0-152.39c-.726 22.69-14.546 42.34-27.597 59.88-23.262 28.99-50.824 54.63-81.149 76.06-11.781 7.35-24.296 16.1-38.652 16.45h147.398m-147.398 0c21.305.67 39.5 14.23 55.734 26.72 28.696 24.11 53.532 52.76 74.489 83.77 7.695 12.84 16.746 26.45 17.175 41.9V1652.9M999.355 345.609H851.953c16.789-.75 31.074-11.613 44.567-20.589 30.304-22.864 58.691-49.082 81.109-79.75 10.461-15.434 21.449-32.782 21.726-52.051m-147.402 152.39c21.305.672 39.5 14.227 55.738 26.735 28.692 24.09 53.528 52.742 74.485 83.758 7.699 12.839 16.758 26.449 17.179 41.898V345.609m0 152.391c.735-22.687 14.545-42.34 27.595-59.883 23.26-28.98 50.83-54.621 81.15-76.058 11.79-7.352 24.3-16.094 38.66-16.45H999.355m147.405 0c-21.31-.671-39.5-14.222-55.74-26.714-28.69-24.11-53.53-52.762-74.49-83.778-7.69-12.84-16.745-26.449-17.175-41.898v152.39" style="fill:#e6180a;fill-opacity:1;fill-rule:nonzero;stroke:none" transform="matrix(.13333 0 0 -.13333 0 260.917)"/></svg>