<svg xmlns="http://www.w3.org/2000/svg" width="180.28" height="260.853" viewBox="0 0 180.28 260.853"><path d="M9.996 65.418c0-30.23 24.711-54.941 54.942-54.941H1287.24c30.15 0 54.86 24.71 54.86 54.941V1891.94c0 30.22-24.71 54.94-54.86 54.94H64.938c-30.231 0-54.942-24.72-54.942-54.94z" style="fill:#fff;fill-opacity:1;fill-rule:nonzero;stroke:none" transform="matrix(.13333 0 0 -.13333 0 260.917)"/><path d="M9.996 65.418c0-30.23 24.711-54.941 54.942-54.941H1287.24c30.15 0 54.86 24.71 54.86 54.941V1891.94c0 30.22-24.71 54.94-54.86 54.94H64.938c-30.231 0-54.942-24.72-54.942-54.94z" style="fill:none;stroke:#000;stroke-width:19.9926;stroke-linecap:butt;stroke-linejoin:miter;stroke-miterlimit:10;stroke-dasharray:none;stroke-opacity:1" transform="matrix(.13333 0 0 -.13333 0 260.917)"/><path d="M151.465 1922.84v-46.52H75.731v-58.23c4.167 6.03 8.812 10.59 13.933 13.66q7.676 4.62 16.207 4.62c17.442 0 31.219-8.28 41.328-24.85q15.167-24.69 15.168-67.29c0-28.89-5.058-51.37-15.168-67.47q-15.164-24.15-42.465-24.15c-7.71 0-15.386 1.19-23.035 3.55q-11.372 3.555-23.789 11.01v57.88h11.375c.38-17.4 2.778-30.36 7.203-38.88 4.485-8.53 11.09-12.79 19.809-12.79 9.289 0 16.18 5.8 20.664 17.41 4.488 11.71 6.73 29.53 6.73 53.44 0 23.55-2.211 41.13-6.632 52.73-4.364 11.72-10.996 17.57-19.907 17.58-4.804-.01-9.101-1.9-12.89-5.69q-5.595-5.505-10.43-17.22h-9.476v131.21zM1208.63 42.492v46.516h75.74v58.234c-4.17-6.035-8.82-10.594-13.94-13.672s-10.52-4.613-16.21-4.613c-17.44 0-31.21 8.285-41.33 24.856-10.1 16.453-15.16 38.882-15.16 67.289 0 28.878 5.06 51.371 15.16 67.468 10.12 16.098 24.27 24.145 42.47 24.145 7.71 0 15.39-1.184 23.03-3.551 7.59-2.367 15.52-6.035 23.8-11.008v-57.879h-11.38q-.57 26.098-7.2 38.883c-4.49 8.52-11.09 12.781-19.81 12.781q-13.935 0-20.67-17.398c-4.49-11.719-6.73-29.531-6.73-53.441 0-23.555 2.21-41.133 6.64-52.731 4.36-11.719 11-17.578 19.91-17.578 4.8 0 9.09 1.895 12.89 5.684 3.72 3.668 7.2 9.41 10.42 17.218h9.48V42.492zM87.809 1482.39c13.355 0 20.39 14.23 24.07 28.47 3.68 14.23 4 28.46 4 28.46l6.797.09s1.277-57.02 27.988-57.02z" style="fill:#000;fill-opacity:1;fill-rule:nonzero;stroke:none" transform="matrix(.13333 0 0 -.13333 0 260.917)"/><path d="M65.176 1539.41c.082 27.74 41.746 47.89 53.98 69.81 12.235-21.99 53.899-42.15 53.981-69.81 0-13.12-12.074-23.76-27.032-23.76-14.875 0-26.949 10.64-26.949 23.76 0-13.12-12.074-23.76-27.031-23.76-14.953 0-26.95 10.64-26.95 23.76M1272.29 482.941c-13.36 0-20.4-14.234-24.08-28.468-3.67-14.235-3.99-28.469-3.99-28.469l-6.8-.082s-1.28 57.019-27.99 57.019z" style="fill:#000;fill-opacity:1;fill-rule:nonzero;stroke:none" transform="matrix(.13333 0 0 -.13333 0 260.917)"/><path d="M1294.92 425.922c-.08-27.75-41.74-47.902-53.98-69.813-12.24 21.993-53.9 42.145-53.98 69.813 0 13.117 12.08 23.75 27.03 23.75 14.87 0 26.95-10.633 26.95-23.75 0 13.117 12.08 23.75 27.03 23.75s26.95-10.633 26.95-23.75M285.5 1500.71c32.051 0 48.941 34.17 57.77 68.33 8.828 34.16 9.597 68.32 9.597 68.32l16.313.2s3.07-136.85 67.175-136.85z" style="fill:#000;fill-opacity:1;fill-rule:nonzero;stroke:none" transform="matrix(.13333 0 0 -.13333 0 260.917)"/><path d="M231.184 1637.56c.191 66.6 100.187 114.96 129.55 167.55 29.368-52.78 129.36-101.15 129.551-167.55 0-31.48-28.98-57.01-64.871-57.01-35.699 0-64.68 25.53-64.68 57.01 0-31.48-28.98-57.01-64.871-57.01s-64.679 25.53-64.679 57.01M435.969 497.805c-32.051 0-48.942-34.164-57.77-68.325-8.828-34.164-9.597-68.328-9.597-68.328l-16.313-.191s-3.07 136.844-67.176 136.844z" style="fill:#000;fill-opacity:1;fill-rule:nonzero;stroke:none" transform="matrix(.13333 0 0 -.13333 0 260.917)"/><path d="M490.285 360.961c-.191-66.602-100.187-114.965-129.551-167.555-29.367 52.782-129.359 101.149-129.55 167.555 0 31.477 28.98 57.004 64.871 57.004 35.699 0 64.679-25.527 64.679-57.004 0 31.477 28.981 57.004 64.871 57.004 35.891 0 64.68-25.527 64.68-57.004M924.121 1500.71c32.051 0 48.942 34.17 57.77 68.33s9.597 68.32 9.597 68.32l16.312.2s3.07-136.85 67.18-136.85z" style="fill:#000;fill-opacity:1;fill-rule:nonzero;stroke:none" transform="matrix(.13333 0 0 -.13333 0 260.917)"/><path d="M869.805 1637.56c.191 66.6 100.187 114.96 129.55 167.55 29.365-52.78 129.355-101.15 129.555-167.55 0-31.48-28.98-57.01-64.87-57.01-35.7 0-64.685 25.53-64.685 57.01 0-31.48-28.98-57.01-64.871-57.01s-64.679 25.53-64.679 57.01M1074.59 497.805c-32.05 0-48.94-34.164-57.77-68.325-8.83-34.164-9.59-68.328-9.59-68.328l-16.316-.191s-3.074 136.844-67.176 136.844z" style="fill:#000;fill-opacity:1;fill-rule:nonzero;stroke:none" transform="matrix(.13333 0 0 -.13333 0 260.917)"/><path d="M1128.91 360.961c-.19-66.602-100.19-114.965-129.555-167.555-29.363 52.782-129.359 101.149-129.55 167.555 0 31.477 28.98 57.004 64.871 57.004 35.699 0 64.679-25.527 64.679-57.004 0 31.477 28.985 57.004 64.875 57.004s64.68-25.527 64.68-57.004M604.805 885.41c32.05 0 48.941 34.164 57.769 68.324 8.832 34.164 9.598 68.326 9.598 68.326l16.312.19s3.075-136.84 67.176-136.84z" style="fill:#000;fill-opacity:1;fill-rule:nonzero;stroke:none" transform="matrix(.13333 0 0 -.13333 0 260.917)"/><path d="M550.488 1022.25c.192 66.6 100.188 114.97 129.555 167.56 29.363-52.78 129.359-101.15 129.551-167.56 0-31.473-28.981-57-64.871-57-35.7 0-64.68 25.527-64.68 57 0-31.473-28.984-57-64.875-57s-64.68 25.527-64.68 57" style="fill:#000;fill-opacity:1;fill-rule:nonzero;stroke:none" transform="matrix(.13333 0 0 -.13333 0 260.917)"/></svg>