<svg xmlns="http://www.w3.org/2000/svg" width="180.28" height="260.853" viewBox="0 0 180.28 260.853"><path d="M9.996 65.418c0-30.23 24.711-54.941 54.942-54.941H1287.24c30.15 0 54.86 24.71 54.86 54.941V1891.94c0 30.22-24.71 54.94-54.86 54.94H64.938c-30.231 0-54.942-24.72-54.942-54.94z" style="fill:#fff;fill-opacity:1;fill-rule:nonzero;stroke:none" transform="matrix(.13333 0 0 -.13333 0 260.917)"/><path d="M9.996 65.418c0-30.23 24.711-54.941 54.942-54.941H1287.24c30.15 0 54.86 24.71 54.86 54.941V1891.94c0 30.22-24.71 54.94-54.86 54.94H64.938c-30.231 0-54.942-24.72-54.942-54.94z" style="fill:none;stroke:#000;stroke-width:19.9926;stroke-linecap:butt;stroke-linejoin:miter;stroke-miterlimit:10;stroke-dasharray:none;stroke-opacity:1" transform="matrix(.13333 0 0 -.13333 0 260.917)"/><path d="M89.758 1814.89q6.157 9.24 13.746 13.86c5.117 3.07 10.676 4.61 16.68 4.61q21.708 0 34.031-23.79 12.414-23.79 12.418-65.34c-.004-29.23-4.649-51.84-13.938-67.82q-13.934-23.79-39.621-23.79-29.004 0-43.98 32.67c-9.922 21.89-14.883 54.03-14.883 96.41 0 48.17 5.531 84.51 16.59 109.01q16.588 36.93 49.195 36.93 8.531 0 18.293-2.67c6.508-1.77 13.492-4.43 20.949-7.99v-46.87H147.77c-1.582 12.08-4.582 21.19-9.008 27.34-4.36 6.28-10.016 9.41-16.965 9.41q-16.875 0-24.457-21.66c-4.992-14.44-7.52-37.87-7.582-70.31m21.137-141.5c6.507 0 11.156 5.15 13.933 15.45 2.781 10.41 4.172 28.41 4.172 53.97 0 25.57-1.391 43.5-4.172 53.8-2.777 10.41-7.426 15.62-13.933 15.62-6.508 0-11.153-5.21-13.934-15.62-2.715-10.3-4.074-28.23-4.074-53.8 0-25.56 1.36-43.56 4.074-53.97q4.172-15.45 13.934-15.45M1270.34 150.438c-4.11-6.153-8.69-10.77-13.75-13.848q-7.68-4.617-16.68-4.617c-14.47 0-25.81 7.929-34.03 23.793q-12.42 23.79-12.42 65.336c0 29.234 4.65 51.843 13.94 67.824 9.29 15.859 22.49 23.789 39.62 23.789q29.01-.001 43.98-32.668 14.88-32.849 14.88-96.406 0-72.262-16.59-109.016c-11.06-24.617-27.45-36.93-49.19-36.93q-8.535.002-18.3 2.664c-6.5 1.778-13.49 4.438-20.94 7.989v46.875h11.47q2.37-18.111 9-27.344c4.36-6.274 10.02-9.41 16.97-9.41q16.875.001 24.45 21.66c5 14.441 7.52 37.879 7.59 70.309m-21.14 141.503c-6.51 0-11.15-5.148-13.93-15.445-2.79-10.418-4.18-28.406-4.18-53.973 0-25.566 1.39-43.5 4.18-53.796 2.78-10.418 7.42-15.625 13.93-15.625s11.15 5.207 13.93 15.625q4.08 15.445 4.08 53.796c0 25.567-1.36 43.555-4.08 53.973-2.78 10.297-7.42 15.445-13.93 15.445M180.492 1577.24c-.078-37.67-47.262-65.1-61.097-94.93-13.993 29.75-61.254 56.94-61.575 94.61-.082 17.75 13.672 32.22 30.547 32.22 16.953 0 30.789-14.31 30.789-32.06 0 17.83 13.676 32.22 30.547 32.22 16.957.09 30.711-14.31 30.789-32.06M1179.6 388.098c.08 37.664 47.26 65.093 61.1 94.922 14-29.747 61.26-56.938 61.58-94.602.08-17.754-13.68-32.23-30.55-32.23-16.96 0-30.79 14.316-30.79 32.07 0-17.836-13.68-32.231-30.55-32.231-16.95-.078-30.71 14.317-30.79 32.071M507.941 1728.34c-.191-90.4-113.429-156.23-146.632-227.82-33.586 71.39-147.016 136.65-147.786 227.05-.191 42.61 32.821 77.34 73.317 77.34 40.687 0 73.894-34.35 73.894-76.96 0 42.8 32.817 77.35 73.317 77.35 40.687.19 73.699-34.35 73.89-76.96M507.941 1113.03c-.191-90.4-113.429-156.229-146.632-227.819-33.586 71.398-147.016 136.659-147.786 227.059-.191 42.6 32.821 77.34 73.317 77.34 40.687 0 73.894-34.35 73.894-76.96 0 42.8 32.817 77.35 73.317 77.35 40.687.19 73.699-34.36 73.89-76.97M213.527 270.176c.192 90.398 113.43 156.23 146.633 227.82 33.586-71.398 147.016-136.652 147.785-227.051.192-42.609-32.82-77.347-73.316-77.347-40.691 0-73.895 34.355-73.895 76.961 0-42.797-32.82-77.344-73.316-77.344-40.688-.195-73.699 34.351-73.891 76.961M1146.56 1728.34c-.19-90.4-113.43-156.23-146.63-227.82-33.586 71.39-147.016 136.65-147.785 227.05-.192 42.61 32.82 77.34 73.316 77.34 40.691 0 73.894-34.35 73.894-76.96 0 42.8 32.825 77.35 73.315 77.35 40.69.19 73.7-34.35 73.89-76.96M1146.56 1113.03c-.19-90.4-113.43-156.229-146.63-227.819-33.586 71.398-147.016 136.659-147.785 227.059-.192 42.6 32.82 77.34 73.316 77.34 40.691 0 73.894-34.35 73.894-76.96 0 42.8 32.825 77.35 73.315 77.35 40.69.19 73.7-34.36 73.89-76.97M852.148 270.176c.192 90.398 113.43 156.23 146.633 227.82 33.589-71.398 147.019-136.652 147.789-227.051.19-42.609-32.82-77.347-73.32-77.347-40.69 0-73.891 34.355-73.891 76.961 0-42.797-32.82-77.344-73.316-77.344-40.691-.195-73.703 34.351-73.895 76.961" style="fill:#e6180a;fill-opacity:1;fill-rule:nonzero;stroke:none" transform="matrix(.13333 0 0 -.13333 0 260.917)"/></svg>