<svg xmlns="http://www.w3.org/2000/svg" width="180.28" height="260.853" viewBox="0 0 180.28 260.853"><path d="M9.996 65.418c0-30.23 24.711-54.941 54.942-54.941H1287.24c30.15 0 54.86 24.71 54.86 54.941V1891.94c0 30.22-24.71 54.94-54.86 54.94H64.938c-30.231 0-54.942-24.72-54.942-54.94z" style="fill:#fff;fill-opacity:1;fill-rule:nonzero;stroke:none" transform="matrix(.13333 0 0 -.13333 0 260.917)"/><path d="M9.996 65.418c0-30.23 24.711-54.941 54.942-54.941H1287.24c30.15 0 54.86 24.71 54.86 54.941V1891.94c0 30.22-24.71 54.94-54.86 54.94H64.938c-30.231 0-54.942-24.72-54.942-54.94z" style="fill:none;stroke:#000;stroke-width:19.9926;stroke-linecap:butt;stroke-linejoin:miter;stroke-miterlimit:10;stroke-dasharray:none;stroke-opacity:1" transform="matrix(.13333 0 0 -.13333 0 260.917)"/><path d="m160.945 1877.75-58.39-219.98H83.312l56.872 214.83H70.328v-35.87H57.34v86.11h103.605zM1199.11 87.586l58.39 219.98h19.24l-56.87-214.832h69.86v35.868h12.98v-86.11h-103.6zM180.492 1577.24c-.078-37.67-47.262-65.1-61.097-94.93-13.993 29.75-61.258 56.94-61.575 94.61-.082 17.75 13.672 32.22 30.547 32.22 16.953 0 30.789-14.31 30.789-32.06 0 17.83 13.676 32.22 30.547 32.22 16.953.09 30.711-14.31 30.789-32.06M1179.56 388.098c.08 37.664 47.26 65.093 61.1 94.922 13.99-29.747 61.26-56.938 61.57-94.602.09-17.754-13.67-32.23-30.54-32.23-16.96 0-30.79 14.316-30.79 32.07 0-17.836-13.68-32.231-30.55-32.231-16.96-.078-30.71 14.317-30.79 32.071M507.949 1728.34c-.191-90.4-113.429-156.23-146.636-227.82-33.586 71.39-147.016 136.65-147.786 227.05-.191 42.61 32.821 77.34 73.321 77.34 40.687 0 73.89-34.35 73.89-76.96 0 42.8 32.821 77.35 73.317 77.35 40.691.19 73.703-34.35 73.894-76.96M507.949 1113.03c-.191-90.4-113.429-156.229-146.636-227.819-33.586 71.398-147.016 136.659-147.786 227.059-.191 42.6 32.821 77.34 73.321 77.34 40.687 0 73.89-34.35 73.89-76.96 0 42.8 32.821 77.35 73.317 77.35 40.691.19 73.703-34.36 73.894-76.97M213.527 270.176c.192 90.398 113.43 156.23 146.633 227.82 33.59-71.398 147.02-136.652 147.785-227.051.192-42.609-32.82-77.347-73.316-77.347-40.688 0-73.891 34.355-73.891 76.961 0-42.797-32.82-77.344-73.316-77.344-40.692-.195-73.703 34.351-73.895 76.961M1146.57 1728.34c-.19-90.4-113.43-156.23-146.632-227.82-33.59 71.39-147.02 136.65-147.786 227.05-.191 42.61 32.821 77.34 73.317 77.34 40.687 0 73.89-34.35 73.89-76.96 0 42.8 32.821 77.35 73.321 77.35 40.69.19 73.7-34.35 73.89-76.96M1146.57 1113.03c-.19-90.4-113.43-156.229-146.632-227.819-33.59 71.398-147.02 136.659-147.786 227.059-.191 42.6 32.821 77.34 73.317 77.34 40.687 0 73.89-34.35 73.89-76.96 0 42.8 32.821 77.35 73.321 77.35 40.69.19 73.7-34.36 73.89-76.97M852.152 270.176c.192 90.398 113.43 156.23 146.633 227.82 33.585-71.398 147.015-136.652 147.785-227.051.19-42.609-32.82-77.347-73.32-77.347-40.69 0-73.891 34.355-73.891 76.961 0-42.797-32.82-77.344-73.316-77.344-40.688-.195-73.699 34.351-73.891 76.961M827.258 1295.25c-.192-90.4-113.43-156.23-146.637-227.82-33.586 71.4-147.016 136.65-147.781 227.05-.195 42.61 32.816 77.35 73.316 77.35 40.688 0 73.891-34.36 73.891-76.97 0 42.8 32.82 77.35 73.316 77.35 40.692.19 73.703-34.35 73.895-76.96" style="fill:#e6180a;fill-opacity:1;fill-rule:nonzero;stroke:none" transform="matrix(.13333 0 0 -.13333 0 260.917)"/></svg>