<svg xmlns="http://www.w3.org/2000/svg" width="180.28" height="260.853" viewBox="0 0 180.28 260.853"><path d="M9.996 65.418c0-30.23 24.711-54.941 54.942-54.941H1287.24c30.15 0 54.86 24.71 54.86 54.941V1891.94c0 30.22-24.71 54.94-54.86 54.94H64.938c-30.231 0-54.942-24.72-54.942-54.94z" style="fill:#fff;fill-opacity:1;fill-rule:nonzero;stroke:none" transform="matrix(.13333 0 0 -.13333 0 260.917)"/><path d="M9.996 65.418c0-30.23 24.711-54.941 54.942-54.941H1287.24c30.15 0 54.86 24.71 54.86 54.941V1891.94c0 30.22-24.71 54.94-54.86 54.94H64.938c-30.231 0-54.942-24.72-54.942-54.94z" style="fill:none;stroke:#000;stroke-width:19.9926;stroke-linecap:butt;stroke-linejoin:miter;stroke-miterlimit:10;stroke-dasharray:none;stroke-opacity:1" transform="matrix(.13333 0 0 -.13333 0 260.917)"/><path d="M132.223 1798.92c11.25-3.44 19.781-11.19 25.593-23.26 5.875-12.07 8.817-27.87 8.817-47.41q0-36.57-14.789-56.1-14.69-19.53-42.465-19.53t-42.559 19.53q-14.79 19.53-14.789 56.1c0 19.54 2.942 35.34 8.817 47.41s14.406 19.82 25.593 23.26q-14.882 6.39-22.277 21.3c-4.93 10.06-7.39 22.79-7.39 38.17 0 22.49 4.484 39.66 13.457 51.49q13.46 17.76 39.148 17.76 25.591 0 39.055-17.76c9.035-11.83 13.554-29 13.554-51.49 0-15.38-2.496-28.11-7.488-38.17q-7.394-14.91-22.277-21.3m-6.918 58.76c0 18.71-1.203 31.55-3.602 38.53q-3.605 10.65-12.324 10.65-8.814 0-12.418-10.65c-2.336-6.98-3.508-19.82-3.508-38.53 0-18.58 1.172-31.36 3.508-38.34 2.402-6.87 6.543-10.3 12.418-10.3 5.879 0 9.984 3.43 12.324 10.3q3.6 10.47 3.602 38.34M129 1731.27c0 21.66-1.484 36.58-4.453 44.74-2.91 8.17-7.965 12.26-15.168 12.26-7.266 0-12.356-4.09-15.262-12.26-2.906-8.16-4.36-23.08-4.36-44.74 0-21.89 1.454-37.05 4.36-45.45 2.973-8.28 8.059-12.43 15.262-12.43 7.141 0 12.195 4.15 15.168 12.43 2.969 8.4 4.453 23.56 4.453 45.45M1227.91 166.418c-11.25 3.434-19.78 11.184-25.59 23.258q-8.82 18.11-8.82 47.406 0 36.573 14.79 56.102c9.8 13.019 23.95 19.531 42.46 19.531q27.78-.001 42.57-19.531c9.85-13.02 14.78-31.719 14.78-56.102 0-19.531-2.94-35.332-8.81-47.406-5.88-12.074-14.41-19.824-25.59-23.258 9.92-4.262 17.34-11.363 22.27-21.305 4.93-10.062 7.39-22.785 7.39-38.172 0-22.492-4.48-39.652-13.46-51.488q-13.455-17.759-39.15-17.758c-17.05 0-30.07 5.918-39.05 17.758-9.03 11.836-13.55 28.996-13.55 51.488 0 15.387 2.49 28.11 7.49 38.172 4.93 9.942 12.35 17.043 22.27 21.305m6.92-58.77q0-28.049 3.6-38.527c2.41-7.101 6.51-10.652 12.32-10.652q8.82 0 12.42 10.652 3.51 10.478 3.51 38.527 0 27.877-3.51 38.352-3.6 10.296-12.42 10.297c-5.87 0-9.98-3.434-12.32-10.297q-3.6-10.475-3.6-38.352m-3.7 126.415c0-21.661 1.49-36.575 4.46-44.743 2.91-8.168 7.96-12.25 15.16-12.25q10.905-.001 15.27 12.25c2.9 8.168 4.36 23.082 4.36 44.743 0 21.898-1.46 37.046-4.36 45.453q-4.455 12.426-15.27 12.425c-7.14 0-12.19-4.14-15.16-12.425-2.97-8.407-4.46-23.555-4.46-45.453M180.492 1577.24c-.078-37.67-47.262-65.1-61.097-94.93-13.993 29.75-61.254 56.94-61.575 94.61-.082 17.75 13.672 32.22 30.547 32.22 16.953 0 30.789-14.31 30.789-32.06 0 17.83 13.676 32.22 30.547 32.22 16.957.09 30.711-14.31 30.789-32.06M1179.64 388.098c.08 37.664 47.26 65.093 61.1 94.922 13.99-29.747 61.26-56.938 61.58-94.602.07-17.754-13.68-32.23-30.55-32.23-16.96 0-30.79 14.316-30.79 32.07 0-17.836-13.68-32.231-30.55-32.231-16.95-.078-30.71 14.317-30.79 32.071M507.988 1728.34c-.191-90.4-113.429-156.23-146.633-227.82-33.589 71.39-147.019 136.65-147.785 227.05-.195 42.61 32.817 77.34 73.317 77.34 40.687 0 73.89-34.35 73.89-76.96 0 42.8 32.821 77.35 73.317 77.35 40.691.19 73.703-34.35 73.894-76.96M507.988 1295.25c-.191-90.4-113.429-156.23-146.633-227.82-33.589 71.4-147.019 136.65-147.785 227.05-.195 42.61 32.817 77.35 73.317 77.35 40.687 0 73.89-34.36 73.89-76.97 0 42.8 32.821 77.35 73.317 77.35 40.691.19 73.703-34.35 73.894-76.96M213.57 703.262c.192 90.398 113.43 156.23 146.633 227.82 33.586-71.398 147.016-136.652 147.785-227.051.192-42.609-32.82-77.347-73.316-77.347-40.688 0-73.895 34.355-73.895 76.964 0-42.8-32.816-77.347-73.316-77.347-40.688-.192-73.699 34.355-73.891 76.961M213.57 270.176c.192 90.398 113.43 156.23 146.633 227.82 33.586-71.398 147.016-136.652 147.785-227.051.192-42.609-32.82-77.347-73.316-77.347-40.688 0-73.895 34.355-73.895 76.961 0-42.797-32.816-77.344-73.316-77.344-40.688-.195-73.699 34.351-73.891 76.961M1146.61 1728.34c-.2-90.4-113.43-156.23-146.637-227.82-33.586 71.39-147.016 136.65-147.785 227.05-.192 42.61 32.82 77.34 73.316 77.34 40.691 0 73.894-34.35 73.894-76.96 0 42.8 32.822 77.35 73.312 77.35 40.69.19 73.7-34.35 73.9-76.96M1146.61 1295.25c-.2-90.4-113.43-156.23-146.637-227.82-33.586 71.4-147.016 136.65-147.785 227.05-.192 42.61 32.82 77.35 73.316 77.35 40.691 0 73.894-34.36 73.894-76.97 0 42.8 32.822 77.35 73.312 77.35 40.69.19 73.7-34.35 73.9-76.96M852.191 703.262c.196 90.398 113.434 156.23 146.637 227.82 33.582-71.398 147.012-136.652 147.782-227.051.19-42.609-32.82-77.347-73.31-77.347-40.69 0-73.898 34.355-73.898 76.964 0-42.8-32.82-77.347-73.316-77.347-40.688-.192-73.699 34.355-73.895 76.961M852.191 270.176c.196 90.398 113.434 156.23 146.637 227.82 33.582-71.398 147.012-136.652 147.782-227.051.19-42.609-32.82-77.347-73.31-77.347-40.69 0-73.898 34.355-73.898 76.961 0-42.797-32.82-77.344-73.316-77.344-40.688-.195-73.699 34.351-73.895 76.961" style="fill:#e6180a;fill-opacity:1;fill-rule:nonzero;stroke:none" transform="matrix(.13333 0 0 -.13333 0 260.917)"/></svg>