<svg xmlns="http://www.w3.org/2000/svg" width="180.28" height="260.853" viewBox="0 0 180.28 260.853"><path d="M9.996 65.418c0-30.23 24.711-54.941 54.942-54.941H1287.24c30.15 0 54.86 24.71 54.86 54.941V1891.94c0 30.23-24.71 54.94-54.86 54.94H64.938c-30.231 0-54.942-24.71-54.942-54.94z" style="fill:#fff;fill-opacity:1;fill-rule:nonzero;stroke:none" transform="matrix(.13333 0 0 -.13333 0 260.917)"/><path d="M9.996 65.418c0-30.23 24.711-54.941 54.942-54.941H1287.24c30.15 0 54.86 24.71 54.86 54.941V1891.94c0 30.23-24.71 54.94-54.86 54.94H64.938c-30.231 0-54.942-24.71-54.942-54.94z" style="fill:none;stroke:#000;stroke-width:19.9926;stroke-linecap:butt;stroke-linejoin:miter;stroke-miterlimit:10;stroke-dasharray:none;stroke-opacity:1" transform="matrix(.13333 0 0 -.13333 0 260.917)"/><path d="M108.148 1906.86q-9.766 0-13.937-15.63-4.073-15.45-4.074-53.79c0-25.57 1.36-43.56 4.074-53.98 2.781-10.3 7.426-15.44 13.937-15.44 6.508 0 11.153 5.14 13.934 15.44 2.777 10.42 4.168 28.41 4.168 53.98q-.001 38.34-4.168 53.79-4.172 15.63-13.934 15.63m21.137-141.15c-4.172-6.28-8.816-11.01-13.933-14.21-5.055-3.07-10.555-4.61-16.496-4.61q-21.61 0-34.028 23.61-12.321 23.79-12.32 65.52c0 29.35 4.61 51.96 13.836 67.82q13.84 23.79 39.527 23.79c19.336 0 33.996-10.95 43.981-32.84q14.976-32.85 14.976-96.24c0-48.17-5.527-84.57-16.586-109.19q-16.587-36.75-49.195-36.75c-5.688 0-11.785.89-18.293 2.66-6.512 1.78-13.492 4.44-20.95 8v46.87h11.47c1.582-12.08 4.55-21.25 8.91-27.52q6.638-9.24 17.156-9.24c11.121 0 19.211 7.23 24.265 21.67 5.055 14.56 7.618 38.11 7.68 70.66M1251.91 58.469c6.51 0 11.15 5.21 13.93 15.625q4.08 15.446 4.08 53.797t-4.08 53.972c-2.78 10.297-7.42 15.45-13.93 15.45s-11.16-5.153-13.94-15.45c-2.77-10.414-4.17-28.406-4.17-53.972s1.4-43.5 4.17-53.797c2.78-10.414 7.43-15.625 13.94-15.625m-21.14 141.148c4.17 6.274 8.82 11.008 13.93 14.207q7.59 4.613 16.5 4.614c14.41 0 25.75-7.872 34.03-23.614 8.21-15.859 12.32-37.699 12.32-65.511 0-29.356-4.61-51.965-13.84-67.825s-22.4-23.789-39.53-23.793c-19.33.004-33.99 10.95-43.98 32.848q-14.97 32.846-14.97 96.23c0 48.172 5.52 84.571 16.58 109.192q16.59 36.75 49.2 36.75c5.69 0 11.78-.887 18.29-2.664 6.51-1.774 13.49-4.438 20.95-7.988v-46.872h-11.47q-2.37 18.112-8.91 27.52-6.63 9.229-17.16 9.23c-11.12 0-19.21-7.218-24.26-21.66q-7.59-21.837-7.68-70.664M119.156 1545.8h61.418c-6.996.31-12.949 4.84-18.57 8.58-12.625 9.53-24.453 20.45-33.793 33.23-4.359 6.43-8.938 13.66-9.055 21.69m61.418-63.5c-8.879-.28-16.457-5.92-23.222-11.14-11.957-10.03-22.305-21.97-31.039-34.9-3.208-5.35-6.981-11.02-7.157-17.46v63.5m0-63.5c-.304 9.46-6.062 17.65-11.5 24.96-9.691 12.07-21.175 22.76-33.812 31.69-4.91 3.06-10.121 6.7-16.106 6.85h61.418m-61.418 0c8.88.28 16.457 5.93 23.223 11.13 11.957 10.05 22.305 21.99 31.039 34.91 3.207 5.35 6.977 11.02 7.156 17.46v-63.5M1240.9 419.523h-61.42c7-.308 12.95-4.835 18.57-8.578 12.63-9.527 24.46-20.449 33.8-33.23 4.35-6.43 8.94-13.656 9.05-21.688m-61.42 63.496c8.88.282 16.46 5.93 23.23 11.141 11.95 10.035 22.3 21.977 31.03 34.899 3.21 5.351 6.98 11.019 7.16 17.457v-63.497m0 63.497c.3-9.45 6.06-17.641 11.5-24.95 9.69-12.074 21.17-22.757 33.81-31.691 4.91-3.063 10.13-6.707 16.11-6.856h-61.42m61.42 0c-8.88-.277-16.46-5.925-23.23-11.128-11.95-10.047-22.3-21.985-31.04-34.911-3.2-5.347-6.97-11.019-7.15-17.457v63.496M360.738 1652.9h147.399c-16.785.75-31.071 11.62-44.567 20.59-30.304 22.87-58.691 49.08-81.105 79.75-10.461 15.43-21.453 32.78-21.727 52.05m147.399-152.39c-21.305-.67-39.496-14.22-55.735-26.73-28.695-24.09-53.531-52.74-74.488-83.76-7.695-12.84-16.754-26.45-17.176-41.9v152.39m0-152.39c-.73 22.69-14.55 42.34-27.601 59.88-23.262 28.99-50.821 54.63-81.149 76.06-11.781 7.35-24.297 16.1-38.652 16.45h147.402m-147.402 0c21.305.67 39.5 14.23 55.734 26.72 28.696 24.11 53.532 52.76 74.489 83.77 7.695 12.84 16.746 26.45 17.179 41.9V1652.9M360.738 1219.81h147.399c-16.785.75-31.071 11.62-44.567 20.59-30.304 22.87-58.691 49.08-81.105 79.75-10.461 15.44-21.453 32.78-21.727 52.05m147.399-152.39c-21.305-.67-39.496-14.22-55.735-26.73-28.695-24.09-53.531-52.74-74.488-83.76-7.695-12.84-16.754-26.45-17.176-41.9v152.39m0-152.39c-.73 22.69-14.55 42.34-27.601 59.88-23.262 28.99-50.821 54.63-81.149 76.07-11.781 7.34-24.297 16.09-38.652 16.44h147.402m-147.402 0c21.305.67 39.5 14.23 55.734 26.72 28.696 24.11 53.532 52.76 74.489 83.78 7.695 12.84 16.746 26.44 17.179 41.89v-152.39M360.738 778.699H213.34c16.785-.75 31.07-11.613 44.566-20.59 30.305-22.863 58.692-49.082 81.106-79.75 10.461-15.433 21.453-32.785 21.726-52.054M213.34 778.699c21.305.672 39.496 14.227 55.734 26.735 28.696 24.086 53.531 52.742 74.489 83.757 7.695 12.84 16.753 26.45 17.175 41.899V778.699m0 152.391c.731-22.688 14.551-42.34 27.602-59.883 23.262-28.98 50.82-54.621 81.148-76.062 11.782-7.348 24.297-16.09 38.653-16.446H360.738m147.403 0c-21.305-.672-39.5-14.222-55.735-26.719-28.695-24.105-53.531-52.761-74.488-83.777-7.695-12.84-16.746-26.445-17.18-41.898v152.394M360.738 345.609H213.34c16.785-.75 31.07-11.613 44.566-20.589 30.305-22.864 58.692-49.082 81.106-79.75 10.461-15.434 21.453-32.782 21.726-52.051M213.34 345.609c21.305.672 39.496 14.227 55.734 26.735 28.696 24.09 53.531 52.742 74.489 83.758 7.695 12.839 16.753 26.449 17.175 41.898V345.609m0 152.391c.731-22.687 14.551-42.34 27.602-59.883 23.262-28.98 50.82-54.621 81.148-76.058 11.782-7.352 24.297-16.094 38.653-16.45H360.738m147.403 0c-21.305-.671-39.5-14.222-55.735-26.714-28.695-24.11-53.531-52.762-74.488-83.778-7.695-12.84-16.746-26.449-17.18-41.898v152.39M999.367 1652.9h147.403c-16.79.75-31.07 11.62-44.57 20.59-30.31 22.87-58.69 49.08-81.11 79.75-10.46 15.43-21.449 32.78-21.723 52.05m147.403-152.39c-21.31-.67-39.5-14.22-55.74-26.73-28.69-24.09-53.53-52.74-74.49-83.76-7.69-12.84-16.751-26.45-17.173-41.9v152.39m0-152.39c-.73 22.69-14.551 42.34-27.601 59.88-23.262 28.99-50.825 54.63-81.149 76.06-11.781 7.35-24.297 16.1-38.652 16.45h147.402m-147.402 0c21.305.67 39.5 14.23 55.734 26.72 28.696 24.11 53.531 52.76 74.489 83.77 7.695 12.84 16.746 26.45 17.179 41.9V1652.9M999.367 1219.81h147.403c-16.79.75-31.07 11.62-44.57 20.59-30.31 22.87-58.69 49.08-81.11 79.75-10.46 15.44-21.449 32.78-21.723 52.05m147.403-152.39c-21.31-.67-39.5-14.22-55.74-26.73-28.69-24.09-53.53-52.74-74.49-83.76-7.69-12.84-16.751-26.45-17.173-41.9v152.39m0-152.39c-.73 22.69-14.551 42.34-27.601 59.88-23.262 28.99-50.825 54.63-81.149 76.07-11.781 7.34-24.297 16.09-38.652 16.44h147.402m-147.402 0c21.305.67 39.5 14.23 55.734 26.72 28.696 24.11 53.531 52.76 74.489 83.78 7.695 12.84 16.746 26.44 17.179 41.89v-152.39M999.363 778.699H851.965c16.785-.75 31.07-11.613 44.562-20.59 30.309-22.863 58.692-49.082 81.11-79.75 10.461-15.433 21.449-32.785 21.726-52.054M851.965 778.699c21.301.672 39.496 14.227 55.734 26.735 28.692 24.086 53.528 52.742 74.489 83.757 7.695 12.84 16.753 26.45 17.175 41.899V778.699m0 152.391c.727-22.688 14.547-42.34 27.597-59.883 23.27-28.98 50.83-54.621 81.15-76.062 11.78-7.348 24.3-16.09 38.66-16.446H999.363m147.407 0c-21.31-.672-39.5-14.222-55.74-26.719-28.69-24.105-53.53-52.761-74.49-83.777-7.7-12.84-16.743-26.445-17.177-41.898v152.394M999.363 345.609H851.965c16.785-.75 31.07-11.613 44.562-20.589 30.309-22.864 58.692-49.082 81.11-79.75 10.461-15.434 21.449-32.782 21.726-52.051m-147.398 152.39c21.301.672 39.496 14.227 55.734 26.735 28.692 24.09 53.528 52.742 74.489 83.758 7.695 12.839 16.753 26.449 17.175 41.898V345.609m0 152.391c.727-22.687 14.547-42.34 27.597-59.883 23.27-28.98 50.83-54.621 81.15-76.058 11.78-7.352 24.3-16.094 38.66-16.45H999.363m147.407 0c-21.31-.671-39.5-14.222-55.74-26.714-28.69-24.11-53.53-52.762-74.49-83.778-7.7-12.84-16.743-26.449-17.177-41.898v152.39M680.051 1436.36h147.398c-16.785.75-31.07 11.61-44.562 20.59-30.309 22.86-58.696 49.08-81.11 79.75-10.461 15.43-21.453 32.78-21.726 52.05m147.398-152.39c-21.301-.67-39.496-14.23-55.734-26.73-28.695-24.09-53.527-52.75-74.488-83.76-7.696-12.84-16.754-26.45-17.176-41.9v152.39m0-152.39c-.731 22.68-14.551 42.34-27.602 59.88-23.261 28.98-50.82 54.62-81.144 76.06-11.785 7.35-24.301 16.09-38.657 16.45h147.403m-147.403 0c21.305.67 39.5 14.22 55.735 26.71 28.695 24.11 53.531 52.77 74.488 83.78 7.695 12.84 16.746 26.45 17.18 41.9v-152.39" style="fill:#e6180a;fill-opacity:1;fill-rule:nonzero;stroke:none" transform="matrix(.13333 0 0 -.13333 0 260.917)"/></svg>