<svg xmlns="http://www.w3.org/2000/svg" width="180.28" height="260.853" viewBox="0 0 180.28 260.853"><path d="M9.996 65.418c0-30.23 24.711-54.941 54.942-54.941H1287.24c30.15 0 54.86 24.71 54.86 54.941V1891.94c0 30.22-24.71 54.94-54.86 54.94H64.938c-30.231 0-54.942-24.72-54.942-54.94z" style="fill:#fff;fill-opacity:1;fill-rule:nonzero;stroke:none" transform="matrix(.13333 0 0 -.13333 0 260.917)"/><path d="M9.996 65.418c0-30.23 24.711-54.941 54.942-54.941H1287.24c30.15 0 54.86 24.71 54.86 54.941V1891.94c0 30.22-24.71 54.94-54.86 54.94H64.938c-30.231 0-54.942-24.72-54.942-54.94z" style="fill:none;stroke:#000;stroke-width:19.9926;stroke-linecap:butt;stroke-linejoin:miter;stroke-miterlimit:10;stroke-dasharray:none;stroke-opacity:1" transform="matrix(.13333 0 0 -.13333 0 260.917)"/><path d="M108.148 1906.86q-9.766 0-13.937-15.63-4.073-15.45-4.074-53.79c0-25.57 1.36-43.56 4.074-53.98 2.781-10.3 7.426-15.44 13.937-15.44 6.508 0 11.153 5.14 13.934 15.44 2.777 10.42 4.168 28.41 4.168 53.98q-.001 38.34-4.168 53.79-4.172 15.63-13.934 15.63m21.137-141.15c-4.172-6.28-8.816-11.01-13.933-14.21-5.055-3.07-10.555-4.61-16.496-4.61q-21.61 0-34.028 23.61-12.321 23.79-12.32 65.52c0 29.35 4.61 51.96 13.836 67.82q13.84 23.79 39.527 23.79c19.336 0 33.996-10.95 43.981-32.84q14.976-32.85 14.976-96.24c0-48.17-5.527-84.57-16.586-109.19q-16.587-36.75-49.195-36.75c-5.688 0-11.785.89-18.293 2.66-6.512 1.78-13.492 4.44-20.95 8v46.87h11.47c1.582-12.08 4.55-21.25 8.91-27.52q6.638-9.24 17.156-9.24c11.121 0 19.211 7.23 24.265 21.67 5.055 14.56 7.618 38.11 7.68 70.66M1251.91 58.469c6.51 0 11.15 5.21 13.93 15.625q4.08 15.446 4.08 53.797t-4.08 53.972c-2.78 10.297-7.42 15.446-13.93 15.446s-11.16-5.149-13.94-15.446c-2.77-10.414-4.17-28.406-4.17-53.972s1.4-43.5 4.17-53.797c2.78-10.414 7.43-15.625 13.94-15.625m-21.14 141.148c4.17 6.274 8.82 11.008 13.93 14.203q7.59 4.618 16.5 4.618c14.41 0 25.75-7.872 34.03-23.614 8.21-15.859 12.32-37.699 12.32-65.515 0-29.352-4.61-51.961-13.84-67.82-9.23-15.86-22.4-23.794-39.53-23.794q-28.995 0-43.98 32.848-14.97 32.846-14.97 96.23c0 48.172 5.52 84.571 16.58 109.192q16.59 36.75 49.2 36.75c5.69 0 11.78-.887 18.29-2.664 6.51-1.774 13.49-4.438 20.95-7.988v-46.872h-11.47c-1.58 12.071-4.55 21.247-8.91 27.52q-6.63 9.229-17.16 9.23c-11.12 0-19.21-7.218-24.26-21.66q-7.59-21.837-7.68-70.664M87.809 1482.39c13.355 0 20.39 14.23 24.07 28.47 3.68 14.23 4 28.46 4 28.46l6.797.09s1.277-57.02 27.988-57.02z" style="fill:#000;fill-opacity:1;fill-rule:nonzero;stroke:none" transform="matrix(.13333 0 0 -.13333 0 260.917)"/><path d="M65.176 1539.41c.082 27.74 41.746 47.89 53.98 69.81 12.235-21.99 53.899-42.15 53.981-69.81 0-13.12-12.074-23.76-27.032-23.76-14.875 0-26.949 10.64-26.949 23.76 0-13.12-12.074-23.76-27.031-23.76-14.953 0-26.95 10.64-26.95 23.76M1272.25 482.941c-13.36 0-20.39-14.234-24.07-28.468s-4-28.469-4-28.469l-6.8-.082s-1.28 57.019-27.99 57.019z" style="fill:#000;fill-opacity:1;fill-rule:nonzero;stroke:none" transform="matrix(.13333 0 0 -.13333 0 260.917)"/><path d="M1294.88 425.922c-.08-27.75-41.75-47.902-53.98-69.813-12.24 21.993-53.9 42.145-53.98 69.813 0 13.117 12.08 23.75 27.03 23.75 14.87 0 26.95-10.633 26.95-23.75 0 13.117 12.08 23.75 27.03 23.75s26.95-10.633 26.95-23.75M285.5 1500.71c32.055 0 48.941 34.17 57.77 68.33 8.832 34.16 9.597 68.32 9.597 68.32l16.313.2s3.074-136.85 67.175-136.85z" style="fill:#000;fill-opacity:1;fill-rule:nonzero;stroke:none" transform="matrix(.13333 0 0 -.13333 0 260.917)"/><path d="M231.184 1637.56c.191 66.6 100.187 114.96 129.554 167.55 29.364-52.78 129.36-101.15 129.551-167.55 0-31.48-28.98-57.01-64.871-57.01-35.699 0-64.68 25.53-64.68 57.01 0-31.48-28.984-57.01-64.875-57.01s-64.679 25.53-64.679 57.01M285.5 1067.63c32.055 0 48.941 34.16 57.77 68.32 8.832 34.16 9.597 68.33 9.597 68.33l16.313.19s3.074-136.84 67.175-136.84z" style="fill:#000;fill-opacity:1;fill-rule:nonzero;stroke:none" transform="matrix(.13333 0 0 -.13333 0 260.917)"/><path d="M231.184 1204.47c.191 66.6 100.187 114.96 129.554 167.55 29.364-52.78 129.36-101.14 129.551-167.55 0-31.48-28.98-57-64.871-57-35.699 0-64.68 25.52-64.68 57 0-31.48-28.984-57-64.875-57s-64.679 25.52-64.679 57M435.977 930.895c-32.051 0-48.942-34.165-57.77-68.329-8.832-34.164-9.598-68.328-9.598-68.328l-16.312-.191s-3.074 136.848-67.176 136.848z" style="fill:#000;fill-opacity:1;fill-rule:nonzero;stroke:none" transform="matrix(.13333 0 0 -.13333 0 260.917)"/><path d="M490.293 794.047c-.191-66.598-100.188-114.965-129.555-167.555-29.363 52.781-129.359 101.149-129.55 167.555 0 31.476 28.98 57.004 64.871 57.004 35.699 0 64.679-25.528 64.679-57.004 0 31.476 28.985 57.004 64.875 57.004s64.68-25.528 64.68-57.004M435.977 497.805c-32.051 0-48.942-34.164-57.77-68.325-8.832-34.164-9.598-68.328-9.598-68.328l-16.312-.191s-3.074 136.844-67.176 136.844z" style="fill:#000;fill-opacity:1;fill-rule:nonzero;stroke:none" transform="matrix(.13333 0 0 -.13333 0 260.917)"/><path d="M490.293 360.961c-.191-66.602-100.188-114.965-129.555-167.555-29.363 52.782-129.359 101.149-129.55 167.555 0 31.477 28.98 57.004 64.871 57.004 35.699 0 64.679-25.527 64.679-57.004 0 31.477 28.985 57.004 64.875 57.004s64.68-25.527 64.68-57.004M924.129 1500.71c32.051 0 48.941 34.17 57.769 68.33 8.832 34.16 9.598 68.32 9.598 68.32l16.314.2s3.07-136.85 67.17-136.85z" style="fill:#000;fill-opacity:1;fill-rule:nonzero;stroke:none" transform="matrix(.13333 0 0 -.13333 0 260.917)"/><path d="M869.813 1637.56c.191 66.6 100.187 114.96 129.554 167.55 29.363-52.78 129.363-101.15 129.553-167.55 0-31.48-28.98-57.01-64.87-57.01-35.7 0-64.683 25.53-64.683 57.01 0-31.48-28.984-57.01-64.875-57.01s-64.679 25.53-64.679 57.01M924.129 1067.63c32.051 0 48.941 34.16 57.769 68.32 8.832 34.16 9.598 68.33 9.598 68.33l16.314.19s3.07-136.84 67.17-136.84z" style="fill:#000;fill-opacity:1;fill-rule:nonzero;stroke:none" transform="matrix(.13333 0 0 -.13333 0 260.917)"/><path d="M869.813 1204.47c.191 66.6 100.187 114.96 129.554 167.55 29.363-52.78 129.363-101.14 129.553-167.55 0-31.48-28.98-57-64.87-57-35.7 0-64.683 25.52-64.683 57 0-31.48-28.984-57-64.875-57s-64.679 25.52-64.679 57M1074.6 930.895c-32.05 0-48.94-34.165-57.77-68.329s-9.6-68.328-9.6-68.328l-16.312-.191s-3.07 136.848-67.172 136.848z" style="fill:#000;fill-opacity:1;fill-rule:nonzero;stroke:none" transform="matrix(.13333 0 0 -.13333 0 260.917)"/><path d="M1128.92 794.047c-.2-66.598-100.19-114.965-129.557-167.555C970 679.273 870.004 727.641 869.813 794.047c0 31.476 28.98 57.004 64.871 57.004 35.699 0 64.679-25.528 64.679-57.004 0 31.476 28.977 57.004 64.867 57.004 35.9 0 64.69-25.528 64.69-57.004M1074.6 497.805c-32.05 0-48.94-34.164-57.77-68.325-8.83-34.164-9.6-68.328-9.6-68.328l-16.312-.191s-3.07 136.844-67.172 136.844z" style="fill:#000;fill-opacity:1;fill-rule:nonzero;stroke:none" transform="matrix(.13333 0 0 -.13333 0 260.917)"/><path d="M1128.92 360.961c-.2-66.602-100.19-114.965-129.557-167.555C970 246.188 870.004 294.555 869.813 360.961c0 31.477 28.98 57.004 64.871 57.004 35.699 0 64.679-25.527 64.679-57.004 0 31.477 28.977 57.004 64.867 57.004 35.9 0 64.69-25.527 64.69-57.004M604.813 1284.15c32.054 0 48.941 34.17 57.773 68.33 8.828 34.16 9.594 68.32 9.594 68.32l16.316.2s3.07-136.85 67.172-136.85z" style="fill:#000;fill-opacity:1;fill-rule:nonzero;stroke:none" transform="matrix(.13333 0 0 -.13333 0 260.917)"/><path d="M550.496 1421c.195 66.6 100.188 114.96 129.555 167.55 29.363-52.78 129.359-101.14 129.551-167.55 0-31.48-28.981-57-64.872-57-35.699 0-64.679 25.52-64.679 57 0-31.48-28.981-57-64.875-57-35.891 0-64.68 25.52-64.68 57" style="fill:#000;fill-opacity:1;fill-rule:nonzero;stroke:none" transform="matrix(.13333 0 0 -.13333 0 260.917)"/></svg>