<svg xmlns="http://www.w3.org/2000/svg" width="180.28" height="260.853" viewBox="0 0 180.28 260.853"><path d="M9.996 65.418c0-30.23 24.711-54.941 54.942-54.941H1287.24c30.15 0 54.86 24.71 54.86 54.941V1891.94c0 30.22-24.71 54.94-54.86 54.94H64.938c-30.231 0-54.942-24.72-54.942-54.94z" style="fill:#fff;fill-opacity:1;fill-rule:nonzero;stroke:none" transform="matrix(.13333 0 0 -.13333 0 260.917)"/><path d="M9.996 65.418c0-30.23 24.711-54.941 54.942-54.941H1287.24c30.15 0 54.86 24.71 54.86 54.941V1891.94c0 30.22-24.71 54.94-54.86 54.94H64.938c-30.231 0-54.942-24.72-54.942-54.94z" style="fill:none;stroke:#000;stroke-width:19.9926;stroke-linecap:butt;stroke-linejoin:miter;stroke-miterlimit:10;stroke-dasharray:none;stroke-opacity:1" transform="matrix(.13333 0 0 -.13333 0 260.917)"/><path d="M108.148 1906.86q-9.766 0-13.937-15.63-4.073-15.45-4.074-53.79c0-25.57 1.36-43.56 4.074-53.98 2.781-10.3 7.426-15.44 13.937-15.44 6.508 0 11.153 5.14 13.934 15.44 2.777 10.42 4.168 28.41 4.168 53.98q-.001 38.34-4.168 53.79-4.172 15.63-13.934 15.63m21.137-141.15c-4.172-6.28-8.816-11.01-13.933-14.21-5.055-3.07-10.555-4.61-16.496-4.61q-21.61 0-34.028 23.61-12.321 23.79-12.32 65.52c0 29.35 4.61 51.96 13.836 67.82q13.84 23.79 39.527 23.79c19.336 0 33.996-10.95 43.981-32.84q14.976-32.85 14.976-96.24c0-48.17-5.527-84.57-16.586-109.19q-16.587-36.75-49.195-36.75c-5.688 0-11.785.89-18.293 2.66-6.512 1.78-13.492 4.44-20.95 8v46.87h11.47c1.582-12.08 4.55-21.25 8.91-27.52q6.638-9.24 17.156-9.24c11.121 0 19.211 7.23 24.265 21.66 5.055 14.56 7.618 38.12 7.68 70.67M1251.91 58.469c6.51 0 11.15 5.207 13.93 15.625q4.08 15.446 4.08 53.797t-4.08 53.972c-2.78 10.297-7.42 15.446-13.93 15.446s-11.16-5.149-13.94-15.446c-2.77-10.414-4.17-28.406-4.17-53.972s1.4-43.5 4.17-53.797c2.78-10.418 7.43-15.625 13.94-15.625m-21.14 141.148c4.17 6.274 8.82 11.008 13.93 14.203q7.59 4.618 16.5 4.618c14.41 0 25.75-7.872 34.03-23.614 8.21-15.859 12.32-37.699 12.32-65.515 0-29.352-4.61-51.961-13.84-67.82-9.23-15.86-22.4-23.794-39.53-23.794q-28.995 0-43.98 32.848-14.97 32.846-14.97 96.23c0 48.172 5.52 84.571 16.58 109.188q16.59 36.755 49.2 36.754c5.69 0 11.78-.887 18.29-2.664 6.51-1.774 13.49-4.438 20.95-7.988v-46.872h-11.47c-1.58 12.071-4.55 21.247-8.91 27.52q-6.63 9.229-17.16 9.23c-11.12 0-19.21-7.218-24.26-21.66q-7.59-21.837-7.68-70.664M92.367 1583.07c0-14.48 12.074-26.23 27.028-26.23 14.957 0 27.031 11.75 27.031 26.23 0 14.47-12.074 26.23-27.031 26.23-14.954 0-27.028-11.76-27.028-26.23M57.5 1533.41c0-14.48 12.074-26.23 27.031-26.23 14.953 0 27.028 11.75 27.028 26.23 0 14.47-12.075 26.23-27.028 26.23-14.957 0-27.031-11.76-27.031-26.23M126.754 1533.25c0-5.28 1.598-10.24 4.398-14.4 4.797-7.12 13.196-11.83 22.633-11.83 14.953 0 27.028 11.75 27.028 26.23 0 14.47-12.075 26.23-27.028 26.23-14.957 0-27.031-11.76-27.031-26.23M87.648 1482.3c13.356 0 20.391 10.88 24.071 21.76 3.679 10.87 4 21.75 4 21.75h6.875s1.281-43.42 27.992-43.51z" style="fill:#000;fill-opacity:1;fill-rule:nonzero;stroke:none" transform="matrix(.13333 0 0 -.13333 0 260.917)"/><path d="M137.711 1563.79c-15.195-15.19-15.195-37.98-15.195-37.98l-6.797-.08s0 23.27-14.797 38.06" style="fill:#000;fill-opacity:1;fill-rule:nonzero;stroke:none" transform="matrix(.13333 0 0 -.13333 0 260.917)"/><path d="M134.672 1515.01c-15.195 15.2-37.988 15.2-37.988 15.2v6.79s23.273 0 38.066 14.8" style="fill:#000;fill-opacity:1;fill-rule:nonzero;stroke:none" transform="matrix(.13333 0 0 -.13333 0 260.917)"/><path d="M104.203 1514.93c15.192 15.2 37.985 15.2 37.985 15.2v6.8s-23.27 0-38.067 14.79M1267.69 382.258c0 14.476-12.08 26.23-27.03 26.23-14.96 0-27.03-11.754-27.03-26.23 0-14.473 12.07-26.231 27.03-26.231 14.95 0 27.03 11.758 27.03 26.231M1302.55 431.918c0 14.477-12.07 26.23-27.02 26.23-14.96 0-27.03-11.753-27.03-26.23 0-14.473 12.07-26.227 27.03-26.227 14.95 0 27.02 11.754 27.02 26.227M1233.3 432.078c0 5.281-1.6 10.238-4.4 14.395-4.79 7.117-13.19 11.836-22.63 11.836-14.95 0-27.03-11.754-27.03-26.231 0-14.473 12.08-26.23 27.03-26.23 14.96 0 27.03 11.757 27.03 26.23M1272.41 483.02c-13.36 0-20.39-10.875-24.07-21.75s-4-21.754-4-21.754h-6.88s-1.28 43.425-27.99 43.504z" style="fill:#000;fill-opacity:1;fill-rule:nonzero;stroke:none" transform="matrix(.13333 0 0 -.13333 0 260.917)"/><path d="M1222.35 401.531c15.19 15.196 15.19 37.985 15.19 37.985l6.8.082s0-23.274 14.79-38.067" style="fill:#000;fill-opacity:1;fill-rule:nonzero;stroke:none" transform="matrix(.13333 0 0 -.13333 0 260.917)"/><path d="M1225.39 450.313c15.19-15.196 37.98-15.196 37.98-15.196v-6.797s-23.27 0-38.07-14.793" style="fill:#000;fill-opacity:1;fill-rule:nonzero;stroke:none" transform="matrix(.13333 0 0 -.13333 0 260.917)"/><path d="M1255.86 450.395c-15.2-15.196-37.99-15.196-37.99-15.196v-6.797s23.27 0 38.06-14.797M296.441 1742.34c0-34.73 28.981-62.95 64.872-62.95s64.871 28.22 64.871 62.95c0 34.74-28.981 62.96-64.871 62.96-35.891 0-64.872-28.22-64.872-62.96M212.758 1623.16c0-34.74 28.984-62.96 64.875-62.96s64.871 28.22 64.871 62.96c0 34.73-28.981 62.95-64.871 62.95-35.891 0-64.875-28.22-64.875-62.95M378.969 1622.77c0-12.66 3.84-24.56 10.558-34.54 11.516-17.09 31.668-28.41 54.317-28.41 35.89 0 64.871 28.22 64.871 62.95 0 34.74-28.981 62.96-64.871 62.96-35.895 0-64.875-28.22-64.875-62.96M285.117 1500.52c32.051 0 48.942 26.1 57.77 52.2s9.597 52.2 9.597 52.2h16.504s3.071-104.21 67.176-104.4z" style="fill:#000;fill-opacity:1;fill-rule:nonzero;stroke:none" transform="matrix(.13333 0 0 -.13333 0 260.917)"/><path d="M405.266 1696.09c-36.469-36.46-36.469-91.17-36.469-91.17l-16.313-.19s0 55.85-35.507 91.36" style="fill:#000;fill-opacity:1;fill-rule:nonzero;stroke:none" transform="matrix(.13333 0 0 -.13333 0 260.917)"/><path d="M397.973 1579.01c-36.469 36.47-91.168 36.47-91.168 36.47v16.31s55.851 0 91.359 35.51" style="fill:#000;fill-opacity:1;fill-rule:nonzero;stroke:none" transform="matrix(.13333 0 0 -.13333 0 260.917)"/><path d="M324.848 1578.82c36.465 36.47 91.164 36.47 91.164 36.47v16.31s-55.852 0-91.36 35.51M296.441 1309.25c0-34.73 28.981-62.95 64.872-62.95s64.871 28.22 64.871 62.95c0 34.75-28.981 62.96-64.871 62.96-35.891 0-64.872-28.21-64.872-62.96M212.758 1190.07c0-34.74 28.984-62.96 64.875-62.96s64.871 28.22 64.871 62.96c0 34.73-28.981 62.95-64.871 62.95-35.891 0-64.875-28.22-64.875-62.95M378.969 1189.68c0-12.66 3.84-24.56 10.558-34.54 11.516-17.09 31.668-28.41 54.317-28.41 35.89 0 64.871 28.22 64.871 62.95 0 34.74-28.981 62.96-64.871 62.96-35.895 0-64.875-28.22-64.875-62.96M285.117 1067.43c32.051 0 48.942 26.1 57.77 52.2s9.597 52.21 9.597 52.21h16.504s3.071-104.22 67.176-104.41z" style="fill:#000;fill-opacity:1;fill-rule:nonzero;stroke:none" transform="matrix(.13333 0 0 -.13333 0 260.917)"/><path d="M405.266 1263c-36.469-36.46-36.469-91.16-36.469-91.16l-16.313-.2s0 55.85-35.507 91.36" style="fill:#000;fill-opacity:1;fill-rule:nonzero;stroke:none" transform="matrix(.13333 0 0 -.13333 0 260.917)"/><path d="M397.973 1145.93c-36.469 36.46-91.168 36.46-91.168 36.46v16.31s55.851 0 91.359 35.51" style="fill:#000;fill-opacity:1;fill-rule:nonzero;stroke:none" transform="matrix(.13333 0 0 -.13333 0 260.917)"/><path d="M324.848 1145.73c36.465 36.47 91.164 36.47 91.164 36.47v16.31s-55.852 0-91.36 35.51M425.035 689.262c0 34.738-28.98 62.953-64.871 62.953S295.293 724 295.293 689.262s28.98-62.953 64.871-62.953 64.871 28.214 64.871 62.953M508.719 808.449c0 34.742-28.985 62.953-64.875 62.953s-64.871-28.211-64.871-62.953c0-34.738 28.98-62.953 64.871-62.953s64.875 28.215 64.875 62.953M342.508 808.836c0 12.664-3.84 24.566-10.559 34.547-11.515 17.082-31.668 28.402-54.312 28.402-35.895 0-64.875-28.211-64.875-62.949 0-34.742 28.98-62.953 64.875-62.953 35.89 0 64.871 28.211 64.871 62.953M436.359 931.094c-32.05 0-48.941-26.102-57.769-52.207-8.828-26.102-9.598-52.203-9.598-52.203h-16.504s-3.07 104.218-67.175 104.41z" style="fill:#000;fill-opacity:1;fill-rule:nonzero;stroke:none" transform="matrix(.13333 0 0 -.13333 0 260.917)"/><path d="M316.211 735.52c36.469 36.464 36.469 91.164 36.469 91.164l16.312.191s0-55.852 35.508-91.355" style="fill:#000;fill-opacity:1;fill-rule:nonzero;stroke:none" transform="matrix(.13333 0 0 -.13333 0 260.917)"/><path d="M323.504 852.594c36.469-36.465 91.168-36.465 91.168-36.465v-16.316s-55.852 0-91.359-35.504" style="fill:#000;fill-opacity:1;fill-rule:nonzero;stroke:none" transform="matrix(.13333 0 0 -.13333 0 260.917)"/><path d="M396.629 852.785c-36.465-36.465-91.164-36.465-91.164-36.465v-16.316s55.851 0 91.359-35.504M425.035 256.176c0 34.738-28.98 62.949-64.871 62.949s-64.871-28.211-64.871-62.949c0-34.742 28.98-62.953 64.871-62.953s64.871 28.211 64.871 62.953M508.719 375.363c0 34.739-28.985 62.95-64.875 62.95s-64.871-28.211-64.871-62.95c0-34.742 28.98-62.953 64.871-62.953s64.875 28.211 64.875 62.953M342.508 375.746c0 12.668-3.84 24.567-10.559 34.547-11.515 17.082-31.668 28.406-54.312 28.406-35.895 0-64.875-28.215-64.875-62.953s28.98-62.953 64.875-62.953c35.89 0 64.871 28.215 64.871 62.953M436.359 498.004c-32.05 0-48.941-26.102-57.769-52.203-8.828-26.106-9.598-52.207-9.598-52.207h-16.504s-3.07 104.219-67.175 104.41z" style="fill:#000;fill-opacity:1;fill-rule:nonzero;stroke:none" transform="matrix(.13333 0 0 -.13333 0 260.917)"/><path d="M316.211 302.43c36.469 36.465 36.469 91.164 36.469 91.164l16.312.191s0-55.851 35.508-91.355" style="fill:#000;fill-opacity:1;fill-rule:nonzero;stroke:none" transform="matrix(.13333 0 0 -.13333 0 260.917)"/><path d="M323.504 419.504c36.469-36.465 91.168-36.465 91.168-36.465v-16.312s-55.852 0-91.359-35.508" style="fill:#000;fill-opacity:1;fill-rule:nonzero;stroke:none" transform="matrix(.13333 0 0 -.13333 0 260.917)"/><path d="M396.629 419.695c-36.465-36.465-91.164-36.465-91.164-36.465v-16.312s55.851 0 91.359-35.508M935.07 1742.34c0-34.73 28.981-62.95 64.871-62.95s64.869 28.22 64.869 62.95c0 34.74-28.98 62.96-64.869 62.96-35.89 0-64.871-28.22-64.871-62.96M851.387 1623.16c0-34.74 28.984-62.96 64.875-62.96s64.871 28.22 64.871 62.96c0 34.73-28.981 62.95-64.871 62.95-35.891 0-64.875-28.22-64.875-62.95M1017.6 1622.77c0-12.66 3.84-24.56 10.56-34.54 11.51-17.09 31.66-28.41 54.31-28.41 35.89 0 64.87 28.22 64.87 62.95 0 34.74-28.98 62.96-64.87 62.96s-64.87-28.22-64.87-62.96M923.746 1500.52c32.051 0 48.942 26.1 57.77 52.2s9.597 52.2 9.597 52.2h16.507s3.07-104.21 67.17-104.4z" style="fill:#000;fill-opacity:1;fill-rule:nonzero;stroke:none" transform="matrix(.13333 0 0 -.13333 0 260.917)"/><path d="M1043.89 1696.09c-36.46-36.46-36.46-91.17-36.46-91.17l-16.317-.19s0 55.85-35.508 91.36" style="fill:#000;fill-opacity:1;fill-rule:nonzero;stroke:none" transform="matrix(.13333 0 0 -.13333 0 260.917)"/><path d="M1036.6 1579.01c-36.47 36.47-91.166 36.47-91.166 36.47v16.31s55.856 0 91.356 35.51" style="fill:#000;fill-opacity:1;fill-rule:nonzero;stroke:none" transform="matrix(.13333 0 0 -.13333 0 260.917)"/><path d="M963.477 1578.82c36.464 36.47 91.163 36.47 91.163 36.47v16.31s-55.851 0-91.359 35.51M935.07 1309.25c0-34.73 28.981-62.95 64.871-62.95s64.869 28.22 64.869 62.95c0 34.75-28.98 62.96-64.869 62.96-35.89 0-64.871-28.21-64.871-62.96M851.387 1190.07c0-34.74 28.984-62.96 64.875-62.96s64.871 28.22 64.871 62.96c0 34.73-28.981 62.95-64.871 62.95-35.891 0-64.875-28.22-64.875-62.95M1017.6 1189.68c0-12.66 3.84-24.56 10.56-34.54 11.51-17.09 31.66-28.41 54.31-28.41 35.89 0 64.87 28.22 64.87 62.95 0 34.74-28.98 62.96-64.87 62.96s-64.87-28.22-64.87-62.96M923.746 1067.43c32.051 0 48.942 26.1 57.77 52.2s9.597 52.21 9.597 52.21h16.507s3.07-104.22 67.17-104.41z" style="fill:#000;fill-opacity:1;fill-rule:nonzero;stroke:none" transform="matrix(.13333 0 0 -.13333 0 260.917)"/><path d="M1043.89 1263c-36.46-36.46-36.46-91.16-36.46-91.16l-16.317-.2s0 55.85-35.508 91.36" style="fill:#000;fill-opacity:1;fill-rule:nonzero;stroke:none" transform="matrix(.13333 0 0 -.13333 0 260.917)"/><path d="M1036.6 1145.93c-36.47 36.46-91.166 36.46-91.166 36.46v16.31s55.856 0 91.356 35.51" style="fill:#000;fill-opacity:1;fill-rule:nonzero;stroke:none" transform="matrix(.13333 0 0 -.13333 0 260.917)"/><path d="M963.477 1145.73c36.464 36.47 91.163 36.47 91.163 36.47v16.31s-55.851 0-91.359 35.51M1063.66 689.262c0 34.738-28.98 62.953-64.871 62.953S933.918 724 933.918 689.262s28.98-62.953 64.871-62.953 64.871 28.214 64.871 62.953M1147.34 808.449c0 34.742-28.98 62.953-64.87 62.953s-64.87-28.211-64.87-62.953c0-34.738 28.98-62.953 64.87-62.953s64.87 28.215 64.87 62.953M981.133 808.836c0 12.664-3.84 24.566-10.559 34.547-11.515 17.082-31.668 28.402-54.316 28.402-35.891 0-64.871-28.211-64.871-62.949 0-34.742 28.98-62.953 64.871-62.953s64.875 28.211 64.875 62.953M1074.98 931.094c-32.05 0-48.94-26.102-57.77-52.207-8.82-26.102-9.59-52.203-9.59-52.203h-16.511s-3.07 104.218-67.171 104.41z" style="fill:#000;fill-opacity:1;fill-rule:nonzero;stroke:none" transform="matrix(.13333 0 0 -.13333 0 260.917)"/><path d="M954.836 735.52c36.469 36.464 36.469 91.164 36.469 91.164l16.315.191s0-55.852 35.51-91.355" style="fill:#000;fill-opacity:1;fill-rule:nonzero;stroke:none" transform="matrix(.13333 0 0 -.13333 0 260.917)"/><path d="M962.129 852.594c36.469-36.465 91.171-36.465 91.171-36.465v-16.316s-55.855 0-91.362-35.504" style="fill:#000;fill-opacity:1;fill-rule:nonzero;stroke:none" transform="matrix(.13333 0 0 -.13333 0 260.917)"/><path d="M1035.25 852.785c-36.461-36.465-91.16-36.465-91.16-36.465v-16.316s55.851 0 91.36-35.504M1063.66 256.176c0 34.738-28.98 62.949-64.871 62.949s-64.871-28.211-64.871-62.949c0-34.742 28.98-62.953 64.871-62.953s64.871 28.211 64.871 62.953M1147.34 375.363c0 34.739-28.98 62.95-64.87 62.95s-64.87-28.211-64.87-62.95c0-34.742 28.98-62.953 64.87-62.953s64.87 28.211 64.87 62.953M981.133 375.746c0 12.668-3.84 24.567-10.559 34.547-11.515 17.082-31.668 28.406-54.316 28.406-35.891 0-64.871-28.215-64.871-62.953s28.98-62.953 64.871-62.953 64.875 28.215 64.875 62.953M1074.98 498.004c-32.05 0-48.94-26.102-57.77-52.203-8.82-26.106-9.59-52.207-9.59-52.207h-16.511s-3.07 104.219-67.171 104.41z" style="fill:#000;fill-opacity:1;fill-rule:nonzero;stroke:none" transform="matrix(.13333 0 0 -.13333 0 260.917)"/><path d="M954.836 302.43c36.469 36.465 36.469 91.164 36.469 91.164l16.315.191s0-55.851 35.51-91.355" style="fill:#000;fill-opacity:1;fill-rule:nonzero;stroke:none" transform="matrix(.13333 0 0 -.13333 0 260.917)"/><path d="M962.129 419.504c36.469-36.465 91.171-36.465 91.171-36.465v-16.312s-55.855 0-91.362-35.508" style="fill:#000;fill-opacity:1;fill-rule:nonzero;stroke:none" transform="matrix(.13333 0 0 -.13333 0 260.917)"/><path d="M1035.25 419.695c-36.461-36.465-91.16-36.465-91.16-36.465v-16.312s55.851 0 91.36-35.508M615.754 1525.8c0-34.74 28.98-62.95 64.871-62.95s64.871 28.21 64.871 62.95-28.98 62.95-64.871 62.95-64.871-28.21-64.871-62.95M532.074 1406.61c0-34.74 28.981-62.95 64.871-62.95 35.891 0 64.871 28.21 64.871 62.95s-28.98 62.95-64.871 62.95-64.871-28.21-64.871-62.95M698.281 1406.23c0-12.67 3.84-24.57 10.559-34.55 11.515-17.08 31.668-28.41 54.316-28.41 35.891 0 64.871 28.22 64.871 62.96 0 34.73-28.98 62.95-64.871 62.95s-64.875-28.22-64.875-62.95M604.43 1283.97c32.05 0 48.941 26.1 57.769 52.2 8.828 26.11 9.598 52.21 9.598 52.21h16.504s3.074-104.22 67.176-104.41z" style="fill:#000;fill-opacity:1;fill-rule:nonzero;stroke:none" transform="matrix(.13333 0 0 -.13333 0 260.917)"/><path d="M724.578 1479.54c-36.469-36.46-36.469-91.16-36.469-91.16l-16.312-.19s0 55.85-35.508 91.35" style="fill:#000;fill-opacity:1;fill-rule:nonzero;stroke:none" transform="matrix(.13333 0 0 -.13333 0 260.917)"/><path d="M717.285 1362.47c-36.469 36.46-91.168 36.46-91.168 36.46v16.32s55.852 0 91.36 35.5" style="fill:#000;fill-opacity:1;fill-rule:nonzero;stroke:none" transform="matrix(.13333 0 0 -.13333 0 260.917)"/><path d="M644.16 1362.28c36.465 36.46 91.164 36.46 91.164 36.46v16.31s-55.851 0-91.355 35.51" style="fill:#000;fill-opacity:1;fill-rule:nonzero;stroke:none" transform="matrix(.13333 0 0 -.13333 0 260.917)"/></svg>